<?xml version="1.0" encoding="utf-8"?>
<svg xmlns="http://www.w3.org/2000/svg" xmlns:xlink="http://www.w3.org/1999/xlink" width="600" height="400" viewBox="0 0 2400 1600">
<defs>
  <clipPath id="clip580">
    <rect x="0" y="0" width="2400" height="1600"/>
  </clipPath>
</defs>
<path clip-path="url(#clip580)" d="M0 1600 L2400 1600 L2400 0 L0 0  Z" fill="#ffffff" fill-rule="evenodd" fill-opacity="1"/>
<defs>
  <clipPath id="clip581">
    <rect x="480" y="0" width="1681" height="1600"/>
  </clipPath>
</defs>
<path clip-path="url(#clip580)" d="M203.964 1423.18 L2352.76 1423.18 L2352.76 47.2441 L203.964 47.2441  Z" fill="#ffffff" fill-rule="evenodd" fill-opacity="1"/>
<defs>
  <clipPath id="clip582">
    <rect x="203" y="47" width="2150" height="1377"/>
  </clipPath>
</defs>
<polyline clip-path="url(#clip582)" style="stroke:#000000; stroke-linecap:round; stroke-linejoin:round; stroke-width:2; stroke-opacity:0.1; fill:none" points="409.576,1423.18 409.576,47.2441 "/>
<polyline clip-path="url(#clip582)" style="stroke:#000000; stroke-linecap:round; stroke-linejoin:round; stroke-width:2; stroke-opacity:0.1; fill:none" points="699.17,1423.18 699.17,47.2441 "/>
<polyline clip-path="url(#clip582)" style="stroke:#000000; stroke-linecap:round; stroke-linejoin:round; stroke-width:2; stroke-opacity:0.1; fill:none" points="988.765,1423.18 988.765,47.2441 "/>
<polyline clip-path="url(#clip582)" style="stroke:#000000; stroke-linecap:round; stroke-linejoin:round; stroke-width:2; stroke-opacity:0.1; fill:none" points="1278.36,1423.18 1278.36,47.2441 "/>
<polyline clip-path="url(#clip582)" style="stroke:#000000; stroke-linecap:round; stroke-linejoin:round; stroke-width:2; stroke-opacity:0.1; fill:none" points="1567.95,1423.18 1567.95,47.2441 "/>
<polyline clip-path="url(#clip582)" style="stroke:#000000; stroke-linecap:round; stroke-linejoin:round; stroke-width:2; stroke-opacity:0.1; fill:none" points="1857.55,1423.18 1857.55,47.2441 "/>
<polyline clip-path="url(#clip582)" style="stroke:#000000; stroke-linecap:round; stroke-linejoin:round; stroke-width:2; stroke-opacity:0.1; fill:none" points="2147.14,1423.18 2147.14,47.2441 "/>
<polyline clip-path="url(#clip582)" style="stroke:#000000; stroke-linecap:round; stroke-linejoin:round; stroke-width:2; stroke-opacity:0.1; fill:none" points="203.964,1386.89 2352.76,1386.89 "/>
<polyline clip-path="url(#clip582)" style="stroke:#000000; stroke-linecap:round; stroke-linejoin:round; stroke-width:2; stroke-opacity:0.1; fill:none" points="203.964,1009.3 2352.76,1009.3 "/>
<polyline clip-path="url(#clip582)" style="stroke:#000000; stroke-linecap:round; stroke-linejoin:round; stroke-width:2; stroke-opacity:0.1; fill:none" points="203.964,631.719 2352.76,631.719 "/>
<polyline clip-path="url(#clip582)" style="stroke:#000000; stroke-linecap:round; stroke-linejoin:round; stroke-width:2; stroke-opacity:0.1; fill:none" points="203.964,254.135 2352.76,254.135 "/>
<polyline clip-path="url(#clip580)" style="stroke:#000000; stroke-linecap:round; stroke-linejoin:round; stroke-width:4; stroke-opacity:1; fill:none" points="203.964,1423.18 2352.76,1423.18 "/>
<polyline clip-path="url(#clip580)" style="stroke:#000000; stroke-linecap:round; stroke-linejoin:round; stroke-width:4; stroke-opacity:1; fill:none" points="409.576,1423.18 409.576,1404.28 "/>
<polyline clip-path="url(#clip580)" style="stroke:#000000; stroke-linecap:round; stroke-linejoin:round; stroke-width:4; stroke-opacity:1; fill:none" points="699.17,1423.18 699.17,1404.28 "/>
<polyline clip-path="url(#clip580)" style="stroke:#000000; stroke-linecap:round; stroke-linejoin:round; stroke-width:4; stroke-opacity:1; fill:none" points="988.765,1423.18 988.765,1404.28 "/>
<polyline clip-path="url(#clip580)" style="stroke:#000000; stroke-linecap:round; stroke-linejoin:round; stroke-width:4; stroke-opacity:1; fill:none" points="1278.36,1423.18 1278.36,1404.28 "/>
<polyline clip-path="url(#clip580)" style="stroke:#000000; stroke-linecap:round; stroke-linejoin:round; stroke-width:4; stroke-opacity:1; fill:none" points="1567.95,1423.18 1567.95,1404.28 "/>
<polyline clip-path="url(#clip580)" style="stroke:#000000; stroke-linecap:round; stroke-linejoin:round; stroke-width:4; stroke-opacity:1; fill:none" points="1857.55,1423.18 1857.55,1404.28 "/>
<polyline clip-path="url(#clip580)" style="stroke:#000000; stroke-linecap:round; stroke-linejoin:round; stroke-width:4; stroke-opacity:1; fill:none" points="2147.14,1423.18 2147.14,1404.28 "/>
<path clip-path="url(#clip580)" d="M404.229 1481.64 L420.548 1481.64 L420.548 1485.58 L398.604 1485.58 L398.604 1481.64 Q401.266 1478.89 405.849 1474.26 Q410.455 1469.61 411.636 1468.27 Q413.881 1465.74 414.761 1464.01 Q415.664 1462.25 415.664 1460.56 Q415.664 1457.8 413.719 1456.07 Q411.798 1454.33 408.696 1454.33 Q406.497 1454.33 404.043 1455.09 Q401.613 1455.86 398.835 1457.41 L398.835 1452.69 Q401.659 1451.55 404.113 1450.97 Q406.567 1450.39 408.604 1450.39 Q413.974 1450.39 417.168 1453.08 Q420.363 1455.77 420.363 1460.26 Q420.363 1462.39 419.553 1464.31 Q418.766 1466.2 416.659 1468.8 Q416.08 1469.47 412.979 1472.69 Q409.877 1475.88 404.229 1481.64 Z" fill="#000000" fill-rule="nonzero" fill-opacity="1" /><path clip-path="url(#clip580)" d="M702.18 1455.09 L690.374 1473.54 L702.18 1473.54 L702.18 1455.09 M700.953 1451.02 L706.832 1451.02 L706.832 1473.54 L711.763 1473.54 L711.763 1477.43 L706.832 1477.43 L706.832 1485.58 L702.18 1485.58 L702.18 1477.43 L686.578 1477.43 L686.578 1472.92 L700.953 1451.02 Z" fill="#000000" fill-rule="nonzero" fill-opacity="1" /><path clip-path="url(#clip580)" d="M989.17 1466.44 Q986.022 1466.44 984.17 1468.59 Q982.342 1470.74 982.342 1474.49 Q982.342 1478.22 984.17 1480.39 Q986.022 1482.55 989.17 1482.55 Q992.318 1482.55 994.147 1480.39 Q995.999 1478.22 995.999 1474.49 Q995.999 1470.74 994.147 1468.59 Q992.318 1466.44 989.17 1466.44 M998.453 1451.78 L998.453 1456.04 Q996.693 1455.21 994.888 1454.77 Q993.105 1454.33 991.346 1454.33 Q986.716 1454.33 984.263 1457.45 Q981.832 1460.58 981.485 1466.9 Q982.851 1464.89 984.911 1463.82 Q986.971 1462.73 989.448 1462.73 Q994.656 1462.73 997.666 1465.9 Q1000.7 1469.05 1000.7 1474.49 Q1000.7 1479.82 997.55 1483.03 Q994.402 1486.25 989.17 1486.25 Q983.175 1486.25 980.004 1481.67 Q976.832 1477.06 976.832 1468.33 Q976.832 1460.14 980.721 1455.28 Q984.61 1450.39 991.161 1450.39 Q992.92 1450.39 994.703 1450.74 Q996.508 1451.09 998.453 1451.78 Z" fill="#000000" fill-rule="nonzero" fill-opacity="1" /><path clip-path="url(#clip580)" d="M1278.36 1469.17 Q1275.03 1469.17 1273.11 1470.95 Q1271.21 1472.73 1271.21 1475.86 Q1271.21 1478.98 1273.11 1480.77 Q1275.03 1482.55 1278.36 1482.55 Q1281.69 1482.55 1283.61 1480.77 Q1285.54 1478.96 1285.54 1475.86 Q1285.54 1472.73 1283.61 1470.95 Q1281.72 1469.17 1278.36 1469.17 M1273.68 1467.18 Q1270.67 1466.44 1268.98 1464.38 Q1267.32 1462.32 1267.32 1459.35 Q1267.32 1455.21 1270.26 1452.8 Q1273.22 1450.39 1278.36 1450.39 Q1283.52 1450.39 1286.46 1452.8 Q1289.4 1455.21 1289.4 1459.35 Q1289.4 1462.32 1287.71 1464.38 Q1286.04 1466.44 1283.06 1467.18 Q1286.44 1467.96 1288.31 1470.26 Q1290.21 1472.55 1290.21 1475.86 Q1290.21 1480.88 1287.13 1483.57 Q1284.08 1486.25 1278.36 1486.25 Q1272.64 1486.25 1269.56 1483.57 Q1266.51 1480.88 1266.51 1475.86 Q1266.51 1472.55 1268.41 1470.26 Q1270.3 1467.96 1273.68 1467.18 M1271.97 1459.79 Q1271.97 1462.48 1273.64 1463.98 Q1275.33 1465.49 1278.36 1465.49 Q1281.37 1465.49 1283.06 1463.98 Q1284.77 1462.48 1284.77 1459.79 Q1284.77 1457.11 1283.06 1455.6 Q1281.37 1454.1 1278.36 1454.1 Q1275.33 1454.1 1273.64 1455.6 Q1271.97 1457.11 1271.97 1459.79 Z" fill="#000000" fill-rule="nonzero" fill-opacity="1" /><path clip-path="url(#clip580)" d="M1542.64 1481.64 L1550.28 1481.64 L1550.28 1455.28 L1541.97 1456.95 L1541.97 1452.69 L1550.23 1451.02 L1554.91 1451.02 L1554.91 1481.64 L1562.55 1481.64 L1562.55 1485.58 L1542.64 1485.58 L1542.64 1481.64 Z" fill="#000000" fill-rule="nonzero" fill-opacity="1" /><path clip-path="url(#clip580)" d="M1581.99 1454.1 Q1578.38 1454.1 1576.55 1457.66 Q1574.75 1461.2 1574.75 1468.33 Q1574.75 1475.44 1576.55 1479.01 Q1578.38 1482.55 1581.99 1482.55 Q1585.63 1482.55 1587.43 1479.01 Q1589.26 1475.44 1589.26 1468.33 Q1589.26 1461.2 1587.43 1457.66 Q1585.63 1454.1 1581.99 1454.1 M1581.99 1450.39 Q1587.8 1450.39 1590.86 1455 Q1593.94 1459.58 1593.94 1468.33 Q1593.94 1477.06 1590.86 1481.67 Q1587.8 1486.25 1581.99 1486.25 Q1576.18 1486.25 1573.1 1481.67 Q1570.05 1477.06 1570.05 1468.33 Q1570.05 1459.58 1573.1 1455 Q1576.18 1450.39 1581.99 1450.39 Z" fill="#000000" fill-rule="nonzero" fill-opacity="1" /><path clip-path="url(#clip580)" d="M1833.04 1481.64 L1840.67 1481.64 L1840.67 1455.28 L1832.36 1456.95 L1832.36 1452.69 L1840.63 1451.02 L1845.3 1451.02 L1845.3 1481.64 L1852.94 1481.64 L1852.94 1485.58 L1833.04 1485.58 L1833.04 1481.64 Z" fill="#000000" fill-rule="nonzero" fill-opacity="1" /><path clip-path="url(#clip580)" d="M1866.41 1481.64 L1882.73 1481.64 L1882.73 1485.58 L1860.79 1485.58 L1860.79 1481.64 Q1863.45 1478.89 1868.04 1474.26 Q1872.64 1469.61 1873.82 1468.27 Q1876.07 1465.74 1876.95 1464.01 Q1877.85 1462.25 1877.85 1460.56 Q1877.85 1457.8 1875.91 1456.07 Q1873.98 1454.33 1870.88 1454.33 Q1868.68 1454.33 1866.23 1455.09 Q1863.8 1455.86 1861.02 1457.41 L1861.02 1452.69 Q1863.85 1451.55 1866.3 1450.97 Q1868.75 1450.39 1870.79 1450.39 Q1876.16 1450.39 1879.35 1453.08 Q1882.55 1455.77 1882.55 1460.26 Q1882.55 1462.39 1881.74 1464.31 Q1880.95 1466.2 1878.85 1468.8 Q1878.27 1469.47 1875.16 1472.69 Q1872.06 1475.88 1866.41 1481.64 Z" fill="#000000" fill-rule="nonzero" fill-opacity="1" /><path clip-path="url(#clip580)" d="M2121.59 1481.64 L2129.23 1481.64 L2129.23 1455.28 L2120.92 1456.95 L2120.92 1452.69 L2129.18 1451.02 L2133.86 1451.02 L2133.86 1481.64 L2141.5 1481.64 L2141.5 1485.58 L2121.59 1485.58 L2121.59 1481.64 Z" fill="#000000" fill-rule="nonzero" fill-opacity="1" /><path clip-path="url(#clip580)" d="M2163.79 1455.09 L2151.98 1473.54 L2163.79 1473.54 L2163.79 1455.09 M2162.56 1451.02 L2168.44 1451.02 L2168.44 1473.54 L2173.37 1473.54 L2173.37 1477.43 L2168.44 1477.43 L2168.44 1485.58 L2163.79 1485.58 L2163.79 1477.43 L2148.19 1477.43 L2148.19 1472.92 L2162.56 1451.02 Z" fill="#000000" fill-rule="nonzero" fill-opacity="1" /><path clip-path="url(#clip580)" d="M994.911 1520.52 L1003.57 1520.52 L1024.64 1560.28 L1024.64 1520.52 L1030.88 1520.52 L1030.88 1568.04 L1022.22 1568.04 L1001.15 1528.29 L1001.15 1568.04 L994.911 1568.04 L994.911 1520.52 Z" fill="#000000" fill-rule="nonzero" fill-opacity="1" /><path clip-path="url(#clip580)" d="M1042.81 1553.98 L1042.81 1532.4 L1048.67 1532.4 L1048.67 1553.75 Q1048.67 1558.81 1050.64 1561.36 Q1052.62 1563.87 1056.56 1563.87 Q1061.31 1563.87 1064.04 1560.85 Q1066.81 1557.83 1066.81 1552.61 L1066.81 1532.4 L1072.67 1532.4 L1072.67 1568.04 L1066.81 1568.04 L1066.81 1562.57 Q1064.68 1565.82 1061.85 1567.41 Q1059.05 1568.97 1055.32 1568.97 Q1049.18 1568.97 1046 1565.15 Q1042.81 1561.33 1042.81 1553.98 M1057.55 1531.54 L1057.55 1531.54 Z" fill="#000000" fill-rule="nonzero" fill-opacity="1" /><path clip-path="url(#clip580)" d="M1112.49 1539.24 Q1114.68 1535.29 1117.74 1533.41 Q1120.79 1531.54 1124.93 1531.54 Q1130.5 1531.54 1133.52 1535.45 Q1136.55 1539.33 1136.55 1546.53 L1136.55 1568.04 L1130.66 1568.04 L1130.66 1546.72 Q1130.66 1541.59 1128.85 1539.11 Q1127.03 1536.63 1123.31 1536.63 Q1118.76 1536.63 1116.11 1539.65 Q1113.47 1542.68 1113.47 1547.9 L1113.47 1568.04 L1107.58 1568.04 L1107.58 1546.72 Q1107.58 1541.56 1105.77 1539.11 Q1103.96 1536.63 1100.17 1536.63 Q1095.68 1536.63 1093.04 1539.68 Q1090.4 1542.71 1090.4 1547.9 L1090.4 1568.04 L1084.51 1568.04 L1084.51 1532.4 L1090.4 1532.4 L1090.4 1537.93 Q1092.4 1534.66 1095.2 1533.1 Q1098 1531.54 1101.85 1531.54 Q1105.74 1531.54 1108.44 1533.51 Q1111.18 1535.48 1112.49 1539.24 Z" fill="#000000" fill-rule="nonzero" fill-opacity="1" /><path clip-path="url(#clip580)" d="M1173.82 1550.25 Q1173.82 1543.79 1171.15 1540.13 Q1168.5 1536.44 1163.86 1536.44 Q1159.21 1536.44 1156.54 1540.13 Q1153.89 1543.79 1153.89 1550.25 Q1153.89 1556.71 1156.54 1560.4 Q1159.21 1564.07 1163.86 1564.07 Q1168.5 1564.07 1171.15 1560.4 Q1173.82 1556.71 1173.82 1550.25 M1153.89 1537.81 Q1155.74 1534.62 1158.54 1533.1 Q1161.37 1531.54 1165.29 1531.54 Q1171.78 1531.54 1175.82 1536.69 Q1179.9 1541.85 1179.9 1550.25 Q1179.9 1558.65 1175.82 1563.81 Q1171.78 1568.97 1165.29 1568.97 Q1161.37 1568.97 1158.54 1567.44 Q1155.74 1565.88 1153.89 1562.7 L1153.89 1568.04 L1148.01 1568.04 L1148.01 1518.52 L1153.89 1518.52 L1153.89 1537.81 Z" fill="#000000" fill-rule="nonzero" fill-opacity="1" /><path clip-path="url(#clip580)" d="M1220.1 1548.76 L1220.1 1551.62 L1193.17 1551.62 Q1193.55 1557.67 1196.8 1560.85 Q1200.08 1564 1205.9 1564 Q1209.28 1564 1212.43 1563.17 Q1215.61 1562.35 1218.73 1560.69 L1218.73 1566.23 Q1215.58 1567.57 1212.27 1568.27 Q1208.96 1568.97 1205.55 1568.97 Q1197.02 1568.97 1192.02 1564 Q1187.06 1559.04 1187.06 1550.57 Q1187.06 1541.82 1191.77 1536.69 Q1196.51 1531.54 1204.53 1531.54 Q1211.73 1531.54 1215.9 1536.18 Q1220.1 1540.8 1220.1 1548.76 M1214.24 1547.04 Q1214.18 1542.23 1211.54 1539.37 Q1208.93 1536.5 1204.6 1536.5 Q1199.7 1536.5 1196.74 1539.27 Q1193.81 1542.04 1193.36 1547.07 L1214.24 1547.04 Z" fill="#000000" fill-rule="nonzero" fill-opacity="1" /><path clip-path="url(#clip580)" d="M1250.37 1537.87 Q1249.38 1537.3 1248.2 1537.04 Q1247.06 1536.76 1245.66 1536.76 Q1240.69 1536.76 1238.02 1540 Q1235.38 1543.22 1235.38 1549.27 L1235.38 1568.04 L1229.49 1568.04 L1229.49 1532.4 L1235.38 1532.4 L1235.38 1537.93 Q1237.22 1534.69 1240.18 1533.13 Q1243.14 1531.54 1247.37 1531.54 Q1247.98 1531.54 1248.71 1531.63 Q1249.44 1531.7 1250.33 1531.85 L1250.37 1537.87 Z" fill="#000000" fill-rule="nonzero" fill-opacity="1" /><path clip-path="url(#clip580)" d="M1291.04 1536.5 Q1286.33 1536.5 1283.6 1540.19 Q1280.86 1543.85 1280.86 1550.25 Q1280.86 1556.65 1283.56 1560.34 Q1286.3 1564 1291.04 1564 Q1295.72 1564 1298.46 1560.31 Q1301.2 1556.62 1301.2 1550.25 Q1301.2 1543.92 1298.46 1540.23 Q1295.72 1536.5 1291.04 1536.5 M1291.04 1531.54 Q1298.68 1531.54 1303.04 1536.5 Q1307.4 1541.47 1307.4 1550.25 Q1307.4 1559 1303.04 1564 Q1298.68 1568.97 1291.04 1568.97 Q1283.37 1568.97 1279.01 1564 Q1274.68 1559 1274.68 1550.25 Q1274.68 1541.47 1279.01 1536.5 Q1283.37 1531.54 1291.04 1531.54 Z" fill="#000000" fill-rule="nonzero" fill-opacity="1" /><path clip-path="url(#clip580)" d="M1335.16 1518.52 L1335.16 1523.39 L1329.56 1523.39 Q1326.4 1523.39 1325.16 1524.66 Q1323.95 1525.93 1323.95 1529.24 L1323.95 1532.4 L1333.6 1532.4 L1333.6 1536.95 L1323.95 1536.95 L1323.95 1568.04 L1318.07 1568.04 L1318.07 1536.95 L1312.46 1536.95 L1312.46 1532.4 L1318.07 1532.4 L1318.07 1529.91 Q1318.07 1523.96 1320.83 1521.26 Q1323.6 1518.52 1329.62 1518.52 L1335.16 1518.52 Z" fill="#000000" fill-rule="nonzero" fill-opacity="1" /><path clip-path="url(#clip580)" d="M1389.52 1522.08 L1389.52 1528.35 Q1385.86 1526.6 1382.61 1525.74 Q1379.37 1524.88 1376.34 1524.88 Q1371.09 1524.88 1368.23 1526.92 Q1365.39 1528.96 1365.39 1532.71 Q1365.39 1535.87 1367.27 1537.49 Q1369.18 1539.08 1374.47 1540.07 L1378.35 1540.86 Q1385.54 1542.23 1388.95 1545.7 Q1392.39 1549.14 1392.39 1554.93 Q1392.39 1561.84 1387.74 1565.4 Q1383.12 1568.97 1374.18 1568.97 Q1370.81 1568.97 1366.99 1568.2 Q1363.2 1567.44 1359.12 1565.94 L1359.12 1559.32 Q1363.04 1561.52 1366.8 1562.63 Q1370.55 1563.75 1374.18 1563.75 Q1379.69 1563.75 1382.68 1561.58 Q1385.67 1559.42 1385.67 1555.41 Q1385.67 1551.91 1383.51 1549.93 Q1381.37 1547.96 1376.47 1546.97 L1372.56 1546.21 Q1365.36 1544.78 1362.15 1541.72 Q1358.93 1538.67 1358.93 1533.22 Q1358.93 1526.92 1363.36 1523.29 Q1367.81 1519.66 1375.61 1519.66 Q1378.95 1519.66 1382.42 1520.27 Q1385.89 1520.87 1389.52 1522.08 Z" fill="#000000" fill-rule="nonzero" fill-opacity="1" /><path clip-path="url(#clip580)" d="M1407.82 1562.7 L1407.82 1581.6 L1401.93 1581.6 L1401.93 1532.4 L1407.82 1532.4 L1407.82 1537.81 Q1409.67 1534.62 1412.47 1533.1 Q1415.3 1531.54 1419.22 1531.54 Q1425.71 1531.54 1429.75 1536.69 Q1433.83 1541.85 1433.83 1550.25 Q1433.83 1558.65 1429.75 1563.81 Q1425.71 1568.97 1419.22 1568.97 Q1415.3 1568.97 1412.47 1567.44 Q1409.67 1565.88 1407.82 1562.7 M1427.75 1550.25 Q1427.75 1543.79 1425.07 1540.13 Q1422.43 1536.44 1417.78 1536.44 Q1413.14 1536.44 1410.46 1540.13 Q1407.82 1543.79 1407.82 1550.25 Q1407.82 1556.71 1410.46 1560.4 Q1413.14 1564.07 1417.78 1564.07 Q1422.43 1564.07 1425.07 1560.4 Q1427.75 1556.71 1427.75 1550.25 Z" fill="#000000" fill-rule="nonzero" fill-opacity="1" /><path clip-path="url(#clip580)" d="M1443.53 1532.4 L1449.39 1532.4 L1449.39 1568.04 L1443.53 1568.04 L1443.53 1532.4 M1443.53 1518.52 L1449.39 1518.52 L1449.39 1525.93 L1443.53 1525.93 L1443.53 1518.52 Z" fill="#000000" fill-rule="nonzero" fill-opacity="1" /><path clip-path="url(#clip580)" d="M1461.42 1518.52 L1467.31 1518.52 L1467.31 1547.77 L1484.78 1532.4 L1492.26 1532.4 L1473.36 1549.07 L1493.06 1568.04 L1485.42 1568.04 L1467.31 1550.63 L1467.31 1568.04 L1461.42 1568.04 L1461.42 1518.52 Z" fill="#000000" fill-rule="nonzero" fill-opacity="1" /><path clip-path="url(#clip580)" d="M1527.56 1548.76 L1527.56 1551.62 L1500.63 1551.62 Q1501.02 1557.67 1504.26 1560.85 Q1507.54 1564 1513.37 1564 Q1516.74 1564 1519.89 1563.17 Q1523.07 1562.35 1526.19 1560.69 L1526.19 1566.23 Q1523.04 1567.57 1519.73 1568.27 Q1516.42 1568.97 1513.02 1568.97 Q1504.49 1568.97 1499.49 1564 Q1494.52 1559.04 1494.52 1550.57 Q1494.52 1541.82 1499.23 1536.69 Q1503.98 1531.54 1512 1531.54 Q1519.19 1531.54 1523.36 1536.18 Q1527.56 1540.8 1527.56 1548.76 M1521.7 1547.04 Q1521.64 1542.23 1519 1539.37 Q1516.39 1536.5 1512.06 1536.5 Q1507.16 1536.5 1504.2 1539.27 Q1501.27 1542.04 1500.83 1547.07 L1521.7 1547.04 Z" fill="#000000" fill-rule="nonzero" fill-opacity="1" /><path clip-path="url(#clip580)" d="M1559.9 1533.45 L1559.9 1538.98 Q1557.42 1537.71 1554.74 1537.07 Q1552.07 1536.44 1549.2 1536.44 Q1544.84 1536.44 1542.65 1537.77 Q1540.48 1539.11 1540.48 1541.79 Q1540.48 1543.82 1542.04 1545 Q1543.6 1546.15 1548.31 1547.2 L1550.32 1547.64 Q1556.56 1548.98 1559.17 1551.43 Q1561.81 1553.85 1561.81 1558.21 Q1561.81 1563.17 1557.86 1566.07 Q1553.95 1568.97 1547.07 1568.97 Q1544.21 1568.97 1541.09 1568.39 Q1538 1567.85 1534.56 1566.74 L1534.56 1560.69 Q1537.81 1562.38 1540.96 1563.24 Q1544.11 1564.07 1547.2 1564.07 Q1551.34 1564.07 1553.57 1562.66 Q1555.79 1561.23 1555.79 1558.65 Q1555.79 1556.27 1554.17 1554.99 Q1552.58 1553.72 1547.14 1552.54 L1545.1 1552.07 Q1539.66 1550.92 1537.24 1548.56 Q1534.82 1546.18 1534.82 1542.04 Q1534.82 1537.01 1538.38 1534.27 Q1541.95 1531.54 1548.5 1531.54 Q1551.75 1531.54 1554.62 1532.01 Q1557.48 1532.49 1559.9 1533.45 Z" fill="#000000" fill-rule="nonzero" fill-opacity="1" /><polyline clip-path="url(#clip580)" style="stroke:#000000; stroke-linecap:round; stroke-linejoin:round; stroke-width:4; stroke-opacity:1; fill:none" points="203.964,1423.18 203.964,47.2441 "/>
<polyline clip-path="url(#clip580)" style="stroke:#000000; stroke-linecap:round; stroke-linejoin:round; stroke-width:4; stroke-opacity:1; fill:none" points="203.964,1386.89 222.861,1386.89 "/>
<polyline clip-path="url(#clip580)" style="stroke:#000000; stroke-linecap:round; stroke-linejoin:round; stroke-width:4; stroke-opacity:1; fill:none" points="203.964,1009.3 222.861,1009.3 "/>
<polyline clip-path="url(#clip580)" style="stroke:#000000; stroke-linecap:round; stroke-linejoin:round; stroke-width:4; stroke-opacity:1; fill:none" points="203.964,631.719 222.861,631.719 "/>
<polyline clip-path="url(#clip580)" style="stroke:#000000; stroke-linecap:round; stroke-linejoin:round; stroke-width:4; stroke-opacity:1; fill:none" points="203.964,254.135 222.861,254.135 "/>
<path clip-path="url(#clip580)" d="M156.019 1372.69 Q152.408 1372.69 150.579 1376.25 Q148.774 1379.79 148.774 1386.92 Q148.774 1394.03 150.579 1397.59 Q152.408 1401.13 156.019 1401.13 Q159.653 1401.13 161.459 1397.59 Q163.288 1394.03 163.288 1386.92 Q163.288 1379.79 161.459 1376.25 Q159.653 1372.69 156.019 1372.69 M156.019 1368.98 Q161.829 1368.98 164.885 1373.59 Q167.964 1378.17 167.964 1386.92 Q167.964 1395.65 164.885 1400.25 Q161.829 1404.84 156.019 1404.84 Q150.209 1404.84 147.13 1400.25 Q144.075 1395.65 144.075 1386.92 Q144.075 1378.17 147.13 1373.59 Q150.209 1368.98 156.019 1368.98 Z" fill="#000000" fill-rule="nonzero" fill-opacity="1" /><path clip-path="url(#clip580)" d="M116.668 1022.65 L124.306 1022.65 L124.306 996.282 L115.996 997.949 L115.996 993.69 L124.26 992.023 L128.936 992.023 L128.936 1022.65 L136.575 1022.65 L136.575 1026.58 L116.668 1026.58 L116.668 1022.65 Z" fill="#000000" fill-rule="nonzero" fill-opacity="1" /><path clip-path="url(#clip580)" d="M156.019 995.102 Q152.408 995.102 150.579 998.666 Q148.774 1002.21 148.774 1009.34 Q148.774 1016.44 150.579 1020.01 Q152.408 1023.55 156.019 1023.55 Q159.653 1023.55 161.459 1020.01 Q163.288 1016.44 163.288 1009.34 Q163.288 1002.21 161.459 998.666 Q159.653 995.102 156.019 995.102 M156.019 991.398 Q161.829 991.398 164.885 996.004 Q167.964 1000.59 167.964 1009.34 Q167.964 1018.06 164.885 1022.67 Q161.829 1027.25 156.019 1027.25 Q150.209 1027.25 147.13 1022.67 Q144.075 1018.06 144.075 1009.34 Q144.075 1000.59 147.13 996.004 Q150.209 991.398 156.019 991.398 Z" fill="#000000" fill-rule="nonzero" fill-opacity="1" /><path clip-path="url(#clip580)" d="M119.885 645.064 L136.204 645.064 L136.204 648.999 L114.26 648.999 L114.26 645.064 Q116.922 642.309 121.505 637.68 Q126.112 633.027 127.292 631.684 Q129.538 629.161 130.417 627.425 Q131.32 625.666 131.32 623.976 Q131.32 621.222 129.376 619.485 Q127.455 617.749 124.353 617.749 Q122.154 617.749 119.7 618.513 Q117.269 619.277 114.492 620.828 L114.492 616.106 Q117.316 614.972 119.769 614.393 Q122.223 613.814 124.26 613.814 Q129.63 613.814 132.825 616.499 Q136.019 619.184 136.019 623.675 Q136.019 625.805 135.209 627.726 Q134.422 629.624 132.316 632.217 Q131.737 632.888 128.635 636.106 Q125.533 639.3 119.885 645.064 Z" fill="#000000" fill-rule="nonzero" fill-opacity="1" /><path clip-path="url(#clip580)" d="M156.019 617.518 Q152.408 617.518 150.579 621.083 Q148.774 624.624 148.774 631.754 Q148.774 638.86 150.579 642.425 Q152.408 645.967 156.019 645.967 Q159.653 645.967 161.459 642.425 Q163.288 638.86 163.288 631.754 Q163.288 624.624 161.459 621.083 Q159.653 617.518 156.019 617.518 M156.019 613.814 Q161.829 613.814 164.885 618.421 Q167.964 623.004 167.964 631.754 Q167.964 640.481 164.885 645.087 Q161.829 649.67 156.019 649.67 Q150.209 649.67 147.13 645.087 Q144.075 640.481 144.075 631.754 Q144.075 623.004 147.13 618.421 Q150.209 613.814 156.019 613.814 Z" fill="#000000" fill-rule="nonzero" fill-opacity="1" /><path clip-path="url(#clip580)" d="M130.024 252.781 Q133.38 253.499 135.255 255.767 Q137.154 258.036 137.154 261.369 Q137.154 266.485 133.635 269.286 Q130.117 272.087 123.635 272.087 Q121.459 272.087 119.144 271.647 Q116.853 271.23 114.399 270.374 L114.399 265.86 Q116.343 266.994 118.658 267.573 Q120.973 268.152 123.496 268.152 Q127.894 268.152 130.186 266.415 Q132.501 264.679 132.501 261.369 Q132.501 258.314 130.348 256.601 Q128.218 254.865 124.399 254.865 L120.371 254.865 L120.371 251.022 L124.584 251.022 Q128.033 251.022 129.862 249.656 Q131.691 248.267 131.691 245.675 Q131.691 243.013 129.792 241.601 Q127.917 240.166 124.399 240.166 Q122.478 240.166 120.279 240.582 Q118.08 240.999 115.441 241.879 L115.441 237.712 Q118.103 236.971 120.418 236.601 Q122.755 236.23 124.816 236.23 Q130.14 236.23 133.242 238.661 Q136.343 241.068 136.343 245.189 Q136.343 248.059 134.7 250.05 Q133.056 252.017 130.024 252.781 Z" fill="#000000" fill-rule="nonzero" fill-opacity="1" /><path clip-path="url(#clip580)" d="M156.019 239.934 Q152.408 239.934 150.579 243.499 Q148.774 247.041 148.774 254.17 Q148.774 261.277 150.579 264.841 Q152.408 268.383 156.019 268.383 Q159.653 268.383 161.459 264.841 Q163.288 261.277 163.288 254.17 Q163.288 247.041 161.459 243.499 Q159.653 239.934 156.019 239.934 M156.019 236.23 Q161.829 236.23 164.885 240.837 Q167.964 245.42 167.964 254.17 Q167.964 262.897 164.885 267.503 Q161.829 272.087 156.019 272.087 Q150.209 272.087 147.13 267.503 Q144.075 262.897 144.075 254.17 Q144.075 245.42 147.13 240.837 Q150.209 236.23 156.019 236.23 Z" fill="#000000" fill-rule="nonzero" fill-opacity="1" /><path clip-path="url(#clip580)" d="M16.4842 981.278 L16.4842 941.079 L21.895 941.079 L21.895 957.948 L64.0042 957.948 L64.0042 964.409 L21.895 964.409 L21.895 981.278 L16.4842 981.278 Z" fill="#000000" fill-rule="nonzero" fill-opacity="1" /><path clip-path="url(#clip580)" d="M28.3562 937.132 L28.3562 931.276 L64.0042 931.276 L64.0042 937.132 L28.3562 937.132 M14.479 937.132 L14.479 931.276 L21.895 931.276 L21.895 937.132 L14.479 937.132 Z" fill="#000000" fill-rule="nonzero" fill-opacity="1" /><path clip-path="url(#clip580)" d="M35.1993 891.267 Q31.2526 889.071 29.3747 886.016 Q27.4968 882.96 27.4968 878.822 Q27.4968 873.252 31.4117 870.229 Q35.2948 867.205 42.4881 867.205 L64.0042 867.205 L64.0042 873.093 L42.679 873.093 Q37.5546 873.093 35.072 874.907 Q32.5894 876.722 32.5894 880.446 Q32.5894 884.997 35.6131 887.639 Q38.6368 890.281 43.8567 890.281 L64.0042 890.281 L64.0042 896.169 L42.679 896.169 Q37.5228 896.169 35.072 897.983 Q32.5894 899.797 32.5894 903.585 Q32.5894 908.073 35.6449 910.715 Q38.6686 913.356 43.8567 913.356 L64.0042 913.356 L64.0042 919.245 L28.3562 919.245 L28.3562 913.356 L33.8944 913.356 Q30.616 911.351 29.0564 908.55 Q27.4968 905.749 27.4968 901.898 Q27.4968 898.015 29.4702 895.309 Q31.4436 892.572 35.1993 891.267 Z" fill="#000000" fill-rule="nonzero" fill-opacity="1" /><path clip-path="url(#clip580)" d="M44.7161 825.032 L47.5806 825.032 L47.5806 851.959 Q53.6281 851.577 56.8109 848.331 Q59.9619 845.052 59.9619 839.228 Q59.9619 835.854 59.1344 832.703 Q58.3069 829.52 56.6518 826.401 L62.1899 826.401 Q63.5267 829.552 64.227 832.862 Q64.9272 836.172 64.9272 839.578 Q64.9272 848.108 59.9619 853.105 Q54.9967 858.07 46.5303 858.07 Q37.7774 858.07 32.6531 853.359 Q27.4968 848.617 27.4968 840.596 Q27.4968 833.403 32.1438 829.233 Q36.7589 825.032 44.7161 825.032 M42.9973 830.889 Q38.1912 830.952 35.3266 833.594 Q32.4621 836.204 32.4621 840.533 Q32.4621 845.434 35.2312 848.394 Q38.0002 851.322 43.0292 851.768 L42.9973 830.889 Z" fill="#000000" fill-rule="nonzero" fill-opacity="1" /><path clip-path="url(#clip580)" d="M14.5426 780.631 Q21.8632 784.896 29.0246 786.965 Q36.186 789.034 43.5384 789.034 Q50.8908 789.034 58.1159 786.965 Q65.3091 784.864 72.5979 780.631 L72.5979 785.724 Q65.1182 790.498 57.8931 792.885 Q50.668 795.241 43.5384 795.241 Q36.4406 795.241 29.2474 792.885 Q22.0542 790.53 14.5426 785.724 L14.5426 780.631 Z" fill="#000000" fill-rule="nonzero" fill-opacity="1" /><path clip-path="url(#clip580)" d="M29.4065 746.543 L34.9447 746.543 Q33.6716 749.026 33.035 751.699 Q32.3984 754.373 32.3984 757.237 Q32.3984 761.598 33.7352 763.794 Q35.072 765.958 37.7456 765.958 Q39.7826 765.958 40.9603 764.399 Q42.1061 762.839 43.1565 758.129 L43.6021 756.123 Q44.9389 749.885 47.3897 747.275 Q49.8086 744.633 54.1691 744.633 Q59.1344 744.633 62.0308 748.58 Q64.9272 752.495 64.9272 759.37 Q64.9272 762.234 64.3543 765.354 Q63.8132 768.441 62.6992 771.878 L56.6518 771.878 Q58.3387 768.632 59.198 765.481 Q60.0256 762.33 60.0256 759.243 Q60.0256 755.105 58.6251 752.877 Q57.1929 750.649 54.6147 750.649 Q52.2276 750.649 50.9545 752.272 Q49.6813 753.863 48.5037 759.306 L48.0262 761.343 Q46.8804 766.786 44.5251 769.205 Q42.138 771.624 38.0002 771.624 Q32.9713 771.624 30.2341 768.059 Q27.4968 764.494 27.4968 757.938 Q27.4968 754.691 27.9743 751.826 Q28.4517 748.962 29.4065 746.543 Z" fill="#000000" fill-rule="nonzero" fill-opacity="1" /><path clip-path="url(#clip580)" d="M44.7161 704.816 L47.5806 704.816 L47.5806 731.743 Q53.6281 731.361 56.8109 728.114 Q59.9619 724.836 59.9619 719.011 Q59.9619 715.637 59.1344 712.486 Q58.3069 709.304 56.6518 706.184 L62.1899 706.184 Q63.5267 709.335 64.227 712.646 Q64.9272 715.956 64.9272 719.361 Q64.9272 727.891 59.9619 732.888 Q54.9967 737.854 46.5303 737.854 Q37.7774 737.854 32.6531 733.143 Q27.4968 728.401 27.4968 720.38 Q27.4968 713.187 32.1438 709.017 Q36.7589 704.816 44.7161 704.816 M42.9973 710.672 Q38.1912 710.736 35.3266 713.378 Q32.4621 715.988 32.4621 720.316 Q32.4621 725.218 35.2312 728.178 Q38.0002 731.106 43.0292 731.552 L42.9973 710.672 Z" fill="#000000" fill-rule="nonzero" fill-opacity="1" /><path clip-path="url(#clip580)" d="M29.7248 669.55 L35.1993 669.55 Q33.8307 672.032 33.1623 674.547 Q32.4621 677.029 32.4621 679.576 Q32.4621 685.273 36.0905 688.424 Q39.6872 691.575 46.212 691.575 Q52.7369 691.575 56.3653 688.424 Q59.9619 685.273 59.9619 679.576 Q59.9619 677.029 59.2935 674.547 Q58.5933 672.032 57.2247 669.55 L62.6355 669.55 Q63.7814 672.001 64.3543 674.642 Q64.9272 677.252 64.9272 680.212 Q64.9272 688.265 59.8664 693.007 Q54.8057 697.75 46.212 697.75 Q37.491 697.75 32.4939 692.976 Q27.4968 688.169 27.4968 679.83 Q27.4968 677.125 28.0697 674.547 Q28.6108 671.969 29.7248 669.55 Z" fill="#000000" fill-rule="nonzero" fill-opacity="1" /><path clip-path="url(#clip580)" d="M32.4621 645.551 Q32.4621 650.262 36.1542 652.999 Q39.8145 655.736 46.212 655.736 Q52.6095 655.736 56.3017 653.031 Q59.9619 650.293 59.9619 645.551 Q59.9619 640.872 56.2698 638.135 Q52.5777 635.398 46.212 635.398 Q39.8781 635.398 36.186 638.135 Q32.4621 640.872 32.4621 645.551 M27.4968 645.551 Q27.4968 637.912 32.4621 633.552 Q37.4273 629.191 46.212 629.191 Q54.9649 629.191 59.9619 633.552 Q64.9272 637.912 64.9272 645.551 Q64.9272 653.222 59.9619 657.582 Q54.9649 661.911 46.212 661.911 Q37.4273 661.911 32.4621 657.582 Q27.4968 653.222 27.4968 645.551 Z" fill="#000000" fill-rule="nonzero" fill-opacity="1" /><path clip-path="url(#clip580)" d="M42.4881 589.851 L64.0042 589.851 L64.0042 595.708 L42.679 595.708 Q37.6183 595.708 35.1038 597.681 Q32.5894 599.654 32.5894 603.601 Q32.5894 608.343 35.6131 611.081 Q38.6368 613.818 43.8567 613.818 L64.0042 613.818 L64.0042 619.706 L28.3562 619.706 L28.3562 613.818 L33.8944 613.818 Q30.6797 611.717 29.0883 608.885 Q27.4968 606.02 27.4968 602.296 Q27.4968 596.153 31.3163 593.002 Q35.1038 589.851 42.4881 589.851 Z" fill="#000000" fill-rule="nonzero" fill-opacity="1" /><path clip-path="url(#clip580)" d="M33.7671 554.712 L14.479 554.712 L14.479 548.856 L64.0042 548.856 L64.0042 554.712 L58.657 554.712 Q61.8398 556.558 63.3994 559.391 Q64.9272 562.192 64.9272 566.139 Q64.9272 572.6 59.771 576.674 Q54.6147 580.716 46.212 580.716 Q37.8093 580.716 32.6531 576.674 Q27.4968 572.6 27.4968 566.139 Q27.4968 562.192 29.0564 559.391 Q30.5842 556.558 33.7671 554.712 M46.212 574.669 Q52.6732 574.669 56.3653 572.027 Q60.0256 569.353 60.0256 564.707 Q60.0256 560.06 56.3653 557.386 Q52.6732 554.712 46.212 554.712 Q39.7508 554.712 36.0905 557.386 Q32.3984 560.06 32.3984 564.707 Q32.3984 569.353 36.0905 572.027 Q39.7508 574.669 46.212 574.669 Z" fill="#000000" fill-rule="nonzero" fill-opacity="1" /><path clip-path="url(#clip580)" d="M29.4065 514.067 L34.9447 514.067 Q33.6716 516.55 33.035 519.224 Q32.3984 521.897 32.3984 524.762 Q32.3984 529.122 33.7352 531.318 Q35.072 533.483 37.7456 533.483 Q39.7826 533.483 40.9603 531.923 Q42.1061 530.364 43.1565 525.653 L43.6021 523.648 Q44.9389 517.409 47.3897 514.799 Q49.8086 512.158 54.1691 512.158 Q59.1344 512.158 62.0308 516.104 Q64.9272 520.019 64.9272 526.894 Q64.9272 529.759 64.3543 532.878 Q63.8132 535.965 62.6992 539.403 L56.6518 539.403 Q58.3387 536.156 59.198 533.005 Q60.0256 529.854 60.0256 526.767 Q60.0256 522.629 58.6251 520.401 Q57.1929 518.173 54.6147 518.173 Q52.2276 518.173 50.9545 519.796 Q49.6813 521.388 48.5037 526.831 L48.0262 528.868 Q46.8804 534.31 44.5251 536.729 Q42.138 539.148 38.0002 539.148 Q32.9713 539.148 30.2341 535.583 Q27.4968 532.019 27.4968 525.462 Q27.4968 522.215 27.9743 519.351 Q28.4517 516.486 29.4065 514.067 Z" fill="#000000" fill-rule="nonzero" fill-opacity="1" /><path clip-path="url(#clip580)" d="M14.5426 503.755 L14.5426 498.662 Q22.0542 493.888 29.2474 491.533 Q36.4406 489.146 43.5384 489.146 Q50.668 489.146 57.8931 491.533 Q65.1182 493.888 72.5979 498.662 L72.5979 503.755 Q65.3091 499.522 58.1159 497.453 Q50.8908 495.352 43.5384 495.352 Q36.186 495.352 29.0246 497.453 Q21.8632 499.522 14.5426 503.755 Z" fill="#000000" fill-rule="nonzero" fill-opacity="1" /><polyline clip-path="url(#clip582)" style="stroke:#009af9; stroke-linecap:round; stroke-linejoin:round; stroke-width:8; stroke-opacity:1; fill:none" points="264.778,1384.24 409.576,1382.71 554.373,1382.17 699.17,1376.31 843.968,1324.77 988.765,1369.12 1133.56,1333.94 1278.36,1313.51 1423.16,1304.79 1567.95,1340.4 1712.75,1130.3 1857.55,1138.56 2002.35,783.554 2147.14,950.094 2291.94,86.1857 "/>
<circle clip-path="url(#clip582)" cx="264.778" cy="1384.24" r="14.4" fill="#009af9" fill-rule="evenodd" fill-opacity="1" stroke="#000000" stroke-opacity="1" stroke-width="3.2"/>
<circle clip-path="url(#clip582)" cx="409.576" cy="1382.71" r="14.4" fill="#009af9" fill-rule="evenodd" fill-opacity="1" stroke="#000000" stroke-opacity="1" stroke-width="3.2"/>
<circle clip-path="url(#clip582)" cx="554.373" cy="1382.17" r="14.4" fill="#009af9" fill-rule="evenodd" fill-opacity="1" stroke="#000000" stroke-opacity="1" stroke-width="3.2"/>
<circle clip-path="url(#clip582)" cx="699.17" cy="1376.31" r="14.4" fill="#009af9" fill-rule="evenodd" fill-opacity="1" stroke="#000000" stroke-opacity="1" stroke-width="3.2"/>
<circle clip-path="url(#clip582)" cx="843.968" cy="1324.77" r="14.4" fill="#009af9" fill-rule="evenodd" fill-opacity="1" stroke="#000000" stroke-opacity="1" stroke-width="3.2"/>
<circle clip-path="url(#clip582)" cx="988.765" cy="1369.12" r="14.4" fill="#009af9" fill-rule="evenodd" fill-opacity="1" stroke="#000000" stroke-opacity="1" stroke-width="3.2"/>
<circle clip-path="url(#clip582)" cx="1133.56" cy="1333.94" r="14.4" fill="#009af9" fill-rule="evenodd" fill-opacity="1" stroke="#000000" stroke-opacity="1" stroke-width="3.2"/>
<circle clip-path="url(#clip582)" cx="1278.36" cy="1313.51" r="14.4" fill="#009af9" fill-rule="evenodd" fill-opacity="1" stroke="#000000" stroke-opacity="1" stroke-width="3.2"/>
<circle clip-path="url(#clip582)" cx="1423.16" cy="1304.79" r="14.4" fill="#009af9" fill-rule="evenodd" fill-opacity="1" stroke="#000000" stroke-opacity="1" stroke-width="3.2"/>
<circle clip-path="url(#clip582)" cx="1567.95" cy="1340.4" r="14.4" fill="#009af9" fill-rule="evenodd" fill-opacity="1" stroke="#000000" stroke-opacity="1" stroke-width="3.2"/>
<circle clip-path="url(#clip582)" cx="1712.75" cy="1130.3" r="14.4" fill="#009af9" fill-rule="evenodd" fill-opacity="1" stroke="#000000" stroke-opacity="1" stroke-width="3.2"/>
<circle clip-path="url(#clip582)" cx="1857.55" cy="1138.56" r="14.4" fill="#009af9" fill-rule="evenodd" fill-opacity="1" stroke="#000000" stroke-opacity="1" stroke-width="3.2"/>
<circle clip-path="url(#clip582)" cx="2002.35" cy="783.554" r="14.4" fill="#009af9" fill-rule="evenodd" fill-opacity="1" stroke="#000000" stroke-opacity="1" stroke-width="3.2"/>
<circle clip-path="url(#clip582)" cx="2147.14" cy="950.094" r="14.4" fill="#009af9" fill-rule="evenodd" fill-opacity="1" stroke="#000000" stroke-opacity="1" stroke-width="3.2"/>
<circle clip-path="url(#clip582)" cx="2291.94" cy="86.1857" r="14.4" fill="#009af9" fill-rule="evenodd" fill-opacity="1" stroke="#000000" stroke-opacity="1" stroke-width="3.2"/>
<polyline clip-path="url(#clip582)" style="stroke:#e26f46; stroke-linecap:round; stroke-linejoin:round; stroke-width:8; stroke-opacity:1; fill:none" points="264.778,1368.04 409.576,1368.63 554.373,1352.47 699.17,1362.66 843.968,1266.27 988.765,1338.54 1133.56,1325.23 1278.36,1293.74 1423.16,1275.53 1567.95,1300.65 1712.75,1280.49 1857.55,1238.16 2002.35,1076.75 2147.14,1277.18 2291.94,1233.31 "/>
<path clip-path="url(#clip582)" d="M248.778 1352.04 L248.778 1384.04 L280.778 1384.04 L280.778 1352.04 L248.778 1352.04 Z" fill="#e26f46" fill-rule="evenodd" fill-opacity="1" stroke="#000000" stroke-opacity="1" stroke-width="3.2"/>
<path clip-path="url(#clip582)" d="M393.576 1352.63 L393.576 1384.63 L425.576 1384.63 L425.576 1352.63 L393.576 1352.63 Z" fill="#e26f46" fill-rule="evenodd" fill-opacity="1" stroke="#000000" stroke-opacity="1" stroke-width="3.2"/>
<path clip-path="url(#clip582)" d="M538.373 1336.47 L538.373 1368.47 L570.373 1368.47 L570.373 1336.47 L538.373 1336.47 Z" fill="#e26f46" fill-rule="evenodd" fill-opacity="1" stroke="#000000" stroke-opacity="1" stroke-width="3.2"/>
<path clip-path="url(#clip582)" d="M683.17 1346.66 L683.17 1378.66 L715.17 1378.66 L715.17 1346.66 L683.17 1346.66 Z" fill="#e26f46" fill-rule="evenodd" fill-opacity="1" stroke="#000000" stroke-opacity="1" stroke-width="3.2"/>
<path clip-path="url(#clip582)" d="M827.968 1250.27 L827.968 1282.27 L859.968 1282.27 L859.968 1250.27 L827.968 1250.27 Z" fill="#e26f46" fill-rule="evenodd" fill-opacity="1" stroke="#000000" stroke-opacity="1" stroke-width="3.2"/>
<path clip-path="url(#clip582)" d="M972.765 1322.54 L972.765 1354.54 L1004.77 1354.54 L1004.77 1322.54 L972.765 1322.54 Z" fill="#e26f46" fill-rule="evenodd" fill-opacity="1" stroke="#000000" stroke-opacity="1" stroke-width="3.2"/>
<path clip-path="url(#clip582)" d="M1117.56 1309.23 L1117.56 1341.23 L1149.56 1341.23 L1149.56 1309.23 L1117.56 1309.23 Z" fill="#e26f46" fill-rule="evenodd" fill-opacity="1" stroke="#000000" stroke-opacity="1" stroke-width="3.2"/>
<path clip-path="url(#clip582)" d="M1262.36 1277.74 L1262.36 1309.74 L1294.36 1309.74 L1294.36 1277.74 L1262.36 1277.74 Z" fill="#e26f46" fill-rule="evenodd" fill-opacity="1" stroke="#000000" stroke-opacity="1" stroke-width="3.2"/>
<path clip-path="url(#clip582)" d="M1407.16 1259.53 L1407.16 1291.53 L1439.16 1291.53 L1439.16 1259.53 L1407.16 1259.53 Z" fill="#e26f46" fill-rule="evenodd" fill-opacity="1" stroke="#000000" stroke-opacity="1" stroke-width="3.2"/>
<path clip-path="url(#clip582)" d="M1551.95 1284.65 L1551.95 1316.65 L1583.95 1316.65 L1583.95 1284.65 L1551.95 1284.65 Z" fill="#e26f46" fill-rule="evenodd" fill-opacity="1" stroke="#000000" stroke-opacity="1" stroke-width="3.2"/>
<path clip-path="url(#clip582)" d="M1696.75 1264.49 L1696.75 1296.49 L1728.75 1296.49 L1728.75 1264.49 L1696.75 1264.49 Z" fill="#e26f46" fill-rule="evenodd" fill-opacity="1" stroke="#000000" stroke-opacity="1" stroke-width="3.2"/>
<path clip-path="url(#clip582)" d="M1841.55 1222.16 L1841.55 1254.16 L1873.55 1254.16 L1873.55 1222.16 L1841.55 1222.16 Z" fill="#e26f46" fill-rule="evenodd" fill-opacity="1" stroke="#000000" stroke-opacity="1" stroke-width="3.2"/>
<path clip-path="url(#clip582)" d="M1986.35 1060.75 L1986.35 1092.75 L2018.35 1092.75 L2018.35 1060.75 L1986.35 1060.75 Z" fill="#e26f46" fill-rule="evenodd" fill-opacity="1" stroke="#000000" stroke-opacity="1" stroke-width="3.2"/>
<path clip-path="url(#clip582)" d="M2131.14 1261.18 L2131.14 1293.18 L2163.14 1293.18 L2163.14 1261.18 L2131.14 1261.18 Z" fill="#e26f46" fill-rule="evenodd" fill-opacity="1" stroke="#000000" stroke-opacity="1" stroke-width="3.2"/>
<path clip-path="url(#clip582)" d="M2275.94 1217.31 L2275.94 1249.31 L2307.94 1249.31 L2307.94 1217.31 L2275.94 1217.31 Z" fill="#e26f46" fill-rule="evenodd" fill-opacity="1" stroke="#000000" stroke-opacity="1" stroke-width="3.2"/>
<path clip-path="url(#clip580)" d="M275.59 248.629 L620.191 248.629 L620.191 93.1086 L275.59 93.1086  Z" fill="#ffffff" fill-rule="evenodd" fill-opacity="1"/>
<polyline clip-path="url(#clip580)" style="stroke:#000000; stroke-linecap:round; stroke-linejoin:round; stroke-width:4; stroke-opacity:1; fill:none" points="275.59,248.629 620.191,248.629 620.191,93.1086 275.59,93.1086 275.59,248.629 "/>
<polyline clip-path="url(#clip580)" style="stroke:#009af9; stroke-linecap:round; stroke-linejoin:round; stroke-width:8; stroke-opacity:1; fill:none" points="299.465,144.949 442.718,144.949 "/>
<circle clip-path="url(#clip580)" cx="371.092" cy="144.949" r="19.8962" fill="#009af9" fill-rule="evenodd" fill-opacity="1" stroke="#000000" stroke-opacity="1" stroke-width="4.55111"/>
<path clip-path="url(#clip580)" d="M488.839 128.803 L488.839 133.363 Q486.177 132.09 483.816 131.465 Q481.455 130.84 479.256 130.84 Q475.436 130.84 473.353 132.321 Q471.293 133.803 471.293 136.534 Q471.293 138.826 472.659 140.007 Q474.047 141.164 477.89 141.882 L480.714 142.46 Q485.945 143.456 488.422 145.979 Q490.922 148.479 490.922 152.692 Q490.922 157.715 487.543 160.307 Q484.186 162.9 477.682 162.9 Q475.228 162.9 472.45 162.344 Q469.696 161.789 466.733 160.701 L466.733 155.886 Q469.58 157.483 472.311 158.293 Q475.043 159.104 477.682 159.104 Q481.686 159.104 483.862 157.53 Q486.038 155.956 486.038 153.039 Q486.038 150.493 484.464 149.057 Q482.913 147.622 479.348 146.905 L476.501 146.349 Q471.27 145.307 468.932 143.085 Q466.594 140.863 466.594 136.905 Q466.594 132.321 469.811 129.682 Q473.052 127.044 478.723 127.044 Q481.154 127.044 483.677 127.483 Q486.2 127.923 488.839 128.803 Z" fill="#000000" fill-rule="nonzero" fill-opacity="1" /><path clip-path="url(#clip580)" d="M498.214 127.669 L518.075 127.669 L518.075 131.604 L502.89 131.604 L502.89 141.789 L516.593 141.789 L516.593 145.724 L502.89 145.724 L502.89 162.229 L498.214 162.229 L498.214 127.669 Z" fill="#000000" fill-rule="nonzero" fill-opacity="1" /><path clip-path="url(#clip580)" d="M522.404 127.669 L527.126 127.669 L534.394 156.881 L541.64 127.669 L546.894 127.669 L554.163 156.881 L561.408 127.669 L566.153 127.669 L557.473 162.229 L551.593 162.229 L544.302 132.229 L536.941 162.229 L531.061 162.229 L522.404 127.669 Z" fill="#000000" fill-rule="nonzero" fill-opacity="1" /><polyline clip-path="url(#clip580)" style="stroke:#e26f46; stroke-linecap:round; stroke-linejoin:round; stroke-width:8; stroke-opacity:1; fill:none" points="299.465,196.789 442.718,196.789 "/>
<path clip-path="url(#clip580)" d="M348.985 174.682 L348.985 218.896 L393.199 218.896 L393.199 174.682 L348.985 174.682 Z" fill="#e26f46" fill-rule="evenodd" fill-opacity="1" stroke="#000000" stroke-opacity="1" stroke-width="4.55111"/>
<path clip-path="url(#clip580)" d="M471.27 197.564 L471.27 210.226 L478.77 210.226 Q482.543 210.226 484.348 208.675 Q486.177 207.101 486.177 203.883 Q486.177 200.643 484.348 199.115 Q482.543 197.564 478.77 197.564 L471.27 197.564 M471.27 183.351 L471.27 193.768 L478.191 193.768 Q481.617 193.768 483.283 192.495 Q484.973 191.198 484.973 188.559 Q484.973 185.944 483.283 184.647 Q481.617 183.351 478.191 183.351 L471.27 183.351 M466.594 179.509 L478.538 179.509 Q483.885 179.509 486.779 181.731 Q489.672 183.953 489.672 188.05 Q489.672 191.222 488.191 193.097 Q486.709 194.971 483.839 195.434 Q487.288 196.175 489.186 198.536 Q491.108 200.874 491.108 204.393 Q491.108 209.022 487.959 211.545 Q484.811 214.069 479.001 214.069 L466.594 214.069 L466.594 179.509 Z" fill="#000000" fill-rule="nonzero" fill-opacity="1" /><path clip-path="url(#clip580)" d="M519.001 180.643 L519.001 185.203 Q516.339 183.93 513.978 183.305 Q511.617 182.68 509.418 182.68 Q505.598 182.68 503.515 184.161 Q501.455 185.643 501.455 188.374 Q501.455 190.666 502.82 191.847 Q504.209 193.004 508.052 193.722 L510.876 194.3 Q516.107 195.296 518.584 197.819 Q521.084 200.319 521.084 204.532 Q521.084 209.555 517.705 212.147 Q514.348 214.74 507.844 214.74 Q505.39 214.74 502.612 214.184 Q499.857 213.629 496.895 212.541 L496.895 207.726 Q499.742 209.323 502.473 210.133 Q505.205 210.944 507.844 210.944 Q511.848 210.944 514.024 209.37 Q516.2 207.796 516.2 204.879 Q516.2 202.333 514.626 200.897 Q513.075 199.462 509.51 198.745 L506.663 198.189 Q501.432 197.147 499.094 194.925 Q496.756 192.703 496.756 188.745 Q496.756 184.161 499.973 181.522 Q503.214 178.884 508.885 178.884 Q511.316 178.884 513.839 179.323 Q516.362 179.763 519.001 180.643 Z" fill="#000000" fill-rule="nonzero" fill-opacity="1" /><path clip-path="url(#clip580)" d="M528.376 179.509 L548.237 179.509 L548.237 183.444 L533.052 183.444 L533.052 193.629 L546.755 193.629 L546.755 197.564 L533.052 197.564 L533.052 214.069 L528.376 214.069 L528.376 179.509 Z" fill="#000000" fill-rule="nonzero" fill-opacity="1" /><path clip-path="url(#clip580)" d="M552.566 179.509 L557.288 179.509 L564.556 208.721 L571.802 179.509 L577.056 179.509 L584.325 208.721 L591.57 179.509 L596.315 179.509 L587.635 214.069 L581.755 214.069 L574.464 184.069 L567.102 214.069 L561.223 214.069 L552.566 179.509 Z" fill="#000000" fill-rule="nonzero" fill-opacity="1" /></svg>
