<?xml version="1.0" encoding="utf-8"?>
<svg xmlns="http://www.w3.org/2000/svg" xmlns:xlink="http://www.w3.org/1999/xlink" width="200" height="70" viewBox="0 0 800 280">
<defs>
  <clipPath id="clip910">
    <rect x="0" y="0" width="800" height="280"/>
  </clipPath>
</defs>
<path clip-path="url(#clip910)" d="M0 280 L800 280 L800 0 L0 0  Z" fill="#ffffff" fill-rule="evenodd" fill-opacity="1"/>
<defs>
  <clipPath id="clip911">
    <rect x="160" y="0" width="561" height="280"/>
  </clipPath>
</defs>
<path clip-path="url(#clip910)" d="M0 280 L800 280 L800 0 L0 0  Z" fill="#ffffff" fill-rule="evenodd" fill-opacity="1"/>
<polyline clip-path="url(#clip910)" style="stroke:#000000; stroke-linecap:round; stroke-linejoin:round; stroke-width:4; stroke-opacity:1; fill:none" points="0,280 800,280 "/>
<polyline clip-path="url(#clip910)" style="stroke:#000000; stroke-linecap:round; stroke-linejoin:round; stroke-width:4; stroke-opacity:1; fill:none" points="0,0 800,0 "/>
<polyline clip-path="url(#clip910)" style="stroke:#000000; stroke-linecap:round; stroke-linejoin:round; stroke-width:4; stroke-opacity:1; fill:none" points="0,280 0,0 "/>
<polyline clip-path="url(#clip910)" style="stroke:#000000; stroke-linecap:round; stroke-linejoin:round; stroke-width:4; stroke-opacity:1; fill:none" points="800,280 800,0 "/>
<polyline clip-path="url(#clip910)" style="stroke:#000000; stroke-linecap:round; stroke-linejoin:round; stroke-width:4; stroke-opacity:1; fill:none" points="-800,140 1600,140 "/>
<circle clip-path="url(#clip910)" cx="160" cy="20.3419" r="18" fill="#000000" fill-rule="evenodd" fill-opacity="1" stroke="none"/>
<circle clip-path="url(#clip910)" cx="280" cy="20.3419" r="18" fill="#000000" fill-rule="evenodd" fill-opacity="1" stroke="none"/>
<circle clip-path="url(#clip910)" cx="520" cy="259.658" r="18" fill="#000000" fill-rule="evenodd" fill-opacity="1" stroke="none"/>
<polyline clip-path="url(#clip910)" style="stroke:#000000; stroke-linecap:round; stroke-linejoin:round; stroke-width:4; stroke-opacity:1; fill:none" stroke-dasharray="16, 10" points="160,140 160,20.3419 "/>
<polyline clip-path="url(#clip910)" style="stroke:#000000; stroke-linecap:round; stroke-linejoin:round; stroke-width:4; stroke-opacity:1; fill:none" stroke-dasharray="16, 10" points="280,140 280,20.3419 "/>
<polyline clip-path="url(#clip910)" style="stroke:#000000; stroke-linecap:round; stroke-linejoin:round; stroke-width:4; stroke-opacity:1; fill:none" stroke-dasharray="16, 10" points="520,140 520,259.658 "/>
<polyline clip-path="url(#clip910)" style="stroke:#000000; stroke-linecap:round; stroke-linejoin:round; stroke-width:4; stroke-opacity:1; fill:none" stroke-dasharray="16, 10" points="-800,20.3419 1600,20.3419 "/>
<polyline clip-path="url(#clip910)" style="stroke:#000000; stroke-linecap:round; stroke-linejoin:round; stroke-width:4; stroke-opacity:1; fill:none" stroke-dasharray="16, 10" points="-800,259.658 1600,259.658 "/>
<circle clip-path="url(#clip910)" cx="209.595" cy="29.512" r="18" fill="#800080" fill-rule="evenodd" fill-opacity="1" stroke="none"/>
<polyline clip-path="url(#clip910)" style="stroke:#800080; stroke-linecap:round; stroke-linejoin:round; stroke-width:4; stroke-opacity:1; fill:none" points="209.595,140 209.595,29.512 "/>
<polyline clip-path="url(#clip910)" style="stroke:#800080; stroke-linecap:round; stroke-linejoin:round; stroke-width:4; stroke-opacity:1; fill:none" stroke-dasharray="16, 10" points="0,154.393 20,148.452 40,139.462 60,127.789 80,113.494 100,96.6709 120,77.9131 140,58.6263 160,40.9919 180,27.522 200,20.3419 220,20.4702 240,27.4012 260,39.1965 280,53.1051 300,66.5175 320,77.9131 340,87.4315 360,96.8216 380,108.738 400,125.607 420,148.452 440,176.119 460,205.223 480,230.873 500,248.001 520,252.863 540,244.218 560,223.813 580,195.983 600,166.506 620,141.075 640,123.866 660,116.63 680,118.548 700,126.82 720,137.72 740,147.734 760,154.393 780,156.595 800,154.393 "/>
<path clip-path="url(#clip910)" d="M622.235 237.443 L773.333 237.443 L773.333 9.33333 L622.235 9.33333  Z" fill="#ffffff" fill-rule="evenodd" fill-opacity="1"/>
<polyline clip-path="url(#clip910)" style="stroke:#000000; stroke-linecap:round; stroke-linejoin:round; stroke-width:4; stroke-opacity:1; fill:none" points="622.235,237.443 773.333,237.443 773.333,9.33333 622.235,9.33333 622.235,237.443 "/>
<circle clip-path="url(#clip910)" cx="657.79" cy="66.3608" r="23.04" fill="#000000" fill-rule="evenodd" fill-opacity="1" stroke="none"/>
<path clip-path="url(#clip910)" d="M719.345 57.8587 Q718.736 60.8802 717.916 62.6135 Q716.604 65.2602 714.356 65.2602 Q712.763 65.2602 711.545 64.2999 Q710.351 63.3396 710.046 61.7469 Q709.437 62.473 708.992 62.8946 Q708.571 63.3162 707.727 63.972 Q706.908 64.6044 705.877 64.9323 Q704.846 65.2602 703.675 65.2602 Q700.818 65.2602 699.014 63.7612 Q696.578 73.5752 696.367 74.0671 Q695.688 75.0742 694.704 75.0742 Q694.095 75.0742 693.721 74.6995 Q693.346 74.3481 693.346 73.786 Q693.369 73.5986 693.51 73.0131 L700.396 45.2575 Q700.583 44.5079 701.052 44.0863 Q701.544 43.6413 701.825 43.5945 Q702.106 43.5242 702.317 43.5242 Q702.949 43.5242 703.324 43.8755 Q703.722 44.2034 703.722 44.8124 Q703.722 44.9061 703.582 45.4448 Q703.464 45.9601 703.277 46.7565 Q703.09 47.5294 702.996 47.8808 L700.982 55.9381 Q700.302 58.7019 700.302 60.0136 Q700.302 62.0045 701.192 63.1054 Q702.106 64.1828 703.863 64.1828 Q704.963 64.1828 705.994 63.7378 Q707.025 63.2693 707.727 62.6369 Q708.43 62.0045 708.992 61.3253 Q709.554 60.6226 709.812 60.1776 Q710.07 59.7091 710.093 59.592 L711.334 54.6967 L713.606 45.7259 Q713.747 45.1638 714.005 44.789 Q714.286 44.3908 714.613 44.2503 Q714.941 44.1098 715.129 44.0863 Q715.316 44.0395 715.48 44.0395 Q716.066 44.0395 716.464 44.3908 Q716.862 44.7422 716.862 45.3511 Q716.862 45.4683 716.722 46.0304 Q716.604 46.5691 716.417 47.3655 Q716.23 48.1384 716.136 48.56 Q715.386 51.5113 715.316 51.8157 L713.981 56.9921 Q713.911 57.2966 713.677 58.2803 Q713.466 59.2641 713.349 59.7794 Q713.232 60.2712 713.114 60.9505 Q713.021 61.6063 713.021 61.9811 Q713.021 64.1828 714.473 64.1828 Q715.035 64.1828 715.527 63.8549 Q716.019 63.5035 716.347 63.0117 Q716.698 62.5198 717.026 61.6766 Q717.377 60.81 717.588 60.1073 Q717.799 59.3812 718.103 58.2569 Q718.221 57.7182 718.338 57.5542 Q718.455 57.3903 718.783 57.3903 Q719.345 57.3903 719.345 57.8587 Z" fill="#000000" fill-rule="nonzero" fill-opacity="1" /><path clip-path="url(#clip910)" d="M724.216 77.5266 Q724.216 72.5915 725.462 69.9026 Q727.2 65.902 731.299 65.902 Q732.168 65.902 733.07 66.148 Q733.988 66.3775 735.135 67.2793 Q736.3 68.181 737.005 69.6566 Q738.349 72.5095 738.349 77.5266 Q738.349 82.4289 737.103 85.1014 Q735.283 89.0036 731.266 89.0036 Q729.758 89.0036 728.216 88.233 Q726.692 87.4624 725.724 85.6097 Q724.216 82.8388 724.216 77.5266 M727.003 77.1167 Q727.003 82.183 727.364 84.1996 Q727.774 86.3803 728.889 87.3312 Q730.02 88.2658 731.266 88.2658 Q732.611 88.2658 733.725 87.2656 Q734.857 86.2491 735.201 84.0685 Q735.578 81.9206 735.562 77.1167 Q735.562 72.4439 735.234 70.5748 Q734.791 68.3942 733.611 67.5252 Q732.447 66.6398 731.266 66.6398 Q730.823 66.6398 730.348 66.771 Q729.889 66.9022 729.217 67.2793 Q728.544 67.6564 728.02 68.5909 Q727.511 69.5255 727.266 70.9355 Q727.003 72.7554 727.003 77.1167 Z" fill="#000000" fill-rule="nonzero" fill-opacity="1" /><circle clip-path="url(#clip910)" cx="657.79" cy="123.388" r="23.04" fill="#800080" fill-rule="evenodd" fill-opacity="1" stroke="none"/>
<path clip-path="url(#clip910)" d="M719.345 134.784 Q718.736 137.806 717.916 139.539 Q716.604 142.186 714.356 142.186 Q712.763 142.186 711.545 141.225 Q710.351 140.265 710.046 138.672 Q709.437 139.398 708.992 139.82 Q708.571 140.242 707.727 140.897 Q706.908 141.53 705.877 141.858 Q704.846 142.186 703.675 142.186 Q700.818 142.186 699.014 140.687 Q696.578 150.501 696.367 150.992 Q695.688 152 694.704 152 Q694.095 152 693.721 151.625 Q693.346 151.273 693.346 150.711 Q693.369 150.524 693.51 149.938 L700.396 122.183 Q700.583 121.433 701.052 121.012 Q701.544 120.567 701.825 120.52 Q702.106 120.45 702.317 120.45 Q702.949 120.45 703.324 120.801 Q703.722 121.129 703.722 121.738 Q703.722 121.831 703.582 122.37 Q703.464 122.885 703.277 123.682 Q703.09 124.455 702.996 124.806 L700.982 132.863 Q700.302 135.627 700.302 136.939 Q700.302 138.93 701.192 140.031 Q702.106 141.108 703.863 141.108 Q704.963 141.108 705.994 140.663 Q707.025 140.195 707.727 139.562 Q708.43 138.93 708.992 138.251 Q709.554 137.548 709.812 137.103 Q710.07 136.634 710.093 136.517 L711.334 131.622 L713.606 122.651 Q713.747 122.089 714.005 121.714 Q714.286 121.316 714.613 121.176 Q714.941 121.035 715.129 121.012 Q715.316 120.965 715.48 120.965 Q716.066 120.965 716.464 121.316 Q716.862 121.668 716.862 122.277 Q716.862 122.394 716.722 122.956 Q716.604 123.494 716.417 124.291 Q716.23 125.064 716.136 125.485 Q715.386 128.437 715.316 128.741 L713.981 133.917 Q713.911 134.222 713.677 135.206 Q713.466 136.189 713.349 136.705 Q713.232 137.197 713.114 137.876 Q713.021 138.532 713.021 138.906 Q713.021 141.108 714.473 141.108 Q715.035 141.108 715.527 140.78 Q716.019 140.429 716.347 139.937 Q716.698 139.445 717.026 138.602 Q717.377 137.735 717.588 137.033 Q717.799 136.307 718.103 135.182 Q718.221 134.644 718.338 134.48 Q718.455 134.316 718.783 134.316 Q719.345 134.316 719.345 134.784 Z" fill="#000000" fill-rule="nonzero" fill-opacity="1" /><path clip-path="url(#clip910)" d="M724.216 128.214 L724.216 94.6356 L729.282 94.6356 L729.282 95.4062 L726.462 95.4062 L726.462 127.443 L729.282 127.443 L729.282 128.214 L724.216 128.214 Z" fill="#000000" fill-rule="nonzero" fill-opacity="1" /><path clip-path="url(#clip910)" d="M733.456 109.08 Q733.456 104.145 734.702 101.456 Q736.44 97.4556 740.539 97.4556 Q741.408 97.4556 742.31 97.7016 Q743.228 97.9311 744.375 98.8329 Q745.539 99.7346 746.245 101.21 Q747.589 104.063 747.589 109.08 Q747.589 113.983 746.343 116.655 Q744.523 120.557 740.506 120.557 Q738.998 120.557 737.456 119.787 Q735.932 119.016 734.964 117.163 Q733.456 114.392 733.456 109.08 M736.243 108.67 Q736.243 113.737 736.604 115.753 Q737.014 117.934 738.129 118.885 Q739.26 119.819 740.506 119.819 Q741.85 119.819 742.965 118.819 Q744.097 117.803 744.441 115.622 Q744.818 113.474 744.802 108.67 Q744.802 103.998 744.474 102.128 Q744.031 99.9478 742.851 99.0788 Q741.687 98.1934 740.506 98.1934 Q740.063 98.1934 739.588 98.3246 Q739.129 98.4558 738.457 98.8329 Q737.784 99.21 737.26 100.145 Q736.751 101.079 736.505 102.489 Q736.243 104.309 736.243 108.67 Z" fill="#000000" fill-rule="nonzero" fill-opacity="1" /><path clip-path="url(#clip910)" d="M750.085 127.443 L752.905 127.443 L752.905 95.4062 L750.085 95.4062 L750.085 94.6356 L755.151 94.6356 L755.151 128.214 L750.085 128.214 L750.085 127.443 Z" fill="#000000" fill-rule="nonzero" fill-opacity="1" /><polyline clip-path="url(#clip910)" style="stroke:#800080; stroke-linecap:round; stroke-linejoin:round; stroke-width:4; stroke-opacity:1; fill:none" stroke-dasharray="16, 10" points="631.124,180.416 684.457,180.416 "/>
<path clip-path="url(#clip910)" d="M715.761 182.607 Q715.761 183.918 715.363 185.394 L709.906 207.106 Q709.414 209.027 707.938 209.027 Q707.329 209.027 706.954 208.652 Q706.603 208.301 706.603 207.739 Q706.603 207.551 706.744 206.966 L712.201 184.902 Q712.693 182.888 712.693 181.88 Q712.693 178.531 710.093 178.531 Q707.798 178.531 705.502 180.217 Q704.448 181.061 703.418 182.583 Q702.41 184.082 702.223 184.621 Q702.012 185.839 701.708 186.776 Q701.567 187.432 700.888 189.985 L699.834 194.318 Q699.084 197.55 698.92 197.855 Q698.686 198.51 698.171 198.862 Q697.656 199.213 697.14 199.213 Q696.555 199.213 696.157 198.862 Q695.758 198.51 695.758 197.901 Q695.758 197.808 695.829 197.456 Q695.899 197.105 696.016 196.613 Q696.133 196.121 696.18 195.84 L698.967 184.761 Q699.483 182.747 699.6 182.115 Q699.74 181.459 699.74 180.733 Q699.74 179.468 699.342 179 Q698.944 178.531 698.241 178.531 Q697.023 178.531 696.227 179.983 Q695.431 181.435 694.751 184.246 Q694.54 185.019 694.4 185.183 Q694.283 185.347 693.931 185.347 Q693.346 185.324 693.346 184.855 Q693.346 184.738 693.533 183.989 Q693.721 183.216 694.072 182.091 Q694.447 180.944 694.845 180.217 Q695.079 179.726 695.29 179.398 Q695.501 179.07 695.922 178.554 Q696.344 178.039 696.976 177.758 Q697.609 177.477 698.382 177.477 Q700.092 177.477 701.356 178.578 Q702.645 179.679 702.809 181.646 Q703.3 180.92 703.933 180.264 Q704.589 179.609 705.502 178.953 Q706.416 178.273 707.657 177.875 Q708.898 177.477 710.233 177.477 Q712.904 177.477 714.332 178.859 Q715.761 180.217 715.761 182.607 Z" fill="#000000" fill-rule="nonzero" fill-opacity="1" /><path clip-path="url(#clip910)" d="M720.664 185.241 L720.664 151.663 L725.73 151.663 L725.73 152.434 L722.91 152.434 L722.91 184.471 L725.73 184.471 L725.73 185.241 L720.664 185.241 Z" fill="#000000" fill-rule="nonzero" fill-opacity="1" /><path clip-path="url(#clip910)" d="M729.904 166.108 Q729.904 161.173 731.15 158.484 Q732.888 154.483 736.987 154.483 Q737.856 154.483 738.757 154.729 Q739.676 154.959 740.823 155.86 Q741.987 156.762 742.692 158.238 Q744.037 161.091 744.037 166.108 Q744.037 171.01 742.791 173.683 Q740.971 177.585 736.954 177.585 Q735.446 177.585 733.904 176.814 Q732.38 176.043 731.412 174.191 Q729.904 171.42 729.904 166.108 M732.691 165.698 Q732.691 170.764 733.052 172.781 Q733.462 174.961 734.577 175.912 Q735.708 176.847 736.954 176.847 Q738.298 176.847 739.413 175.847 Q740.545 174.83 740.889 172.65 Q741.266 170.502 741.25 165.698 Q741.25 161.025 740.922 159.156 Q740.479 156.975 739.299 156.106 Q738.134 155.221 736.954 155.221 Q736.511 155.221 736.036 155.352 Q735.577 155.483 734.904 155.86 Q734.232 156.237 733.708 157.172 Q733.199 158.107 732.953 159.517 Q732.691 161.337 732.691 165.698 Z" fill="#000000" fill-rule="nonzero" fill-opacity="1" /><path clip-path="url(#clip910)" d="M746.532 184.471 L749.352 184.471 L749.352 152.434 L746.532 152.434 L746.532 151.663 L751.599 151.663 L751.599 185.241 L746.532 185.241 L746.532 184.471 Z" fill="#000000" fill-rule="nonzero" fill-opacity="1" /></svg>
