<?xml version="1.0" encoding="utf-8"?>
<svg xmlns="http://www.w3.org/2000/svg" xmlns:xlink="http://www.w3.org/1999/xlink" width="300" height="150" viewBox="0 0 1200 600">
<defs>
  <clipPath id="clip630">
    <rect x="0" y="0" width="1200" height="600"/>
  </clipPath>
</defs>
<path clip-path="url(#clip630)" d="M0 600 L1200 600 L1200 0 L0 0  Z" fill="#ffffff" fill-rule="evenodd" fill-opacity="1"/>
<defs>
  <clipPath id="clip631">
    <rect x="240" y="0" width="841" height="600"/>
  </clipPath>
</defs>
<path clip-path="url(#clip630)" d="M3.14961 596.85 L1196.85 596.85 L1196.85 3.14961 L3.14961 3.14961  Z" fill="#ffffff" fill-rule="evenodd" fill-opacity="1"/>
<defs>
  <clipPath id="clip632">
    <rect x="3" y="3" width="1195" height="595"/>
  </clipPath>
</defs>
<polyline clip-path="url(#clip630)" style="stroke:#000000; stroke-linecap:round; stroke-linejoin:round; stroke-width:4; stroke-opacity:1; fill:none" points="3.14961,596.85 1196.85,596.85 "/>
<polyline clip-path="url(#clip630)" style="stroke:#000000; stroke-linecap:round; stroke-linejoin:round; stroke-width:4; stroke-opacity:1; fill:none" points="3.14961,3.14961 1196.85,3.14961 "/>
<polyline clip-path="url(#clip630)" style="stroke:#000000; stroke-linecap:round; stroke-linejoin:round; stroke-width:4; stroke-opacity:1; fill:none" points="3.14961,596.85 3.14961,3.14961 "/>
<polyline clip-path="url(#clip630)" style="stroke:#000000; stroke-linecap:round; stroke-linejoin:round; stroke-width:4; stroke-opacity:1; fill:none" points="1196.85,596.85 1196.85,3.14961 "/>
<polyline clip-path="url(#clip632)" style="stroke:#000000; stroke-linecap:round; stroke-linejoin:round; stroke-width:4; stroke-opacity:1; fill:none" points="-1190.55,300 2390.55,300 "/>
<circle clip-path="url(#clip632)" cx="522.907" cy="151.575" r="25.2" fill="#000000" fill-rule="evenodd" fill-opacity="1" stroke="none"/>
<circle clip-path="url(#clip632)" cx="677.093" cy="448.425" r="25.2" fill="#000000" fill-rule="evenodd" fill-opacity="1" stroke="none"/>
<polyline clip-path="url(#clip632)" style="stroke:#000000; stroke-linecap:round; stroke-linejoin:round; stroke-width:4; stroke-opacity:1; fill:none" stroke-dasharray="16, 10" points="522.907,300 522.907,151.575 "/>
<polyline clip-path="url(#clip632)" style="stroke:#000000; stroke-linecap:round; stroke-linejoin:round; stroke-width:4; stroke-opacity:1; fill:none" stroke-dasharray="16, 10" points="677.093,300 677.093,448.425 "/>
<polyline clip-path="url(#clip632)" style="stroke:#008000; stroke-linecap:round; stroke-linejoin:round; stroke-width:4; stroke-opacity:1; fill:none" points="-146.063,300 -144.571,300.988 -143.079,301.975 -141.587,302.958 -140.094,303.937 -138.602,304.909 -137.11,305.874 -135.618,306.828 -134.126,307.772 -132.634,308.703 -131.142,309.62 -129.65,310.521 -128.157,311.405 -126.665,312.27 -125.173,313.115 -123.681,313.939 -122.189,314.741 -120.697,315.518 -119.205,316.27 -117.713,316.995 -116.22,317.693 -114.728,318.362 -113.236,319.001 -111.744,319.609 -110.252,320.185 -108.76,320.727 -107.268,321.236 -105.776,321.711 -104.283,322.149 -102.791,322.552 -101.299,322.917 -99.8071,323.245 -98.315,323.535 -96.8228,323.786 -95.3307,323.999 -93.8386,324.172 -92.3465,324.305 -90.8543,324.398 -89.3622,324.451 -87.8701,324.464 -86.378,324.436 -84.8858,324.368 -83.3937,324.26 -81.9016,324.112 -80.4094,323.924 -78.9173,323.697 -77.4252,323.43 -75.9331,323.124 -74.4409,322.78 -72.9488,322.398 -71.4567,321.979 -69.9646,321.523 -68.4724,321.031 -66.9803,320.504 -65.4882,319.943 -63.9961,319.348 -62.5039,318.72 -61.0118,318.061 -59.5197,317.372 -58.0276,316.653 -56.5354,315.905 -55.0433,315.131 -53.5512,314.331 -52.0591,313.506 -50.5669,312.657 -49.0748,311.787 -47.5827,310.896 -46.0906,309.986 -44.5984,309.058 -43.1063,308.114 -41.6142,307.155 -40.122,306.184 -38.6299,305.2 -37.1378,304.207 -35.6457,303.205 -34.1535,302.196 -32.6614,301.182 -31.1693,300.164 -29.6772,299.145 -28.185,298.125 -26.6929,297.107 -25.2008,296.092 -23.7087,295.081 -22.2165,294.077 -20.7244,293.081 -19.2323,292.095 -17.7402,291.12 -16.248,290.158 -14.7559,289.21 -13.2638,288.279 -11.7717,287.365 -10.2795,286.47 -8.7874,285.595 -7.29528,284.743 -5.80315,283.914 -4.31102,283.11 -2.8189,282.333 -1.32677,281.583 0.165354,280.861 1.65748,280.17 3.14961,279.51 4.64173,278.882 6.13386,278.288 7.62598,277.729 9.11811,277.205 10.6102,276.717 12.1024,276.266 13.5945,275.854 15.0866,275.481 16.5787,275.147 18.0709,274.853 19.563,274.6 21.0551,274.388 22.5472,274.218 24.0394,274.09 25.5315,274.005 27.0236,273.962 28.5157,273.962 30.0079,274.004 31.5,274.09 32.9921,274.219 34.4843,274.39 35.9764,274.604 37.4685,274.861 38.9606,275.159 40.4528,275.499 41.9449,275.881 43.437,276.303 44.9291,276.766 46.4213,277.268 47.9134,277.809 49.4055,278.388 50.8976,279.004 52.3898,279.657 53.8819,280.345 55.374,281.067 56.8661,281.823 58.3583,282.611 59.8504,283.43 61.3425,284.278 62.8346,285.155 64.3268,286.06 65.8189,286.99 67.311,287.944 68.8031,288.921 70.2953,289.919 71.7874,290.938 73.2795,291.974 74.7717,293.027 76.2638,294.095 77.7559,295.176 79.248,296.269 80.7402,297.371 82.2323,298.482 83.7244,299.598 85.2165,300.72 86.7087,301.843 88.2008,302.968 89.6929,304.092 91.185,305.213 92.6772,306.329 94.1693,307.439 95.6614,308.541 97.1535,309.633 98.6457,310.712 100.138,311.779 101.63,312.829 103.122,313.863 104.614,314.877 106.106,315.871 107.598,316.843 109.091,317.79 110.583,318.712 112.075,319.607 113.567,320.473 115.059,321.309 116.551,322.113 118.043,322.884 119.535,323.62 121.028,324.32 122.52,324.984 124.012,325.608 125.504,326.194 126.996,326.738 128.488,327.241 129.98,327.702 131.472,328.118 132.965,328.491 134.457,328.818 135.949,329.099 137.441,329.333 138.933,329.52 140.425,329.659 141.917,329.751 143.409,329.793 144.902,329.787 146.394,329.732 147.886,329.628 149.378,329.474 150.87,329.272 152.362,329.02 153.854,328.719 155.346,328.37 156.839,327.972 158.331,327.526 159.823,327.033 161.315,326.493 162.807,325.907 164.299,325.275 165.791,324.599 167.283,323.879 168.776,323.115 170.268,322.31 171.76,321.464 173.252,320.579 174.744,319.655 176.236,318.694 177.728,317.697 179.22,316.665 180.713,315.601 182.205,314.506 183.697,313.38 185.189,312.227 186.681,311.047 188.173,309.842 189.665,308.614 191.157,307.366 192.65,306.098 194.142,304.813 195.634,303.513 197.126,302.2 198.618,300.875 200.11,299.541 201.602,298.2 203.094,296.854 204.587,295.506 206.079,294.156 207.571,292.808 209.063,291.464 210.555,290.125 212.047,288.795 213.539,287.474 215.031,286.166 216.524,284.872 218.016,283.595 219.508,282.337 221,281.1 222.492,279.885 223.984,278.696 225.476,277.534 226.969,276.401 228.461,275.3 229.953,274.231 231.445,273.198 232.937,272.201 234.429,271.244 235.921,270.326 237.413,269.452 238.906,268.621 240.398,267.835 241.89,267.097 243.382,266.408 244.874,265.769 246.366,265.181 247.858,264.645 249.35,264.164 250.843,263.738 252.335,263.368 253.827,263.056 255.319,262.801 256.811,262.605 258.303,262.469 259.795,262.394 261.287,262.379 262.78,262.425 264.272,262.534 265.764,262.704 267.256,262.937 268.748,263.232 270.24,263.589 271.732,264.009 273.224,264.491 274.717,265.034 276.209,265.639 277.701,266.306 279.193,267.032 280.685,267.819 282.177,268.665 283.669,269.569 285.161,270.53 286.654,271.547 288.146,272.62 289.638,273.747 291.13,274.926 292.622,276.156 294.114,277.436 295.606,278.765 297.098,280.139 298.591,281.559 300.083,283.022 301.575,284.525 303.067,286.068 304.559,287.648 306.051,289.263 307.543,290.91 309.035,292.588 310.528,294.294 312.02,296.026 313.512,297.781 315.004,299.557 316.496,301.351 317.988,303.161 319.48,304.984 320.972,306.817 322.465,308.658 323.957,310.504 325.449,312.352 326.941,314.199 328.433,316.043 329.925,317.88 331.417,319.708 332.909,321.523 334.402,323.324 335.894,325.107 337.386,326.868 338.878,328.606 340.37,330.318 341.862,331.999 343.354,333.649 344.846,335.263 346.339,336.838 347.831,338.373 349.323,339.865 350.815,341.31 352.307,342.706 353.799,344.05 355.291,345.34 356.783,346.573 358.276,347.747 359.768,348.859 361.26,349.907 362.752,350.889 364.244,351.802 365.736,352.644 367.228,353.413 368.72,354.108 370.213,354.725 371.705,355.264 373.197,355.723 374.689,356.1 376.181,356.393 377.673,356.601 379.165,356.723 380.657,356.757 382.15,356.703 383.642,356.558 385.134,356.323 386.626,355.997 388.118,355.578 389.61,355.066 391.102,354.461 392.594,353.762 394.087,352.97 395.579,352.083 397.071,351.102 398.563,350.028 400.055,348.859 401.547,347.598 403.039,346.244 404.531,344.797 406.024,343.259 407.516,341.631 409.008,339.913 410.5,338.106 411.992,336.212 413.484,334.232 414.976,332.168 416.469,330.021 417.961,327.793 419.453,325.485 420.945,323.1 422.437,320.639 423.929,318.106 425.421,315.501 426.913,312.828 428.406,310.088 429.898,307.285 431.39,304.422 432.882,301.5 434.374,298.522 435.866,295.493 437.358,292.414 438.85,289.289 440.343,286.12 441.835,282.913 443.327,279.668 444.819,276.391 446.311,273.084 447.803,269.751 449.295,266.396 450.787,263.022 452.28,259.633 453.772,256.233 455.264,252.825 456.756,249.413 458.248,246.002 459.74,242.594 461.232,239.195 462.724,235.806 464.217,232.434 465.709,229.081 467.201,225.752 468.693,222.45 470.185,219.179 471.677,215.944 473.169,212.747 474.661,209.594 476.154,206.487 477.646,203.431 479.138,200.429 480.63,197.485 482.122,194.603 483.614,191.787 485.106,189.039 486.598,186.364 488.091,183.764 489.583,181.244 491.075,178.807 492.567,176.455 494.059,174.193 495.551,172.022 497.043,169.947 498.535,167.969 500.028,166.092 501.52,164.318 503.012,162.651 504.504,161.092 505.996,159.643 507.488,158.308 508.98,157.088 510.472,155.985 511.965,155.001 513.457,154.138 514.949,153.398 516.441,152.782 517.933,152.291 519.425,151.926 520.917,151.69 522.409,151.582 523.902,151.604 525.394,151.756 526.886,152.038 528.378,152.452 529.87,152.997 531.362,153.674 532.854,154.482 534.346,155.422 535.839,156.493 537.331,157.694 538.823,159.025 540.315,160.485 541.807,162.074 543.299,163.79 544.791,165.632 546.283,167.598 547.776,169.688 549.268,171.899 550.76,174.23 552.252,176.68 553.744,179.245 555.236,181.924 556.728,184.714 558.22,187.614 559.713,190.62 561.205,193.73 562.697,196.942 564.189,200.251 565.681,203.656 567.173,207.153 568.665,210.74 570.157,214.411 571.65,218.165 573.142,221.998 574.634,225.906 576.126,229.885 577.618,233.932 579.11,238.043 580.602,242.214 582.094,246.441 583.587,250.719 585.079,255.046 586.571,259.416 588.063,263.825 589.555,268.27 591.047,272.745 592.539,277.247 594.031,281.771 595.524,286.313 597.016,290.868 598.508,295.432 600,300 601.492,304.568 602.984,309.132 604.476,313.687 605.969,318.229 607.461,322.753 608.953,327.255 610.445,331.73 611.937,336.175 613.429,340.584 614.921,344.954 616.413,349.281 617.906,353.559 619.398,357.786 620.89,361.957 622.382,366.068 623.874,370.115 625.366,374.094 626.858,378.002 628.35,381.835 629.843,385.589 631.335,389.26 632.827,392.847 634.319,396.344 635.811,399.749 637.303,403.058 638.795,406.27 640.287,409.38 641.78,412.386 643.272,415.286 644.764,418.076 646.256,420.755 647.748,423.32 649.24,425.77 650.732,428.101 652.224,430.312 653.717,432.402 655.209,434.368 656.701,436.21 658.193,437.926 659.685,439.515 661.177,440.975 662.669,442.306 664.161,443.507 665.654,444.578 667.146,445.518 668.638,446.326 670.13,447.003 671.622,447.548 673.114,447.962 674.606,448.244 676.098,448.396 677.591,448.418 679.083,448.31 680.575,448.074 682.067,447.709 683.559,447.218 685.051,446.602 686.543,445.862 688.035,444.999 689.528,444.015 691.02,442.912 692.512,441.692 694.004,440.357 695.496,438.908 696.988,437.349 698.48,435.682 699.972,433.908 701.465,432.031 702.957,430.053 704.449,427.978 705.941,425.807 707.433,423.545 708.925,421.193 710.417,418.756 711.909,416.236 713.402,413.636 714.894,410.961 716.386,408.213 717.878,405.397 719.37,402.515 720.862,399.571 722.354,396.569 723.846,393.513 725.339,390.406 726.831,387.253 728.323,384.056 729.815,380.821 731.307,377.55 732.799,374.248 734.291,370.919 735.783,367.566 737.276,364.194 738.768,360.805 740.26,357.406 741.752,353.998 743.244,350.587 744.736,347.175 746.228,343.767 747.72,340.367 749.213,336.978 750.705,333.604 752.197,330.249 753.689,326.916 755.181,323.609 756.673,320.332 758.165,317.087 759.657,313.88 761.15,310.711 762.642,307.586 764.134,304.507 765.626,301.478 767.118,298.5 768.61,295.578 770.102,292.715 771.594,289.912 773.087,287.172 774.579,284.499 776.071,281.894 777.563,279.361 779.055,276.9 780.547,274.515 782.039,272.207 783.531,269.979 785.024,267.832 786.516,265.768 788.008,263.788 789.5,261.894 790.992,260.087 792.484,258.369 793.976,256.741 795.469,255.203 796.961,253.756 798.453,252.402 799.945,251.141 801.437,249.972 802.929,248.898 804.421,247.917 805.913,247.03 807.406,246.238 808.898,245.539 810.39,244.934 811.882,244.422 813.374,244.003 814.866,243.677 816.358,243.442 817.85,243.297 819.343,243.243 820.835,243.277 822.327,243.399 823.819,243.607 825.311,243.9 826.803,244.277 828.295,244.736 829.787,245.275 831.28,245.892 832.772,246.587 834.264,247.356 835.756,248.198 837.248,249.111 838.74,250.093 840.232,251.141 841.724,252.253 843.217,253.427 844.709,254.66 846.201,255.95 847.693,257.294 849.185,258.69 850.677,260.135 852.169,261.627 853.661,263.162 855.154,264.737 856.646,266.351 858.138,268.001 859.63,269.682 861.122,271.394 862.614,273.132 864.106,274.893 865.598,276.676 867.091,278.477 868.583,280.292 870.075,282.12 871.567,283.957 873.059,285.801 874.551,287.648 876.043,289.496 877.535,291.342 879.028,293.183 880.52,295.016 882.012,296.839 883.504,298.649 884.996,300.443 886.488,302.219 887.98,303.974 889.472,305.706 890.965,307.412 892.457,309.09 893.949,310.737 895.441,312.352 896.933,313.932 898.425,315.475 899.917,316.978 901.409,318.441 902.902,319.861 904.394,321.235 905.886,322.564 907.378,323.844 908.87,325.074 910.362,326.253 911.854,327.38 913.346,328.453 914.839,329.47 916.331,330.431 917.823,331.335 919.315,332.181 920.807,332.968 922.299,333.694 923.791,334.361 925.283,334.966 926.776,335.509 928.268,335.991 929.76,336.411 931.252,336.768 932.744,337.063 934.236,337.296 935.728,337.466 937.22,337.575 938.713,337.621 940.205,337.606 941.697,337.531 943.189,337.395 944.681,337.199 946.173,336.944 947.665,336.632 949.157,336.262 950.65,335.836 952.142,335.355 953.634,334.819 955.126,334.231 956.618,333.592 958.11,332.903 959.602,332.165 961.094,331.379 962.587,330.548 964.079,329.674 965.571,328.756 967.063,327.799 968.555,326.802 970.047,325.769 971.539,324.7 973.031,323.599 974.524,322.466 976.016,321.304 977.508,320.115 979,318.9 980.492,317.663 981.984,316.405 983.476,315.128 984.969,313.834 986.461,312.526 987.953,311.205 989.445,309.875 990.937,308.536 992.429,307.192 993.921,305.844 995.413,304.494 996.906,303.146 998.398,301.8 999.89,300.459 1001.38,299.125 1002.87,297.8 1004.37,296.487 1005.86,295.187 1007.35,293.902 1008.84,292.634 1010.33,291.386 1011.83,290.158 1013.32,288.953 1014.81,287.773 1016.3,286.62 1017.8,285.494 1019.29,284.399 1020.78,283.335 1022.27,282.303 1023.76,281.306 1025.26,280.345 1026.75,279.421 1028.24,278.536 1029.73,277.69 1031.22,276.885 1032.72,276.121 1034.21,275.401 1035.7,274.725 1037.19,274.093 1038.69,273.507 1040.18,272.967 1041.67,272.474 1043.16,272.028 1044.65,271.63 1046.15,271.281 1047.64,270.98 1049.13,270.728 1050.62,270.526 1052.11,270.372 1053.61,270.268 1055.1,270.213 1056.59,270.207 1058.08,270.249 1059.57,270.341 1061.07,270.48 1062.56,270.667 1064.05,270.901 1065.54,271.182 1067.04,271.509 1068.53,271.882 1070.02,272.298 1071.51,272.759 1073,273.262 1074.5,273.806 1075.99,274.392 1077.48,275.016 1078.97,275.68 1080.46,276.38 1081.96,277.116 1083.45,277.887 1084.94,278.691 1086.43,279.527 1087.93,280.393 1089.42,281.288 1090.91,282.21 1092.4,283.157 1093.89,284.129 1095.39,285.123 1096.88,286.137 1098.37,287.171 1099.86,288.221 1101.35,289.288 1102.85,290.367 1104.34,291.459 1105.83,292.561 1107.32,293.671 1108.81,294.787 1110.31,295.908 1111.8,297.032 1113.29,298.157 1114.78,299.28 1116.28,300.402 1117.77,301.518 1119.26,302.629 1120.75,303.731 1122.24,304.824 1123.74,305.905 1125.23,306.973 1126.72,308.026 1128.21,309.062 1129.7,310.081 1131.2,311.079 1132.69,312.056 1134.18,313.01 1135.67,313.94 1137.17,314.845 1138.66,315.722 1140.15,316.57 1141.64,317.389 1143.13,318.177 1144.63,318.933 1146.12,319.655 1147.61,320.343 1149.1,320.996 1150.59,321.612 1152.09,322.191 1153.58,322.732 1155.07,323.234 1156.56,323.697 1158.06,324.119 1159.55,324.501 1161.04,324.841 1162.53,325.139 1164.02,325.396 1165.52,325.61 1167.01,325.781 1168.5,325.91 1169.99,325.996 1171.48,326.038 1172.98,326.038 1174.47,325.995 1175.96,325.91 1177.45,325.782 1178.94,325.612 1180.44,325.4 1181.93,325.147 1183.42,324.853 1184.91,324.519 1186.41,324.146 1187.9,323.734 1189.39,323.283 1190.88,322.795 1192.37,322.271 1193.87,321.712 1195.36,321.118 1196.85,320.49 1198.34,319.83 1199.83,319.139 1201.33,318.417 1202.82,317.667 1204.31,316.89 1205.8,316.086 1207.3,315.257 1208.79,314.405 1210.28,313.53 1211.77,312.635 1213.26,311.721 1214.76,310.79 1216.25,309.842 1217.74,308.88 1219.23,307.905 1220.72,306.919 1222.22,305.923 1223.71,304.919 1225.2,303.908 1226.69,302.893 1228.19,301.875 1229.68,300.855 1231.17,299.836 1232.66,298.818 1234.15,297.804 1235.65,296.795 1237.14,295.793 1238.63,294.8 1240.12,293.816 1241.61,292.845 1243.11,291.886 1244.6,290.942 1246.09,290.014 1247.58,289.104 1249.07,288.213 1250.57,287.343 1252.06,286.494 1253.55,285.669 1255.04,284.869 1256.54,284.095 1258.03,283.347 1259.52,282.628 1261.01,281.939 1262.5,281.28 1264,280.652 1265.49,280.057 1266.98,279.496 1268.47,278.969 1269.96,278.477 1271.46,278.021 1272.95,277.602 1274.44,277.22 1275.93,276.876 1277.43,276.57 1278.92,276.303 1280.41,276.076 1281.9,275.888 1283.39,275.74 1284.89,275.632 1286.38,275.564 1287.87,275.536 1289.36,275.549 1290.85,275.602 1292.35,275.695 1293.84,275.828 1295.33,276.001 1296.82,276.214 1298.31,276.465 1299.81,276.755 1301.3,277.083 1302.79,277.448 1304.28,277.851 1305.78,278.289 1307.27,278.764 1308.76,279.273 1310.25,279.815 1311.74,280.391 1313.24,280.999 1314.73,281.638 1316.22,282.307 1317.71,283.005 1319.2,283.73 1320.7,284.482 1322.19,285.259 1323.68,286.061 1325.17,286.885 1326.67,287.73 1328.16,288.595 1329.65,289.479 1331.14,290.38 1332.63,291.297 1334.13,292.228 1335.62,293.172 1337.11,294.126 1338.6,295.091 1340.09,296.063 1341.59,297.042 1343.08,298.025 1344.57,299.012 1346.06,300 "/>
<polyline clip-path="url(#clip632)" style="stroke:#000000; stroke-linecap:round; stroke-linejoin:round; stroke-width:4; stroke-opacity:1; fill:none" stroke-dasharray="16, 10" points="-1190.55,151.575 2390.55,151.575 "/>
<polyline clip-path="url(#clip632)" style="stroke:#000000; stroke-linecap:round; stroke-linejoin:round; stroke-width:4; stroke-opacity:1; fill:none" stroke-dasharray="16, 10" points="-1190.55,448.425 2390.55,448.425 "/>
<polyline clip-path="url(#clip632)" style="stroke:#800080; stroke-linecap:round; stroke-linejoin:round; stroke-width:4; stroke-opacity:1; fill:none" points="-146.063,300 -144.571,301.034 -143.079,302.067 -141.587,303.096 -140.094,304.12 -138.602,305.138 -137.11,306.147 -135.618,307.146 -134.126,308.134 -132.634,309.109 -131.142,310.069 -129.65,311.012 -128.157,311.938 -126.665,312.845 -125.173,313.731 -123.681,314.594 -122.189,315.434 -120.697,316.249 -119.205,317.038 -117.713,317.799 -116.22,318.531 -114.728,319.233 -113.236,319.904 -111.744,320.543 -110.252,321.149 -108.76,321.72 -107.268,322.256 -105.776,322.756 -104.283,323.219 -102.791,323.644 -101.299,324.031 -99.8071,324.379 -98.315,324.687 -96.8228,324.955 -95.3307,325.182 -93.8386,325.368 -92.3465,325.513 -90.8543,325.616 -89.3622,325.678 -87.8701,325.697 -86.378,325.675 -84.8858,325.611 -83.3937,325.504 -81.9016,325.356 -80.4094,325.166 -78.9173,324.935 -77.4252,324.663 -75.9331,324.351 -74.4409,323.998 -72.9488,323.606 -71.4567,323.175 -69.9646,322.705 -68.4724,322.198 -66.9803,321.654 -65.4882,321.074 -63.9961,320.46 -62.5039,319.811 -61.0118,319.128 -59.5197,318.414 -58.0276,317.669 -56.5354,316.895 -55.0433,316.091 -53.5512,315.261 -52.0591,314.404 -50.5669,313.523 -49.0748,312.619 -47.5827,311.693 -46.0906,310.747 -44.5984,309.781 -43.1063,308.799 -41.6142,307.801 -40.122,306.789 -38.6299,305.764 -37.1378,304.728 -35.6457,303.683 -34.1535,302.631 -32.6614,301.573 -31.1693,300.511 -29.6772,299.446 -28.185,298.38 -26.6929,297.316 -25.2008,296.254 -23.7087,295.197 -22.2165,294.146 -20.7244,293.103 -19.2323,292.069 -17.7402,291.046 -16.248,290.037 -14.7559,289.042 -13.2638,288.063 -11.7717,287.102 -10.2795,286.16 -8.7874,285.24 -7.29528,284.342 -5.80315,283.467 -4.31102,282.618 -2.8189,281.796 -1.32677,281.002 0.165354,280.238 1.65748,279.505 3.14961,278.803 4.64173,278.135 6.13386,277.501 7.62598,276.903 9.11811,276.341 10.6102,275.817 12.1024,275.331 13.5945,274.884 15.0866,274.478 16.5787,274.112 18.0709,273.788 19.563,273.506 21.0551,273.267 22.5472,273.07 24.0394,272.918 25.5315,272.809 27.0236,272.745 28.5157,272.724 30.0079,272.749 31.5,272.818 32.9921,272.931 34.4843,273.089 35.9764,273.291 37.4685,273.538 38.9606,273.828 40.4528,274.162 41.9449,274.539 43.437,274.958 44.9291,275.419 46.4213,275.922 47.9134,276.465 49.4055,277.049 50.8976,277.671 52.3898,278.331 53.8819,279.029 55.374,279.762 56.8661,280.531 58.3583,281.334 59.8504,282.169 61.3425,283.036 62.8346,283.933 64.3268,284.859 65.8189,285.812 67.311,286.791 68.8031,287.795 70.2953,288.821 71.7874,289.869 73.2795,290.937 74.7717,292.022 76.2638,293.124 77.7559,294.24 79.248,295.37 80.7402,296.51 82.2323,297.659 83.7244,298.817 85.2165,299.979 86.7087,301.146 88.2008,302.314 89.6929,303.482 91.185,304.649 92.6772,305.812 94.1693,306.969 95.6614,308.119 97.1535,309.259 98.6457,310.388 100.138,311.504 101.63,312.606 103.122,313.69 104.614,314.756 106.106,315.802 107.598,316.825 109.091,317.825 110.583,318.799 112.075,319.746 113.567,320.665 115.059,321.553 116.551,322.409 118.043,323.232 119.535,324.02 121.028,324.772 122.52,325.486 124.012,326.162 125.504,326.797 126.996,327.391 128.488,327.943 129.98,328.452 131.472,328.916 132.965,329.335 134.457,329.708 135.949,330.034 137.441,330.312 138.933,330.542 140.425,330.723 141.917,330.855 143.409,330.937 144.902,330.969 146.394,330.95 147.886,330.881 149.378,330.762 150.87,330.592 152.362,330.371 153.854,330.1 155.346,329.778 156.839,329.407 158.331,328.986 159.823,328.516 161.315,327.997 162.807,327.431 164.299,326.817 165.791,326.156 167.283,325.45 168.776,324.699 170.268,323.905 171.76,323.068 173.252,322.189 174.744,321.27 176.236,320.311 177.728,319.315 179.22,318.283 180.713,317.216 182.205,316.115 183.697,314.983 185.189,313.821 186.681,312.63 188.173,311.413 189.665,310.171 191.157,308.906 192.65,307.62 194.142,306.315 195.634,304.992 197.126,303.655 198.618,302.304 200.11,300.943 201.602,299.573 203.094,298.196 204.587,296.814 206.079,295.43 207.571,294.046 209.063,292.664 210.555,291.286 212.047,289.915 213.539,288.552 215.031,287.2 216.524,285.861 218.016,284.537 219.508,283.231 221,281.944 222.492,280.679 223.984,279.438 225.476,278.223 226.969,277.037 228.461,275.88 229.953,274.756 231.445,273.665 232.937,272.611 234.429,271.595 235.921,270.618 237.413,269.684 238.906,268.792 240.398,267.946 241.89,267.146 243.382,266.394 244.874,265.692 246.366,265.041 247.858,264.443 249.35,263.898 250.843,263.409 252.335,262.975 253.827,262.599 255.319,262.28 256.811,262.021 258.303,261.822 259.795,261.683 261.287,261.605 262.78,261.589 264.272,261.635 265.764,261.743 267.256,261.915 268.748,262.149 270.24,262.446 271.732,262.806 273.224,263.229 274.717,263.715 276.209,264.263 277.701,264.872 279.193,265.544 280.685,266.276 282.177,267.068 283.669,267.919 285.161,268.829 286.654,269.796 288.146,270.819 289.638,271.898 291.13,273.03 292.622,274.215 294.114,275.451 295.606,276.737 297.098,278.07 298.591,279.449 300.083,280.873 301.575,282.34 303.067,283.847 304.559,285.392 306.051,286.974 307.543,288.591 309.035,290.239 310.528,291.917 312.02,293.622 313.512,295.353 315.004,297.105 316.496,298.878 317.988,300.668 319.48,302.472 320.972,304.289 322.465,306.114 323.957,307.947 325.449,309.783 326.941,311.619 328.433,313.454 329.925,315.284 331.417,317.107 332.909,318.919 334.402,320.717 335.894,322.499 337.386,324.261 338.878,326.001 340.37,327.716 341.862,329.403 343.354,331.059 344.846,332.681 346.339,334.266 347.831,335.812 349.323,337.316 350.815,338.774 352.307,340.185 353.799,341.546 355.291,342.853 356.783,344.105 358.276,345.299 359.768,346.432 361.26,347.502 362.752,348.506 364.244,349.444 365.736,350.311 367.228,351.106 368.72,351.828 370.213,352.474 371.705,353.041 373.197,353.53 374.689,353.937 376.181,354.261 377.673,354.501 379.165,354.655 380.657,354.723 382.15,354.702 383.642,354.592 385.134,354.391 386.626,354.1 388.118,353.716 389.61,353.241 391.102,352.672 392.594,352.01 394.087,351.254 395.579,350.404 397.071,349.461 398.563,348.423 400.055,347.292 401.547,346.068 403.039,344.752 404.531,343.343 406.024,341.842 407.516,340.251 409.008,338.57 410.5,336.8 411.992,334.943 413.484,333 414.976,330.973 416.469,328.862 417.961,326.669 419.453,324.397 420.945,322.047 422.437,319.621 423.929,317.122 425.421,314.551 426.913,311.912 428.406,309.205 429.898,306.435 431.39,303.603 432.882,300.713 434.374,297.766 435.866,294.767 437.358,291.718 438.85,288.622 440.343,285.482 441.835,282.302 443.327,279.085 444.819,275.835 446.311,272.554 447.803,269.246 449.295,265.916 450.787,262.566 452.28,259.2 453.772,255.823 455.264,252.437 456.756,249.046 458.248,245.655 459.74,242.267 461.232,238.887 462.724,235.517 464.217,232.163 465.709,228.827 467.201,225.514 468.693,222.228 470.185,218.972 471.677,215.751 473.169,212.569 474.661,209.428 476.154,206.334 477.646,203.29 479.138,200.3 480.63,197.367 482.122,194.495 483.614,191.688 485.106,188.949 486.598,186.283 488.091,183.691 489.583,181.179 491.075,178.748 492.567,176.403 494.059,174.146 495.551,171.981 497.043,169.911 498.535,167.938 500.028,166.065 501.52,164.296 503.012,162.632 504.504,161.076 505.996,159.63 507.488,158.297 508.98,157.079 510.472,155.979 511.965,154.996 513.457,154.135 514.949,153.396 516.441,152.78 517.933,152.29 519.425,151.926 520.917,151.69 522.409,151.582 523.902,151.604 525.394,151.755 526.886,152.038 528.378,152.451 529.87,152.996 531.362,153.672 532.854,154.48 534.346,155.419 535.839,156.489 537.331,157.689 538.823,159.019 540.315,160.479 541.807,162.067 543.299,163.782 544.791,165.623 546.283,167.588 547.776,169.677 549.268,171.888 550.76,174.218 552.252,176.667 553.744,179.231 555.236,181.91 556.728,184.7 558.22,187.599 559.713,190.605 561.205,193.715 562.697,196.926 564.189,200.235 565.681,203.64 567.173,207.137 568.665,210.724 570.157,214.396 571.65,218.15 573.142,221.983 574.634,225.891 576.126,229.871 577.618,233.918 579.11,238.03 580.602,242.201 582.094,246.429 583.587,250.708 585.079,255.035 586.571,259.406 588.063,263.817 589.555,268.262 591.047,272.739 592.539,277.241 594.031,281.767 595.524,286.309 597.016,290.865 598.508,295.431 600,300 601.492,304.569 602.984,309.135 604.476,313.691 605.969,318.233 607.461,322.759 608.953,327.261 610.445,331.738 611.937,336.183 613.429,340.594 614.921,344.965 616.413,349.292 617.906,353.571 619.398,357.799 620.89,361.97 622.382,366.082 623.874,370.129 625.366,374.109 626.858,378.017 628.35,381.85 629.843,385.604 631.335,389.276 632.827,392.863 634.319,396.36 635.811,399.765 637.303,403.074 638.795,406.285 640.287,409.395 641.78,412.401 643.272,415.3 644.764,418.09 646.256,420.769 647.748,423.333 649.24,425.782 650.732,428.112 652.224,430.323 653.717,432.412 655.209,434.377 656.701,436.218 658.193,437.933 659.685,439.521 661.177,440.981 662.669,442.311 664.161,443.511 665.654,444.581 667.146,445.52 668.638,446.328 670.13,447.004 671.622,447.549 673.114,447.962 674.606,448.245 676.098,448.396 677.591,448.418 679.083,448.31 680.575,448.074 682.067,447.71 683.559,447.22 685.051,446.604 686.543,445.865 688.035,445.004 689.528,444.021 691.02,442.921 692.512,441.703 694.004,440.37 695.496,438.924 696.988,437.368 698.48,435.704 699.972,433.935 701.465,432.062 702.957,430.089 704.449,428.019 705.941,425.854 707.433,423.597 708.925,421.252 710.417,418.821 711.909,416.309 713.402,413.717 714.894,411.051 716.386,408.312 717.878,405.505 719.37,402.633 720.862,399.7 722.354,396.71 723.846,393.666 725.339,390.572 726.831,387.431 728.323,384.249 729.815,381.028 731.307,377.772 732.799,374.486 734.291,371.173 735.783,367.837 737.276,364.483 738.768,361.113 740.26,357.733 741.752,354.345 743.244,350.954 744.736,347.563 746.228,344.177 747.72,340.8 749.213,337.434 750.705,334.084 752.197,330.754 753.689,327.446 755.181,324.165 756.673,320.915 758.165,317.698 759.657,314.518 761.15,311.378 762.642,308.282 764.134,305.233 765.626,302.234 767.118,299.287 768.61,296.397 770.102,293.565 771.594,290.795 773.087,288.088 774.579,285.449 776.071,282.878 777.563,280.379 779.055,277.953 780.547,275.603 782.039,273.331 783.531,271.138 785.024,269.027 786.516,267 788.008,265.057 789.5,263.2 790.992,261.43 792.484,259.749 793.976,258.158 795.469,256.657 796.961,255.248 798.453,253.932 799.945,252.708 801.437,251.577 802.929,250.539 804.421,249.596 805.913,248.746 807.406,247.99 808.898,247.328 810.39,246.759 811.882,246.284 813.374,245.9 814.866,245.609 816.358,245.408 817.85,245.298 819.343,245.277 820.835,245.345 822.327,245.499 823.819,245.739 825.311,246.063 826.803,246.47 828.295,246.959 829.787,247.526 831.28,248.172 832.772,248.894 834.264,249.689 835.756,250.556 837.248,251.494 838.74,252.498 840.232,253.568 841.724,254.701 843.217,255.895 844.709,257.147 846.201,258.454 847.693,259.815 849.185,261.226 850.677,262.684 852.169,264.188 853.661,265.734 855.154,267.319 856.646,268.941 858.138,270.597 859.63,272.284 861.122,273.999 862.614,275.739 864.106,277.501 865.598,279.283 867.091,281.081 868.583,282.893 870.075,284.716 871.567,286.546 873.059,288.381 874.551,290.217 876.043,292.053 877.535,293.886 879.028,295.711 880.52,297.528 882.012,299.332 883.504,301.122 884.996,302.895 886.488,304.647 887.98,306.378 889.472,308.083 890.965,309.761 892.457,311.409 893.949,313.026 895.441,314.608 896.933,316.153 898.425,317.66 899.917,319.127 901.409,320.551 902.902,321.93 904.394,323.263 905.886,324.549 907.378,325.785 908.87,326.97 910.362,328.102 911.854,329.181 913.346,330.204 914.839,331.171 916.331,332.081 917.823,332.932 919.315,333.724 920.807,334.456 922.299,335.128 923.791,335.737 925.283,336.285 926.776,336.771 928.268,337.194 929.76,337.554 931.252,337.851 932.744,338.085 934.236,338.257 935.728,338.365 937.22,338.411 938.713,338.395 940.205,338.317 941.697,338.178 943.189,337.979 944.681,337.72 946.173,337.401 947.665,337.025 949.157,336.591 950.65,336.102 952.142,335.557 953.634,334.959 955.126,334.308 956.618,333.606 958.11,332.854 959.602,332.054 961.094,331.208 962.587,330.316 964.079,329.382 965.571,328.405 967.063,327.389 968.555,326.335 970.047,325.244 971.539,324.12 973.031,322.963 974.524,321.777 976.016,320.562 977.508,319.321 979,318.056 980.492,316.769 981.984,315.463 983.476,314.139 984.969,312.8 986.461,311.448 987.953,310.085 989.445,308.714 990.937,307.336 992.429,305.954 993.921,304.57 995.413,303.186 996.906,301.804 998.398,300.427 999.89,299.057 1001.38,297.696 1002.87,296.345 1004.37,295.008 1005.86,293.685 1007.35,292.38 1008.84,291.094 1010.33,289.829 1011.83,288.587 1013.32,287.37 1014.81,286.179 1016.3,285.017 1017.8,283.885 1019.29,282.784 1020.78,281.717 1022.27,280.685 1023.76,279.689 1025.26,278.73 1026.75,277.811 1028.24,276.932 1029.73,276.095 1031.22,275.301 1032.72,274.55 1034.21,273.844 1035.7,273.183 1037.19,272.569 1038.69,272.003 1040.18,271.484 1041.67,271.014 1043.16,270.593 1044.65,270.222 1046.15,269.9 1047.64,269.629 1049.13,269.408 1050.62,269.238 1052.11,269.119 1053.61,269.05 1055.1,269.031 1056.59,269.063 1058.08,269.145 1059.57,269.277 1061.07,269.458 1062.56,269.688 1064.05,269.966 1065.54,270.292 1067.04,270.665 1068.53,271.084 1070.02,271.548 1071.51,272.057 1073,272.609 1074.5,273.203 1075.99,273.838 1077.48,274.514 1078.97,275.228 1080.46,275.98 1081.96,276.768 1083.45,277.591 1084.94,278.447 1086.43,279.335 1087.93,280.254 1089.42,281.201 1090.91,282.175 1092.4,283.175 1093.89,284.198 1095.39,285.244 1096.88,286.31 1098.37,287.394 1099.86,288.496 1101.35,289.612 1102.85,290.741 1104.34,291.881 1105.83,293.031 1107.32,294.188 1108.81,295.351 1110.31,296.518 1111.8,297.686 1113.29,298.854 1114.78,300.021 1116.28,301.183 1117.77,302.341 1119.26,303.49 1120.75,304.63 1122.24,305.76 1123.74,306.876 1125.23,307.978 1126.72,309.063 1128.21,310.131 1129.7,311.179 1131.2,312.205 1132.69,313.209 1134.18,314.188 1135.67,315.141 1137.17,316.067 1138.66,316.964 1140.15,317.831 1141.64,318.666 1143.13,319.469 1144.63,320.238 1146.12,320.971 1147.61,321.669 1149.1,322.329 1150.59,322.951 1152.09,323.535 1153.58,324.078 1155.07,324.581 1156.56,325.042 1158.06,325.461 1159.55,325.838 1161.04,326.172 1162.53,326.462 1164.02,326.709 1165.52,326.911 1167.01,327.069 1168.5,327.182 1169.99,327.251 1171.48,327.276 1172.98,327.255 1174.47,327.191 1175.96,327.082 1177.45,326.93 1178.94,326.733 1180.44,326.494 1181.93,326.212 1183.42,325.888 1184.91,325.522 1186.41,325.116 1187.9,324.669 1189.39,324.183 1190.88,323.659 1192.37,323.097 1193.87,322.499 1195.36,321.865 1196.85,321.197 1198.34,320.495 1199.83,319.762 1201.33,318.998 1202.82,318.204 1204.31,317.382 1205.8,316.533 1207.3,315.658 1208.79,314.76 1210.28,313.84 1211.77,312.898 1213.26,311.937 1214.76,310.958 1216.25,309.963 1217.74,308.954 1219.23,307.931 1220.72,306.897 1222.22,305.854 1223.71,304.803 1225.2,303.746 1226.69,302.684 1228.19,301.62 1229.68,300.554 1231.17,299.489 1232.66,298.427 1234.15,297.369 1235.65,296.317 1237.14,295.272 1238.63,294.236 1240.12,293.211 1241.61,292.199 1243.11,291.201 1244.6,290.219 1246.09,289.253 1247.58,288.307 1249.07,287.381 1250.57,286.477 1252.06,285.596 1253.55,284.739 1255.04,283.909 1256.54,283.105 1258.03,282.331 1259.52,281.586 1261.01,280.872 1262.5,280.189 1264,279.54 1265.49,278.926 1266.98,278.346 1268.47,277.802 1269.96,277.295 1271.46,276.825 1272.95,276.394 1274.44,276.002 1275.93,275.649 1277.43,275.337 1278.92,275.065 1280.41,274.834 1281.9,274.644 1283.39,274.496 1284.89,274.389 1286.38,274.325 1287.87,274.303 1289.36,274.322 1290.85,274.384 1292.35,274.487 1293.84,274.632 1295.33,274.818 1296.82,275.045 1298.31,275.313 1299.81,275.621 1301.3,275.969 1302.79,276.356 1304.28,276.781 1305.78,277.244 1307.27,277.744 1308.76,278.28 1310.25,278.851 1311.74,279.457 1313.24,280.096 1314.73,280.767 1316.22,281.469 1317.71,282.201 1319.2,282.962 1320.7,283.751 1322.19,284.566 1323.68,285.406 1325.17,286.269 1326.67,287.155 1328.16,288.062 1329.65,288.988 1331.14,289.931 1332.63,290.891 1334.13,291.866 1335.62,292.854 1337.11,293.853 1338.6,294.862 1340.09,295.88 1341.59,296.904 1343.08,297.933 1344.57,298.966 1346.06,300 "/>
<path clip-path="url(#clip630)" d="M42.9396 333.98 L246.53 333.98 L246.53 22.9396 L42.9396 22.9396  Z" fill="#ffffff" fill-rule="evenodd" fill-opacity="1"/>
<polyline clip-path="url(#clip630)" style="stroke:#000000; stroke-linecap:round; stroke-linejoin:round; stroke-width:4; stroke-opacity:1; fill:none" points="42.9396,333.98 246.53,333.98 246.53,22.9396 42.9396,22.9396 42.9396,333.98 "/>
<circle clip-path="url(#clip630)" cx="95.993" cy="100.7" r="34.56" fill="#000000" fill-rule="evenodd" fill-opacity="1" stroke="none"/>
<path clip-path="url(#clip630)" d="M188.045 87.9465 Q187.131 92.4787 185.902 95.0786 Q183.934 99.0487 180.561 99.0487 Q178.172 99.0487 176.345 97.6082 Q174.553 96.1678 174.097 93.7787 Q173.183 94.8678 172.516 95.5002 Q171.883 96.1326 170.618 97.1164 Q169.389 98.065 167.843 98.5569 Q166.297 99.0487 164.54 99.0487 Q160.254 99.0487 157.549 96.8002 Q153.895 111.521 153.579 112.259 Q152.56 113.77 151.084 113.77 Q150.171 113.77 149.609 113.208 Q149.046 112.681 149.046 111.837 Q149.082 111.556 149.292 110.678 L159.622 69.0446 Q159.903 67.9203 160.605 67.2879 Q161.343 66.6203 161.765 66.5501 Q162.186 66.4447 162.503 66.4447 Q163.451 66.4447 164.013 66.9717 Q164.611 67.4636 164.611 68.377 Q164.611 68.5176 164.4 69.3256 Q164.224 70.0986 163.943 71.2931 Q163.662 72.4525 163.521 72.9795 L160.5 85.0655 Q159.481 89.2113 159.481 91.1788 Q159.481 94.1651 160.816 95.8164 Q162.186 97.4326 164.821 97.4326 Q166.473 97.4326 168.019 96.765 Q169.564 96.0624 170.618 95.1138 Q171.672 94.1651 172.516 93.1463 Q173.359 92.0923 173.745 91.4247 Q174.132 90.722 174.167 90.5464 L176.029 83.2034 L179.437 69.7472 Q179.648 68.904 180.034 68.3419 Q180.456 67.7446 180.948 67.5338 Q181.44 67.323 181.721 67.2879 Q182.002 67.2176 182.248 67.2176 Q183.126 67.2176 183.723 67.7446 Q184.321 68.2716 184.321 69.1851 Q184.321 69.3608 184.11 70.204 Q183.934 71.0121 183.653 72.2066 Q183.372 73.366 183.231 73.9984 Q182.107 78.4253 182.002 78.882 L179.999 86.6465 Q179.894 87.1033 179.542 88.5789 Q179.226 90.0545 179.051 90.8274 Q178.875 91.5653 178.699 92.5841 Q178.559 93.5679 178.559 94.13 Q178.559 97.4326 180.737 97.4326 Q181.58 97.4326 182.318 96.9407 Q183.056 96.4137 183.548 95.6759 Q184.075 94.9381 184.567 93.6733 Q185.094 92.3733 185.41 91.3193 Q185.726 90.2302 186.183 88.5438 Q186.358 87.7357 186.534 87.4897 Q186.71 87.2438 187.202 87.2438 Q188.045 87.2438 188.045 87.9465 Z" fill="#000000" fill-rule="nonzero" fill-opacity="1" /><path clip-path="url(#clip630)" d="M195.351 117.448 Q195.351 110.046 197.22 106.012 Q199.827 100.011 205.976 100.011 Q207.279 100.011 208.632 100.38 Q210.009 100.725 211.731 102.077 Q213.477 103.43 214.534 105.643 Q216.551 109.923 216.551 117.448 Q216.551 124.802 214.682 128.81 Q211.952 134.664 205.927 134.664 Q203.664 134.664 201.352 133.508 Q199.065 132.352 197.614 129.573 Q195.351 125.417 195.351 117.448 M199.532 116.833 Q199.532 124.433 200.073 127.458 Q200.688 130.729 202.361 132.155 Q204.057 133.557 205.927 133.557 Q207.943 133.557 209.616 132.057 Q211.313 130.532 211.829 127.261 Q212.395 124.039 212.37 116.833 Q212.37 109.824 211.878 107.021 Q211.214 103.75 209.443 102.446 Q207.697 101.118 205.927 101.118 Q205.263 101.118 204.549 101.315 Q203.861 101.512 202.852 102.077 Q201.844 102.643 201.057 104.045 Q200.295 105.447 199.926 107.562 Q199.532 110.292 199.532 116.833 Z" fill="#000000" fill-rule="nonzero" fill-opacity="1" /><polyline clip-path="url(#clip630)" style="stroke:#008000; stroke-linecap:round; stroke-linejoin:round; stroke-width:6; stroke-opacity:1; fill:none" points="56.203,178.46 135.783,178.46 "/>
<path clip-path="url(#clip630)" d="M182.669 151.643 Q182.669 153.611 182.072 155.824 L173.886 188.393 Q173.148 191.274 170.935 191.274 Q170.021 191.274 169.459 190.712 Q168.932 190.185 168.932 189.341 Q168.932 189.06 169.143 188.182 L177.329 155.086 Q178.067 152.065 178.067 150.554 Q178.067 145.53 174.167 145.53 Q170.724 145.53 167.281 148.059 Q165.7 149.324 164.154 151.608 Q162.643 153.856 162.362 154.665 Q162.046 156.491 161.589 157.897 Q161.378 158.881 160.359 162.71 L158.778 169.21 Q157.654 174.058 157.408 174.515 Q157.057 175.499 156.284 176.026 Q155.511 176.553 154.738 176.553 Q153.86 176.553 153.262 176.026 Q152.665 175.499 152.665 174.585 Q152.665 174.445 152.771 173.918 Q152.876 173.391 153.052 172.653 Q153.227 171.915 153.298 171.494 L157.478 154.875 Q158.251 151.854 158.427 150.905 Q158.638 149.921 158.638 148.832 Q158.638 146.935 158.041 146.232 Q157.443 145.53 156.389 145.53 Q154.562 145.53 153.368 147.708 Q152.173 149.886 151.154 154.102 Q150.838 155.262 150.627 155.508 Q150.452 155.754 149.925 155.754 Q149.046 155.719 149.046 155.016 Q149.046 154.84 149.327 153.716 Q149.609 152.556 150.136 150.87 Q150.698 149.149 151.295 148.059 Q151.646 147.322 151.962 146.83 Q152.279 146.338 152.911 145.565 Q153.543 144.792 154.492 144.37 Q155.441 143.949 156.6 143.949 Q159.165 143.949 161.062 145.6 Q162.994 147.251 163.24 150.203 Q163.978 149.113 164.927 148.13 Q165.911 147.146 167.281 146.162 Q168.651 145.143 170.513 144.546 Q172.375 143.949 174.378 143.949 Q178.383 143.949 180.526 146.022 Q182.669 148.059 182.669 151.643 Z" fill="#000000" fill-rule="nonzero" fill-opacity="1" /><path clip-path="url(#clip630)" d="M225.93 177.781 Q225.881 178.691 225.266 178.741 Q224.331 178.79 223.766 178.913 Q223.2 179.011 222.315 179.38 Q221.429 179.749 220.568 180.634 Q219.708 181.52 218.822 182.921 L200.697 211.77 Q200.377 212.311 200.107 212.483 Q199.861 212.68 199.295 212.68 Q198.779 212.68 198.582 212.458 Q198.385 212.262 198.287 211.524 L194.303 180.438 Q194.229 179.872 194.155 179.626 Q194.081 179.38 193.786 179.134 Q193.516 178.888 192.925 178.814 Q192.335 178.741 191.278 178.741 Q190.786 178.741 190.564 178.716 Q190.368 178.691 190.195 178.568 Q190.023 178.421 190.023 178.126 Q190.023 177.683 190.195 177.462 Q190.392 177.216 190.54 177.191 Q190.712 177.167 190.982 177.167 Q191.4 177.167 192.31 177.216 Q193.22 177.265 193.688 177.265 Q194.13 177.265 195.065 177.29 Q195.999 177.314 196.467 177.314 Q197.5 177.314 199.59 177.24 Q201.705 177.167 202.714 177.167 Q203.402 177.167 203.402 177.732 Q203.402 178.421 203.107 178.593 Q202.812 178.741 202.148 178.741 Q200.476 178.741 199.566 179.159 Q198.68 179.577 198.68 180.241 L202.099 206.9 L217.568 182.307 Q218.33 181.151 218.33 180.388 Q218.33 178.913 215.994 178.741 Q215.207 178.741 215.207 178.126 Q215.207 177.683 215.404 177.462 Q215.601 177.216 215.748 177.191 Q215.92 177.167 216.166 177.167 Q216.978 177.167 218.626 177.24 Q220.298 177.314 221.134 177.314 Q221.823 177.314 223.225 177.24 Q224.626 177.167 225.266 177.167 Q225.93 177.167 225.93 177.781 Z" fill="#000000" fill-rule="nonzero" fill-opacity="1" /><polyline clip-path="url(#clip630)" style="stroke:#800080; stroke-linecap:round; stroke-linejoin:round; stroke-width:6; stroke-opacity:1; fill:none" points="56.203,256.22 135.783,256.22 "/>
<path clip-path="url(#clip630)" d="M182.669 229.659 Q182.669 231.626 182.072 233.84 L173.886 266.409 Q173.148 269.29 170.935 269.29 Q170.021 269.29 169.459 268.728 Q168.932 268.201 168.932 267.357 Q168.932 267.076 169.143 266.198 L177.329 233.102 Q178.067 230.081 178.067 228.57 Q178.067 223.546 174.167 223.546 Q170.724 223.546 167.281 226.075 Q165.7 227.34 164.154 229.624 Q162.643 231.872 162.362 232.68 Q162.046 234.507 161.589 235.913 Q161.378 236.896 160.359 240.726 L158.778 247.226 Q157.654 252.074 157.408 252.531 Q157.057 253.515 156.284 254.042 Q155.511 254.569 154.738 254.569 Q153.86 254.569 153.262 254.042 Q152.665 253.515 152.665 252.601 Q152.665 252.461 152.771 251.934 Q152.876 251.407 153.052 250.669 Q153.227 249.931 153.298 249.509 L157.478 232.891 Q158.251 229.87 158.427 228.921 Q158.638 227.937 158.638 226.848 Q158.638 224.951 158.041 224.248 Q157.443 223.546 156.389 223.546 Q154.562 223.546 153.368 225.724 Q152.173 227.902 151.154 232.118 Q150.838 233.278 150.627 233.524 Q150.452 233.77 149.925 233.77 Q149.046 233.734 149.046 233.032 Q149.046 232.856 149.327 231.732 Q149.609 230.572 150.136 228.886 Q150.698 227.164 151.295 226.075 Q151.646 225.338 151.962 224.846 Q152.279 224.354 152.911 223.581 Q153.543 222.808 154.492 222.386 Q155.441 221.965 156.6 221.965 Q159.165 221.965 161.062 223.616 Q162.994 225.267 163.24 228.218 Q163.978 227.129 164.927 226.146 Q165.911 225.162 167.281 224.178 Q168.651 223.159 170.513 222.562 Q172.375 221.965 174.378 221.965 Q178.383 221.965 180.526 224.038 Q182.669 226.075 182.669 229.659 Z" fill="#000000" fill-rule="nonzero" fill-opacity="1" /><path clip-path="url(#clip630)" d="M190.023 272.968 Q190.023 265.566 191.892 261.532 Q194.499 255.531 200.648 255.531 Q201.951 255.531 203.304 255.9 Q204.681 256.245 206.403 257.597 Q208.149 258.95 209.206 261.163 Q211.223 265.443 211.223 272.968 Q211.223 280.322 209.354 284.33 Q206.624 290.184 200.598 290.184 Q198.336 290.184 196.024 289.028 Q193.737 287.872 192.286 285.093 Q190.023 280.937 190.023 272.968 M194.204 272.353 Q194.204 279.953 194.745 282.978 Q195.36 286.249 197.032 287.675 Q198.729 289.077 200.598 289.077 Q202.615 289.077 204.288 287.577 Q205.984 286.052 206.501 282.781 Q207.067 279.559 207.042 272.353 Q207.042 265.344 206.55 262.541 Q205.886 259.27 204.115 257.966 Q202.369 256.638 200.598 256.638 Q199.934 256.638 199.221 256.835 Q198.533 257.032 197.524 257.597 Q196.516 258.163 195.729 259.565 Q194.967 260.967 194.598 263.082 Q194.204 265.812 194.204 272.353 Z" fill="#000000" fill-rule="nonzero" fill-opacity="1" /></svg>
