<?xml version="1.0" encoding="utf-8"?>
<svg xmlns="http://www.w3.org/2000/svg" xmlns:xlink="http://www.w3.org/1999/xlink" width="300" height="150" viewBox="0 0 1200 600">
<defs>
  <clipPath id="clip270">
    <rect x="0" y="0" width="1200" height="600"/>
  </clipPath>
</defs>
<path clip-path="url(#clip270)" d="M0 600 L1200 600 L1200 0 L0 0  Z" fill="#ffffff" fill-rule="evenodd" fill-opacity="1"/>
<defs>
  <clipPath id="clip271">
    <rect x="240" y="0" width="841" height="600"/>
  </clipPath>
</defs>
<path clip-path="url(#clip270)" d="M3.14961 596.85 L1196.85 596.85 L1196.85 3.14961 L3.14961 3.14961  Z" fill="#ffffff" fill-rule="evenodd" fill-opacity="1"/>
<defs>
  <clipPath id="clip272">
    <rect x="3" y="3" width="1195" height="595"/>
  </clipPath>
</defs>
<polyline clip-path="url(#clip270)" style="stroke:#000000; stroke-linecap:round; stroke-linejoin:round; stroke-width:4; stroke-opacity:1; fill:none" points="3.14961,596.85 1196.85,596.85 "/>
<polyline clip-path="url(#clip270)" style="stroke:#000000; stroke-linecap:round; stroke-linejoin:round; stroke-width:4; stroke-opacity:1; fill:none" points="3.14961,3.14961 1196.85,3.14961 "/>
<polyline clip-path="url(#clip270)" style="stroke:#000000; stroke-linecap:round; stroke-linejoin:round; stroke-width:4; stroke-opacity:1; fill:none" points="3.14961,596.85 3.14961,3.14961 "/>
<polyline clip-path="url(#clip270)" style="stroke:#000000; stroke-linecap:round; stroke-linejoin:round; stroke-width:4; stroke-opacity:1; fill:none" points="1196.85,596.85 1196.85,3.14961 "/>
<polyline clip-path="url(#clip272)" style="stroke:#000000; stroke-linecap:round; stroke-linejoin:round; stroke-width:4; stroke-opacity:1; fill:none" points="-1190.55,300 2390.55,300 "/>
<circle clip-path="url(#clip272)" cx="540.315" cy="151.575" r="25.2" fill="#000000" fill-rule="evenodd" fill-opacity="1" stroke="none"/>
<circle clip-path="url(#clip272)" cx="659.685" cy="448.425" r="25.2" fill="#000000" fill-rule="evenodd" fill-opacity="1" stroke="none"/>
<polyline clip-path="url(#clip272)" style="stroke:#000000; stroke-linecap:round; stroke-linejoin:round; stroke-width:4; stroke-opacity:1; fill:none" stroke-dasharray="16, 10" points="540.315,300 540.315,151.575 "/>
<polyline clip-path="url(#clip272)" style="stroke:#000000; stroke-linecap:round; stroke-linejoin:round; stroke-width:4; stroke-opacity:1; fill:none" stroke-dasharray="16, 10" points="659.685,300 659.685,448.425 "/>
<polyline clip-path="url(#clip272)" style="stroke:#008000; stroke-linecap:round; stroke-linejoin:round; stroke-width:4; stroke-opacity:1; fill:none" points="-146.063,300 -144.571,303.633 -143.079,307.261 -141.587,310.878 -140.094,314.477 -138.602,318.054 -137.11,321.602 -135.618,325.117 -134.126,328.592 -132.634,332.023 -131.142,335.403 -129.65,338.729 -128.157,341.993 -126.665,345.192 -125.173,348.319 -123.681,351.371 -122.189,354.343 -120.697,357.229 -119.205,360.026 -117.713,362.729 -116.22,365.333 -114.728,367.835 -113.236,370.23 -111.744,372.515 -110.252,374.686 -108.76,376.74 -107.268,378.673 -105.776,380.483 -104.283,382.166 -102.791,383.72 -101.299,385.142 -99.8071,386.43 -98.315,387.581 -96.8228,388.595 -95.3307,389.469 -93.8386,390.202 -92.3465,390.793 -90.8543,391.24 -89.3622,391.543 -87.8701,391.701 -86.378,391.714 -84.8858,391.582 -83.3937,391.304 -81.9016,390.882 -80.4094,390.315 -78.9173,389.605 -77.4252,388.752 -75.9331,387.758 -74.4409,386.624 -72.9488,385.352 -71.4567,383.944 -69.9646,382.401 -68.4724,380.726 -66.9803,378.921 -65.4882,376.99 -63.9961,374.934 -62.5039,372.758 -61.0118,370.464 -59.5197,368.056 -58.0276,365.537 -56.5354,362.912 -55.0433,360.184 -53.5512,357.357 -52.0591,354.436 -50.5669,351.425 -49.0748,348.329 -47.5827,345.153 -46.0906,341.901 -44.5984,338.578 -43.1063,335.189 -41.6142,331.741 -40.122,328.237 -38.6299,324.683 -37.1378,321.085 -35.6457,317.449 -34.1535,313.78 -32.6614,310.083 -31.1693,306.365 -29.6772,302.63 -28.185,298.886 -26.6929,295.138 -25.2008,291.391 -23.7087,287.651 -22.2165,283.925 -20.7244,280.218 -19.2323,276.536 -17.7402,272.885 -16.248,269.27 -14.7559,265.698 -13.2638,262.173 -11.7717,258.701 -10.2795,255.289 -8.7874,251.941 -7.29528,248.662 -5.80315,245.458 -4.31102,242.334 -2.8189,239.295 -1.32677,236.346 0.165354,233.492 1.65748,230.737 3.14961,228.086 4.64173,225.542 6.13386,223.111 7.62598,220.797 9.11811,218.602 10.6102,216.531 12.1024,214.587 13.5945,212.773 15.0866,211.093 16.5787,209.55 18.0709,208.146 19.563,206.883 21.0551,205.764 22.5472,204.791 24.0394,203.966 25.5315,203.29 27.0236,202.765 28.5157,202.392 30.0079,202.172 31.5,202.105 32.9921,202.192 34.4843,202.434 35.9764,202.829 37.4685,203.379 38.9606,204.082 40.4528,204.938 41.9449,205.946 43.437,207.104 44.9291,208.411 46.4213,209.866 47.9134,211.467 49.4055,213.211 50.8976,215.096 52.3898,217.12 53.8819,219.28 55.374,221.573 56.8661,223.996 58.3583,226.545 59.8504,229.217 61.3425,232.008 62.8346,234.913 64.3268,237.93 65.8189,241.053 67.311,244.277 68.8031,247.6 70.2953,251.014 71.7874,254.516 73.2795,258.1 74.7717,261.761 76.2638,265.493 77.7559,269.292 79.248,273.151 80.7402,277.064 82.2323,281.026 83.7244,285.031 85.2165,289.072 86.7087,293.145 88.2008,297.241 89.6929,301.356 91.185,305.483 92.6772,309.615 94.1693,313.747 95.6614,317.871 97.1535,321.982 98.6457,326.074 100.138,330.139 101.63,334.172 103.122,338.166 104.614,342.115 106.106,346.013 107.598,349.854 109.091,353.631 110.583,357.339 112.075,360.971 113.567,364.522 115.059,367.986 116.551,371.358 118.043,374.631 119.535,377.802 121.028,380.863 122.52,383.811 124.012,386.64 125.504,389.346 126.996,391.924 128.488,394.37 129.98,396.679 131.472,398.847 132.965,400.871 134.457,402.747 135.949,404.471 137.441,406.041 138.933,407.452 140.425,408.703 141.917,409.791 143.409,410.714 144.902,411.469 146.394,412.054 147.886,412.469 149.378,412.712 150.87,412.781 152.362,412.676 153.854,412.396 155.346,411.942 156.839,411.312 158.331,410.507 159.823,409.528 161.315,408.376 162.807,407.05 164.299,405.553 165.791,403.886 167.283,402.051 168.776,400.05 170.268,397.885 171.76,395.558 173.252,393.073 174.744,390.432 176.236,387.638 177.728,384.696 179.22,381.609 180.713,378.38 182.205,375.015 183.697,371.516 185.189,367.89 186.681,364.14 188.173,360.273 189.665,356.292 191.157,352.203 192.65,348.013 194.142,343.726 195.634,339.349 197.126,334.887 198.618,330.348 200.11,325.737 201.602,321.06 203.094,316.325 204.587,311.538 206.079,306.706 207.571,301.835 209.063,296.934 210.555,292.009 212.047,287.066 213.539,282.114 215.031,277.16 216.524,272.21 218.016,267.273 219.508,262.355 221,257.464 222.492,252.607 223.984,247.792 225.476,243.025 226.969,238.315 228.461,233.667 229.953,229.091 231.445,224.591 232.937,220.177 234.429,215.854 235.921,211.629 237.413,207.509 238.906,203.5 240.398,199.61 241.89,195.844 243.382,192.208 244.874,188.709 246.366,185.353 247.858,182.145 249.35,179.09 250.843,176.195 252.335,173.464 253.827,170.901 255.319,168.513 256.811,166.303 258.303,164.275 259.795,162.434 261.287,160.783 262.78,159.326 264.272,158.066 265.764,157.007 267.256,156.151 268.748,155.5 270.24,155.056 271.732,154.823 273.224,154.801 274.717,154.992 276.209,155.396 277.701,156.016 279.193,156.85 280.685,157.901 282.177,159.166 283.669,160.647 285.161,162.343 286.654,164.252 288.146,166.373 289.638,168.706 291.13,171.247 292.622,173.996 294.114,176.949 295.606,180.105 297.098,183.459 298.591,187.009 300.083,190.752 301.575,194.684 303.067,198.8 304.559,203.096 306.051,207.568 307.543,212.211 309.035,217.021 310.528,221.991 312.02,227.116 313.512,232.39 315.004,237.808 316.496,243.364 317.988,249.05 319.48,254.861 320.972,260.79 322.465,266.829 323.957,272.972 325.449,279.212 326.941,285.54 328.433,291.95 329.925,298.434 331.417,304.983 332.909,311.591 334.402,318.249 335.894,324.949 337.386,331.683 338.878,338.442 340.37,345.219 341.862,352.005 343.354,358.791 344.846,365.569 346.339,372.331 347.831,379.068 349.323,385.773 350.815,392.435 352.307,399.048 353.799,405.603 355.291,412.091 356.783,418.505 358.276,424.836 359.768,431.077 361.26,437.218 362.752,443.253 364.244,449.174 365.736,454.974 367.228,460.644 368.72,466.177 370.213,471.567 371.705,476.807 373.197,481.889 374.689,486.808 376.181,491.556 377.673,496.128 379.165,500.518 380.657,504.719 382.15,508.727 383.642,512.537 385.134,516.142 386.626,519.539 388.118,522.723 389.61,525.69 391.102,528.436 392.594,530.957 394.087,533.249 395.579,535.311 397.071,537.138 398.563,538.729 400.055,540.081 401.547,541.192 403.039,542.061 404.531,542.687 406.024,543.068 407.516,543.204 409.008,543.094 410.5,542.739 411.992,542.139 413.484,541.294 414.976,540.206 416.469,538.875 417.961,537.304 419.453,535.493 420.945,533.446 422.437,531.165 423.929,528.652 425.421,525.91 426.913,522.944 428.406,519.757 429.898,516.352 431.39,512.734 432.882,508.907 434.374,504.877 435.866,500.648 437.358,496.226 438.85,491.616 440.343,486.824 441.835,481.856 443.327,476.718 444.819,471.418 446.311,465.961 447.803,460.354 449.295,454.605 450.787,448.721 452.28,442.71 453.772,436.578 455.264,430.334 456.756,423.986 458.248,417.542 459.74,411.01 461.232,404.398 462.724,397.715 464.217,390.97 465.709,384.17 467.201,377.324 468.693,370.442 470.185,363.531 471.677,356.601 473.169,349.661 474.661,342.718 476.154,335.783 477.646,328.864 479.138,321.969 480.63,315.108 482.122,308.288 483.614,301.519 485.106,294.809 486.598,288.167 488.091,281.601 489.583,275.118 491.075,268.728 492.567,262.439 494.059,256.257 495.551,250.191 497.043,244.249 498.535,238.437 500.028,232.763 501.52,227.234 503.012,221.857 504.504,216.638 505.996,211.584 507.488,206.701 508.98,201.994 510.472,197.47 511.965,193.133 513.457,188.99 514.949,185.044 516.441,181.301 517.933,177.764 519.425,174.439 520.917,171.328 522.409,168.435 523.902,165.763 525.394,163.316 526.886,161.095 528.378,159.103 529.87,157.342 531.362,155.813 532.854,154.519 534.346,153.459 535.839,152.634 537.331,152.045 538.823,151.692 540.315,151.575 541.807,151.692 543.299,152.043 544.791,152.627 546.283,153.442 547.776,154.486 549.268,155.756 550.76,157.252 552.252,158.968 553.744,160.903 555.236,163.053 556.728,165.414 558.22,167.983 559.713,170.754 561.205,173.723 562.697,176.886 564.189,180.237 565.681,183.771 567.173,187.482 568.665,191.365 570.157,195.413 571.65,199.62 573.142,203.98 574.634,208.485 576.126,213.129 577.618,217.904 579.11,222.804 580.602,227.82 582.094,232.945 583.587,238.172 585.079,243.492 586.571,248.897 588.063,254.379 589.555,259.931 591.047,265.542 592.539,271.205 594.031,276.912 595.524,282.654 597.016,288.421 598.508,294.206 600,300 601.492,305.794 602.984,311.579 604.476,317.346 605.969,323.088 607.461,328.795 608.953,334.458 610.445,340.069 611.937,345.621 613.429,351.103 614.921,356.508 616.413,361.828 617.906,367.055 619.398,372.18 620.89,377.196 622.382,382.096 623.874,386.871 625.366,391.515 626.858,396.02 628.35,400.38 629.843,404.587 631.335,408.635 632.827,412.518 634.319,416.229 635.811,419.763 637.303,423.114 638.795,426.277 640.287,429.246 641.78,432.017 643.272,434.586 644.764,436.947 646.256,439.097 647.748,441.032 649.24,442.748 650.732,444.244 652.224,445.514 653.717,446.558 655.209,447.373 656.701,447.957 658.193,448.308 659.685,448.425 661.177,448.308 662.669,447.955 664.161,447.366 665.654,446.541 667.146,445.481 668.638,444.187 670.13,442.658 671.622,440.897 673.114,438.905 674.606,436.684 676.098,434.237 677.591,431.565 679.083,428.672 680.575,425.561 682.067,422.236 683.559,418.699 685.051,414.956 686.543,411.01 688.035,406.867 689.528,402.53 691.02,398.006 692.512,393.299 694.004,388.416 695.496,383.362 696.988,378.143 698.48,372.766 699.972,367.237 701.465,361.563 702.957,355.751 704.449,349.809 705.941,343.743 707.433,337.561 708.925,331.272 710.417,324.882 711.909,318.399 713.402,311.833 714.894,305.191 716.386,298.481 717.878,291.712 719.37,284.892 720.862,278.031 722.354,271.136 723.846,264.217 725.339,257.282 726.831,250.339 728.323,243.399 729.815,236.469 731.307,229.558 732.799,222.676 734.291,215.83 735.783,209.03 737.276,202.285 738.768,195.602 740.26,188.99 741.752,182.458 743.244,176.014 744.736,169.666 746.228,163.422 747.72,157.29 749.213,151.279 750.705,145.395 752.197,139.646 753.689,134.039 755.181,128.582 756.673,123.282 758.165,118.144 759.657,113.176 761.15,108.384 762.642,103.774 764.134,99.3518 765.626,95.1229 767.118,91.0927 768.61,87.2662 770.102,83.6482 771.594,80.2434 773.087,77.0558 774.579,74.0896 776.071,71.3483 777.563,68.8354 779.055,66.5539 780.547,64.5068 782.039,62.6963 783.531,61.1248 785.024,59.7941 786.516,58.7058 788.008,57.8611 789.5,57.2609 790.992,56.9059 792.484,56.7964 793.976,56.9323 795.469,57.3134 796.961,57.9389 798.453,58.808 799.945,59.9193 801.437,61.2712 802.929,62.862 804.421,64.6893 805.913,66.7507 807.406,69.0433 808.898,71.5642 810.39,74.3099 811.882,77.2768 813.374,80.4608 814.866,83.8579 816.358,87.4634 817.85,91.2727 819.343,95.2808 820.835,99.4824 822.327,103.872 823.819,108.444 825.311,113.192 826.803,118.111 828.295,123.193 829.787,128.433 831.28,133.823 832.772,139.356 834.264,145.026 835.756,150.826 837.248,156.747 838.74,162.782 840.232,168.923 841.724,175.164 843.217,181.495 844.709,187.909 846.201,194.397 847.693,200.952 849.185,207.565 850.677,214.227 852.169,220.932 853.661,227.669 855.154,234.431 856.646,241.209 858.138,247.995 859.63,254.781 861.122,261.558 862.614,268.317 864.106,275.051 865.598,281.751 867.091,288.409 868.583,295.017 870.075,301.566 871.567,308.05 873.059,314.46 874.551,320.788 876.043,327.028 877.535,333.171 879.028,339.21 880.52,345.139 882.012,350.95 883.504,356.636 884.996,362.192 886.488,367.61 887.98,372.884 889.472,378.009 890.965,382.979 892.457,387.789 893.949,392.432 895.441,396.904 896.933,401.2 898.425,405.316 899.917,409.248 901.409,412.991 902.902,416.541 904.394,419.895 905.886,423.051 907.378,426.004 908.87,428.753 910.362,431.294 911.854,433.627 913.346,435.748 914.839,437.657 916.331,439.353 917.823,440.834 919.315,442.099 920.807,443.15 922.299,443.984 923.791,444.604 925.283,445.008 926.776,445.199 928.268,445.177 929.76,444.944 931.252,444.5 932.744,443.849 934.236,442.993 935.728,441.934 937.22,440.674 938.713,439.217 940.205,437.566 941.697,435.725 943.189,433.697 944.681,431.487 946.173,429.099 947.665,426.536 949.157,423.805 950.65,420.91 952.142,417.855 953.634,414.647 955.126,411.291 956.618,407.792 958.11,404.156 959.602,400.39 961.094,396.5 962.587,392.491 964.079,388.371 965.571,384.146 967.063,379.823 968.555,375.409 970.047,370.909 971.539,366.333 973.031,361.685 974.524,356.975 976.016,352.208 977.508,347.393 979,342.536 980.492,337.645 981.984,332.727 983.476,327.79 984.969,322.84 986.461,317.886 987.953,312.934 989.445,307.991 990.937,303.066 992.429,298.165 993.921,293.294 995.413,288.462 996.906,283.675 998.398,278.94 999.89,274.263 1001.38,269.652 1002.87,265.113 1004.37,260.651 1005.86,256.274 1007.35,251.987 1008.84,247.797 1010.33,243.708 1011.83,239.727 1013.32,235.86 1014.81,232.11 1016.3,228.484 1017.8,224.985 1019.29,221.62 1020.78,218.391 1022.27,215.304 1023.76,212.362 1025.26,209.568 1026.75,206.927 1028.24,204.442 1029.73,202.115 1031.22,199.95 1032.72,197.949 1034.21,196.114 1035.7,194.447 1037.19,192.95 1038.69,191.624 1040.18,190.472 1041.67,189.493 1043.16,188.688 1044.65,188.058 1046.15,187.604 1047.64,187.324 1049.13,187.219 1050.62,187.288 1052.11,187.531 1053.61,187.946 1055.1,188.531 1056.59,189.286 1058.08,190.209 1059.57,191.297 1061.07,192.548 1062.56,193.959 1064.05,195.529 1065.54,197.253 1067.04,199.129 1068.53,201.153 1070.02,203.321 1071.51,205.63 1073,208.076 1074.5,210.654 1075.99,213.36 1077.48,216.189 1078.97,219.137 1080.46,222.198 1081.96,225.369 1083.45,228.642 1084.94,232.014 1086.43,235.478 1087.93,239.029 1089.42,242.661 1090.91,246.369 1092.4,250.146 1093.89,253.987 1095.39,257.885 1096.88,261.834 1098.37,265.828 1099.86,269.861 1101.35,273.926 1102.85,278.018 1104.34,282.129 1105.83,286.253 1107.32,290.385 1108.81,294.517 1110.31,298.644 1111.8,302.759 1113.29,306.855 1114.78,310.928 1116.28,314.969 1117.77,318.974 1119.26,322.936 1120.75,326.849 1122.24,330.708 1123.74,334.507 1125.23,338.239 1126.72,341.9 1128.21,345.484 1129.7,348.986 1131.2,352.4 1132.69,355.723 1134.18,358.947 1135.67,362.07 1137.17,365.087 1138.66,367.992 1140.15,370.783 1141.64,373.455 1143.13,376.004 1144.63,378.427 1146.12,380.72 1147.61,382.88 1149.1,384.904 1150.59,386.789 1152.09,388.533 1153.58,390.134 1155.07,391.589 1156.56,392.896 1158.06,394.054 1159.55,395.062 1161.04,395.918 1162.53,396.621 1164.02,397.171 1165.52,397.566 1167.01,397.808 1168.5,397.895 1169.99,397.828 1171.48,397.608 1172.98,397.235 1174.47,396.71 1175.96,396.034 1177.45,395.209 1178.94,394.236 1180.44,393.117 1181.93,391.854 1183.42,390.45 1184.91,388.907 1186.41,387.227 1187.9,385.413 1189.39,383.469 1190.88,381.398 1192.37,379.203 1193.87,376.889 1195.36,374.458 1196.85,371.914 1198.34,369.263 1199.83,366.508 1201.33,363.654 1202.82,360.705 1204.31,357.666 1205.8,354.542 1207.3,351.338 1208.79,348.059 1210.28,344.711 1211.77,341.299 1213.26,337.827 1214.76,334.302 1216.25,330.73 1217.74,327.115 1219.23,323.464 1220.72,319.782 1222.22,316.075 1223.71,312.349 1225.2,308.609 1226.69,304.862 1228.19,301.114 1229.68,297.37 1231.17,293.635 1232.66,289.917 1234.15,286.22 1235.65,282.551 1237.14,278.915 1238.63,275.317 1240.12,271.763 1241.61,268.259 1243.11,264.811 1244.6,261.422 1246.09,258.099 1247.58,254.847 1249.07,251.671 1250.57,248.575 1252.06,245.564 1253.55,242.643 1255.04,239.816 1256.54,237.088 1258.03,234.463 1259.52,231.944 1261.01,229.536 1262.5,227.242 1264,225.066 1265.49,223.01 1266.98,221.079 1268.47,219.274 1269.96,217.599 1271.46,216.056 1272.95,214.648 1274.44,213.376 1275.93,212.242 1277.43,211.248 1278.92,210.395 1280.41,209.685 1281.9,209.118 1283.39,208.696 1284.89,208.418 1286.38,208.286 1287.87,208.299 1289.36,208.457 1290.85,208.76 1292.35,209.207 1293.84,209.798 1295.33,210.531 1296.82,211.405 1298.31,212.419 1299.81,213.57 1301.3,214.858 1302.79,216.28 1304.28,217.834 1305.78,219.517 1307.27,221.327 1308.76,223.26 1310.25,225.314 1311.74,227.485 1313.24,229.77 1314.73,232.165 1316.22,234.667 1317.71,237.271 1319.2,239.974 1320.7,242.771 1322.19,245.657 1323.68,248.629 1325.17,251.681 1326.67,254.808 1328.16,258.007 1329.65,261.271 1331.14,264.597 1332.63,267.977 1334.13,271.408 1335.62,274.883 1337.11,278.398 1338.6,281.946 1340.09,285.523 1341.59,289.122 1343.08,292.739 1344.57,296.367 1346.06,300 "/>
<polyline clip-path="url(#clip272)" style="stroke:#000000; stroke-linecap:round; stroke-linejoin:round; stroke-width:4; stroke-opacity:1; fill:none" stroke-dasharray="16, 10" points="-1190.55,151.575 2390.55,151.575 "/>
<polyline clip-path="url(#clip272)" style="stroke:#000000; stroke-linecap:round; stroke-linejoin:round; stroke-width:4; stroke-opacity:1; fill:none" stroke-dasharray="16, 10" points="-1190.55,448.425 2390.55,448.425 "/>
<polyline clip-path="url(#clip272)" style="stroke:#800080; stroke-linecap:round; stroke-linejoin:round; stroke-width:4; stroke-opacity:1; fill:none" points="-146.063,300 -144.571,305.594 -143.079,311.18 -141.587,316.751 -140.094,322.297 -138.602,327.812 -137.11,333.287 -135.618,338.715 -134.126,344.088 -132.634,349.399 -131.142,354.639 -129.65,359.801 -128.157,364.879 -126.665,369.864 -125.173,374.75 -123.681,379.53 -122.189,384.197 -120.697,388.744 -119.205,393.165 -117.713,397.454 -116.22,401.604 -114.728,405.61 -113.236,409.465 -111.744,413.166 -110.252,416.705 -108.76,420.078 -107.268,423.281 -105.776,426.309 -104.283,429.157 -102.791,431.822 -101.299,434.299 -99.8071,436.586 -98.315,438.678 -96.8228,440.573 -95.3307,442.269 -93.8386,443.762 -92.3465,445.051 -90.8543,446.134 -89.3622,447.009 -87.8701,447.676 -86.378,448.132 -84.8858,448.378 -83.3937,448.413 -81.9016,448.238 -80.4094,447.851 -78.9173,447.255 -77.4252,446.449 -75.9331,445.435 -74.4409,444.215 -72.9488,442.789 -71.4567,441.161 -69.9646,439.332 -68.4724,437.305 -66.9803,435.083 -65.4882,432.669 -63.9961,430.066 -62.5039,427.279 -61.0118,424.31 -59.5197,421.165 -58.0276,417.848 -56.5354,414.364 -55.0433,410.716 -53.5512,406.912 -52.0591,402.956 -50.5669,398.853 -49.0748,394.61 -47.5827,390.232 -46.0906,385.726 -44.5984,381.099 -43.1063,376.356 -41.6142,371.504 -40.122,366.551 -38.6299,361.504 -37.1378,356.369 -35.6457,351.154 -34.1535,345.866 -32.6614,340.513 -31.1693,335.102 -29.6772,329.642 -28.185,324.139 -26.6929,318.603 -25.2008,313.039 -23.7087,307.458 -22.2165,301.865 -20.7244,296.27 -19.2323,290.68 -17.7402,285.104 -16.248,279.548 -14.7559,274.022 -13.2638,268.533 -11.7717,263.088 -10.2795,257.696 -8.7874,252.364 -7.29528,247.1 -5.80315,241.91 -4.31102,236.804 -2.8189,231.787 -1.32677,226.867 0.165354,222.051 1.65748,217.346 3.14961,212.758 4.64173,208.294 6.13386,203.961 7.62598,199.764 9.11811,195.709 10.6102,191.803 12.1024,188.05 13.5945,184.457 15.0866,181.027 16.5787,177.767 18.0709,174.681 19.563,171.772 21.0551,169.046 22.5472,166.506 24.0394,164.155 25.5315,161.998 27.0236,160.036 28.5157,158.274 30.0079,156.713 31.5,155.356 32.9921,154.204 34.4843,153.259 35.9764,152.523 37.4685,151.997 38.9606,151.68 40.4528,151.575 41.9449,151.68 43.437,151.997 44.9291,152.523 46.4213,153.259 47.9134,154.204 49.4055,155.356 50.8976,156.713 52.3898,158.274 53.8819,160.037 55.374,161.998 56.8661,164.155 58.3583,166.506 59.8504,169.046 61.3425,171.772 62.8346,174.681 64.3268,177.767 65.8189,181.027 67.311,184.457 68.8031,188.05 70.2953,191.803 71.7874,195.709 73.2795,199.764 74.7717,203.961 76.2638,208.294 77.7559,212.758 79.248,217.346 80.7402,222.051 82.2323,226.867 83.7244,231.787 85.2165,236.804 86.7087,241.91 88.2008,247.1 89.6929,252.364 91.185,257.696 92.6772,263.088 94.1693,268.533 95.6614,274.022 97.1535,279.548 98.6457,285.104 100.138,290.68 101.63,296.27 103.122,301.865 104.614,307.458 106.106,313.039 107.598,318.603 109.091,324.139 110.583,329.642 112.075,335.102 113.567,340.513 115.059,345.866 116.551,351.154 118.043,356.369 119.535,361.504 121.028,366.551 122.52,371.504 124.012,376.356 125.504,381.099 126.996,385.726 128.488,390.232 129.98,394.61 131.472,398.853 132.965,402.956 134.457,406.912 135.949,410.716 137.441,414.364 138.933,417.848 140.425,421.165 141.917,424.31 143.409,427.279 144.902,430.066 146.394,432.669 147.886,435.083 149.378,437.305 150.87,439.332 152.362,441.161 153.854,442.789 155.346,444.215 156.839,445.435 158.331,446.449 159.823,447.255 161.315,447.851 162.807,448.238 164.299,448.413 165.791,448.378 167.283,448.132 168.776,447.676 170.268,447.009 171.76,446.134 173.252,445.051 174.744,443.762 176.236,442.269 177.728,440.573 179.22,438.678 180.713,436.586 182.205,434.299 183.697,431.822 185.189,429.157 186.681,426.309 188.173,423.281 189.665,420.078 191.157,416.705 192.65,413.166 194.142,409.465 195.634,405.61 197.126,401.604 198.618,397.454 200.11,393.165 201.602,388.744 203.094,384.197 204.587,379.53 206.079,374.75 207.571,369.864 209.063,364.879 210.555,359.801 212.047,354.639 213.539,349.399 215.031,344.088 216.524,338.715 218.016,333.287 219.508,327.812 221,322.297 222.492,316.751 223.984,311.18 225.476,305.594 226.969,300 228.461,294.406 229.953,288.82 231.445,283.249 232.937,277.703 234.429,272.188 235.921,266.713 237.413,261.285 238.906,255.912 240.398,250.601 241.89,245.361 243.382,240.199 244.874,235.121 246.366,230.136 247.858,225.25 249.35,220.47 250.843,215.803 252.335,211.256 253.827,206.835 255.319,202.546 256.811,198.396 258.303,194.39 259.795,190.534 261.287,186.834 262.78,183.295 264.272,179.921 265.764,176.719 267.256,173.691 268.748,170.843 270.24,168.178 271.732,165.701 273.224,163.414 274.717,161.322 276.209,159.427 277.701,157.731 279.193,156.238 280.685,154.949 282.177,153.866 283.669,152.991 285.161,152.324 286.654,151.868 288.146,151.622 289.638,151.587 291.13,151.762 292.622,152.149 294.114,152.745 295.606,153.551 297.098,154.565 298.591,155.785 300.083,157.211 301.575,158.839 303.067,160.668 304.559,162.695 306.051,164.917 307.543,167.331 309.035,169.934 310.528,172.721 312.02,175.69 313.512,178.835 315.004,182.152 316.496,185.636 317.988,189.284 319.48,193.088 320.972,197.044 322.465,201.147 323.957,205.39 325.449,209.768 326.941,214.274 328.433,218.901 329.925,223.644 331.417,228.496 332.909,233.449 334.402,238.496 335.894,243.631 337.386,248.846 338.878,254.134 340.37,259.487 341.862,264.898 343.354,270.358 344.846,275.861 346.339,281.397 347.831,286.961 349.323,292.543 350.815,298.135 352.307,303.73 353.799,309.32 355.291,314.896 356.783,320.452 358.276,325.978 359.768,331.467 361.26,336.912 362.752,342.304 364.244,347.636 365.736,352.901 367.228,358.09 368.72,363.196 370.213,368.213 371.705,373.133 373.197,377.949 374.689,382.654 376.181,387.242 377.673,391.706 379.165,396.039 380.657,400.236 382.15,404.291 383.642,408.197 385.134,411.95 386.626,415.543 388.118,418.973 389.61,422.233 391.102,425.32 392.594,428.228 394.087,430.954 395.579,433.494 397.071,435.845 398.563,438.002 400.055,439.964 401.547,441.726 403.039,443.287 404.531,444.644 406.024,445.796 407.516,446.741 409.008,447.477 410.5,448.003 411.992,448.32 413.484,448.425 414.976,448.32 416.469,448.003 417.961,447.477 419.453,446.741 420.945,445.796 422.437,444.644 423.929,443.287 425.421,441.726 426.913,439.964 428.406,438.002 429.898,435.845 431.39,433.494 432.882,430.954 434.374,428.228 435.866,425.32 437.358,422.233 438.85,418.973 440.343,415.543 441.835,411.95 443.327,408.197 444.819,404.291 446.311,400.236 447.803,396.039 449.295,391.706 450.787,387.242 452.28,382.654 453.772,377.949 455.264,373.133 456.756,368.213 458.248,363.196 459.74,358.09 461.232,352.9 462.724,347.636 464.217,342.304 465.709,336.912 467.201,331.467 468.693,325.978 470.185,320.452 471.677,314.896 473.169,309.32 474.661,303.73 476.154,298.135 477.646,292.542 479.138,286.961 480.63,281.397 482.122,275.861 483.614,270.358 485.106,264.898 486.598,259.487 488.091,254.134 489.583,248.846 491.075,243.631 492.567,238.496 494.059,233.449 495.551,228.496 497.043,223.644 498.535,218.901 500.028,214.274 501.52,209.768 503.012,205.39 504.504,201.147 505.996,197.044 507.488,193.088 508.98,189.284 510.472,185.636 511.965,182.152 513.457,178.835 514.949,175.69 516.441,172.721 517.933,169.934 519.425,167.331 520.917,164.917 522.409,162.695 523.902,160.668 525.394,158.839 526.886,157.211 528.378,155.785 529.87,154.565 531.362,153.551 532.854,152.745 534.346,152.149 535.839,151.762 537.331,151.587 538.823,151.622 540.315,151.868 541.807,152.324 543.299,152.991 544.791,153.866 546.283,154.949 547.776,156.238 549.268,157.731 550.76,159.427 552.252,161.322 553.744,163.414 555.236,165.701 556.728,168.178 558.22,170.843 559.713,173.691 561.205,176.719 562.697,179.921 564.189,183.295 565.681,186.834 567.173,190.534 568.665,194.39 570.157,198.396 571.65,202.546 573.142,206.835 574.634,211.256 576.126,215.803 577.618,220.47 579.11,225.25 580.602,230.136 582.094,235.121 583.587,240.199 585.079,245.361 586.571,250.601 588.063,255.912 589.555,261.285 591.047,266.713 592.539,272.188 594.031,277.703 595.524,283.249 597.016,288.82 598.508,294.406 600,300 601.492,305.594 602.984,311.18 604.476,316.751 605.969,322.297 607.461,327.812 608.953,333.287 610.445,338.715 611.937,344.088 613.429,349.399 614.921,354.639 616.413,359.801 617.906,364.879 619.398,369.864 620.89,374.75 622.382,379.53 623.874,384.197 625.366,388.744 626.858,393.165 628.35,397.454 629.843,401.604 631.335,405.61 632.827,409.466 634.319,413.166 635.811,416.705 637.303,420.079 638.795,423.281 640.287,426.309 641.78,429.157 643.272,431.822 644.764,434.299 646.256,436.586 647.748,438.678 649.24,440.573 650.732,442.269 652.224,443.762 653.717,445.051 655.209,446.134 656.701,447.009 658.193,447.676 659.685,448.132 661.177,448.378 662.669,448.413 664.161,448.238 665.654,447.851 667.146,447.255 668.638,446.449 670.13,445.435 671.622,444.215 673.114,442.789 674.606,441.161 676.098,439.332 677.591,437.305 679.083,435.083 680.575,432.669 682.067,430.066 683.559,427.279 685.051,424.31 686.543,421.165 688.035,417.848 689.528,414.364 691.02,410.716 692.512,406.912 694.004,402.956 695.496,398.853 696.988,394.61 698.48,390.232 699.972,385.726 701.465,381.099 702.957,376.356 704.449,371.504 705.941,366.551 707.433,361.504 708.925,356.369 710.417,351.154 711.909,345.866 713.402,340.513 714.894,335.102 716.386,329.642 717.878,324.139 719.37,318.603 720.862,313.039 722.354,307.458 723.846,301.865 725.339,296.27 726.831,290.68 728.323,285.104 729.815,279.548 731.307,274.022 732.799,268.533 734.291,263.088 735.783,257.696 737.276,252.364 738.768,247.1 740.26,241.91 741.752,236.804 743.244,231.787 744.736,226.867 746.228,222.051 747.72,217.346 749.213,212.758 750.705,208.294 752.197,203.961 753.689,199.764 755.181,195.709 756.673,191.803 758.165,188.05 759.657,184.457 761.15,181.027 762.642,177.767 764.134,174.68 765.626,171.772 767.118,169.046 768.61,166.506 770.102,164.155 771.594,161.998 773.087,160.036 774.579,158.274 776.071,156.713 777.563,155.356 779.055,154.204 780.547,153.259 782.039,152.523 783.531,151.997 785.024,151.68 786.516,151.575 788.008,151.68 789.5,151.997 790.992,152.523 792.484,153.259 793.976,154.204 795.469,155.356 796.961,156.713 798.453,158.274 799.945,160.036 801.437,161.998 802.929,164.155 804.421,166.506 805.913,169.046 807.406,171.772 808.898,174.68 810.39,177.767 811.882,181.027 813.374,184.457 814.866,188.05 816.358,191.803 817.85,195.709 819.343,199.764 820.835,203.961 822.327,208.294 823.819,212.758 825.311,217.346 826.803,222.051 828.295,226.867 829.787,231.787 831.28,236.804 832.772,241.91 834.264,247.099 835.756,252.364 837.248,257.696 838.74,263.088 840.232,268.533 841.724,274.022 843.217,279.548 844.709,285.104 846.201,290.68 847.693,296.27 849.185,301.865 850.677,307.457 852.169,313.039 853.661,318.603 855.154,324.139 856.646,329.642 858.138,335.102 859.63,340.513 861.122,345.866 862.614,351.154 864.106,356.369 865.598,361.504 867.091,366.551 868.583,371.504 870.075,376.356 871.567,381.099 873.059,385.726 874.551,390.232 876.043,394.61 877.535,398.853 879.028,402.956 880.52,406.912 882.012,410.716 883.504,414.364 884.996,417.848 886.488,421.165 887.98,424.31 889.472,427.279 890.965,430.066 892.457,432.669 893.949,435.083 895.441,437.305 896.933,439.332 898.425,441.161 899.917,442.789 901.409,444.215 902.902,445.435 904.394,446.449 905.886,447.255 907.378,447.851 908.87,448.238 910.362,448.413 911.854,448.378 913.346,448.132 914.839,447.676 916.331,447.009 917.823,446.134 919.315,445.051 920.807,443.762 922.299,442.269 923.791,440.573 925.283,438.678 926.776,436.586 928.268,434.299 929.76,431.822 931.252,429.157 932.744,426.309 934.236,423.281 935.728,420.079 937.22,416.705 938.713,413.166 940.205,409.466 941.697,405.61 943.189,401.604 944.681,397.454 946.173,393.165 947.665,388.744 949.157,384.197 950.65,379.53 952.142,374.75 953.634,369.864 955.126,364.879 956.618,359.801 958.11,354.639 959.602,349.399 961.094,344.088 962.587,338.715 964.079,333.287 965.571,327.812 967.063,322.297 968.555,316.751 970.047,311.18 971.539,305.594 973.031,300 974.524,294.406 976.016,288.82 977.508,283.249 979,277.703 980.492,272.188 981.984,266.713 983.476,261.285 984.969,255.912 986.461,250.601 987.953,245.361 989.445,240.199 990.937,235.121 992.429,230.136 993.921,225.25 995.413,220.47 996.906,215.803 998.398,211.256 999.89,206.835 1001.38,202.546 1002.87,198.396 1004.37,194.39 1005.86,190.535 1007.35,186.834 1008.84,183.295 1010.33,179.922 1011.83,176.719 1013.32,173.691 1014.81,170.843 1016.3,168.178 1017.8,165.701 1019.29,163.414 1020.78,161.322 1022.27,159.427 1023.76,157.731 1025.26,156.238 1026.75,154.949 1028.24,153.866 1029.73,152.991 1031.22,152.324 1032.72,151.868 1034.21,151.622 1035.7,151.587 1037.19,151.762 1038.69,152.149 1040.18,152.745 1041.67,153.551 1043.16,154.565 1044.65,155.785 1046.15,157.211 1047.64,158.839 1049.13,160.668 1050.62,162.695 1052.11,164.917 1053.61,167.331 1055.1,169.934 1056.59,172.721 1058.08,175.69 1059.57,178.835 1061.07,182.152 1062.56,185.636 1064.05,189.284 1065.54,193.088 1067.04,197.044 1068.53,201.147 1070.02,205.39 1071.51,209.768 1073,214.274 1074.5,218.901 1075.99,223.644 1077.48,228.496 1078.97,233.449 1080.46,238.496 1081.96,243.631 1083.45,248.846 1084.94,254.134 1086.43,259.487 1087.93,264.898 1089.42,270.358 1090.91,275.861 1092.4,281.397 1093.89,286.961 1095.39,292.542 1096.88,298.135 1098.37,303.73 1099.86,309.32 1101.35,314.896 1102.85,320.452 1104.34,325.978 1105.83,331.467 1107.32,336.912 1108.81,342.304 1110.31,347.636 1111.8,352.9 1113.29,358.09 1114.78,363.196 1116.28,368.213 1117.77,373.133 1119.26,377.949 1120.75,382.654 1122.24,387.242 1123.74,391.706 1125.23,396.039 1126.72,400.236 1128.21,404.291 1129.7,408.197 1131.2,411.95 1132.69,415.543 1134.18,418.973 1135.67,422.233 1137.17,425.319 1138.66,428.228 1140.15,430.954 1141.64,433.494 1143.13,435.845 1144.63,438.002 1146.12,439.963 1147.61,441.726 1149.1,443.287 1150.59,444.644 1152.09,445.796 1153.58,446.741 1155.07,447.477 1156.56,448.003 1158.06,448.32 1159.55,448.425 1161.04,448.32 1162.53,448.003 1164.02,447.477 1165.52,446.741 1167.01,445.796 1168.5,444.644 1169.99,443.287 1171.48,441.726 1172.98,439.964 1174.47,438.002 1175.96,435.845 1177.45,433.494 1178.94,430.954 1180.44,428.228 1181.93,425.319 1183.42,422.233 1184.91,418.973 1186.41,415.543 1187.9,411.95 1189.39,408.197 1190.88,404.291 1192.37,400.236 1193.87,396.039 1195.36,391.706 1196.85,387.242 1198.34,382.654 1199.83,377.949 1201.33,373.133 1202.82,368.213 1204.31,363.196 1205.8,358.09 1207.3,352.9 1208.79,347.636 1210.28,342.304 1211.77,336.912 1213.26,331.467 1214.76,325.978 1216.25,320.452 1217.74,314.896 1219.23,309.32 1220.72,303.73 1222.22,298.135 1223.71,292.542 1225.2,286.961 1226.69,281.397 1228.19,275.861 1229.68,270.358 1231.17,264.898 1232.66,259.487 1234.15,254.134 1235.65,248.846 1237.14,243.631 1238.63,238.496 1240.12,233.449 1241.61,228.496 1243.11,223.644 1244.6,218.901 1246.09,214.274 1247.58,209.768 1249.07,205.39 1250.57,201.147 1252.06,197.044 1253.55,193.088 1255.04,189.284 1256.54,185.636 1258.03,182.152 1259.52,178.835 1261.01,175.69 1262.5,172.721 1264,169.934 1265.49,167.331 1266.98,164.917 1268.47,162.695 1269.96,160.668 1271.46,158.839 1272.95,157.211 1274.44,155.785 1275.93,154.565 1277.43,153.551 1278.92,152.745 1280.41,152.149 1281.9,151.762 1283.39,151.587 1284.89,151.622 1286.38,151.868 1287.87,152.324 1289.36,152.991 1290.85,153.866 1292.35,154.949 1293.84,156.238 1295.33,157.731 1296.82,159.427 1298.31,161.322 1299.81,163.414 1301.3,165.701 1302.79,168.178 1304.28,170.843 1305.78,173.691 1307.27,176.719 1308.76,179.922 1310.25,183.295 1311.74,186.834 1313.24,190.535 1314.73,194.39 1316.22,198.396 1317.71,202.546 1319.2,206.835 1320.7,211.256 1322.19,215.803 1323.68,220.47 1325.17,225.25 1326.67,230.136 1328.16,235.121 1329.65,240.199 1331.14,245.361 1332.63,250.601 1334.13,255.912 1335.62,261.285 1337.11,266.713 1338.6,272.188 1340.09,277.703 1341.59,283.249 1343.08,288.82 1344.57,294.406 1346.06,300 "/>
</svg>
