<?xml version="1.0" encoding="utf-8"?>
<svg xmlns="http://www.w3.org/2000/svg" xmlns:xlink="http://www.w3.org/1999/xlink" width="400" height="400" viewBox="0 0 1600 1600">
<defs>
  <clipPath id="clip480">
    <rect x="0" y="0" width="1600" height="1600"/>
  </clipPath>
</defs>
<path clip-path="url(#clip480)" d="M0 1600 L1600 1600 L1600 0 L0 0  Z" fill="#ffffff" fill-rule="evenodd" fill-opacity="1"/>
<defs>
  <clipPath id="clip481">
    <rect x="320" y="160" width="1121" height="1121"/>
  </clipPath>
</defs>
<path clip-path="url(#clip480)" d="M237.397 1363.72 L1552.76 1363.72 L1552.76 47.2441 L237.397 47.2441  Z" fill="#ffffff" fill-rule="evenodd" fill-opacity="1"/>
<defs>
  <clipPath id="clip482">
    <rect x="237" y="47" width="1316" height="1317"/>
  </clipPath>
</defs>
<polyline clip-path="url(#clip480)" style="stroke:#000000; stroke-linecap:round; stroke-linejoin:round; stroke-width:4; stroke-opacity:1; fill:none" points="237.397,1363.72 1552.76,1363.72 "/>
<polyline clip-path="url(#clip480)" style="stroke:#000000; stroke-linecap:round; stroke-linejoin:round; stroke-width:4; stroke-opacity:1; fill:none" points="504.631,1363.72 504.631,1344.82 "/>
<polyline clip-path="url(#clip480)" style="stroke:#000000; stroke-linecap:round; stroke-linejoin:round; stroke-width:4; stroke-opacity:1; fill:none" points="841.597,1363.72 841.597,1344.82 "/>
<polyline clip-path="url(#clip480)" style="stroke:#000000; stroke-linecap:round; stroke-linejoin:round; stroke-width:4; stroke-opacity:1; fill:none" points="1178.56,1363.72 1178.56,1344.82 "/>
<polyline clip-path="url(#clip480)" style="stroke:#000000; stroke-linecap:round; stroke-linejoin:round; stroke-width:4; stroke-opacity:1; fill:none" points="1515.53,1363.72 1515.53,1344.82 "/>
<path clip-path="url(#clip480)" d="M454.746 1431.44 L462.385 1431.44 L462.385 1405.07 L454.075 1406.74 L454.075 1402.48 L462.339 1400.82 L467.014 1400.82 L467.014 1431.44 L474.653 1431.44 L474.653 1435.38 L454.746 1435.38 L454.746 1431.44 Z" fill="#000000" fill-rule="nonzero" fill-opacity="1" /><path clip-path="url(#clip480)" d="M494.098 1403.89 Q490.487 1403.89 488.658 1407.46 Q486.852 1411 486.852 1418.13 Q486.852 1425.24 488.658 1428.8 Q490.487 1432.34 494.098 1432.34 Q497.732 1432.34 499.537 1428.8 Q501.366 1425.24 501.366 1418.13 Q501.366 1411 499.537 1407.46 Q497.732 1403.89 494.098 1403.89 M494.098 1400.19 Q499.908 1400.19 502.963 1404.8 Q506.042 1409.38 506.042 1418.13 Q506.042 1426.86 502.963 1431.46 Q499.908 1436.05 494.098 1436.05 Q488.287 1436.05 485.209 1431.46 Q482.153 1426.86 482.153 1418.13 Q482.153 1409.38 485.209 1404.8 Q488.287 1400.19 494.098 1400.19 Z" fill="#000000" fill-rule="nonzero" fill-opacity="1" /><path clip-path="url(#clip480)" d="M506.042 1394.29 L530.154 1394.29 L530.154 1397.49 L506.042 1397.49 L506.042 1394.29 Z" fill="#000000" fill-rule="nonzero" fill-opacity="1" /><path clip-path="url(#clip480)" d="M539.012 1404.77 L545.219 1404.77 L545.219 1383.35 L538.467 1384.7 L538.467 1381.24 L545.181 1379.88 L548.98 1379.88 L548.98 1404.77 L555.187 1404.77 L555.187 1407.96 L539.012 1407.96 L539.012 1404.77 Z" fill="#000000" fill-rule="nonzero" fill-opacity="1" /><path clip-path="url(#clip480)" d="M806.58 1431.44 L814.218 1431.44 L814.218 1405.07 L805.908 1406.74 L805.908 1402.48 L814.172 1400.82 L818.848 1400.82 L818.848 1431.44 L826.487 1431.44 L826.487 1435.38 L806.58 1435.38 L806.58 1431.44 Z" fill="#000000" fill-rule="nonzero" fill-opacity="1" /><path clip-path="url(#clip480)" d="M845.931 1403.89 Q842.32 1403.89 840.491 1407.46 Q838.686 1411 838.686 1418.13 Q838.686 1425.24 840.491 1428.8 Q842.32 1432.34 845.931 1432.34 Q849.565 1432.34 851.371 1428.8 Q853.2 1425.24 853.2 1418.13 Q853.2 1411 851.371 1407.46 Q849.565 1403.89 845.931 1403.89 M845.931 1400.19 Q851.741 1400.19 854.797 1404.8 Q857.876 1409.38 857.876 1418.13 Q857.876 1426.86 854.797 1431.46 Q851.741 1436.05 845.931 1436.05 Q840.121 1436.05 837.042 1431.46 Q833.987 1426.86 833.987 1418.13 Q833.987 1409.38 837.042 1404.8 Q840.121 1400.19 845.931 1400.19 Z" fill="#000000" fill-rule="nonzero" fill-opacity="1" /><path clip-path="url(#clip480)" d="M867.58 1382.39 Q864.646 1382.39 863.161 1385.28 Q861.694 1388.16 861.694 1393.95 Q861.694 1399.73 863.161 1402.62 Q864.646 1405.5 867.58 1405.5 Q870.533 1405.5 872 1402.62 Q873.486 1399.73 873.486 1393.95 Q873.486 1388.16 872 1385.28 Q870.533 1382.39 867.58 1382.39 M867.58 1379.38 Q872.301 1379.38 874.784 1383.12 Q877.285 1386.84 877.285 1393.95 Q877.285 1401.04 874.784 1404.79 Q872.301 1408.51 867.58 1408.51 Q862.86 1408.51 860.358 1404.79 Q857.876 1401.04 857.876 1393.95 Q857.876 1386.84 860.358 1383.12 Q862.86 1379.38 867.58 1379.38 Z" fill="#000000" fill-rule="nonzero" fill-opacity="1" /><path clip-path="url(#clip480)" d="M1144.89 1431.44 L1152.53 1431.44 L1152.53 1405.07 L1144.22 1406.74 L1144.22 1402.48 L1152.48 1400.82 L1157.16 1400.82 L1157.16 1431.44 L1164.8 1431.44 L1164.8 1435.38 L1144.89 1435.38 L1144.89 1431.44 Z" fill="#000000" fill-rule="nonzero" fill-opacity="1" /><path clip-path="url(#clip480)" d="M1184.24 1403.89 Q1180.63 1403.89 1178.8 1407.46 Q1177 1411 1177 1418.13 Q1177 1425.24 1178.8 1428.8 Q1180.63 1432.34 1184.24 1432.34 Q1187.88 1432.34 1189.68 1428.8 Q1191.51 1425.24 1191.51 1418.13 Q1191.51 1411 1189.68 1407.46 Q1187.88 1403.89 1184.24 1403.89 M1184.24 1400.19 Q1190.05 1400.19 1193.11 1404.8 Q1196.19 1409.38 1196.19 1418.13 Q1196.19 1426.86 1193.11 1431.46 Q1190.05 1436.05 1184.24 1436.05 Q1178.43 1436.05 1175.35 1431.46 Q1172.3 1426.86 1172.3 1418.13 Q1172.3 1409.38 1175.35 1404.8 Q1178.43 1400.19 1184.24 1400.19 Z" fill="#000000" fill-rule="nonzero" fill-opacity="1" /><path clip-path="url(#clip480)" d="M1196.73 1404.77 L1202.94 1404.77 L1202.94 1383.35 L1196.19 1384.7 L1196.19 1381.24 L1202.9 1379.88 L1206.7 1379.88 L1206.7 1404.77 L1212.91 1404.77 L1212.91 1407.96 L1196.73 1407.96 L1196.73 1404.77 Z" fill="#000000" fill-rule="nonzero" fill-opacity="1" /><path clip-path="url(#clip480)" d="M1481.3 1431.44 L1488.94 1431.44 L1488.94 1405.07 L1480.63 1406.74 L1480.63 1402.48 L1488.89 1400.82 L1493.57 1400.82 L1493.57 1431.44 L1501.21 1431.44 L1501.21 1435.38 L1481.3 1435.38 L1481.3 1431.44 Z" fill="#000000" fill-rule="nonzero" fill-opacity="1" /><path clip-path="url(#clip480)" d="M1520.65 1403.89 Q1517.04 1403.89 1515.21 1407.46 Q1513.41 1411 1513.41 1418.13 Q1513.41 1425.24 1515.21 1428.8 Q1517.04 1432.34 1520.65 1432.34 Q1524.29 1432.34 1526.09 1428.8 Q1527.92 1425.24 1527.92 1418.13 Q1527.92 1411 1526.09 1407.46 Q1524.29 1403.89 1520.65 1403.89 M1520.65 1400.19 Q1526.46 1400.19 1529.52 1404.8 Q1532.6 1409.38 1532.6 1418.13 Q1532.6 1426.86 1529.52 1431.46 Q1526.46 1436.05 1520.65 1436.05 Q1514.84 1436.05 1511.76 1431.46 Q1508.71 1426.86 1508.71 1418.13 Q1508.71 1409.38 1511.76 1404.8 Q1514.84 1400.19 1520.65 1400.19 Z" fill="#000000" fill-rule="nonzero" fill-opacity="1" /><path clip-path="url(#clip480)" d="M1537.17 1404.77 L1550.43 1404.77 L1550.43 1407.96 L1532.6 1407.96 L1532.6 1404.77 Q1534.76 1402.53 1538.48 1398.77 Q1542.23 1394.99 1543.19 1393.9 Q1545.01 1391.85 1545.73 1390.44 Q1546.46 1389.01 1546.46 1387.63 Q1546.46 1385.4 1544.88 1383.98 Q1543.32 1382.57 1540.8 1382.57 Q1539.01 1382.57 1537.02 1383.19 Q1535.04 1383.82 1532.79 1385.08 L1532.79 1381.24 Q1535.08 1380.32 1537.07 1379.85 Q1539.07 1379.38 1540.72 1379.38 Q1545.09 1379.38 1547.68 1381.56 Q1550.28 1383.74 1550.28 1387.39 Q1550.28 1389.12 1549.62 1390.68 Q1548.98 1392.22 1547.27 1394.33 Q1546.8 1394.87 1544.28 1397.49 Q1541.76 1400.08 1537.17 1404.77 Z" fill="#000000" fill-rule="nonzero" fill-opacity="1" /><path clip-path="url(#clip480)" d="M455.158 1492.72 Q457.227 1493.42 459.169 1495.72 Q461.142 1498.01 463.116 1502.02 L469.64 1515 L462.734 1515 L456.654 1502.81 Q454.299 1498.04 452.071 1496.48 Q449.875 1494.92 446.055 1494.92 L439.053 1494.92 L439.053 1515 L432.624 1515 L432.624 1467.48 L447.138 1467.48 Q455.286 1467.48 459.296 1470.89 Q463.307 1474.3 463.307 1481.17 Q463.307 1485.66 461.206 1488.62 Q459.137 1491.58 455.158 1492.72 M439.053 1472.77 L439.053 1489.64 L447.138 1489.64 Q451.785 1489.64 454.14 1487.5 Q456.527 1485.34 456.527 1481.17 Q456.527 1477 454.14 1474.9 Q451.785 1472.77 447.138 1472.77 L439.053 1472.77 Z" fill="#000000" fill-rule="nonzero" fill-opacity="1" /><path clip-path="url(#clip480)" d="M505.225 1495.72 L505.225 1498.58 L478.298 1498.58 Q478.68 1504.63 481.926 1507.81 Q485.205 1510.96 491.029 1510.96 Q494.403 1510.96 497.554 1510.13 Q500.737 1509.31 503.856 1507.65 L503.856 1513.19 Q500.705 1514.53 497.395 1515.23 Q494.085 1515.93 490.679 1515.93 Q482.149 1515.93 477.152 1510.96 Q472.187 1506 472.187 1497.53 Q472.187 1488.78 476.897 1483.65 Q481.64 1478.5 489.661 1478.5 Q496.854 1478.5 501.023 1483.14 Q505.225 1487.76 505.225 1495.72 M499.368 1494 Q499.305 1489.19 496.663 1486.33 Q494.053 1483.46 489.724 1483.46 Q484.823 1483.46 481.863 1486.23 Q478.934 1489 478.489 1494.03 L499.368 1494 Z" fill="#000000" fill-rule="nonzero" fill-opacity="1" /><path clip-path="url(#clip480)" d="M538.295 1496.77 Q538.295 1490.4 535.653 1486.9 Q533.043 1483.4 528.3 1483.4 Q523.59 1483.4 520.948 1486.9 Q518.338 1490.4 518.338 1496.77 Q518.338 1503.1 520.948 1506.6 Q523.59 1510.1 528.3 1510.1 Q533.043 1510.1 535.653 1506.6 Q538.295 1503.1 538.295 1496.77 M544.151 1510.58 Q544.151 1519.68 540.109 1524.11 Q536.067 1528.56 527.727 1528.56 Q524.64 1528.56 521.903 1528.09 Q519.166 1527.64 516.587 1526.68 L516.587 1520.99 Q519.166 1522.39 521.68 1523.06 Q524.195 1523.72 526.804 1523.72 Q532.565 1523.72 535.43 1520.7 Q538.295 1517.71 538.295 1511.63 L538.295 1508.73 Q536.48 1511.88 533.648 1513.44 Q530.815 1515 526.868 1515 Q520.311 1515 516.301 1510.01 Q512.291 1505.01 512.291 1496.77 Q512.291 1488.49 516.301 1483.49 Q520.311 1478.5 526.868 1478.5 Q530.815 1478.5 533.648 1480.06 Q536.48 1481.62 538.295 1484.77 L538.295 1479.36 L544.151 1479.36 L544.151 1510.58 Z" fill="#000000" fill-rule="nonzero" fill-opacity="1" /><path clip-path="url(#clip480)" d="M555.609 1500.94 L555.609 1479.36 L561.466 1479.36 L561.466 1500.71 Q561.466 1505.77 563.439 1508.32 Q565.412 1510.83 569.359 1510.83 Q574.102 1510.83 576.839 1507.81 Q579.608 1504.79 579.608 1499.57 L579.608 1479.36 L585.464 1479.36 L585.464 1515 L579.608 1515 L579.608 1509.53 Q577.475 1512.78 574.643 1514.37 Q571.842 1515.93 568.118 1515.93 Q561.975 1515.93 558.792 1512.11 Q555.609 1508.29 555.609 1500.94 M570.346 1478.5 L570.346 1478.5 Z" fill="#000000" fill-rule="nonzero" fill-opacity="1" /><path clip-path="url(#clip480)" d="M597.527 1465.48 L603.384 1465.48 L603.384 1515 L597.527 1515 L597.527 1465.48 Z" fill="#000000" fill-rule="nonzero" fill-opacity="1" /><path clip-path="url(#clip480)" d="M631.839 1497.08 Q624.741 1497.08 622.004 1498.71 Q619.266 1500.33 619.266 1504.25 Q619.266 1507.36 621.303 1509.21 Q623.372 1511.03 626.905 1511.03 Q631.775 1511.03 634.703 1507.59 Q637.663 1504.12 637.663 1498.39 L637.663 1497.08 L631.839 1497.08 M643.52 1494.67 L643.52 1515 L637.663 1515 L637.663 1509.59 Q635.658 1512.84 632.666 1514.4 Q629.674 1515.93 625.346 1515.93 Q619.871 1515.93 616.625 1512.87 Q613.41 1509.78 613.41 1504.63 Q613.41 1498.61 617.42 1495.56 Q621.463 1492.5 629.451 1492.5 L637.663 1492.5 L637.663 1491.93 Q637.663 1487.89 634.99 1485.69 Q632.348 1483.46 627.542 1483.46 Q624.486 1483.46 621.59 1484.19 Q618.693 1484.93 616.02 1486.39 L616.02 1480.98 Q619.235 1479.74 622.258 1479.13 Q625.282 1478.5 628.147 1478.5 Q635.881 1478.5 639.7 1482.51 Q643.52 1486.52 643.52 1494.67 Z" fill="#000000" fill-rule="nonzero" fill-opacity="1" /><path clip-path="url(#clip480)" d="M676.239 1484.83 Q675.253 1484.26 674.075 1484 Q672.929 1483.72 671.529 1483.72 Q666.564 1483.72 663.89 1486.96 Q661.248 1490.18 661.248 1496.23 L661.248 1515 L655.36 1515 L655.36 1479.36 L661.248 1479.36 L661.248 1484.89 Q663.094 1481.65 666.054 1480.09 Q669.014 1478.5 673.248 1478.5 Q673.852 1478.5 674.584 1478.59 Q675.316 1478.66 676.208 1478.81 L676.239 1484.83 Z" fill="#000000" fill-rule="nonzero" fill-opacity="1" /><path clip-path="url(#clip480)" d="M682.382 1479.36 L688.239 1479.36 L688.239 1515 L682.382 1515 L682.382 1479.36 M682.382 1465.48 L688.239 1465.48 L688.239 1472.89 L682.382 1472.89 L682.382 1465.48 Z" fill="#000000" fill-rule="nonzero" fill-opacity="1" /><path clip-path="url(#clip480)" d="M723.218 1480.41 L723.218 1485.94 Q720.736 1484.67 718.062 1484.03 Q715.389 1483.4 712.524 1483.4 Q708.163 1483.4 705.967 1484.73 Q703.803 1486.07 703.803 1488.75 Q703.803 1490.78 705.363 1491.96 Q706.922 1493.11 711.633 1494.16 L713.638 1494.6 Q719.876 1495.94 722.486 1498.39 Q725.128 1500.81 725.128 1505.17 Q725.128 1510.13 721.181 1513.03 Q717.266 1515.93 710.391 1515.93 Q707.527 1515.93 704.408 1515.35 Q701.32 1514.81 697.883 1513.7 L697.883 1507.65 Q701.129 1509.34 704.28 1510.2 Q707.431 1511.03 710.519 1511.03 Q714.656 1511.03 716.884 1509.62 Q719.112 1508.19 719.112 1505.61 Q719.112 1503.23 717.489 1501.95 Q715.898 1500.68 710.455 1499.5 L708.418 1499.03 Q702.975 1497.88 700.556 1495.52 Q698.137 1493.14 698.137 1489 Q698.137 1483.97 701.702 1481.23 Q705.267 1478.5 711.824 1478.5 Q715.07 1478.5 717.935 1478.97 Q720.799 1479.45 723.218 1480.41 Z" fill="#000000" fill-rule="nonzero" fill-opacity="1" /><path clip-path="url(#clip480)" d="M750.655 1497.08 Q743.557 1497.08 740.82 1498.71 Q738.082 1500.33 738.082 1504.25 Q738.082 1507.36 740.119 1509.21 Q742.188 1511.03 745.721 1511.03 Q750.591 1511.03 753.519 1507.59 Q756.479 1504.12 756.479 1498.39 L756.479 1497.08 L750.655 1497.08 M762.336 1494.67 L762.336 1515 L756.479 1515 L756.479 1509.59 Q754.474 1512.84 751.482 1514.4 Q748.49 1515.93 744.162 1515.93 Q738.687 1515.93 735.44 1512.87 Q732.226 1509.78 732.226 1504.63 Q732.226 1498.61 736.236 1495.56 Q740.278 1492.5 748.267 1492.5 L756.479 1492.5 L756.479 1491.93 Q756.479 1487.89 753.806 1485.69 Q751.164 1483.46 746.358 1483.46 Q743.302 1483.46 740.406 1484.19 Q737.509 1484.93 734.836 1486.39 L734.836 1480.98 Q738.05 1479.74 741.074 1479.13 Q744.098 1478.5 746.962 1478.5 Q754.697 1478.5 758.516 1482.51 Q762.336 1486.52 762.336 1494.67 Z" fill="#000000" fill-rule="nonzero" fill-opacity="1" /><path clip-path="url(#clip480)" d="M780.191 1469.23 L780.191 1479.36 L792.254 1479.36 L792.254 1483.91 L780.191 1483.91 L780.191 1503.26 Q780.191 1507.62 781.369 1508.86 Q782.579 1510.1 786.239 1510.1 L792.254 1510.1 L792.254 1515 L786.239 1515 Q779.459 1515 776.881 1512.49 Q774.303 1509.94 774.303 1503.26 L774.303 1483.91 L770.006 1483.91 L770.006 1479.36 L774.303 1479.36 L774.303 1469.23 L780.191 1469.23 Z" fill="#000000" fill-rule="nonzero" fill-opacity="1" /><path clip-path="url(#clip480)" d="M799.957 1479.36 L805.813 1479.36 L805.813 1515 L799.957 1515 L799.957 1479.36 M799.957 1465.48 L805.813 1465.48 L805.813 1472.89 L799.957 1472.89 L799.957 1465.48 Z" fill="#000000" fill-rule="nonzero" fill-opacity="1" /><path clip-path="url(#clip480)" d="M831.881 1483.46 Q827.17 1483.46 824.433 1487.15 Q821.696 1490.81 821.696 1497.21 Q821.696 1503.61 824.401 1507.3 Q827.138 1510.96 831.881 1510.96 Q836.56 1510.96 839.297 1507.27 Q842.034 1503.58 842.034 1497.21 Q842.034 1490.88 839.297 1487.19 Q836.56 1483.46 831.881 1483.46 M831.881 1478.5 Q839.52 1478.5 843.88 1483.46 Q848.241 1488.43 848.241 1497.21 Q848.241 1505.96 843.88 1510.96 Q839.52 1515.93 831.881 1515.93 Q824.21 1515.93 819.85 1510.96 Q815.521 1505.96 815.521 1497.21 Q815.521 1488.43 819.85 1483.46 Q824.21 1478.5 831.881 1478.5 Z" fill="#000000" fill-rule="nonzero" fill-opacity="1" /><path clip-path="url(#clip480)" d="M887.581 1493.49 L887.581 1515 L881.724 1515 L881.724 1493.68 Q881.724 1488.62 879.751 1486.1 Q877.778 1483.59 873.831 1483.59 Q869.089 1483.59 866.351 1486.61 Q863.614 1489.64 863.614 1494.86 L863.614 1515 L857.726 1515 L857.726 1479.36 L863.614 1479.36 L863.614 1484.89 Q865.715 1481.68 868.547 1480.09 Q871.412 1478.5 875.136 1478.5 Q881.279 1478.5 884.43 1482.32 Q887.581 1486.1 887.581 1493.49 Z" fill="#000000" fill-rule="nonzero" fill-opacity="1" /><path clip-path="url(#clip480)" d="M926.666 1472.77 L926.666 1490.62 L934.751 1490.62 Q939.239 1490.62 941.689 1488.3 Q944.14 1485.98 944.14 1481.68 Q944.14 1477.41 941.689 1475.09 Q939.239 1472.77 934.751 1472.77 L926.666 1472.77 M920.237 1467.48 L934.751 1467.48 Q942.74 1467.48 946.814 1471.11 Q950.92 1474.71 950.92 1481.68 Q950.92 1488.71 946.814 1492.31 Q942.74 1495.91 934.751 1495.91 L926.666 1495.91 L926.666 1515 L920.237 1515 L920.237 1467.48 Z" fill="#000000" fill-rule="nonzero" fill-opacity="1" /><path clip-path="url(#clip480)" d="M972.563 1497.08 Q965.465 1497.08 962.728 1498.71 Q959.991 1500.33 959.991 1504.25 Q959.991 1507.36 962.028 1509.21 Q964.097 1511.03 967.63 1511.03 Q972.499 1511.03 975.428 1507.59 Q978.388 1504.12 978.388 1498.39 L978.388 1497.08 L972.563 1497.08 M984.244 1494.67 L984.244 1515 L978.388 1515 L978.388 1509.59 Q976.382 1512.84 973.391 1514.4 Q970.399 1515.93 966.07 1515.93 Q960.596 1515.93 957.349 1512.87 Q954.134 1509.78 954.134 1504.63 Q954.134 1498.61 958.145 1495.56 Q962.187 1492.5 970.176 1492.5 L978.388 1492.5 L978.388 1491.93 Q978.388 1487.89 975.714 1485.69 Q973.072 1483.46 968.266 1483.46 Q965.211 1483.46 962.314 1484.19 Q959.418 1484.93 956.744 1486.39 L956.744 1480.98 Q959.959 1479.74 962.983 1479.13 Q966.006 1478.5 968.871 1478.5 Q976.605 1478.5 980.425 1482.51 Q984.244 1486.52 984.244 1494.67 Z" fill="#000000" fill-rule="nonzero" fill-opacity="1" /><path clip-path="url(#clip480)" d="M1016.96 1484.83 Q1015.98 1484.26 1014.8 1484 Q1013.65 1483.72 1012.25 1483.72 Q1007.29 1483.72 1004.61 1486.96 Q1001.97 1490.18 1001.97 1496.23 L1001.97 1515 L996.084 1515 L996.084 1479.36 L1001.97 1479.36 L1001.97 1484.89 Q1003.82 1481.65 1006.78 1480.09 Q1009.74 1478.5 1013.97 1478.5 Q1014.58 1478.5 1015.31 1478.59 Q1016.04 1478.66 1016.93 1478.81 L1016.96 1484.83 Z" fill="#000000" fill-rule="nonzero" fill-opacity="1" /><path clip-path="url(#clip480)" d="M1039.31 1497.08 Q1032.21 1497.08 1029.47 1498.71 Q1026.74 1500.33 1026.74 1504.25 Q1026.74 1507.36 1028.77 1509.21 Q1030.84 1511.03 1034.37 1511.03 Q1039.24 1511.03 1042.17 1507.59 Q1045.13 1504.12 1045.13 1498.39 L1045.13 1497.08 L1039.31 1497.08 M1050.99 1494.67 L1050.99 1515 L1045.13 1515 L1045.13 1509.59 Q1043.13 1512.84 1040.14 1514.4 Q1037.14 1515.93 1032.81 1515.93 Q1027.34 1515.93 1024.09 1512.87 Q1020.88 1509.78 1020.88 1504.63 Q1020.88 1498.61 1024.89 1495.56 Q1028.93 1492.5 1036.92 1492.5 L1045.13 1492.5 L1045.13 1491.93 Q1045.13 1487.89 1042.46 1485.69 Q1039.82 1483.46 1035.01 1483.46 Q1031.96 1483.46 1029.06 1484.19 Q1026.16 1484.93 1023.49 1486.39 L1023.49 1480.98 Q1026.7 1479.74 1029.73 1479.13 Q1032.75 1478.5 1035.62 1478.5 Q1043.35 1478.5 1047.17 1482.51 Q1050.99 1486.52 1050.99 1494.67 Z" fill="#000000" fill-rule="nonzero" fill-opacity="1" /><path clip-path="url(#clip480)" d="M1090.81 1486.2 Q1093 1482.25 1096.06 1480.37 Q1099.11 1478.5 1103.25 1478.5 Q1108.82 1478.5 1111.84 1482.41 Q1114.87 1486.29 1114.87 1493.49 L1114.87 1515 L1108.98 1515 L1108.98 1493.68 Q1108.98 1488.55 1107.17 1486.07 Q1105.35 1483.59 1101.63 1483.59 Q1097.08 1483.59 1094.43 1486.61 Q1091.79 1489.64 1091.79 1494.86 L1091.79 1515 L1085.9 1515 L1085.9 1493.68 Q1085.9 1488.52 1084.09 1486.07 Q1082.28 1483.59 1078.49 1483.59 Q1074 1483.59 1071.36 1486.64 Q1068.72 1489.67 1068.72 1494.86 L1068.72 1515 L1062.83 1515 L1062.83 1479.36 L1068.72 1479.36 L1068.72 1484.89 Q1070.72 1481.62 1073.52 1480.06 Q1076.32 1478.5 1080.18 1478.5 Q1084.06 1478.5 1086.76 1480.47 Q1089.5 1482.44 1090.81 1486.2 Z" fill="#000000" fill-rule="nonzero" fill-opacity="1" /><path clip-path="url(#clip480)" d="M1157.04 1495.72 L1157.04 1498.58 L1130.11 1498.58 Q1130.5 1504.63 1133.74 1507.81 Q1137.02 1510.96 1142.85 1510.96 Q1146.22 1510.96 1149.37 1510.13 Q1152.55 1509.31 1155.67 1507.65 L1155.67 1513.19 Q1152.52 1514.53 1149.21 1515.23 Q1145.9 1515.93 1142.5 1515.93 Q1133.97 1515.93 1128.97 1510.96 Q1124 1506 1124 1497.53 Q1124 1488.78 1128.71 1483.65 Q1133.46 1478.5 1141.48 1478.5 Q1148.67 1478.5 1152.84 1483.14 Q1157.04 1487.76 1157.04 1495.72 M1151.18 1494 Q1151.12 1489.19 1148.48 1486.33 Q1145.87 1483.46 1141.54 1483.46 Q1136.64 1483.46 1133.68 1486.23 Q1130.75 1489 1130.31 1494.03 L1151.18 1494 Z" fill="#000000" fill-rule="nonzero" fill-opacity="1" /><path clip-path="url(#clip480)" d="M1172.45 1469.23 L1172.45 1479.36 L1184.51 1479.36 L1184.51 1483.91 L1172.45 1483.91 L1172.45 1503.26 Q1172.45 1507.62 1173.62 1508.86 Q1174.83 1510.1 1178.49 1510.1 L1184.51 1510.1 L1184.51 1515 L1178.49 1515 Q1171.71 1515 1169.14 1512.49 Q1166.56 1509.94 1166.56 1503.26 L1166.56 1483.91 L1162.26 1483.91 L1162.26 1479.36 L1166.56 1479.36 L1166.56 1469.23 L1172.45 1469.23 Z" fill="#000000" fill-rule="nonzero" fill-opacity="1" /><path clip-path="url(#clip480)" d="M1222.7 1495.72 L1222.7 1498.58 L1195.78 1498.58 Q1196.16 1504.63 1199.41 1507.81 Q1202.68 1510.96 1208.51 1510.96 Q1211.88 1510.96 1215.03 1510.13 Q1218.22 1509.31 1221.33 1507.65 L1221.33 1513.19 Q1218.18 1514.53 1214.87 1515.23 Q1211.56 1515.93 1208.16 1515.93 Q1199.63 1515.93 1194.63 1510.96 Q1189.67 1506 1189.67 1497.53 Q1189.67 1488.78 1194.38 1483.65 Q1199.12 1478.5 1207.14 1478.5 Q1214.33 1478.5 1218.5 1483.14 Q1222.7 1487.76 1222.7 1495.72 M1216.85 1494 Q1216.78 1489.19 1214.14 1486.33 Q1211.53 1483.46 1207.2 1483.46 Q1202.3 1483.46 1199.34 1486.23 Q1196.41 1489 1195.97 1494.03 L1216.85 1494 Z" fill="#000000" fill-rule="nonzero" fill-opacity="1" /><path clip-path="url(#clip480)" d="M1252.97 1484.83 Q1251.99 1484.26 1250.81 1484 Q1249.66 1483.72 1248.26 1483.72 Q1243.3 1483.72 1240.62 1486.96 Q1237.98 1490.18 1237.98 1496.23 L1237.98 1515 L1232.09 1515 L1232.09 1479.36 L1237.98 1479.36 L1237.98 1484.89 Q1239.83 1481.65 1242.79 1480.09 Q1245.75 1478.5 1249.98 1478.5 Q1250.59 1478.5 1251.32 1478.59 Q1252.05 1478.66 1252.94 1478.81 L1252.97 1484.83 Z" fill="#000000" fill-rule="nonzero" fill-opacity="1" /><path clip-path="url(#clip480)" d="M1293.9 1465.54 Q1289.64 1472.86 1287.57 1480.02 Q1285.5 1487.19 1285.5 1494.54 Q1285.5 1501.89 1287.57 1509.12 Q1289.67 1516.31 1293.9 1523.6 L1288.81 1523.6 Q1284.04 1516.12 1281.65 1508.89 Q1279.29 1501.67 1279.29 1494.54 Q1279.29 1487.44 1281.65 1480.25 Q1284.01 1473.05 1288.81 1465.54 L1293.9 1465.54 Z" fill="#000000" fill-rule="nonzero" fill-opacity="1" /><path clip-path="url(#clip480)" d="M1319.3 1471.05 L1335.76 1515 L1329.55 1515 L1319.56 1488.65 L1307.27 1515 L1301.07 1515 L1316.69 1480.82 L1314.34 1474.52 Q1312.84 1470.51 1309.44 1470.51 L1306.38 1470.51 L1306.38 1465.48 L1310.1 1465.54 Q1317.3 1465.64 1319.3 1471.05 Z" fill="#000000" fill-rule="nonzero" fill-opacity="1" /><path clip-path="url(#clip480)" d="M1342.92 1465.54 L1348.01 1465.54 Q1352.79 1473.05 1355.14 1480.25 Q1357.53 1487.44 1357.53 1494.54 Q1357.53 1501.67 1355.14 1508.89 Q1352.79 1516.12 1348.01 1523.6 L1342.92 1523.6 Q1347.15 1516.31 1349.22 1509.12 Q1351.32 1501.89 1351.32 1494.54 Q1351.32 1487.19 1349.22 1480.02 Q1347.15 1472.86 1342.92 1465.54 Z" fill="#000000" fill-rule="nonzero" fill-opacity="1" /><polyline clip-path="url(#clip480)" style="stroke:#000000; stroke-linecap:round; stroke-linejoin:round; stroke-width:4; stroke-opacity:1; fill:none" points="237.397,1363.72 237.397,47.2441 "/>
<polyline clip-path="url(#clip480)" style="stroke:#000000; stroke-linecap:round; stroke-linejoin:round; stroke-width:4; stroke-opacity:1; fill:none" points="237.397,822.108 256.295,822.108 "/>
<polyline clip-path="url(#clip480)" style="stroke:#000000; stroke-linecap:round; stroke-linejoin:round; stroke-width:4; stroke-opacity:1; fill:none" points="237.397,47.2441 256.295,47.2441 "/>
<path clip-path="url(#clip480)" d="M142.691 841.901 L150.33 841.901 L150.33 815.535 L142.02 817.202 L142.02 812.943 L150.284 811.276 L154.96 811.276 L154.96 841.901 L162.599 841.901 L162.599 845.836 L142.691 845.836 L142.691 841.901 Z" fill="#000000" fill-rule="nonzero" fill-opacity="1" /><path clip-path="url(#clip480)" d="M182.043 814.355 Q178.432 814.355 176.603 817.919 Q174.798 821.461 174.798 828.591 Q174.798 835.697 176.603 839.262 Q178.432 842.803 182.043 842.803 Q185.677 842.803 187.483 839.262 Q189.312 835.697 189.312 828.591 Q189.312 821.461 187.483 817.919 Q185.677 814.355 182.043 814.355 M182.043 810.651 Q187.853 810.651 190.909 815.257 Q193.987 819.841 193.987 828.591 Q193.987 837.317 190.909 841.924 Q187.853 846.507 182.043 846.507 Q176.233 846.507 173.154 841.924 Q170.099 837.317 170.099 828.591 Q170.099 819.841 173.154 815.257 Q176.233 810.651 182.043 810.651 Z" fill="#000000" fill-rule="nonzero" fill-opacity="1" /><path clip-path="url(#clip480)" d="M203.692 792.847 Q200.758 792.847 199.272 795.743 Q197.805 798.621 197.805 804.414 Q197.805 810.188 199.272 813.084 Q200.758 815.962 203.692 815.962 Q206.645 815.962 208.112 813.084 Q209.598 810.188 209.598 804.414 Q209.598 798.621 208.112 795.743 Q206.645 792.847 203.692 792.847 M203.692 789.838 Q208.413 789.838 210.896 793.58 Q213.397 797.304 213.397 804.414 Q213.397 811.504 210.896 815.247 Q208.413 818.971 203.692 818.971 Q198.972 818.971 196.47 815.247 Q193.987 811.504 193.987 804.414 Q193.987 797.304 196.47 793.58 Q198.972 789.838 203.692 789.838 Z" fill="#000000" fill-rule="nonzero" fill-opacity="1" /><path clip-path="url(#clip480)" d="M145.381 67.0365 L153.02 67.0365 L153.02 40.6709 L144.71 42.3376 L144.71 38.0784 L152.974 36.4117 L157.649 36.4117 L157.649 67.0365 L165.288 67.0365 L165.288 70.9717 L145.381 70.9717 L145.381 67.0365 Z" fill="#000000" fill-rule="nonzero" fill-opacity="1" /><path clip-path="url(#clip480)" d="M184.733 39.4904 Q181.122 39.4904 179.293 43.0552 Q177.487 46.5968 177.487 53.7264 Q177.487 60.8329 179.293 64.3977 Q181.122 67.9393 184.733 67.9393 Q188.367 67.9393 190.172 64.3977 Q192.001 60.8329 192.001 53.7264 Q192.001 46.5968 190.172 43.0552 Q188.367 39.4904 184.733 39.4904 M184.733 35.7867 Q190.543 35.7867 193.598 40.3932 Q196.677 44.9765 196.677 53.7264 Q196.677 62.4532 193.598 67.0597 Q190.543 71.643 184.733 71.643 Q178.922 71.643 175.844 67.0597 Q172.788 62.4532 172.788 53.7264 Q172.788 44.9765 175.844 40.3932 Q178.922 35.7867 184.733 35.7867 Z" fill="#000000" fill-rule="nonzero" fill-opacity="1" /><path clip-path="url(#clip480)" d="M197.222 40.364 L203.429 40.364 L203.429 18.9419 L196.677 20.2961 L196.677 16.8355 L203.391 15.4813 L207.191 15.4813 L207.191 40.364 L213.397 40.364 L213.397 43.5613 L197.222 43.5613 L197.222 40.364 Z" fill="#000000" fill-rule="nonzero" fill-opacity="1" /><path clip-path="url(#clip480)" d="M81.4842 913.877 Q82.1844 911.808 84.4761 909.866 Q86.7677 907.893 90.7781 905.92 L103.764 899.395 L103.764 906.302 L91.5738 912.381 Q86.7995 914.736 85.24 916.964 Q83.6804 919.16 83.6804 922.98 L83.6804 929.982 L103.764 929.982 L103.764 936.411 L56.2442 936.411 L56.2442 921.898 Q56.2442 913.75 59.6498 909.739 Q63.0555 905.729 69.9304 905.729 Q74.4182 905.729 77.3783 907.829 Q80.3384 909.898 81.4842 913.877 M61.5277 929.982 L78.3968 929.982 L78.3968 921.898 Q78.3968 917.251 76.2643 914.895 Q74.1 912.508 69.9304 912.508 Q65.7609 912.508 63.6602 914.895 Q61.5277 917.251 61.5277 921.898 L61.5277 929.982 Z" fill="#000000" fill-rule="nonzero" fill-opacity="1" /><path clip-path="url(#clip480)" d="M84.4761 863.811 L87.3406 863.811 L87.3406 890.738 Q93.3881 890.356 96.5709 887.109 Q99.7219 883.831 99.7219 878.006 Q99.7219 874.632 98.8944 871.481 Q98.0669 868.298 96.4118 865.179 L101.95 865.179 Q103.287 868.33 103.987 871.64 Q104.687 874.951 104.687 878.356 Q104.687 886.886 99.7219 891.883 Q94.7567 896.849 86.2903 896.849 Q77.5374 896.849 72.4131 892.138 Q67.2568 887.396 67.2568 879.375 Q67.2568 872.182 71.9038 868.012 Q76.5189 863.811 84.4761 863.811 M82.7573 869.667 Q77.9512 869.731 75.0866 872.372 Q72.2221 874.982 72.2221 879.311 Q72.2221 884.213 74.9912 887.173 Q77.7602 890.101 82.7892 890.547 L82.7573 869.667 Z" fill="#000000" fill-rule="nonzero" fill-opacity="1" /><path clip-path="url(#clip480)" d="M69.1665 831.473 L74.7047 831.473 Q73.4316 833.955 72.795 836.629 Q72.1584 839.303 72.1584 842.167 Q72.1584 846.528 73.4952 848.724 Q74.832 850.888 77.5056 850.888 Q79.5426 850.888 80.7203 849.329 Q81.8661 847.769 82.9165 843.058 L83.3621 841.053 Q84.6989 834.815 87.1497 832.205 Q89.5686 829.563 93.9291 829.563 Q98.8944 829.563 101.791 833.51 Q104.687 837.425 104.687 844.3 Q104.687 847.164 104.114 850.283 Q103.573 853.371 102.459 856.808 L96.4118 856.808 Q98.0987 853.562 98.958 850.411 Q99.7856 847.26 99.7856 844.172 Q99.7856 840.035 98.3851 837.807 Q96.9529 835.579 94.3747 835.579 Q91.9876 835.579 90.7145 837.202 Q89.4413 838.793 88.2637 844.236 L87.7862 846.273 Q86.6404 851.716 84.2851 854.135 Q81.898 856.554 77.7602 856.554 Q72.7313 856.554 69.9941 852.989 Q67.2568 849.424 67.2568 842.867 Q67.2568 839.621 67.7343 836.756 Q68.2117 833.892 69.1665 831.473 Z" fill="#000000" fill-rule="nonzero" fill-opacity="1" /><path clip-path="url(#clip480)" d="M68.1162 820.237 L68.1162 814.381 L103.764 814.381 L103.764 820.237 L68.1162 820.237 M54.239 820.237 L54.239 814.381 L61.655 814.381 L61.655 820.237 L54.239 820.237 Z" fill="#000000" fill-rule="nonzero" fill-opacity="1" /><path clip-path="url(#clip480)" d="M73.5271 778.669 L54.239 778.669 L54.239 772.813 L103.764 772.813 L103.764 778.669 L98.417 778.669 Q101.6 780.515 103.159 783.348 Q104.687 786.149 104.687 790.096 Q104.687 796.557 99.531 800.631 Q94.3747 804.673 85.972 804.673 Q77.5693 804.673 72.4131 800.631 Q67.2568 796.557 67.2568 790.096 Q67.2568 786.149 68.8164 783.348 Q70.3442 780.515 73.5271 778.669 M85.972 798.626 Q92.4332 798.626 96.1253 795.984 Q99.7856 793.31 99.7856 788.663 Q99.7856 784.016 96.1253 781.343 Q92.4332 778.669 85.972 778.669 Q79.5108 778.669 75.8505 781.343 Q72.1584 784.016 72.1584 788.663 Q72.1584 793.31 75.8505 795.984 Q79.5108 798.626 85.972 798.626 Z" fill="#000000" fill-rule="nonzero" fill-opacity="1" /><path clip-path="url(#clip480)" d="M89.6959 761.355 L68.1162 761.355 L68.1162 755.498 L89.4731 755.498 Q94.5339 755.498 97.0802 753.525 Q99.5946 751.551 99.5946 747.605 Q99.5946 742.862 96.5709 740.125 Q93.5472 737.356 88.3273 737.356 L68.1162 737.356 L68.1162 731.499 L103.764 731.499 L103.764 737.356 L98.2896 737.356 Q101.536 739.488 103.128 742.321 Q104.687 745.122 104.687 748.846 Q104.687 754.989 100.868 758.172 Q97.0483 761.355 89.6959 761.355 M67.2568 746.618 L67.2568 746.618 Z" fill="#000000" fill-rule="nonzero" fill-opacity="1" /><path clip-path="url(#clip480)" d="M85.8447 703.236 Q85.8447 710.333 87.4679 713.071 Q89.0912 715.808 93.0061 715.808 Q96.1253 715.808 97.9714 713.771 Q99.7856 711.702 99.7856 708.169 Q99.7856 703.299 96.3481 700.371 Q92.8788 697.411 87.1497 697.411 L85.8447 697.411 L85.8447 703.236 M83.4257 691.555 L103.764 691.555 L103.764 697.411 L98.3533 697.411 Q101.6 699.416 103.159 702.408 Q104.687 705.4 104.687 709.729 Q104.687 715.203 101.632 718.45 Q98.5443 721.664 93.3881 721.664 Q87.3725 721.664 84.3169 717.654 Q81.2614 713.612 81.2614 705.623 L81.2614 697.411 L80.6885 697.411 Q76.6462 697.411 74.4501 700.085 Q72.2221 702.726 72.2221 707.533 Q72.2221 710.588 72.9541 713.484 Q73.6862 716.381 75.1503 719.054 L69.7395 719.054 Q68.4981 715.84 67.8934 712.816 Q67.2568 709.792 67.2568 706.928 Q67.2568 699.193 71.2672 695.374 Q75.2776 691.555 83.4257 691.555 Z" fill="#000000" fill-rule="nonzero" fill-opacity="1" /><path clip-path="url(#clip480)" d="M54.239 679.492 L54.239 673.635 L103.764 673.635 L103.764 679.492 L54.239 679.492 Z" fill="#000000" fill-rule="nonzero" fill-opacity="1" /><path clip-path="url(#clip480)" d="M56.2442 640.406 L56.2442 631.749 L95.998 610.678 L56.2442 610.678 L56.2442 604.44 L103.764 604.44 L103.764 613.097 L64.0103 634.168 L103.764 634.168 L103.764 640.406 L56.2442 640.406 Z" fill="#000000" fill-rule="nonzero" fill-opacity="1" /><path clip-path="url(#clip480)" d="M72.2221 578.086 Q72.2221 582.796 75.9142 585.534 Q79.5745 588.271 85.972 588.271 Q92.3695 588.271 96.0617 585.566 Q99.7219 582.828 99.7219 578.086 Q99.7219 573.407 96.0298 570.67 Q92.3377 567.933 85.972 567.933 Q79.6381 567.933 75.946 570.67 Q72.2221 573.407 72.2221 578.086 M67.2568 578.086 Q67.2568 570.447 72.2221 566.087 Q77.1873 561.726 85.972 561.726 Q94.7249 561.726 99.7219 566.087 Q104.687 570.447 104.687 578.086 Q104.687 585.757 99.7219 590.117 Q94.7249 594.446 85.972 594.446 Q77.1873 594.446 72.2221 590.117 Q67.2568 585.757 67.2568 578.086 Z" fill="#000000" fill-rule="nonzero" fill-opacity="1" /><path clip-path="url(#clip480)" d="M73.5907 531.362 Q73.0178 532.348 72.7632 533.526 Q72.4767 534.672 72.4767 536.072 Q72.4767 541.037 75.7232 543.711 Q78.9379 546.353 84.9853 546.353 L103.764 546.353 L103.764 552.241 L68.1162 552.241 L68.1162 546.353 L73.6544 546.353 Q70.4079 544.507 68.8483 541.547 Q67.2568 538.587 67.2568 534.353 Q67.2568 533.749 67.3523 533.017 Q67.416 532.285 67.5751 531.393 L73.5907 531.362 Z" fill="#000000" fill-rule="nonzero" fill-opacity="1" /><path clip-path="url(#clip480)" d="M74.9593 498.61 Q71.0126 496.414 69.1347 493.358 Q67.2568 490.303 67.2568 486.165 Q67.2568 480.595 71.1717 477.571 Q75.0548 474.548 82.2481 474.548 L103.764 474.548 L103.764 480.436 L82.439 480.436 Q77.3146 480.436 74.832 482.25 Q72.3494 484.064 72.3494 487.788 Q72.3494 492.34 75.3731 494.982 Q78.3968 497.623 83.6167 497.623 L103.764 497.623 L103.764 503.512 L82.439 503.512 Q77.2828 503.512 74.832 505.326 Q72.3494 507.14 72.3494 510.928 Q72.3494 515.415 75.4049 518.057 Q78.4286 520.699 83.6167 520.699 L103.764 520.699 L103.764 526.587 L68.1162 526.587 L68.1162 520.699 L73.6544 520.699 Q70.376 518.694 68.8164 515.893 Q67.2568 513.092 67.2568 509.241 Q67.2568 505.358 69.2302 502.652 Q71.2036 499.915 74.9593 498.61 Z" fill="#000000" fill-rule="nonzero" fill-opacity="1" /><polyline clip-path="url(#clip482)" style="stroke:#009af9; stroke-linecap:round; stroke-linejoin:round; stroke-width:4; stroke-opacity:1; fill:none" points="1515.53,306.092 1482.87,306.092 1450.22,306.092 1417.56,306.092 1384.91,306.092 1352.25,306.092 1319.6,306.092 1286.94,306.092 1254.29,306.092 1221.63,306.092 1188.97,306.092 1156.32,306.092 1123.66,324.049 1091.01,402.959 1058.35,470.046 1025.7,537.074 993.043,615.271 960.387,682.17 927.732,745.189 895.076,801.088 862.421,854.198 829.766,897.064 797.11,936.478 764.455,983.543 731.8,1015.17 699.144,1032.88 666.489,1046.87 633.833,1059.29 601.178,1067.48 568.523,1070.27 535.867,1076.7 503.212,1079.32 470.557,1080.94 437.901,1082.5 405.246,1083.25 372.59,1083.75 339.935,1084.07 307.28,1084.28 274.624,1084.41 "/>
<circle clip-path="url(#clip482)" style="fill:#009af9; stroke:none; fill-opacity:1" cx="1515.53" cy="306.092" r="2"/>
<circle clip-path="url(#clip482)" style="fill:#009af9; stroke:none; fill-opacity:1" cx="1482.87" cy="306.092" r="2"/>
<circle clip-path="url(#clip482)" style="fill:#009af9; stroke:none; fill-opacity:1" cx="1450.22" cy="306.092" r="2"/>
<circle clip-path="url(#clip482)" style="fill:#009af9; stroke:none; fill-opacity:1" cx="1417.56" cy="306.092" r="2"/>
<circle clip-path="url(#clip482)" style="fill:#009af9; stroke:none; fill-opacity:1" cx="1384.91" cy="306.092" r="2"/>
<circle clip-path="url(#clip482)" style="fill:#009af9; stroke:none; fill-opacity:1" cx="1352.25" cy="306.092" r="2"/>
<circle clip-path="url(#clip482)" style="fill:#009af9; stroke:none; fill-opacity:1" cx="1319.6" cy="306.092" r="2"/>
<circle clip-path="url(#clip482)" style="fill:#009af9; stroke:none; fill-opacity:1" cx="1286.94" cy="306.092" r="2"/>
<circle clip-path="url(#clip482)" style="fill:#009af9; stroke:none; fill-opacity:1" cx="1254.29" cy="306.092" r="2"/>
<circle clip-path="url(#clip482)" style="fill:#009af9; stroke:none; fill-opacity:1" cx="1221.63" cy="306.092" r="2"/>
<circle clip-path="url(#clip482)" style="fill:#009af9; stroke:none; fill-opacity:1" cx="1188.97" cy="306.092" r="2"/>
<circle clip-path="url(#clip482)" style="fill:#009af9; stroke:none; fill-opacity:1" cx="1156.32" cy="306.092" r="2"/>
<circle clip-path="url(#clip482)" style="fill:#009af9; stroke:none; fill-opacity:1" cx="1123.66" cy="324.049" r="2"/>
<circle clip-path="url(#clip482)" style="fill:#009af9; stroke:none; fill-opacity:1" cx="1091.01" cy="402.959" r="2"/>
<circle clip-path="url(#clip482)" style="fill:#009af9; stroke:none; fill-opacity:1" cx="1058.35" cy="470.046" r="2"/>
<circle clip-path="url(#clip482)" style="fill:#009af9; stroke:none; fill-opacity:1" cx="1025.7" cy="537.074" r="2"/>
<circle clip-path="url(#clip482)" style="fill:#009af9; stroke:none; fill-opacity:1" cx="993.043" cy="615.271" r="2"/>
<circle clip-path="url(#clip482)" style="fill:#009af9; stroke:none; fill-opacity:1" cx="960.387" cy="682.17" r="2"/>
<circle clip-path="url(#clip482)" style="fill:#009af9; stroke:none; fill-opacity:1" cx="927.732" cy="745.189" r="2"/>
<circle clip-path="url(#clip482)" style="fill:#009af9; stroke:none; fill-opacity:1" cx="895.076" cy="801.088" r="2"/>
<circle clip-path="url(#clip482)" style="fill:#009af9; stroke:none; fill-opacity:1" cx="862.421" cy="854.198" r="2"/>
<circle clip-path="url(#clip482)" style="fill:#009af9; stroke:none; fill-opacity:1" cx="829.766" cy="897.064" r="2"/>
<circle clip-path="url(#clip482)" style="fill:#009af9; stroke:none; fill-opacity:1" cx="797.11" cy="936.478" r="2"/>
<circle clip-path="url(#clip482)" style="fill:#009af9; stroke:none; fill-opacity:1" cx="764.455" cy="983.543" r="2"/>
<circle clip-path="url(#clip482)" style="fill:#009af9; stroke:none; fill-opacity:1" cx="731.8" cy="1015.17" r="2"/>
<circle clip-path="url(#clip482)" style="fill:#009af9; stroke:none; fill-opacity:1" cx="699.144" cy="1032.88" r="2"/>
<circle clip-path="url(#clip482)" style="fill:#009af9; stroke:none; fill-opacity:1" cx="666.489" cy="1046.87" r="2"/>
<circle clip-path="url(#clip482)" style="fill:#009af9; stroke:none; fill-opacity:1" cx="633.833" cy="1059.29" r="2"/>
<circle clip-path="url(#clip482)" style="fill:#009af9; stroke:none; fill-opacity:1" cx="601.178" cy="1067.48" r="2"/>
<circle clip-path="url(#clip482)" style="fill:#009af9; stroke:none; fill-opacity:1" cx="568.523" cy="1070.27" r="2"/>
<circle clip-path="url(#clip482)" style="fill:#009af9; stroke:none; fill-opacity:1" cx="535.867" cy="1076.7" r="2"/>
<circle clip-path="url(#clip482)" style="fill:#009af9; stroke:none; fill-opacity:1" cx="503.212" cy="1079.32" r="2"/>
<circle clip-path="url(#clip482)" style="fill:#009af9; stroke:none; fill-opacity:1" cx="470.557" cy="1080.94" r="2"/>
<circle clip-path="url(#clip482)" style="fill:#009af9; stroke:none; fill-opacity:1" cx="437.901" cy="1082.5" r="2"/>
<circle clip-path="url(#clip482)" style="fill:#009af9; stroke:none; fill-opacity:1" cx="405.246" cy="1083.25" r="2"/>
<circle clip-path="url(#clip482)" style="fill:#009af9; stroke:none; fill-opacity:1" cx="372.59" cy="1083.75" r="2"/>
<circle clip-path="url(#clip482)" style="fill:#009af9; stroke:none; fill-opacity:1" cx="339.935" cy="1084.07" r="2"/>
<circle clip-path="url(#clip482)" style="fill:#009af9; stroke:none; fill-opacity:1" cx="307.28" cy="1084.28" r="2"/>
<circle clip-path="url(#clip482)" style="fill:#009af9; stroke:none; fill-opacity:1" cx="274.624" cy="1084.41" r="2"/>
<polyline clip-path="url(#clip482)" style="stroke:#000000; stroke-linecap:round; stroke-linejoin:round; stroke-width:4; stroke-opacity:1; fill:none" stroke-dasharray="16, 10" points="-1077.96,1055.37 2868.11,1055.37 "/>
<circle clip-path="url(#clip482)" cx="568.523" cy="1070.27" r="14.4" fill="#ff0000" fill-rule="evenodd" fill-opacity="1" stroke="#000000" stroke-opacity="1" stroke-width="3.2"/>
<path clip-path="url(#clip480)" d="M281.242 195.758 L493.676 195.758 L493.676 91.1265 L281.242 91.1265  Z" fill="#ffffff" fill-rule="evenodd" fill-opacity="1"/>
<polyline clip-path="url(#clip480)" style="stroke:#000000; stroke-linecap:round; stroke-linejoin:round; stroke-width:4; stroke-opacity:1; fill:none" points="281.242,195.758 493.676,195.758 493.676,91.1265 281.242,91.1265 281.242,195.758 "/>
<circle clip-path="url(#clip480)" cx="339.703" cy="143.442" r="20.48" fill="#ff0000" fill-rule="evenodd" fill-opacity="1" stroke="#000000" stroke-opacity="1" stroke-width="4.55111"/>
<path clip-path="url(#clip480)" d="M421.89 150.3 Q421.89 150.745 421.375 150.792 L420.321 150.792 Q419.243 150.792 418.775 150.628 Q418.306 150.464 417.768 149.714 Q417.44 149.246 416.62 147.068 Q415.824 144.866 414.653 141.54 Q413.505 138.214 412.732 136.247 L401.185 149.878 Q400.388 150.886 399.592 150.886 Q399.006 150.886 398.585 150.487 Q398.163 150.089 398.163 149.48 Q398.163 149.035 398.327 148.778 Q398.515 148.52 399.006 148.005 L412.263 134.865 L407.602 121.818 Q406.712 119.406 406.197 118.797 Q405.705 118.188 404.487 117.977 Q404.042 117.86 404.042 117.485 Q404.042 116.97 404.909 116.97 Q409.546 116.97 410.764 120.366 L420.555 147.653 Q421.094 149.223 421.656 149.878 Q421.89 150.183 421.89 150.3 Z" fill="#000000" fill-rule="nonzero" fill-opacity="1" /><path clip-path="url(#clip480)" d="M428.997 161.351 Q426.783 159.154 426.783 155.973 Q426.783 152.776 428.947 150.448 Q431.128 148.103 434.243 148.103 Q437.293 148.103 439.473 150.431 Q441.67 152.743 441.67 155.973 Q441.67 159.137 439.457 161.334 Q437.26 163.531 434.21 163.531 Q431.226 163.531 428.997 161.351 M429.57 155.694 Q429.57 158.957 430.423 160.433 Q431.735 162.679 434.243 162.679 Q435.489 162.679 436.522 162.007 Q437.572 161.334 438.145 160.203 Q438.883 158.728 438.883 155.694 Q438.883 152.464 437.998 151.038 Q436.686 148.857 434.21 148.857 Q433.128 148.857 432.063 149.431 Q431.013 149.989 430.374 151.104 Q429.57 152.579 429.57 155.694 Z" fill="#000000" fill-rule="nonzero" fill-opacity="1" /><path clip-path="url(#clip480)" d="M440.858 168.631 Q442.645 168.631 443.055 168.401 Q443.482 168.188 443.482 167.122 L443.482 151.399 Q443.482 150.284 443.055 150.005 Q442.645 149.726 440.858 149.726 L440.858 148.677 L445.695 148.316 L445.695 150.53 Q447.712 148.316 450.401 148.316 Q453.253 148.316 455.336 150.53 Q457.418 152.743 457.418 155.907 Q457.418 159.105 455.204 161.318 Q452.991 163.531 449.925 163.531 Q448.253 163.531 447.121 162.679 Q446.006 161.81 445.793 161.17 L445.793 161.482 L445.793 167.122 Q445.793 168.204 446.22 168.417 Q446.646 168.631 448.417 168.631 L448.417 169.663 Q444.892 169.565 444.629 169.565 Q444.301 169.565 440.858 169.663 L440.858 168.631 M445.793 159.334 Q445.793 159.842 445.859 160.023 Q445.941 160.203 446.269 160.744 Q447.597 162.777 449.761 162.777 Q449.777 162.777 449.794 162.777 Q451.712 162.777 453.171 160.826 Q454.631 158.859 454.631 155.907 Q454.631 153.087 453.303 151.12 Q451.975 149.152 450.138 149.152 Q448.827 149.152 447.679 149.857 Q446.531 150.562 445.793 151.841 L445.793 159.334 Z" fill="#000000" fill-rule="nonzero" fill-opacity="1" /><path clip-path="url(#clip480)" d="M461.048 149.726 L461.048 148.988 Q462.589 148.923 463.605 147.841 Q464.638 146.742 464.983 145.398 Q465.343 144.053 465.376 142.496 L466.212 142.496 L466.212 148.677 L471.016 148.677 L471.016 149.726 L466.212 149.726 L466.212 159.055 Q466.212 162.679 468.475 162.679 Q469.442 162.679 470.082 161.695 Q470.721 160.695 470.721 158.924 L470.721 157.072 L471.557 157.072 L471.557 158.99 Q471.557 160.81 470.721 162.171 Q469.885 163.531 468.229 163.531 Q467.622 163.531 467.016 163.368 Q466.425 163.22 465.638 162.826 Q464.868 162.417 464.376 161.433 Q463.901 160.433 463.901 158.99 L463.901 149.726 L461.048 149.726 Z" fill="#000000" fill-rule="nonzero" fill-opacity="1" /></svg>
