<?xml version="1.0" encoding="utf-8"?>
<svg xmlns="http://www.w3.org/2000/svg" xmlns:xlink="http://www.w3.org/1999/xlink" width="800" height="250" viewBox="0 0 3200 1000">
<defs>
  <clipPath id="clip530">
    <rect x="0" y="0" width="3200" height="1000"/>
  </clipPath>
</defs>
<path clip-path="url(#clip530)" d="M0 1000 L3200 1000 L3200 0 L0 0  Z" fill="#ffffff" fill-rule="evenodd" fill-opacity="1"/>
<defs>
  <clipPath id="clip531">
    <rect x="640" y="0" width="2241" height="1000"/>
  </clipPath>
</defs>
<path clip-path="url(#clip530)" d="M313.206 809.793 L1498.72 809.793 L1498.72 110.236 L313.206 110.236  Z" fill="#ffffff" fill-rule="evenodd" fill-opacity="1"/>
<defs>
  <clipPath id="clip532">
    <rect x="313" y="110" width="1187" height="701"/>
  </clipPath>
</defs>
<polyline clip-path="url(#clip532)" style="stroke:#000000; stroke-linecap:round; stroke-linejoin:round; stroke-width:2; stroke-opacity:0.1; fill:none" points="482.103,809.793 482.103,110.236 "/>
<polyline clip-path="url(#clip532)" style="stroke:#000000; stroke-linecap:round; stroke-linejoin:round; stroke-width:2; stroke-opacity:0.1; fill:none" points="708.185,809.793 708.185,110.236 "/>
<polyline clip-path="url(#clip532)" style="stroke:#000000; stroke-linecap:round; stroke-linejoin:round; stroke-width:2; stroke-opacity:0.1; fill:none" points="934.267,809.793 934.267,110.236 "/>
<polyline clip-path="url(#clip532)" style="stroke:#000000; stroke-linecap:round; stroke-linejoin:round; stroke-width:2; stroke-opacity:0.1; fill:none" points="1160.35,809.793 1160.35,110.236 "/>
<polyline clip-path="url(#clip532)" style="stroke:#000000; stroke-linecap:round; stroke-linejoin:round; stroke-width:2; stroke-opacity:0.1; fill:none" points="1386.43,809.793 1386.43,110.236 "/>
<polyline clip-path="url(#clip532)" style="stroke:#000000; stroke-linecap:round; stroke-linejoin:round; stroke-width:2; stroke-opacity:0.1; fill:none" points="313.206,753.166 1498.72,753.166 "/>
<polyline clip-path="url(#clip532)" style="stroke:#000000; stroke-linecap:round; stroke-linejoin:round; stroke-width:2; stroke-opacity:0.1; fill:none" points="313.206,642.38 1498.72,642.38 "/>
<polyline clip-path="url(#clip532)" style="stroke:#000000; stroke-linecap:round; stroke-linejoin:round; stroke-width:2; stroke-opacity:0.1; fill:none" points="313.206,531.594 1498.72,531.594 "/>
<polyline clip-path="url(#clip532)" style="stroke:#000000; stroke-linecap:round; stroke-linejoin:round; stroke-width:2; stroke-opacity:0.1; fill:none" points="313.206,420.808 1498.72,420.808 "/>
<polyline clip-path="url(#clip532)" style="stroke:#000000; stroke-linecap:round; stroke-linejoin:round; stroke-width:2; stroke-opacity:0.1; fill:none" points="313.206,310.021 1498.72,310.021 "/>
<polyline clip-path="url(#clip532)" style="stroke:#000000; stroke-linecap:round; stroke-linejoin:round; stroke-width:2; stroke-opacity:0.1; fill:none" points="313.206,199.235 1498.72,199.235 "/>
<polyline clip-path="url(#clip530)" style="stroke:#000000; stroke-linecap:round; stroke-linejoin:round; stroke-width:4; stroke-opacity:1; fill:none" points="313.206,809.793 1498.72,809.793 "/>
<polyline clip-path="url(#clip530)" style="stroke:#000000; stroke-linecap:round; stroke-linejoin:round; stroke-width:4; stroke-opacity:1; fill:none" points="482.103,809.793 482.103,790.895 "/>
<polyline clip-path="url(#clip530)" style="stroke:#000000; stroke-linecap:round; stroke-linejoin:round; stroke-width:4; stroke-opacity:1; fill:none" points="708.185,809.793 708.185,790.895 "/>
<polyline clip-path="url(#clip530)" style="stroke:#000000; stroke-linecap:round; stroke-linejoin:round; stroke-width:4; stroke-opacity:1; fill:none" points="934.267,809.793 934.267,790.895 "/>
<polyline clip-path="url(#clip530)" style="stroke:#000000; stroke-linecap:round; stroke-linejoin:round; stroke-width:4; stroke-opacity:1; fill:none" points="1160.35,809.793 1160.35,790.895 "/>
<polyline clip-path="url(#clip530)" style="stroke:#000000; stroke-linecap:round; stroke-linejoin:round; stroke-width:4; stroke-opacity:1; fill:none" points="1386.43,809.793 1386.43,790.895 "/>
<path clip-path="url(#clip530)" d="M459.811 847.111 Q456.2 847.111 454.371 850.676 Q452.566 854.218 452.566 861.347 Q452.566 868.454 454.371 872.019 Q456.2 875.56 459.811 875.56 Q463.445 875.56 465.251 872.019 Q467.08 868.454 467.08 861.347 Q467.08 854.218 465.251 850.676 Q463.445 847.111 459.811 847.111 M459.811 843.408 Q465.621 843.408 468.677 848.014 Q471.755 852.597 471.755 861.347 Q471.755 870.074 468.677 874.681 Q465.621 879.264 459.811 879.264 Q454.001 879.264 450.922 874.681 Q447.867 870.074 447.867 861.347 Q447.867 852.597 450.922 848.014 Q454.001 843.408 459.811 843.408 Z" fill="#000000" fill-rule="nonzero" fill-opacity="1" /><path clip-path="url(#clip530)" d="M479.973 872.713 L484.857 872.713 L484.857 878.593 L479.973 878.593 L479.973 872.713 Z" fill="#000000" fill-rule="nonzero" fill-opacity="1" /><path clip-path="url(#clip530)" d="M509.209 859.959 Q512.565 860.676 514.44 862.945 Q516.339 865.213 516.339 868.546 Q516.339 873.662 512.82 876.463 Q509.302 879.264 502.82 879.264 Q500.644 879.264 498.329 878.824 Q496.038 878.408 493.584 877.551 L493.584 873.037 Q495.528 874.171 497.843 874.75 Q500.158 875.329 502.681 875.329 Q507.079 875.329 509.371 873.593 Q511.686 871.857 511.686 868.546 Q511.686 865.491 509.533 863.778 Q507.403 862.042 503.584 862.042 L499.556 862.042 L499.556 858.199 L503.769 858.199 Q507.218 858.199 509.047 856.834 Q510.876 855.445 510.876 852.852 Q510.876 850.19 508.977 848.778 Q507.102 847.343 503.584 847.343 Q501.663 847.343 499.464 847.76 Q497.265 848.176 494.626 849.056 L494.626 844.889 Q497.288 844.148 499.603 843.778 Q501.94 843.408 504.001 843.408 Q509.325 843.408 512.427 845.838 Q515.528 848.246 515.528 852.366 Q515.528 855.236 513.885 857.227 Q512.241 859.195 509.209 859.959 Z" fill="#000000" fill-rule="nonzero" fill-opacity="1" /><path clip-path="url(#clip530)" d="M685.488 847.111 Q681.877 847.111 680.048 850.676 Q678.243 854.218 678.243 861.347 Q678.243 868.454 680.048 872.019 Q681.877 875.56 685.488 875.56 Q689.122 875.56 690.928 872.019 Q692.756 868.454 692.756 861.347 Q692.756 854.218 690.928 850.676 Q689.122 847.111 685.488 847.111 M685.488 843.408 Q691.298 843.408 694.354 848.014 Q697.432 852.597 697.432 861.347 Q697.432 870.074 694.354 874.681 Q691.298 879.264 685.488 879.264 Q679.678 879.264 676.599 874.681 Q673.544 870.074 673.544 861.347 Q673.544 852.597 676.599 848.014 Q679.678 843.408 685.488 843.408 Z" fill="#000000" fill-rule="nonzero" fill-opacity="1" /><path clip-path="url(#clip530)" d="M705.65 872.713 L710.534 872.713 L710.534 878.593 L705.65 878.593 L705.65 872.713 Z" fill="#000000" fill-rule="nonzero" fill-opacity="1" /><path clip-path="url(#clip530)" d="M731.298 859.449 Q728.15 859.449 726.298 861.602 Q724.469 863.755 724.469 867.505 Q724.469 871.232 726.298 873.408 Q728.15 875.56 731.298 875.56 Q734.446 875.56 736.275 873.408 Q738.127 871.232 738.127 867.505 Q738.127 863.755 736.275 861.602 Q734.446 859.449 731.298 859.449 M740.58 844.797 L740.58 849.056 Q738.821 848.223 737.015 847.783 Q735.233 847.343 733.474 847.343 Q728.844 847.343 726.391 850.468 Q723.96 853.593 723.613 859.912 Q724.979 857.898 727.039 856.834 Q729.099 855.746 731.576 855.746 Q736.784 855.746 739.793 858.917 Q742.826 862.065 742.826 867.505 Q742.826 872.829 739.678 876.046 Q736.529 879.264 731.298 879.264 Q725.303 879.264 722.131 874.681 Q718.96 870.074 718.96 861.347 Q718.96 853.153 722.849 848.292 Q726.738 843.408 733.289 843.408 Q735.048 843.408 736.83 843.755 Q738.636 844.102 740.58 844.797 Z" fill="#000000" fill-rule="nonzero" fill-opacity="1" /><path clip-path="url(#clip530)" d="M911.744 847.111 Q908.133 847.111 906.304 850.676 Q904.498 854.218 904.498 861.347 Q904.498 868.454 906.304 872.019 Q908.133 875.56 911.744 875.56 Q915.378 875.56 917.183 872.019 Q919.012 868.454 919.012 861.347 Q919.012 854.218 917.183 850.676 Q915.378 847.111 911.744 847.111 M911.744 843.408 Q917.554 843.408 920.609 848.014 Q923.688 852.597 923.688 861.347 Q923.688 870.074 920.609 874.681 Q917.554 879.264 911.744 879.264 Q905.933 879.264 902.855 874.681 Q899.799 870.074 899.799 861.347 Q899.799 852.597 902.855 848.014 Q905.933 843.408 911.744 843.408 Z" fill="#000000" fill-rule="nonzero" fill-opacity="1" /><path clip-path="url(#clip530)" d="M931.906 872.713 L936.79 872.713 L936.79 878.593 L931.906 878.593 L931.906 872.713 Z" fill="#000000" fill-rule="nonzero" fill-opacity="1" /><path clip-path="url(#clip530)" d="M947.114 877.875 L947.114 873.616 Q948.873 874.449 950.679 874.889 Q952.484 875.329 954.22 875.329 Q958.85 875.329 961.28 872.227 Q963.734 869.102 964.081 862.759 Q962.739 864.75 960.679 865.815 Q958.618 866.88 956.118 866.88 Q950.933 866.88 947.901 863.755 Q944.892 860.607 944.892 855.167 Q944.892 849.843 948.04 846.625 Q951.188 843.408 956.419 843.408 Q962.415 843.408 965.563 848.014 Q968.734 852.597 968.734 861.347 Q968.734 869.519 964.845 874.403 Q960.979 879.264 954.429 879.264 Q952.669 879.264 950.864 878.917 Q949.058 878.57 947.114 877.875 M956.419 863.222 Q959.567 863.222 961.396 861.07 Q963.248 858.917 963.248 855.167 Q963.248 851.44 961.396 849.287 Q959.567 847.111 956.419 847.111 Q953.271 847.111 951.419 849.287 Q949.591 851.44 949.591 855.167 Q949.591 858.917 951.419 861.07 Q953.271 863.222 956.419 863.222 Z" fill="#000000" fill-rule="nonzero" fill-opacity="1" /><path clip-path="url(#clip530)" d="M1128.3 874.658 L1135.94 874.658 L1135.94 848.292 L1127.63 849.959 L1127.63 845.699 L1135.89 844.033 L1140.57 844.033 L1140.57 874.658 L1148.21 874.658 L1148.21 878.593 L1128.3 878.593 L1128.3 874.658 Z" fill="#000000" fill-rule="nonzero" fill-opacity="1" /><path clip-path="url(#clip530)" d="M1157.65 872.713 L1162.54 872.713 L1162.54 878.593 L1157.65 878.593 L1157.65 872.713 Z" fill="#000000" fill-rule="nonzero" fill-opacity="1" /><path clip-path="url(#clip530)" d="M1176.75 874.658 L1193.07 874.658 L1193.07 878.593 L1171.12 878.593 L1171.12 874.658 Q1173.79 871.903 1178.37 867.273 Q1182.98 862.621 1184.16 861.278 Q1186.4 858.755 1187.28 857.019 Q1188.18 855.26 1188.18 853.57 Q1188.18 850.815 1186.24 849.079 Q1184.32 847.343 1181.22 847.343 Q1179.02 847.343 1176.56 848.107 Q1174.13 848.871 1171.36 850.422 L1171.36 845.699 Q1174.18 844.565 1176.63 843.986 Q1179.09 843.408 1181.12 843.408 Q1186.49 843.408 1189.69 846.093 Q1192.88 848.778 1192.88 853.269 Q1192.88 855.398 1192.07 857.32 Q1191.29 859.218 1189.18 861.81 Q1188.6 862.482 1185.5 865.699 Q1182.4 868.894 1176.75 874.658 Z" fill="#000000" fill-rule="nonzero" fill-opacity="1" /><path clip-path="url(#clip530)" d="M1354.08 874.658 L1361.72 874.658 L1361.72 848.292 L1353.41 849.959 L1353.41 845.699 L1361.67 844.033 L1366.35 844.033 L1366.35 874.658 L1373.99 874.658 L1373.99 878.593 L1354.08 878.593 L1354.08 874.658 Z" fill="#000000" fill-rule="nonzero" fill-opacity="1" /><path clip-path="url(#clip530)" d="M1383.43 872.713 L1388.32 872.713 L1388.32 878.593 L1383.43 878.593 L1383.43 872.713 Z" fill="#000000" fill-rule="nonzero" fill-opacity="1" /><path clip-path="url(#clip530)" d="M1398.55 844.033 L1416.91 844.033 L1416.91 847.968 L1402.83 847.968 L1402.83 856.44 Q1403.85 856.093 1404.87 855.931 Q1405.89 855.746 1406.91 855.746 Q1412.69 855.746 1416.07 858.917 Q1419.45 862.088 1419.45 867.505 Q1419.45 873.083 1415.98 876.185 Q1412.51 879.264 1406.19 879.264 Q1404.01 879.264 1401.74 878.894 Q1399.5 878.523 1397.09 877.783 L1397.09 873.083 Q1399.17 874.218 1401.4 874.773 Q1403.62 875.329 1406.09 875.329 Q1410.1 875.329 1412.44 873.222 Q1414.78 871.116 1414.78 867.505 Q1414.78 863.894 1412.44 861.787 Q1410.1 859.681 1406.09 859.681 Q1404.22 859.681 1402.34 860.097 Q1400.49 860.514 1398.55 861.394 L1398.55 844.033 Z" fill="#000000" fill-rule="nonzero" fill-opacity="1" /><path clip-path="url(#clip530)" d="M919.566 960.438 Q919.566 961.05 918.857 961.115 L917.408 961.115 Q915.926 961.115 915.282 960.889 Q914.638 960.664 913.897 959.633 Q913.446 958.989 912.319 955.994 Q911.224 952.967 909.614 948.393 Q908.036 943.82 906.973 941.115 L891.096 959.859 Q890.001 961.243 888.906 961.243 Q888.1 961.243 887.521 960.696 Q886.941 960.148 886.941 959.311 Q886.941 958.699 887.166 958.345 Q887.424 957.991 888.1 957.282 L906.329 939.215 L899.92 921.276 Q898.696 917.959 897.988 917.121 Q897.311 916.284 895.637 915.994 Q895.025 915.833 895.025 915.318 Q895.025 914.609 896.216 914.609 Q902.593 914.609 904.268 919.279 L917.73 956.799 Q918.471 958.957 919.243 959.859 Q919.566 960.277 919.566 960.438 Z" fill="#000000" fill-rule="nonzero" fill-opacity="1" /><polyline clip-path="url(#clip530)" style="stroke:#000000; stroke-linecap:round; stroke-linejoin:round; stroke-width:4; stroke-opacity:1; fill:none" points="313.206,809.793 313.206,110.236 "/>
<polyline clip-path="url(#clip530)" style="stroke:#000000; stroke-linecap:round; stroke-linejoin:round; stroke-width:4; stroke-opacity:1; fill:none" points="313.206,753.166 332.103,753.166 "/>
<polyline clip-path="url(#clip530)" style="stroke:#000000; stroke-linecap:round; stroke-linejoin:round; stroke-width:4; stroke-opacity:1; fill:none" points="313.206,642.38 332.103,642.38 "/>
<polyline clip-path="url(#clip530)" style="stroke:#000000; stroke-linecap:round; stroke-linejoin:round; stroke-width:4; stroke-opacity:1; fill:none" points="313.206,531.594 332.103,531.594 "/>
<polyline clip-path="url(#clip530)" style="stroke:#000000; stroke-linecap:round; stroke-linejoin:round; stroke-width:4; stroke-opacity:1; fill:none" points="313.206,420.808 332.103,420.808 "/>
<polyline clip-path="url(#clip530)" style="stroke:#000000; stroke-linecap:round; stroke-linejoin:round; stroke-width:4; stroke-opacity:1; fill:none" points="313.206,310.021 332.103,310.021 "/>
<polyline clip-path="url(#clip530)" style="stroke:#000000; stroke-linecap:round; stroke-linejoin:round; stroke-width:4; stroke-opacity:1; fill:none" points="313.206,199.235 332.103,199.235 "/>
<path clip-path="url(#clip530)" d="M148.007 755.562 L160.484 755.562 L160.484 759.358 L148.007 759.358 L148.007 755.562 Z" fill="#000000" fill-rule="nonzero" fill-opacity="1" /><path clip-path="url(#clip530)" d="M177.868 738.965 Q174.257 738.965 172.428 742.53 Q170.623 746.071 170.623 753.201 Q170.623 760.308 172.428 763.872 Q174.257 767.414 177.868 767.414 Q181.502 767.414 183.308 763.872 Q185.137 760.308 185.137 753.201 Q185.137 746.071 183.308 742.53 Q181.502 738.965 177.868 738.965 M177.868 735.261 Q183.678 735.261 186.734 739.868 Q189.813 744.451 189.813 753.201 Q189.813 761.928 186.734 766.534 Q183.678 771.118 177.868 771.118 Q172.058 771.118 168.979 766.534 Q165.924 761.928 165.924 753.201 Q165.924 744.451 168.979 739.868 Q172.058 735.261 177.868 735.261 Z" fill="#000000" fill-rule="nonzero" fill-opacity="1" /><path clip-path="url(#clip530)" d="M198.03 764.567 L202.914 764.567 L202.914 770.446 L198.03 770.446 L198.03 764.567 Z" fill="#000000" fill-rule="nonzero" fill-opacity="1" /><path clip-path="url(#clip530)" d="M213.146 735.886 L231.502 735.886 L231.502 739.822 L217.428 739.822 L217.428 748.294 Q218.447 747.946 219.465 747.784 Q220.484 747.599 221.502 747.599 Q227.289 747.599 230.669 750.771 Q234.048 753.942 234.048 759.358 Q234.048 764.937 230.576 768.039 Q227.104 771.118 220.785 771.118 Q218.609 771.118 216.34 770.747 Q214.095 770.377 211.687 769.636 L211.687 764.937 Q213.771 766.071 215.993 766.627 Q218.215 767.182 220.692 767.182 Q224.697 767.182 227.035 765.076 Q229.373 762.97 229.373 759.358 Q229.373 755.747 227.035 753.641 Q224.697 751.534 220.692 751.534 Q218.817 751.534 216.942 751.951 Q215.09 752.368 213.146 753.247 L213.146 735.886 Z" fill="#000000" fill-rule="nonzero" fill-opacity="1" /><path clip-path="url(#clip530)" d="M253.261 738.965 Q249.65 738.965 247.822 742.53 Q246.016 746.071 246.016 753.201 Q246.016 760.308 247.822 763.872 Q249.65 767.414 253.261 767.414 Q256.896 767.414 258.701 763.872 Q260.53 760.308 260.53 753.201 Q260.53 746.071 258.701 742.53 Q256.896 738.965 253.261 738.965 M253.261 735.261 Q259.072 735.261 262.127 739.868 Q265.206 744.451 265.206 753.201 Q265.206 761.928 262.127 766.534 Q259.072 771.118 253.261 771.118 Q247.451 771.118 244.373 766.534 Q241.317 761.928 241.317 753.201 Q241.317 744.451 244.373 739.868 Q247.451 735.261 253.261 735.261 Z" fill="#000000" fill-rule="nonzero" fill-opacity="1" /><path clip-path="url(#clip530)" d="M149.003 644.776 L161.479 644.776 L161.479 648.572 L149.003 648.572 L149.003 644.776 Z" fill="#000000" fill-rule="nonzero" fill-opacity="1" /><path clip-path="url(#clip530)" d="M178.864 628.179 Q175.253 628.179 173.424 631.744 Q171.618 635.285 171.618 642.415 Q171.618 649.521 173.424 653.086 Q175.253 656.628 178.864 656.628 Q182.498 656.628 184.303 653.086 Q186.132 649.521 186.132 642.415 Q186.132 635.285 184.303 631.744 Q182.498 628.179 178.864 628.179 M178.864 624.475 Q184.674 624.475 187.729 629.082 Q190.808 633.665 190.808 642.415 Q190.808 651.142 187.729 655.748 Q184.674 660.331 178.864 660.331 Q173.053 660.331 169.975 655.748 Q166.919 651.142 166.919 642.415 Q166.919 633.665 169.975 629.082 Q173.053 624.475 178.864 624.475 Z" fill="#000000" fill-rule="nonzero" fill-opacity="1" /><path clip-path="url(#clip530)" d="M199.026 653.78 L203.91 653.78 L203.91 659.66 L199.026 659.66 L199.026 653.78 Z" fill="#000000" fill-rule="nonzero" fill-opacity="1" /><path clip-path="url(#clip530)" d="M218.123 655.725 L234.442 655.725 L234.442 659.66 L212.498 659.66 L212.498 655.725 Q215.16 652.97 219.743 648.341 Q224.349 643.688 225.53 642.345 Q227.775 639.822 228.655 638.086 Q229.558 636.327 229.558 634.637 Q229.558 631.882 227.613 630.146 Q225.692 628.41 222.59 628.41 Q220.391 628.41 217.937 629.174 Q215.507 629.938 212.729 631.489 L212.729 626.767 Q215.553 625.633 218.007 625.054 Q220.461 624.475 222.498 624.475 Q227.868 624.475 231.062 627.16 Q234.257 629.845 234.257 634.336 Q234.257 636.466 233.447 638.387 Q232.66 640.285 230.553 642.878 Q229.974 643.549 226.873 646.767 Q223.771 649.961 218.123 655.725 Z" fill="#000000" fill-rule="nonzero" fill-opacity="1" /><path clip-path="url(#clip530)" d="M244.303 625.1 L262.659 625.1 L262.659 629.035 L248.585 629.035 L248.585 637.507 Q249.604 637.16 250.622 636.998 Q251.641 636.813 252.66 636.813 Q258.447 636.813 261.826 639.984 Q265.206 643.156 265.206 648.572 Q265.206 654.151 261.734 657.253 Q258.261 660.331 251.942 660.331 Q249.766 660.331 247.497 659.961 Q245.252 659.591 242.845 658.85 L242.845 654.151 Q244.928 655.285 247.15 655.841 Q249.372 656.396 251.849 656.396 Q255.854 656.396 258.192 654.29 Q260.53 652.183 260.53 648.572 Q260.53 644.961 258.192 642.855 Q255.854 640.748 251.849 640.748 Q249.974 640.748 248.099 641.165 Q246.247 641.581 244.303 642.461 L244.303 625.1 Z" fill="#000000" fill-rule="nonzero" fill-opacity="1" /><path clip-path="url(#clip530)" d="M177.868 517.393 Q174.257 517.393 172.428 520.957 Q170.623 524.499 170.623 531.629 Q170.623 538.735 172.428 542.3 Q174.257 545.841 177.868 545.841 Q181.502 545.841 183.308 542.3 Q185.137 538.735 185.137 531.629 Q185.137 524.499 183.308 520.957 Q181.502 517.393 177.868 517.393 M177.868 513.689 Q183.678 513.689 186.734 518.295 Q189.813 522.879 189.813 531.629 Q189.813 540.355 186.734 544.962 Q183.678 549.545 177.868 549.545 Q172.058 549.545 168.979 544.962 Q165.924 540.355 165.924 531.629 Q165.924 522.879 168.979 518.295 Q172.058 513.689 177.868 513.689 Z" fill="#000000" fill-rule="nonzero" fill-opacity="1" /><path clip-path="url(#clip530)" d="M198.03 542.994 L202.914 542.994 L202.914 548.874 L198.03 548.874 L198.03 542.994 Z" fill="#000000" fill-rule="nonzero" fill-opacity="1" /><path clip-path="url(#clip530)" d="M223.099 517.393 Q219.488 517.393 217.66 520.957 Q215.854 524.499 215.854 531.629 Q215.854 538.735 217.66 542.3 Q219.488 545.841 223.099 545.841 Q226.734 545.841 228.539 542.3 Q230.368 538.735 230.368 531.629 Q230.368 524.499 228.539 520.957 Q226.734 517.393 223.099 517.393 M223.099 513.689 Q228.91 513.689 231.965 518.295 Q235.044 522.879 235.044 531.629 Q235.044 540.355 231.965 544.962 Q228.91 549.545 223.099 549.545 Q217.289 549.545 214.211 544.962 Q211.155 540.355 211.155 531.629 Q211.155 522.879 214.211 518.295 Q217.289 513.689 223.099 513.689 Z" fill="#000000" fill-rule="nonzero" fill-opacity="1" /><path clip-path="url(#clip530)" d="M253.261 517.393 Q249.65 517.393 247.822 520.957 Q246.016 524.499 246.016 531.629 Q246.016 538.735 247.822 542.3 Q249.65 545.841 253.261 545.841 Q256.896 545.841 258.701 542.3 Q260.53 538.735 260.53 531.629 Q260.53 524.499 258.701 520.957 Q256.896 517.393 253.261 517.393 M253.261 513.689 Q259.072 513.689 262.127 518.295 Q265.206 522.879 265.206 531.629 Q265.206 540.355 262.127 544.962 Q259.072 549.545 253.261 549.545 Q247.451 549.545 244.373 544.962 Q241.317 540.355 241.317 531.629 Q241.317 522.879 244.373 518.295 Q247.451 513.689 253.261 513.689 Z" fill="#000000" fill-rule="nonzero" fill-opacity="1" /><path clip-path="url(#clip530)" d="M178.864 406.606 Q175.253 406.606 173.424 410.171 Q171.618 413.713 171.618 420.842 Q171.618 427.949 173.424 431.514 Q175.253 435.055 178.864 435.055 Q182.498 435.055 184.303 431.514 Q186.132 427.949 186.132 420.842 Q186.132 413.713 184.303 410.171 Q182.498 406.606 178.864 406.606 M178.864 402.903 Q184.674 402.903 187.729 407.509 Q190.808 412.092 190.808 420.842 Q190.808 429.569 187.729 434.176 Q184.674 438.759 178.864 438.759 Q173.053 438.759 169.975 434.176 Q166.919 429.569 166.919 420.842 Q166.919 412.092 169.975 407.509 Q173.053 402.903 178.864 402.903 Z" fill="#000000" fill-rule="nonzero" fill-opacity="1" /><path clip-path="url(#clip530)" d="M199.026 432.208 L203.91 432.208 L203.91 438.088 L199.026 438.088 L199.026 432.208 Z" fill="#000000" fill-rule="nonzero" fill-opacity="1" /><path clip-path="url(#clip530)" d="M218.123 434.152 L234.442 434.152 L234.442 438.088 L212.498 438.088 L212.498 434.152 Q215.16 431.398 219.743 426.768 Q224.349 422.115 225.53 420.773 Q227.775 418.25 228.655 416.514 Q229.558 414.754 229.558 413.065 Q229.558 410.31 227.613 408.574 Q225.692 406.838 222.59 406.838 Q220.391 406.838 217.937 407.602 Q215.507 408.366 212.729 409.916 L212.729 405.194 Q215.553 404.06 218.007 403.481 Q220.461 402.903 222.498 402.903 Q227.868 402.903 231.062 405.588 Q234.257 408.273 234.257 412.764 Q234.257 414.893 233.447 416.815 Q232.66 418.713 230.553 421.305 Q229.974 421.977 226.873 425.194 Q223.771 428.389 218.123 434.152 Z" fill="#000000" fill-rule="nonzero" fill-opacity="1" /><path clip-path="url(#clip530)" d="M244.303 403.528 L262.659 403.528 L262.659 407.463 L248.585 407.463 L248.585 415.935 Q249.604 415.588 250.622 415.426 Q251.641 415.24 252.66 415.24 Q258.447 415.24 261.826 418.412 Q265.206 421.583 265.206 427 Q265.206 432.578 261.734 435.68 Q258.261 438.759 251.942 438.759 Q249.766 438.759 247.497 438.389 Q245.252 438.018 242.845 437.277 L242.845 432.578 Q244.928 433.713 247.15 434.268 Q249.372 434.824 251.849 434.824 Q255.854 434.824 258.192 432.717 Q260.53 430.611 260.53 427 Q260.53 423.389 258.192 421.282 Q255.854 419.176 251.849 419.176 Q249.974 419.176 248.099 419.592 Q246.247 420.009 244.303 420.889 L244.303 403.528 Z" fill="#000000" fill-rule="nonzero" fill-opacity="1" /><path clip-path="url(#clip530)" d="M177.868 295.82 Q174.257 295.82 172.428 299.385 Q170.623 302.926 170.623 310.056 Q170.623 317.162 172.428 320.727 Q174.257 324.269 177.868 324.269 Q181.502 324.269 183.308 320.727 Q185.137 317.162 185.137 310.056 Q185.137 302.926 183.308 299.385 Q181.502 295.82 177.868 295.82 M177.868 292.116 Q183.678 292.116 186.734 296.723 Q189.813 301.306 189.813 310.056 Q189.813 318.783 186.734 323.389 Q183.678 327.973 177.868 327.973 Q172.058 327.973 168.979 323.389 Q165.924 318.783 165.924 310.056 Q165.924 301.306 168.979 296.723 Q172.058 292.116 177.868 292.116 Z" fill="#000000" fill-rule="nonzero" fill-opacity="1" /><path clip-path="url(#clip530)" d="M198.03 321.422 L202.914 321.422 L202.914 327.301 L198.03 327.301 L198.03 321.422 Z" fill="#000000" fill-rule="nonzero" fill-opacity="1" /><path clip-path="url(#clip530)" d="M213.146 292.741 L231.502 292.741 L231.502 296.676 L217.428 296.676 L217.428 305.149 Q218.447 304.801 219.465 304.639 Q220.484 304.454 221.502 304.454 Q227.289 304.454 230.669 307.625 Q234.048 310.797 234.048 316.213 Q234.048 321.792 230.576 324.894 Q227.104 327.973 220.785 327.973 Q218.609 327.973 216.34 327.602 Q214.095 327.232 211.687 326.491 L211.687 321.792 Q213.771 322.926 215.993 323.482 Q218.215 324.037 220.692 324.037 Q224.697 324.037 227.035 321.931 Q229.373 319.825 229.373 316.213 Q229.373 312.602 227.035 310.496 Q224.697 308.389 220.692 308.389 Q218.817 308.389 216.942 308.806 Q215.09 309.223 213.146 310.102 L213.146 292.741 Z" fill="#000000" fill-rule="nonzero" fill-opacity="1" /><path clip-path="url(#clip530)" d="M253.261 295.82 Q249.65 295.82 247.822 299.385 Q246.016 302.926 246.016 310.056 Q246.016 317.162 247.822 320.727 Q249.65 324.269 253.261 324.269 Q256.896 324.269 258.701 320.727 Q260.53 317.162 260.53 310.056 Q260.53 302.926 258.701 299.385 Q256.896 295.82 253.261 295.82 M253.261 292.116 Q259.072 292.116 262.127 296.723 Q265.206 301.306 265.206 310.056 Q265.206 318.783 262.127 323.389 Q259.072 327.973 253.261 327.973 Q247.451 327.973 244.373 323.389 Q241.317 318.783 241.317 310.056 Q241.317 301.306 244.373 296.723 Q247.451 292.116 253.261 292.116 Z" fill="#000000" fill-rule="nonzero" fill-opacity="1" /><path clip-path="url(#clip530)" d="M178.864 185.034 Q175.253 185.034 173.424 188.599 Q171.618 192.14 171.618 199.27 Q171.618 206.376 173.424 209.941 Q175.253 213.483 178.864 213.483 Q182.498 213.483 184.303 209.941 Q186.132 206.376 186.132 199.27 Q186.132 192.14 184.303 188.599 Q182.498 185.034 178.864 185.034 M178.864 181.33 Q184.674 181.33 187.729 185.937 Q190.808 190.52 190.808 199.27 Q190.808 207.997 187.729 212.603 Q184.674 217.186 178.864 217.186 Q173.053 217.186 169.975 212.603 Q166.919 207.997 166.919 199.27 Q166.919 190.52 169.975 185.937 Q173.053 181.33 178.864 181.33 Z" fill="#000000" fill-rule="nonzero" fill-opacity="1" /><path clip-path="url(#clip530)" d="M199.026 210.635 L203.91 210.635 L203.91 216.515 L199.026 216.515 L199.026 210.635 Z" fill="#000000" fill-rule="nonzero" fill-opacity="1" /><path clip-path="url(#clip530)" d="M212.914 181.955 L235.136 181.955 L235.136 183.946 L222.59 216.515 L217.706 216.515 L229.511 185.89 L212.914 185.89 L212.914 181.955 Z" fill="#000000" fill-rule="nonzero" fill-opacity="1" /><path clip-path="url(#clip530)" d="M244.303 181.955 L262.659 181.955 L262.659 185.89 L248.585 185.89 L248.585 194.362 Q249.604 194.015 250.622 193.853 Q251.641 193.668 252.66 193.668 Q258.447 193.668 261.826 196.839 Q265.206 200.011 265.206 205.427 Q265.206 211.006 261.734 214.108 Q258.261 217.186 251.942 217.186 Q249.766 217.186 247.497 216.816 Q245.252 216.446 242.845 215.705 L242.845 211.006 Q244.928 212.14 247.15 212.696 Q249.372 213.251 251.849 213.251 Q255.854 213.251 258.192 211.145 Q260.53 209.038 260.53 205.427 Q260.53 201.816 258.192 199.71 Q255.854 197.603 251.849 197.603 Q249.974 197.603 248.099 198.02 Q246.247 198.436 244.303 199.316 L244.303 181.955 Z" fill="#000000" fill-rule="nonzero" fill-opacity="1" /><path clip-path="url(#clip530)" d="M41.6675 507.409 Q40.7979 511.563 39.6707 513.946 Q37.8672 517.586 34.8076 517.586 Q32.4888 517.586 30.8463 516.169 Q29.2038 514.752 28.8173 512.626 Q24.5984 517.586 20.2184 517.586 Q16.3537 517.586 13.906 514.655 Q11.4584 511.692 11.4584 507.022 Q11.4584 502.32 13.7772 497.811 Q16.1282 493.302 19.8319 490.501 Q23.5356 487.699 27.3359 487.699 Q31.3616 487.699 33.4228 491.918 Q33.5838 490.758 34.3245 489.889 Q35.0653 489.019 36.1925 489.019 Q37.062 489.019 37.5773 489.502 Q38.0926 489.953 38.0926 490.79 Q38.0926 491.209 37.6417 493.045 L35.2585 502.256 L33.8093 508.214 Q33.2618 510.404 33.1007 511.209 Q32.9719 512.014 32.9719 513.077 Q32.9719 516.104 34.9365 516.104 Q35.9026 516.104 36.6756 515.492 Q37.4485 514.88 38.0604 513.592 Q38.6723 512.304 39.0588 511.112 Q39.4453 509.889 39.9606 507.956 Q40.1216 507.183 40.2504 506.99 Q40.4115 506.765 40.8623 506.765 Q41.6675 506.765 41.6675 507.409 M32.6176 494.945 Q32.6176 494.655 32.3922 493.85 Q32.1668 493.045 31.6515 491.918 Q31.1362 490.79 30.009 489.985 Q28.914 489.148 27.4325 489.148 Q25.4357 489.148 23.3423 490.855 Q21.2812 492.562 19.7675 495.46 Q18.6081 497.779 17.3521 502.642 Q16.1282 507.505 16.1282 509.921 Q16.1282 511.402 16.4503 512.723 Q16.8046 514.011 17.8029 515.074 Q18.8013 516.104 20.3472 516.104 Q24.1153 516.104 27.819 511.434 Q28.5275 510.629 28.6885 510.307 Q28.8818 509.953 29.1394 508.987 L32.4244 496.072 Q32.6176 495.106 32.6176 494.945 Z" fill="#000000" fill-rule="nonzero" fill-opacity="1" /><polyline clip-path="url(#clip532)" style="stroke:#009af9; stroke-linecap:round; stroke-linejoin:round; stroke-width:4; stroke-opacity:1; fill:none" points="1465.17,531.589 1160.92,412.469 1077.27,380.259 877.786,303.349 782.197,265.126 781.419,264.815 563.193,177.363 442.717,130.035 346.758,217.753 "/>
<circle clip-path="url(#clip532)" cx="1465.17" cy="531.589" r="7.2" fill="#009af9" fill-rule="evenodd" fill-opacity="1" stroke="none"/>
<circle clip-path="url(#clip532)" cx="1160.92" cy="412.469" r="7.2" fill="#009af9" fill-rule="evenodd" fill-opacity="1" stroke="none"/>
<circle clip-path="url(#clip532)" cx="1077.27" cy="380.259" r="7.2" fill="#009af9" fill-rule="evenodd" fill-opacity="1" stroke="none"/>
<circle clip-path="url(#clip532)" cx="877.786" cy="303.349" r="7.2" fill="#009af9" fill-rule="evenodd" fill-opacity="1" stroke="none"/>
<circle clip-path="url(#clip532)" cx="782.197" cy="265.126" r="7.2" fill="#009af9" fill-rule="evenodd" fill-opacity="1" stroke="none"/>
<circle clip-path="url(#clip532)" cx="781.419" cy="264.815" r="7.2" fill="#009af9" fill-rule="evenodd" fill-opacity="1" stroke="none"/>
<circle clip-path="url(#clip532)" cx="563.193" cy="177.363" r="7.2" fill="#009af9" fill-rule="evenodd" fill-opacity="1" stroke="none"/>
<circle clip-path="url(#clip532)" cx="442.717" cy="130.035" r="7.2" fill="#009af9" fill-rule="evenodd" fill-opacity="1" stroke="none"/>
<circle clip-path="url(#clip532)" cx="346.758" cy="217.753" r="7.2" fill="#009af9" fill-rule="evenodd" fill-opacity="1" stroke="none"/>
<polyline clip-path="url(#clip532)" style="stroke:#e26f46; stroke-linecap:round; stroke-linejoin:round; stroke-width:4; stroke-opacity:1; fill:none" points="1160.92,531.59 1077.27,499.364 877.786,422.413 782.197,385.419 781.419,385.118 563.193,300.484 442.717,253.716 346.758,219.397 "/>
<circle clip-path="url(#clip532)" cx="1160.92" cy="531.59" r="7.2" fill="#e26f46" fill-rule="evenodd" fill-opacity="1" stroke="none"/>
<circle clip-path="url(#clip532)" cx="1077.27" cy="499.364" r="7.2" fill="#e26f46" fill-rule="evenodd" fill-opacity="1" stroke="none"/>
<circle clip-path="url(#clip532)" cx="877.786" cy="422.413" r="7.2" fill="#e26f46" fill-rule="evenodd" fill-opacity="1" stroke="none"/>
<circle clip-path="url(#clip532)" cx="782.197" cy="385.419" r="7.2" fill="#e26f46" fill-rule="evenodd" fill-opacity="1" stroke="none"/>
<circle clip-path="url(#clip532)" cx="781.419" cy="385.118" r="7.2" fill="#e26f46" fill-rule="evenodd" fill-opacity="1" stroke="none"/>
<circle clip-path="url(#clip532)" cx="563.193" cy="300.484" r="7.2" fill="#e26f46" fill-rule="evenodd" fill-opacity="1" stroke="none"/>
<circle clip-path="url(#clip532)" cx="442.717" cy="253.716" r="7.2" fill="#e26f46" fill-rule="evenodd" fill-opacity="1" stroke="none"/>
<circle clip-path="url(#clip532)" cx="346.758" cy="219.397" r="7.2" fill="#e26f46" fill-rule="evenodd" fill-opacity="1" stroke="none"/>
<polyline clip-path="url(#clip532)" style="stroke:#3da44d; stroke-linecap:round; stroke-linejoin:round; stroke-width:4; stroke-opacity:1; fill:none" points="1077.27,531.591 877.786,453.494 782.197,414.699 781.419,414.582 563.193,355.318 442.717,315.326 346.758,279.298 "/>
<circle clip-path="url(#clip532)" cx="1077.27" cy="531.591" r="7.2" fill="#3da44d" fill-rule="evenodd" fill-opacity="1" stroke="none"/>
<circle clip-path="url(#clip532)" cx="877.786" cy="453.494" r="7.2" fill="#3da44d" fill-rule="evenodd" fill-opacity="1" stroke="none"/>
<circle clip-path="url(#clip532)" cx="782.197" cy="414.699" r="7.2" fill="#3da44d" fill-rule="evenodd" fill-opacity="1" stroke="none"/>
<circle clip-path="url(#clip532)" cx="781.419" cy="414.582" r="7.2" fill="#3da44d" fill-rule="evenodd" fill-opacity="1" stroke="none"/>
<circle clip-path="url(#clip532)" cx="563.193" cy="355.318" r="7.2" fill="#3da44d" fill-rule="evenodd" fill-opacity="1" stroke="none"/>
<circle clip-path="url(#clip532)" cx="442.717" cy="315.326" r="7.2" fill="#3da44d" fill-rule="evenodd" fill-opacity="1" stroke="none"/>
<circle clip-path="url(#clip532)" cx="346.758" cy="279.298" r="7.2" fill="#3da44d" fill-rule="evenodd" fill-opacity="1" stroke="none"/>
<polyline clip-path="url(#clip532)" style="stroke:#c271d2; stroke-linecap:round; stroke-linejoin:round; stroke-width:4; stroke-opacity:1; fill:none" points="877.786,531.597 782.197,572.493 781.419,572.834 563.193,671.857 442.717,731.747 346.758,789.994 "/>
<circle clip-path="url(#clip532)" cx="877.786" cy="531.597" r="7.2" fill="#c271d2" fill-rule="evenodd" fill-opacity="1" stroke="none"/>
<circle clip-path="url(#clip532)" cx="782.197" cy="572.493" r="7.2" fill="#c271d2" fill-rule="evenodd" fill-opacity="1" stroke="none"/>
<circle clip-path="url(#clip532)" cx="781.419" cy="572.834" r="7.2" fill="#c271d2" fill-rule="evenodd" fill-opacity="1" stroke="none"/>
<circle clip-path="url(#clip532)" cx="563.193" cy="671.857" r="7.2" fill="#c271d2" fill-rule="evenodd" fill-opacity="1" stroke="none"/>
<circle clip-path="url(#clip532)" cx="442.717" cy="731.747" r="7.2" fill="#c271d2" fill-rule="evenodd" fill-opacity="1" stroke="none"/>
<circle clip-path="url(#clip532)" cx="346.758" cy="789.994" r="7.2" fill="#c271d2" fill-rule="evenodd" fill-opacity="1" stroke="none"/>
<polyline clip-path="url(#clip532)" style="stroke:#ac8d18; stroke-linecap:round; stroke-linejoin:round; stroke-width:4; stroke-opacity:1; fill:none" points="782.197,530.945 781.419,530.617 563.193,457.952 442.717,413.271 346.758,372.717 "/>
<circle clip-path="url(#clip532)" cx="782.197" cy="530.945" r="7.2" fill="#ac8d18" fill-rule="evenodd" fill-opacity="1" stroke="none"/>
<circle clip-path="url(#clip532)" cx="781.419" cy="530.617" r="7.2" fill="#ac8d18" fill-rule="evenodd" fill-opacity="1" stroke="none"/>
<circle clip-path="url(#clip532)" cx="563.193" cy="457.952" r="7.2" fill="#ac8d18" fill-rule="evenodd" fill-opacity="1" stroke="none"/>
<circle clip-path="url(#clip532)" cx="442.717" cy="413.271" r="7.2" fill="#ac8d18" fill-rule="evenodd" fill-opacity="1" stroke="none"/>
<circle clip-path="url(#clip532)" cx="346.758" cy="372.717" r="7.2" fill="#ac8d18" fill-rule="evenodd" fill-opacity="1" stroke="none"/>
<polyline clip-path="url(#clip532)" style="stroke:#00a9ad; stroke-linecap:round; stroke-linejoin:round; stroke-width:4; stroke-opacity:1; fill:none" points="781.419,531.592 563.193,453.819 442.717,410.575 346.758,375.312 "/>
<circle clip-path="url(#clip532)" cx="781.419" cy="531.592" r="7.2" fill="#00a9ad" fill-rule="evenodd" fill-opacity="1" stroke="none"/>
<circle clip-path="url(#clip532)" cx="563.193" cy="453.819" r="7.2" fill="#00a9ad" fill-rule="evenodd" fill-opacity="1" stroke="none"/>
<circle clip-path="url(#clip532)" cx="442.717" cy="410.575" r="7.2" fill="#00a9ad" fill-rule="evenodd" fill-opacity="1" stroke="none"/>
<circle clip-path="url(#clip532)" cx="346.758" cy="375.312" r="7.2" fill="#00a9ad" fill-rule="evenodd" fill-opacity="1" stroke="none"/>
<polyline clip-path="url(#clip532)" style="stroke:#ed5d92; stroke-linecap:round; stroke-linejoin:round; stroke-width:4; stroke-opacity:1; fill:none" points="563.193,531.596 442.717,579.151 346.758,617.075 "/>
<circle clip-path="url(#clip532)" cx="563.193" cy="531.596" r="7.2" fill="#ed5d92" fill-rule="evenodd" fill-opacity="1" stroke="none"/>
<circle clip-path="url(#clip532)" cx="442.717" cy="579.151" r="7.2" fill="#ed5d92" fill-rule="evenodd" fill-opacity="1" stroke="none"/>
<circle clip-path="url(#clip532)" cx="346.758" cy="617.075" r="7.2" fill="#ed5d92" fill-rule="evenodd" fill-opacity="1" stroke="none"/>
<polyline clip-path="url(#clip532)" style="stroke:#c68125; stroke-linecap:round; stroke-linejoin:round; stroke-width:4; stroke-opacity:1; fill:none" points="442.717,530.648 346.758,383.076 "/>
<circle clip-path="url(#clip532)" cx="442.717" cy="530.648" r="7.2" fill="#c68125" fill-rule="evenodd" fill-opacity="1" stroke="none"/>
<circle clip-path="url(#clip532)" cx="346.758" cy="383.076" r="7.2" fill="#c68125" fill-rule="evenodd" fill-opacity="1" stroke="none"/>
<circle clip-path="url(#clip532)" cx="346.758" cy="531.629" r="7.2" fill="#00a98d" fill-rule="evenodd" fill-opacity="1" stroke="none"/>
<path clip-path="url(#clip530)" d="M1904.25 809.793 L3089.76 809.793 L3089.76 110.236 L1904.25 110.236  Z" fill="#ffffff" fill-rule="evenodd" fill-opacity="1"/>
<defs>
  <clipPath id="clip533">
    <rect x="1904" y="110" width="1187" height="701"/>
  </clipPath>
</defs>
<polyline clip-path="url(#clip533)" style="stroke:#000000; stroke-linecap:round; stroke-linejoin:round; stroke-width:2; stroke-opacity:0.1; fill:none" points="2073.14,809.793 2073.14,110.236 "/>
<polyline clip-path="url(#clip533)" style="stroke:#000000; stroke-linecap:round; stroke-linejoin:round; stroke-width:2; stroke-opacity:0.1; fill:none" points="2299.23,809.793 2299.23,110.236 "/>
<polyline clip-path="url(#clip533)" style="stroke:#000000; stroke-linecap:round; stroke-linejoin:round; stroke-width:2; stroke-opacity:0.1; fill:none" points="2525.31,809.793 2525.31,110.236 "/>
<polyline clip-path="url(#clip533)" style="stroke:#000000; stroke-linecap:round; stroke-linejoin:round; stroke-width:2; stroke-opacity:0.1; fill:none" points="2751.39,809.793 2751.39,110.236 "/>
<polyline clip-path="url(#clip533)" style="stroke:#000000; stroke-linecap:round; stroke-linejoin:round; stroke-width:2; stroke-opacity:0.1; fill:none" points="2977.47,809.793 2977.47,110.236 "/>
<polyline clip-path="url(#clip533)" style="stroke:#000000; stroke-linecap:round; stroke-linejoin:round; stroke-width:2; stroke-opacity:0.1; fill:none" points="1904.25,678.371 3089.76,678.371 "/>
<polyline clip-path="url(#clip533)" style="stroke:#000000; stroke-linecap:round; stroke-linejoin:round; stroke-width:2; stroke-opacity:0.1; fill:none" points="1904.25,534.324 3089.76,534.324 "/>
<polyline clip-path="url(#clip533)" style="stroke:#000000; stroke-linecap:round; stroke-linejoin:round; stroke-width:2; stroke-opacity:0.1; fill:none" points="1904.25,390.276 3089.76,390.276 "/>
<polyline clip-path="url(#clip533)" style="stroke:#000000; stroke-linecap:round; stroke-linejoin:round; stroke-width:2; stroke-opacity:0.1; fill:none" points="1904.25,246.229 3089.76,246.229 "/>
<polyline clip-path="url(#clip530)" style="stroke:#000000; stroke-linecap:round; stroke-linejoin:round; stroke-width:4; stroke-opacity:1; fill:none" points="1904.25,809.793 3089.76,809.793 "/>
<polyline clip-path="url(#clip530)" style="stroke:#000000; stroke-linecap:round; stroke-linejoin:round; stroke-width:4; stroke-opacity:1; fill:none" points="2073.14,809.793 2073.14,790.895 "/>
<polyline clip-path="url(#clip530)" style="stroke:#000000; stroke-linecap:round; stroke-linejoin:round; stroke-width:4; stroke-opacity:1; fill:none" points="2299.23,809.793 2299.23,790.895 "/>
<polyline clip-path="url(#clip530)" style="stroke:#000000; stroke-linecap:round; stroke-linejoin:round; stroke-width:4; stroke-opacity:1; fill:none" points="2525.31,809.793 2525.31,790.895 "/>
<polyline clip-path="url(#clip530)" style="stroke:#000000; stroke-linecap:round; stroke-linejoin:round; stroke-width:4; stroke-opacity:1; fill:none" points="2751.39,809.793 2751.39,790.895 "/>
<polyline clip-path="url(#clip530)" style="stroke:#000000; stroke-linecap:round; stroke-linejoin:round; stroke-width:4; stroke-opacity:1; fill:none" points="2977.47,809.793 2977.47,790.895 "/>
<path clip-path="url(#clip530)" d="M2050.85 847.111 Q2047.24 847.111 2045.41 850.676 Q2043.61 854.218 2043.61 861.347 Q2043.61 868.454 2045.41 872.019 Q2047.24 875.56 2050.85 875.56 Q2054.49 875.56 2056.29 872.019 Q2058.12 868.454 2058.12 861.347 Q2058.12 854.218 2056.29 850.676 Q2054.49 847.111 2050.85 847.111 M2050.85 843.408 Q2056.66 843.408 2059.72 848.014 Q2062.8 852.597 2062.8 861.347 Q2062.8 870.074 2059.72 874.681 Q2056.66 879.264 2050.85 879.264 Q2045.04 879.264 2041.96 874.681 Q2038.91 870.074 2038.91 861.347 Q2038.91 852.597 2041.96 848.014 Q2045.04 843.408 2050.85 843.408 Z" fill="#000000" fill-rule="nonzero" fill-opacity="1" /><path clip-path="url(#clip530)" d="M2071.01 872.713 L2075.9 872.713 L2075.9 878.593 L2071.01 878.593 L2071.01 872.713 Z" fill="#000000" fill-rule="nonzero" fill-opacity="1" /><path clip-path="url(#clip530)" d="M2100.25 859.959 Q2103.61 860.676 2105.48 862.945 Q2107.38 865.213 2107.38 868.546 Q2107.38 873.662 2103.86 876.463 Q2100.34 879.264 2093.86 879.264 Q2091.69 879.264 2089.37 878.824 Q2087.08 878.408 2084.63 877.551 L2084.63 873.037 Q2086.57 874.171 2088.88 874.75 Q2091.2 875.329 2093.72 875.329 Q2098.12 875.329 2100.41 873.593 Q2102.73 871.857 2102.73 868.546 Q2102.73 865.491 2100.57 863.778 Q2098.45 862.042 2094.63 862.042 L2090.6 862.042 L2090.6 858.199 L2094.81 858.199 Q2098.26 858.199 2100.09 856.834 Q2101.92 855.445 2101.92 852.852 Q2101.92 850.19 2100.02 848.778 Q2098.14 847.343 2094.63 847.343 Q2092.7 847.343 2090.51 847.76 Q2088.31 848.176 2085.67 849.056 L2085.67 844.889 Q2088.33 844.148 2090.64 843.778 Q2092.98 843.408 2095.04 843.408 Q2100.37 843.408 2103.47 845.838 Q2106.57 848.246 2106.57 852.366 Q2106.57 855.236 2104.93 857.227 Q2103.28 859.195 2100.25 859.959 Z" fill="#000000" fill-rule="nonzero" fill-opacity="1" /><path clip-path="url(#clip530)" d="M2276.53 847.111 Q2272.92 847.111 2271.09 850.676 Q2269.28 854.218 2269.28 861.347 Q2269.28 868.454 2271.09 872.019 Q2272.92 875.56 2276.53 875.56 Q2280.16 875.56 2281.97 872.019 Q2283.8 868.454 2283.8 861.347 Q2283.8 854.218 2281.97 850.676 Q2280.16 847.111 2276.53 847.111 M2276.53 843.408 Q2282.34 843.408 2285.4 848.014 Q2288.47 852.597 2288.47 861.347 Q2288.47 870.074 2285.4 874.681 Q2282.34 879.264 2276.53 879.264 Q2270.72 879.264 2267.64 874.681 Q2264.59 870.074 2264.59 861.347 Q2264.59 852.597 2267.64 848.014 Q2270.72 843.408 2276.53 843.408 Z" fill="#000000" fill-rule="nonzero" fill-opacity="1" /><path clip-path="url(#clip530)" d="M2296.69 872.713 L2301.58 872.713 L2301.58 878.593 L2296.69 878.593 L2296.69 872.713 Z" fill="#000000" fill-rule="nonzero" fill-opacity="1" /><path clip-path="url(#clip530)" d="M2322.34 859.449 Q2319.19 859.449 2317.34 861.602 Q2315.51 863.755 2315.51 867.505 Q2315.51 871.232 2317.34 873.408 Q2319.19 875.56 2322.34 875.56 Q2325.49 875.56 2327.32 873.408 Q2329.17 871.232 2329.17 867.505 Q2329.17 863.755 2327.32 861.602 Q2325.49 859.449 2322.34 859.449 M2331.62 844.797 L2331.62 849.056 Q2329.86 848.223 2328.06 847.783 Q2326.27 847.343 2324.52 847.343 Q2319.89 847.343 2317.43 850.468 Q2315 853.593 2314.65 859.912 Q2316.02 857.898 2318.08 856.834 Q2320.14 855.746 2322.62 855.746 Q2327.83 855.746 2330.83 858.917 Q2333.87 862.065 2333.87 867.505 Q2333.87 872.829 2330.72 876.046 Q2327.57 879.264 2322.34 879.264 Q2316.34 879.264 2313.17 874.681 Q2310 870.074 2310 861.347 Q2310 853.153 2313.89 848.292 Q2317.78 843.408 2324.33 843.408 Q2326.09 843.408 2327.87 843.755 Q2329.68 844.102 2331.62 844.797 Z" fill="#000000" fill-rule="nonzero" fill-opacity="1" /><path clip-path="url(#clip530)" d="M2502.79 847.111 Q2499.17 847.111 2497.35 850.676 Q2495.54 854.218 2495.54 861.347 Q2495.54 868.454 2497.35 872.019 Q2499.17 875.56 2502.79 875.56 Q2506.42 875.56 2508.23 872.019 Q2510.05 868.454 2510.05 861.347 Q2510.05 854.218 2508.23 850.676 Q2506.42 847.111 2502.79 847.111 M2502.79 843.408 Q2508.6 843.408 2511.65 848.014 Q2514.73 852.597 2514.73 861.347 Q2514.73 870.074 2511.65 874.681 Q2508.6 879.264 2502.79 879.264 Q2496.98 879.264 2493.9 874.681 Q2490.84 870.074 2490.84 861.347 Q2490.84 852.597 2493.9 848.014 Q2496.98 843.408 2502.79 843.408 Z" fill="#000000" fill-rule="nonzero" fill-opacity="1" /><path clip-path="url(#clip530)" d="M2522.95 872.713 L2527.83 872.713 L2527.83 878.593 L2522.95 878.593 L2522.95 872.713 Z" fill="#000000" fill-rule="nonzero" fill-opacity="1" /><path clip-path="url(#clip530)" d="M2538.16 877.875 L2538.16 873.616 Q2539.91 874.449 2541.72 874.889 Q2543.53 875.329 2545.26 875.329 Q2549.89 875.329 2552.32 872.227 Q2554.78 869.102 2555.12 862.759 Q2553.78 864.75 2551.72 865.815 Q2549.66 866.88 2547.16 866.88 Q2541.97 866.88 2538.94 863.755 Q2535.93 860.607 2535.93 855.167 Q2535.93 849.843 2539.08 846.625 Q2542.23 843.408 2547.46 843.408 Q2553.46 843.408 2556.6 848.014 Q2559.78 852.597 2559.78 861.347 Q2559.78 869.519 2555.89 874.403 Q2552.02 879.264 2545.47 879.264 Q2543.71 879.264 2541.91 878.917 Q2540.1 878.57 2538.16 877.875 M2547.46 863.222 Q2550.61 863.222 2552.44 861.07 Q2554.29 858.917 2554.29 855.167 Q2554.29 851.44 2552.44 849.287 Q2550.61 847.111 2547.46 847.111 Q2544.31 847.111 2542.46 849.287 Q2540.63 851.44 2540.63 855.167 Q2540.63 858.917 2542.46 861.07 Q2544.31 863.222 2547.46 863.222 Z" fill="#000000" fill-rule="nonzero" fill-opacity="1" /><path clip-path="url(#clip530)" d="M2719.34 874.658 L2726.98 874.658 L2726.98 848.292 L2718.67 849.959 L2718.67 845.699 L2726.93 844.033 L2731.61 844.033 L2731.61 874.658 L2739.25 874.658 L2739.25 878.593 L2719.34 878.593 L2719.34 874.658 Z" fill="#000000" fill-rule="nonzero" fill-opacity="1" /><path clip-path="url(#clip530)" d="M2748.69 872.713 L2753.58 872.713 L2753.58 878.593 L2748.69 878.593 L2748.69 872.713 Z" fill="#000000" fill-rule="nonzero" fill-opacity="1" /><path clip-path="url(#clip530)" d="M2767.79 874.658 L2784.11 874.658 L2784.11 878.593 L2762.17 878.593 L2762.17 874.658 Q2764.83 871.903 2769.41 867.273 Q2774.02 862.621 2775.2 861.278 Q2777.44 858.755 2778.32 857.019 Q2779.23 855.26 2779.23 853.57 Q2779.23 850.815 2777.28 849.079 Q2775.36 847.343 2772.26 847.343 Q2770.06 847.343 2767.61 848.107 Q2765.18 848.871 2762.4 850.422 L2762.4 845.699 Q2765.22 844.565 2767.68 843.986 Q2770.13 843.408 2772.17 843.408 Q2777.54 843.408 2780.73 846.093 Q2783.92 848.778 2783.92 853.269 Q2783.92 855.398 2783.11 857.32 Q2782.33 859.218 2780.22 861.81 Q2779.64 862.482 2776.54 865.699 Q2773.44 868.894 2767.79 874.658 Z" fill="#000000" fill-rule="nonzero" fill-opacity="1" /><path clip-path="url(#clip530)" d="M2945.12 874.658 L2952.76 874.658 L2952.76 848.292 L2944.45 849.959 L2944.45 845.699 L2952.72 844.033 L2957.39 844.033 L2957.39 874.658 L2965.03 874.658 L2965.03 878.593 L2945.12 878.593 L2945.12 874.658 Z" fill="#000000" fill-rule="nonzero" fill-opacity="1" /><path clip-path="url(#clip530)" d="M2974.47 872.713 L2979.36 872.713 L2979.36 878.593 L2974.47 878.593 L2974.47 872.713 Z" fill="#000000" fill-rule="nonzero" fill-opacity="1" /><path clip-path="url(#clip530)" d="M2989.59 844.033 L3007.95 844.033 L3007.95 847.968 L2993.87 847.968 L2993.87 856.44 Q2994.89 856.093 2995.91 855.931 Q2996.93 855.746 2997.95 855.746 Q3003.73 855.746 3007.11 858.917 Q3010.49 862.088 3010.49 867.505 Q3010.49 873.083 3007.02 876.185 Q3003.55 879.264 2997.23 879.264 Q2995.05 879.264 2992.78 878.894 Q2990.54 878.523 2988.13 877.783 L2988.13 873.083 Q2990.22 874.218 2992.44 874.773 Q2994.66 875.329 2997.14 875.329 Q3001.14 875.329 3003.48 873.222 Q3005.82 871.116 3005.82 867.505 Q3005.82 863.894 3003.48 861.787 Q3001.14 859.681 2997.14 859.681 Q2995.26 859.681 2993.39 860.097 Q2991.53 860.514 2989.59 861.394 L2989.59 844.033 Z" fill="#000000" fill-rule="nonzero" fill-opacity="1" /><path clip-path="url(#clip530)" d="M2510.61 960.438 Q2510.61 961.05 2509.9 961.115 L2508.45 961.115 Q2506.97 961.115 2506.32 960.889 Q2505.68 960.664 2504.94 959.633 Q2504.49 958.989 2503.36 955.994 Q2502.27 952.967 2500.66 948.393 Q2499.08 943.82 2498.01 941.115 L2482.14 959.859 Q2481.04 961.243 2479.95 961.243 Q2479.14 961.243 2478.56 960.696 Q2477.98 960.148 2477.98 959.311 Q2477.98 958.699 2478.21 958.345 Q2478.47 957.991 2479.14 957.282 L2497.37 939.215 L2490.96 921.276 Q2489.74 917.959 2489.03 917.121 Q2488.35 916.284 2486.68 915.994 Q2486.07 915.833 2486.07 915.318 Q2486.07 914.609 2487.26 914.609 Q2493.63 914.609 2495.31 919.279 L2508.77 956.799 Q2509.51 958.957 2510.29 959.859 Q2510.61 960.277 2510.61 960.438 Z" fill="#000000" fill-rule="nonzero" fill-opacity="1" /><polyline clip-path="url(#clip530)" style="stroke:#000000; stroke-linecap:round; stroke-linejoin:round; stroke-width:4; stroke-opacity:1; fill:none" points="1904.25,809.793 1904.25,110.236 "/>
<polyline clip-path="url(#clip530)" style="stroke:#000000; stroke-linecap:round; stroke-linejoin:round; stroke-width:4; stroke-opacity:1; fill:none" points="1904.25,678.371 1923.15,678.371 "/>
<polyline clip-path="url(#clip530)" style="stroke:#000000; stroke-linecap:round; stroke-linejoin:round; stroke-width:4; stroke-opacity:1; fill:none" points="1904.25,534.324 1923.15,534.324 "/>
<polyline clip-path="url(#clip530)" style="stroke:#000000; stroke-linecap:round; stroke-linejoin:round; stroke-width:4; stroke-opacity:1; fill:none" points="1904.25,390.276 1923.15,390.276 "/>
<polyline clip-path="url(#clip530)" style="stroke:#000000; stroke-linecap:round; stroke-linejoin:round; stroke-width:4; stroke-opacity:1; fill:none" points="1904.25,246.229 1923.15,246.229 "/>
<path clip-path="url(#clip530)" d="M1768.91 664.17 Q1765.3 664.17 1763.47 667.735 Q1761.66 671.276 1761.66 678.406 Q1761.66 685.512 1763.47 689.077 Q1765.3 692.619 1768.91 692.619 Q1772.54 692.619 1774.35 689.077 Q1776.18 685.512 1776.18 678.406 Q1776.18 671.276 1774.35 667.735 Q1772.54 664.17 1768.91 664.17 M1768.91 660.466 Q1774.72 660.466 1777.78 665.073 Q1780.85 669.656 1780.85 678.406 Q1780.85 687.133 1777.78 691.739 Q1774.72 696.323 1768.91 696.323 Q1763.1 696.323 1760.02 691.739 Q1756.97 687.133 1756.97 678.406 Q1756.97 669.656 1760.02 665.073 Q1763.1 660.466 1768.91 660.466 Z" fill="#000000" fill-rule="nonzero" fill-opacity="1" /><path clip-path="url(#clip530)" d="M1789.07 689.772 L1793.96 689.772 L1793.96 695.651 L1789.07 695.651 L1789.07 689.772 Z" fill="#000000" fill-rule="nonzero" fill-opacity="1" /><path clip-path="url(#clip530)" d="M1808.17 691.716 L1824.49 691.716 L1824.49 695.651 L1802.54 695.651 L1802.54 691.716 Q1805.21 688.962 1809.79 684.332 Q1814.4 679.679 1815.58 678.337 Q1817.82 675.813 1818.7 674.077 Q1819.6 672.318 1819.6 670.628 Q1819.6 667.874 1817.66 666.138 Q1815.74 664.401 1812.64 664.401 Q1810.44 664.401 1807.98 665.165 Q1805.55 665.929 1802.78 667.48 L1802.78 662.758 Q1805.6 661.624 1808.05 661.045 Q1810.51 660.466 1812.54 660.466 Q1817.91 660.466 1821.11 663.151 Q1824.3 665.837 1824.3 670.327 Q1824.3 672.457 1823.49 674.378 Q1822.71 676.276 1820.6 678.869 Q1820.02 679.54 1816.92 682.758 Q1813.82 685.952 1808.17 691.716 Z" fill="#000000" fill-rule="nonzero" fill-opacity="1" /><path clip-path="url(#clip530)" d="M1844.3 664.17 Q1840.69 664.17 1838.86 667.735 Q1837.06 671.276 1837.06 678.406 Q1837.06 685.512 1838.86 689.077 Q1840.69 692.619 1844.3 692.619 Q1847.94 692.619 1849.74 689.077 Q1851.57 685.512 1851.57 678.406 Q1851.57 671.276 1849.74 667.735 Q1847.94 664.17 1844.3 664.17 M1844.3 660.466 Q1850.11 660.466 1853.17 665.073 Q1856.25 669.656 1856.25 678.406 Q1856.25 687.133 1853.17 691.739 Q1850.11 696.323 1844.3 696.323 Q1838.49 696.323 1835.41 691.739 Q1832.36 687.133 1832.36 678.406 Q1832.36 669.656 1835.41 665.073 Q1838.49 660.466 1844.3 660.466 Z" fill="#000000" fill-rule="nonzero" fill-opacity="1" /><path clip-path="url(#clip530)" d="M1768.91 520.122 Q1765.3 520.122 1763.47 523.687 Q1761.66 527.229 1761.66 534.358 Q1761.66 541.465 1763.47 545.03 Q1765.3 548.571 1768.91 548.571 Q1772.54 548.571 1774.35 545.03 Q1776.18 541.465 1776.18 534.358 Q1776.18 527.229 1774.35 523.687 Q1772.54 520.122 1768.91 520.122 M1768.91 516.419 Q1774.72 516.419 1777.78 521.025 Q1780.85 525.608 1780.85 534.358 Q1780.85 543.085 1777.78 547.692 Q1774.72 552.275 1768.91 552.275 Q1763.1 552.275 1760.02 547.692 Q1756.97 543.085 1756.97 534.358 Q1756.97 525.608 1760.02 521.025 Q1763.1 516.419 1768.91 516.419 Z" fill="#000000" fill-rule="nonzero" fill-opacity="1" /><path clip-path="url(#clip530)" d="M1789.07 545.724 L1793.96 545.724 L1793.96 551.604 L1789.07 551.604 L1789.07 545.724 Z" fill="#000000" fill-rule="nonzero" fill-opacity="1" /><path clip-path="url(#clip530)" d="M1816.99 521.118 L1805.18 539.567 L1816.99 539.567 L1816.99 521.118 M1815.76 517.044 L1821.64 517.044 L1821.64 539.567 L1826.57 539.567 L1826.57 543.456 L1821.64 543.456 L1821.64 551.604 L1816.99 551.604 L1816.99 543.456 L1801.39 543.456 L1801.39 538.942 L1815.76 517.044 Z" fill="#000000" fill-rule="nonzero" fill-opacity="1" /><path clip-path="url(#clip530)" d="M1844.3 520.122 Q1840.69 520.122 1838.86 523.687 Q1837.06 527.229 1837.06 534.358 Q1837.06 541.465 1838.86 545.03 Q1840.69 548.571 1844.3 548.571 Q1847.94 548.571 1849.74 545.03 Q1851.57 541.465 1851.57 534.358 Q1851.57 527.229 1849.74 523.687 Q1847.94 520.122 1844.3 520.122 M1844.3 516.419 Q1850.11 516.419 1853.17 521.025 Q1856.25 525.608 1856.25 534.358 Q1856.25 543.085 1853.17 547.692 Q1850.11 552.275 1844.3 552.275 Q1838.49 552.275 1835.41 547.692 Q1832.36 543.085 1832.36 534.358 Q1832.36 525.608 1835.41 521.025 Q1838.49 516.419 1844.3 516.419 Z" fill="#000000" fill-rule="nonzero" fill-opacity="1" /><path clip-path="url(#clip530)" d="M1768.91 376.075 Q1765.3 376.075 1763.47 379.64 Q1761.66 383.181 1761.66 390.311 Q1761.66 397.417 1763.47 400.982 Q1765.3 404.524 1768.91 404.524 Q1772.54 404.524 1774.35 400.982 Q1776.18 397.417 1776.18 390.311 Q1776.18 383.181 1774.35 379.64 Q1772.54 376.075 1768.91 376.075 M1768.91 372.371 Q1774.72 372.371 1777.78 376.978 Q1780.85 381.561 1780.85 390.311 Q1780.85 399.038 1777.78 403.644 Q1774.72 408.227 1768.91 408.227 Q1763.1 408.227 1760.02 403.644 Q1756.97 399.038 1756.97 390.311 Q1756.97 381.561 1760.02 376.978 Q1763.1 372.371 1768.91 372.371 Z" fill="#000000" fill-rule="nonzero" fill-opacity="1" /><path clip-path="url(#clip530)" d="M1789.07 401.677 L1793.96 401.677 L1793.96 407.556 L1789.07 407.556 L1789.07 401.677 Z" fill="#000000" fill-rule="nonzero" fill-opacity="1" /><path clip-path="url(#clip530)" d="M1814.72 388.413 Q1811.57 388.413 1809.72 390.565 Q1807.89 392.718 1807.89 396.468 Q1807.89 400.195 1809.72 402.371 Q1811.57 404.524 1814.72 404.524 Q1817.87 404.524 1819.7 402.371 Q1821.55 400.195 1821.55 396.468 Q1821.55 392.718 1819.7 390.565 Q1817.87 388.413 1814.72 388.413 M1824 373.76 L1824 378.019 Q1822.24 377.186 1820.44 376.746 Q1818.66 376.306 1816.9 376.306 Q1812.27 376.306 1809.81 379.431 Q1807.38 382.556 1807.03 388.876 Q1808.4 386.862 1810.46 385.797 Q1812.52 384.709 1815 384.709 Q1820.21 384.709 1823.22 387.88 Q1826.25 391.028 1826.25 396.468 Q1826.25 401.792 1823.1 405.01 Q1819.95 408.227 1814.72 408.227 Q1808.72 408.227 1805.55 403.644 Q1802.38 399.038 1802.38 390.311 Q1802.38 382.116 1806.27 377.255 Q1810.16 372.371 1816.71 372.371 Q1818.47 372.371 1820.25 372.718 Q1822.06 373.066 1824 373.76 Z" fill="#000000" fill-rule="nonzero" fill-opacity="1" /><path clip-path="url(#clip530)" d="M1844.3 376.075 Q1840.69 376.075 1838.86 379.64 Q1837.06 383.181 1837.06 390.311 Q1837.06 397.417 1838.86 400.982 Q1840.69 404.524 1844.3 404.524 Q1847.94 404.524 1849.74 400.982 Q1851.57 397.417 1851.57 390.311 Q1851.57 383.181 1849.74 379.64 Q1847.94 376.075 1844.3 376.075 M1844.3 372.371 Q1850.11 372.371 1853.17 376.978 Q1856.25 381.561 1856.25 390.311 Q1856.25 399.038 1853.17 403.644 Q1850.11 408.227 1844.3 408.227 Q1838.49 408.227 1835.41 403.644 Q1832.36 399.038 1832.36 390.311 Q1832.36 381.561 1835.41 376.978 Q1838.49 372.371 1844.3 372.371 Z" fill="#000000" fill-rule="nonzero" fill-opacity="1" /><path clip-path="url(#clip530)" d="M1768.91 232.027 Q1765.3 232.027 1763.47 235.592 Q1761.66 239.134 1761.66 246.263 Q1761.66 253.37 1763.47 256.935 Q1765.3 260.476 1768.91 260.476 Q1772.54 260.476 1774.35 256.935 Q1776.18 253.37 1776.18 246.263 Q1776.18 239.134 1774.35 235.592 Q1772.54 232.027 1768.91 232.027 M1768.91 228.324 Q1774.72 228.324 1777.78 232.93 Q1780.85 237.513 1780.85 246.263 Q1780.85 254.99 1777.78 259.597 Q1774.72 264.18 1768.91 264.18 Q1763.1 264.18 1760.02 259.597 Q1756.97 254.99 1756.97 246.263 Q1756.97 237.513 1760.02 232.93 Q1763.1 228.324 1768.91 228.324 Z" fill="#000000" fill-rule="nonzero" fill-opacity="1" /><path clip-path="url(#clip530)" d="M1789.07 257.629 L1793.96 257.629 L1793.96 263.509 L1789.07 263.509 L1789.07 257.629 Z" fill="#000000" fill-rule="nonzero" fill-opacity="1" /><path clip-path="url(#clip530)" d="M1814.14 247.097 Q1810.81 247.097 1808.89 248.879 Q1806.99 250.661 1806.99 253.786 Q1806.99 256.911 1808.89 258.694 Q1810.81 260.476 1814.14 260.476 Q1817.47 260.476 1819.4 258.694 Q1821.32 256.888 1821.32 253.786 Q1821.32 250.661 1819.4 248.879 Q1817.5 247.097 1814.14 247.097 M1809.47 245.106 Q1806.46 244.365 1804.77 242.305 Q1803.1 240.245 1803.1 237.282 Q1803.1 233.138 1806.04 230.731 Q1809 228.324 1814.14 228.324 Q1819.3 228.324 1822.24 230.731 Q1825.18 233.138 1825.18 237.282 Q1825.18 240.245 1823.49 242.305 Q1821.83 244.365 1818.84 245.106 Q1822.22 245.893 1824.09 248.185 Q1825.99 250.476 1825.99 253.786 Q1825.99 258.81 1822.91 261.495 Q1819.86 264.18 1814.14 264.18 Q1808.42 264.18 1805.34 261.495 Q1802.29 258.81 1802.29 253.786 Q1802.29 250.476 1804.19 248.185 Q1806.09 245.893 1809.47 245.106 M1807.75 237.722 Q1807.75 240.407 1809.42 241.911 Q1811.11 243.416 1814.14 243.416 Q1817.15 243.416 1818.84 241.911 Q1820.55 240.407 1820.55 237.722 Q1820.55 235.036 1818.84 233.532 Q1817.15 232.027 1814.14 232.027 Q1811.11 232.027 1809.42 233.532 Q1807.75 235.036 1807.75 237.722 Z" fill="#000000" fill-rule="nonzero" fill-opacity="1" /><path clip-path="url(#clip530)" d="M1844.3 232.027 Q1840.69 232.027 1838.86 235.592 Q1837.06 239.134 1837.06 246.263 Q1837.06 253.37 1838.86 256.935 Q1840.69 260.476 1844.3 260.476 Q1847.94 260.476 1849.74 256.935 Q1851.57 253.37 1851.57 246.263 Q1851.57 239.134 1849.74 235.592 Q1847.94 232.027 1844.3 232.027 M1844.3 228.324 Q1850.11 228.324 1853.17 232.93 Q1856.25 237.513 1856.25 246.263 Q1856.25 254.99 1853.17 259.597 Q1850.11 264.18 1844.3 264.18 Q1838.49 264.18 1835.41 259.597 Q1832.36 254.99 1832.36 246.263 Q1832.36 237.513 1835.41 232.93 Q1838.49 228.324 1844.3 228.324 Z" fill="#000000" fill-rule="nonzero" fill-opacity="1" /><path clip-path="url(#clip530)" d="M1651.86 492.046 Q1651.86 493.85 1650.74 494.881 Q1649.61 495.879 1648.32 495.879 Q1647.1 495.879 1646.45 495.17 Q1645.81 494.462 1645.81 493.56 Q1645.81 492.336 1646.71 491.274 Q1647.61 490.211 1648.96 489.985 Q1647.64 489.148 1645.68 489.148 Q1644.39 489.148 1643.26 489.824 Q1642.17 490.501 1641.49 491.37 Q1640.85 492.24 1640.27 493.496 Q1639.72 494.72 1639.5 495.46 Q1639.3 496.169 1639.14 496.942 L1636.89 505.959 Q1635.79 510.243 1635.79 511.756 Q1635.79 513.624 1636.69 514.88 Q1637.6 516.104 1639.4 516.104 Q1640.11 516.104 1640.91 515.911 Q1641.72 515.686 1642.75 515.106 Q1643.81 514.494 1644.75 513.592 Q1645.71 512.658 1646.65 511.08 Q1647.58 509.502 1648.19 507.473 Q1648.39 506.765 1649.03 506.765 Q1649.83 506.765 1649.83 507.409 Q1649.83 507.956 1649.38 509.116 Q1648.96 510.243 1648.03 511.724 Q1647.13 513.174 1645.94 514.494 Q1644.75 515.782 1642.97 516.684 Q1641.2 517.586 1639.27 517.586 Q1636.5 517.586 1634.67 516.104 Q1632.83 514.623 1632.15 512.562 Q1631.99 512.851 1631.77 513.238 Q1631.54 513.624 1630.87 514.494 Q1630.22 515.331 1629.48 515.975 Q1628.74 516.587 1627.58 517.07 Q1626.45 517.586 1625.23 517.586 Q1623.68 517.586 1622.3 517.135 Q1620.95 516.684 1619.98 515.653 Q1619.01 514.623 1619.01 513.206 Q1619.01 511.628 1620.08 510.533 Q1621.17 509.405 1622.65 509.405 Q1623.59 509.405 1624.33 509.953 Q1625.1 510.5 1625.1 511.692 Q1625.1 513.012 1624.2 514.011 Q1623.3 515.009 1622.01 515.267 Q1623.33 516.104 1625.29 516.104 Q1627.42 516.104 1629.09 514.236 Q1630.77 512.368 1631.57 509.244 Q1633.57 501.74 1634.34 498.391 Q1635.12 495.009 1635.12 493.56 Q1635.12 492.207 1634.76 491.274 Q1634.41 490.34 1633.8 489.921 Q1633.22 489.47 1632.67 489.309 Q1632.15 489.148 1631.57 489.148 Q1630.61 489.148 1629.51 489.534 Q1628.45 489.921 1627.16 490.823 Q1625.91 491.692 1624.71 493.496 Q1623.52 495.299 1622.72 497.779 Q1622.56 498.52 1621.85 498.52 Q1621.07 498.488 1621.07 497.844 Q1621.07 497.296 1621.49 496.169 Q1621.94 495.009 1622.85 493.56 Q1623.78 492.111 1624.97 490.823 Q1626.2 489.502 1627.97 488.6 Q1629.77 487.699 1631.7 487.699 Q1632.57 487.699 1633.41 487.892 Q1634.28 488.053 1635.31 488.536 Q1636.37 489.019 1637.31 490.082 Q1638.24 491.145 1638.82 492.691 Q1639.21 491.95 1639.72 491.241 Q1640.27 490.533 1641.11 489.663 Q1641.98 488.761 1643.17 488.246 Q1644.39 487.699 1645.74 487.699 Q1647.06 487.699 1648.35 488.053 Q1649.64 488.375 1650.74 489.438 Q1651.86 490.468 1651.86 492.046 Z" fill="#000000" fill-rule="nonzero" fill-opacity="1" /><polyline clip-path="url(#clip533)" style="stroke:#009af9; stroke-linecap:round; stroke-linejoin:round; stroke-width:4; stroke-opacity:1; fill:none" points="3056.21,663.794 2751.96,663.749 2668.31,663.571 2468.83,663.184 2373.24,662.659 2372.46,662.655 2154.23,661.473 2033.76,660.839 1937.8,651.808 "/>
<circle clip-path="url(#clip533)" cx="3056.21" cy="663.794" r="7.2" fill="#009af9" fill-rule="evenodd" fill-opacity="1" stroke="none"/>
<circle clip-path="url(#clip533)" cx="2751.96" cy="663.749" r="7.2" fill="#009af9" fill-rule="evenodd" fill-opacity="1" stroke="none"/>
<circle clip-path="url(#clip533)" cx="2668.31" cy="663.571" r="7.2" fill="#009af9" fill-rule="evenodd" fill-opacity="1" stroke="none"/>
<circle clip-path="url(#clip533)" cx="2468.83" cy="663.184" r="7.2" fill="#009af9" fill-rule="evenodd" fill-opacity="1" stroke="none"/>
<circle clip-path="url(#clip533)" cx="2373.24" cy="662.659" r="7.2" fill="#009af9" fill-rule="evenodd" fill-opacity="1" stroke="none"/>
<circle clip-path="url(#clip533)" cx="2372.46" cy="662.655" r="7.2" fill="#009af9" fill-rule="evenodd" fill-opacity="1" stroke="none"/>
<circle clip-path="url(#clip533)" cx="2154.23" cy="661.473" r="7.2" fill="#009af9" fill-rule="evenodd" fill-opacity="1" stroke="none"/>
<circle clip-path="url(#clip533)" cx="2033.76" cy="660.839" r="7.2" fill="#009af9" fill-rule="evenodd" fill-opacity="1" stroke="none"/>
<circle clip-path="url(#clip533)" cx="1937.8" cy="651.808" r="7.2" fill="#009af9" fill-rule="evenodd" fill-opacity="1" stroke="none"/>
<polyline clip-path="url(#clip533)" style="stroke:#e26f46; stroke-linecap:round; stroke-linejoin:round; stroke-width:4; stroke-opacity:1; fill:none" points="2751.96,786.94 2668.31,787.196 2468.83,787.788 2373.24,788.039 2372.46,788.041 2154.23,788.571 2033.76,788.859 1937.8,789.994 "/>
<circle clip-path="url(#clip533)" cx="2751.96" cy="786.94" r="7.2" fill="#e26f46" fill-rule="evenodd" fill-opacity="1" stroke="none"/>
<circle clip-path="url(#clip533)" cx="2668.31" cy="787.196" r="7.2" fill="#e26f46" fill-rule="evenodd" fill-opacity="1" stroke="none"/>
<circle clip-path="url(#clip533)" cx="2468.83" cy="787.788" r="7.2" fill="#e26f46" fill-rule="evenodd" fill-opacity="1" stroke="none"/>
<circle clip-path="url(#clip533)" cx="2373.24" cy="788.039" r="7.2" fill="#e26f46" fill-rule="evenodd" fill-opacity="1" stroke="none"/>
<circle clip-path="url(#clip533)" cx="2372.46" cy="788.041" r="7.2" fill="#e26f46" fill-rule="evenodd" fill-opacity="1" stroke="none"/>
<circle clip-path="url(#clip533)" cx="2154.23" cy="788.571" r="7.2" fill="#e26f46" fill-rule="evenodd" fill-opacity="1" stroke="none"/>
<circle clip-path="url(#clip533)" cx="2033.76" cy="788.859" r="7.2" fill="#e26f46" fill-rule="evenodd" fill-opacity="1" stroke="none"/>
<circle clip-path="url(#clip533)" cx="1937.8" cy="789.994" r="7.2" fill="#e26f46" fill-rule="evenodd" fill-opacity="1" stroke="none"/>
<polyline clip-path="url(#clip533)" style="stroke:#3da44d; stroke-linecap:round; stroke-linejoin:round; stroke-width:4; stroke-opacity:1; fill:none" points="2668.31,440.529 2468.83,440.604 2373.24,441.846 2372.46,441.906 2154.23,453.474 2033.76,459.634 1937.8,465.805 "/>
<circle clip-path="url(#clip533)" cx="2668.31" cy="440.529" r="7.2" fill="#3da44d" fill-rule="evenodd" fill-opacity="1" stroke="none"/>
<circle clip-path="url(#clip533)" cx="2468.83" cy="440.604" r="7.2" fill="#3da44d" fill-rule="evenodd" fill-opacity="1" stroke="none"/>
<circle clip-path="url(#clip533)" cx="2373.24" cy="441.846" r="7.2" fill="#3da44d" fill-rule="evenodd" fill-opacity="1" stroke="none"/>
<circle clip-path="url(#clip533)" cx="2372.46" cy="441.906" r="7.2" fill="#3da44d" fill-rule="evenodd" fill-opacity="1" stroke="none"/>
<circle clip-path="url(#clip533)" cx="2154.23" cy="453.474" r="7.2" fill="#3da44d" fill-rule="evenodd" fill-opacity="1" stroke="none"/>
<circle clip-path="url(#clip533)" cx="2033.76" cy="459.634" r="7.2" fill="#3da44d" fill-rule="evenodd" fill-opacity="1" stroke="none"/>
<circle clip-path="url(#clip533)" cx="1937.8" cy="465.805" r="7.2" fill="#3da44d" fill-rule="evenodd" fill-opacity="1" stroke="none"/>
<polyline clip-path="url(#clip533)" style="stroke:#c271d2; stroke-linecap:round; stroke-linejoin:round; stroke-width:4; stroke-opacity:1; fill:none" points="2468.83,549.673 2373.24,549.596 2372.46,549.594 2154.23,548.573 2033.76,547.155 1937.8,545.655 "/>
<circle clip-path="url(#clip533)" cx="2468.83" cy="549.673" r="7.2" fill="#c271d2" fill-rule="evenodd" fill-opacity="1" stroke="none"/>
<circle clip-path="url(#clip533)" cx="2373.24" cy="549.596" r="7.2" fill="#c271d2" fill-rule="evenodd" fill-opacity="1" stroke="none"/>
<circle clip-path="url(#clip533)" cx="2372.46" cy="549.594" r="7.2" fill="#c271d2" fill-rule="evenodd" fill-opacity="1" stroke="none"/>
<circle clip-path="url(#clip533)" cx="2154.23" cy="548.573" r="7.2" fill="#c271d2" fill-rule="evenodd" fill-opacity="1" stroke="none"/>
<circle clip-path="url(#clip533)" cx="2033.76" cy="547.155" r="7.2" fill="#c271d2" fill-rule="evenodd" fill-opacity="1" stroke="none"/>
<circle clip-path="url(#clip533)" cx="1937.8" cy="545.655" r="7.2" fill="#c271d2" fill-rule="evenodd" fill-opacity="1" stroke="none"/>
<polyline clip-path="url(#clip533)" style="stroke:#ac8d18; stroke-linecap:round; stroke-linejoin:round; stroke-width:4; stroke-opacity:1; fill:none" points="2373.24,399.548 2372.46,399.465 2154.23,393.316 2033.76,392.815 1937.8,393.911 "/>
<circle clip-path="url(#clip533)" cx="2373.24" cy="399.548" r="7.2" fill="#ac8d18" fill-rule="evenodd" fill-opacity="1" stroke="none"/>
<circle clip-path="url(#clip533)" cx="2372.46" cy="399.465" r="7.2" fill="#ac8d18" fill-rule="evenodd" fill-opacity="1" stroke="none"/>
<circle clip-path="url(#clip533)" cx="2154.23" cy="393.316" r="7.2" fill="#ac8d18" fill-rule="evenodd" fill-opacity="1" stroke="none"/>
<circle clip-path="url(#clip533)" cx="2033.76" cy="392.815" r="7.2" fill="#ac8d18" fill-rule="evenodd" fill-opacity="1" stroke="none"/>
<circle clip-path="url(#clip533)" cx="1937.8" cy="393.911" r="7.2" fill="#ac8d18" fill-rule="evenodd" fill-opacity="1" stroke="none"/>
<polyline clip-path="url(#clip533)" style="stroke:#00a9ad; stroke-linecap:round; stroke-linejoin:round; stroke-width:4; stroke-opacity:1; fill:none" points="2372.46,305.048 2154.23,299.852 2033.76,297.323 1937.8,295.735 "/>
<circle clip-path="url(#clip533)" cx="2372.46" cy="305.048" r="7.2" fill="#00a9ad" fill-rule="evenodd" fill-opacity="1" stroke="none"/>
<circle clip-path="url(#clip533)" cx="2154.23" cy="299.852" r="7.2" fill="#00a9ad" fill-rule="evenodd" fill-opacity="1" stroke="none"/>
<circle clip-path="url(#clip533)" cx="2033.76" cy="297.323" r="7.2" fill="#00a9ad" fill-rule="evenodd" fill-opacity="1" stroke="none"/>
<circle clip-path="url(#clip533)" cx="1937.8" cy="295.735" r="7.2" fill="#00a9ad" fill-rule="evenodd" fill-opacity="1" stroke="none"/>
<polyline clip-path="url(#clip533)" style="stroke:#ed5d92; stroke-linecap:round; stroke-linejoin:round; stroke-width:4; stroke-opacity:1; fill:none" points="2154.23,161.315 2033.76,161.768 1937.8,162.242 "/>
<circle clip-path="url(#clip533)" cx="2154.23" cy="161.315" r="7.2" fill="#ed5d92" fill-rule="evenodd" fill-opacity="1" stroke="none"/>
<circle clip-path="url(#clip533)" cx="2033.76" cy="161.768" r="7.2" fill="#ed5d92" fill-rule="evenodd" fill-opacity="1" stroke="none"/>
<circle clip-path="url(#clip533)" cx="1937.8" cy="162.242" r="7.2" fill="#ed5d92" fill-rule="evenodd" fill-opacity="1" stroke="none"/>
<polyline clip-path="url(#clip533)" style="stroke:#c68125; stroke-linecap:round; stroke-linejoin:round; stroke-width:4; stroke-opacity:1; fill:none" points="2033.76,688.085 1937.8,680.812 "/>
<circle clip-path="url(#clip533)" cx="2033.76" cy="688.085" r="7.2" fill="#c68125" fill-rule="evenodd" fill-opacity="1" stroke="none"/>
<circle clip-path="url(#clip533)" cx="1937.8" cy="680.812" r="7.2" fill="#c68125" fill-rule="evenodd" fill-opacity="1" stroke="none"/>
<circle clip-path="url(#clip533)" cx="1937.8" cy="130.035" r="7.2" fill="#00a98d" fill-rule="evenodd" fill-opacity="1" stroke="none"/>
</svg>
