<?xml version="1.0" encoding="utf-8"?>
<svg xmlns="http://www.w3.org/2000/svg" xmlns:xlink="http://www.w3.org/1999/xlink" width="800" height="250" viewBox="0 0 3200 1000">
<defs>
  <clipPath id="clip490">
    <rect x="0" y="0" width="3200" height="1000"/>
  </clipPath>
</defs>
<path clip-path="url(#clip490)" d="M0 1000 L3200 1000 L3200 0 L0 0  Z" fill="#ffffff" fill-rule="evenodd" fill-opacity="1"/>
<defs>
  <clipPath id="clip491">
    <rect x="640" y="0" width="2241" height="1000"/>
  </clipPath>
</defs>
<path clip-path="url(#clip490)" d="M295.289 809.793 L1489.76 809.793 L1489.76 110.236 L295.289 110.236  Z" fill="#ffffff" fill-rule="evenodd" fill-opacity="1"/>
<defs>
  <clipPath id="clip492">
    <rect x="295" y="110" width="1195" height="701"/>
  </clipPath>
</defs>
<polyline clip-path="url(#clip492)" style="stroke:#000000; stroke-linecap:round; stroke-linejoin:round; stroke-width:2; stroke-opacity:0.1; fill:none" points="325.217,809.793 325.217,110.236 "/>
<polyline clip-path="url(#clip492)" style="stroke:#000000; stroke-linecap:round; stroke-linejoin:round; stroke-width:2; stroke-opacity:0.1; fill:none" points="538.312,809.793 538.312,110.236 "/>
<polyline clip-path="url(#clip492)" style="stroke:#000000; stroke-linecap:round; stroke-linejoin:round; stroke-width:2; stroke-opacity:0.1; fill:none" points="751.407,809.793 751.407,110.236 "/>
<polyline clip-path="url(#clip492)" style="stroke:#000000; stroke-linecap:round; stroke-linejoin:round; stroke-width:2; stroke-opacity:0.1; fill:none" points="964.502,809.793 964.502,110.236 "/>
<polyline clip-path="url(#clip492)" style="stroke:#000000; stroke-linecap:round; stroke-linejoin:round; stroke-width:2; stroke-opacity:0.1; fill:none" points="1177.6,809.793 1177.6,110.236 "/>
<polyline clip-path="url(#clip492)" style="stroke:#000000; stroke-linecap:round; stroke-linejoin:round; stroke-width:2; stroke-opacity:0.1; fill:none" points="1390.69,809.793 1390.69,110.236 "/>
<polyline clip-path="url(#clip492)" style="stroke:#000000; stroke-linecap:round; stroke-linejoin:round; stroke-width:2; stroke-opacity:0.1; fill:none" points="295.289,790.006 1489.76,790.006 "/>
<polyline clip-path="url(#clip492)" style="stroke:#000000; stroke-linecap:round; stroke-linejoin:round; stroke-width:2; stroke-opacity:0.1; fill:none" points="295.289,624.213 1489.76,624.213 "/>
<polyline clip-path="url(#clip492)" style="stroke:#000000; stroke-linecap:round; stroke-linejoin:round; stroke-width:2; stroke-opacity:0.1; fill:none" points="295.289,458.42 1489.76,458.42 "/>
<polyline clip-path="url(#clip492)" style="stroke:#000000; stroke-linecap:round; stroke-linejoin:round; stroke-width:2; stroke-opacity:0.1; fill:none" points="295.289,292.627 1489.76,292.627 "/>
<polyline clip-path="url(#clip492)" style="stroke:#000000; stroke-linecap:round; stroke-linejoin:round; stroke-width:2; stroke-opacity:0.1; fill:none" points="295.289,126.834 1489.76,126.834 "/>
<polyline clip-path="url(#clip490)" style="stroke:#000000; stroke-linecap:round; stroke-linejoin:round; stroke-width:4; stroke-opacity:1; fill:none" points="295.289,809.793 1489.76,809.793 "/>
<polyline clip-path="url(#clip490)" style="stroke:#000000; stroke-linecap:round; stroke-linejoin:round; stroke-width:4; stroke-opacity:1; fill:none" points="325.217,809.793 325.217,790.895 "/>
<polyline clip-path="url(#clip490)" style="stroke:#000000; stroke-linecap:round; stroke-linejoin:round; stroke-width:4; stroke-opacity:1; fill:none" points="538.312,809.793 538.312,790.895 "/>
<polyline clip-path="url(#clip490)" style="stroke:#000000; stroke-linecap:round; stroke-linejoin:round; stroke-width:4; stroke-opacity:1; fill:none" points="751.407,809.793 751.407,790.895 "/>
<polyline clip-path="url(#clip490)" style="stroke:#000000; stroke-linecap:round; stroke-linejoin:round; stroke-width:4; stroke-opacity:1; fill:none" points="964.502,809.793 964.502,790.895 "/>
<polyline clip-path="url(#clip490)" style="stroke:#000000; stroke-linecap:round; stroke-linejoin:round; stroke-width:4; stroke-opacity:1; fill:none" points="1177.6,809.793 1177.6,790.895 "/>
<polyline clip-path="url(#clip490)" style="stroke:#000000; stroke-linecap:round; stroke-linejoin:round; stroke-width:4; stroke-opacity:1; fill:none" points="1390.69,809.793 1390.69,790.895 "/>
<path clip-path="url(#clip490)" d="M302.601 847.111 Q298.99 847.111 297.161 850.676 Q295.356 854.218 295.356 861.347 Q295.356 868.454 297.161 872.019 Q298.99 875.56 302.601 875.56 Q306.235 875.56 308.041 872.019 Q309.869 868.454 309.869 861.347 Q309.869 854.218 308.041 850.676 Q306.235 847.111 302.601 847.111 M302.601 843.408 Q308.411 843.408 311.467 848.014 Q314.545 852.597 314.545 861.347 Q314.545 870.074 311.467 874.681 Q308.411 879.264 302.601 879.264 Q296.791 879.264 293.712 874.681 Q290.657 870.074 290.657 861.347 Q290.657 852.597 293.712 848.014 Q296.791 843.408 302.601 843.408 Z" fill="#000000" fill-rule="nonzero" fill-opacity="1" /><path clip-path="url(#clip490)" d="M322.763 872.713 L327.647 872.713 L327.647 878.593 L322.763 878.593 L322.763 872.713 Z" fill="#000000" fill-rule="nonzero" fill-opacity="1" /><path clip-path="url(#clip490)" d="M347.832 847.111 Q344.221 847.111 342.392 850.676 Q340.587 854.218 340.587 861.347 Q340.587 868.454 342.392 872.019 Q344.221 875.56 347.832 875.56 Q351.466 875.56 353.272 872.019 Q355.101 868.454 355.101 861.347 Q355.101 854.218 353.272 850.676 Q351.466 847.111 347.832 847.111 M347.832 843.408 Q353.642 843.408 356.698 848.014 Q359.777 852.597 359.777 861.347 Q359.777 870.074 356.698 874.681 Q353.642 879.264 347.832 879.264 Q342.022 879.264 338.943 874.681 Q335.888 870.074 335.888 861.347 Q335.888 852.597 338.943 848.014 Q342.022 843.408 347.832 843.408 Z" fill="#000000" fill-rule="nonzero" fill-opacity="1" /><path clip-path="url(#clip490)" d="M516.194 847.111 Q512.583 847.111 510.754 850.676 Q508.948 854.218 508.948 861.347 Q508.948 868.454 510.754 872.019 Q512.583 875.56 516.194 875.56 Q519.828 875.56 521.633 872.019 Q523.462 868.454 523.462 861.347 Q523.462 854.218 521.633 850.676 Q519.828 847.111 516.194 847.111 M516.194 843.408 Q522.004 843.408 525.059 848.014 Q528.138 852.597 528.138 861.347 Q528.138 870.074 525.059 874.681 Q522.004 879.264 516.194 879.264 Q510.384 879.264 507.305 874.681 Q504.249 870.074 504.249 861.347 Q504.249 852.597 507.305 848.014 Q510.384 843.408 516.194 843.408 Z" fill="#000000" fill-rule="nonzero" fill-opacity="1" /><path clip-path="url(#clip490)" d="M536.356 872.713 L541.24 872.713 L541.24 878.593 L536.356 878.593 L536.356 872.713 Z" fill="#000000" fill-rule="nonzero" fill-opacity="1" /><path clip-path="url(#clip490)" d="M551.471 844.033 L569.828 844.033 L569.828 847.968 L555.754 847.968 L555.754 856.44 Q556.772 856.093 557.791 855.931 Q558.809 855.746 559.828 855.746 Q565.615 855.746 568.994 858.917 Q572.374 862.088 572.374 867.505 Q572.374 873.083 568.902 876.185 Q565.43 879.264 559.11 879.264 Q556.934 879.264 554.666 878.894 Q552.42 878.523 550.013 877.783 L550.013 873.083 Q552.096 874.218 554.318 874.773 Q556.541 875.329 559.018 875.329 Q563.022 875.329 565.36 873.222 Q567.698 871.116 567.698 867.505 Q567.698 863.894 565.36 861.787 Q563.022 859.681 559.018 859.681 Q557.143 859.681 555.268 860.097 Q553.416 860.514 551.471 861.394 L551.471 844.033 Z" fill="#000000" fill-rule="nonzero" fill-opacity="1" /><path clip-path="url(#clip490)" d="M718.56 874.658 L726.198 874.658 L726.198 848.292 L717.888 849.959 L717.888 845.699 L726.152 844.033 L730.828 844.033 L730.828 874.658 L738.467 874.658 L738.467 878.593 L718.56 878.593 L718.56 874.658 Z" fill="#000000" fill-rule="nonzero" fill-opacity="1" /><path clip-path="url(#clip490)" d="M747.911 872.713 L752.796 872.713 L752.796 878.593 L747.911 878.593 L747.911 872.713 Z" fill="#000000" fill-rule="nonzero" fill-opacity="1" /><path clip-path="url(#clip490)" d="M772.981 847.111 Q769.37 847.111 767.541 850.676 Q765.735 854.218 765.735 861.347 Q765.735 868.454 767.541 872.019 Q769.37 875.56 772.981 875.56 Q776.615 875.56 778.42 872.019 Q780.249 868.454 780.249 861.347 Q780.249 854.218 778.42 850.676 Q776.615 847.111 772.981 847.111 M772.981 843.408 Q778.791 843.408 781.846 848.014 Q784.925 852.597 784.925 861.347 Q784.925 870.074 781.846 874.681 Q778.791 879.264 772.981 879.264 Q767.17 879.264 764.092 874.681 Q761.036 870.074 761.036 861.347 Q761.036 852.597 764.092 848.014 Q767.17 843.408 772.981 843.408 Z" fill="#000000" fill-rule="nonzero" fill-opacity="1" /><path clip-path="url(#clip490)" d="M932.152 874.658 L939.791 874.658 L939.791 848.292 L931.481 849.959 L931.481 845.699 L939.745 844.033 L944.421 844.033 L944.421 874.658 L952.06 874.658 L952.06 878.593 L932.152 878.593 L932.152 874.658 Z" fill="#000000" fill-rule="nonzero" fill-opacity="1" /><path clip-path="url(#clip490)" d="M961.504 872.713 L966.388 872.713 L966.388 878.593 L961.504 878.593 L961.504 872.713 Z" fill="#000000" fill-rule="nonzero" fill-opacity="1" /><path clip-path="url(#clip490)" d="M976.62 844.033 L994.976 844.033 L994.976 847.968 L980.902 847.968 L980.902 856.44 Q981.921 856.093 982.939 855.931 Q983.958 855.746 984.976 855.746 Q990.763 855.746 994.143 858.917 Q997.522 862.088 997.522 867.505 Q997.522 873.083 994.05 876.185 Q990.578 879.264 984.259 879.264 Q982.083 879.264 979.814 878.894 Q977.569 878.523 975.161 877.783 L975.161 873.083 Q977.245 874.218 979.467 874.773 Q981.689 875.329 984.166 875.329 Q988.171 875.329 990.509 873.222 Q992.847 871.116 992.847 867.505 Q992.847 863.894 990.509 861.787 Q988.171 859.681 984.166 859.681 Q982.291 859.681 980.416 860.097 Q978.564 860.514 976.62 861.394 L976.62 844.033 Z" fill="#000000" fill-rule="nonzero" fill-opacity="1" /><path clip-path="url(#clip490)" d="M1148.84 874.658 L1165.15 874.658 L1165.15 878.593 L1143.21 878.593 L1143.21 874.658 Q1145.87 871.903 1150.46 867.273 Q1155.06 862.621 1156.24 861.278 Q1158.49 858.755 1159.37 857.019 Q1160.27 855.26 1160.27 853.57 Q1160.27 850.815 1158.33 849.079 Q1156.4 847.343 1153.3 847.343 Q1151.1 847.343 1148.65 848.107 Q1146.22 848.871 1143.44 850.422 L1143.44 845.699 Q1146.27 844.565 1148.72 843.986 Q1151.17 843.408 1153.21 843.408 Q1158.58 843.408 1161.78 846.093 Q1164.97 848.778 1164.97 853.269 Q1164.97 855.398 1164.16 857.32 Q1163.37 859.218 1161.27 861.81 Q1160.69 862.482 1157.59 865.699 Q1154.48 868.894 1148.84 874.658 Z" fill="#000000" fill-rule="nonzero" fill-opacity="1" /><path clip-path="url(#clip490)" d="M1174.97 872.713 L1179.85 872.713 L1179.85 878.593 L1174.97 878.593 L1174.97 872.713 Z" fill="#000000" fill-rule="nonzero" fill-opacity="1" /><path clip-path="url(#clip490)" d="M1200.04 847.111 Q1196.43 847.111 1194.6 850.676 Q1192.79 854.218 1192.79 861.347 Q1192.79 868.454 1194.6 872.019 Q1196.43 875.56 1200.04 875.56 Q1203.67 875.56 1205.48 872.019 Q1207.31 868.454 1207.31 861.347 Q1207.31 854.218 1205.48 850.676 Q1203.67 847.111 1200.04 847.111 M1200.04 843.408 Q1205.85 843.408 1208.9 848.014 Q1211.98 852.597 1211.98 861.347 Q1211.98 870.074 1208.9 874.681 Q1205.85 879.264 1200.04 879.264 Q1194.23 879.264 1191.15 874.681 Q1188.09 870.074 1188.09 861.347 Q1188.09 852.597 1191.15 848.014 Q1194.23 843.408 1200.04 843.408 Z" fill="#000000" fill-rule="nonzero" fill-opacity="1" /><path clip-path="url(#clip490)" d="M1362.43 874.658 L1378.75 874.658 L1378.75 878.593 L1356.8 878.593 L1356.8 874.658 Q1359.47 871.903 1364.05 867.273 Q1368.66 862.621 1369.84 861.278 Q1372.08 858.755 1372.96 857.019 Q1373.86 855.26 1373.86 853.57 Q1373.86 850.815 1371.92 849.079 Q1370 847.343 1366.9 847.343 Q1364.7 847.343 1362.24 848.107 Q1359.81 848.871 1357.03 850.422 L1357.03 845.699 Q1359.86 844.565 1362.31 843.986 Q1364.77 843.408 1366.8 843.408 Q1372.17 843.408 1375.37 846.093 Q1378.56 848.778 1378.56 853.269 Q1378.56 855.398 1377.75 857.32 Q1376.97 859.218 1374.86 861.81 Q1374.28 862.482 1371.18 865.699 Q1368.08 868.894 1362.43 874.658 Z" fill="#000000" fill-rule="nonzero" fill-opacity="1" /><path clip-path="url(#clip490)" d="M1388.56 872.713 L1393.45 872.713 L1393.45 878.593 L1388.56 878.593 L1388.56 872.713 Z" fill="#000000" fill-rule="nonzero" fill-opacity="1" /><path clip-path="url(#clip490)" d="M1403.68 844.033 L1422.03 844.033 L1422.03 847.968 L1407.96 847.968 L1407.96 856.44 Q1408.98 856.093 1410 855.931 Q1411.02 855.746 1412.03 855.746 Q1417.82 855.746 1421.2 858.917 Q1424.58 862.088 1424.58 867.505 Q1424.58 873.083 1421.11 876.185 Q1417.64 879.264 1411.32 879.264 Q1409.14 879.264 1406.87 878.894 Q1404.63 878.523 1402.22 877.783 L1402.22 873.083 Q1404.3 874.218 1406.53 874.773 Q1408.75 875.329 1411.22 875.329 Q1415.23 875.329 1417.57 873.222 Q1419.9 871.116 1419.9 867.505 Q1419.9 863.894 1417.57 861.787 Q1415.23 859.681 1411.22 859.681 Q1409.35 859.681 1407.47 860.097 Q1405.62 860.514 1403.68 861.394 L1403.68 844.033 Z" fill="#000000" fill-rule="nonzero" fill-opacity="1" /><path clip-path="url(#clip490)" d="M906.128 960.438 Q906.128 961.05 905.42 961.115 L903.97 961.115 Q902.489 961.115 901.845 960.889 Q901.201 960.664 900.46 959.633 Q900.009 958.989 898.882 955.994 Q897.787 952.967 896.176 948.393 Q894.598 943.82 893.536 941.115 L877.658 959.859 Q876.563 961.243 875.468 961.243 Q874.663 961.243 874.083 960.696 Q873.504 960.148 873.504 959.311 Q873.504 958.699 873.729 958.345 Q873.987 957.991 874.663 957.282 L892.891 939.215 L886.483 921.276 Q885.259 917.959 884.55 917.121 Q883.874 916.284 882.199 915.994 Q881.587 915.833 881.587 915.318 Q881.587 914.609 882.779 914.609 Q889.156 914.609 890.83 919.279 L904.292 956.799 Q905.033 958.957 905.806 959.859 Q906.128 960.277 906.128 960.438 Z" fill="#000000" fill-rule="nonzero" fill-opacity="1" /><polyline clip-path="url(#clip490)" style="stroke:#000000; stroke-linecap:round; stroke-linejoin:round; stroke-width:4; stroke-opacity:1; fill:none" points="295.289,809.793 295.289,110.236 "/>
<polyline clip-path="url(#clip490)" style="stroke:#000000; stroke-linecap:round; stroke-linejoin:round; stroke-width:4; stroke-opacity:1; fill:none" points="295.289,790.006 314.187,790.006 "/>
<polyline clip-path="url(#clip490)" style="stroke:#000000; stroke-linecap:round; stroke-linejoin:round; stroke-width:4; stroke-opacity:1; fill:none" points="295.289,624.213 314.187,624.213 "/>
<polyline clip-path="url(#clip490)" style="stroke:#000000; stroke-linecap:round; stroke-linejoin:round; stroke-width:4; stroke-opacity:1; fill:none" points="295.289,458.42 314.187,458.42 "/>
<polyline clip-path="url(#clip490)" style="stroke:#000000; stroke-linecap:round; stroke-linejoin:round; stroke-width:4; stroke-opacity:1; fill:none" points="295.289,292.627 314.187,292.627 "/>
<polyline clip-path="url(#clip490)" style="stroke:#000000; stroke-linecap:round; stroke-linejoin:round; stroke-width:4; stroke-opacity:1; fill:none" points="295.289,126.834 314.187,126.834 "/>
<path clip-path="url(#clip490)" d="M159.952 775.804 Q156.341 775.804 154.512 779.369 Q152.706 782.911 152.706 790.04 Q152.706 797.147 154.512 800.712 Q156.341 804.253 159.952 804.253 Q163.586 804.253 165.391 800.712 Q167.22 797.147 167.22 790.04 Q167.22 782.911 165.391 779.369 Q163.586 775.804 159.952 775.804 M159.952 772.101 Q165.762 772.101 168.817 776.707 Q171.896 781.29 171.896 790.04 Q171.896 798.767 168.817 803.374 Q165.762 807.957 159.952 807.957 Q154.142 807.957 151.063 803.374 Q148.007 798.767 148.007 790.04 Q148.007 781.29 151.063 776.707 Q154.142 772.101 159.952 772.101 Z" fill="#000000" fill-rule="nonzero" fill-opacity="1" /><path clip-path="url(#clip490)" d="M180.114 801.406 L184.998 801.406 L184.998 807.286 L180.114 807.286 L180.114 801.406 Z" fill="#000000" fill-rule="nonzero" fill-opacity="1" /><path clip-path="url(#clip490)" d="M205.183 775.804 Q201.572 775.804 199.743 779.369 Q197.938 782.911 197.938 790.04 Q197.938 797.147 199.743 800.712 Q201.572 804.253 205.183 804.253 Q208.817 804.253 210.623 800.712 Q212.451 797.147 212.451 790.04 Q212.451 782.911 210.623 779.369 Q208.817 775.804 205.183 775.804 M205.183 772.101 Q210.993 772.101 214.049 776.707 Q217.127 781.29 217.127 790.04 Q217.127 798.767 214.049 803.374 Q210.993 807.957 205.183 807.957 Q199.373 807.957 196.294 803.374 Q193.239 798.767 193.239 790.04 Q193.239 781.29 196.294 776.707 Q199.373 772.101 205.183 772.101 Z" fill="#000000" fill-rule="nonzero" fill-opacity="1" /><path clip-path="url(#clip490)" d="M235.345 775.804 Q231.734 775.804 229.905 779.369 Q228.099 782.911 228.099 790.04 Q228.099 797.147 229.905 800.712 Q231.734 804.253 235.345 804.253 Q238.979 804.253 240.785 800.712 Q242.613 797.147 242.613 790.04 Q242.613 782.911 240.785 779.369 Q238.979 775.804 235.345 775.804 M235.345 772.101 Q241.155 772.101 244.21 776.707 Q247.289 781.29 247.289 790.04 Q247.289 798.767 244.21 803.374 Q241.155 807.957 235.345 807.957 Q229.535 807.957 226.456 803.374 Q223.4 798.767 223.4 790.04 Q223.4 781.29 226.456 776.707 Q229.535 772.101 235.345 772.101 Z" fill="#000000" fill-rule="nonzero" fill-opacity="1" /><path clip-path="url(#clip490)" d="M160.947 610.011 Q157.336 610.011 155.507 613.576 Q153.702 617.118 153.702 624.247 Q153.702 631.354 155.507 634.919 Q157.336 638.46 160.947 638.46 Q164.581 638.46 166.387 634.919 Q168.216 631.354 168.216 624.247 Q168.216 617.118 166.387 613.576 Q164.581 610.011 160.947 610.011 M160.947 606.308 Q166.757 606.308 169.813 610.914 Q172.891 615.497 172.891 624.247 Q172.891 632.974 169.813 637.581 Q166.757 642.164 160.947 642.164 Q155.137 642.164 152.058 637.581 Q149.003 632.974 149.003 624.247 Q149.003 615.497 152.058 610.914 Q155.137 606.308 160.947 606.308 Z" fill="#000000" fill-rule="nonzero" fill-opacity="1" /><path clip-path="url(#clip490)" d="M181.109 635.613 L185.993 635.613 L185.993 641.493 L181.109 641.493 L181.109 635.613 Z" fill="#000000" fill-rule="nonzero" fill-opacity="1" /><path clip-path="url(#clip490)" d="M200.206 637.557 L216.525 637.557 L216.525 641.493 L194.581 641.493 L194.581 637.557 Q197.243 634.803 201.826 630.173 Q206.433 625.521 207.613 624.178 Q209.859 621.655 210.738 619.919 Q211.641 618.159 211.641 616.47 Q211.641 613.715 209.697 611.979 Q207.775 610.243 204.674 610.243 Q202.475 610.243 200.021 611.007 Q197.59 611.771 194.813 613.322 L194.813 608.599 Q197.637 607.465 200.09 606.886 Q202.544 606.308 204.581 606.308 Q209.951 606.308 213.146 608.993 Q216.34 611.678 216.34 616.169 Q216.34 618.298 215.53 620.22 Q214.743 622.118 212.637 624.71 Q212.058 625.382 208.956 628.599 Q205.854 631.794 200.206 637.557 Z" fill="#000000" fill-rule="nonzero" fill-opacity="1" /><path clip-path="url(#clip490)" d="M226.386 606.933 L244.743 606.933 L244.743 610.868 L230.669 610.868 L230.669 619.34 Q231.687 618.993 232.706 618.831 Q233.724 618.646 234.743 618.646 Q240.53 618.646 243.91 621.817 Q247.289 624.988 247.289 630.405 Q247.289 635.983 243.817 639.085 Q240.345 642.164 234.025 642.164 Q231.849 642.164 229.581 641.794 Q227.336 641.423 224.928 640.682 L224.928 635.983 Q227.011 637.118 229.234 637.673 Q231.456 638.229 233.933 638.229 Q237.937 638.229 240.275 636.122 Q242.613 634.016 242.613 630.405 Q242.613 626.794 240.275 624.687 Q237.937 622.581 233.933 622.581 Q232.058 622.581 230.183 622.997 Q228.331 623.414 226.386 624.294 L226.386 606.933 Z" fill="#000000" fill-rule="nonzero" fill-opacity="1" /><path clip-path="url(#clip490)" d="M159.952 444.218 Q156.341 444.218 154.512 447.783 Q152.706 451.325 152.706 458.454 Q152.706 465.561 154.512 469.126 Q156.341 472.667 159.952 472.667 Q163.586 472.667 165.391 469.126 Q167.22 465.561 167.22 458.454 Q167.22 451.325 165.391 447.783 Q163.586 444.218 159.952 444.218 M159.952 440.515 Q165.762 440.515 168.817 445.121 Q171.896 449.704 171.896 458.454 Q171.896 467.181 168.817 471.788 Q165.762 476.371 159.952 476.371 Q154.142 476.371 151.063 471.788 Q148.007 467.181 148.007 458.454 Q148.007 449.704 151.063 445.121 Q154.142 440.515 159.952 440.515 Z" fill="#000000" fill-rule="nonzero" fill-opacity="1" /><path clip-path="url(#clip490)" d="M180.114 469.82 L184.998 469.82 L184.998 475.7 L180.114 475.7 L180.114 469.82 Z" fill="#000000" fill-rule="nonzero" fill-opacity="1" /><path clip-path="url(#clip490)" d="M195.229 441.14 L213.586 441.14 L213.586 445.075 L199.512 445.075 L199.512 453.547 Q200.53 453.2 201.549 453.038 Q202.567 452.853 203.586 452.853 Q209.373 452.853 212.752 456.024 Q216.132 459.195 216.132 464.612 Q216.132 470.19 212.66 473.292 Q209.188 476.371 202.868 476.371 Q200.692 476.371 198.424 476.001 Q196.178 475.63 193.771 474.889 L193.771 470.19 Q195.854 471.325 198.076 471.88 Q200.299 472.436 202.776 472.436 Q206.78 472.436 209.118 470.329 Q211.456 468.223 211.456 464.612 Q211.456 461.001 209.118 458.894 Q206.78 456.788 202.776 456.788 Q200.901 456.788 199.026 457.204 Q197.174 457.621 195.229 458.501 L195.229 441.14 Z" fill="#000000" fill-rule="nonzero" fill-opacity="1" /><path clip-path="url(#clip490)" d="M235.345 444.218 Q231.734 444.218 229.905 447.783 Q228.099 451.325 228.099 458.454 Q228.099 465.561 229.905 469.126 Q231.734 472.667 235.345 472.667 Q238.979 472.667 240.785 469.126 Q242.613 465.561 242.613 458.454 Q242.613 451.325 240.785 447.783 Q238.979 444.218 235.345 444.218 M235.345 440.515 Q241.155 440.515 244.21 445.121 Q247.289 449.704 247.289 458.454 Q247.289 467.181 244.21 471.788 Q241.155 476.371 235.345 476.371 Q229.535 476.371 226.456 471.788 Q223.4 467.181 223.4 458.454 Q223.4 449.704 226.456 445.121 Q229.535 440.515 235.345 440.515 Z" fill="#000000" fill-rule="nonzero" fill-opacity="1" /><path clip-path="url(#clip490)" d="M160.947 278.425 Q157.336 278.425 155.507 281.99 Q153.702 285.532 153.702 292.661 Q153.702 299.768 155.507 303.333 Q157.336 306.874 160.947 306.874 Q164.581 306.874 166.387 303.333 Q168.216 299.768 168.216 292.661 Q168.216 285.532 166.387 281.99 Q164.581 278.425 160.947 278.425 M160.947 274.722 Q166.757 274.722 169.813 279.328 Q172.891 283.911 172.891 292.661 Q172.891 301.388 169.813 305.995 Q166.757 310.578 160.947 310.578 Q155.137 310.578 152.058 305.995 Q149.003 301.388 149.003 292.661 Q149.003 283.911 152.058 279.328 Q155.137 274.722 160.947 274.722 Z" fill="#000000" fill-rule="nonzero" fill-opacity="1" /><path clip-path="url(#clip490)" d="M181.109 304.027 L185.993 304.027 L185.993 309.907 L181.109 309.907 L181.109 304.027 Z" fill="#000000" fill-rule="nonzero" fill-opacity="1" /><path clip-path="url(#clip490)" d="M194.998 275.347 L217.22 275.347 L217.22 277.337 L204.674 309.907 L199.789 309.907 L211.595 279.282 L194.998 279.282 L194.998 275.347 Z" fill="#000000" fill-rule="nonzero" fill-opacity="1" /><path clip-path="url(#clip490)" d="M226.386 275.347 L244.743 275.347 L244.743 279.282 L230.669 279.282 L230.669 287.754 Q231.687 287.407 232.706 287.245 Q233.724 287.06 234.743 287.06 Q240.53 287.06 243.91 290.231 Q247.289 293.402 247.289 298.819 Q247.289 304.397 243.817 307.499 Q240.345 310.578 234.025 310.578 Q231.849 310.578 229.581 310.208 Q227.336 309.837 224.928 309.097 L224.928 304.397 Q227.011 305.532 229.234 306.087 Q231.456 306.643 233.933 306.643 Q237.937 306.643 240.275 304.536 Q242.613 302.43 242.613 298.819 Q242.613 295.208 240.275 293.101 Q237.937 290.995 233.933 290.995 Q232.058 290.995 230.183 291.411 Q228.331 291.828 226.386 292.708 L226.386 275.347 Z" fill="#000000" fill-rule="nonzero" fill-opacity="1" /><path clip-path="url(#clip490)" d="M150.762 140.179 L158.401 140.179 L158.401 113.813 L150.091 115.48 L150.091 111.22 L158.354 109.554 L163.03 109.554 L163.03 140.179 L170.669 140.179 L170.669 144.114 L150.762 144.114 L150.762 140.179 Z" fill="#000000" fill-rule="nonzero" fill-opacity="1" /><path clip-path="url(#clip490)" d="M180.114 138.234 L184.998 138.234 L184.998 144.114 L180.114 144.114 L180.114 138.234 Z" fill="#000000" fill-rule="nonzero" fill-opacity="1" /><path clip-path="url(#clip490)" d="M205.183 112.632 Q201.572 112.632 199.743 116.197 Q197.938 119.739 197.938 126.868 Q197.938 133.975 199.743 137.54 Q201.572 141.081 205.183 141.081 Q208.817 141.081 210.623 137.54 Q212.451 133.975 212.451 126.868 Q212.451 119.739 210.623 116.197 Q208.817 112.632 205.183 112.632 M205.183 108.929 Q210.993 108.929 214.049 113.535 Q217.127 118.118 217.127 126.868 Q217.127 135.595 214.049 140.202 Q210.993 144.785 205.183 144.785 Q199.373 144.785 196.294 140.202 Q193.239 135.595 193.239 126.868 Q193.239 118.118 196.294 113.535 Q199.373 108.929 205.183 108.929 Z" fill="#000000" fill-rule="nonzero" fill-opacity="1" /><path clip-path="url(#clip490)" d="M235.345 112.632 Q231.734 112.632 229.905 116.197 Q228.099 119.739 228.099 126.868 Q228.099 133.975 229.905 137.54 Q231.734 141.081 235.345 141.081 Q238.979 141.081 240.785 137.54 Q242.613 133.975 242.613 126.868 Q242.613 119.739 240.785 116.197 Q238.979 112.632 235.345 112.632 M235.345 108.929 Q241.155 108.929 244.21 113.535 Q247.289 118.118 247.289 126.868 Q247.289 135.595 244.21 140.202 Q241.155 144.785 235.345 144.785 Q229.535 144.785 226.456 140.202 Q223.4 135.595 223.4 126.868 Q223.4 118.118 226.456 113.535 Q229.535 108.929 235.345 108.929 Z" fill="#000000" fill-rule="nonzero" fill-opacity="1" /><path clip-path="url(#clip490)" d="M41.6675 507.409 Q40.7979 511.563 39.6707 513.946 Q37.8672 517.586 34.8076 517.586 Q32.4888 517.586 30.8463 516.169 Q29.2038 514.752 28.8173 512.626 Q24.5984 517.586 20.2184 517.586 Q16.3537 517.586 13.906 514.655 Q11.4584 511.692 11.4584 507.022 Q11.4584 502.32 13.7772 497.811 Q16.1282 493.302 19.8319 490.501 Q23.5356 487.699 27.3359 487.699 Q31.3616 487.699 33.4228 491.918 Q33.5838 490.758 34.3245 489.889 Q35.0653 489.019 36.1925 489.019 Q37.062 489.019 37.5773 489.502 Q38.0926 489.953 38.0926 490.79 Q38.0926 491.209 37.6417 493.045 L35.2585 502.256 L33.8093 508.214 Q33.2618 510.404 33.1007 511.209 Q32.9719 512.014 32.9719 513.077 Q32.9719 516.104 34.9365 516.104 Q35.9026 516.104 36.6756 515.492 Q37.4485 514.88 38.0604 513.592 Q38.6723 512.304 39.0588 511.112 Q39.4453 509.889 39.9606 507.956 Q40.1216 507.183 40.2504 506.99 Q40.4115 506.765 40.8623 506.765 Q41.6675 506.765 41.6675 507.409 M32.6176 494.945 Q32.6176 494.655 32.3922 493.85 Q32.1668 493.045 31.6515 491.918 Q31.1362 490.79 30.009 489.985 Q28.914 489.148 27.4325 489.148 Q25.4357 489.148 23.3423 490.855 Q21.2812 492.562 19.7675 495.46 Q18.6081 497.779 17.3521 502.642 Q16.1282 507.505 16.1282 509.921 Q16.1282 511.402 16.4503 512.723 Q16.8046 514.011 17.8029 515.074 Q18.8013 516.104 20.3472 516.104 Q24.1153 516.104 27.819 511.434 Q28.5275 510.629 28.6885 510.307 Q28.8818 509.953 29.1394 508.987 L32.4244 496.072 Q32.6176 495.106 32.6176 494.945 Z" fill="#000000" fill-rule="nonzero" fill-opacity="1" /><polyline clip-path="url(#clip492)" style="stroke:#009af9; stroke-linecap:round; stroke-linejoin:round; stroke-width:4; stroke-opacity:1; fill:none" points="1455.96,789.994 627.245,361.712 329.095,130.035 "/>
<circle clip-path="url(#clip492)" cx="1455.96" cy="789.994" r="7.2" fill="#009af9" fill-rule="evenodd" fill-opacity="1" stroke="none"/>
<circle clip-path="url(#clip492)" cx="627.245" cy="361.712" r="7.2" fill="#009af9" fill-rule="evenodd" fill-opacity="1" stroke="none"/>
<circle clip-path="url(#clip492)" cx="329.095" cy="130.035" r="7.2" fill="#009af9" fill-rule="evenodd" fill-opacity="1" stroke="none"/>
<polyline clip-path="url(#clip492)" style="stroke:#e26f46; stroke-linecap:round; stroke-linejoin:round; stroke-width:4; stroke-opacity:1; fill:none" points="627.245,361.712 329.095,130.035 "/>
<circle clip-path="url(#clip492)" cx="627.245" cy="361.712" r="7.2" fill="#e26f46" fill-rule="evenodd" fill-opacity="1" stroke="none"/>
<circle clip-path="url(#clip492)" cx="329.095" cy="130.035" r="7.2" fill="#e26f46" fill-rule="evenodd" fill-opacity="1" stroke="none"/>
<path clip-path="url(#clip490)" d="M1895.29 809.793 L3089.76 809.793 L3089.76 110.236 L1895.29 110.236  Z" fill="#ffffff" fill-rule="evenodd" fill-opacity="1"/>
<defs>
  <clipPath id="clip493">
    <rect x="1895" y="110" width="1195" height="701"/>
  </clipPath>
</defs>
<polyline clip-path="url(#clip493)" style="stroke:#000000; stroke-linecap:round; stroke-linejoin:round; stroke-width:2; stroke-opacity:0.1; fill:none" points="1925.22,809.793 1925.22,110.236 "/>
<polyline clip-path="url(#clip493)" style="stroke:#000000; stroke-linecap:round; stroke-linejoin:round; stroke-width:2; stroke-opacity:0.1; fill:none" points="2138.31,809.793 2138.31,110.236 "/>
<polyline clip-path="url(#clip493)" style="stroke:#000000; stroke-linecap:round; stroke-linejoin:round; stroke-width:2; stroke-opacity:0.1; fill:none" points="2351.41,809.793 2351.41,110.236 "/>
<polyline clip-path="url(#clip493)" style="stroke:#000000; stroke-linecap:round; stroke-linejoin:round; stroke-width:2; stroke-opacity:0.1; fill:none" points="2564.5,809.793 2564.5,110.236 "/>
<polyline clip-path="url(#clip493)" style="stroke:#000000; stroke-linecap:round; stroke-linejoin:round; stroke-width:2; stroke-opacity:0.1; fill:none" points="2777.6,809.793 2777.6,110.236 "/>
<polyline clip-path="url(#clip493)" style="stroke:#000000; stroke-linecap:round; stroke-linejoin:round; stroke-width:2; stroke-opacity:0.1; fill:none" points="2990.69,809.793 2990.69,110.236 "/>
<polyline clip-path="url(#clip493)" style="stroke:#000000; stroke-linecap:round; stroke-linejoin:round; stroke-width:2; stroke-opacity:0.1; fill:none" points="1895.29,791.879 3089.76,791.879 "/>
<polyline clip-path="url(#clip493)" style="stroke:#000000; stroke-linecap:round; stroke-linejoin:round; stroke-width:2; stroke-opacity:0.1; fill:none" points="1895.29,681.257 3089.76,681.257 "/>
<polyline clip-path="url(#clip493)" style="stroke:#000000; stroke-linecap:round; stroke-linejoin:round; stroke-width:2; stroke-opacity:0.1; fill:none" points="1895.29,570.636 3089.76,570.636 "/>
<polyline clip-path="url(#clip493)" style="stroke:#000000; stroke-linecap:round; stroke-linejoin:round; stroke-width:2; stroke-opacity:0.1; fill:none" points="1895.29,460.014 3089.76,460.014 "/>
<polyline clip-path="url(#clip493)" style="stroke:#000000; stroke-linecap:round; stroke-linejoin:round; stroke-width:2; stroke-opacity:0.1; fill:none" points="1895.29,349.393 3089.76,349.393 "/>
<polyline clip-path="url(#clip493)" style="stroke:#000000; stroke-linecap:round; stroke-linejoin:round; stroke-width:2; stroke-opacity:0.1; fill:none" points="1895.29,238.772 3089.76,238.772 "/>
<polyline clip-path="url(#clip493)" style="stroke:#000000; stroke-linecap:round; stroke-linejoin:round; stroke-width:2; stroke-opacity:0.1; fill:none" points="1895.29,128.15 3089.76,128.15 "/>
<polyline clip-path="url(#clip490)" style="stroke:#000000; stroke-linecap:round; stroke-linejoin:round; stroke-width:4; stroke-opacity:1; fill:none" points="1895.29,809.793 3089.76,809.793 "/>
<polyline clip-path="url(#clip490)" style="stroke:#000000; stroke-linecap:round; stroke-linejoin:round; stroke-width:4; stroke-opacity:1; fill:none" points="1925.22,809.793 1925.22,790.895 "/>
<polyline clip-path="url(#clip490)" style="stroke:#000000; stroke-linecap:round; stroke-linejoin:round; stroke-width:4; stroke-opacity:1; fill:none" points="2138.31,809.793 2138.31,790.895 "/>
<polyline clip-path="url(#clip490)" style="stroke:#000000; stroke-linecap:round; stroke-linejoin:round; stroke-width:4; stroke-opacity:1; fill:none" points="2351.41,809.793 2351.41,790.895 "/>
<polyline clip-path="url(#clip490)" style="stroke:#000000; stroke-linecap:round; stroke-linejoin:round; stroke-width:4; stroke-opacity:1; fill:none" points="2564.5,809.793 2564.5,790.895 "/>
<polyline clip-path="url(#clip490)" style="stroke:#000000; stroke-linecap:round; stroke-linejoin:round; stroke-width:4; stroke-opacity:1; fill:none" points="2777.6,809.793 2777.6,790.895 "/>
<polyline clip-path="url(#clip490)" style="stroke:#000000; stroke-linecap:round; stroke-linejoin:round; stroke-width:4; stroke-opacity:1; fill:none" points="2990.69,809.793 2990.69,790.895 "/>
<path clip-path="url(#clip490)" d="M1902.6 847.111 Q1898.99 847.111 1897.16 850.676 Q1895.36 854.218 1895.36 861.347 Q1895.36 868.454 1897.16 872.019 Q1898.99 875.56 1902.6 875.56 Q1906.24 875.56 1908.04 872.019 Q1909.87 868.454 1909.87 861.347 Q1909.87 854.218 1908.04 850.676 Q1906.24 847.111 1902.6 847.111 M1902.6 843.408 Q1908.41 843.408 1911.47 848.014 Q1914.55 852.597 1914.55 861.347 Q1914.55 870.074 1911.47 874.681 Q1908.41 879.264 1902.6 879.264 Q1896.79 879.264 1893.71 874.681 Q1890.66 870.074 1890.66 861.347 Q1890.66 852.597 1893.71 848.014 Q1896.79 843.408 1902.6 843.408 Z" fill="#000000" fill-rule="nonzero" fill-opacity="1" /><path clip-path="url(#clip490)" d="M1922.76 872.713 L1927.65 872.713 L1927.65 878.593 L1922.76 878.593 L1922.76 872.713 Z" fill="#000000" fill-rule="nonzero" fill-opacity="1" /><path clip-path="url(#clip490)" d="M1947.83 847.111 Q1944.22 847.111 1942.39 850.676 Q1940.59 854.218 1940.59 861.347 Q1940.59 868.454 1942.39 872.019 Q1944.22 875.56 1947.83 875.56 Q1951.47 875.56 1953.27 872.019 Q1955.1 868.454 1955.1 861.347 Q1955.1 854.218 1953.27 850.676 Q1951.47 847.111 1947.83 847.111 M1947.83 843.408 Q1953.64 843.408 1956.7 848.014 Q1959.78 852.597 1959.78 861.347 Q1959.78 870.074 1956.7 874.681 Q1953.64 879.264 1947.83 879.264 Q1942.02 879.264 1938.94 874.681 Q1935.89 870.074 1935.89 861.347 Q1935.89 852.597 1938.94 848.014 Q1942.02 843.408 1947.83 843.408 Z" fill="#000000" fill-rule="nonzero" fill-opacity="1" /><path clip-path="url(#clip490)" d="M2116.19 847.111 Q2112.58 847.111 2110.75 850.676 Q2108.95 854.218 2108.95 861.347 Q2108.95 868.454 2110.75 872.019 Q2112.58 875.56 2116.19 875.56 Q2119.83 875.56 2121.63 872.019 Q2123.46 868.454 2123.46 861.347 Q2123.46 854.218 2121.63 850.676 Q2119.83 847.111 2116.19 847.111 M2116.19 843.408 Q2122 843.408 2125.06 848.014 Q2128.14 852.597 2128.14 861.347 Q2128.14 870.074 2125.06 874.681 Q2122 879.264 2116.19 879.264 Q2110.38 879.264 2107.3 874.681 Q2104.25 870.074 2104.25 861.347 Q2104.25 852.597 2107.3 848.014 Q2110.38 843.408 2116.19 843.408 Z" fill="#000000" fill-rule="nonzero" fill-opacity="1" /><path clip-path="url(#clip490)" d="M2136.36 872.713 L2141.24 872.713 L2141.24 878.593 L2136.36 878.593 L2136.36 872.713 Z" fill="#000000" fill-rule="nonzero" fill-opacity="1" /><path clip-path="url(#clip490)" d="M2151.47 844.033 L2169.83 844.033 L2169.83 847.968 L2155.75 847.968 L2155.75 856.44 Q2156.77 856.093 2157.79 855.931 Q2158.81 855.746 2159.83 855.746 Q2165.61 855.746 2168.99 858.917 Q2172.37 862.088 2172.37 867.505 Q2172.37 873.083 2168.9 876.185 Q2165.43 879.264 2159.11 879.264 Q2156.93 879.264 2154.67 878.894 Q2152.42 878.523 2150.01 877.783 L2150.01 873.083 Q2152.1 874.218 2154.32 874.773 Q2156.54 875.329 2159.02 875.329 Q2163.02 875.329 2165.36 873.222 Q2167.7 871.116 2167.7 867.505 Q2167.7 863.894 2165.36 861.787 Q2163.02 859.681 2159.02 859.681 Q2157.14 859.681 2155.27 860.097 Q2153.42 860.514 2151.47 861.394 L2151.47 844.033 Z" fill="#000000" fill-rule="nonzero" fill-opacity="1" /><path clip-path="url(#clip490)" d="M2318.56 874.658 L2326.2 874.658 L2326.2 848.292 L2317.89 849.959 L2317.89 845.699 L2326.15 844.033 L2330.83 844.033 L2330.83 874.658 L2338.47 874.658 L2338.47 878.593 L2318.56 878.593 L2318.56 874.658 Z" fill="#000000" fill-rule="nonzero" fill-opacity="1" /><path clip-path="url(#clip490)" d="M2347.91 872.713 L2352.8 872.713 L2352.8 878.593 L2347.91 878.593 L2347.91 872.713 Z" fill="#000000" fill-rule="nonzero" fill-opacity="1" /><path clip-path="url(#clip490)" d="M2372.98 847.111 Q2369.37 847.111 2367.54 850.676 Q2365.74 854.218 2365.74 861.347 Q2365.74 868.454 2367.54 872.019 Q2369.37 875.56 2372.98 875.56 Q2376.61 875.56 2378.42 872.019 Q2380.25 868.454 2380.25 861.347 Q2380.25 854.218 2378.42 850.676 Q2376.61 847.111 2372.98 847.111 M2372.98 843.408 Q2378.79 843.408 2381.85 848.014 Q2384.93 852.597 2384.93 861.347 Q2384.93 870.074 2381.85 874.681 Q2378.79 879.264 2372.98 879.264 Q2367.17 879.264 2364.09 874.681 Q2361.04 870.074 2361.04 861.347 Q2361.04 852.597 2364.09 848.014 Q2367.17 843.408 2372.98 843.408 Z" fill="#000000" fill-rule="nonzero" fill-opacity="1" /><path clip-path="url(#clip490)" d="M2532.15 874.658 L2539.79 874.658 L2539.79 848.292 L2531.48 849.959 L2531.48 845.699 L2539.74 844.033 L2544.42 844.033 L2544.42 874.658 L2552.06 874.658 L2552.06 878.593 L2532.15 878.593 L2532.15 874.658 Z" fill="#000000" fill-rule="nonzero" fill-opacity="1" /><path clip-path="url(#clip490)" d="M2561.5 872.713 L2566.39 872.713 L2566.39 878.593 L2561.5 878.593 L2561.5 872.713 Z" fill="#000000" fill-rule="nonzero" fill-opacity="1" /><path clip-path="url(#clip490)" d="M2576.62 844.033 L2594.98 844.033 L2594.98 847.968 L2580.9 847.968 L2580.9 856.44 Q2581.92 856.093 2582.94 855.931 Q2583.96 855.746 2584.98 855.746 Q2590.76 855.746 2594.14 858.917 Q2597.52 862.088 2597.52 867.505 Q2597.52 873.083 2594.05 876.185 Q2590.58 879.264 2584.26 879.264 Q2582.08 879.264 2579.81 878.894 Q2577.57 878.523 2575.16 877.783 L2575.16 873.083 Q2577.24 874.218 2579.47 874.773 Q2581.69 875.329 2584.17 875.329 Q2588.17 875.329 2590.51 873.222 Q2592.85 871.116 2592.85 867.505 Q2592.85 863.894 2590.51 861.787 Q2588.17 859.681 2584.17 859.681 Q2582.29 859.681 2580.42 860.097 Q2578.56 860.514 2576.62 861.394 L2576.62 844.033 Z" fill="#000000" fill-rule="nonzero" fill-opacity="1" /><path clip-path="url(#clip490)" d="M2748.84 874.658 L2765.15 874.658 L2765.15 878.593 L2743.21 878.593 L2743.21 874.658 Q2745.87 871.903 2750.46 867.273 Q2755.06 862.621 2756.24 861.278 Q2758.49 858.755 2759.37 857.019 Q2760.27 855.26 2760.27 853.57 Q2760.27 850.815 2758.33 849.079 Q2756.4 847.343 2753.3 847.343 Q2751.1 847.343 2748.65 848.107 Q2746.22 848.871 2743.44 850.422 L2743.44 845.699 Q2746.27 844.565 2748.72 843.986 Q2751.17 843.408 2753.21 843.408 Q2758.58 843.408 2761.78 846.093 Q2764.97 848.778 2764.97 853.269 Q2764.97 855.398 2764.16 857.32 Q2763.37 859.218 2761.27 861.81 Q2760.69 862.482 2757.59 865.699 Q2754.48 868.894 2748.84 874.658 Z" fill="#000000" fill-rule="nonzero" fill-opacity="1" /><path clip-path="url(#clip490)" d="M2774.97 872.713 L2779.85 872.713 L2779.85 878.593 L2774.97 878.593 L2774.97 872.713 Z" fill="#000000" fill-rule="nonzero" fill-opacity="1" /><path clip-path="url(#clip490)" d="M2800.04 847.111 Q2796.43 847.111 2794.6 850.676 Q2792.79 854.218 2792.79 861.347 Q2792.79 868.454 2794.6 872.019 Q2796.43 875.56 2800.04 875.56 Q2803.67 875.56 2805.48 872.019 Q2807.31 868.454 2807.31 861.347 Q2807.31 854.218 2805.48 850.676 Q2803.67 847.111 2800.04 847.111 M2800.04 843.408 Q2805.85 843.408 2808.9 848.014 Q2811.98 852.597 2811.98 861.347 Q2811.98 870.074 2808.9 874.681 Q2805.85 879.264 2800.04 879.264 Q2794.23 879.264 2791.15 874.681 Q2788.09 870.074 2788.09 861.347 Q2788.09 852.597 2791.15 848.014 Q2794.23 843.408 2800.04 843.408 Z" fill="#000000" fill-rule="nonzero" fill-opacity="1" /><path clip-path="url(#clip490)" d="M2962.43 874.658 L2978.75 874.658 L2978.75 878.593 L2956.8 878.593 L2956.8 874.658 Q2959.47 871.903 2964.05 867.273 Q2968.66 862.621 2969.84 861.278 Q2972.08 858.755 2972.96 857.019 Q2973.86 855.26 2973.86 853.57 Q2973.86 850.815 2971.92 849.079 Q2970 847.343 2966.9 847.343 Q2964.7 847.343 2962.24 848.107 Q2959.81 848.871 2957.03 850.422 L2957.03 845.699 Q2959.86 844.565 2962.31 843.986 Q2964.77 843.408 2966.8 843.408 Q2972.17 843.408 2975.37 846.093 Q2978.56 848.778 2978.56 853.269 Q2978.56 855.398 2977.75 857.32 Q2976.97 859.218 2974.86 861.81 Q2974.28 862.482 2971.18 865.699 Q2968.08 868.894 2962.43 874.658 Z" fill="#000000" fill-rule="nonzero" fill-opacity="1" /><path clip-path="url(#clip490)" d="M2988.56 872.713 L2993.45 872.713 L2993.45 878.593 L2988.56 878.593 L2988.56 872.713 Z" fill="#000000" fill-rule="nonzero" fill-opacity="1" /><path clip-path="url(#clip490)" d="M3003.68 844.033 L3022.03 844.033 L3022.03 847.968 L3007.96 847.968 L3007.96 856.44 Q3008.98 856.093 3010 855.931 Q3011.02 855.746 3012.03 855.746 Q3017.82 855.746 3021.2 858.917 Q3024.58 862.088 3024.58 867.505 Q3024.58 873.083 3021.11 876.185 Q3017.64 879.264 3011.32 879.264 Q3009.14 879.264 3006.87 878.894 Q3004.63 878.523 3002.22 877.783 L3002.22 873.083 Q3004.3 874.218 3006.53 874.773 Q3008.75 875.329 3011.22 875.329 Q3015.23 875.329 3017.57 873.222 Q3019.9 871.116 3019.9 867.505 Q3019.9 863.894 3017.57 861.787 Q3015.23 859.681 3011.22 859.681 Q3009.35 859.681 3007.47 860.097 Q3005.62 860.514 3003.68 861.394 L3003.68 844.033 Z" fill="#000000" fill-rule="nonzero" fill-opacity="1" /><path clip-path="url(#clip490)" d="M2506.13 960.438 Q2506.13 961.05 2505.42 961.115 L2503.97 961.115 Q2502.49 961.115 2501.84 960.889 Q2501.2 960.664 2500.46 959.633 Q2500.01 958.989 2498.88 955.994 Q2497.79 952.967 2496.18 948.393 Q2494.6 943.82 2493.54 941.115 L2477.66 959.859 Q2476.56 961.243 2475.47 961.243 Q2474.66 961.243 2474.08 960.696 Q2473.5 960.148 2473.5 959.311 Q2473.5 958.699 2473.73 958.345 Q2473.99 957.991 2474.66 957.282 L2492.89 939.215 L2486.48 921.276 Q2485.26 917.959 2484.55 917.121 Q2483.87 916.284 2482.2 915.994 Q2481.59 915.833 2481.59 915.318 Q2481.59 914.609 2482.78 914.609 Q2489.16 914.609 2490.83 919.279 L2504.29 956.799 Q2505.03 958.957 2505.81 959.859 Q2506.13 960.277 2506.13 960.438 Z" fill="#000000" fill-rule="nonzero" fill-opacity="1" /><polyline clip-path="url(#clip490)" style="stroke:#000000; stroke-linecap:round; stroke-linejoin:round; stroke-width:4; stroke-opacity:1; fill:none" points="1895.29,809.793 1895.29,110.236 "/>
<polyline clip-path="url(#clip490)" style="stroke:#000000; stroke-linecap:round; stroke-linejoin:round; stroke-width:4; stroke-opacity:1; fill:none" points="1895.29,791.879 1914.19,791.879 "/>
<polyline clip-path="url(#clip490)" style="stroke:#000000; stroke-linecap:round; stroke-linejoin:round; stroke-width:4; stroke-opacity:1; fill:none" points="1895.29,681.257 1914.19,681.257 "/>
<polyline clip-path="url(#clip490)" style="stroke:#000000; stroke-linecap:round; stroke-linejoin:round; stroke-width:4; stroke-opacity:1; fill:none" points="1895.29,570.636 1914.19,570.636 "/>
<polyline clip-path="url(#clip490)" style="stroke:#000000; stroke-linecap:round; stroke-linejoin:round; stroke-width:4; stroke-opacity:1; fill:none" points="1895.29,460.014 1914.19,460.014 "/>
<polyline clip-path="url(#clip490)" style="stroke:#000000; stroke-linecap:round; stroke-linejoin:round; stroke-width:4; stroke-opacity:1; fill:none" points="1895.29,349.393 1914.19,349.393 "/>
<polyline clip-path="url(#clip490)" style="stroke:#000000; stroke-linecap:round; stroke-linejoin:round; stroke-width:4; stroke-opacity:1; fill:none" points="1895.29,238.772 1914.19,238.772 "/>
<polyline clip-path="url(#clip490)" style="stroke:#000000; stroke-linecap:round; stroke-linejoin:round; stroke-width:4; stroke-opacity:1; fill:none" points="1895.29,128.15 1914.19,128.15 "/>
<path clip-path="url(#clip490)" d="M1760.85 777.677 Q1757.24 777.677 1755.41 781.242 Q1753.61 784.784 1753.61 791.913 Q1753.61 799.02 1755.41 802.585 Q1757.24 806.126 1760.85 806.126 Q1764.49 806.126 1766.29 802.585 Q1768.12 799.02 1768.12 791.913 Q1768.12 784.784 1766.29 781.242 Q1764.49 777.677 1760.85 777.677 M1760.85 773.974 Q1766.66 773.974 1769.72 778.58 Q1772.8 783.163 1772.8 791.913 Q1772.8 800.64 1769.72 805.247 Q1766.66 809.83 1760.85 809.83 Q1755.04 809.83 1751.97 805.247 Q1748.91 800.64 1748.91 791.913 Q1748.91 783.163 1751.97 778.58 Q1755.04 773.974 1760.85 773.974 Z" fill="#000000" fill-rule="nonzero" fill-opacity="1" /><path clip-path="url(#clip490)" d="M1781.02 803.279 L1785.9 803.279 L1785.9 809.159 L1781.02 809.159 L1781.02 803.279 Z" fill="#000000" fill-rule="nonzero" fill-opacity="1" /><path clip-path="url(#clip490)" d="M1808.93 778.673 L1797.13 797.122 L1808.93 797.122 L1808.93 778.673 M1807.71 774.599 L1813.59 774.599 L1813.59 797.122 L1818.52 797.122 L1818.52 801.011 L1813.59 801.011 L1813.59 809.159 L1808.93 809.159 L1808.93 801.011 L1793.33 801.011 L1793.33 796.497 L1807.71 774.599 Z" fill="#000000" fill-rule="nonzero" fill-opacity="1" /><path clip-path="url(#clip490)" d="M1825.07 774.599 L1847.29 774.599 L1847.29 776.589 L1834.74 809.159 L1829.86 809.159 L1841.66 778.534 L1825.07 778.534 L1825.07 774.599 Z" fill="#000000" fill-rule="nonzero" fill-opacity="1" /><path clip-path="url(#clip490)" d="M1760.04 667.056 Q1756.43 667.056 1754.6 670.621 Q1752.8 674.162 1752.8 681.292 Q1752.8 688.398 1754.6 691.963 Q1756.43 695.505 1760.04 695.505 Q1763.68 695.505 1765.48 691.963 Q1767.31 688.398 1767.31 681.292 Q1767.31 674.162 1765.48 670.621 Q1763.68 667.056 1760.04 667.056 M1760.04 663.352 Q1765.85 663.352 1768.91 667.959 Q1771.99 672.542 1771.99 681.292 Q1771.99 690.019 1768.91 694.625 Q1765.85 699.209 1760.04 699.209 Q1754.23 699.209 1751.16 694.625 Q1748.1 690.019 1748.1 681.292 Q1748.1 672.542 1751.16 667.959 Q1754.23 663.352 1760.04 663.352 Z" fill="#000000" fill-rule="nonzero" fill-opacity="1" /><path clip-path="url(#clip490)" d="M1780.21 692.658 L1785.09 692.658 L1785.09 698.537 L1780.21 698.537 L1780.21 692.658 Z" fill="#000000" fill-rule="nonzero" fill-opacity="1" /><path clip-path="url(#clip490)" d="M1808.12 668.051 L1796.32 686.5 L1808.12 686.5 L1808.12 668.051 M1806.9 663.977 L1812.78 663.977 L1812.78 686.5 L1817.71 686.5 L1817.71 690.389 L1812.78 690.389 L1812.78 698.537 L1808.12 698.537 L1808.12 690.389 L1792.52 690.389 L1792.52 685.875 L1806.9 663.977 Z" fill="#000000" fill-rule="nonzero" fill-opacity="1" /><path clip-path="url(#clip490)" d="M1835.44 682.125 Q1832.1 682.125 1830.18 683.908 Q1828.28 685.69 1828.28 688.815 Q1828.28 691.94 1830.18 693.722 Q1832.1 695.505 1835.44 695.505 Q1838.77 695.505 1840.69 693.722 Q1842.61 691.917 1842.61 688.815 Q1842.61 685.69 1840.69 683.908 Q1838.79 682.125 1835.44 682.125 M1830.76 680.135 Q1827.75 679.394 1826.06 677.334 Q1824.4 675.274 1824.4 672.311 Q1824.4 668.167 1827.34 665.76 Q1830.3 663.352 1835.44 663.352 Q1840.6 663.352 1843.54 665.76 Q1846.48 668.167 1846.48 672.311 Q1846.48 675.274 1844.79 677.334 Q1843.12 679.394 1840.14 680.135 Q1843.52 680.922 1845.39 683.213 Q1847.29 685.505 1847.29 688.815 Q1847.29 693.838 1844.21 696.523 Q1841.15 699.209 1835.44 699.209 Q1829.72 699.209 1826.64 696.523 Q1823.59 693.838 1823.59 688.815 Q1823.59 685.505 1825.48 683.213 Q1827.38 680.922 1830.76 680.135 M1829.05 672.75 Q1829.05 675.436 1830.72 676.94 Q1832.4 678.445 1835.44 678.445 Q1838.45 678.445 1840.14 676.94 Q1841.85 675.436 1841.85 672.75 Q1841.85 670.065 1840.14 668.561 Q1838.45 667.056 1835.44 667.056 Q1832.4 667.056 1830.72 668.561 Q1829.05 670.065 1829.05 672.75 Z" fill="#000000" fill-rule="nonzero" fill-opacity="1" /><path clip-path="url(#clip490)" d="M1760.14 556.435 Q1756.53 556.435 1754.7 559.999 Q1752.89 563.541 1752.89 570.671 Q1752.89 577.777 1754.7 581.342 Q1756.53 584.883 1760.14 584.883 Q1763.77 584.883 1765.58 581.342 Q1767.41 577.777 1767.41 570.671 Q1767.41 563.541 1765.58 559.999 Q1763.77 556.435 1760.14 556.435 M1760.14 552.731 Q1765.95 552.731 1769 557.337 Q1772.08 561.921 1772.08 570.671 Q1772.08 579.397 1769 584.004 Q1765.95 588.587 1760.14 588.587 Q1754.33 588.587 1751.25 584.004 Q1748.19 579.397 1748.19 570.671 Q1748.19 561.921 1751.25 557.337 Q1754.33 552.731 1760.14 552.731 Z" fill="#000000" fill-rule="nonzero" fill-opacity="1" /><path clip-path="url(#clip490)" d="M1780.3 582.036 L1785.18 582.036 L1785.18 587.916 L1780.3 587.916 L1780.3 582.036 Z" fill="#000000" fill-rule="nonzero" fill-opacity="1" /><path clip-path="url(#clip490)" d="M1808.22 557.43 L1796.41 575.879 L1808.22 575.879 L1808.22 557.43 M1806.99 553.356 L1812.87 553.356 L1812.87 575.879 L1817.8 575.879 L1817.8 579.768 L1812.87 579.768 L1812.87 587.916 L1808.22 587.916 L1808.22 579.768 L1792.61 579.768 L1792.61 575.254 L1806.99 553.356 Z" fill="#000000" fill-rule="nonzero" fill-opacity="1" /><path clip-path="url(#clip490)" d="M1825.67 587.198 L1825.67 582.939 Q1827.43 583.772 1829.23 584.212 Q1831.04 584.652 1832.78 584.652 Q1837.4 584.652 1839.84 581.55 Q1842.29 578.425 1842.64 572.083 Q1841.29 574.073 1839.23 575.138 Q1837.17 576.203 1834.67 576.203 Q1829.49 576.203 1826.46 573.078 Q1823.45 569.93 1823.45 564.49 Q1823.45 559.166 1826.59 555.948 Q1829.74 552.731 1834.97 552.731 Q1840.97 552.731 1844.12 557.337 Q1847.29 561.921 1847.29 570.671 Q1847.29 578.842 1843.4 583.726 Q1839.53 588.587 1832.98 588.587 Q1831.22 588.587 1829.42 588.24 Q1827.61 587.893 1825.67 587.198 M1834.97 572.546 Q1838.12 572.546 1839.95 570.393 Q1841.8 568.24 1841.8 564.49 Q1841.8 560.763 1839.95 558.61 Q1838.12 556.435 1834.97 556.435 Q1831.83 556.435 1829.97 558.61 Q1828.15 560.763 1828.15 564.49 Q1828.15 568.24 1829.97 570.393 Q1831.83 572.546 1834.97 572.546 Z" fill="#000000" fill-rule="nonzero" fill-opacity="1" /><path clip-path="url(#clip490)" d="M1759.95 445.813 Q1756.34 445.813 1754.51 449.378 Q1752.71 452.92 1752.71 460.049 Q1752.71 467.156 1754.51 470.72 Q1756.34 474.262 1759.95 474.262 Q1763.59 474.262 1765.39 470.72 Q1767.22 467.156 1767.22 460.049 Q1767.22 452.92 1765.39 449.378 Q1763.59 445.813 1759.95 445.813 M1759.95 442.109 Q1765.76 442.109 1768.82 446.716 Q1771.9 451.299 1771.9 460.049 Q1771.9 468.776 1768.82 473.382 Q1765.76 477.966 1759.95 477.966 Q1754.14 477.966 1751.06 473.382 Q1748.01 468.776 1748.01 460.049 Q1748.01 451.299 1751.06 446.716 Q1754.14 442.109 1759.95 442.109 Z" fill="#000000" fill-rule="nonzero" fill-opacity="1" /><path clip-path="url(#clip490)" d="M1780.11 471.415 L1785 471.415 L1785 477.294 L1780.11 477.294 L1780.11 471.415 Z" fill="#000000" fill-rule="nonzero" fill-opacity="1" /><path clip-path="url(#clip490)" d="M1795.23 442.734 L1813.59 442.734 L1813.59 446.67 L1799.51 446.67 L1799.51 455.142 Q1800.53 454.795 1801.55 454.633 Q1802.57 454.447 1803.59 454.447 Q1809.37 454.447 1812.75 457.619 Q1816.13 460.79 1816.13 466.207 Q1816.13 471.785 1812.66 474.887 Q1809.19 477.966 1802.87 477.966 Q1800.69 477.966 1798.42 477.595 Q1796.18 477.225 1793.77 476.484 L1793.77 471.785 Q1795.85 472.919 1798.08 473.475 Q1800.3 474.031 1802.78 474.031 Q1806.78 474.031 1809.12 471.924 Q1811.46 469.818 1811.46 466.207 Q1811.46 462.595 1809.12 460.489 Q1806.78 458.383 1802.78 458.383 Q1800.9 458.383 1799.03 458.799 Q1797.17 459.216 1795.23 460.095 L1795.23 442.734 Z" fill="#000000" fill-rule="nonzero" fill-opacity="1" /><path clip-path="url(#clip490)" d="M1835.34 445.813 Q1831.73 445.813 1829.9 449.378 Q1828.1 452.92 1828.1 460.049 Q1828.1 467.156 1829.9 470.72 Q1831.73 474.262 1835.34 474.262 Q1838.98 474.262 1840.78 470.72 Q1842.61 467.156 1842.61 460.049 Q1842.61 452.92 1840.78 449.378 Q1838.98 445.813 1835.34 445.813 M1835.34 442.109 Q1841.15 442.109 1844.21 446.716 Q1847.29 451.299 1847.29 460.049 Q1847.29 468.776 1844.21 473.382 Q1841.15 477.966 1835.34 477.966 Q1829.53 477.966 1826.46 473.382 Q1823.4 468.776 1823.4 460.049 Q1823.4 451.299 1826.46 446.716 Q1829.53 442.109 1835.34 442.109 Z" fill="#000000" fill-rule="nonzero" fill-opacity="1" /><path clip-path="url(#clip490)" d="M1761.18 335.192 Q1757.57 335.192 1755.74 338.757 Q1753.93 342.298 1753.93 349.428 Q1753.93 356.534 1755.74 360.099 Q1757.57 363.641 1761.18 363.641 Q1764.81 363.641 1766.62 360.099 Q1768.45 356.534 1768.45 349.428 Q1768.45 342.298 1766.62 338.757 Q1764.81 335.192 1761.18 335.192 M1761.18 331.488 Q1766.99 331.488 1770.04 336.095 Q1773.12 340.678 1773.12 349.428 Q1773.12 358.155 1770.04 362.761 Q1766.99 367.344 1761.18 367.344 Q1755.37 367.344 1752.29 362.761 Q1749.23 358.155 1749.23 349.428 Q1749.23 340.678 1752.29 336.095 Q1755.37 331.488 1761.18 331.488 Z" fill="#000000" fill-rule="nonzero" fill-opacity="1" /><path clip-path="url(#clip490)" d="M1781.34 360.793 L1786.22 360.793 L1786.22 366.673 L1781.34 366.673 L1781.34 360.793 Z" fill="#000000" fill-rule="nonzero" fill-opacity="1" /><path clip-path="url(#clip490)" d="M1796.46 332.113 L1814.81 332.113 L1814.81 336.048 L1800.74 336.048 L1800.74 344.52 Q1801.76 344.173 1802.78 344.011 Q1803.79 343.826 1804.81 343.826 Q1810.6 343.826 1813.98 346.997 Q1817.36 350.169 1817.36 355.585 Q1817.36 361.164 1813.89 364.266 Q1810.41 367.344 1804.09 367.344 Q1801.92 367.344 1799.65 366.974 Q1797.41 366.604 1795 365.863 L1795 361.164 Q1797.08 362.298 1799.3 362.854 Q1801.53 363.409 1804 363.409 Q1808.01 363.409 1810.34 361.303 Q1812.68 359.196 1812.68 355.585 Q1812.68 351.974 1810.34 349.868 Q1808.01 347.761 1804 347.761 Q1802.13 347.761 1800.25 348.178 Q1798.4 348.594 1796.46 349.474 L1796.46 332.113 Z" fill="#000000" fill-rule="nonzero" fill-opacity="1" /><path clip-path="url(#clip490)" d="M1827.38 362.738 L1835.02 362.738 L1835.02 336.372 L1826.71 338.039 L1826.71 333.78 L1834.97 332.113 L1839.65 332.113 L1839.65 362.738 L1847.29 362.738 L1847.29 366.673 L1827.38 366.673 L1827.38 362.738 Z" fill="#000000" fill-rule="nonzero" fill-opacity="1" /><path clip-path="url(#clip490)" d="M1761.55 224.57 Q1757.94 224.57 1756.11 228.135 Q1754.3 231.677 1754.3 238.806 Q1754.3 245.913 1756.11 249.478 Q1757.94 253.019 1761.55 253.019 Q1765.18 253.019 1766.99 249.478 Q1768.82 245.913 1768.82 238.806 Q1768.82 231.677 1766.99 228.135 Q1765.18 224.57 1761.55 224.57 M1761.55 220.867 Q1767.36 220.867 1770.41 225.473 Q1773.49 230.056 1773.49 238.806 Q1773.49 247.533 1770.41 252.14 Q1767.36 256.723 1761.55 256.723 Q1755.74 256.723 1752.66 252.14 Q1749.6 247.533 1749.6 238.806 Q1749.6 230.056 1752.66 225.473 Q1755.74 220.867 1761.55 220.867 Z" fill="#000000" fill-rule="nonzero" fill-opacity="1" /><path clip-path="url(#clip490)" d="M1781.71 250.172 L1786.6 250.172 L1786.6 256.052 L1781.71 256.052 L1781.71 250.172 Z" fill="#000000" fill-rule="nonzero" fill-opacity="1" /><path clip-path="url(#clip490)" d="M1796.83 221.492 L1815.18 221.492 L1815.18 225.427 L1801.11 225.427 L1801.11 233.899 Q1802.13 233.552 1803.15 233.39 Q1804.16 233.205 1805.18 233.205 Q1810.97 233.205 1814.35 236.376 Q1817.73 239.547 1817.73 244.964 Q1817.73 250.542 1814.26 253.644 Q1810.78 256.723 1804.47 256.723 Q1802.29 256.723 1800.02 256.353 Q1797.78 255.982 1795.37 255.241 L1795.37 250.542 Q1797.45 251.677 1799.67 252.232 Q1801.9 252.788 1804.37 252.788 Q1808.38 252.788 1810.72 250.681 Q1813.05 248.575 1813.05 244.964 Q1813.05 241.353 1810.72 239.246 Q1808.38 237.14 1804.37 237.14 Q1802.5 237.14 1800.62 237.556 Q1798.77 237.973 1796.83 238.853 L1796.83 221.492 Z" fill="#000000" fill-rule="nonzero" fill-opacity="1" /><path clip-path="url(#clip490)" d="M1830.97 252.116 L1847.29 252.116 L1847.29 256.052 L1825.34 256.052 L1825.34 252.116 Q1828.01 249.362 1832.59 244.732 Q1837.2 240.08 1838.38 238.737 Q1840.62 236.214 1841.5 234.478 Q1842.4 232.718 1842.4 231.029 Q1842.4 228.274 1840.46 226.538 Q1838.54 224.802 1835.44 224.802 Q1833.24 224.802 1830.78 225.566 Q1828.35 226.33 1825.58 227.881 L1825.58 223.158 Q1828.4 222.024 1830.85 221.445 Q1833.31 220.867 1835.34 220.867 Q1840.72 220.867 1843.91 223.552 Q1847.1 226.237 1847.1 230.728 Q1847.1 232.857 1846.29 234.779 Q1845.51 236.677 1843.4 239.269 Q1842.82 239.941 1839.72 243.158 Q1836.62 246.353 1830.97 252.116 Z" fill="#000000" fill-rule="nonzero" fill-opacity="1" /><path clip-path="url(#clip490)" d="M1760.6 113.949 Q1756.99 113.949 1755.16 117.514 Q1753.35 121.055 1753.35 128.185 Q1753.35 135.291 1755.16 138.856 Q1756.99 142.398 1760.6 142.398 Q1764.23 142.398 1766.04 138.856 Q1767.87 135.291 1767.87 128.185 Q1767.87 121.055 1766.04 117.514 Q1764.23 113.949 1760.6 113.949 M1760.6 110.245 Q1766.41 110.245 1769.47 114.852 Q1772.54 119.435 1772.54 128.185 Q1772.54 136.912 1769.47 141.518 Q1766.41 146.102 1760.6 146.102 Q1754.79 146.102 1751.71 141.518 Q1748.66 136.912 1748.66 128.185 Q1748.66 119.435 1751.71 114.852 Q1754.79 110.245 1760.6 110.245 Z" fill="#000000" fill-rule="nonzero" fill-opacity="1" /><path clip-path="url(#clip490)" d="M1780.76 139.551 L1785.65 139.551 L1785.65 145.43 L1780.76 145.43 L1780.76 139.551 Z" fill="#000000" fill-rule="nonzero" fill-opacity="1" /><path clip-path="url(#clip490)" d="M1795.88 110.87 L1814.23 110.87 L1814.23 114.805 L1800.16 114.805 L1800.16 123.278 Q1801.18 122.93 1802.2 122.768 Q1803.22 122.583 1804.23 122.583 Q1810.02 122.583 1813.4 125.754 Q1816.78 128.926 1816.78 134.342 Q1816.78 139.921 1813.31 143.023 Q1809.84 146.102 1803.52 146.102 Q1801.34 146.102 1799.07 145.731 Q1796.83 145.361 1794.42 144.62 L1794.42 139.921 Q1796.5 141.055 1798.72 141.611 Q1800.95 142.166 1803.42 142.166 Q1807.43 142.166 1809.77 140.06 Q1812.1 137.953 1812.1 134.342 Q1812.1 130.731 1809.77 128.625 Q1807.43 126.518 1803.42 126.518 Q1801.55 126.518 1799.67 126.935 Q1797.82 127.352 1795.88 128.231 L1795.88 110.87 Z" fill="#000000" fill-rule="nonzero" fill-opacity="1" /><path clip-path="url(#clip490)" d="M1840.16 126.796 Q1843.52 127.514 1845.39 129.782 Q1847.29 132.051 1847.29 135.384 Q1847.29 140.5 1843.77 143.301 Q1840.25 146.102 1833.77 146.102 Q1831.59 146.102 1829.28 145.662 Q1826.99 145.245 1824.53 144.389 L1824.53 139.875 Q1826.48 141.009 1828.79 141.588 Q1831.11 142.166 1833.63 142.166 Q1838.03 142.166 1840.32 140.43 Q1842.64 138.694 1842.64 135.384 Q1842.64 132.328 1840.48 130.616 Q1838.35 128.879 1834.53 128.879 L1830.51 128.879 L1830.51 125.037 L1834.72 125.037 Q1838.17 125.037 1840 123.671 Q1841.83 122.282 1841.83 119.69 Q1841.83 117.028 1839.93 115.616 Q1838.05 114.18 1834.53 114.18 Q1832.61 114.18 1830.41 114.597 Q1828.22 115.014 1825.58 115.893 L1825.58 111.727 Q1828.24 110.986 1830.55 110.616 Q1832.89 110.245 1834.95 110.245 Q1840.28 110.245 1843.38 112.676 Q1846.48 115.083 1846.48 119.204 Q1846.48 122.074 1844.84 124.065 Q1843.19 126.032 1840.16 126.796 Z" fill="#000000" fill-rule="nonzero" fill-opacity="1" /><path clip-path="url(#clip490)" d="M1642.91 492.046 Q1642.91 493.85 1641.78 494.881 Q1640.65 495.879 1639.36 495.879 Q1638.14 495.879 1637.49 495.17 Q1636.85 494.462 1636.85 493.56 Q1636.85 492.336 1637.75 491.274 Q1638.65 490.211 1640.01 489.985 Q1638.69 489.148 1636.72 489.148 Q1635.43 489.148 1634.31 489.824 Q1633.21 490.501 1632.53 491.37 Q1631.89 492.24 1631.31 493.496 Q1630.76 494.72 1630.54 495.46 Q1630.34 496.169 1630.18 496.942 L1627.93 505.959 Q1626.83 510.243 1626.83 511.756 Q1626.83 513.624 1627.74 514.88 Q1628.64 516.104 1630.44 516.104 Q1631.15 516.104 1631.96 515.911 Q1632.76 515.686 1633.79 515.106 Q1634.85 514.494 1635.79 513.592 Q1636.75 512.658 1637.69 511.08 Q1638.62 509.502 1639.23 507.473 Q1639.43 506.765 1640.07 506.765 Q1640.88 506.765 1640.88 507.409 Q1640.88 507.956 1640.43 509.116 Q1640.01 510.243 1639.07 511.724 Q1638.17 513.174 1636.98 514.494 Q1635.79 515.782 1634.02 516.684 Q1632.25 517.586 1630.31 517.586 Q1627.54 517.586 1625.71 516.104 Q1623.87 514.623 1623.2 512.562 Q1623.03 512.851 1622.81 513.238 Q1622.58 513.624 1621.91 514.494 Q1621.26 515.331 1620.52 515.975 Q1619.78 516.587 1618.62 517.07 Q1617.49 517.586 1616.27 517.586 Q1614.73 517.586 1613.34 517.135 Q1611.99 516.684 1611.02 515.653 Q1610.06 514.623 1610.06 513.206 Q1610.06 511.628 1611.12 510.533 Q1612.21 509.405 1613.69 509.405 Q1614.63 509.405 1615.37 509.953 Q1616.14 510.5 1616.14 511.692 Q1616.14 513.012 1615.24 514.011 Q1614.34 515.009 1613.05 515.267 Q1614.37 516.104 1616.34 516.104 Q1618.46 516.104 1620.14 514.236 Q1621.81 512.368 1622.62 509.244 Q1624.61 501.74 1625.39 498.391 Q1626.16 495.009 1626.16 493.56 Q1626.16 492.207 1625.8 491.274 Q1625.45 490.34 1624.84 489.921 Q1624.26 489.47 1623.71 489.309 Q1623.2 489.148 1622.62 489.148 Q1621.65 489.148 1620.55 489.534 Q1619.49 489.921 1618.2 490.823 Q1616.95 491.692 1615.76 493.496 Q1614.56 495.299 1613.76 497.779 Q1613.6 498.52 1612.89 498.52 Q1612.12 498.488 1612.12 497.844 Q1612.12 497.296 1612.54 496.169 Q1612.99 495.009 1613.89 493.56 Q1614.82 492.111 1616.01 490.823 Q1617.24 489.502 1619.01 488.6 Q1620.81 487.699 1622.74 487.699 Q1623.61 487.699 1624.45 487.892 Q1625.32 488.053 1626.35 488.536 Q1627.41 489.019 1628.35 490.082 Q1629.28 491.145 1629.86 492.691 Q1630.25 491.95 1630.76 491.241 Q1631.31 490.533 1632.15 489.663 Q1633.02 488.761 1634.21 488.246 Q1635.43 487.699 1636.79 487.699 Q1638.11 487.699 1639.39 488.053 Q1640.68 488.375 1641.78 489.438 Q1642.91 490.468 1642.91 492.046 Z" fill="#000000" fill-rule="nonzero" fill-opacity="1" /><polyline clip-path="url(#clip493)" style="stroke:#009af9; stroke-linecap:round; stroke-linejoin:round; stroke-width:4; stroke-opacity:1; fill:none" points="3055.96,460.014 2227.25,435.961 1929.1,130.035 "/>
<circle clip-path="url(#clip493)" cx="3055.96" cy="460.014" r="7.2" fill="#009af9" fill-rule="evenodd" fill-opacity="1" stroke="none"/>
<circle clip-path="url(#clip493)" cx="2227.25" cy="435.961" r="7.2" fill="#009af9" fill-rule="evenodd" fill-opacity="1" stroke="none"/>
<circle clip-path="url(#clip493)" cx="1929.1" cy="130.035" r="7.2" fill="#009af9" fill-rule="evenodd" fill-opacity="1" stroke="none"/>
<polyline clip-path="url(#clip493)" style="stroke:#e26f46; stroke-linecap:round; stroke-linejoin:round; stroke-width:4; stroke-opacity:1; fill:none" points="2227.25,484.068 1929.1,789.994 "/>
<circle clip-path="url(#clip493)" cx="2227.25" cy="484.068" r="7.2" fill="#e26f46" fill-rule="evenodd" fill-opacity="1" stroke="none"/>
<circle clip-path="url(#clip493)" cx="1929.1" cy="789.994" r="7.2" fill="#e26f46" fill-rule="evenodd" fill-opacity="1" stroke="none"/>
</svg>
