<?xml version="1.0" encoding="utf-8"?>
<svg xmlns="http://www.w3.org/2000/svg" xmlns:xlink="http://www.w3.org/1999/xlink" width="800" height="250" viewBox="0 0 3200 1000">
<defs>
  <clipPath id="clip150">
    <rect x="0" y="0" width="3200" height="1000"/>
  </clipPath>
</defs>
<path clip-path="url(#clip150)" d="M0 1000 L3200 1000 L3200 0 L0 0  Z" fill="#ffffff" fill-rule="evenodd" fill-opacity="1"/>
<defs>
  <clipPath id="clip151">
    <rect x="640" y="0" width="2241" height="1000"/>
  </clipPath>
</defs>
<path clip-path="url(#clip150)" d="M313.206 809.793 L1498.72 809.793 L1498.72 110.236 L313.206 110.236  Z" fill="#ffffff" fill-rule="evenodd" fill-opacity="1"/>
<defs>
  <clipPath id="clip152">
    <rect x="313" y="110" width="1187" height="701"/>
  </clipPath>
</defs>
<polyline clip-path="url(#clip152)" style="stroke:#000000; stroke-linecap:round; stroke-linejoin:round; stroke-width:2; stroke-opacity:0.1; fill:none" points="339.499,809.793 339.499,110.236 "/>
<polyline clip-path="url(#clip152)" style="stroke:#000000; stroke-linecap:round; stroke-linejoin:round; stroke-width:2; stroke-opacity:0.1; fill:none" points="606.037,809.793 606.037,110.236 "/>
<polyline clip-path="url(#clip152)" style="stroke:#000000; stroke-linecap:round; stroke-linejoin:round; stroke-width:2; stroke-opacity:0.1; fill:none" points="872.576,809.793 872.576,110.236 "/>
<polyline clip-path="url(#clip152)" style="stroke:#000000; stroke-linecap:round; stroke-linejoin:round; stroke-width:2; stroke-opacity:0.1; fill:none" points="1139.11,809.793 1139.11,110.236 "/>
<polyline clip-path="url(#clip152)" style="stroke:#000000; stroke-linecap:round; stroke-linejoin:round; stroke-width:2; stroke-opacity:0.1; fill:none" points="1405.65,809.793 1405.65,110.236 "/>
<polyline clip-path="url(#clip152)" style="stroke:#000000; stroke-linecap:round; stroke-linejoin:round; stroke-width:2; stroke-opacity:0.1; fill:none" points="313.206,800.356 1498.72,800.356 "/>
<polyline clip-path="url(#clip152)" style="stroke:#000000; stroke-linecap:round; stroke-linejoin:round; stroke-width:2; stroke-opacity:0.1; fill:none" points="313.206,630.185 1498.72,630.185 "/>
<polyline clip-path="url(#clip152)" style="stroke:#000000; stroke-linecap:round; stroke-linejoin:round; stroke-width:2; stroke-opacity:0.1; fill:none" points="313.206,460.014 1498.72,460.014 "/>
<polyline clip-path="url(#clip152)" style="stroke:#000000; stroke-linecap:round; stroke-linejoin:round; stroke-width:2; stroke-opacity:0.1; fill:none" points="313.206,289.844 1498.72,289.844 "/>
<polyline clip-path="url(#clip152)" style="stroke:#000000; stroke-linecap:round; stroke-linejoin:round; stroke-width:2; stroke-opacity:0.1; fill:none" points="313.206,119.673 1498.72,119.673 "/>
<polyline clip-path="url(#clip150)" style="stroke:#000000; stroke-linecap:round; stroke-linejoin:round; stroke-width:4; stroke-opacity:1; fill:none" points="313.206,809.793 1498.72,809.793 "/>
<polyline clip-path="url(#clip150)" style="stroke:#000000; stroke-linecap:round; stroke-linejoin:round; stroke-width:4; stroke-opacity:1; fill:none" points="339.499,809.793 339.499,790.895 "/>
<polyline clip-path="url(#clip150)" style="stroke:#000000; stroke-linecap:round; stroke-linejoin:round; stroke-width:4; stroke-opacity:1; fill:none" points="606.037,809.793 606.037,790.895 "/>
<polyline clip-path="url(#clip150)" style="stroke:#000000; stroke-linecap:round; stroke-linejoin:round; stroke-width:4; stroke-opacity:1; fill:none" points="872.576,809.793 872.576,790.895 "/>
<polyline clip-path="url(#clip150)" style="stroke:#000000; stroke-linecap:round; stroke-linejoin:round; stroke-width:4; stroke-opacity:1; fill:none" points="1139.11,809.793 1139.11,790.895 "/>
<polyline clip-path="url(#clip150)" style="stroke:#000000; stroke-linecap:round; stroke-linejoin:round; stroke-width:4; stroke-opacity:1; fill:none" points="1405.65,809.793 1405.65,790.895 "/>
<path clip-path="url(#clip150)" d="M301.803 847.111 Q298.191 847.111 296.363 850.676 Q294.557 854.218 294.557 861.347 Q294.557 868.454 296.363 872.019 Q298.191 875.56 301.803 875.56 Q305.437 875.56 307.242 872.019 Q309.071 868.454 309.071 861.347 Q309.071 854.218 307.242 850.676 Q305.437 847.111 301.803 847.111 M301.803 843.408 Q307.613 843.408 310.668 848.014 Q313.747 852.597 313.747 861.347 Q313.747 870.074 310.668 874.681 Q307.613 879.264 301.803 879.264 Q295.992 879.264 292.914 874.681 Q289.858 870.074 289.858 861.347 Q289.858 852.597 292.914 848.014 Q295.992 843.408 301.803 843.408 Z" fill="#000000" fill-rule="nonzero" fill-opacity="1" /><path clip-path="url(#clip150)" d="M321.964 872.713 L326.849 872.713 L326.849 878.593 L321.964 878.593 L321.964 872.713 Z" fill="#000000" fill-rule="nonzero" fill-opacity="1" /><path clip-path="url(#clip150)" d="M347.034 847.111 Q343.423 847.111 341.594 850.676 Q339.788 854.218 339.788 861.347 Q339.788 868.454 341.594 872.019 Q343.423 875.56 347.034 875.56 Q350.668 875.56 352.474 872.019 Q354.302 868.454 354.302 861.347 Q354.302 854.218 352.474 850.676 Q350.668 847.111 347.034 847.111 M347.034 843.408 Q352.844 843.408 355.899 848.014 Q358.978 852.597 358.978 861.347 Q358.978 870.074 355.899 874.681 Q352.844 879.264 347.034 879.264 Q341.224 879.264 338.145 874.681 Q335.089 870.074 335.089 861.347 Q335.089 852.597 338.145 848.014 Q341.224 843.408 347.034 843.408 Z" fill="#000000" fill-rule="nonzero" fill-opacity="1" /><path clip-path="url(#clip150)" d="M377.196 847.111 Q373.585 847.111 371.756 850.676 Q369.95 854.218 369.95 861.347 Q369.95 868.454 371.756 872.019 Q373.585 875.56 377.196 875.56 Q380.83 875.56 382.635 872.019 Q384.464 868.454 384.464 861.347 Q384.464 854.218 382.635 850.676 Q380.83 847.111 377.196 847.111 M377.196 843.408 Q383.006 843.408 386.061 848.014 Q389.14 852.597 389.14 861.347 Q389.14 870.074 386.061 874.681 Q383.006 879.264 377.196 879.264 Q371.385 879.264 368.307 874.681 Q365.251 870.074 365.251 861.347 Q365.251 852.597 368.307 848.014 Q371.385 843.408 377.196 843.408 Z" fill="#000000" fill-rule="nonzero" fill-opacity="1" /><path clip-path="url(#clip150)" d="M568.838 847.111 Q565.227 847.111 563.399 850.676 Q561.593 854.218 561.593 861.347 Q561.593 868.454 563.399 872.019 Q565.227 875.56 568.838 875.56 Q572.473 875.56 574.278 872.019 Q576.107 868.454 576.107 861.347 Q576.107 854.218 574.278 850.676 Q572.473 847.111 568.838 847.111 M568.838 843.408 Q574.649 843.408 577.704 848.014 Q580.783 852.597 580.783 861.347 Q580.783 870.074 577.704 874.681 Q574.649 879.264 568.838 879.264 Q563.028 879.264 559.95 874.681 Q556.894 870.074 556.894 861.347 Q556.894 852.597 559.95 848.014 Q563.028 843.408 568.838 843.408 Z" fill="#000000" fill-rule="nonzero" fill-opacity="1" /><path clip-path="url(#clip150)" d="M589 872.713 L593.885 872.713 L593.885 878.593 L589 878.593 L589 872.713 Z" fill="#000000" fill-rule="nonzero" fill-opacity="1" /><path clip-path="url(#clip150)" d="M608.098 874.658 L624.417 874.658 L624.417 878.593 L602.473 878.593 L602.473 874.658 Q605.135 871.903 609.718 867.273 Q614.324 862.621 615.505 861.278 Q617.75 858.755 618.63 857.019 Q619.533 855.26 619.533 853.57 Q619.533 850.815 617.588 849.079 Q615.667 847.343 612.565 847.343 Q610.366 847.343 607.912 848.107 Q605.482 848.871 602.704 850.422 L602.704 845.699 Q605.528 844.565 607.982 843.986 Q610.435 843.408 612.472 843.408 Q617.843 843.408 621.037 846.093 Q624.232 848.778 624.232 853.269 Q624.232 855.398 623.422 857.32 Q622.634 859.218 620.528 861.81 Q619.949 862.482 616.847 865.699 Q613.746 868.894 608.098 874.658 Z" fill="#000000" fill-rule="nonzero" fill-opacity="1" /><path clip-path="url(#clip150)" d="M634.278 844.033 L652.634 844.033 L652.634 847.968 L638.56 847.968 L638.56 856.44 Q639.579 856.093 640.597 855.931 Q641.616 855.746 642.634 855.746 Q648.421 855.746 651.801 858.917 Q655.181 862.088 655.181 867.505 Q655.181 873.083 651.708 876.185 Q648.236 879.264 641.917 879.264 Q639.741 879.264 637.472 878.894 Q635.227 878.523 632.82 877.783 L632.82 873.083 Q634.903 874.218 637.125 874.773 Q639.347 875.329 641.824 875.329 Q645.829 875.329 648.167 873.222 Q650.505 871.116 650.505 867.505 Q650.505 863.894 648.167 861.787 Q645.829 859.681 641.824 859.681 Q639.949 859.681 638.074 860.097 Q636.222 860.514 634.278 861.394 L634.278 844.033 Z" fill="#000000" fill-rule="nonzero" fill-opacity="1" /><path clip-path="url(#clip150)" d="M834.879 847.111 Q831.268 847.111 829.439 850.676 Q827.634 854.218 827.634 861.347 Q827.634 868.454 829.439 872.019 Q831.268 875.56 834.879 875.56 Q838.513 875.56 840.319 872.019 Q842.148 868.454 842.148 861.347 Q842.148 854.218 840.319 850.676 Q838.513 847.111 834.879 847.111 M834.879 843.408 Q840.689 843.408 843.745 848.014 Q846.823 852.597 846.823 861.347 Q846.823 870.074 843.745 874.681 Q840.689 879.264 834.879 879.264 Q829.069 879.264 825.99 874.681 Q822.935 870.074 822.935 861.347 Q822.935 852.597 825.99 848.014 Q829.069 843.408 834.879 843.408 Z" fill="#000000" fill-rule="nonzero" fill-opacity="1" /><path clip-path="url(#clip150)" d="M855.041 872.713 L859.925 872.713 L859.925 878.593 L855.041 878.593 L855.041 872.713 Z" fill="#000000" fill-rule="nonzero" fill-opacity="1" /><path clip-path="url(#clip150)" d="M870.157 844.033 L888.513 844.033 L888.513 847.968 L874.439 847.968 L874.439 856.44 Q875.458 856.093 876.476 855.931 Q877.495 855.746 878.513 855.746 Q884.3 855.746 887.68 858.917 Q891.059 862.088 891.059 867.505 Q891.059 873.083 887.587 876.185 Q884.115 879.264 877.796 879.264 Q875.62 879.264 873.351 878.894 Q871.106 878.523 868.698 877.783 L868.698 873.083 Q870.782 874.218 873.004 874.773 Q875.226 875.329 877.703 875.329 Q881.708 875.329 884.045 873.222 Q886.383 871.116 886.383 867.505 Q886.383 863.894 884.045 861.787 Q881.708 859.681 877.703 859.681 Q875.828 859.681 873.953 860.097 Q872.101 860.514 870.157 861.394 L870.157 844.033 Z" fill="#000000" fill-rule="nonzero" fill-opacity="1" /><path clip-path="url(#clip150)" d="M910.272 847.111 Q906.661 847.111 904.832 850.676 Q903.027 854.218 903.027 861.347 Q903.027 868.454 904.832 872.019 Q906.661 875.56 910.272 875.56 Q913.906 875.56 915.712 872.019 Q917.541 868.454 917.541 861.347 Q917.541 854.218 915.712 850.676 Q913.906 847.111 910.272 847.111 M910.272 843.408 Q916.082 843.408 919.138 848.014 Q922.217 852.597 922.217 861.347 Q922.217 870.074 919.138 874.681 Q916.082 879.264 910.272 879.264 Q904.462 879.264 901.383 874.681 Q898.328 870.074 898.328 861.347 Q898.328 852.597 901.383 848.014 Q904.462 843.408 910.272 843.408 Z" fill="#000000" fill-rule="nonzero" fill-opacity="1" /><path clip-path="url(#clip150)" d="M1101.92 847.111 Q1098.3 847.111 1096.48 850.676 Q1094.67 854.218 1094.67 861.347 Q1094.67 868.454 1096.48 872.019 Q1098.3 875.56 1101.92 875.56 Q1105.55 875.56 1107.35 872.019 Q1109.18 868.454 1109.18 861.347 Q1109.18 854.218 1107.35 850.676 Q1105.55 847.111 1101.92 847.111 M1101.92 843.408 Q1107.73 843.408 1110.78 848.014 Q1113.86 852.597 1113.86 861.347 Q1113.86 870.074 1110.78 874.681 Q1107.73 879.264 1101.92 879.264 Q1096.1 879.264 1093.03 874.681 Q1089.97 870.074 1089.97 861.347 Q1089.97 852.597 1093.03 848.014 Q1096.1 843.408 1101.92 843.408 Z" fill="#000000" fill-rule="nonzero" fill-opacity="1" /><path clip-path="url(#clip150)" d="M1122.08 872.713 L1126.96 872.713 L1126.96 878.593 L1122.08 878.593 L1122.08 872.713 Z" fill="#000000" fill-rule="nonzero" fill-opacity="1" /><path clip-path="url(#clip150)" d="M1135.97 844.033 L1158.19 844.033 L1158.19 846.023 L1145.64 878.593 L1140.76 878.593 L1152.56 847.968 L1135.97 847.968 L1135.97 844.033 Z" fill="#000000" fill-rule="nonzero" fill-opacity="1" /><path clip-path="url(#clip150)" d="M1167.35 844.033 L1185.71 844.033 L1185.71 847.968 L1171.64 847.968 L1171.64 856.44 Q1172.66 856.093 1173.67 855.931 Q1174.69 855.746 1175.71 855.746 Q1181.5 855.746 1184.88 858.917 Q1188.26 862.088 1188.26 867.505 Q1188.26 873.083 1184.78 876.185 Q1181.31 879.264 1174.99 879.264 Q1172.82 879.264 1170.55 878.894 Q1168.3 878.523 1165.9 877.783 L1165.9 873.083 Q1167.98 874.218 1170.2 874.773 Q1172.42 875.329 1174.9 875.329 Q1178.91 875.329 1181.24 873.222 Q1183.58 871.116 1183.58 867.505 Q1183.58 863.894 1181.24 861.787 Q1178.91 859.681 1174.9 859.681 Q1173.03 859.681 1171.15 860.097 Q1169.3 860.514 1167.35 861.394 L1167.35 844.033 Z" fill="#000000" fill-rule="nonzero" fill-opacity="1" /><path clip-path="url(#clip150)" d="M1357.72 874.658 L1365.36 874.658 L1365.36 848.292 L1357.05 849.959 L1357.05 845.699 L1365.32 844.033 L1369.99 844.033 L1369.99 874.658 L1377.63 874.658 L1377.63 878.593 L1357.72 878.593 L1357.72 874.658 Z" fill="#000000" fill-rule="nonzero" fill-opacity="1" /><path clip-path="url(#clip150)" d="M1387.08 872.713 L1391.96 872.713 L1391.96 878.593 L1387.08 878.593 L1387.08 872.713 Z" fill="#000000" fill-rule="nonzero" fill-opacity="1" /><path clip-path="url(#clip150)" d="M1412.15 847.111 Q1408.53 847.111 1406.71 850.676 Q1404.9 854.218 1404.9 861.347 Q1404.9 868.454 1406.71 872.019 Q1408.53 875.56 1412.15 875.56 Q1415.78 875.56 1417.59 872.019 Q1419.41 868.454 1419.41 861.347 Q1419.41 854.218 1417.59 850.676 Q1415.78 847.111 1412.15 847.111 M1412.15 843.408 Q1417.96 843.408 1421.01 848.014 Q1424.09 852.597 1424.09 861.347 Q1424.09 870.074 1421.01 874.681 Q1417.96 879.264 1412.15 879.264 Q1406.34 879.264 1403.26 874.681 Q1400.2 870.074 1400.2 861.347 Q1400.2 852.597 1403.26 848.014 Q1406.34 843.408 1412.15 843.408 Z" fill="#000000" fill-rule="nonzero" fill-opacity="1" /><path clip-path="url(#clip150)" d="M1442.31 847.111 Q1438.7 847.111 1436.87 850.676 Q1435.06 854.218 1435.06 861.347 Q1435.06 868.454 1436.87 872.019 Q1438.7 875.56 1442.31 875.56 Q1445.94 875.56 1447.75 872.019 Q1449.58 868.454 1449.58 861.347 Q1449.58 854.218 1447.75 850.676 Q1445.94 847.111 1442.31 847.111 M1442.31 843.408 Q1448.12 843.408 1451.17 848.014 Q1454.25 852.597 1454.25 861.347 Q1454.25 870.074 1451.17 874.681 Q1448.12 879.264 1442.31 879.264 Q1436.5 879.264 1433.42 874.681 Q1430.36 870.074 1430.36 861.347 Q1430.36 852.597 1433.42 848.014 Q1436.5 843.408 1442.31 843.408 Z" fill="#000000" fill-rule="nonzero" fill-opacity="1" /><path clip-path="url(#clip150)" d="M919.566 960.438 Q919.566 961.05 918.857 961.115 L917.408 961.115 Q915.926 961.115 915.282 960.889 Q914.638 960.664 913.897 959.633 Q913.446 958.989 912.319 955.994 Q911.224 952.967 909.614 948.393 Q908.036 943.82 906.973 941.115 L891.096 959.859 Q890.001 961.243 888.906 961.243 Q888.1 961.243 887.521 960.696 Q886.941 960.148 886.941 959.311 Q886.941 958.699 887.166 958.345 Q887.424 957.991 888.1 957.282 L906.329 939.215 L899.92 921.276 Q898.696 917.959 897.988 917.121 Q897.311 916.284 895.637 915.994 Q895.025 915.833 895.025 915.318 Q895.025 914.609 896.216 914.609 Q902.593 914.609 904.268 919.279 L917.73 956.799 Q918.471 958.957 919.243 959.859 Q919.566 960.277 919.566 960.438 Z" fill="#000000" fill-rule="nonzero" fill-opacity="1" /><polyline clip-path="url(#clip150)" style="stroke:#000000; stroke-linecap:round; stroke-linejoin:round; stroke-width:4; stroke-opacity:1; fill:none" points="313.206,809.793 313.206,110.236 "/>
<polyline clip-path="url(#clip150)" style="stroke:#000000; stroke-linecap:round; stroke-linejoin:round; stroke-width:4; stroke-opacity:1; fill:none" points="313.206,800.356 332.103,800.356 "/>
<polyline clip-path="url(#clip150)" style="stroke:#000000; stroke-linecap:round; stroke-linejoin:round; stroke-width:4; stroke-opacity:1; fill:none" points="313.206,630.185 332.103,630.185 "/>
<polyline clip-path="url(#clip150)" style="stroke:#000000; stroke-linecap:round; stroke-linejoin:round; stroke-width:4; stroke-opacity:1; fill:none" points="313.206,460.014 332.103,460.014 "/>
<polyline clip-path="url(#clip150)" style="stroke:#000000; stroke-linecap:round; stroke-linejoin:round; stroke-width:4; stroke-opacity:1; fill:none" points="313.206,289.844 332.103,289.844 "/>
<polyline clip-path="url(#clip150)" style="stroke:#000000; stroke-linecap:round; stroke-linejoin:round; stroke-width:4; stroke-opacity:1; fill:none" points="313.206,119.673 332.103,119.673 "/>
<path clip-path="url(#clip150)" d="M148.007 802.752 L160.484 802.752 L160.484 806.548 L148.007 806.548 L148.007 802.752 Z" fill="#000000" fill-rule="nonzero" fill-opacity="1" /><path clip-path="url(#clip150)" d="M168.678 813.701 L176.317 813.701 L176.317 787.335 L168.007 789.002 L168.007 784.742 L176.271 783.076 L180.947 783.076 L180.947 813.701 L188.586 813.701 L188.586 817.636 L168.678 817.636 L168.678 813.701 Z" fill="#000000" fill-rule="nonzero" fill-opacity="1" /><path clip-path="url(#clip150)" d="M198.03 811.756 L202.914 811.756 L202.914 817.636 L198.03 817.636 L198.03 811.756 Z" fill="#000000" fill-rule="nonzero" fill-opacity="1" /><path clip-path="url(#clip150)" d="M223.099 786.154 Q219.488 786.154 217.66 789.719 Q215.854 793.261 215.854 800.39 Q215.854 807.497 217.66 811.062 Q219.488 814.603 223.099 814.603 Q226.734 814.603 228.539 811.062 Q230.368 807.497 230.368 800.39 Q230.368 793.261 228.539 789.719 Q226.734 786.154 223.099 786.154 M223.099 782.451 Q228.91 782.451 231.965 787.057 Q235.044 791.64 235.044 800.39 Q235.044 809.117 231.965 813.724 Q228.91 818.307 223.099 818.307 Q217.289 818.307 214.211 813.724 Q211.155 809.117 211.155 800.39 Q211.155 791.64 214.211 787.057 Q217.289 782.451 223.099 782.451 Z" fill="#000000" fill-rule="nonzero" fill-opacity="1" /><path clip-path="url(#clip150)" d="M253.261 786.154 Q249.65 786.154 247.822 789.719 Q246.016 793.261 246.016 800.39 Q246.016 807.497 247.822 811.062 Q249.65 814.603 253.261 814.603 Q256.896 814.603 258.701 811.062 Q260.53 807.497 260.53 800.39 Q260.53 793.261 258.701 789.719 Q256.896 786.154 253.261 786.154 M253.261 782.451 Q259.072 782.451 262.127 787.057 Q265.206 791.64 265.206 800.39 Q265.206 809.117 262.127 813.724 Q259.072 818.307 253.261 818.307 Q247.451 818.307 244.373 813.724 Q241.317 809.117 241.317 800.39 Q241.317 791.64 244.373 787.057 Q247.451 782.451 253.261 782.451 Z" fill="#000000" fill-rule="nonzero" fill-opacity="1" /><path clip-path="url(#clip150)" d="M148.007 632.581 L160.484 632.581 L160.484 636.377 L148.007 636.377 L148.007 632.581 Z" fill="#000000" fill-rule="nonzero" fill-opacity="1" /><path clip-path="url(#clip150)" d="M177.868 615.984 Q174.257 615.984 172.428 619.549 Q170.623 623.09 170.623 630.22 Q170.623 637.326 172.428 640.891 Q174.257 644.433 177.868 644.433 Q181.502 644.433 183.308 640.891 Q185.137 637.326 185.137 630.22 Q185.137 623.09 183.308 619.549 Q181.502 615.984 177.868 615.984 M177.868 612.28 Q183.678 612.28 186.734 616.887 Q189.813 621.47 189.813 630.22 Q189.813 638.947 186.734 643.553 Q183.678 648.136 177.868 648.136 Q172.058 648.136 168.979 643.553 Q165.924 638.947 165.924 630.22 Q165.924 621.47 168.979 616.887 Q172.058 612.28 177.868 612.28 Z" fill="#000000" fill-rule="nonzero" fill-opacity="1" /><path clip-path="url(#clip150)" d="M198.03 641.585 L202.914 641.585 L202.914 647.465 L198.03 647.465 L198.03 641.585 Z" fill="#000000" fill-rule="nonzero" fill-opacity="1" /><path clip-path="url(#clip150)" d="M213.146 612.905 L231.502 612.905 L231.502 616.84 L217.428 616.84 L217.428 625.312 Q218.447 624.965 219.465 624.803 Q220.484 624.618 221.502 624.618 Q227.289 624.618 230.669 627.789 Q234.048 630.961 234.048 636.377 Q234.048 641.956 230.576 645.058 Q227.104 648.136 220.785 648.136 Q218.609 648.136 216.34 647.766 Q214.095 647.396 211.687 646.655 L211.687 641.956 Q213.771 643.09 215.993 643.646 Q218.215 644.201 220.692 644.201 Q224.697 644.201 227.035 642.095 Q229.373 639.988 229.373 636.377 Q229.373 632.766 227.035 630.66 Q224.697 628.553 220.692 628.553 Q218.817 628.553 216.942 628.97 Q215.09 629.386 213.146 630.266 L213.146 612.905 Z" fill="#000000" fill-rule="nonzero" fill-opacity="1" /><path clip-path="url(#clip150)" d="M253.261 615.984 Q249.65 615.984 247.822 619.549 Q246.016 623.09 246.016 630.22 Q246.016 637.326 247.822 640.891 Q249.65 644.433 253.261 644.433 Q256.896 644.433 258.701 640.891 Q260.53 637.326 260.53 630.22 Q260.53 623.09 258.701 619.549 Q256.896 615.984 253.261 615.984 M253.261 612.28 Q259.072 612.28 262.127 616.887 Q265.206 621.47 265.206 630.22 Q265.206 638.947 262.127 643.553 Q259.072 648.136 253.261 648.136 Q247.451 648.136 244.373 643.553 Q241.317 638.947 241.317 630.22 Q241.317 621.47 244.373 616.887 Q247.451 612.28 253.261 612.28 Z" fill="#000000" fill-rule="nonzero" fill-opacity="1" /><path clip-path="url(#clip150)" d="M177.868 445.813 Q174.257 445.813 172.428 449.378 Q170.623 452.92 170.623 460.049 Q170.623 467.156 172.428 470.72 Q174.257 474.262 177.868 474.262 Q181.502 474.262 183.308 470.72 Q185.137 467.156 185.137 460.049 Q185.137 452.92 183.308 449.378 Q181.502 445.813 177.868 445.813 M177.868 442.109 Q183.678 442.109 186.734 446.716 Q189.813 451.299 189.813 460.049 Q189.813 468.776 186.734 473.382 Q183.678 477.966 177.868 477.966 Q172.058 477.966 168.979 473.382 Q165.924 468.776 165.924 460.049 Q165.924 451.299 168.979 446.716 Q172.058 442.109 177.868 442.109 Z" fill="#000000" fill-rule="nonzero" fill-opacity="1" /><path clip-path="url(#clip150)" d="M198.03 471.415 L202.914 471.415 L202.914 477.294 L198.03 477.294 L198.03 471.415 Z" fill="#000000" fill-rule="nonzero" fill-opacity="1" /><path clip-path="url(#clip150)" d="M223.099 445.813 Q219.488 445.813 217.66 449.378 Q215.854 452.92 215.854 460.049 Q215.854 467.156 217.66 470.72 Q219.488 474.262 223.099 474.262 Q226.734 474.262 228.539 470.72 Q230.368 467.156 230.368 460.049 Q230.368 452.92 228.539 449.378 Q226.734 445.813 223.099 445.813 M223.099 442.109 Q228.91 442.109 231.965 446.716 Q235.044 451.299 235.044 460.049 Q235.044 468.776 231.965 473.382 Q228.91 477.966 223.099 477.966 Q217.289 477.966 214.211 473.382 Q211.155 468.776 211.155 460.049 Q211.155 451.299 214.211 446.716 Q217.289 442.109 223.099 442.109 Z" fill="#000000" fill-rule="nonzero" fill-opacity="1" /><path clip-path="url(#clip150)" d="M253.261 445.813 Q249.65 445.813 247.822 449.378 Q246.016 452.92 246.016 460.049 Q246.016 467.156 247.822 470.72 Q249.65 474.262 253.261 474.262 Q256.896 474.262 258.701 470.72 Q260.53 467.156 260.53 460.049 Q260.53 452.92 258.701 449.378 Q256.896 445.813 253.261 445.813 M253.261 442.109 Q259.072 442.109 262.127 446.716 Q265.206 451.299 265.206 460.049 Q265.206 468.776 262.127 473.382 Q259.072 477.966 253.261 477.966 Q247.451 477.966 244.373 473.382 Q241.317 468.776 241.317 460.049 Q241.317 451.299 244.373 446.716 Q247.451 442.109 253.261 442.109 Z" fill="#000000" fill-rule="nonzero" fill-opacity="1" /><path clip-path="url(#clip150)" d="M177.868 275.643 Q174.257 275.643 172.428 279.207 Q170.623 282.749 170.623 289.879 Q170.623 296.985 172.428 300.55 Q174.257 304.091 177.868 304.091 Q181.502 304.091 183.308 300.55 Q185.137 296.985 185.137 289.879 Q185.137 282.749 183.308 279.207 Q181.502 275.643 177.868 275.643 M177.868 271.939 Q183.678 271.939 186.734 276.545 Q189.813 281.129 189.813 289.879 Q189.813 298.605 186.734 303.212 Q183.678 307.795 177.868 307.795 Q172.058 307.795 168.979 303.212 Q165.924 298.605 165.924 289.879 Q165.924 281.129 168.979 276.545 Q172.058 271.939 177.868 271.939 Z" fill="#000000" fill-rule="nonzero" fill-opacity="1" /><path clip-path="url(#clip150)" d="M198.03 301.244 L202.914 301.244 L202.914 307.124 L198.03 307.124 L198.03 301.244 Z" fill="#000000" fill-rule="nonzero" fill-opacity="1" /><path clip-path="url(#clip150)" d="M213.146 272.564 L231.502 272.564 L231.502 276.499 L217.428 276.499 L217.428 284.971 Q218.447 284.624 219.465 284.462 Q220.484 284.277 221.502 284.277 Q227.289 284.277 230.669 287.448 Q234.048 290.619 234.048 296.036 Q234.048 301.615 230.576 304.716 Q227.104 307.795 220.785 307.795 Q218.609 307.795 216.34 307.425 Q214.095 307.054 211.687 306.314 L211.687 301.615 Q213.771 302.749 215.993 303.304 Q218.215 303.86 220.692 303.86 Q224.697 303.86 227.035 301.754 Q229.373 299.647 229.373 296.036 Q229.373 292.425 227.035 290.318 Q224.697 288.212 220.692 288.212 Q218.817 288.212 216.942 288.629 Q215.09 289.045 213.146 289.925 L213.146 272.564 Z" fill="#000000" fill-rule="nonzero" fill-opacity="1" /><path clip-path="url(#clip150)" d="M253.261 275.643 Q249.65 275.643 247.822 279.207 Q246.016 282.749 246.016 289.879 Q246.016 296.985 247.822 300.55 Q249.65 304.091 253.261 304.091 Q256.896 304.091 258.701 300.55 Q260.53 296.985 260.53 289.879 Q260.53 282.749 258.701 279.207 Q256.896 275.643 253.261 275.643 M253.261 271.939 Q259.072 271.939 262.127 276.545 Q265.206 281.129 265.206 289.879 Q265.206 298.605 262.127 303.212 Q259.072 307.795 253.261 307.795 Q247.451 307.795 244.373 303.212 Q241.317 298.605 241.317 289.879 Q241.317 281.129 244.373 276.545 Q247.451 271.939 253.261 271.939 Z" fill="#000000" fill-rule="nonzero" fill-opacity="1" /><path clip-path="url(#clip150)" d="M168.678 133.018 L176.317 133.018 L176.317 106.652 L168.007 108.319 L168.007 104.06 L176.271 102.393 L180.947 102.393 L180.947 133.018 L188.586 133.018 L188.586 136.953 L168.678 136.953 L168.678 133.018 Z" fill="#000000" fill-rule="nonzero" fill-opacity="1" /><path clip-path="url(#clip150)" d="M198.03 131.074 L202.914 131.074 L202.914 136.953 L198.03 136.953 L198.03 131.074 Z" fill="#000000" fill-rule="nonzero" fill-opacity="1" /><path clip-path="url(#clip150)" d="M223.099 105.472 Q219.488 105.472 217.66 109.037 Q215.854 112.578 215.854 119.708 Q215.854 126.814 217.66 130.379 Q219.488 133.921 223.099 133.921 Q226.734 133.921 228.539 130.379 Q230.368 126.814 230.368 119.708 Q230.368 112.578 228.539 109.037 Q226.734 105.472 223.099 105.472 M223.099 101.768 Q228.91 101.768 231.965 106.375 Q235.044 110.958 235.044 119.708 Q235.044 128.435 231.965 133.041 Q228.91 137.625 223.099 137.625 Q217.289 137.625 214.211 133.041 Q211.155 128.435 211.155 119.708 Q211.155 110.958 214.211 106.375 Q217.289 101.768 223.099 101.768 Z" fill="#000000" fill-rule="nonzero" fill-opacity="1" /><path clip-path="url(#clip150)" d="M253.261 105.472 Q249.65 105.472 247.822 109.037 Q246.016 112.578 246.016 119.708 Q246.016 126.814 247.822 130.379 Q249.65 133.921 253.261 133.921 Q256.896 133.921 258.701 130.379 Q260.53 126.814 260.53 119.708 Q260.53 112.578 258.701 109.037 Q256.896 105.472 253.261 105.472 M253.261 101.768 Q259.072 101.768 262.127 106.375 Q265.206 110.958 265.206 119.708 Q265.206 128.435 262.127 133.041 Q259.072 137.625 253.261 137.625 Q247.451 137.625 244.373 133.041 Q241.317 128.435 241.317 119.708 Q241.317 110.958 244.373 106.375 Q247.451 101.768 253.261 101.768 Z" fill="#000000" fill-rule="nonzero" fill-opacity="1" /><path clip-path="url(#clip150)" d="M41.6675 507.409 Q40.7979 511.563 39.6707 513.946 Q37.8672 517.586 34.8076 517.586 Q32.4888 517.586 30.8463 516.169 Q29.2038 514.752 28.8173 512.626 Q24.5984 517.586 20.2184 517.586 Q16.3537 517.586 13.906 514.655 Q11.4584 511.692 11.4584 507.022 Q11.4584 502.32 13.7772 497.811 Q16.1282 493.302 19.8319 490.501 Q23.5356 487.699 27.3359 487.699 Q31.3616 487.699 33.4228 491.918 Q33.5838 490.758 34.3245 489.889 Q35.0653 489.019 36.1925 489.019 Q37.062 489.019 37.5773 489.502 Q38.0926 489.953 38.0926 490.79 Q38.0926 491.209 37.6417 493.045 L35.2585 502.256 L33.8093 508.214 Q33.2618 510.404 33.1007 511.209 Q32.9719 512.014 32.9719 513.077 Q32.9719 516.104 34.9365 516.104 Q35.9026 516.104 36.6756 515.492 Q37.4485 514.88 38.0604 513.592 Q38.6723 512.304 39.0588 511.112 Q39.4453 509.889 39.9606 507.956 Q40.1216 507.183 40.2504 506.99 Q40.4115 506.765 40.8623 506.765 Q41.6675 506.765 41.6675 507.409 M32.6176 494.945 Q32.6176 494.655 32.3922 493.85 Q32.1668 493.045 31.6515 491.918 Q31.1362 490.79 30.009 489.985 Q28.914 489.148 27.4325 489.148 Q25.4357 489.148 23.3423 490.855 Q21.2812 492.562 19.7675 495.46 Q18.6081 497.779 17.3521 502.642 Q16.1282 507.505 16.1282 509.921 Q16.1282 511.402 16.4503 512.723 Q16.8046 514.011 17.8029 515.074 Q18.8013 516.104 20.3472 516.104 Q24.1153 516.104 27.819 511.434 Q28.5275 510.629 28.6885 510.307 Q28.8818 509.953 29.1394 508.987 L32.4244 496.072 Q32.6176 495.106 32.6176 494.945 Z" fill="#000000" fill-rule="nonzero" fill-opacity="1" /><polyline clip-path="url(#clip152)" style="stroke:#009af9; stroke-linecap:round; stroke-linejoin:round; stroke-width:4; stroke-opacity:1; fill:none" points="1465.17,460.012 346.758,130.035 "/>
<circle clip-path="url(#clip152)" cx="1465.17" cy="460.012" r="7.2" fill="#009af9" fill-rule="evenodd" fill-opacity="1" stroke="none"/>
<circle clip-path="url(#clip152)" cx="346.758" cy="130.035" r="7.2" fill="#009af9" fill-rule="evenodd" fill-opacity="1" stroke="none"/>
<polyline clip-path="url(#clip152)" style="stroke:#e26f46; stroke-linecap:round; stroke-linejoin:round; stroke-width:4; stroke-opacity:1; fill:none" points="1465.17,460.017 346.758,789.994 "/>
<circle clip-path="url(#clip152)" cx="1465.17" cy="460.017" r="7.2" fill="#e26f46" fill-rule="evenodd" fill-opacity="1" stroke="none"/>
<circle clip-path="url(#clip152)" cx="346.758" cy="789.994" r="7.2" fill="#e26f46" fill-rule="evenodd" fill-opacity="1" stroke="none"/>
<path clip-path="url(#clip150)" d="M1904.25 809.793 L3089.76 809.793 L3089.76 110.236 L1904.25 110.236  Z" fill="#ffffff" fill-rule="evenodd" fill-opacity="1"/>
<defs>
  <clipPath id="clip153">
    <rect x="1904" y="110" width="1187" height="701"/>
  </clipPath>
</defs>
<polyline clip-path="url(#clip153)" style="stroke:#000000; stroke-linecap:round; stroke-linejoin:round; stroke-width:2; stroke-opacity:0.1; fill:none" points="1930.54,809.793 1930.54,110.236 "/>
<polyline clip-path="url(#clip153)" style="stroke:#000000; stroke-linecap:round; stroke-linejoin:round; stroke-width:2; stroke-opacity:0.1; fill:none" points="2197.08,809.793 2197.08,110.236 "/>
<polyline clip-path="url(#clip153)" style="stroke:#000000; stroke-linecap:round; stroke-linejoin:round; stroke-width:2; stroke-opacity:0.1; fill:none" points="2463.62,809.793 2463.62,110.236 "/>
<polyline clip-path="url(#clip153)" style="stroke:#000000; stroke-linecap:round; stroke-linejoin:round; stroke-width:2; stroke-opacity:0.1; fill:none" points="2730.16,809.793 2730.16,110.236 "/>
<polyline clip-path="url(#clip153)" style="stroke:#000000; stroke-linecap:round; stroke-linejoin:round; stroke-width:2; stroke-opacity:0.1; fill:none" points="2996.69,809.793 2996.69,110.236 "/>
<polyline clip-path="url(#clip153)" style="stroke:#000000; stroke-linecap:round; stroke-linejoin:round; stroke-width:2; stroke-opacity:0.1; fill:none" points="1904.25,714.718 3089.76,714.718 "/>
<polyline clip-path="url(#clip153)" style="stroke:#000000; stroke-linecap:round; stroke-linejoin:round; stroke-width:2; stroke-opacity:0.1; fill:none" points="1904.25,587.366 3089.76,587.366 "/>
<polyline clip-path="url(#clip153)" style="stroke:#000000; stroke-linecap:round; stroke-linejoin:round; stroke-width:2; stroke-opacity:0.1; fill:none" points="1904.25,460.014 3089.76,460.014 "/>
<polyline clip-path="url(#clip153)" style="stroke:#000000; stroke-linecap:round; stroke-linejoin:round; stroke-width:2; stroke-opacity:0.1; fill:none" points="1904.25,332.663 3089.76,332.663 "/>
<polyline clip-path="url(#clip153)" style="stroke:#000000; stroke-linecap:round; stroke-linejoin:round; stroke-width:2; stroke-opacity:0.1; fill:none" points="1904.25,205.311 3089.76,205.311 "/>
<polyline clip-path="url(#clip150)" style="stroke:#000000; stroke-linecap:round; stroke-linejoin:round; stroke-width:4; stroke-opacity:1; fill:none" points="1904.25,809.793 3089.76,809.793 "/>
<polyline clip-path="url(#clip150)" style="stroke:#000000; stroke-linecap:round; stroke-linejoin:round; stroke-width:4; stroke-opacity:1; fill:none" points="1930.54,809.793 1930.54,790.895 "/>
<polyline clip-path="url(#clip150)" style="stroke:#000000; stroke-linecap:round; stroke-linejoin:round; stroke-width:4; stroke-opacity:1; fill:none" points="2197.08,809.793 2197.08,790.895 "/>
<polyline clip-path="url(#clip150)" style="stroke:#000000; stroke-linecap:round; stroke-linejoin:round; stroke-width:4; stroke-opacity:1; fill:none" points="2463.62,809.793 2463.62,790.895 "/>
<polyline clip-path="url(#clip150)" style="stroke:#000000; stroke-linecap:round; stroke-linejoin:round; stroke-width:4; stroke-opacity:1; fill:none" points="2730.16,809.793 2730.16,790.895 "/>
<polyline clip-path="url(#clip150)" style="stroke:#000000; stroke-linecap:round; stroke-linejoin:round; stroke-width:4; stroke-opacity:1; fill:none" points="2996.69,809.793 2996.69,790.895 "/>
<path clip-path="url(#clip150)" d="M1892.84 847.111 Q1889.23 847.111 1887.4 850.676 Q1885.6 854.218 1885.6 861.347 Q1885.6 868.454 1887.4 872.019 Q1889.23 875.56 1892.84 875.56 Q1896.48 875.56 1898.28 872.019 Q1900.11 868.454 1900.11 861.347 Q1900.11 854.218 1898.28 850.676 Q1896.48 847.111 1892.84 847.111 M1892.84 843.408 Q1898.65 843.408 1901.71 848.014 Q1904.79 852.597 1904.79 861.347 Q1904.79 870.074 1901.71 874.681 Q1898.65 879.264 1892.84 879.264 Q1887.03 879.264 1883.96 874.681 Q1880.9 870.074 1880.9 861.347 Q1880.9 852.597 1883.96 848.014 Q1887.03 843.408 1892.84 843.408 Z" fill="#000000" fill-rule="nonzero" fill-opacity="1" /><path clip-path="url(#clip150)" d="M1913.01 872.713 L1917.89 872.713 L1917.89 878.593 L1913.01 878.593 L1913.01 872.713 Z" fill="#000000" fill-rule="nonzero" fill-opacity="1" /><path clip-path="url(#clip150)" d="M1938.08 847.111 Q1934.46 847.111 1932.64 850.676 Q1930.83 854.218 1930.83 861.347 Q1930.83 868.454 1932.64 872.019 Q1934.46 875.56 1938.08 875.56 Q1941.71 875.56 1943.52 872.019 Q1945.34 868.454 1945.34 861.347 Q1945.34 854.218 1943.52 850.676 Q1941.71 847.111 1938.08 847.111 M1938.08 843.408 Q1943.89 843.408 1946.94 848.014 Q1950.02 852.597 1950.02 861.347 Q1950.02 870.074 1946.94 874.681 Q1943.89 879.264 1938.08 879.264 Q1932.27 879.264 1929.19 874.681 Q1926.13 870.074 1926.13 861.347 Q1926.13 852.597 1929.19 848.014 Q1932.27 843.408 1938.08 843.408 Z" fill="#000000" fill-rule="nonzero" fill-opacity="1" /><path clip-path="url(#clip150)" d="M1968.24 847.111 Q1964.63 847.111 1962.8 850.676 Q1960.99 854.218 1960.99 861.347 Q1960.99 868.454 1962.8 872.019 Q1964.63 875.56 1968.24 875.56 Q1971.87 875.56 1973.68 872.019 Q1975.51 868.454 1975.51 861.347 Q1975.51 854.218 1973.68 850.676 Q1971.87 847.111 1968.24 847.111 M1968.24 843.408 Q1974.05 843.408 1977.1 848.014 Q1980.18 852.597 1980.18 861.347 Q1980.18 870.074 1977.1 874.681 Q1974.05 879.264 1968.24 879.264 Q1962.43 879.264 1959.35 874.681 Q1956.29 870.074 1956.29 861.347 Q1956.29 852.597 1959.35 848.014 Q1962.43 843.408 1968.24 843.408 Z" fill="#000000" fill-rule="nonzero" fill-opacity="1" /><path clip-path="url(#clip150)" d="M2159.88 847.111 Q2156.27 847.111 2154.44 850.676 Q2152.63 854.218 2152.63 861.347 Q2152.63 868.454 2154.44 872.019 Q2156.27 875.56 2159.88 875.56 Q2163.51 875.56 2165.32 872.019 Q2167.15 868.454 2167.15 861.347 Q2167.15 854.218 2165.32 850.676 Q2163.51 847.111 2159.88 847.111 M2159.88 843.408 Q2165.69 843.408 2168.75 848.014 Q2171.82 852.597 2171.82 861.347 Q2171.82 870.074 2168.75 874.681 Q2165.69 879.264 2159.88 879.264 Q2154.07 879.264 2150.99 874.681 Q2147.94 870.074 2147.94 861.347 Q2147.94 852.597 2150.99 848.014 Q2154.07 843.408 2159.88 843.408 Z" fill="#000000" fill-rule="nonzero" fill-opacity="1" /><path clip-path="url(#clip150)" d="M2180.04 872.713 L2184.93 872.713 L2184.93 878.593 L2180.04 878.593 L2180.04 872.713 Z" fill="#000000" fill-rule="nonzero" fill-opacity="1" /><path clip-path="url(#clip150)" d="M2199.14 874.658 L2215.46 874.658 L2215.46 878.593 L2193.51 878.593 L2193.51 874.658 Q2196.18 871.903 2200.76 867.273 Q2205.37 862.621 2206.55 861.278 Q2208.79 858.755 2209.67 857.019 Q2210.57 855.26 2210.57 853.57 Q2210.57 850.815 2208.63 849.079 Q2206.71 847.343 2203.61 847.343 Q2201.41 847.343 2198.95 848.107 Q2196.52 848.871 2193.75 850.422 L2193.75 845.699 Q2196.57 844.565 2199.02 843.986 Q2201.48 843.408 2203.51 843.408 Q2208.88 843.408 2212.08 846.093 Q2215.27 848.778 2215.27 853.269 Q2215.27 855.398 2214.46 857.32 Q2213.68 859.218 2211.57 861.81 Q2210.99 862.482 2207.89 865.699 Q2204.79 868.894 2199.14 874.658 Z" fill="#000000" fill-rule="nonzero" fill-opacity="1" /><path clip-path="url(#clip150)" d="M2225.32 844.033 L2243.68 844.033 L2243.68 847.968 L2229.6 847.968 L2229.6 856.44 Q2230.62 856.093 2231.64 855.931 Q2232.66 855.746 2233.68 855.746 Q2239.46 855.746 2242.84 858.917 Q2246.22 862.088 2246.22 867.505 Q2246.22 873.083 2242.75 876.185 Q2239.28 879.264 2232.96 879.264 Q2230.78 879.264 2228.51 878.894 Q2226.27 878.523 2223.86 877.783 L2223.86 873.083 Q2225.94 874.218 2228.17 874.773 Q2230.39 875.329 2232.87 875.329 Q2236.87 875.329 2239.21 873.222 Q2241.55 871.116 2241.55 867.505 Q2241.55 863.894 2239.21 861.787 Q2236.87 859.681 2232.87 859.681 Q2230.99 859.681 2229.12 860.097 Q2227.26 860.514 2225.32 861.394 L2225.32 844.033 Z" fill="#000000" fill-rule="nonzero" fill-opacity="1" /><path clip-path="url(#clip150)" d="M2425.92 847.111 Q2422.31 847.111 2420.48 850.676 Q2418.68 854.218 2418.68 861.347 Q2418.68 868.454 2420.48 872.019 Q2422.31 875.56 2425.92 875.56 Q2429.56 875.56 2431.36 872.019 Q2433.19 868.454 2433.19 861.347 Q2433.19 854.218 2431.36 850.676 Q2429.56 847.111 2425.92 847.111 M2425.92 843.408 Q2431.73 843.408 2434.79 848.014 Q2437.87 852.597 2437.87 861.347 Q2437.87 870.074 2434.79 874.681 Q2431.73 879.264 2425.92 879.264 Q2420.11 879.264 2417.03 874.681 Q2413.98 870.074 2413.98 861.347 Q2413.98 852.597 2417.03 848.014 Q2420.11 843.408 2425.92 843.408 Z" fill="#000000" fill-rule="nonzero" fill-opacity="1" /><path clip-path="url(#clip150)" d="M2446.08 872.713 L2450.97 872.713 L2450.97 878.593 L2446.08 878.593 L2446.08 872.713 Z" fill="#000000" fill-rule="nonzero" fill-opacity="1" /><path clip-path="url(#clip150)" d="M2461.2 844.033 L2479.55 844.033 L2479.55 847.968 L2465.48 847.968 L2465.48 856.44 Q2466.5 856.093 2467.52 855.931 Q2468.54 855.746 2469.55 855.746 Q2475.34 855.746 2478.72 858.917 Q2482.1 862.088 2482.1 867.505 Q2482.1 873.083 2478.63 876.185 Q2475.16 879.264 2468.84 879.264 Q2466.66 879.264 2464.39 878.894 Q2462.15 878.523 2459.74 877.783 L2459.74 873.083 Q2461.82 874.218 2464.05 874.773 Q2466.27 875.329 2468.74 875.329 Q2472.75 875.329 2475.09 873.222 Q2477.43 871.116 2477.43 867.505 Q2477.43 863.894 2475.09 861.787 Q2472.75 859.681 2468.74 859.681 Q2466.87 859.681 2464.99 860.097 Q2463.14 860.514 2461.2 861.394 L2461.2 844.033 Z" fill="#000000" fill-rule="nonzero" fill-opacity="1" /><path clip-path="url(#clip150)" d="M2501.31 847.111 Q2497.7 847.111 2495.87 850.676 Q2494.07 854.218 2494.07 861.347 Q2494.07 868.454 2495.87 872.019 Q2497.7 875.56 2501.31 875.56 Q2504.95 875.56 2506.75 872.019 Q2508.58 868.454 2508.58 861.347 Q2508.58 854.218 2506.75 850.676 Q2504.95 847.111 2501.31 847.111 M2501.31 843.408 Q2507.12 843.408 2510.18 848.014 Q2513.26 852.597 2513.26 861.347 Q2513.26 870.074 2510.18 874.681 Q2507.12 879.264 2501.31 879.264 Q2495.5 879.264 2492.43 874.681 Q2489.37 870.074 2489.37 861.347 Q2489.37 852.597 2492.43 848.014 Q2495.5 843.408 2501.31 843.408 Z" fill="#000000" fill-rule="nonzero" fill-opacity="1" /><path clip-path="url(#clip150)" d="M2692.96 847.111 Q2689.35 847.111 2687.52 850.676 Q2685.71 854.218 2685.71 861.347 Q2685.71 868.454 2687.52 872.019 Q2689.35 875.56 2692.96 875.56 Q2696.59 875.56 2698.4 872.019 Q2700.23 868.454 2700.23 861.347 Q2700.23 854.218 2698.4 850.676 Q2696.59 847.111 2692.96 847.111 M2692.96 843.408 Q2698.77 843.408 2701.82 848.014 Q2704.9 852.597 2704.9 861.347 Q2704.9 870.074 2701.82 874.681 Q2698.77 879.264 2692.96 879.264 Q2687.15 879.264 2684.07 874.681 Q2681.01 870.074 2681.01 861.347 Q2681.01 852.597 2684.07 848.014 Q2687.15 843.408 2692.96 843.408 Z" fill="#000000" fill-rule="nonzero" fill-opacity="1" /><path clip-path="url(#clip150)" d="M2713.12 872.713 L2718 872.713 L2718 878.593 L2713.12 878.593 L2713.12 872.713 Z" fill="#000000" fill-rule="nonzero" fill-opacity="1" /><path clip-path="url(#clip150)" d="M2727.01 844.033 L2749.23 844.033 L2749.23 846.023 L2736.68 878.593 L2731.8 878.593 L2743.6 847.968 L2727.01 847.968 L2727.01 844.033 Z" fill="#000000" fill-rule="nonzero" fill-opacity="1" /><path clip-path="url(#clip150)" d="M2758.4 844.033 L2776.75 844.033 L2776.75 847.968 L2762.68 847.968 L2762.68 856.44 Q2763.7 856.093 2764.72 855.931 Q2765.73 855.746 2766.75 855.746 Q2772.54 855.746 2775.92 858.917 Q2779.3 862.088 2779.3 867.505 Q2779.3 873.083 2775.83 876.185 Q2772.35 879.264 2766.04 879.264 Q2763.86 879.264 2761.59 878.894 Q2759.35 878.523 2756.94 877.783 L2756.94 873.083 Q2759.02 874.218 2761.24 874.773 Q2763.47 875.329 2765.94 875.329 Q2769.95 875.329 2772.29 873.222 Q2774.62 871.116 2774.62 867.505 Q2774.62 863.894 2772.29 861.787 Q2769.95 859.681 2765.94 859.681 Q2764.07 859.681 2762.19 860.097 Q2760.34 860.514 2758.4 861.394 L2758.4 844.033 Z" fill="#000000" fill-rule="nonzero" fill-opacity="1" /><path clip-path="url(#clip150)" d="M2948.77 874.658 L2956.4 874.658 L2956.4 848.292 L2948.09 849.959 L2948.09 845.699 L2956.36 844.033 L2961.03 844.033 L2961.03 874.658 L2968.67 874.658 L2968.67 878.593 L2948.77 878.593 L2948.77 874.658 Z" fill="#000000" fill-rule="nonzero" fill-opacity="1" /><path clip-path="url(#clip150)" d="M2978.12 872.713 L2983 872.713 L2983 878.593 L2978.12 878.593 L2978.12 872.713 Z" fill="#000000" fill-rule="nonzero" fill-opacity="1" /><path clip-path="url(#clip150)" d="M3003.19 847.111 Q2999.58 847.111 2997.75 850.676 Q2995.94 854.218 2995.94 861.347 Q2995.94 868.454 2997.75 872.019 Q2999.58 875.56 3003.19 875.56 Q3006.82 875.56 3008.63 872.019 Q3010.46 868.454 3010.46 861.347 Q3010.46 854.218 3008.63 850.676 Q3006.82 847.111 3003.19 847.111 M3003.19 843.408 Q3009 843.408 3012.05 848.014 Q3015.13 852.597 3015.13 861.347 Q3015.13 870.074 3012.05 874.681 Q3009 879.264 3003.19 879.264 Q2997.38 879.264 2994.3 874.681 Q2991.24 870.074 2991.24 861.347 Q2991.24 852.597 2994.3 848.014 Q2997.38 843.408 3003.19 843.408 Z" fill="#000000" fill-rule="nonzero" fill-opacity="1" /><path clip-path="url(#clip150)" d="M3033.35 847.111 Q3029.74 847.111 3027.91 850.676 Q3026.1 854.218 3026.1 861.347 Q3026.1 868.454 3027.91 872.019 Q3029.74 875.56 3033.35 875.56 Q3036.98 875.56 3038.79 872.019 Q3040.62 868.454 3040.62 861.347 Q3040.62 854.218 3038.79 850.676 Q3036.98 847.111 3033.35 847.111 M3033.35 843.408 Q3039.16 843.408 3042.21 848.014 Q3045.29 852.597 3045.29 861.347 Q3045.29 870.074 3042.21 874.681 Q3039.16 879.264 3033.35 879.264 Q3027.54 879.264 3024.46 874.681 Q3021.4 870.074 3021.4 861.347 Q3021.4 852.597 3024.46 848.014 Q3027.54 843.408 3033.35 843.408 Z" fill="#000000" fill-rule="nonzero" fill-opacity="1" /><path clip-path="url(#clip150)" d="M2510.61 960.438 Q2510.61 961.05 2509.9 961.115 L2508.45 961.115 Q2506.97 961.115 2506.32 960.889 Q2505.68 960.664 2504.94 959.633 Q2504.49 958.989 2503.36 955.994 Q2502.27 952.967 2500.66 948.393 Q2499.08 943.82 2498.01 941.115 L2482.14 959.859 Q2481.04 961.243 2479.95 961.243 Q2479.14 961.243 2478.56 960.696 Q2477.98 960.148 2477.98 959.311 Q2477.98 958.699 2478.21 958.345 Q2478.47 957.991 2479.14 957.282 L2497.37 939.215 L2490.96 921.276 Q2489.74 917.959 2489.03 917.121 Q2488.35 916.284 2486.68 915.994 Q2486.07 915.833 2486.07 915.318 Q2486.07 914.609 2487.26 914.609 Q2493.63 914.609 2495.31 919.279 L2508.77 956.799 Q2509.51 958.957 2510.29 959.859 Q2510.61 960.277 2510.61 960.438 Z" fill="#000000" fill-rule="nonzero" fill-opacity="1" /><polyline clip-path="url(#clip150)" style="stroke:#000000; stroke-linecap:round; stroke-linejoin:round; stroke-width:4; stroke-opacity:1; fill:none" points="1904.25,809.793 1904.25,110.236 "/>
<polyline clip-path="url(#clip150)" style="stroke:#000000; stroke-linecap:round; stroke-linejoin:round; stroke-width:4; stroke-opacity:1; fill:none" points="1904.25,714.718 1923.15,714.718 "/>
<polyline clip-path="url(#clip150)" style="stroke:#000000; stroke-linecap:round; stroke-linejoin:round; stroke-width:4; stroke-opacity:1; fill:none" points="1904.25,587.366 1923.15,587.366 "/>
<polyline clip-path="url(#clip150)" style="stroke:#000000; stroke-linecap:round; stroke-linejoin:round; stroke-width:4; stroke-opacity:1; fill:none" points="1904.25,460.014 1923.15,460.014 "/>
<polyline clip-path="url(#clip150)" style="stroke:#000000; stroke-linecap:round; stroke-linejoin:round; stroke-width:4; stroke-opacity:1; fill:none" points="1904.25,332.663 1923.15,332.663 "/>
<polyline clip-path="url(#clip150)" style="stroke:#000000; stroke-linecap:round; stroke-linejoin:round; stroke-width:4; stroke-opacity:1; fill:none" points="1904.25,205.311 1923.15,205.311 "/>
<path clip-path="url(#clip150)" d="M1769.91 700.517 Q1766.29 700.517 1764.47 704.081 Q1762.66 707.623 1762.66 714.753 Q1762.66 721.859 1764.47 725.424 Q1766.29 728.965 1769.91 728.965 Q1773.54 728.965 1775.35 725.424 Q1777.17 721.859 1777.17 714.753 Q1777.17 707.623 1775.35 704.081 Q1773.54 700.517 1769.91 700.517 M1769.91 696.813 Q1775.72 696.813 1778.77 701.419 Q1781.85 706.003 1781.85 714.753 Q1781.85 723.479 1778.77 728.086 Q1775.72 732.669 1769.91 732.669 Q1764.1 732.669 1761.02 728.086 Q1757.96 723.479 1757.96 714.753 Q1757.96 706.003 1761.02 701.419 Q1764.1 696.813 1769.91 696.813 Z" fill="#000000" fill-rule="nonzero" fill-opacity="1" /><path clip-path="url(#clip150)" d="M1790.07 726.118 L1794.95 726.118 L1794.95 731.998 L1790.07 731.998 L1790.07 726.118 Z" fill="#000000" fill-rule="nonzero" fill-opacity="1" /><path clip-path="url(#clip150)" d="M1817.98 701.512 L1806.18 719.961 L1817.98 719.961 L1817.98 701.512 M1816.76 697.438 L1822.64 697.438 L1822.64 719.961 L1827.57 719.961 L1827.57 723.85 L1822.64 723.85 L1822.64 731.998 L1817.98 731.998 L1817.98 723.85 L1802.38 723.85 L1802.38 719.336 L1816.76 697.438 Z" fill="#000000" fill-rule="nonzero" fill-opacity="1" /><path clip-path="url(#clip150)" d="M1835.34 697.438 L1853.7 697.438 L1853.7 701.373 L1839.63 701.373 L1839.63 709.845 Q1840.65 709.498 1841.66 709.336 Q1842.68 709.151 1843.7 709.151 Q1849.49 709.151 1852.87 712.322 Q1856.25 715.493 1856.25 720.91 Q1856.25 726.489 1852.78 729.59 Q1849.3 732.669 1842.98 732.669 Q1840.81 732.669 1838.54 732.299 Q1836.29 731.928 1833.89 731.188 L1833.89 726.489 Q1835.97 727.623 1838.19 728.178 Q1840.41 728.734 1842.89 728.734 Q1846.9 728.734 1849.23 726.628 Q1851.57 724.521 1851.57 720.91 Q1851.57 717.299 1849.23 715.192 Q1846.9 713.086 1842.89 713.086 Q1841.02 713.086 1839.14 713.503 Q1837.29 713.919 1835.34 714.799 L1835.34 697.438 Z" fill="#000000" fill-rule="nonzero" fill-opacity="1" /><path clip-path="url(#clip150)" d="M1769 573.165 Q1765.39 573.165 1763.56 576.73 Q1761.76 580.271 1761.76 587.401 Q1761.76 594.507 1763.56 598.072 Q1765.39 601.614 1769 601.614 Q1772.64 601.614 1774.44 598.072 Q1776.27 594.507 1776.27 587.401 Q1776.27 580.271 1774.44 576.73 Q1772.64 573.165 1769 573.165 M1769 569.461 Q1774.81 569.461 1777.87 574.068 Q1780.95 578.651 1780.95 587.401 Q1780.95 596.128 1777.87 600.734 Q1774.81 605.317 1769 605.317 Q1763.19 605.317 1760.11 600.734 Q1757.06 596.128 1757.06 587.401 Q1757.06 578.651 1760.11 574.068 Q1763.19 569.461 1769 569.461 Z" fill="#000000" fill-rule="nonzero" fill-opacity="1" /><path clip-path="url(#clip150)" d="M1789.16 598.766 L1794.05 598.766 L1794.05 604.646 L1789.16 604.646 L1789.16 598.766 Z" fill="#000000" fill-rule="nonzero" fill-opacity="1" /><path clip-path="url(#clip150)" d="M1817.08 574.16 L1805.28 592.609 L1817.08 592.609 L1817.08 574.16 M1815.85 570.086 L1821.73 570.086 L1821.73 592.609 L1826.66 592.609 L1826.66 596.498 L1821.73 596.498 L1821.73 604.646 L1817.08 604.646 L1817.08 596.498 L1801.48 596.498 L1801.48 591.984 L1815.85 570.086 Z" fill="#000000" fill-rule="nonzero" fill-opacity="1" /><path clip-path="url(#clip150)" d="M1844.4 588.234 Q1841.06 588.234 1839.14 590.017 Q1837.24 591.799 1837.24 594.924 Q1837.24 598.049 1839.14 599.831 Q1841.06 601.614 1844.4 601.614 Q1847.73 601.614 1849.65 599.831 Q1851.57 598.026 1851.57 594.924 Q1851.57 591.799 1849.65 590.017 Q1847.75 588.234 1844.4 588.234 M1839.72 586.243 Q1836.71 585.503 1835.02 583.442 Q1833.35 581.382 1833.35 578.419 Q1833.35 574.276 1836.29 571.868 Q1839.26 569.461 1844.4 569.461 Q1849.56 569.461 1852.5 571.868 Q1855.44 574.276 1855.44 578.419 Q1855.44 581.382 1853.75 583.442 Q1852.08 585.503 1849.09 586.243 Q1852.47 587.03 1854.35 589.322 Q1856.25 591.614 1856.25 594.924 Q1856.25 599.947 1853.17 602.632 Q1850.11 605.317 1844.4 605.317 Q1838.68 605.317 1835.6 602.632 Q1832.54 599.947 1832.54 594.924 Q1832.54 591.614 1834.44 589.322 Q1836.34 587.03 1839.72 586.243 M1838.01 578.859 Q1838.01 581.544 1839.67 583.049 Q1841.36 584.554 1844.4 584.554 Q1847.4 584.554 1849.09 583.049 Q1850.81 581.544 1850.81 578.859 Q1850.81 576.174 1849.09 574.669 Q1847.4 573.165 1844.4 573.165 Q1841.36 573.165 1839.67 574.669 Q1838.01 576.174 1838.01 578.859 Z" fill="#000000" fill-rule="nonzero" fill-opacity="1" /><path clip-path="url(#clip150)" d="M1768.91 445.813 Q1765.3 445.813 1763.47 449.378 Q1761.66 452.919 1761.66 460.049 Q1761.66 467.155 1763.47 470.72 Q1765.3 474.262 1768.91 474.262 Q1772.54 474.262 1774.35 470.72 Q1776.18 467.155 1776.18 460.049 Q1776.18 452.919 1774.35 449.378 Q1772.54 445.813 1768.91 445.813 M1768.91 442.109 Q1774.72 442.109 1777.78 446.716 Q1780.85 451.299 1780.85 460.049 Q1780.85 468.776 1777.78 473.382 Q1774.72 477.966 1768.91 477.966 Q1763.1 477.966 1760.02 473.382 Q1756.97 468.776 1756.97 460.049 Q1756.97 451.299 1760.02 446.716 Q1763.1 442.109 1768.91 442.109 Z" fill="#000000" fill-rule="nonzero" fill-opacity="1" /><path clip-path="url(#clip150)" d="M1789.07 471.415 L1793.96 471.415 L1793.96 477.294 L1789.07 477.294 L1789.07 471.415 Z" fill="#000000" fill-rule="nonzero" fill-opacity="1" /><path clip-path="url(#clip150)" d="M1804.19 442.734 L1822.54 442.734 L1822.54 446.669 L1808.47 446.669 L1808.47 455.142 Q1809.49 454.794 1810.51 454.632 Q1811.53 454.447 1812.54 454.447 Q1818.33 454.447 1821.71 457.618 Q1825.09 460.79 1825.09 466.206 Q1825.09 471.785 1821.62 474.887 Q1818.15 477.966 1811.83 477.966 Q1809.65 477.966 1807.38 477.595 Q1805.14 477.225 1802.73 476.484 L1802.73 471.785 Q1804.81 472.919 1807.03 473.475 Q1809.26 474.03 1811.73 474.03 Q1815.74 474.03 1818.08 471.924 Q1820.41 469.817 1820.41 466.206 Q1820.41 462.595 1818.08 460.489 Q1815.74 458.382 1811.73 458.382 Q1809.86 458.382 1807.98 458.799 Q1806.13 459.216 1804.19 460.095 L1804.19 442.734 Z" fill="#000000" fill-rule="nonzero" fill-opacity="1" /><path clip-path="url(#clip150)" d="M1844.3 445.813 Q1840.69 445.813 1838.86 449.378 Q1837.06 452.919 1837.06 460.049 Q1837.06 467.155 1838.86 470.72 Q1840.69 474.262 1844.3 474.262 Q1847.94 474.262 1849.74 470.72 Q1851.57 467.155 1851.57 460.049 Q1851.57 452.919 1849.74 449.378 Q1847.94 445.813 1844.3 445.813 M1844.3 442.109 Q1850.11 442.109 1853.17 446.716 Q1856.25 451.299 1856.25 460.049 Q1856.25 468.776 1853.17 473.382 Q1850.11 477.966 1844.3 477.966 Q1838.49 477.966 1835.41 473.382 Q1832.36 468.776 1832.36 460.049 Q1832.36 451.299 1835.41 446.716 Q1838.49 442.109 1844.3 442.109 Z" fill="#000000" fill-rule="nonzero" fill-opacity="1" /><path clip-path="url(#clip150)" d="M1769.56 318.461 Q1765.95 318.461 1764.12 322.026 Q1762.31 325.568 1762.31 332.697 Q1762.31 339.804 1764.12 343.368 Q1765.95 346.91 1769.56 346.91 Q1773.19 346.91 1775 343.368 Q1776.83 339.804 1776.83 332.697 Q1776.83 325.568 1775 322.026 Q1773.19 318.461 1769.56 318.461 M1769.56 314.758 Q1775.37 314.758 1778.42 319.364 Q1781.5 323.947 1781.5 332.697 Q1781.5 341.424 1778.42 346.03 Q1775.37 350.614 1769.56 350.614 Q1763.75 350.614 1760.67 346.03 Q1757.61 341.424 1757.61 332.697 Q1757.61 323.947 1760.67 319.364 Q1763.75 314.758 1769.56 314.758 Z" fill="#000000" fill-rule="nonzero" fill-opacity="1" /><path clip-path="url(#clip150)" d="M1789.72 344.063 L1794.6 344.063 L1794.6 349.943 L1789.72 349.943 L1789.72 344.063 Z" fill="#000000" fill-rule="nonzero" fill-opacity="1" /><path clip-path="url(#clip150)" d="M1804.84 315.383 L1823.19 315.383 L1823.19 319.318 L1809.12 319.318 L1809.12 327.79 Q1810.14 327.443 1811.16 327.281 Q1812.17 327.095 1813.19 327.095 Q1818.98 327.095 1822.36 330.267 Q1825.74 333.438 1825.74 338.855 Q1825.74 344.433 1822.27 347.535 Q1818.79 350.614 1812.47 350.614 Q1810.3 350.614 1808.03 350.243 Q1805.78 349.873 1803.38 349.132 L1803.38 344.433 Q1805.46 345.568 1807.68 346.123 Q1809.91 346.679 1812.38 346.679 Q1816.39 346.679 1818.72 344.572 Q1821.06 342.466 1821.06 338.855 Q1821.06 335.244 1818.72 333.137 Q1816.39 331.031 1812.38 331.031 Q1810.51 331.031 1808.63 331.447 Q1806.78 331.864 1804.84 332.744 L1804.84 315.383 Z" fill="#000000" fill-rule="nonzero" fill-opacity="1" /><path clip-path="url(#clip150)" d="M1849.12 331.308 Q1852.47 332.026 1854.35 334.294 Q1856.25 336.563 1856.25 339.896 Q1856.25 345.012 1852.73 347.813 Q1849.21 350.614 1842.73 350.614 Q1840.55 350.614 1838.24 350.174 Q1835.95 349.757 1833.49 348.901 L1833.49 344.387 Q1835.44 345.521 1837.75 346.1 Q1840.07 346.679 1842.59 346.679 Q1846.99 346.679 1849.28 344.943 Q1851.59 343.206 1851.59 339.896 Q1851.59 336.841 1849.44 335.128 Q1847.31 333.392 1843.49 333.392 L1839.47 333.392 L1839.47 329.549 L1843.68 329.549 Q1847.13 329.549 1848.96 328.183 Q1850.78 326.794 1850.78 324.202 Q1850.78 321.54 1848.89 320.128 Q1847.01 318.693 1843.49 318.693 Q1841.57 318.693 1839.37 319.109 Q1837.17 319.526 1834.53 320.406 L1834.53 316.239 Q1837.2 315.498 1839.51 315.128 Q1841.85 314.758 1843.91 314.758 Q1849.23 314.758 1852.34 317.188 Q1855.44 319.595 1855.44 323.716 Q1855.44 326.586 1853.79 328.577 Q1852.15 330.544 1849.12 331.308 Z" fill="#000000" fill-rule="nonzero" fill-opacity="1" /><path clip-path="url(#clip150)" d="M1769.91 191.109 Q1766.29 191.109 1764.47 194.674 Q1762.66 198.216 1762.66 205.345 Q1762.66 212.452 1764.47 216.017 Q1766.29 219.558 1769.91 219.558 Q1773.54 219.558 1775.35 216.017 Q1777.17 212.452 1777.17 205.345 Q1777.17 198.216 1775.35 194.674 Q1773.54 191.109 1769.91 191.109 M1769.91 187.406 Q1775.72 187.406 1778.77 192.012 Q1781.85 196.595 1781.85 205.345 Q1781.85 214.072 1778.77 218.679 Q1775.72 223.262 1769.91 223.262 Q1764.1 223.262 1761.02 218.679 Q1757.96 214.072 1757.96 205.345 Q1757.96 196.595 1761.02 192.012 Q1764.1 187.406 1769.91 187.406 Z" fill="#000000" fill-rule="nonzero" fill-opacity="1" /><path clip-path="url(#clip150)" d="M1790.07 216.711 L1794.95 216.711 L1794.95 222.591 L1790.07 222.591 L1790.07 216.711 Z" fill="#000000" fill-rule="nonzero" fill-opacity="1" /><path clip-path="url(#clip150)" d="M1805.18 188.031 L1823.54 188.031 L1823.54 191.966 L1809.47 191.966 L1809.47 200.438 Q1810.48 200.091 1811.5 199.929 Q1812.52 199.744 1813.54 199.744 Q1819.33 199.744 1822.71 202.915 Q1826.09 206.086 1826.09 211.503 Q1826.09 217.081 1822.61 220.183 Q1819.14 223.262 1812.82 223.262 Q1810.65 223.262 1808.38 222.892 Q1806.13 222.521 1803.72 221.781 L1803.72 217.081 Q1805.81 218.216 1808.03 218.771 Q1810.25 219.327 1812.73 219.327 Q1816.73 219.327 1819.07 217.22 Q1821.41 215.114 1821.41 211.503 Q1821.41 207.892 1819.07 205.785 Q1816.73 203.679 1812.73 203.679 Q1810.85 203.679 1808.98 204.095 Q1807.13 204.512 1805.18 205.392 L1805.18 188.031 Z" fill="#000000" fill-rule="nonzero" fill-opacity="1" /><path clip-path="url(#clip150)" d="M1835.34 188.031 L1853.7 188.031 L1853.7 191.966 L1839.63 191.966 L1839.63 200.438 Q1840.65 200.091 1841.66 199.929 Q1842.68 199.744 1843.7 199.744 Q1849.49 199.744 1852.87 202.915 Q1856.25 206.086 1856.25 211.503 Q1856.25 217.081 1852.78 220.183 Q1849.3 223.262 1842.98 223.262 Q1840.81 223.262 1838.54 222.892 Q1836.29 222.521 1833.89 221.781 L1833.89 217.081 Q1835.97 218.216 1838.19 218.771 Q1840.41 219.327 1842.89 219.327 Q1846.9 219.327 1849.23 217.22 Q1851.57 215.114 1851.57 211.503 Q1851.57 207.892 1849.23 205.785 Q1846.9 203.679 1842.89 203.679 Q1841.02 203.679 1839.14 204.095 Q1837.29 204.512 1835.34 205.392 L1835.34 188.031 Z" fill="#000000" fill-rule="nonzero" fill-opacity="1" /><path clip-path="url(#clip150)" d="M1651.86 492.046 Q1651.86 493.85 1650.74 494.881 Q1649.61 495.879 1648.32 495.879 Q1647.1 495.879 1646.45 495.17 Q1645.81 494.462 1645.81 493.56 Q1645.81 492.336 1646.71 491.274 Q1647.61 490.211 1648.96 489.985 Q1647.64 489.148 1645.68 489.148 Q1644.39 489.148 1643.26 489.824 Q1642.17 490.501 1641.49 491.37 Q1640.85 492.24 1640.27 493.496 Q1639.72 494.72 1639.5 495.46 Q1639.3 496.169 1639.14 496.942 L1636.89 505.959 Q1635.79 510.243 1635.79 511.756 Q1635.79 513.624 1636.69 514.88 Q1637.6 516.104 1639.4 516.104 Q1640.11 516.104 1640.91 515.911 Q1641.72 515.686 1642.75 515.106 Q1643.81 514.494 1644.75 513.592 Q1645.71 512.658 1646.65 511.08 Q1647.58 509.502 1648.19 507.473 Q1648.39 506.765 1649.03 506.765 Q1649.83 506.765 1649.83 507.409 Q1649.83 507.956 1649.38 509.116 Q1648.96 510.243 1648.03 511.724 Q1647.13 513.174 1645.94 514.494 Q1644.75 515.782 1642.97 516.684 Q1641.2 517.586 1639.27 517.586 Q1636.5 517.586 1634.67 516.104 Q1632.83 514.623 1632.15 512.562 Q1631.99 512.851 1631.77 513.238 Q1631.54 513.624 1630.87 514.494 Q1630.22 515.331 1629.48 515.975 Q1628.74 516.587 1627.58 517.07 Q1626.45 517.586 1625.23 517.586 Q1623.68 517.586 1622.3 517.135 Q1620.95 516.684 1619.98 515.653 Q1619.01 514.623 1619.01 513.206 Q1619.01 511.628 1620.08 510.533 Q1621.17 509.405 1622.65 509.405 Q1623.59 509.405 1624.33 509.953 Q1625.1 510.5 1625.1 511.692 Q1625.1 513.012 1624.2 514.011 Q1623.3 515.009 1622.01 515.267 Q1623.33 516.104 1625.29 516.104 Q1627.42 516.104 1629.09 514.236 Q1630.77 512.368 1631.57 509.244 Q1633.57 501.74 1634.34 498.391 Q1635.12 495.009 1635.12 493.56 Q1635.12 492.207 1634.76 491.274 Q1634.41 490.34 1633.8 489.921 Q1633.22 489.47 1632.67 489.309 Q1632.15 489.148 1631.57 489.148 Q1630.61 489.148 1629.51 489.534 Q1628.45 489.921 1627.16 490.823 Q1625.91 491.692 1624.71 493.496 Q1623.52 495.299 1622.72 497.779 Q1622.56 498.52 1621.85 498.52 Q1621.07 498.488 1621.07 497.844 Q1621.07 497.296 1621.49 496.169 Q1621.94 495.009 1622.85 493.56 Q1623.78 492.111 1624.97 490.823 Q1626.2 489.502 1627.97 488.6 Q1629.77 487.699 1631.7 487.699 Q1632.57 487.699 1633.41 487.892 Q1634.28 488.053 1635.31 488.536 Q1636.37 489.019 1637.31 490.082 Q1638.24 491.145 1638.82 492.691 Q1639.21 491.95 1639.72 491.241 Q1640.27 490.533 1641.11 489.663 Q1641.98 488.761 1643.17 488.246 Q1644.39 487.699 1645.74 487.699 Q1647.06 487.699 1648.35 488.053 Q1649.64 488.375 1650.74 489.438 Q1651.86 490.468 1651.86 492.046 Z" fill="#000000" fill-rule="nonzero" fill-opacity="1" /><polyline clip-path="url(#clip153)" style="stroke:#009af9; stroke-linecap:round; stroke-linejoin:round; stroke-width:4; stroke-opacity:1; fill:none" points="3056.21,789.994 1937.8,671.633 "/>
<circle clip-path="url(#clip153)" cx="3056.21" cy="789.994" r="7.2" fill="#009af9" fill-rule="evenodd" fill-opacity="1" stroke="none"/>
<circle clip-path="url(#clip153)" cx="1937.8" cy="671.633" r="7.2" fill="#009af9" fill-rule="evenodd" fill-opacity="1" stroke="none"/>
<polyline clip-path="url(#clip153)" style="stroke:#e26f46; stroke-linecap:round; stroke-linejoin:round; stroke-width:4; stroke-opacity:1; fill:none" points="3056.21,130.035 1937.8,248.396 "/>
<circle clip-path="url(#clip153)" cx="3056.21" cy="130.035" r="7.2" fill="#e26f46" fill-rule="evenodd" fill-opacity="1" stroke="none"/>
<circle clip-path="url(#clip153)" cx="1937.8" cy="248.396" r="7.2" fill="#e26f46" fill-rule="evenodd" fill-opacity="1" stroke="none"/>
</svg>
