<?xml version="1.0" encoding="utf-8"?>
<svg xmlns="http://www.w3.org/2000/svg" xmlns:xlink="http://www.w3.org/1999/xlink" width="800" height="250" viewBox="0 0 3200 1000">
<defs>
  <clipPath id="clip210">
    <rect x="0" y="0" width="3200" height="1000"/>
  </clipPath>
</defs>
<path clip-path="url(#clip210)" d="M0 1000 L3200 1000 L3200 0 L0 0  Z" fill="#ffffff" fill-rule="evenodd" fill-opacity="1"/>
<defs>
  <clipPath id="clip211">
    <rect x="640" y="0" width="2241" height="1000"/>
  </clipPath>
</defs>
<path clip-path="url(#clip210)" d="M295.289 809.793 L1489.76 809.793 L1489.76 110.236 L295.289 110.236  Z" fill="#ffffff" fill-rule="evenodd" fill-opacity="1"/>
<defs>
  <clipPath id="clip212">
    <rect x="295" y="110" width="1195" height="701"/>
  </clipPath>
</defs>
<polyline clip-path="url(#clip212)" style="stroke:#000000; stroke-linecap:round; stroke-linejoin:round; stroke-width:2; stroke-opacity:0.1; fill:none" points="483.743,809.793 483.743,110.236 "/>
<polyline clip-path="url(#clip212)" style="stroke:#000000; stroke-linecap:round; stroke-linejoin:round; stroke-width:2; stroke-opacity:0.1; fill:none" points="709.116,809.793 709.116,110.236 "/>
<polyline clip-path="url(#clip212)" style="stroke:#000000; stroke-linecap:round; stroke-linejoin:round; stroke-width:2; stroke-opacity:0.1; fill:none" points="934.489,809.793 934.489,110.236 "/>
<polyline clip-path="url(#clip212)" style="stroke:#000000; stroke-linecap:round; stroke-linejoin:round; stroke-width:2; stroke-opacity:0.1; fill:none" points="1159.86,809.793 1159.86,110.236 "/>
<polyline clip-path="url(#clip212)" style="stroke:#000000; stroke-linecap:round; stroke-linejoin:round; stroke-width:2; stroke-opacity:0.1; fill:none" points="1385.23,809.793 1385.23,110.236 "/>
<polyline clip-path="url(#clip212)" style="stroke:#000000; stroke-linecap:round; stroke-linejoin:round; stroke-width:2; stroke-opacity:0.1; fill:none" points="295.289,687.867 1489.76,687.867 "/>
<polyline clip-path="url(#clip212)" style="stroke:#000000; stroke-linecap:round; stroke-linejoin:round; stroke-width:2; stroke-opacity:0.1; fill:none" points="295.289,549.878 1489.76,549.878 "/>
<polyline clip-path="url(#clip212)" style="stroke:#000000; stroke-linecap:round; stroke-linejoin:round; stroke-width:2; stroke-opacity:0.1; fill:none" points="295.289,411.89 1489.76,411.89 "/>
<polyline clip-path="url(#clip212)" style="stroke:#000000; stroke-linecap:round; stroke-linejoin:round; stroke-width:2; stroke-opacity:0.1; fill:none" points="295.289,273.901 1489.76,273.901 "/>
<polyline clip-path="url(#clip212)" style="stroke:#000000; stroke-linecap:round; stroke-linejoin:round; stroke-width:2; stroke-opacity:0.1; fill:none" points="295.289,135.912 1489.76,135.912 "/>
<polyline clip-path="url(#clip210)" style="stroke:#000000; stroke-linecap:round; stroke-linejoin:round; stroke-width:4; stroke-opacity:1; fill:none" points="295.289,809.793 1489.76,809.793 "/>
<polyline clip-path="url(#clip210)" style="stroke:#000000; stroke-linecap:round; stroke-linejoin:round; stroke-width:4; stroke-opacity:1; fill:none" points="483.743,809.793 483.743,790.895 "/>
<polyline clip-path="url(#clip210)" style="stroke:#000000; stroke-linecap:round; stroke-linejoin:round; stroke-width:4; stroke-opacity:1; fill:none" points="709.116,809.793 709.116,790.895 "/>
<polyline clip-path="url(#clip210)" style="stroke:#000000; stroke-linecap:round; stroke-linejoin:round; stroke-width:4; stroke-opacity:1; fill:none" points="934.489,809.793 934.489,790.895 "/>
<polyline clip-path="url(#clip210)" style="stroke:#000000; stroke-linecap:round; stroke-linejoin:round; stroke-width:4; stroke-opacity:1; fill:none" points="1159.86,809.793 1159.86,790.895 "/>
<polyline clip-path="url(#clip210)" style="stroke:#000000; stroke-linecap:round; stroke-linejoin:round; stroke-width:4; stroke-opacity:1; fill:none" points="1385.23,809.793 1385.23,790.895 "/>
<path clip-path="url(#clip210)" d="M446.66 847.111 Q443.049 847.111 441.221 850.676 Q439.415 854.218 439.415 861.347 Q439.415 868.454 441.221 872.019 Q443.049 875.56 446.66 875.56 Q450.295 875.56 452.1 872.019 Q453.929 868.454 453.929 861.347 Q453.929 854.218 452.1 850.676 Q450.295 847.111 446.66 847.111 M446.66 843.408 Q452.47 843.408 455.526 848.014 Q458.605 852.597 458.605 861.347 Q458.605 870.074 455.526 874.681 Q452.47 879.264 446.66 879.264 Q440.85 879.264 437.772 874.681 Q434.716 870.074 434.716 861.347 Q434.716 852.597 437.772 848.014 Q440.85 843.408 446.66 843.408 Z" fill="#000000" fill-rule="nonzero" fill-opacity="1" /><path clip-path="url(#clip210)" d="M466.822 872.713 L471.707 872.713 L471.707 878.593 L466.822 878.593 L466.822 872.713 Z" fill="#000000" fill-rule="nonzero" fill-opacity="1" /><path clip-path="url(#clip210)" d="M492.47 859.449 Q489.322 859.449 487.47 861.602 Q485.642 863.755 485.642 867.505 Q485.642 871.232 487.47 873.408 Q489.322 875.56 492.47 875.56 Q495.618 875.56 497.447 873.408 Q499.299 871.232 499.299 867.505 Q499.299 863.755 497.447 861.602 Q495.618 859.449 492.47 859.449 M501.753 844.797 L501.753 849.056 Q499.993 848.223 498.188 847.783 Q496.405 847.343 494.646 847.343 Q490.017 847.343 487.563 850.468 Q485.132 853.593 484.785 859.912 Q486.151 857.898 488.211 856.834 Q490.271 855.746 492.748 855.746 Q497.956 855.746 500.966 858.917 Q503.998 862.065 503.998 867.505 Q503.998 872.829 500.85 876.046 Q497.702 879.264 492.47 879.264 Q486.475 879.264 483.304 874.681 Q480.132 870.074 480.132 861.347 Q480.132 853.153 484.021 848.292 Q487.91 843.408 494.461 843.408 Q496.22 843.408 498.003 843.755 Q499.808 844.102 501.753 844.797 Z" fill="#000000" fill-rule="nonzero" fill-opacity="1" /><path clip-path="url(#clip210)" d="M512.864 874.658 L520.503 874.658 L520.503 848.292 L512.192 849.959 L512.192 845.699 L520.456 844.033 L525.132 844.033 L525.132 874.658 L532.771 874.658 L532.771 878.593 L512.864 878.593 L512.864 874.658 Z" fill="#000000" fill-rule="nonzero" fill-opacity="1" /><path clip-path="url(#clip210)" d="M672.218 847.111 Q668.607 847.111 666.778 850.676 Q664.973 854.218 664.973 861.347 Q664.973 868.454 666.778 872.019 Q668.607 875.56 672.218 875.56 Q675.852 875.56 677.658 872.019 Q679.487 868.454 679.487 861.347 Q679.487 854.218 677.658 850.676 Q675.852 847.111 672.218 847.111 M672.218 843.408 Q678.028 843.408 681.084 848.014 Q684.162 852.597 684.162 861.347 Q684.162 870.074 681.084 874.681 Q678.028 879.264 672.218 879.264 Q666.408 879.264 663.329 874.681 Q660.274 870.074 660.274 861.347 Q660.274 852.597 663.329 848.014 Q666.408 843.408 672.218 843.408 Z" fill="#000000" fill-rule="nonzero" fill-opacity="1" /><path clip-path="url(#clip210)" d="M692.38 872.713 L697.264 872.713 L697.264 878.593 L692.38 878.593 L692.38 872.713 Z" fill="#000000" fill-rule="nonzero" fill-opacity="1" /><path clip-path="url(#clip210)" d="M718.028 859.449 Q714.88 859.449 713.028 861.602 Q711.199 863.755 711.199 867.505 Q711.199 871.232 713.028 873.408 Q714.88 875.56 718.028 875.56 Q721.176 875.56 723.005 873.408 Q724.857 871.232 724.857 867.505 Q724.857 863.755 723.005 861.602 Q721.176 859.449 718.028 859.449 M727.31 844.797 L727.31 849.056 Q725.551 848.223 723.746 847.783 Q721.963 847.343 720.204 847.343 Q715.574 847.343 713.121 850.468 Q710.69 853.593 710.343 859.912 Q711.709 857.898 713.769 856.834 Q715.829 855.746 718.306 855.746 Q723.514 855.746 726.523 858.917 Q729.556 862.065 729.556 867.505 Q729.556 872.829 726.408 876.046 Q723.259 879.264 718.028 879.264 Q712.033 879.264 708.861 874.681 Q705.69 870.074 705.69 861.347 Q705.69 853.153 709.579 848.292 Q713.468 843.408 720.019 843.408 Q721.778 843.408 723.56 843.755 Q725.366 844.102 727.31 844.797 Z" fill="#000000" fill-rule="nonzero" fill-opacity="1" /><path clip-path="url(#clip210)" d="M741.639 874.658 L757.958 874.658 L757.958 878.593 L736.014 878.593 L736.014 874.658 Q738.676 871.903 743.259 867.273 Q747.866 862.621 749.046 861.278 Q751.292 858.755 752.171 857.019 Q753.074 855.26 753.074 853.57 Q753.074 850.815 751.13 849.079 Q749.208 847.343 746.107 847.343 Q743.908 847.343 741.454 848.107 Q739.023 848.871 736.246 850.422 L736.246 845.699 Q739.07 844.565 741.523 843.986 Q743.977 843.408 746.014 843.408 Q751.384 843.408 754.579 846.093 Q757.773 848.778 757.773 853.269 Q757.773 855.398 756.963 857.32 Q756.176 859.218 754.07 861.81 Q753.491 862.482 750.389 865.699 Q747.287 868.894 741.639 874.658 Z" fill="#000000" fill-rule="nonzero" fill-opacity="1" /><path clip-path="url(#clip210)" d="M897.116 847.111 Q893.505 847.111 891.676 850.676 Q889.871 854.218 889.871 861.347 Q889.871 868.454 891.676 872.019 Q893.505 875.56 897.116 875.56 Q900.75 875.56 902.556 872.019 Q904.385 868.454 904.385 861.347 Q904.385 854.218 902.556 850.676 Q900.75 847.111 897.116 847.111 M897.116 843.408 Q902.926 843.408 905.982 848.014 Q909.061 852.597 909.061 861.347 Q909.061 870.074 905.982 874.681 Q902.926 879.264 897.116 879.264 Q891.306 879.264 888.227 874.681 Q885.172 870.074 885.172 861.347 Q885.172 852.597 888.227 848.014 Q891.306 843.408 897.116 843.408 Z" fill="#000000" fill-rule="nonzero" fill-opacity="1" /><path clip-path="url(#clip210)" d="M917.278 872.713 L922.162 872.713 L922.162 878.593 L917.278 878.593 L917.278 872.713 Z" fill="#000000" fill-rule="nonzero" fill-opacity="1" /><path clip-path="url(#clip210)" d="M942.926 859.449 Q939.778 859.449 937.926 861.602 Q936.097 863.755 936.097 867.505 Q936.097 871.232 937.926 873.408 Q939.778 875.56 942.926 875.56 Q946.074 875.56 947.903 873.408 Q949.755 871.232 949.755 867.505 Q949.755 863.755 947.903 861.602 Q946.074 859.449 942.926 859.449 M952.208 844.797 L952.208 849.056 Q950.449 848.223 948.644 847.783 Q946.861 847.343 945.102 847.343 Q940.472 847.343 938.019 850.468 Q935.588 853.593 935.241 859.912 Q936.607 857.898 938.667 856.834 Q940.727 855.746 943.204 855.746 Q948.412 855.746 951.421 858.917 Q954.454 862.065 954.454 867.505 Q954.454 872.829 951.306 876.046 Q948.158 879.264 942.926 879.264 Q936.931 879.264 933.759 874.681 Q930.588 870.074 930.588 861.347 Q930.588 853.153 934.477 848.292 Q938.366 843.408 944.917 843.408 Q946.676 843.408 948.458 843.755 Q950.264 844.102 952.208 844.797 Z" fill="#000000" fill-rule="nonzero" fill-opacity="1" /><path clip-path="url(#clip210)" d="M976.676 859.959 Q980.032 860.676 981.907 862.945 Q983.805 865.213 983.805 868.546 Q983.805 873.662 980.287 876.463 Q976.768 879.264 970.287 879.264 Q968.111 879.264 965.796 878.824 Q963.505 878.408 961.051 877.551 L961.051 873.037 Q962.995 874.171 965.31 874.75 Q967.625 875.329 970.148 875.329 Q974.546 875.329 976.838 873.593 Q979.153 871.857 979.153 868.546 Q979.153 865.491 977 863.778 Q974.87 862.042 971.051 862.042 L967.023 862.042 L967.023 858.199 L971.236 858.199 Q974.685 858.199 976.514 856.834 Q978.343 855.445 978.343 852.852 Q978.343 850.19 976.444 848.778 Q974.569 847.343 971.051 847.343 Q969.13 847.343 966.931 847.76 Q964.732 848.176 962.093 849.056 L962.093 844.889 Q964.755 844.148 967.069 843.778 Q969.407 843.408 971.468 843.408 Q976.792 843.408 979.893 845.838 Q982.995 848.246 982.995 852.366 Q982.995 855.236 981.352 857.227 Q979.708 859.195 976.676 859.959 Z" fill="#000000" fill-rule="nonzero" fill-opacity="1" /><path clip-path="url(#clip210)" d="M1121.92 847.111 Q1118.31 847.111 1116.48 850.676 Q1114.68 854.218 1114.68 861.347 Q1114.68 868.454 1116.48 872.019 Q1118.31 875.56 1121.92 875.56 Q1125.56 875.56 1127.36 872.019 Q1129.19 868.454 1129.19 861.347 Q1129.19 854.218 1127.36 850.676 Q1125.56 847.111 1121.92 847.111 M1121.92 843.408 Q1127.73 843.408 1130.79 848.014 Q1133.87 852.597 1133.87 861.347 Q1133.87 870.074 1130.79 874.681 Q1127.73 879.264 1121.92 879.264 Q1116.11 879.264 1113.03 874.681 Q1109.98 870.074 1109.98 861.347 Q1109.98 852.597 1113.03 848.014 Q1116.11 843.408 1121.92 843.408 Z" fill="#000000" fill-rule="nonzero" fill-opacity="1" /><path clip-path="url(#clip210)" d="M1142.08 872.713 L1146.97 872.713 L1146.97 878.593 L1142.08 878.593 L1142.08 872.713 Z" fill="#000000" fill-rule="nonzero" fill-opacity="1" /><path clip-path="url(#clip210)" d="M1167.73 859.449 Q1164.58 859.449 1162.73 861.602 Q1160.9 863.755 1160.9 867.505 Q1160.9 871.232 1162.73 873.408 Q1164.58 875.56 1167.73 875.56 Q1170.88 875.56 1172.71 873.408 Q1174.56 871.232 1174.56 867.505 Q1174.56 863.755 1172.71 861.602 Q1170.88 859.449 1167.73 859.449 M1177.01 844.797 L1177.01 849.056 Q1175.25 848.223 1173.45 847.783 Q1171.67 847.343 1169.91 847.343 Q1165.28 847.343 1162.82 850.468 Q1160.39 853.593 1160.05 859.912 Q1161.41 857.898 1163.47 856.834 Q1165.53 855.746 1168.01 855.746 Q1173.22 855.746 1176.23 858.917 Q1179.26 862.065 1179.26 867.505 Q1179.26 872.829 1176.11 876.046 Q1172.96 879.264 1167.73 879.264 Q1161.74 879.264 1158.56 874.681 Q1155.39 870.074 1155.39 861.347 Q1155.39 853.153 1159.28 848.292 Q1163.17 843.408 1169.72 843.408 Q1171.48 843.408 1173.26 843.755 Q1175.07 844.102 1177.01 844.797 Z" fill="#000000" fill-rule="nonzero" fill-opacity="1" /><path clip-path="url(#clip210)" d="M1200.16 848.107 L1188.36 866.556 L1200.16 866.556 L1200.16 848.107 M1198.94 844.033 L1204.81 844.033 L1204.81 866.556 L1209.75 866.556 L1209.75 870.445 L1204.81 870.445 L1204.81 878.593 L1200.16 878.593 L1200.16 870.445 L1184.56 870.445 L1184.56 865.931 L1198.94 844.033 Z" fill="#000000" fill-rule="nonzero" fill-opacity="1" /><path clip-path="url(#clip210)" d="M1348.03 847.111 Q1344.42 847.111 1342.6 850.676 Q1340.79 854.218 1340.79 861.347 Q1340.79 868.454 1342.6 872.019 Q1344.42 875.56 1348.03 875.56 Q1351.67 875.56 1353.47 872.019 Q1355.3 868.454 1355.3 861.347 Q1355.3 854.218 1353.47 850.676 Q1351.67 847.111 1348.03 847.111 M1348.03 843.408 Q1353.85 843.408 1356.9 848.014 Q1359.98 852.597 1359.98 861.347 Q1359.98 870.074 1356.9 874.681 Q1353.85 879.264 1348.03 879.264 Q1342.22 879.264 1339.15 874.681 Q1336.09 870.074 1336.09 861.347 Q1336.09 852.597 1339.15 848.014 Q1342.22 843.408 1348.03 843.408 Z" fill="#000000" fill-rule="nonzero" fill-opacity="1" /><path clip-path="url(#clip210)" d="M1368.2 872.713 L1373.08 872.713 L1373.08 878.593 L1368.2 878.593 L1368.2 872.713 Z" fill="#000000" fill-rule="nonzero" fill-opacity="1" /><path clip-path="url(#clip210)" d="M1393.84 859.449 Q1390.7 859.449 1388.84 861.602 Q1387.02 863.755 1387.02 867.505 Q1387.02 871.232 1388.84 873.408 Q1390.7 875.56 1393.84 875.56 Q1396.99 875.56 1398.82 873.408 Q1400.67 871.232 1400.67 867.505 Q1400.67 863.755 1398.82 861.602 Q1396.99 859.449 1393.84 859.449 M1403.13 844.797 L1403.13 849.056 Q1401.37 848.223 1399.56 847.783 Q1397.78 847.343 1396.02 847.343 Q1391.39 847.343 1388.94 850.468 Q1386.51 853.593 1386.16 859.912 Q1387.53 857.898 1389.59 856.834 Q1391.65 855.746 1394.12 855.746 Q1399.33 855.746 1402.34 858.917 Q1405.37 862.065 1405.37 867.505 Q1405.37 872.829 1402.22 876.046 Q1399.08 879.264 1393.84 879.264 Q1387.85 879.264 1384.68 874.681 Q1381.51 870.074 1381.51 861.347 Q1381.51 853.153 1385.4 848.292 Q1389.28 843.408 1395.84 843.408 Q1397.59 843.408 1399.38 843.755 Q1401.18 844.102 1403.13 844.797 Z" fill="#000000" fill-rule="nonzero" fill-opacity="1" /><path clip-path="url(#clip210)" d="M1413.47 844.033 L1431.83 844.033 L1431.83 847.968 L1417.76 847.968 L1417.76 856.44 Q1418.78 856.093 1419.79 855.931 Q1420.81 855.746 1421.83 855.746 Q1427.62 855.746 1431 858.917 Q1434.38 862.088 1434.38 867.505 Q1434.38 873.083 1430.9 876.185 Q1427.43 879.264 1421.11 879.264 Q1418.94 879.264 1416.67 878.894 Q1414.42 878.523 1412.02 877.783 L1412.02 873.083 Q1414.1 874.218 1416.32 874.773 Q1418.54 875.329 1421.02 875.329 Q1425.03 875.329 1427.36 873.222 Q1429.7 871.116 1429.7 867.505 Q1429.7 863.894 1427.36 861.787 Q1425.03 859.681 1421.02 859.681 Q1419.15 859.681 1417.27 860.097 Q1415.42 860.514 1413.47 861.394 L1413.47 844.033 Z" fill="#000000" fill-rule="nonzero" fill-opacity="1" /><path clip-path="url(#clip210)" d="M906.128 960.438 Q906.128 961.05 905.42 961.115 L903.97 961.115 Q902.489 961.115 901.845 960.889 Q901.201 960.664 900.46 959.633 Q900.009 958.989 898.882 955.994 Q897.787 952.967 896.176 948.393 Q894.598 943.82 893.536 941.115 L877.658 959.859 Q876.563 961.243 875.468 961.243 Q874.663 961.243 874.083 960.696 Q873.504 960.148 873.504 959.311 Q873.504 958.699 873.729 958.345 Q873.987 957.991 874.663 957.282 L892.891 939.215 L886.483 921.276 Q885.259 917.959 884.55 917.121 Q883.874 916.284 882.199 915.994 Q881.587 915.833 881.587 915.318 Q881.587 914.609 882.779 914.609 Q889.156 914.609 890.83 919.279 L904.292 956.799 Q905.033 958.957 905.806 959.859 Q906.128 960.277 906.128 960.438 Z" fill="#000000" fill-rule="nonzero" fill-opacity="1" /><polyline clip-path="url(#clip210)" style="stroke:#000000; stroke-linecap:round; stroke-linejoin:round; stroke-width:4; stroke-opacity:1; fill:none" points="295.289,809.793 295.289,110.236 "/>
<polyline clip-path="url(#clip210)" style="stroke:#000000; stroke-linecap:round; stroke-linejoin:round; stroke-width:4; stroke-opacity:1; fill:none" points="295.289,687.867 314.187,687.867 "/>
<polyline clip-path="url(#clip210)" style="stroke:#000000; stroke-linecap:round; stroke-linejoin:round; stroke-width:4; stroke-opacity:1; fill:none" points="295.289,549.878 314.187,549.878 "/>
<polyline clip-path="url(#clip210)" style="stroke:#000000; stroke-linecap:round; stroke-linejoin:round; stroke-width:4; stroke-opacity:1; fill:none" points="295.289,411.89 314.187,411.89 "/>
<polyline clip-path="url(#clip210)" style="stroke:#000000; stroke-linecap:round; stroke-linejoin:round; stroke-width:4; stroke-opacity:1; fill:none" points="295.289,273.901 314.187,273.901 "/>
<polyline clip-path="url(#clip210)" style="stroke:#000000; stroke-linecap:round; stroke-linejoin:round; stroke-width:4; stroke-opacity:1; fill:none" points="295.289,135.912 314.187,135.912 "/>
<path clip-path="url(#clip210)" d="M160.044 673.666 Q156.433 673.666 154.604 677.231 Q152.799 680.772 152.799 687.902 Q152.799 695.008 154.604 698.573 Q156.433 702.115 160.044 702.115 Q163.678 702.115 165.484 698.573 Q167.313 695.008 167.313 687.902 Q167.313 680.772 165.484 677.231 Q163.678 673.666 160.044 673.666 M160.044 669.962 Q165.854 669.962 168.91 674.569 Q171.989 679.152 171.989 687.902 Q171.989 696.629 168.91 701.235 Q165.854 705.818 160.044 705.818 Q154.234 705.818 151.155 701.235 Q148.1 696.629 148.1 687.902 Q148.1 679.152 151.155 674.569 Q154.234 669.962 160.044 669.962 Z" fill="#000000" fill-rule="nonzero" fill-opacity="1" /><path clip-path="url(#clip210)" d="M180.206 699.268 L185.09 699.268 L185.09 705.147 L180.206 705.147 L180.206 699.268 Z" fill="#000000" fill-rule="nonzero" fill-opacity="1" /><path clip-path="url(#clip210)" d="M205.854 686.004 Q202.706 686.004 200.854 688.157 Q199.026 690.309 199.026 694.059 Q199.026 697.786 200.854 699.962 Q202.706 702.115 205.854 702.115 Q209.002 702.115 210.831 699.962 Q212.683 697.786 212.683 694.059 Q212.683 690.309 210.831 688.157 Q209.002 686.004 205.854 686.004 M215.137 671.351 L215.137 675.61 Q213.377 674.777 211.572 674.337 Q209.789 673.897 208.03 673.897 Q203.401 673.897 200.947 677.022 Q198.516 680.147 198.169 686.467 Q199.535 684.453 201.595 683.388 Q203.655 682.3 206.132 682.3 Q211.34 682.3 214.35 685.471 Q217.382 688.62 217.382 694.059 Q217.382 699.383 214.234 702.601 Q211.086 705.818 205.854 705.818 Q199.859 705.818 196.688 701.235 Q193.516 696.629 193.516 687.902 Q193.516 679.708 197.405 674.846 Q201.294 669.962 207.845 669.962 Q209.604 669.962 211.387 670.309 Q213.192 670.657 215.137 671.351 Z" fill="#000000" fill-rule="nonzero" fill-opacity="1" /><path clip-path="url(#clip210)" d="M235.437 688.735 Q232.104 688.735 230.183 690.518 Q228.285 692.3 228.285 695.425 Q228.285 698.55 230.183 700.332 Q232.104 702.115 235.437 702.115 Q238.771 702.115 240.692 700.332 Q242.613 698.527 242.613 695.425 Q242.613 692.3 240.692 690.518 Q238.794 688.735 235.437 688.735 M230.761 686.745 Q227.752 686.004 226.062 683.944 Q224.396 681.883 224.396 678.92 Q224.396 674.777 227.336 672.37 Q230.299 669.962 235.437 669.962 Q240.599 669.962 243.539 672.37 Q246.479 674.777 246.479 678.92 Q246.479 681.883 244.789 683.944 Q243.123 686.004 240.136 686.745 Q243.516 687.532 245.391 689.823 Q247.289 692.115 247.289 695.425 Q247.289 700.448 244.21 703.133 Q241.155 705.818 235.437 705.818 Q229.72 705.818 226.641 703.133 Q223.586 700.448 223.586 695.425 Q223.586 692.115 225.484 689.823 Q227.382 687.532 230.761 686.745 M229.049 679.36 Q229.049 682.045 230.715 683.55 Q232.405 685.055 235.437 685.055 Q238.447 685.055 240.136 683.55 Q241.849 682.045 241.849 679.36 Q241.849 676.675 240.136 675.171 Q238.447 673.666 235.437 673.666 Q232.405 673.666 230.715 675.171 Q229.049 676.675 229.049 679.36 Z" fill="#000000" fill-rule="nonzero" fill-opacity="1" /><path clip-path="url(#clip210)" d="M160.044 535.677 Q156.433 535.677 154.604 539.242 Q152.799 542.784 152.799 549.913 Q152.799 557.02 154.604 560.584 Q156.433 564.126 160.044 564.126 Q163.678 564.126 165.484 560.584 Q167.313 557.02 167.313 549.913 Q167.313 542.784 165.484 539.242 Q163.678 535.677 160.044 535.677 M160.044 531.973 Q165.854 531.973 168.91 536.58 Q171.989 541.163 171.989 549.913 Q171.989 558.64 168.91 563.246 Q165.854 567.83 160.044 567.83 Q154.234 567.83 151.155 563.246 Q148.1 558.64 148.1 549.913 Q148.1 541.163 151.155 536.58 Q154.234 531.973 160.044 531.973 Z" fill="#000000" fill-rule="nonzero" fill-opacity="1" /><path clip-path="url(#clip210)" d="M180.206 561.279 L185.09 561.279 L185.09 567.158 L180.206 567.158 L180.206 561.279 Z" fill="#000000" fill-rule="nonzero" fill-opacity="1" /><path clip-path="url(#clip210)" d="M205.854 548.015 Q202.706 548.015 200.854 550.168 Q199.026 552.321 199.026 556.071 Q199.026 559.797 200.854 561.973 Q202.706 564.126 205.854 564.126 Q209.002 564.126 210.831 561.973 Q212.683 559.797 212.683 556.071 Q212.683 552.321 210.831 550.168 Q209.002 548.015 205.854 548.015 M215.137 533.362 L215.137 537.622 Q213.377 536.788 211.572 536.348 Q209.789 535.909 208.03 535.909 Q203.401 535.909 200.947 539.034 Q198.516 542.159 198.169 548.478 Q199.535 546.464 201.595 545.399 Q203.655 544.311 206.132 544.311 Q211.34 544.311 214.35 547.483 Q217.382 550.631 217.382 556.071 Q217.382 561.395 214.234 564.612 Q211.086 567.83 205.854 567.83 Q199.859 567.83 196.688 563.246 Q193.516 558.64 193.516 549.913 Q193.516 541.719 197.405 536.858 Q201.294 531.973 207.845 531.973 Q209.604 531.973 211.387 532.321 Q213.192 532.668 215.137 533.362 Z" fill="#000000" fill-rule="nonzero" fill-opacity="1" /><path clip-path="url(#clip210)" d="M235.437 550.746 Q232.104 550.746 230.183 552.529 Q228.285 554.311 228.285 557.436 Q228.285 560.561 230.183 562.344 Q232.104 564.126 235.437 564.126 Q238.771 564.126 240.692 562.344 Q242.613 560.538 242.613 557.436 Q242.613 554.311 240.692 552.529 Q238.794 550.746 235.437 550.746 M230.761 548.756 Q227.752 548.015 226.062 545.955 Q224.396 543.895 224.396 540.932 Q224.396 536.788 227.336 534.381 Q230.299 531.973 235.437 531.973 Q240.599 531.973 243.539 534.381 Q246.479 536.788 246.479 540.932 Q246.479 543.895 244.789 545.955 Q243.123 548.015 240.136 548.756 Q243.516 549.543 245.391 551.834 Q247.289 554.126 247.289 557.436 Q247.289 562.459 244.21 565.145 Q241.155 567.83 235.437 567.83 Q229.72 567.83 226.641 565.145 Q223.586 562.459 223.586 557.436 Q223.586 554.126 225.484 551.834 Q227.382 549.543 230.761 548.756 M229.049 541.372 Q229.049 544.057 230.715 545.561 Q232.405 547.066 235.437 547.066 Q238.447 547.066 240.136 545.561 Q241.849 544.057 241.849 541.372 Q241.849 538.686 240.136 537.182 Q238.447 535.677 235.437 535.677 Q232.405 535.677 230.715 537.182 Q229.049 538.686 229.049 541.372 Z" fill="#000000" fill-rule="nonzero" fill-opacity="1" /><path clip-path="url(#clip210)" d="M160.137 397.688 Q156.526 397.688 154.697 401.253 Q152.892 404.795 152.892 411.924 Q152.892 419.031 154.697 422.596 Q156.526 426.137 160.137 426.137 Q163.771 426.137 165.577 422.596 Q167.405 419.031 167.405 411.924 Q167.405 404.795 165.577 401.253 Q163.771 397.688 160.137 397.688 M160.137 393.985 Q165.947 393.985 169.003 398.591 Q172.081 403.174 172.081 411.924 Q172.081 420.651 169.003 425.258 Q165.947 429.841 160.137 429.841 Q154.327 429.841 151.248 425.258 Q148.192 420.651 148.192 411.924 Q148.192 403.174 151.248 398.591 Q154.327 393.985 160.137 393.985 Z" fill="#000000" fill-rule="nonzero" fill-opacity="1" /><path clip-path="url(#clip210)" d="M180.299 423.29 L185.183 423.29 L185.183 429.17 L180.299 429.17 L180.299 423.29 Z" fill="#000000" fill-rule="nonzero" fill-opacity="1" /><path clip-path="url(#clip210)" d="M205.947 410.026 Q202.799 410.026 200.947 412.179 Q199.118 414.332 199.118 418.082 Q199.118 421.809 200.947 423.984 Q202.799 426.137 205.947 426.137 Q209.095 426.137 210.924 423.984 Q212.775 421.809 212.775 418.082 Q212.775 414.332 210.924 412.179 Q209.095 410.026 205.947 410.026 M215.229 395.374 L215.229 399.633 Q213.47 398.799 211.664 398.36 Q209.882 397.92 208.123 397.92 Q203.493 397.92 201.039 401.045 Q198.609 404.17 198.262 410.489 Q199.627 408.475 201.688 407.41 Q203.748 406.323 206.225 406.323 Q211.433 406.323 214.442 409.494 Q217.475 412.642 217.475 418.082 Q217.475 423.406 214.326 426.623 Q211.178 429.841 205.947 429.841 Q199.951 429.841 196.78 425.258 Q193.609 420.651 193.609 411.924 Q193.609 403.73 197.498 398.869 Q201.387 393.985 207.938 393.985 Q209.697 393.985 211.479 394.332 Q213.285 394.679 215.229 395.374 Z" fill="#000000" fill-rule="nonzero" fill-opacity="1" /><path clip-path="url(#clip210)" d="M225.669 428.452 L225.669 424.193 Q227.428 425.026 229.234 425.466 Q231.039 425.906 232.775 425.906 Q237.405 425.906 239.835 422.804 Q242.289 419.679 242.636 413.336 Q241.294 415.327 239.234 416.392 Q237.173 417.457 234.673 417.457 Q229.488 417.457 226.456 414.332 Q223.447 411.184 223.447 405.744 Q223.447 400.42 226.595 397.202 Q229.743 393.985 234.974 393.985 Q240.97 393.985 244.118 398.591 Q247.289 403.174 247.289 411.924 Q247.289 420.096 243.4 424.98 Q239.535 429.841 232.984 429.841 Q231.224 429.841 229.419 429.494 Q227.613 429.146 225.669 428.452 M234.974 413.799 Q238.123 413.799 239.951 411.647 Q241.803 409.494 241.803 405.744 Q241.803 402.017 239.951 399.864 Q238.123 397.688 234.974 397.688 Q231.826 397.688 229.974 399.864 Q228.146 402.017 228.146 405.744 Q228.146 409.494 229.974 411.647 Q231.826 413.799 234.974 413.799 Z" fill="#000000" fill-rule="nonzero" fill-opacity="1" /><path clip-path="url(#clip210)" d="M160.137 259.7 Q156.526 259.7 154.697 263.264 Q152.892 266.806 152.892 273.936 Q152.892 281.042 154.697 284.607 Q156.526 288.148 160.137 288.148 Q163.771 288.148 165.577 284.607 Q167.405 281.042 167.405 273.936 Q167.405 266.806 165.577 263.264 Q163.771 259.7 160.137 259.7 M160.137 255.996 Q165.947 255.996 169.003 260.602 Q172.081 265.186 172.081 273.936 Q172.081 282.662 169.003 287.269 Q165.947 291.852 160.137 291.852 Q154.327 291.852 151.248 287.269 Q148.192 282.662 148.192 273.936 Q148.192 265.186 151.248 260.602 Q154.327 255.996 160.137 255.996 Z" fill="#000000" fill-rule="nonzero" fill-opacity="1" /><path clip-path="url(#clip210)" d="M180.299 285.301 L185.183 285.301 L185.183 291.181 L180.299 291.181 L180.299 285.301 Z" fill="#000000" fill-rule="nonzero" fill-opacity="1" /><path clip-path="url(#clip210)" d="M205.947 272.037 Q202.799 272.037 200.947 274.19 Q199.118 276.343 199.118 280.093 Q199.118 283.82 200.947 285.996 Q202.799 288.148 205.947 288.148 Q209.095 288.148 210.924 285.996 Q212.775 283.82 212.775 280.093 Q212.775 276.343 210.924 274.19 Q209.095 272.037 205.947 272.037 M215.229 257.385 L215.229 261.644 Q213.47 260.811 211.664 260.371 Q209.882 259.931 208.123 259.931 Q203.493 259.931 201.039 263.056 Q198.609 266.181 198.262 272.5 Q199.627 270.487 201.688 269.422 Q203.748 268.334 206.225 268.334 Q211.433 268.334 214.442 271.505 Q217.475 274.653 217.475 280.093 Q217.475 285.417 214.326 288.635 Q211.178 291.852 205.947 291.852 Q199.951 291.852 196.78 287.269 Q193.609 282.662 193.609 273.936 Q193.609 265.741 197.498 260.88 Q201.387 255.996 207.938 255.996 Q209.697 255.996 211.479 256.343 Q213.285 256.69 215.229 257.385 Z" fill="#000000" fill-rule="nonzero" fill-opacity="1" /><path clip-path="url(#clip210)" d="M225.669 290.463 L225.669 286.204 Q227.428 287.037 229.234 287.477 Q231.039 287.917 232.775 287.917 Q237.405 287.917 239.835 284.815 Q242.289 281.69 242.636 275.348 Q241.294 277.338 239.234 278.403 Q237.173 279.468 234.673 279.468 Q229.488 279.468 226.456 276.343 Q223.447 273.195 223.447 267.755 Q223.447 262.431 226.595 259.213 Q229.743 255.996 234.974 255.996 Q240.97 255.996 244.118 260.602 Q247.289 265.186 247.289 273.936 Q247.289 282.107 243.4 286.991 Q239.535 291.852 232.984 291.852 Q231.224 291.852 229.419 291.505 Q227.613 291.158 225.669 290.463 M234.974 275.811 Q238.123 275.811 239.951 273.658 Q241.803 271.505 241.803 267.755 Q241.803 264.028 239.951 261.875 Q238.123 259.7 234.974 259.7 Q231.826 259.7 229.974 261.875 Q228.146 264.028 228.146 267.755 Q228.146 271.505 229.974 273.658 Q231.826 275.811 234.974 275.811 Z" fill="#000000" fill-rule="nonzero" fill-opacity="1" /><path clip-path="url(#clip210)" d="M159.952 121.711 Q156.341 121.711 154.512 125.276 Q152.706 128.817 152.706 135.947 Q152.706 143.053 154.512 146.618 Q156.341 150.16 159.952 150.16 Q163.586 150.16 165.391 146.618 Q167.22 143.053 167.22 135.947 Q167.22 128.817 165.391 125.276 Q163.586 121.711 159.952 121.711 M159.952 118.007 Q165.762 118.007 168.817 122.614 Q171.896 127.197 171.896 135.947 Q171.896 144.674 168.817 149.28 Q165.762 153.863 159.952 153.863 Q154.142 153.863 151.063 149.28 Q148.007 144.674 148.007 135.947 Q148.007 127.197 151.063 122.614 Q154.142 118.007 159.952 118.007 Z" fill="#000000" fill-rule="nonzero" fill-opacity="1" /><path clip-path="url(#clip210)" d="M180.114 147.312 L184.998 147.312 L184.998 153.192 L180.114 153.192 L180.114 147.312 Z" fill="#000000" fill-rule="nonzero" fill-opacity="1" /><path clip-path="url(#clip210)" d="M194.002 118.632 L216.225 118.632 L216.225 120.623 L203.678 153.192 L198.794 153.192 L210.6 122.567 L194.002 122.567 L194.002 118.632 Z" fill="#000000" fill-rule="nonzero" fill-opacity="1" /><path clip-path="url(#clip210)" d="M235.345 121.711 Q231.734 121.711 229.905 125.276 Q228.099 128.817 228.099 135.947 Q228.099 143.053 229.905 146.618 Q231.734 150.16 235.345 150.16 Q238.979 150.16 240.785 146.618 Q242.613 143.053 242.613 135.947 Q242.613 128.817 240.785 125.276 Q238.979 121.711 235.345 121.711 M235.345 118.007 Q241.155 118.007 244.21 122.614 Q247.289 127.197 247.289 135.947 Q247.289 144.674 244.21 149.28 Q241.155 153.863 235.345 153.863 Q229.535 153.863 226.456 149.28 Q223.4 144.674 223.4 135.947 Q223.4 127.197 226.456 122.614 Q229.535 118.007 235.345 118.007 Z" fill="#000000" fill-rule="nonzero" fill-opacity="1" /><path clip-path="url(#clip210)" d="M41.6675 507.409 Q40.7979 511.563 39.6707 513.946 Q37.8672 517.586 34.8076 517.586 Q32.4888 517.586 30.8463 516.169 Q29.2038 514.752 28.8173 512.626 Q24.5984 517.586 20.2184 517.586 Q16.3537 517.586 13.906 514.655 Q11.4584 511.692 11.4584 507.022 Q11.4584 502.32 13.7772 497.811 Q16.1282 493.302 19.8319 490.501 Q23.5356 487.699 27.3359 487.699 Q31.3616 487.699 33.4228 491.918 Q33.5838 490.758 34.3245 489.889 Q35.0653 489.019 36.1925 489.019 Q37.062 489.019 37.5773 489.502 Q38.0926 489.953 38.0926 490.79 Q38.0926 491.209 37.6417 493.045 L35.2585 502.256 L33.8093 508.214 Q33.2618 510.404 33.1007 511.209 Q32.9719 512.014 32.9719 513.077 Q32.9719 516.104 34.9365 516.104 Q35.9026 516.104 36.6756 515.492 Q37.4485 514.88 38.0604 513.592 Q38.6723 512.304 39.0588 511.112 Q39.4453 509.889 39.9606 507.956 Q40.1216 507.183 40.2504 506.99 Q40.4115 506.765 40.8623 506.765 Q41.6675 506.765 41.6675 507.409 M32.6176 494.945 Q32.6176 494.655 32.3922 493.85 Q32.1668 493.045 31.6515 491.918 Q31.1362 490.79 30.009 489.985 Q28.914 489.148 27.4325 489.148 Q25.4357 489.148 23.3423 490.855 Q21.2812 492.562 19.7675 495.46 Q18.6081 497.779 17.3521 502.642 Q16.1282 507.505 16.1282 509.921 Q16.1282 511.402 16.4503 512.723 Q16.8046 514.011 17.8029 515.074 Q18.8013 516.104 20.3472 516.104 Q24.1153 516.104 27.819 511.434 Q28.5275 510.629 28.6885 510.307 Q28.8818 509.953 29.1394 508.987 L32.4244 496.072 Q32.6176 495.106 32.6176 494.945 Z" fill="#000000" fill-rule="nonzero" fill-opacity="1" /><polyline clip-path="url(#clip212)" style="stroke:#009af9; stroke-linecap:round; stroke-linejoin:round; stroke-width:4; stroke-opacity:1; fill:none" points="1455.96,789.988 1433.42,764.91 1410.88,756.004 1388.35,747.096 1365.81,738.187 1343.27,713.003 1320.73,704.116 1298.2,695.227 1275.66,686.337 1253.12,661.046 1230.59,652.177 1208.05,643.307 1185.51,634.436 1162.97,609.037 1140.44,600.188 1117.9,591.337 1095.36,582.485 1072.82,556.978 1050.29,548.148 1027.75,539.317 1005.21,530.484 982.675,504.869 960.138,496.058 937.601,487.246 915.064,478.433 892.526,452.709 869.989,443.918 847.452,435.126 824.915,426.333 802.377,400.499 779.84,391.728 757.303,382.957 734.766,374.183 712.228,348.239 689.691,339.489 667.154,330.737 644.617,321.984 622.079,295.929 599.542,287.2 577.005,278.469 554.468,269.736 531.93,243.569 509.393,234.861 486.856,226.151 464.319,217.439 441.781,191.159 419.244,182.472 396.707,173.784 374.17,165.093 351.632,138.7 329.095,130.035 "/>
<circle clip-path="url(#clip212)" cx="1455.96" cy="789.988" r="7.2" fill="#009af9" fill-rule="evenodd" fill-opacity="1" stroke="none"/>
<circle clip-path="url(#clip212)" cx="1433.42" cy="764.91" r="7.2" fill="#009af9" fill-rule="evenodd" fill-opacity="1" stroke="none"/>
<circle clip-path="url(#clip212)" cx="1410.88" cy="756.004" r="7.2" fill="#009af9" fill-rule="evenodd" fill-opacity="1" stroke="none"/>
<circle clip-path="url(#clip212)" cx="1388.35" cy="747.096" r="7.2" fill="#009af9" fill-rule="evenodd" fill-opacity="1" stroke="none"/>
<circle clip-path="url(#clip212)" cx="1365.81" cy="738.187" r="7.2" fill="#009af9" fill-rule="evenodd" fill-opacity="1" stroke="none"/>
<circle clip-path="url(#clip212)" cx="1343.27" cy="713.003" r="7.2" fill="#009af9" fill-rule="evenodd" fill-opacity="1" stroke="none"/>
<circle clip-path="url(#clip212)" cx="1320.73" cy="704.116" r="7.2" fill="#009af9" fill-rule="evenodd" fill-opacity="1" stroke="none"/>
<circle clip-path="url(#clip212)" cx="1298.2" cy="695.227" r="7.2" fill="#009af9" fill-rule="evenodd" fill-opacity="1" stroke="none"/>
<circle clip-path="url(#clip212)" cx="1275.66" cy="686.337" r="7.2" fill="#009af9" fill-rule="evenodd" fill-opacity="1" stroke="none"/>
<circle clip-path="url(#clip212)" cx="1253.12" cy="661.046" r="7.2" fill="#009af9" fill-rule="evenodd" fill-opacity="1" stroke="none"/>
<circle clip-path="url(#clip212)" cx="1230.59" cy="652.177" r="7.2" fill="#009af9" fill-rule="evenodd" fill-opacity="1" stroke="none"/>
<circle clip-path="url(#clip212)" cx="1208.05" cy="643.307" r="7.2" fill="#009af9" fill-rule="evenodd" fill-opacity="1" stroke="none"/>
<circle clip-path="url(#clip212)" cx="1185.51" cy="634.436" r="7.2" fill="#009af9" fill-rule="evenodd" fill-opacity="1" stroke="none"/>
<circle clip-path="url(#clip212)" cx="1162.97" cy="609.037" r="7.2" fill="#009af9" fill-rule="evenodd" fill-opacity="1" stroke="none"/>
<circle clip-path="url(#clip212)" cx="1140.44" cy="600.188" r="7.2" fill="#009af9" fill-rule="evenodd" fill-opacity="1" stroke="none"/>
<circle clip-path="url(#clip212)" cx="1117.9" cy="591.337" r="7.2" fill="#009af9" fill-rule="evenodd" fill-opacity="1" stroke="none"/>
<circle clip-path="url(#clip212)" cx="1095.36" cy="582.485" r="7.2" fill="#009af9" fill-rule="evenodd" fill-opacity="1" stroke="none"/>
<circle clip-path="url(#clip212)" cx="1072.82" cy="556.978" r="7.2" fill="#009af9" fill-rule="evenodd" fill-opacity="1" stroke="none"/>
<circle clip-path="url(#clip212)" cx="1050.29" cy="548.148" r="7.2" fill="#009af9" fill-rule="evenodd" fill-opacity="1" stroke="none"/>
<circle clip-path="url(#clip212)" cx="1027.75" cy="539.317" r="7.2" fill="#009af9" fill-rule="evenodd" fill-opacity="1" stroke="none"/>
<circle clip-path="url(#clip212)" cx="1005.21" cy="530.484" r="7.2" fill="#009af9" fill-rule="evenodd" fill-opacity="1" stroke="none"/>
<circle clip-path="url(#clip212)" cx="982.675" cy="504.869" r="7.2" fill="#009af9" fill-rule="evenodd" fill-opacity="1" stroke="none"/>
<circle clip-path="url(#clip212)" cx="960.138" cy="496.058" r="7.2" fill="#009af9" fill-rule="evenodd" fill-opacity="1" stroke="none"/>
<circle clip-path="url(#clip212)" cx="937.601" cy="487.246" r="7.2" fill="#009af9" fill-rule="evenodd" fill-opacity="1" stroke="none"/>
<circle clip-path="url(#clip212)" cx="915.064" cy="478.433" r="7.2" fill="#009af9" fill-rule="evenodd" fill-opacity="1" stroke="none"/>
<circle clip-path="url(#clip212)" cx="892.526" cy="452.709" r="7.2" fill="#009af9" fill-rule="evenodd" fill-opacity="1" stroke="none"/>
<circle clip-path="url(#clip212)" cx="869.989" cy="443.918" r="7.2" fill="#009af9" fill-rule="evenodd" fill-opacity="1" stroke="none"/>
<circle clip-path="url(#clip212)" cx="847.452" cy="435.126" r="7.2" fill="#009af9" fill-rule="evenodd" fill-opacity="1" stroke="none"/>
<circle clip-path="url(#clip212)" cx="824.915" cy="426.333" r="7.2" fill="#009af9" fill-rule="evenodd" fill-opacity="1" stroke="none"/>
<circle clip-path="url(#clip212)" cx="802.377" cy="400.499" r="7.2" fill="#009af9" fill-rule="evenodd" fill-opacity="1" stroke="none"/>
<circle clip-path="url(#clip212)" cx="779.84" cy="391.728" r="7.2" fill="#009af9" fill-rule="evenodd" fill-opacity="1" stroke="none"/>
<circle clip-path="url(#clip212)" cx="757.303" cy="382.957" r="7.2" fill="#009af9" fill-rule="evenodd" fill-opacity="1" stroke="none"/>
<circle clip-path="url(#clip212)" cx="734.766" cy="374.183" r="7.2" fill="#009af9" fill-rule="evenodd" fill-opacity="1" stroke="none"/>
<circle clip-path="url(#clip212)" cx="712.228" cy="348.239" r="7.2" fill="#009af9" fill-rule="evenodd" fill-opacity="1" stroke="none"/>
<circle clip-path="url(#clip212)" cx="689.691" cy="339.489" r="7.2" fill="#009af9" fill-rule="evenodd" fill-opacity="1" stroke="none"/>
<circle clip-path="url(#clip212)" cx="667.154" cy="330.737" r="7.2" fill="#009af9" fill-rule="evenodd" fill-opacity="1" stroke="none"/>
<circle clip-path="url(#clip212)" cx="644.617" cy="321.984" r="7.2" fill="#009af9" fill-rule="evenodd" fill-opacity="1" stroke="none"/>
<circle clip-path="url(#clip212)" cx="622.079" cy="295.929" r="7.2" fill="#009af9" fill-rule="evenodd" fill-opacity="1" stroke="none"/>
<circle clip-path="url(#clip212)" cx="599.542" cy="287.2" r="7.2" fill="#009af9" fill-rule="evenodd" fill-opacity="1" stroke="none"/>
<circle clip-path="url(#clip212)" cx="577.005" cy="278.469" r="7.2" fill="#009af9" fill-rule="evenodd" fill-opacity="1" stroke="none"/>
<circle clip-path="url(#clip212)" cx="554.468" cy="269.736" r="7.2" fill="#009af9" fill-rule="evenodd" fill-opacity="1" stroke="none"/>
<circle clip-path="url(#clip212)" cx="531.93" cy="243.569" r="7.2" fill="#009af9" fill-rule="evenodd" fill-opacity="1" stroke="none"/>
<circle clip-path="url(#clip212)" cx="509.393" cy="234.861" r="7.2" fill="#009af9" fill-rule="evenodd" fill-opacity="1" stroke="none"/>
<circle clip-path="url(#clip212)" cx="486.856" cy="226.151" r="7.2" fill="#009af9" fill-rule="evenodd" fill-opacity="1" stroke="none"/>
<circle clip-path="url(#clip212)" cx="464.319" cy="217.439" r="7.2" fill="#009af9" fill-rule="evenodd" fill-opacity="1" stroke="none"/>
<circle clip-path="url(#clip212)" cx="441.781" cy="191.159" r="7.2" fill="#009af9" fill-rule="evenodd" fill-opacity="1" stroke="none"/>
<circle clip-path="url(#clip212)" cx="419.244" cy="182.472" r="7.2" fill="#009af9" fill-rule="evenodd" fill-opacity="1" stroke="none"/>
<circle clip-path="url(#clip212)" cx="396.707" cy="173.784" r="7.2" fill="#009af9" fill-rule="evenodd" fill-opacity="1" stroke="none"/>
<circle clip-path="url(#clip212)" cx="374.17" cy="165.093" r="7.2" fill="#009af9" fill-rule="evenodd" fill-opacity="1" stroke="none"/>
<circle clip-path="url(#clip212)" cx="351.632" cy="138.7" r="7.2" fill="#009af9" fill-rule="evenodd" fill-opacity="1" stroke="none"/>
<circle clip-path="url(#clip212)" cx="329.095" cy="130.035" r="7.2" fill="#009af9" fill-rule="evenodd" fill-opacity="1" stroke="none"/>
<polyline clip-path="url(#clip212)" style="stroke:#e26f46; stroke-linecap:round; stroke-linejoin:round; stroke-width:4; stroke-opacity:1; fill:none" points="1455.96,789.994 1433.42,764.916 1410.88,756.01 1388.35,747.102 1365.81,738.193 1343.27,713.009 1320.73,704.121 1298.2,695.232 1275.66,686.343 1253.12,661.051 1230.59,652.183 1208.05,643.313 1185.51,634.442 1162.97,609.043 1140.44,600.193 1117.9,591.343 1095.36,582.491 1072.82,556.984 1050.29,548.154 1027.75,539.322 1005.21,530.49 982.675,504.874 960.138,496.064 937.601,487.252 915.064,478.439 892.526,452.714 869.989,443.924 847.452,435.132 824.915,426.339 802.377,400.504 779.84,391.734 757.303,382.962 734.766,374.189 712.228,348.244 689.691,339.495 667.154,330.743 644.617,321.99 622.079,295.934 599.542,287.205 577.005,278.475 554.468,269.742 531.93,243.574 509.393,234.866 486.856,226.157 464.319,217.445 441.781,191.165 419.244,182.478 396.707,173.789 374.17,165.099 351.632,138.706 329.095,130.041 "/>
<circle clip-path="url(#clip212)" cx="1455.96" cy="789.994" r="7.2" fill="#e26f46" fill-rule="evenodd" fill-opacity="1" stroke="none"/>
<circle clip-path="url(#clip212)" cx="1433.42" cy="764.916" r="7.2" fill="#e26f46" fill-rule="evenodd" fill-opacity="1" stroke="none"/>
<circle clip-path="url(#clip212)" cx="1410.88" cy="756.01" r="7.2" fill="#e26f46" fill-rule="evenodd" fill-opacity="1" stroke="none"/>
<circle clip-path="url(#clip212)" cx="1388.35" cy="747.102" r="7.2" fill="#e26f46" fill-rule="evenodd" fill-opacity="1" stroke="none"/>
<circle clip-path="url(#clip212)" cx="1365.81" cy="738.193" r="7.2" fill="#e26f46" fill-rule="evenodd" fill-opacity="1" stroke="none"/>
<circle clip-path="url(#clip212)" cx="1343.27" cy="713.009" r="7.2" fill="#e26f46" fill-rule="evenodd" fill-opacity="1" stroke="none"/>
<circle clip-path="url(#clip212)" cx="1320.73" cy="704.121" r="7.2" fill="#e26f46" fill-rule="evenodd" fill-opacity="1" stroke="none"/>
<circle clip-path="url(#clip212)" cx="1298.2" cy="695.232" r="7.2" fill="#e26f46" fill-rule="evenodd" fill-opacity="1" stroke="none"/>
<circle clip-path="url(#clip212)" cx="1275.66" cy="686.343" r="7.2" fill="#e26f46" fill-rule="evenodd" fill-opacity="1" stroke="none"/>
<circle clip-path="url(#clip212)" cx="1253.12" cy="661.051" r="7.2" fill="#e26f46" fill-rule="evenodd" fill-opacity="1" stroke="none"/>
<circle clip-path="url(#clip212)" cx="1230.59" cy="652.183" r="7.2" fill="#e26f46" fill-rule="evenodd" fill-opacity="1" stroke="none"/>
<circle clip-path="url(#clip212)" cx="1208.05" cy="643.313" r="7.2" fill="#e26f46" fill-rule="evenodd" fill-opacity="1" stroke="none"/>
<circle clip-path="url(#clip212)" cx="1185.51" cy="634.442" r="7.2" fill="#e26f46" fill-rule="evenodd" fill-opacity="1" stroke="none"/>
<circle clip-path="url(#clip212)" cx="1162.97" cy="609.043" r="7.2" fill="#e26f46" fill-rule="evenodd" fill-opacity="1" stroke="none"/>
<circle clip-path="url(#clip212)" cx="1140.44" cy="600.193" r="7.2" fill="#e26f46" fill-rule="evenodd" fill-opacity="1" stroke="none"/>
<circle clip-path="url(#clip212)" cx="1117.9" cy="591.343" r="7.2" fill="#e26f46" fill-rule="evenodd" fill-opacity="1" stroke="none"/>
<circle clip-path="url(#clip212)" cx="1095.36" cy="582.491" r="7.2" fill="#e26f46" fill-rule="evenodd" fill-opacity="1" stroke="none"/>
<circle clip-path="url(#clip212)" cx="1072.82" cy="556.984" r="7.2" fill="#e26f46" fill-rule="evenodd" fill-opacity="1" stroke="none"/>
<circle clip-path="url(#clip212)" cx="1050.29" cy="548.154" r="7.2" fill="#e26f46" fill-rule="evenodd" fill-opacity="1" stroke="none"/>
<circle clip-path="url(#clip212)" cx="1027.75" cy="539.322" r="7.2" fill="#e26f46" fill-rule="evenodd" fill-opacity="1" stroke="none"/>
<circle clip-path="url(#clip212)" cx="1005.21" cy="530.49" r="7.2" fill="#e26f46" fill-rule="evenodd" fill-opacity="1" stroke="none"/>
<circle clip-path="url(#clip212)" cx="982.675" cy="504.874" r="7.2" fill="#e26f46" fill-rule="evenodd" fill-opacity="1" stroke="none"/>
<circle clip-path="url(#clip212)" cx="960.138" cy="496.064" r="7.2" fill="#e26f46" fill-rule="evenodd" fill-opacity="1" stroke="none"/>
<circle clip-path="url(#clip212)" cx="937.601" cy="487.252" r="7.2" fill="#e26f46" fill-rule="evenodd" fill-opacity="1" stroke="none"/>
<circle clip-path="url(#clip212)" cx="915.064" cy="478.439" r="7.2" fill="#e26f46" fill-rule="evenodd" fill-opacity="1" stroke="none"/>
<circle clip-path="url(#clip212)" cx="892.526" cy="452.714" r="7.2" fill="#e26f46" fill-rule="evenodd" fill-opacity="1" stroke="none"/>
<circle clip-path="url(#clip212)" cx="869.989" cy="443.924" r="7.2" fill="#e26f46" fill-rule="evenodd" fill-opacity="1" stroke="none"/>
<circle clip-path="url(#clip212)" cx="847.452" cy="435.132" r="7.2" fill="#e26f46" fill-rule="evenodd" fill-opacity="1" stroke="none"/>
<circle clip-path="url(#clip212)" cx="824.915" cy="426.339" r="7.2" fill="#e26f46" fill-rule="evenodd" fill-opacity="1" stroke="none"/>
<circle clip-path="url(#clip212)" cx="802.377" cy="400.504" r="7.2" fill="#e26f46" fill-rule="evenodd" fill-opacity="1" stroke="none"/>
<circle clip-path="url(#clip212)" cx="779.84" cy="391.734" r="7.2" fill="#e26f46" fill-rule="evenodd" fill-opacity="1" stroke="none"/>
<circle clip-path="url(#clip212)" cx="757.303" cy="382.962" r="7.2" fill="#e26f46" fill-rule="evenodd" fill-opacity="1" stroke="none"/>
<circle clip-path="url(#clip212)" cx="734.766" cy="374.189" r="7.2" fill="#e26f46" fill-rule="evenodd" fill-opacity="1" stroke="none"/>
<circle clip-path="url(#clip212)" cx="712.228" cy="348.244" r="7.2" fill="#e26f46" fill-rule="evenodd" fill-opacity="1" stroke="none"/>
<circle clip-path="url(#clip212)" cx="689.691" cy="339.495" r="7.2" fill="#e26f46" fill-rule="evenodd" fill-opacity="1" stroke="none"/>
<circle clip-path="url(#clip212)" cx="667.154" cy="330.743" r="7.2" fill="#e26f46" fill-rule="evenodd" fill-opacity="1" stroke="none"/>
<circle clip-path="url(#clip212)" cx="644.617" cy="321.99" r="7.2" fill="#e26f46" fill-rule="evenodd" fill-opacity="1" stroke="none"/>
<circle clip-path="url(#clip212)" cx="622.079" cy="295.934" r="7.2" fill="#e26f46" fill-rule="evenodd" fill-opacity="1" stroke="none"/>
<circle clip-path="url(#clip212)" cx="599.542" cy="287.205" r="7.2" fill="#e26f46" fill-rule="evenodd" fill-opacity="1" stroke="none"/>
<circle clip-path="url(#clip212)" cx="577.005" cy="278.475" r="7.2" fill="#e26f46" fill-rule="evenodd" fill-opacity="1" stroke="none"/>
<circle clip-path="url(#clip212)" cx="554.468" cy="269.742" r="7.2" fill="#e26f46" fill-rule="evenodd" fill-opacity="1" stroke="none"/>
<circle clip-path="url(#clip212)" cx="531.93" cy="243.574" r="7.2" fill="#e26f46" fill-rule="evenodd" fill-opacity="1" stroke="none"/>
<circle clip-path="url(#clip212)" cx="509.393" cy="234.866" r="7.2" fill="#e26f46" fill-rule="evenodd" fill-opacity="1" stroke="none"/>
<circle clip-path="url(#clip212)" cx="486.856" cy="226.157" r="7.2" fill="#e26f46" fill-rule="evenodd" fill-opacity="1" stroke="none"/>
<circle clip-path="url(#clip212)" cx="464.319" cy="217.445" r="7.2" fill="#e26f46" fill-rule="evenodd" fill-opacity="1" stroke="none"/>
<circle clip-path="url(#clip212)" cx="441.781" cy="191.165" r="7.2" fill="#e26f46" fill-rule="evenodd" fill-opacity="1" stroke="none"/>
<circle clip-path="url(#clip212)" cx="419.244" cy="182.478" r="7.2" fill="#e26f46" fill-rule="evenodd" fill-opacity="1" stroke="none"/>
<circle clip-path="url(#clip212)" cx="396.707" cy="173.789" r="7.2" fill="#e26f46" fill-rule="evenodd" fill-opacity="1" stroke="none"/>
<circle clip-path="url(#clip212)" cx="374.17" cy="165.099" r="7.2" fill="#e26f46" fill-rule="evenodd" fill-opacity="1" stroke="none"/>
<circle clip-path="url(#clip212)" cx="351.632" cy="138.706" r="7.2" fill="#e26f46" fill-rule="evenodd" fill-opacity="1" stroke="none"/>
<circle clip-path="url(#clip212)" cx="329.095" cy="130.041" r="7.2" fill="#e26f46" fill-rule="evenodd" fill-opacity="1" stroke="none"/>
<path clip-path="url(#clip210)" d="M1895.29 809.793 L3089.76 809.793 L3089.76 110.236 L1895.29 110.236  Z" fill="#ffffff" fill-rule="evenodd" fill-opacity="1"/>
<defs>
  <clipPath id="clip213">
    <rect x="1895" y="110" width="1195" height="701"/>
  </clipPath>
</defs>
<polyline clip-path="url(#clip213)" style="stroke:#000000; stroke-linecap:round; stroke-linejoin:round; stroke-width:2; stroke-opacity:0.1; fill:none" points="2083.74,809.793 2083.74,110.236 "/>
<polyline clip-path="url(#clip213)" style="stroke:#000000; stroke-linecap:round; stroke-linejoin:round; stroke-width:2; stroke-opacity:0.1; fill:none" points="2309.12,809.793 2309.12,110.236 "/>
<polyline clip-path="url(#clip213)" style="stroke:#000000; stroke-linecap:round; stroke-linejoin:round; stroke-width:2; stroke-opacity:0.1; fill:none" points="2534.49,809.793 2534.49,110.236 "/>
<polyline clip-path="url(#clip213)" style="stroke:#000000; stroke-linecap:round; stroke-linejoin:round; stroke-width:2; stroke-opacity:0.1; fill:none" points="2759.86,809.793 2759.86,110.236 "/>
<polyline clip-path="url(#clip213)" style="stroke:#000000; stroke-linecap:round; stroke-linejoin:round; stroke-width:2; stroke-opacity:0.1; fill:none" points="2985.23,809.793 2985.23,110.236 "/>
<polyline clip-path="url(#clip213)" style="stroke:#000000; stroke-linecap:round; stroke-linejoin:round; stroke-width:2; stroke-opacity:0.1; fill:none" points="1895.29,728.33 3089.76,728.33 "/>
<polyline clip-path="url(#clip213)" style="stroke:#000000; stroke-linecap:round; stroke-linejoin:round; stroke-width:2; stroke-opacity:0.1; fill:none" points="1895.29,594.172 3089.76,594.172 "/>
<polyline clip-path="url(#clip213)" style="stroke:#000000; stroke-linecap:round; stroke-linejoin:round; stroke-width:2; stroke-opacity:0.1; fill:none" points="1895.29,460.014 3089.76,460.014 "/>
<polyline clip-path="url(#clip213)" style="stroke:#000000; stroke-linecap:round; stroke-linejoin:round; stroke-width:2; stroke-opacity:0.1; fill:none" points="1895.29,325.856 3089.76,325.856 "/>
<polyline clip-path="url(#clip213)" style="stroke:#000000; stroke-linecap:round; stroke-linejoin:round; stroke-width:2; stroke-opacity:0.1; fill:none" points="1895.29,191.699 3089.76,191.699 "/>
<polyline clip-path="url(#clip210)" style="stroke:#000000; stroke-linecap:round; stroke-linejoin:round; stroke-width:4; stroke-opacity:1; fill:none" points="1895.29,809.793 3089.76,809.793 "/>
<polyline clip-path="url(#clip210)" style="stroke:#000000; stroke-linecap:round; stroke-linejoin:round; stroke-width:4; stroke-opacity:1; fill:none" points="2083.74,809.793 2083.74,790.895 "/>
<polyline clip-path="url(#clip210)" style="stroke:#000000; stroke-linecap:round; stroke-linejoin:round; stroke-width:4; stroke-opacity:1; fill:none" points="2309.12,809.793 2309.12,790.895 "/>
<polyline clip-path="url(#clip210)" style="stroke:#000000; stroke-linecap:round; stroke-linejoin:round; stroke-width:4; stroke-opacity:1; fill:none" points="2534.49,809.793 2534.49,790.895 "/>
<polyline clip-path="url(#clip210)" style="stroke:#000000; stroke-linecap:round; stroke-linejoin:round; stroke-width:4; stroke-opacity:1; fill:none" points="2759.86,809.793 2759.86,790.895 "/>
<polyline clip-path="url(#clip210)" style="stroke:#000000; stroke-linecap:round; stroke-linejoin:round; stroke-width:4; stroke-opacity:1; fill:none" points="2985.23,809.793 2985.23,790.895 "/>
<path clip-path="url(#clip210)" d="M2046.66 847.111 Q2043.05 847.111 2041.22 850.676 Q2039.42 854.218 2039.42 861.347 Q2039.42 868.454 2041.22 872.019 Q2043.05 875.56 2046.66 875.56 Q2050.29 875.56 2052.1 872.019 Q2053.93 868.454 2053.93 861.347 Q2053.93 854.218 2052.1 850.676 Q2050.29 847.111 2046.66 847.111 M2046.66 843.408 Q2052.47 843.408 2055.53 848.014 Q2058.6 852.597 2058.6 861.347 Q2058.6 870.074 2055.53 874.681 Q2052.47 879.264 2046.66 879.264 Q2040.85 879.264 2037.77 874.681 Q2034.72 870.074 2034.72 861.347 Q2034.72 852.597 2037.77 848.014 Q2040.85 843.408 2046.66 843.408 Z" fill="#000000" fill-rule="nonzero" fill-opacity="1" /><path clip-path="url(#clip210)" d="M2066.82 872.713 L2071.71 872.713 L2071.71 878.593 L2066.82 878.593 L2066.82 872.713 Z" fill="#000000" fill-rule="nonzero" fill-opacity="1" /><path clip-path="url(#clip210)" d="M2092.47 859.449 Q2089.32 859.449 2087.47 861.602 Q2085.64 863.755 2085.64 867.505 Q2085.64 871.232 2087.47 873.408 Q2089.32 875.56 2092.47 875.56 Q2095.62 875.56 2097.45 873.408 Q2099.3 871.232 2099.3 867.505 Q2099.3 863.755 2097.45 861.602 Q2095.62 859.449 2092.47 859.449 M2101.75 844.797 L2101.75 849.056 Q2099.99 848.223 2098.19 847.783 Q2096.41 847.343 2094.65 847.343 Q2090.02 847.343 2087.56 850.468 Q2085.13 853.593 2084.79 859.912 Q2086.15 857.898 2088.21 856.834 Q2090.27 855.746 2092.75 855.746 Q2097.96 855.746 2100.97 858.917 Q2104 862.065 2104 867.505 Q2104 872.829 2100.85 876.046 Q2097.7 879.264 2092.47 879.264 Q2086.47 879.264 2083.3 874.681 Q2080.13 870.074 2080.13 861.347 Q2080.13 853.153 2084.02 848.292 Q2087.91 843.408 2094.46 843.408 Q2096.22 843.408 2098 843.755 Q2099.81 844.102 2101.75 844.797 Z" fill="#000000" fill-rule="nonzero" fill-opacity="1" /><path clip-path="url(#clip210)" d="M2112.86 874.658 L2120.5 874.658 L2120.5 848.292 L2112.19 849.959 L2112.19 845.699 L2120.46 844.033 L2125.13 844.033 L2125.13 874.658 L2132.77 874.658 L2132.77 878.593 L2112.86 878.593 L2112.86 874.658 Z" fill="#000000" fill-rule="nonzero" fill-opacity="1" /><path clip-path="url(#clip210)" d="M2272.22 847.111 Q2268.61 847.111 2266.78 850.676 Q2264.97 854.218 2264.97 861.347 Q2264.97 868.454 2266.78 872.019 Q2268.61 875.56 2272.22 875.56 Q2275.85 875.56 2277.66 872.019 Q2279.49 868.454 2279.49 861.347 Q2279.49 854.218 2277.66 850.676 Q2275.85 847.111 2272.22 847.111 M2272.22 843.408 Q2278.03 843.408 2281.08 848.014 Q2284.16 852.597 2284.16 861.347 Q2284.16 870.074 2281.08 874.681 Q2278.03 879.264 2272.22 879.264 Q2266.41 879.264 2263.33 874.681 Q2260.27 870.074 2260.27 861.347 Q2260.27 852.597 2263.33 848.014 Q2266.41 843.408 2272.22 843.408 Z" fill="#000000" fill-rule="nonzero" fill-opacity="1" /><path clip-path="url(#clip210)" d="M2292.38 872.713 L2297.26 872.713 L2297.26 878.593 L2292.38 878.593 L2292.38 872.713 Z" fill="#000000" fill-rule="nonzero" fill-opacity="1" /><path clip-path="url(#clip210)" d="M2318.03 859.449 Q2314.88 859.449 2313.03 861.602 Q2311.2 863.755 2311.2 867.505 Q2311.2 871.232 2313.03 873.408 Q2314.88 875.56 2318.03 875.56 Q2321.18 875.56 2323 873.408 Q2324.86 871.232 2324.86 867.505 Q2324.86 863.755 2323 861.602 Q2321.18 859.449 2318.03 859.449 M2327.31 844.797 L2327.31 849.056 Q2325.55 848.223 2323.75 847.783 Q2321.96 847.343 2320.2 847.343 Q2315.57 847.343 2313.12 850.468 Q2310.69 853.593 2310.34 859.912 Q2311.71 857.898 2313.77 856.834 Q2315.83 855.746 2318.31 855.746 Q2323.51 855.746 2326.52 858.917 Q2329.56 862.065 2329.56 867.505 Q2329.56 872.829 2326.41 876.046 Q2323.26 879.264 2318.03 879.264 Q2312.03 879.264 2308.86 874.681 Q2305.69 870.074 2305.69 861.347 Q2305.69 853.153 2309.58 848.292 Q2313.47 843.408 2320.02 843.408 Q2321.78 843.408 2323.56 843.755 Q2325.37 844.102 2327.31 844.797 Z" fill="#000000" fill-rule="nonzero" fill-opacity="1" /><path clip-path="url(#clip210)" d="M2341.64 874.658 L2357.96 874.658 L2357.96 878.593 L2336.01 878.593 L2336.01 874.658 Q2338.68 871.903 2343.26 867.273 Q2347.87 862.621 2349.05 861.278 Q2351.29 858.755 2352.17 857.019 Q2353.07 855.26 2353.07 853.57 Q2353.07 850.815 2351.13 849.079 Q2349.21 847.343 2346.11 847.343 Q2343.91 847.343 2341.45 848.107 Q2339.02 848.871 2336.25 850.422 L2336.25 845.699 Q2339.07 844.565 2341.52 843.986 Q2343.98 843.408 2346.01 843.408 Q2351.38 843.408 2354.58 846.093 Q2357.77 848.778 2357.77 853.269 Q2357.77 855.398 2356.96 857.32 Q2356.18 859.218 2354.07 861.81 Q2353.49 862.482 2350.39 865.699 Q2347.29 868.894 2341.64 874.658 Z" fill="#000000" fill-rule="nonzero" fill-opacity="1" /><path clip-path="url(#clip210)" d="M2497.12 847.111 Q2493.51 847.111 2491.68 850.676 Q2489.87 854.218 2489.87 861.347 Q2489.87 868.454 2491.68 872.019 Q2493.51 875.56 2497.12 875.56 Q2500.75 875.56 2502.56 872.019 Q2504.38 868.454 2504.38 861.347 Q2504.38 854.218 2502.56 850.676 Q2500.75 847.111 2497.12 847.111 M2497.12 843.408 Q2502.93 843.408 2505.98 848.014 Q2509.06 852.597 2509.06 861.347 Q2509.06 870.074 2505.98 874.681 Q2502.93 879.264 2497.12 879.264 Q2491.31 879.264 2488.23 874.681 Q2485.17 870.074 2485.17 861.347 Q2485.17 852.597 2488.23 848.014 Q2491.31 843.408 2497.12 843.408 Z" fill="#000000" fill-rule="nonzero" fill-opacity="1" /><path clip-path="url(#clip210)" d="M2517.28 872.713 L2522.16 872.713 L2522.16 878.593 L2517.28 878.593 L2517.28 872.713 Z" fill="#000000" fill-rule="nonzero" fill-opacity="1" /><path clip-path="url(#clip210)" d="M2542.93 859.449 Q2539.78 859.449 2537.93 861.602 Q2536.1 863.755 2536.1 867.505 Q2536.1 871.232 2537.93 873.408 Q2539.78 875.56 2542.93 875.56 Q2546.07 875.56 2547.9 873.408 Q2549.75 871.232 2549.75 867.505 Q2549.75 863.755 2547.9 861.602 Q2546.07 859.449 2542.93 859.449 M2552.21 844.797 L2552.21 849.056 Q2550.45 848.223 2548.64 847.783 Q2546.86 847.343 2545.1 847.343 Q2540.47 847.343 2538.02 850.468 Q2535.59 853.593 2535.24 859.912 Q2536.61 857.898 2538.67 856.834 Q2540.73 855.746 2543.2 855.746 Q2548.41 855.746 2551.42 858.917 Q2554.45 862.065 2554.45 867.505 Q2554.45 872.829 2551.31 876.046 Q2548.16 879.264 2542.93 879.264 Q2536.93 879.264 2533.76 874.681 Q2530.59 870.074 2530.59 861.347 Q2530.59 853.153 2534.48 848.292 Q2538.37 843.408 2544.92 843.408 Q2546.68 843.408 2548.46 843.755 Q2550.26 844.102 2552.21 844.797 Z" fill="#000000" fill-rule="nonzero" fill-opacity="1" /><path clip-path="url(#clip210)" d="M2576.68 859.959 Q2580.03 860.676 2581.91 862.945 Q2583.81 865.213 2583.81 868.546 Q2583.81 873.662 2580.29 876.463 Q2576.77 879.264 2570.29 879.264 Q2568.11 879.264 2565.8 878.824 Q2563.5 878.408 2561.05 877.551 L2561.05 873.037 Q2563 874.171 2565.31 874.75 Q2567.63 875.329 2570.15 875.329 Q2574.55 875.329 2576.84 873.593 Q2579.15 871.857 2579.15 868.546 Q2579.15 865.491 2577 863.778 Q2574.87 862.042 2571.05 862.042 L2567.02 862.042 L2567.02 858.199 L2571.24 858.199 Q2574.69 858.199 2576.51 856.834 Q2578.34 855.445 2578.34 852.852 Q2578.34 850.19 2576.44 848.778 Q2574.57 847.343 2571.05 847.343 Q2569.13 847.343 2566.93 847.76 Q2564.73 848.176 2562.09 849.056 L2562.09 844.889 Q2564.75 844.148 2567.07 843.778 Q2569.41 843.408 2571.47 843.408 Q2576.79 843.408 2579.89 845.838 Q2583 848.246 2583 852.366 Q2583 855.236 2581.35 857.227 Q2579.71 859.195 2576.68 859.959 Z" fill="#000000" fill-rule="nonzero" fill-opacity="1" /><path clip-path="url(#clip210)" d="M2721.92 847.111 Q2718.31 847.111 2716.48 850.676 Q2714.68 854.218 2714.68 861.347 Q2714.68 868.454 2716.48 872.019 Q2718.31 875.56 2721.92 875.56 Q2725.56 875.56 2727.36 872.019 Q2729.19 868.454 2729.19 861.347 Q2729.19 854.218 2727.36 850.676 Q2725.56 847.111 2721.92 847.111 M2721.92 843.408 Q2727.73 843.408 2730.79 848.014 Q2733.87 852.597 2733.87 861.347 Q2733.87 870.074 2730.79 874.681 Q2727.73 879.264 2721.92 879.264 Q2716.11 879.264 2713.03 874.681 Q2709.98 870.074 2709.98 861.347 Q2709.98 852.597 2713.03 848.014 Q2716.11 843.408 2721.92 843.408 Z" fill="#000000" fill-rule="nonzero" fill-opacity="1" /><path clip-path="url(#clip210)" d="M2742.08 872.713 L2746.97 872.713 L2746.97 878.593 L2742.08 878.593 L2742.08 872.713 Z" fill="#000000" fill-rule="nonzero" fill-opacity="1" /><path clip-path="url(#clip210)" d="M2767.73 859.449 Q2764.58 859.449 2762.73 861.602 Q2760.9 863.755 2760.9 867.505 Q2760.9 871.232 2762.73 873.408 Q2764.58 875.56 2767.73 875.56 Q2770.88 875.56 2772.71 873.408 Q2774.56 871.232 2774.56 867.505 Q2774.56 863.755 2772.71 861.602 Q2770.88 859.449 2767.73 859.449 M2777.01 844.797 L2777.01 849.056 Q2775.25 848.223 2773.45 847.783 Q2771.67 847.343 2769.91 847.343 Q2765.28 847.343 2762.82 850.468 Q2760.39 853.593 2760.05 859.912 Q2761.41 857.898 2763.47 856.834 Q2765.53 855.746 2768.01 855.746 Q2773.22 855.746 2776.23 858.917 Q2779.26 862.065 2779.26 867.505 Q2779.26 872.829 2776.11 876.046 Q2772.96 879.264 2767.73 879.264 Q2761.74 879.264 2758.56 874.681 Q2755.39 870.074 2755.39 861.347 Q2755.39 853.153 2759.28 848.292 Q2763.17 843.408 2769.72 843.408 Q2771.48 843.408 2773.26 843.755 Q2775.07 844.102 2777.01 844.797 Z" fill="#000000" fill-rule="nonzero" fill-opacity="1" /><path clip-path="url(#clip210)" d="M2800.16 848.107 L2788.36 866.556 L2800.16 866.556 L2800.16 848.107 M2798.94 844.033 L2804.81 844.033 L2804.81 866.556 L2809.75 866.556 L2809.75 870.445 L2804.81 870.445 L2804.81 878.593 L2800.16 878.593 L2800.16 870.445 L2784.56 870.445 L2784.56 865.931 L2798.94 844.033 Z" fill="#000000" fill-rule="nonzero" fill-opacity="1" /><path clip-path="url(#clip210)" d="M2948.03 847.111 Q2944.42 847.111 2942.6 850.676 Q2940.79 854.218 2940.79 861.347 Q2940.79 868.454 2942.6 872.019 Q2944.42 875.56 2948.03 875.56 Q2951.67 875.56 2953.47 872.019 Q2955.3 868.454 2955.3 861.347 Q2955.3 854.218 2953.47 850.676 Q2951.67 847.111 2948.03 847.111 M2948.03 843.408 Q2953.85 843.408 2956.9 848.014 Q2959.98 852.597 2959.98 861.347 Q2959.98 870.074 2956.9 874.681 Q2953.85 879.264 2948.03 879.264 Q2942.22 879.264 2939.15 874.681 Q2936.09 870.074 2936.09 861.347 Q2936.09 852.597 2939.15 848.014 Q2942.22 843.408 2948.03 843.408 Z" fill="#000000" fill-rule="nonzero" fill-opacity="1" /><path clip-path="url(#clip210)" d="M2968.2 872.713 L2973.08 872.713 L2973.08 878.593 L2968.2 878.593 L2968.2 872.713 Z" fill="#000000" fill-rule="nonzero" fill-opacity="1" /><path clip-path="url(#clip210)" d="M2993.84 859.449 Q2990.7 859.449 2988.84 861.602 Q2987.02 863.755 2987.02 867.505 Q2987.02 871.232 2988.84 873.408 Q2990.7 875.56 2993.84 875.56 Q2996.99 875.56 2998.82 873.408 Q3000.67 871.232 3000.67 867.505 Q3000.67 863.755 2998.82 861.602 Q2996.99 859.449 2993.84 859.449 M3003.13 844.797 L3003.13 849.056 Q3001.37 848.223 2999.56 847.783 Q2997.78 847.343 2996.02 847.343 Q2991.39 847.343 2988.94 850.468 Q2986.51 853.593 2986.16 859.912 Q2987.53 857.898 2989.59 856.834 Q2991.65 855.746 2994.12 855.746 Q2999.33 855.746 3002.34 858.917 Q3005.37 862.065 3005.37 867.505 Q3005.37 872.829 3002.22 876.046 Q2999.08 879.264 2993.84 879.264 Q2987.85 879.264 2984.68 874.681 Q2981.51 870.074 2981.51 861.347 Q2981.51 853.153 2985.4 848.292 Q2989.28 843.408 2995.84 843.408 Q2997.59 843.408 2999.38 843.755 Q3001.18 844.102 3003.13 844.797 Z" fill="#000000" fill-rule="nonzero" fill-opacity="1" /><path clip-path="url(#clip210)" d="M3013.47 844.033 L3031.83 844.033 L3031.83 847.968 L3017.76 847.968 L3017.76 856.44 Q3018.78 856.093 3019.79 855.931 Q3020.81 855.746 3021.83 855.746 Q3027.62 855.746 3031 858.917 Q3034.38 862.088 3034.38 867.505 Q3034.38 873.083 3030.9 876.185 Q3027.43 879.264 3021.11 879.264 Q3018.94 879.264 3016.67 878.894 Q3014.42 878.523 3012.02 877.783 L3012.02 873.083 Q3014.1 874.218 3016.32 874.773 Q3018.54 875.329 3021.02 875.329 Q3025.03 875.329 3027.36 873.222 Q3029.7 871.116 3029.7 867.505 Q3029.7 863.894 3027.36 861.787 Q3025.03 859.681 3021.02 859.681 Q3019.15 859.681 3017.27 860.097 Q3015.42 860.514 3013.47 861.394 L3013.47 844.033 Z" fill="#000000" fill-rule="nonzero" fill-opacity="1" /><path clip-path="url(#clip210)" d="M2506.13 960.438 Q2506.13 961.05 2505.42 961.115 L2503.97 961.115 Q2502.49 961.115 2501.84 960.889 Q2501.2 960.664 2500.46 959.633 Q2500.01 958.989 2498.88 955.994 Q2497.79 952.967 2496.18 948.393 Q2494.6 943.82 2493.54 941.115 L2477.66 959.859 Q2476.56 961.243 2475.47 961.243 Q2474.66 961.243 2474.08 960.696 Q2473.5 960.148 2473.5 959.311 Q2473.5 958.699 2473.73 958.345 Q2473.99 957.991 2474.66 957.282 L2492.89 939.215 L2486.48 921.276 Q2485.26 917.959 2484.55 917.121 Q2483.87 916.284 2482.2 915.994 Q2481.59 915.833 2481.59 915.318 Q2481.59 914.609 2482.78 914.609 Q2489.16 914.609 2490.83 919.279 L2504.29 956.799 Q2505.03 958.957 2505.81 959.859 Q2506.13 960.277 2506.13 960.438 Z" fill="#000000" fill-rule="nonzero" fill-opacity="1" /><polyline clip-path="url(#clip210)" style="stroke:#000000; stroke-linecap:round; stroke-linejoin:round; stroke-width:4; stroke-opacity:1; fill:none" points="1895.29,809.793 1895.29,110.236 "/>
<polyline clip-path="url(#clip210)" style="stroke:#000000; stroke-linecap:round; stroke-linejoin:round; stroke-width:4; stroke-opacity:1; fill:none" points="1895.29,728.33 1914.19,728.33 "/>
<polyline clip-path="url(#clip210)" style="stroke:#000000; stroke-linecap:round; stroke-linejoin:round; stroke-width:4; stroke-opacity:1; fill:none" points="1895.29,594.172 1914.19,594.172 "/>
<polyline clip-path="url(#clip210)" style="stroke:#000000; stroke-linecap:round; stroke-linejoin:round; stroke-width:4; stroke-opacity:1; fill:none" points="1895.29,460.014 1914.19,460.014 "/>
<polyline clip-path="url(#clip210)" style="stroke:#000000; stroke-linecap:round; stroke-linejoin:round; stroke-width:4; stroke-opacity:1; fill:none" points="1895.29,325.856 1914.19,325.856 "/>
<polyline clip-path="url(#clip210)" style="stroke:#000000; stroke-linecap:round; stroke-linejoin:round; stroke-width:4; stroke-opacity:1; fill:none" points="1895.29,191.699 1914.19,191.699 "/>
<path clip-path="url(#clip210)" d="M1760.14 714.129 Q1756.53 714.129 1754.7 717.694 Q1752.89 721.235 1752.89 728.365 Q1752.89 735.471 1754.7 739.036 Q1756.53 742.578 1760.14 742.578 Q1763.77 742.578 1765.58 739.036 Q1767.41 735.471 1767.41 728.365 Q1767.41 721.235 1765.58 717.694 Q1763.77 714.129 1760.14 714.129 M1760.14 710.425 Q1765.95 710.425 1769 715.032 Q1772.08 719.615 1772.08 728.365 Q1772.08 737.092 1769 741.698 Q1765.95 746.282 1760.14 746.282 Q1754.33 746.282 1751.25 741.698 Q1748.19 737.092 1748.19 728.365 Q1748.19 719.615 1751.25 715.032 Q1754.33 710.425 1760.14 710.425 Z" fill="#000000" fill-rule="nonzero" fill-opacity="1" /><path clip-path="url(#clip210)" d="M1780.3 739.731 L1785.18 739.731 L1785.18 745.61 L1780.3 745.61 L1780.3 739.731 Z" fill="#000000" fill-rule="nonzero" fill-opacity="1" /><path clip-path="url(#clip210)" d="M1808.22 715.124 L1796.41 733.573 L1808.22 733.573 L1808.22 715.124 M1806.99 711.05 L1812.87 711.05 L1812.87 733.573 L1817.8 733.573 L1817.8 737.462 L1812.87 737.462 L1812.87 745.61 L1808.22 745.61 L1808.22 737.462 L1792.61 737.462 L1792.61 732.948 L1806.99 711.05 Z" fill="#000000" fill-rule="nonzero" fill-opacity="1" /><path clip-path="url(#clip210)" d="M1825.67 744.893 L1825.67 740.633 Q1827.43 741.467 1829.23 741.907 Q1831.04 742.346 1832.78 742.346 Q1837.4 742.346 1839.84 739.245 Q1842.29 736.12 1842.64 729.777 Q1841.29 731.768 1839.23 732.833 Q1837.17 733.897 1834.67 733.897 Q1829.49 733.897 1826.46 730.772 Q1823.45 727.624 1823.45 722.185 Q1823.45 716.86 1826.59 713.643 Q1829.74 710.425 1834.97 710.425 Q1840.97 710.425 1844.12 715.032 Q1847.29 719.615 1847.29 728.365 Q1847.29 736.536 1843.4 741.421 Q1839.53 746.282 1832.98 746.282 Q1831.22 746.282 1829.42 745.934 Q1827.61 745.587 1825.67 744.893 M1834.97 730.24 Q1838.12 730.24 1839.95 728.087 Q1841.8 725.935 1841.8 722.185 Q1841.8 718.458 1839.95 716.305 Q1838.12 714.129 1834.97 714.129 Q1831.83 714.129 1829.97 716.305 Q1828.15 718.458 1828.15 722.185 Q1828.15 725.935 1829.97 728.087 Q1831.83 730.24 1834.97 730.24 Z" fill="#000000" fill-rule="nonzero" fill-opacity="1" /><path clip-path="url(#clip210)" d="M1760.14 579.971 Q1756.53 579.971 1754.7 583.536 Q1752.89 587.078 1752.89 594.207 Q1752.89 601.314 1754.7 604.878 Q1756.53 608.42 1760.14 608.42 Q1763.77 608.42 1765.58 604.878 Q1767.41 601.314 1767.41 594.207 Q1767.41 587.078 1765.58 583.536 Q1763.77 579.971 1760.14 579.971 M1760.14 576.267 Q1765.95 576.267 1769 580.874 Q1772.08 585.457 1772.08 594.207 Q1772.08 602.934 1769 607.54 Q1765.95 612.124 1760.14 612.124 Q1754.33 612.124 1751.25 607.54 Q1748.19 602.934 1748.19 594.207 Q1748.19 585.457 1751.25 580.874 Q1754.33 576.267 1760.14 576.267 Z" fill="#000000" fill-rule="nonzero" fill-opacity="1" /><path clip-path="url(#clip210)" d="M1780.3 605.573 L1785.18 605.573 L1785.18 611.452 L1780.3 611.452 L1780.3 605.573 Z" fill="#000000" fill-rule="nonzero" fill-opacity="1" /><path clip-path="url(#clip210)" d="M1808.22 580.966 L1796.41 599.415 L1808.22 599.415 L1808.22 580.966 M1806.99 576.892 L1812.87 576.892 L1812.87 599.415 L1817.8 599.415 L1817.8 603.304 L1812.87 603.304 L1812.87 611.452 L1808.22 611.452 L1808.22 603.304 L1792.61 603.304 L1792.61 598.79 L1806.99 576.892 Z" fill="#000000" fill-rule="nonzero" fill-opacity="1" /><path clip-path="url(#clip210)" d="M1825.67 610.735 L1825.67 606.476 Q1827.43 607.309 1829.23 607.749 Q1831.04 608.188 1832.78 608.188 Q1837.4 608.188 1839.84 605.087 Q1842.29 601.962 1842.64 595.619 Q1841.29 597.61 1839.23 598.675 Q1837.17 599.739 1834.67 599.739 Q1829.49 599.739 1826.46 596.614 Q1823.45 593.466 1823.45 588.027 Q1823.45 582.703 1826.59 579.485 Q1829.74 576.267 1834.97 576.267 Q1840.97 576.267 1844.12 580.874 Q1847.29 585.457 1847.29 594.207 Q1847.29 602.378 1843.4 607.263 Q1839.53 612.124 1832.98 612.124 Q1831.22 612.124 1829.42 611.776 Q1827.61 611.429 1825.67 610.735 M1834.97 596.082 Q1838.12 596.082 1839.95 593.929 Q1841.8 591.777 1841.8 588.027 Q1841.8 584.3 1839.95 582.147 Q1838.12 579.971 1834.97 579.971 Q1831.83 579.971 1829.97 582.147 Q1828.15 584.3 1828.15 588.027 Q1828.15 591.777 1829.97 593.929 Q1831.83 596.082 1834.97 596.082 Z" fill="#000000" fill-rule="nonzero" fill-opacity="1" /><path clip-path="url(#clip210)" d="M1759.95 445.813 Q1756.34 445.813 1754.51 449.378 Q1752.71 452.92 1752.71 460.049 Q1752.71 467.156 1754.51 470.72 Q1756.34 474.262 1759.95 474.262 Q1763.59 474.262 1765.39 470.72 Q1767.22 467.156 1767.22 460.049 Q1767.22 452.92 1765.39 449.378 Q1763.59 445.813 1759.95 445.813 M1759.95 442.109 Q1765.76 442.109 1768.82 446.716 Q1771.9 451.299 1771.9 460.049 Q1771.9 468.776 1768.82 473.382 Q1765.76 477.966 1759.95 477.966 Q1754.14 477.966 1751.06 473.382 Q1748.01 468.776 1748.01 460.049 Q1748.01 451.299 1751.06 446.716 Q1754.14 442.109 1759.95 442.109 Z" fill="#000000" fill-rule="nonzero" fill-opacity="1" /><path clip-path="url(#clip210)" d="M1780.11 471.415 L1785 471.415 L1785 477.294 L1780.11 477.294 L1780.11 471.415 Z" fill="#000000" fill-rule="nonzero" fill-opacity="1" /><path clip-path="url(#clip210)" d="M1795.23 442.734 L1813.59 442.734 L1813.59 446.67 L1799.51 446.67 L1799.51 455.142 Q1800.53 454.795 1801.55 454.633 Q1802.57 454.447 1803.59 454.447 Q1809.37 454.447 1812.75 457.619 Q1816.13 460.79 1816.13 466.207 Q1816.13 471.785 1812.66 474.887 Q1809.19 477.966 1802.87 477.966 Q1800.69 477.966 1798.42 477.595 Q1796.18 477.225 1793.77 476.484 L1793.77 471.785 Q1795.85 472.919 1798.08 473.475 Q1800.3 474.031 1802.78 474.031 Q1806.78 474.031 1809.12 471.924 Q1811.46 469.818 1811.46 466.207 Q1811.46 462.595 1809.12 460.489 Q1806.78 458.382 1802.78 458.382 Q1800.9 458.382 1799.03 458.799 Q1797.17 459.216 1795.23 460.095 L1795.23 442.734 Z" fill="#000000" fill-rule="nonzero" fill-opacity="1" /><path clip-path="url(#clip210)" d="M1835.34 445.813 Q1831.73 445.813 1829.9 449.378 Q1828.1 452.92 1828.1 460.049 Q1828.1 467.156 1829.9 470.72 Q1831.73 474.262 1835.34 474.262 Q1838.98 474.262 1840.78 470.72 Q1842.61 467.156 1842.61 460.049 Q1842.61 452.92 1840.78 449.378 Q1838.98 445.813 1835.34 445.813 M1835.34 442.109 Q1841.15 442.109 1844.21 446.716 Q1847.29 451.299 1847.29 460.049 Q1847.29 468.776 1844.21 473.382 Q1841.15 477.966 1835.34 477.966 Q1829.53 477.966 1826.46 473.382 Q1823.4 468.776 1823.4 460.049 Q1823.4 451.299 1826.46 446.716 Q1829.53 442.109 1835.34 442.109 Z" fill="#000000" fill-rule="nonzero" fill-opacity="1" /><path clip-path="url(#clip210)" d="M1761.18 311.655 Q1757.57 311.655 1755.74 315.22 Q1753.93 318.762 1753.93 325.891 Q1753.93 332.998 1755.74 336.562 Q1757.57 340.104 1761.18 340.104 Q1764.81 340.104 1766.62 336.562 Q1768.45 332.998 1768.45 325.891 Q1768.45 318.762 1766.62 315.22 Q1764.81 311.655 1761.18 311.655 M1761.18 307.951 Q1766.99 307.951 1770.04 312.558 Q1773.12 317.141 1773.12 325.891 Q1773.12 334.618 1770.04 339.224 Q1766.99 343.808 1761.18 343.808 Q1755.37 343.808 1752.29 339.224 Q1749.23 334.618 1749.23 325.891 Q1749.23 317.141 1752.29 312.558 Q1755.37 307.951 1761.18 307.951 Z" fill="#000000" fill-rule="nonzero" fill-opacity="1" /><path clip-path="url(#clip210)" d="M1781.34 337.257 L1786.22 337.257 L1786.22 343.136 L1781.34 343.136 L1781.34 337.257 Z" fill="#000000" fill-rule="nonzero" fill-opacity="1" /><path clip-path="url(#clip210)" d="M1796.46 308.576 L1814.81 308.576 L1814.81 312.512 L1800.74 312.512 L1800.74 320.984 Q1801.76 320.637 1802.78 320.475 Q1803.79 320.289 1804.81 320.289 Q1810.6 320.289 1813.98 323.461 Q1817.36 326.632 1817.36 332.049 Q1817.36 337.627 1813.89 340.729 Q1810.41 343.808 1804.09 343.808 Q1801.92 343.808 1799.65 343.437 Q1797.41 343.067 1795 342.326 L1795 337.627 Q1797.08 338.761 1799.3 339.317 Q1801.53 339.873 1804 339.873 Q1808.01 339.873 1810.34 337.766 Q1812.68 335.66 1812.68 332.049 Q1812.68 328.437 1810.34 326.331 Q1808.01 324.225 1804 324.225 Q1802.13 324.225 1800.25 324.641 Q1798.4 325.058 1796.46 325.937 L1796.46 308.576 Z" fill="#000000" fill-rule="nonzero" fill-opacity="1" /><path clip-path="url(#clip210)" d="M1827.38 339.201 L1835.02 339.201 L1835.02 312.836 L1826.71 314.502 L1826.71 310.243 L1834.97 308.576 L1839.65 308.576 L1839.65 339.201 L1847.29 339.201 L1847.29 343.136 L1827.38 343.136 L1827.38 339.201 Z" fill="#000000" fill-rule="nonzero" fill-opacity="1" /><path clip-path="url(#clip210)" d="M1761.18 177.497 Q1757.57 177.497 1755.74 181.062 Q1753.93 184.604 1753.93 191.733 Q1753.93 198.84 1755.74 202.404 Q1757.57 205.946 1761.18 205.946 Q1764.81 205.946 1766.62 202.404 Q1768.45 198.84 1768.45 191.733 Q1768.45 184.604 1766.62 181.062 Q1764.81 177.497 1761.18 177.497 M1761.18 173.794 Q1766.99 173.794 1770.04 178.4 Q1773.12 182.983 1773.12 191.733 Q1773.12 200.46 1770.04 205.066 Q1766.99 209.65 1761.18 209.65 Q1755.37 209.65 1752.29 205.066 Q1749.23 200.46 1749.23 191.733 Q1749.23 182.983 1752.29 178.4 Q1755.37 173.794 1761.18 173.794 Z" fill="#000000" fill-rule="nonzero" fill-opacity="1" /><path clip-path="url(#clip210)" d="M1781.34 203.099 L1786.22 203.099 L1786.22 208.979 L1781.34 208.979 L1781.34 203.099 Z" fill="#000000" fill-rule="nonzero" fill-opacity="1" /><path clip-path="url(#clip210)" d="M1796.46 174.419 L1814.81 174.419 L1814.81 178.354 L1800.74 178.354 L1800.74 186.826 Q1801.76 186.479 1802.78 186.317 Q1803.79 186.131 1804.81 186.131 Q1810.6 186.131 1813.98 189.303 Q1817.36 192.474 1817.36 197.891 Q1817.36 203.469 1813.89 206.571 Q1810.41 209.65 1804.09 209.65 Q1801.92 209.65 1799.65 209.279 Q1797.41 208.909 1795 208.168 L1795 203.469 Q1797.08 204.604 1799.3 205.159 Q1801.53 205.715 1804 205.715 Q1808.01 205.715 1810.34 203.608 Q1812.68 201.502 1812.68 197.891 Q1812.68 194.28 1810.34 192.173 Q1808.01 190.067 1804 190.067 Q1802.13 190.067 1800.25 190.483 Q1798.4 190.9 1796.46 191.78 L1796.46 174.419 Z" fill="#000000" fill-rule="nonzero" fill-opacity="1" /><path clip-path="url(#clip210)" d="M1827.38 205.043 L1835.02 205.043 L1835.02 178.678 L1826.71 180.344 L1826.71 176.085 L1834.97 174.419 L1839.65 174.419 L1839.65 205.043 L1847.29 205.043 L1847.29 208.979 L1827.38 208.979 L1827.38 205.043 Z" fill="#000000" fill-rule="nonzero" fill-opacity="1" /><path clip-path="url(#clip210)" d="M1642.91 492.046 Q1642.91 493.85 1641.78 494.881 Q1640.65 495.879 1639.36 495.879 Q1638.14 495.879 1637.49 495.17 Q1636.85 494.462 1636.85 493.56 Q1636.85 492.336 1637.75 491.274 Q1638.65 490.211 1640.01 489.985 Q1638.69 489.148 1636.72 489.148 Q1635.43 489.148 1634.31 489.824 Q1633.21 490.501 1632.53 491.37 Q1631.89 492.24 1631.31 493.496 Q1630.76 494.72 1630.54 495.46 Q1630.34 496.169 1630.18 496.942 L1627.93 505.959 Q1626.83 510.243 1626.83 511.756 Q1626.83 513.624 1627.74 514.88 Q1628.64 516.104 1630.44 516.104 Q1631.15 516.104 1631.96 515.911 Q1632.76 515.686 1633.79 515.106 Q1634.85 514.494 1635.79 513.592 Q1636.75 512.658 1637.69 511.08 Q1638.62 509.502 1639.23 507.473 Q1639.43 506.765 1640.07 506.765 Q1640.88 506.765 1640.88 507.409 Q1640.88 507.956 1640.43 509.116 Q1640.01 510.243 1639.07 511.724 Q1638.17 513.174 1636.98 514.494 Q1635.79 515.782 1634.02 516.684 Q1632.25 517.586 1630.31 517.586 Q1627.54 517.586 1625.71 516.104 Q1623.87 514.623 1623.2 512.562 Q1623.03 512.851 1622.81 513.238 Q1622.58 513.624 1621.91 514.494 Q1621.26 515.331 1620.52 515.975 Q1619.78 516.587 1618.62 517.07 Q1617.49 517.586 1616.27 517.586 Q1614.73 517.586 1613.34 517.135 Q1611.99 516.684 1611.02 515.653 Q1610.06 514.623 1610.06 513.206 Q1610.06 511.628 1611.12 510.533 Q1612.21 509.405 1613.69 509.405 Q1614.63 509.405 1615.37 509.953 Q1616.14 510.5 1616.14 511.692 Q1616.14 513.012 1615.24 514.011 Q1614.34 515.009 1613.05 515.267 Q1614.37 516.104 1616.34 516.104 Q1618.46 516.104 1620.14 514.236 Q1621.81 512.368 1622.62 509.244 Q1624.61 501.74 1625.39 498.391 Q1626.16 495.009 1626.16 493.56 Q1626.16 492.207 1625.8 491.274 Q1625.45 490.34 1624.84 489.921 Q1624.26 489.47 1623.71 489.309 Q1623.2 489.148 1622.62 489.148 Q1621.65 489.148 1620.55 489.534 Q1619.49 489.921 1618.2 490.823 Q1616.95 491.692 1615.76 493.496 Q1614.56 495.299 1613.76 497.779 Q1613.6 498.52 1612.89 498.52 Q1612.12 498.488 1612.12 497.844 Q1612.12 497.296 1612.54 496.169 Q1612.99 495.009 1613.89 493.56 Q1614.82 492.111 1616.01 490.823 Q1617.24 489.502 1619.01 488.6 Q1620.81 487.699 1622.74 487.699 Q1623.61 487.699 1624.45 487.892 Q1625.32 488.053 1626.35 488.536 Q1627.41 489.019 1628.35 490.082 Q1629.28 491.145 1629.86 492.691 Q1630.25 491.95 1630.76 491.241 Q1631.31 490.533 1632.15 489.663 Q1633.02 488.761 1634.21 488.246 Q1635.43 487.699 1636.79 487.699 Q1638.11 487.699 1639.39 488.053 Q1640.68 488.375 1641.78 489.438 Q1642.91 490.468 1642.91 492.046 Z" fill="#000000" fill-rule="nonzero" fill-opacity="1" /><polyline clip-path="url(#clip213)" style="stroke:#009af9; stroke-linecap:round; stroke-linejoin:round; stroke-width:4; stroke-opacity:1; fill:none" points="3055.96,222.224 3033.42,213.119 3010.88,213.396 2988.35,213.672 2965.81,213.948 2943.27,205.095 2920.73,205.382 2898.2,205.668 2875.66,205.953 2853.12,197.328 2830.59,197.624 2808.05,197.919 2785.51,198.213 2762.97,189.794 2740.44,190.1 2717.9,190.404 2695.36,190.708 2672.82,182.476 2650.29,182.79 2627.75,183.104 2605.21,183.416 2582.68,175.356 2560.14,175.679 2537.6,176.002 2515.06,176.323 2492.53,168.42 2469.99,168.752 2447.45,169.083 2424.91,169.413 2402.38,161.654 2379.84,161.995 2357.3,162.335 2334.77,162.674 2312.23,155.049 2289.69,155.398 2267.15,155.747 2244.62,156.094 2222.08,148.593 2199.54,148.951 2177,149.307 2154.47,149.663 2131.93,142.277 2109.39,142.643 2086.86,143.008 2064.32,143.372 2041.78,136.094 2019.24,136.468 1996.71,136.841 1974.17,137.212 1951.63,130.035 1929.1,130.417 "/>
<circle clip-path="url(#clip213)" cx="3055.96" cy="222.224" r="7.2" fill="#009af9" fill-rule="evenodd" fill-opacity="1" stroke="none"/>
<circle clip-path="url(#clip213)" cx="3033.42" cy="213.119" r="7.2" fill="#009af9" fill-rule="evenodd" fill-opacity="1" stroke="none"/>
<circle clip-path="url(#clip213)" cx="3010.88" cy="213.396" r="7.2" fill="#009af9" fill-rule="evenodd" fill-opacity="1" stroke="none"/>
<circle clip-path="url(#clip213)" cx="2988.35" cy="213.672" r="7.2" fill="#009af9" fill-rule="evenodd" fill-opacity="1" stroke="none"/>
<circle clip-path="url(#clip213)" cx="2965.81" cy="213.948" r="7.2" fill="#009af9" fill-rule="evenodd" fill-opacity="1" stroke="none"/>
<circle clip-path="url(#clip213)" cx="2943.27" cy="205.095" r="7.2" fill="#009af9" fill-rule="evenodd" fill-opacity="1" stroke="none"/>
<circle clip-path="url(#clip213)" cx="2920.73" cy="205.382" r="7.2" fill="#009af9" fill-rule="evenodd" fill-opacity="1" stroke="none"/>
<circle clip-path="url(#clip213)" cx="2898.2" cy="205.668" r="7.2" fill="#009af9" fill-rule="evenodd" fill-opacity="1" stroke="none"/>
<circle clip-path="url(#clip213)" cx="2875.66" cy="205.953" r="7.2" fill="#009af9" fill-rule="evenodd" fill-opacity="1" stroke="none"/>
<circle clip-path="url(#clip213)" cx="2853.12" cy="197.328" r="7.2" fill="#009af9" fill-rule="evenodd" fill-opacity="1" stroke="none"/>
<circle clip-path="url(#clip213)" cx="2830.59" cy="197.624" r="7.2" fill="#009af9" fill-rule="evenodd" fill-opacity="1" stroke="none"/>
<circle clip-path="url(#clip213)" cx="2808.05" cy="197.919" r="7.2" fill="#009af9" fill-rule="evenodd" fill-opacity="1" stroke="none"/>
<circle clip-path="url(#clip213)" cx="2785.51" cy="198.213" r="7.2" fill="#009af9" fill-rule="evenodd" fill-opacity="1" stroke="none"/>
<circle clip-path="url(#clip213)" cx="2762.97" cy="189.794" r="7.2" fill="#009af9" fill-rule="evenodd" fill-opacity="1" stroke="none"/>
<circle clip-path="url(#clip213)" cx="2740.44" cy="190.1" r="7.2" fill="#009af9" fill-rule="evenodd" fill-opacity="1" stroke="none"/>
<circle clip-path="url(#clip213)" cx="2717.9" cy="190.404" r="7.2" fill="#009af9" fill-rule="evenodd" fill-opacity="1" stroke="none"/>
<circle clip-path="url(#clip213)" cx="2695.36" cy="190.708" r="7.2" fill="#009af9" fill-rule="evenodd" fill-opacity="1" stroke="none"/>
<circle clip-path="url(#clip213)" cx="2672.82" cy="182.476" r="7.2" fill="#009af9" fill-rule="evenodd" fill-opacity="1" stroke="none"/>
<circle clip-path="url(#clip213)" cx="2650.29" cy="182.79" r="7.2" fill="#009af9" fill-rule="evenodd" fill-opacity="1" stroke="none"/>
<circle clip-path="url(#clip213)" cx="2627.75" cy="183.104" r="7.2" fill="#009af9" fill-rule="evenodd" fill-opacity="1" stroke="none"/>
<circle clip-path="url(#clip213)" cx="2605.21" cy="183.416" r="7.2" fill="#009af9" fill-rule="evenodd" fill-opacity="1" stroke="none"/>
<circle clip-path="url(#clip213)" cx="2582.68" cy="175.356" r="7.2" fill="#009af9" fill-rule="evenodd" fill-opacity="1" stroke="none"/>
<circle clip-path="url(#clip213)" cx="2560.14" cy="175.679" r="7.2" fill="#009af9" fill-rule="evenodd" fill-opacity="1" stroke="none"/>
<circle clip-path="url(#clip213)" cx="2537.6" cy="176.002" r="7.2" fill="#009af9" fill-rule="evenodd" fill-opacity="1" stroke="none"/>
<circle clip-path="url(#clip213)" cx="2515.06" cy="176.323" r="7.2" fill="#009af9" fill-rule="evenodd" fill-opacity="1" stroke="none"/>
<circle clip-path="url(#clip213)" cx="2492.53" cy="168.42" r="7.2" fill="#009af9" fill-rule="evenodd" fill-opacity="1" stroke="none"/>
<circle clip-path="url(#clip213)" cx="2469.99" cy="168.752" r="7.2" fill="#009af9" fill-rule="evenodd" fill-opacity="1" stroke="none"/>
<circle clip-path="url(#clip213)" cx="2447.45" cy="169.083" r="7.2" fill="#009af9" fill-rule="evenodd" fill-opacity="1" stroke="none"/>
<circle clip-path="url(#clip213)" cx="2424.91" cy="169.413" r="7.2" fill="#009af9" fill-rule="evenodd" fill-opacity="1" stroke="none"/>
<circle clip-path="url(#clip213)" cx="2402.38" cy="161.654" r="7.2" fill="#009af9" fill-rule="evenodd" fill-opacity="1" stroke="none"/>
<circle clip-path="url(#clip213)" cx="2379.84" cy="161.995" r="7.2" fill="#009af9" fill-rule="evenodd" fill-opacity="1" stroke="none"/>
<circle clip-path="url(#clip213)" cx="2357.3" cy="162.335" r="7.2" fill="#009af9" fill-rule="evenodd" fill-opacity="1" stroke="none"/>
<circle clip-path="url(#clip213)" cx="2334.77" cy="162.674" r="7.2" fill="#009af9" fill-rule="evenodd" fill-opacity="1" stroke="none"/>
<circle clip-path="url(#clip213)" cx="2312.23" cy="155.049" r="7.2" fill="#009af9" fill-rule="evenodd" fill-opacity="1" stroke="none"/>
<circle clip-path="url(#clip213)" cx="2289.69" cy="155.398" r="7.2" fill="#009af9" fill-rule="evenodd" fill-opacity="1" stroke="none"/>
<circle clip-path="url(#clip213)" cx="2267.15" cy="155.747" r="7.2" fill="#009af9" fill-rule="evenodd" fill-opacity="1" stroke="none"/>
<circle clip-path="url(#clip213)" cx="2244.62" cy="156.094" r="7.2" fill="#009af9" fill-rule="evenodd" fill-opacity="1" stroke="none"/>
<circle clip-path="url(#clip213)" cx="2222.08" cy="148.593" r="7.2" fill="#009af9" fill-rule="evenodd" fill-opacity="1" stroke="none"/>
<circle clip-path="url(#clip213)" cx="2199.54" cy="148.951" r="7.2" fill="#009af9" fill-rule="evenodd" fill-opacity="1" stroke="none"/>
<circle clip-path="url(#clip213)" cx="2177" cy="149.307" r="7.2" fill="#009af9" fill-rule="evenodd" fill-opacity="1" stroke="none"/>
<circle clip-path="url(#clip213)" cx="2154.47" cy="149.663" r="7.2" fill="#009af9" fill-rule="evenodd" fill-opacity="1" stroke="none"/>
<circle clip-path="url(#clip213)" cx="2131.93" cy="142.277" r="7.2" fill="#009af9" fill-rule="evenodd" fill-opacity="1" stroke="none"/>
<circle clip-path="url(#clip213)" cx="2109.39" cy="142.643" r="7.2" fill="#009af9" fill-rule="evenodd" fill-opacity="1" stroke="none"/>
<circle clip-path="url(#clip213)" cx="2086.86" cy="143.008" r="7.2" fill="#009af9" fill-rule="evenodd" fill-opacity="1" stroke="none"/>
<circle clip-path="url(#clip213)" cx="2064.32" cy="143.372" r="7.2" fill="#009af9" fill-rule="evenodd" fill-opacity="1" stroke="none"/>
<circle clip-path="url(#clip213)" cx="2041.78" cy="136.094" r="7.2" fill="#009af9" fill-rule="evenodd" fill-opacity="1" stroke="none"/>
<circle clip-path="url(#clip213)" cx="2019.24" cy="136.468" r="7.2" fill="#009af9" fill-rule="evenodd" fill-opacity="1" stroke="none"/>
<circle clip-path="url(#clip213)" cx="1996.71" cy="136.841" r="7.2" fill="#009af9" fill-rule="evenodd" fill-opacity="1" stroke="none"/>
<circle clip-path="url(#clip213)" cx="1974.17" cy="137.212" r="7.2" fill="#009af9" fill-rule="evenodd" fill-opacity="1" stroke="none"/>
<circle clip-path="url(#clip213)" cx="1951.63" cy="130.035" r="7.2" fill="#009af9" fill-rule="evenodd" fill-opacity="1" stroke="none"/>
<circle clip-path="url(#clip213)" cx="1929.1" cy="130.417" r="7.2" fill="#009af9" fill-rule="evenodd" fill-opacity="1" stroke="none"/>
<polyline clip-path="url(#clip213)" style="stroke:#e26f46; stroke-linecap:round; stroke-linejoin:round; stroke-width:4; stroke-opacity:1; fill:none" points="3055.96,697.805 3033.42,706.909 3010.88,706.633 2988.35,706.356 2965.81,706.081 2943.27,714.933 2920.73,714.647 2898.2,714.361 2875.66,714.076 2853.12,722.701 2830.59,722.405 2808.05,722.11 2785.51,721.815 2762.97,730.235 2740.44,729.929 2717.9,729.625 2695.36,729.321 2672.82,737.553 2650.29,737.239 2627.75,736.925 2605.21,736.613 2582.68,744.673 2560.14,744.35 2537.6,744.027 2515.06,743.706 2492.53,751.609 2469.99,751.277 2447.45,750.946 2424.91,750.616 2402.38,758.374 2379.84,758.034 2357.3,757.694 2334.77,757.355 2312.23,764.98 2289.69,764.631 2267.15,764.282 2244.62,763.935 2222.08,771.436 2199.54,771.078 2177,770.722 2154.47,770.366 2131.93,777.751 2109.39,777.386 2086.86,777.021 2064.32,776.657 2041.78,783.935 2019.24,783.561 1996.71,783.188 1974.17,782.817 1951.63,789.994 1929.1,789.612 "/>
<circle clip-path="url(#clip213)" cx="3055.96" cy="697.805" r="7.2" fill="#e26f46" fill-rule="evenodd" fill-opacity="1" stroke="none"/>
<circle clip-path="url(#clip213)" cx="3033.42" cy="706.909" r="7.2" fill="#e26f46" fill-rule="evenodd" fill-opacity="1" stroke="none"/>
<circle clip-path="url(#clip213)" cx="3010.88" cy="706.633" r="7.2" fill="#e26f46" fill-rule="evenodd" fill-opacity="1" stroke="none"/>
<circle clip-path="url(#clip213)" cx="2988.35" cy="706.356" r="7.2" fill="#e26f46" fill-rule="evenodd" fill-opacity="1" stroke="none"/>
<circle clip-path="url(#clip213)" cx="2965.81" cy="706.081" r="7.2" fill="#e26f46" fill-rule="evenodd" fill-opacity="1" stroke="none"/>
<circle clip-path="url(#clip213)" cx="2943.27" cy="714.933" r="7.2" fill="#e26f46" fill-rule="evenodd" fill-opacity="1" stroke="none"/>
<circle clip-path="url(#clip213)" cx="2920.73" cy="714.647" r="7.2" fill="#e26f46" fill-rule="evenodd" fill-opacity="1" stroke="none"/>
<circle clip-path="url(#clip213)" cx="2898.2" cy="714.361" r="7.2" fill="#e26f46" fill-rule="evenodd" fill-opacity="1" stroke="none"/>
<circle clip-path="url(#clip213)" cx="2875.66" cy="714.076" r="7.2" fill="#e26f46" fill-rule="evenodd" fill-opacity="1" stroke="none"/>
<circle clip-path="url(#clip213)" cx="2853.12" cy="722.701" r="7.2" fill="#e26f46" fill-rule="evenodd" fill-opacity="1" stroke="none"/>
<circle clip-path="url(#clip213)" cx="2830.59" cy="722.405" r="7.2" fill="#e26f46" fill-rule="evenodd" fill-opacity="1" stroke="none"/>
<circle clip-path="url(#clip213)" cx="2808.05" cy="722.11" r="7.2" fill="#e26f46" fill-rule="evenodd" fill-opacity="1" stroke="none"/>
<circle clip-path="url(#clip213)" cx="2785.51" cy="721.815" r="7.2" fill="#e26f46" fill-rule="evenodd" fill-opacity="1" stroke="none"/>
<circle clip-path="url(#clip213)" cx="2762.97" cy="730.235" r="7.2" fill="#e26f46" fill-rule="evenodd" fill-opacity="1" stroke="none"/>
<circle clip-path="url(#clip213)" cx="2740.44" cy="729.929" r="7.2" fill="#e26f46" fill-rule="evenodd" fill-opacity="1" stroke="none"/>
<circle clip-path="url(#clip213)" cx="2717.9" cy="729.625" r="7.2" fill="#e26f46" fill-rule="evenodd" fill-opacity="1" stroke="none"/>
<circle clip-path="url(#clip213)" cx="2695.36" cy="729.321" r="7.2" fill="#e26f46" fill-rule="evenodd" fill-opacity="1" stroke="none"/>
<circle clip-path="url(#clip213)" cx="2672.82" cy="737.553" r="7.2" fill="#e26f46" fill-rule="evenodd" fill-opacity="1" stroke="none"/>
<circle clip-path="url(#clip213)" cx="2650.29" cy="737.239" r="7.2" fill="#e26f46" fill-rule="evenodd" fill-opacity="1" stroke="none"/>
<circle clip-path="url(#clip213)" cx="2627.75" cy="736.925" r="7.2" fill="#e26f46" fill-rule="evenodd" fill-opacity="1" stroke="none"/>
<circle clip-path="url(#clip213)" cx="2605.21" cy="736.613" r="7.2" fill="#e26f46" fill-rule="evenodd" fill-opacity="1" stroke="none"/>
<circle clip-path="url(#clip213)" cx="2582.68" cy="744.673" r="7.2" fill="#e26f46" fill-rule="evenodd" fill-opacity="1" stroke="none"/>
<circle clip-path="url(#clip213)" cx="2560.14" cy="744.35" r="7.2" fill="#e26f46" fill-rule="evenodd" fill-opacity="1" stroke="none"/>
<circle clip-path="url(#clip213)" cx="2537.6" cy="744.027" r="7.2" fill="#e26f46" fill-rule="evenodd" fill-opacity="1" stroke="none"/>
<circle clip-path="url(#clip213)" cx="2515.06" cy="743.706" r="7.2" fill="#e26f46" fill-rule="evenodd" fill-opacity="1" stroke="none"/>
<circle clip-path="url(#clip213)" cx="2492.53" cy="751.609" r="7.2" fill="#e26f46" fill-rule="evenodd" fill-opacity="1" stroke="none"/>
<circle clip-path="url(#clip213)" cx="2469.99" cy="751.277" r="7.2" fill="#e26f46" fill-rule="evenodd" fill-opacity="1" stroke="none"/>
<circle clip-path="url(#clip213)" cx="2447.45" cy="750.946" r="7.2" fill="#e26f46" fill-rule="evenodd" fill-opacity="1" stroke="none"/>
<circle clip-path="url(#clip213)" cx="2424.91" cy="750.616" r="7.2" fill="#e26f46" fill-rule="evenodd" fill-opacity="1" stroke="none"/>
<circle clip-path="url(#clip213)" cx="2402.38" cy="758.374" r="7.2" fill="#e26f46" fill-rule="evenodd" fill-opacity="1" stroke="none"/>
<circle clip-path="url(#clip213)" cx="2379.84" cy="758.034" r="7.2" fill="#e26f46" fill-rule="evenodd" fill-opacity="1" stroke="none"/>
<circle clip-path="url(#clip213)" cx="2357.3" cy="757.694" r="7.2" fill="#e26f46" fill-rule="evenodd" fill-opacity="1" stroke="none"/>
<circle clip-path="url(#clip213)" cx="2334.77" cy="757.355" r="7.2" fill="#e26f46" fill-rule="evenodd" fill-opacity="1" stroke="none"/>
<circle clip-path="url(#clip213)" cx="2312.23" cy="764.98" r="7.2" fill="#e26f46" fill-rule="evenodd" fill-opacity="1" stroke="none"/>
<circle clip-path="url(#clip213)" cx="2289.69" cy="764.631" r="7.2" fill="#e26f46" fill-rule="evenodd" fill-opacity="1" stroke="none"/>
<circle clip-path="url(#clip213)" cx="2267.15" cy="764.282" r="7.2" fill="#e26f46" fill-rule="evenodd" fill-opacity="1" stroke="none"/>
<circle clip-path="url(#clip213)" cx="2244.62" cy="763.935" r="7.2" fill="#e26f46" fill-rule="evenodd" fill-opacity="1" stroke="none"/>
<circle clip-path="url(#clip213)" cx="2222.08" cy="771.436" r="7.2" fill="#e26f46" fill-rule="evenodd" fill-opacity="1" stroke="none"/>
<circle clip-path="url(#clip213)" cx="2199.54" cy="771.078" r="7.2" fill="#e26f46" fill-rule="evenodd" fill-opacity="1" stroke="none"/>
<circle clip-path="url(#clip213)" cx="2177" cy="770.722" r="7.2" fill="#e26f46" fill-rule="evenodd" fill-opacity="1" stroke="none"/>
<circle clip-path="url(#clip213)" cx="2154.47" cy="770.366" r="7.2" fill="#e26f46" fill-rule="evenodd" fill-opacity="1" stroke="none"/>
<circle clip-path="url(#clip213)" cx="2131.93" cy="777.751" r="7.2" fill="#e26f46" fill-rule="evenodd" fill-opacity="1" stroke="none"/>
<circle clip-path="url(#clip213)" cx="2109.39" cy="777.386" r="7.2" fill="#e26f46" fill-rule="evenodd" fill-opacity="1" stroke="none"/>
<circle clip-path="url(#clip213)" cx="2086.86" cy="777.021" r="7.2" fill="#e26f46" fill-rule="evenodd" fill-opacity="1" stroke="none"/>
<circle clip-path="url(#clip213)" cx="2064.32" cy="776.657" r="7.2" fill="#e26f46" fill-rule="evenodd" fill-opacity="1" stroke="none"/>
<circle clip-path="url(#clip213)" cx="2041.78" cy="783.935" r="7.2" fill="#e26f46" fill-rule="evenodd" fill-opacity="1" stroke="none"/>
<circle clip-path="url(#clip213)" cx="2019.24" cy="783.561" r="7.2" fill="#e26f46" fill-rule="evenodd" fill-opacity="1" stroke="none"/>
<circle clip-path="url(#clip213)" cx="1996.71" cy="783.188" r="7.2" fill="#e26f46" fill-rule="evenodd" fill-opacity="1" stroke="none"/>
<circle clip-path="url(#clip213)" cx="1974.17" cy="782.817" r="7.2" fill="#e26f46" fill-rule="evenodd" fill-opacity="1" stroke="none"/>
<circle clip-path="url(#clip213)" cx="1951.63" cy="789.994" r="7.2" fill="#e26f46" fill-rule="evenodd" fill-opacity="1" stroke="none"/>
<circle clip-path="url(#clip213)" cx="1929.1" cy="789.612" r="7.2" fill="#e26f46" fill-rule="evenodd" fill-opacity="1" stroke="none"/>
</svg>
