<?xml version="1.0" encoding="utf-8"?>
<svg xmlns="http://www.w3.org/2000/svg" xmlns:xlink="http://www.w3.org/1999/xlink" width="400" height="250" viewBox="0 0 1600 1000">
<defs>
  <clipPath id="clip990">
    <rect x="0" y="0" width="1600" height="1000"/>
  </clipPath>
</defs>
<path clip-path="url(#clip990)" d="M0 1000 L1600 1000 L1600 0 L0 0  Z" fill="#ffffff" fill-rule="evenodd" fill-opacity="1"/>
<defs>
  <clipPath id="clip991">
    <rect x="320" y="0" width="1121" height="1000"/>
  </clipPath>
</defs>
<path clip-path="url(#clip990)" d="M3.14961 996.85 L1596.85 996.85 L1596.85 3.14961 L3.14961 3.14961  Z" fill="#ffffff" fill-rule="evenodd" fill-opacity="1"/>
<defs>
  <clipPath id="clip992">
    <rect x="3" y="3" width="1595" height="995"/>
  </clipPath>
</defs>
<polyline clip-path="url(#clip990)" style="stroke:#000000; stroke-linecap:round; stroke-linejoin:round; stroke-width:4; stroke-opacity:1; fill:none" points="3.14961,996.85 1596.85,996.85 "/>
<polyline clip-path="url(#clip990)" style="stroke:#000000; stroke-linecap:round; stroke-linejoin:round; stroke-width:4; stroke-opacity:1; fill:none" points="3.14961,3.14961 1596.85,3.14961 "/>
<polyline clip-path="url(#clip990)" style="stroke:#000000; stroke-linecap:round; stroke-linejoin:round; stroke-width:4; stroke-opacity:1; fill:none" points="3.14961,996.85 3.14961,3.14961 "/>
<polyline clip-path="url(#clip990)" style="stroke:#000000; stroke-linecap:round; stroke-linejoin:round; stroke-width:4; stroke-opacity:1; fill:none" points="1596.85,996.85 1596.85,3.14961 "/>
<polyline clip-path="url(#clip992)" style="stroke:#000000; stroke-linecap:round; stroke-linejoin:round; stroke-width:4; stroke-opacity:1; fill:none" points="-1590.55,500 3190.55,500 "/>
<path clip-path="url(#clip992)" d="M527.585 211.575 L527.585 291.575 L607.585 291.575 L607.585 211.575 L527.585 211.575 Z" fill="#ffff00" fill-rule="evenodd" fill-opacity="1" stroke="#000000" stroke-opacity="1" stroke-width="4"/>
<path clip-path="url(#clip992)" d="M992.415 708.425 L992.415 788.425 L1072.41 788.425 L1072.41 708.425 L992.415 708.425 Z" fill="#ffff00" fill-rule="evenodd" fill-opacity="1" stroke="#000000" stroke-opacity="1" stroke-width="4"/>
<polyline clip-path="url(#clip992)" style="stroke:#008000; stroke-linecap:round; stroke-linejoin:round; stroke-width:4; stroke-opacity:1; fill:none" points="-1192.13,500 -1188.14,500.568 -1184.16,501.135 -1180.17,501.701 -1176.19,502.263 -1172.2,502.821 -1168.22,503.375 -1164.24,503.922 -1160.25,504.462 -1156.27,504.995 -1152.28,505.519 -1148.3,506.033 -1144.31,506.536 -1140.33,507.028 -1136.35,507.508 -1132.36,507.974 -1128.38,508.427 -1124.39,508.864 -1120.41,509.286 -1116.43,509.691 -1112.44,510.08 -1108.46,510.45 -1104.47,510.802 -1100.49,511.135 -1096.5,511.449 -1092.52,511.742 -1088.54,512.014 -1084.55,512.265 -1080.57,512.494 -1076.58,512.701 -1072.6,512.886 -1068.61,513.048 -1064.63,513.186 -1060.65,513.301 -1056.66,513.393 -1052.68,513.46 -1048.69,513.504 -1044.71,513.523 -1040.72,513.518 -1036.74,513.49 -1032.76,513.437 -1028.77,513.359 -1024.79,513.258 -1020.8,513.133 -1016.82,512.985 -1012.83,512.813 -1008.85,512.618 -1004.87,512.4 -1000.88,512.159 -996.898,511.897 -992.913,511.613 -988.929,511.307 -984.945,510.981 -980.961,510.635 -976.976,510.27 -972.992,509.885 -969.008,509.482 -965.024,509.062 -961.039,508.624 -957.055,508.171 -953.071,507.702 -949.087,507.218 -945.102,506.721 -941.118,506.211 -937.134,505.689 -933.15,505.156 -929.165,504.612 -925.181,504.06 -921.197,503.498 -917.213,502.93 -913.228,502.355 -909.244,501.775 -905.26,501.191 -901.276,500.603 -897.291,500.013 -893.307,499.422 -889.323,498.83 -885.339,498.239 -881.354,497.651 -877.37,497.065 -873.386,496.483 -869.402,495.906 -865.417,495.335 -861.433,494.771 -857.449,494.215 -853.465,493.668 -849.48,493.131 -845.496,492.606 -841.512,492.092 -837.528,491.591 -833.543,491.104 -829.559,490.632 -825.575,490.175 -821.591,489.735 -817.606,489.311 -813.622,488.906 -809.638,488.52 -805.654,488.154 -801.669,487.807 -797.685,487.482 -793.701,487.178 -789.717,486.896 -785.732,486.637 -781.748,486.402 -777.764,486.19 -773.78,486.002 -769.795,485.839 -765.811,485.701 -761.827,485.588 -757.843,485.501 -753.858,485.439 -749.874,485.404 -745.89,485.395 -741.906,485.412 -737.921,485.455 -733.937,485.525 -729.953,485.621 -725.969,485.743 -721.984,485.892 -718,486.066 -714.016,486.266 -710.031,486.491 -706.047,486.742 -702.063,487.018 -698.079,487.318 -694.094,487.642 -690.11,487.989 -686.126,488.36 -682.142,488.752 -678.157,489.167 -674.173,489.603 -670.189,490.059 -666.205,490.535 -662.22,491.031 -658.236,491.544 -654.252,492.075 -650.268,492.622 -646.283,493.185 -642.299,493.762 -638.315,494.353 -634.331,494.957 -630.346,495.573 -626.362,496.199 -622.378,496.835 -618.394,497.48 -614.409,498.131 -610.425,498.79 -606.441,499.453 -602.457,500.12 -598.472,500.791 -594.488,501.463 -590.504,502.135 -586.52,502.807 -582.535,503.477 -578.551,504.143 -574.567,504.806 -570.583,505.463 -566.598,506.113 -562.614,506.756 -558.63,507.389 -554.646,508.012 -550.661,508.624 -546.677,509.223 -542.693,509.809 -538.709,510.38 -534.724,510.935 -530.74,511.473 -526.756,511.993 -522.772,512.494 -518.787,512.975 -514.803,513.435 -510.819,513.874 -506.835,514.289 -502.85,514.681 -498.866,515.048 -494.882,515.39 -490.898,515.705 -486.913,515.994 -482.929,516.256 -478.945,516.489 -474.961,516.694 -470.976,516.869 -466.992,517.015 -463.008,517.13 -459.024,517.215 -455.039,517.269 -451.055,517.292 -447.071,517.283 -443.087,517.243 -439.102,517.171 -435.118,517.067 -431.134,516.931 -427.15,516.763 -423.165,516.564 -419.181,516.332 -415.197,516.07 -411.213,515.776 -407.228,515.451 -403.244,515.096 -399.26,514.71 -395.276,514.295 -391.291,513.851 -387.307,513.378 -383.323,512.877 -379.339,512.349 -375.354,511.794 -371.37,511.214 -367.386,510.609 -363.402,509.98 -359.417,509.327 -355.433,508.653 -351.449,507.958 -347.465,507.243 -343.48,506.509 -339.496,505.757 -335.512,504.988 -331.528,504.205 -327.543,503.408 -323.559,502.597 -319.575,501.776 -315.591,500.945 -311.606,500.105 -307.622,499.257 -303.638,498.405 -299.654,497.548 -295.669,496.688 -291.685,495.827 -287.701,494.967 -283.717,494.108 -279.732,493.253 -275.748,492.403 -271.764,491.56 -267.78,490.724 -263.795,489.898 -259.811,489.084 -255.827,488.282 -251.843,487.495 -247.858,486.724 -243.874,485.97 -239.89,485.235 -235.906,484.521 -231.921,483.828 -227.937,483.159 -223.953,482.515 -219.969,481.898 -215.984,481.308 -212,480.746 -208.016,480.216 -204.031,479.716 -200.047,479.25 -196.063,478.817 -192.079,478.42 -188.094,478.059 -184.11,477.735 -180.126,477.449 -176.142,477.202 -172.157,476.996 -168.173,476.83 -164.189,476.706 -160.205,476.624 -156.22,476.585 -152.236,476.59 -148.252,476.639 -144.268,476.732 -140.283,476.87 -136.299,477.054 -132.315,477.282 -128.331,477.556 -124.346,477.876 -120.362,478.241 -116.378,478.651 -112.394,479.107 -108.409,479.608 -104.425,480.153 -100.441,480.743 -96.4567,481.377 -92.4724,482.054 -88.4882,482.773 -84.5039,483.535 -80.5197,484.338 -76.5354,485.181 -72.5512,486.063 -68.5669,486.984 -64.5827,487.941 -60.5984,488.935 -56.6142,489.963 -52.6299,491.025 -48.6457,492.118 -44.6614,493.242 -40.6772,494.395 -36.6929,495.575 -32.7087,496.781 -28.7244,498.01 -24.7402,499.262 -20.7559,500.533 -16.7717,501.823 -12.7874,503.128 -8.80315,504.448 -4.8189,505.779 -0.834646,507.12 3.14961,508.468 7.13386,509.822 11.1181,511.178 15.1024,512.535 19.0866,513.889 23.0709,515.24 27.0551,516.583 31.0394,517.917 35.0236,519.239 39.0079,520.546 42.9921,521.837 46.9764,523.107 50.9606,524.355 54.9449,525.579 58.9291,526.774 62.9134,527.94 66.8976,529.073 70.8819,530.17 74.8661,531.229 78.8504,532.247 82.8346,533.222 86.8189,534.151 90.8031,535.032 94.7874,535.861 98.7717,536.637 102.756,537.357 106.74,538.019 110.724,538.619 114.709,539.157 118.693,539.629 122.677,540.033 126.661,540.368 130.646,540.63 134.63,540.818 138.614,540.93 142.598,540.964 146.583,540.918 150.567,540.79 154.551,540.579 158.535,540.282 162.52,539.899 166.504,539.427 170.488,538.866 174.472,538.214 178.457,537.47 182.441,536.633 186.425,535.702 190.409,534.675 194.394,533.553 198.378,532.335 202.362,531.019 206.346,529.606 210.331,528.095 214.315,526.486 218.299,524.779 222.283,522.974 226.268,521.07 230.252,519.069 234.236,516.97 238.22,514.775 242.205,512.482 246.189,510.095 250.173,507.612 254.157,505.036 258.142,502.366 262.126,499.606 266.11,496.755 270.094,493.815 274.079,490.788 278.063,487.676 282.047,484.48 286.031,481.203 290.016,477.846 294,474.411 297.984,470.901 301.969,467.319 305.953,463.666 309.937,459.946 313.921,456.161 317.906,452.314 321.89,448.408 325.874,444.446 329.858,440.431 333.843,436.366 337.827,432.256 341.811,428.102 345.795,423.909 349.78,419.68 353.764,415.419 357.748,411.13 361.732,406.816 365.717,402.482 369.701,398.131 373.685,393.767 377.669,389.395 381.654,385.018 385.638,380.641 389.622,376.268 393.606,371.903 397.591,367.55 401.575,363.214 405.559,358.9 409.543,354.611 413.528,350.352 417.512,346.127 421.496,341.94 425.48,337.797 429.465,333.702 433.449,329.658 437.433,325.671 441.417,321.744 445.402,317.882 449.386,314.09 453.37,310.371 457.354,306.731 461.339,303.172 465.323,299.7 469.307,296.318 473.291,293.03 477.276,289.841 481.26,286.754 485.244,283.773 489.228,280.903 493.213,278.146 497.197,275.507 501.181,272.988 505.165,270.594 509.15,268.327 513.134,266.192 517.118,264.19 521.102,262.325 525.087,260.601 529.071,259.019 533.055,257.583 537.039,256.295 541.024,255.157 545.008,254.172 548.992,253.343 552.976,252.67 556.961,252.156 560.945,251.802 564.929,251.611 568.913,251.584 572.898,251.722 576.882,252.025 580.866,252.497 584.85,253.136 588.835,253.944 592.819,254.921 596.803,256.068 600.787,257.385 604.772,258.871 608.756,260.528 612.74,262.355 616.724,264.35 620.709,266.514 624.693,268.846 628.677,271.346 632.661,274.011 636.646,276.84 640.63,279.833 644.614,282.988 648.598,286.303 652.583,289.776 656.567,293.405 660.551,297.189 664.535,301.124 668.52,305.208 672.504,309.439 676.488,313.813 680.472,318.329 684.457,322.983 688.441,327.771 692.425,332.69 696.409,337.738 700.394,342.91 704.378,348.203 708.362,353.612 712.346,359.134 716.331,364.765 720.315,370.501 724.299,376.337 728.283,382.27 732.268,388.293 736.252,394.404 740.236,400.597 744.22,406.868 748.205,413.211 752.189,419.623 756.173,426.097 760.157,432.63 764.142,439.215 768.126,445.848 772.11,452.523 776.094,459.236 780.079,465.981 784.063,472.752 788.047,479.546 792.031,486.355 796.016,493.175 800,500 803.984,506.825 807.969,513.645 811.953,520.454 815.937,527.248 819.921,534.019 823.906,540.764 827.89,547.477 831.874,554.152 835.858,560.785 839.843,567.37 843.827,573.903 847.811,580.377 851.795,586.789 855.78,593.132 859.764,599.403 863.748,605.596 867.732,611.707 871.717,617.73 875.701,623.663 879.685,629.499 883.669,635.235 887.654,640.866 891.638,646.388 895.622,651.797 899.606,657.09 903.591,662.262 907.575,667.31 911.559,672.229 915.543,677.017 919.528,681.671 923.512,686.187 927.496,690.561 931.48,694.792 935.465,698.876 939.449,702.811 943.433,706.595 947.417,710.224 951.402,713.697 955.386,717.012 959.37,720.167 963.354,723.16 967.339,725.989 971.323,728.654 975.307,731.154 979.291,733.486 983.276,735.65 987.26,737.645 991.244,739.472 995.228,741.129 999.213,742.615 1003.2,743.932 1007.18,745.079 1011.17,746.056 1015.15,746.864 1019.13,747.503 1023.12,747.975 1027.1,748.278 1031.09,748.416 1035.07,748.389 1039.06,748.198 1043.04,747.844 1047.02,747.33 1051.01,746.657 1054.99,745.828 1058.98,744.843 1062.96,743.705 1066.94,742.417 1070.93,740.981 1074.91,739.399 1078.9,737.675 1082.88,735.81 1086.87,733.808 1090.85,731.673 1094.83,729.406 1098.82,727.012 1102.8,724.493 1106.79,721.854 1110.77,719.097 1114.76,716.227 1118.74,713.246 1122.72,710.159 1126.71,706.97 1130.69,703.682 1134.68,700.3 1138.66,696.828 1142.65,693.269 1146.63,689.629 1150.61,685.91 1154.6,682.118 1158.58,678.256 1162.57,674.329 1166.55,670.342 1170.54,666.298 1174.52,662.203 1178.5,658.06 1182.49,653.873 1186.47,649.648 1190.46,645.389 1194.44,641.1 1198.43,636.786 1202.41,632.45 1206.39,628.097 1210.38,623.732 1214.36,619.359 1218.35,614.982 1222.33,610.605 1226.31,606.233 1230.3,601.869 1234.28,597.518 1238.27,593.184 1242.25,588.87 1246.24,584.581 1250.22,580.32 1254.2,576.091 1258.19,571.898 1262.17,567.744 1266.16,563.634 1270.14,559.569 1274.13,555.554 1278.11,551.592 1282.09,547.686 1286.08,543.839 1290.06,540.054 1294.05,536.334 1298.03,532.681 1302.02,529.099 1306,525.589 1309.98,522.154 1313.97,518.797 1317.95,515.52 1321.94,512.324 1325.92,509.212 1329.91,506.185 1333.89,503.245 1337.87,500.394 1341.86,497.634 1345.84,494.964 1349.83,492.388 1353.81,489.905 1357.8,487.518 1361.78,485.225 1365.76,483.03 1369.75,480.931 1373.73,478.93 1377.72,477.026 1381.7,475.221 1385.69,473.514 1389.67,471.905 1393.65,470.394 1397.64,468.981 1401.62,467.665 1405.61,466.447 1409.59,465.325 1413.57,464.298 1417.56,463.367 1421.54,462.53 1425.53,461.786 1429.51,461.134 1433.5,460.573 1437.48,460.101 1441.46,459.718 1445.45,459.421 1449.43,459.21 1453.42,459.082 1457.4,459.036 1461.39,459.07 1465.37,459.182 1469.35,459.37 1473.34,459.632 1477.32,459.967 1481.31,460.371 1485.29,460.843 1489.28,461.381 1493.26,461.981 1497.24,462.643 1501.23,463.363 1505.21,464.139 1509.2,464.968 1513.18,465.849 1517.17,466.778 1521.15,467.753 1525.13,468.771 1529.12,469.83 1533.1,470.927 1537.09,472.06 1541.07,473.226 1545.06,474.421 1549.04,475.645 1553.02,476.893 1557.01,478.163 1560.99,479.454 1564.98,480.761 1568.96,482.083 1572.94,483.417 1576.93,484.76 1580.91,486.111 1584.9,487.465 1588.88,488.822 1592.87,490.178 1596.85,491.532 1600.83,492.88 1604.82,494.221 1608.8,495.552 1612.79,496.872 1616.77,498.177 1620.76,499.467 1624.74,500.738 1628.72,501.99 1632.71,503.219 1636.69,504.425 1640.68,505.605 1644.66,506.758 1648.65,507.882 1652.63,508.975 1656.61,510.037 1660.6,511.065 1664.58,512.059 1668.57,513.016 1672.55,513.937 1676.54,514.819 1680.52,515.662 1684.5,516.465 1688.49,517.227 1692.47,517.946 1696.46,518.623 1700.44,519.257 1704.43,519.847 1708.41,520.392 1712.39,520.893 1716.38,521.349 1720.36,521.759 1724.35,522.124 1728.33,522.444 1732.31,522.718 1736.3,522.946 1740.28,523.13 1744.27,523.268 1748.25,523.361 1752.24,523.41 1756.22,523.415 1760.2,523.376 1764.19,523.294 1768.17,523.17 1772.16,523.004 1776.14,522.798 1780.13,522.551 1784.11,522.265 1788.09,521.941 1792.08,521.58 1796.06,521.183 1800.05,520.75 1804.03,520.284 1808.02,519.784 1812,519.254 1815.98,518.692 1819.97,518.102 1823.95,517.485 1827.94,516.841 1831.92,516.172 1835.91,515.479 1839.89,514.765 1843.87,514.03 1847.86,513.276 1851.84,512.505 1855.83,511.718 1859.81,510.916 1863.8,510.102 1867.78,509.276 1871.76,508.44 1875.75,507.597 1879.73,506.747 1883.72,505.892 1887.7,505.033 1891.69,504.173 1895.67,503.312 1899.65,502.452 1903.64,501.595 1907.62,500.743 1911.61,499.895 1915.59,499.055 1919.57,498.224 1923.56,497.403 1927.54,496.592 1931.53,495.795 1935.51,495.012 1939.5,494.243 1943.48,493.491 1947.46,492.757 1951.45,492.042 1955.43,491.347 1959.42,490.673 1963.4,490.02 1967.39,489.391 1971.37,488.786 1975.35,488.206 1979.34,487.651 1983.32,487.123 1987.31,486.622 1991.29,486.149 1995.28,485.705 1999.26,485.29 2003.24,484.904 2007.23,484.549 2011.21,484.224 2015.2,483.93 2019.18,483.668 2023.17,483.436 2027.15,483.237 2031.13,483.069 2035.12,482.933 2039.1,482.829 2043.09,482.757 2047.07,482.717 2051.06,482.708 2055.04,482.731 2059.02,482.785 2063.01,482.87 2066.99,482.985 2070.98,483.131 2074.96,483.306 2078.94,483.511 2082.93,483.744 2086.91,484.006 2090.9,484.295 2094.88,484.61 2098.87,484.952 2102.85,485.319 2106.83,485.711 2110.82,486.126 2114.8,486.565 2118.79,487.025 2122.77,487.506 2126.76,488.007 2130.74,488.527 2134.72,489.065 2138.71,489.62 2142.69,490.191 2146.68,490.777 2150.66,491.376 2154.65,491.988 2158.63,492.611 2162.61,493.244 2166.6,493.887 2170.58,494.537 2174.57,495.194 2178.55,495.857 2182.54,496.523 2186.52,497.193 2190.5,497.865 2194.49,498.537 2198.47,499.209 2202.46,499.88 2206.44,500.547 2210.43,501.21 2214.41,501.869 2218.39,502.52 2222.38,503.165 2226.36,503.801 2230.35,504.427 2234.33,505.043 2238.31,505.647 2242.3,506.238 2246.28,506.815 2250.27,507.378 2254.25,507.925 2258.24,508.456 2262.22,508.969 2266.2,509.465 2270.19,509.941 2274.17,510.397 2278.16,510.833 2282.14,511.248 2286.13,511.64 2290.11,512.011 2294.09,512.358 2298.08,512.682 2302.06,512.982 2306.05,513.258 2310.03,513.509 2314.02,513.734 2318,513.934 2321.98,514.108 2325.97,514.257 2329.95,514.379 2333.94,514.475 2337.92,514.545 2341.91,514.588 2345.89,514.605 2349.87,514.596 2353.86,514.561 2357.84,514.499 2361.83,514.412 2365.81,514.299 2369.8,514.161 2373.78,513.998 2377.76,513.81 2381.75,513.598 2385.73,513.363 2389.72,513.104 2393.7,512.822 2397.69,512.518 2401.67,512.193 2405.65,511.846 2409.64,511.48 2413.62,511.094 2417.61,510.689 2421.59,510.265 2425.57,509.825 2429.56,509.368 2433.54,508.896 2437.53,508.409 2441.51,507.908 2445.5,507.394 2449.48,506.869 2453.46,506.332 2457.45,505.785 2461.43,505.229 2465.42,504.665 2469.4,504.094 2473.39,503.517 2477.37,502.935 2481.35,502.349 2485.34,501.761 2489.32,501.17 2493.31,500.578 2497.29,499.987 2501.28,499.397 2505.26,498.809 2509.24,498.225 2513.23,497.645 2517.21,497.07 2521.2,496.502 2525.18,495.94 2529.17,495.388 2533.15,494.844 2537.13,494.311 2541.12,493.789 2545.1,493.279 2549.09,492.782 2553.07,492.298 2557.06,491.829 2561.04,491.376 2565.02,490.938 2569.01,490.518 2572.99,490.115 2576.98,489.73 2580.96,489.365 2584.94,489.019 2588.93,488.693 2592.91,488.387 2596.9,488.103 2600.88,487.841 2604.87,487.6 2608.85,487.382 2612.83,487.187 2616.82,487.015 2620.8,486.867 2624.79,486.742 2628.77,486.641 2632.76,486.563 2636.74,486.51 2640.72,486.482 2644.71,486.477 2648.69,486.496 2652.68,486.54 2656.66,486.607 2660.65,486.699 2664.63,486.814 2668.61,486.952 2672.6,487.114 2676.58,487.299 2680.57,487.506 2684.55,487.735 2688.54,487.986 2692.52,488.258 2696.5,488.551 2700.49,488.865 2704.47,489.198 2708.46,489.55 2712.44,489.92 2716.43,490.309 2720.41,490.714 2724.39,491.136 2728.38,491.573 2732.36,492.026 2736.35,492.492 2740.33,492.972 2744.31,493.464 2748.3,493.967 2752.28,494.481 2756.27,495.005 2760.25,495.538 2764.24,496.078 2768.22,496.625 2772.2,497.179 2776.19,497.737 2780.17,498.299 2784.16,498.865 2788.14,499.432 2792.13,500 "/>
<polyline clip-path="url(#clip992)" style="stroke:#000000; stroke-linecap:round; stroke-linejoin:round; stroke-width:4; stroke-opacity:1; fill:none" stroke-dasharray="16, 10" points="-1590.55,251.575 3190.55,251.575 "/>
<polyline clip-path="url(#clip992)" style="stroke:#000000; stroke-linecap:round; stroke-linejoin:round; stroke-width:4; stroke-opacity:1; fill:none" stroke-dasharray="16, 10" points="-1590.55,748.425 3190.55,748.425 "/>
<line clip-path="url(#clip992)" x1="567.584" y1="251.575" x2="527.584" y2="211.575" style="stroke:#ff0000; stroke-width:4; stroke-opacity:1"/>
<line clip-path="url(#clip992)" x1="567.584" y1="251.575" x2="527.584" y2="291.575" style="stroke:#ff0000; stroke-width:4; stroke-opacity:1"/>
<line clip-path="url(#clip992)" x1="567.584" y1="251.575" x2="607.584" y2="291.575" style="stroke:#ff0000; stroke-width:4; stroke-opacity:1"/>
<line clip-path="url(#clip992)" x1="567.584" y1="251.575" x2="607.584" y2="211.575" style="stroke:#ff0000; stroke-width:4; stroke-opacity:1"/>
<line clip-path="url(#clip992)" x1="1032.41" y1="748.425" x2="992.414" y2="708.425" style="stroke:#ff0000; stroke-width:4; stroke-opacity:1"/>
<line clip-path="url(#clip992)" x1="1032.41" y1="748.425" x2="992.414" y2="788.425" style="stroke:#ff0000; stroke-width:4; stroke-opacity:1"/>
<line clip-path="url(#clip992)" x1="1032.41" y1="748.425" x2="1072.41" y2="788.425" style="stroke:#ff0000; stroke-width:4; stroke-opacity:1"/>
<line clip-path="url(#clip992)" x1="1032.41" y1="748.425" x2="1072.41" y2="708.425" style="stroke:#ff0000; stroke-width:4; stroke-opacity:1"/>
<path clip-path="url(#clip990)" d="M56.273 347.313 L299.849 347.313 L299.849 36.273 L56.273 36.273  Z" fill="#ffffff" fill-rule="evenodd" fill-opacity="1"/>
<polyline clip-path="url(#clip990)" style="stroke:#000000; stroke-linecap:round; stroke-linejoin:round; stroke-width:4; stroke-opacity:1; fill:none" points="56.273,347.313 299.849,347.313 299.849,36.273 56.273,36.273 56.273,347.313 "/>
<path clip-path="url(#clip990)" d="M92.195 79.1239 L92.195 148.942 L162.013 148.942 L162.013 79.1239 L92.195 79.1239 Z" fill="#ffff00" fill-rule="evenodd" fill-opacity="1" stroke="#000000" stroke-opacity="1" stroke-width="3.49091"/>
<path clip-path="url(#clip990)" d="M236.934 101.283 Q236.02 105.815 234.79 108.415 Q232.823 112.385 229.45 112.385 Q227.061 112.385 225.234 110.945 Q223.442 109.504 222.986 107.115 Q222.072 108.204 221.405 108.837 Q220.772 109.469 219.507 110.453 Q218.278 111.401 216.732 111.893 Q215.186 112.385 213.429 112.385 Q209.143 112.385 206.438 110.137 Q202.784 124.858 202.468 125.595 Q201.449 127.106 199.973 127.106 Q199.06 127.106 198.497 126.544 Q197.935 126.017 197.935 125.174 Q197.97 124.893 198.181 124.014 L208.51 82.3811 Q208.792 81.2568 209.494 80.6244 Q210.232 79.9568 210.654 79.8866 Q211.075 79.7812 211.391 79.7812 Q212.34 79.7812 212.902 80.3082 Q213.499 80.8 213.499 81.7135 Q213.499 81.8541 213.289 82.6621 Q213.113 83.4351 212.832 84.6296 Q212.551 85.789 212.41 86.316 L209.389 98.402 Q208.37 102.548 208.37 104.515 Q208.37 107.502 209.705 109.153 Q211.075 110.769 213.71 110.769 Q215.362 110.769 216.907 110.102 Q218.453 109.399 219.507 108.45 Q220.561 107.502 221.405 106.483 Q222.248 105.429 222.634 104.761 Q223.021 104.059 223.056 103.883 L224.918 96.5399 L228.326 83.0837 Q228.537 82.2405 228.923 81.6784 Q229.345 81.0811 229.837 80.8703 Q230.328 80.6595 230.61 80.6244 Q230.891 80.5541 231.137 80.5541 Q232.015 80.5541 232.612 81.0811 Q233.209 81.6081 233.209 82.5216 Q233.209 82.6973 232.999 83.5405 Q232.823 84.3485 232.542 85.5431 Q232.261 86.7025 232.12 87.3349 Q230.996 91.7617 230.891 92.2185 L228.888 99.983 Q228.783 100.44 228.431 101.915 Q228.115 103.391 227.939 104.164 Q227.764 104.902 227.588 105.921 Q227.448 106.904 227.448 107.466 Q227.448 110.769 229.626 110.769 Q230.469 110.769 231.207 110.277 Q231.945 109.75 232.437 109.012 Q232.964 108.275 233.455 107.01 Q233.982 105.71 234.299 104.656 Q234.615 103.567 235.072 101.88 Q235.247 101.072 235.423 100.826 Q235.599 100.58 236.09 100.58 Q236.934 100.58 236.934 101.283 Z" fill="#000000" fill-rule="nonzero" fill-opacity="1" /><path clip-path="url(#clip990)" d="M244.23 130.776 Q244.23 123.373 246.099 119.34 Q248.706 113.339 254.854 113.339 Q256.158 113.339 257.51 113.708 Q258.888 114.052 260.609 115.405 Q262.355 116.758 263.413 118.971 Q265.429 123.25 265.429 130.776 Q265.429 138.129 263.56 142.138 Q260.83 147.991 254.805 147.991 Q252.542 147.991 250.231 146.835 Q247.943 145.68 246.492 142.9 Q244.23 138.744 244.23 130.776 M248.411 130.161 Q248.411 137.76 248.952 140.785 Q249.567 144.056 251.239 145.483 Q252.936 146.885 254.805 146.885 Q256.822 146.885 258.494 145.384 Q260.191 143.86 260.708 140.589 Q261.273 137.367 261.249 130.161 Q261.249 123.152 260.757 120.348 Q260.093 117.077 258.322 115.774 Q256.576 114.446 254.805 114.446 Q254.141 114.446 253.428 114.642 Q252.739 114.839 251.731 115.405 Q250.723 115.971 249.936 117.372 Q249.173 118.774 248.804 120.889 Q248.411 123.619 248.411 130.161 Z" fill="#000000" fill-rule="nonzero" fill-opacity="1" /><polyline clip-path="url(#clip990)" style="stroke:#008000; stroke-linecap:round; stroke-linejoin:round; stroke-width:6; stroke-opacity:1; fill:none" points="73.9808,191.793 180.227,191.793 "/>
<path clip-path="url(#clip990)" d="M231.558 164.979 Q231.558 166.947 230.961 169.16 L222.775 201.729 Q222.037 204.61 219.824 204.61 Q218.91 204.61 218.348 204.048 Q217.821 203.521 217.821 202.678 Q217.821 202.397 218.032 201.519 L226.218 168.423 Q226.956 165.401 226.956 163.89 Q226.956 158.866 223.056 158.866 Q219.613 158.866 216.17 161.396 Q214.589 162.661 213.043 164.944 Q211.532 167.193 211.251 168.001 Q210.935 169.828 210.478 171.233 Q210.267 172.217 209.248 176.047 L207.667 182.546 Q206.543 187.395 206.297 187.852 Q205.946 188.835 205.173 189.362 Q204.4 189.889 203.627 189.889 Q202.749 189.889 202.151 189.362 Q201.554 188.835 201.554 187.922 Q201.554 187.781 201.659 187.254 Q201.765 186.727 201.94 185.989 Q202.116 185.252 202.186 184.83 L206.367 168.212 Q207.14 165.19 207.316 164.242 Q207.527 163.258 207.527 162.169 Q207.527 160.272 206.929 159.569 Q206.332 158.866 205.278 158.866 Q203.451 158.866 202.257 161.045 Q201.062 163.223 200.043 167.439 Q199.727 168.598 199.516 168.844 Q199.341 169.09 198.814 169.09 Q197.935 169.055 197.935 168.352 Q197.935 168.177 198.216 167.052 Q198.497 165.893 199.024 164.207 Q199.587 162.485 200.184 161.396 Q200.535 160.658 200.851 160.166 Q201.168 159.674 201.8 158.901 Q202.432 158.128 203.381 157.707 Q204.33 157.285 205.489 157.285 Q208.054 157.285 209.951 158.937 Q211.883 160.588 212.129 163.539 Q212.867 162.45 213.816 161.466 Q214.799 160.482 216.17 159.499 Q217.54 158.48 219.402 157.882 Q221.264 157.285 223.267 157.285 Q227.272 157.285 229.415 159.358 Q231.558 161.396 231.558 164.979 Z" fill="#000000" fill-rule="nonzero" fill-opacity="1" /><path clip-path="url(#clip990)" d="M274.814 191.109 Q274.764 192.019 274.15 192.068 Q273.215 192.117 272.649 192.24 Q272.084 192.339 271.198 192.708 Q270.313 193.076 269.452 193.962 Q268.591 194.847 267.706 196.249 L249.581 225.097 Q249.261 225.638 248.99 225.811 Q248.744 226.007 248.179 226.007 Q247.662 226.007 247.465 225.786 Q247.269 225.589 247.17 224.851 L243.186 193.765 Q243.112 193.199 243.039 192.954 Q242.965 192.708 242.67 192.462 Q242.399 192.216 241.809 192.142 Q241.219 192.068 240.161 192.068 Q239.669 192.068 239.448 192.044 Q239.251 192.019 239.079 191.896 Q238.907 191.748 238.907 191.453 Q238.907 191.011 239.079 190.789 Q239.276 190.543 239.423 190.519 Q239.596 190.494 239.866 190.494 Q240.284 190.494 241.194 190.543 Q242.104 190.593 242.571 190.593 Q243.014 190.593 243.949 190.617 Q244.883 190.642 245.35 190.642 Q246.383 190.642 248.474 190.568 Q250.589 190.494 251.597 190.494 Q252.286 190.494 252.286 191.06 Q252.286 191.748 251.991 191.921 Q251.696 192.068 251.032 192.068 Q249.359 192.068 248.449 192.486 Q247.564 192.904 247.564 193.568 L250.982 220.228 L266.452 195.634 Q267.214 194.478 267.214 193.716 Q267.214 192.24 264.878 192.068 Q264.091 192.068 264.091 191.453 Q264.091 191.011 264.287 190.789 Q264.484 190.543 264.632 190.519 Q264.804 190.494 265.05 190.494 Q265.861 190.494 267.509 190.568 Q269.182 190.642 270.018 190.642 Q270.706 190.642 272.108 190.568 Q273.51 190.494 274.15 190.494 Q274.814 190.494 274.814 191.109 Z" fill="#000000" fill-rule="nonzero" fill-opacity="1" /><line clip-path="url(#clip990)" x1="127.104" y1="269.553" x2="92.195" y2="234.644" style="stroke:#ff0000; stroke-width:3.49091; stroke-opacity:1"/>
<line clip-path="url(#clip990)" x1="127.104" y1="269.553" x2="92.195" y2="304.462" style="stroke:#ff0000; stroke-width:3.49091; stroke-opacity:1"/>
<line clip-path="url(#clip990)" x1="127.104" y1="269.553" x2="162.013" y2="304.462" style="stroke:#ff0000; stroke-width:3.49091; stroke-opacity:1"/>
<line clip-path="url(#clip990)" x1="127.104" y1="269.553" x2="162.013" y2="234.644" style="stroke:#ff0000; stroke-width:3.49091; stroke-opacity:1"/>
<path clip-path="url(#clip990)" d="M236.934 256.604 Q236.02 261.136 234.79 263.736 Q232.823 267.706 229.45 267.706 Q227.061 267.706 225.234 266.266 Q223.442 264.825 222.986 262.436 Q222.072 263.525 221.405 264.158 Q220.772 264.79 219.507 265.774 Q218.278 266.722 216.732 267.214 Q215.186 267.706 213.429 267.706 Q209.143 267.706 206.438 265.458 Q202.784 280.179 202.468 280.916 Q201.449 282.427 199.973 282.427 Q199.06 282.427 198.497 281.865 Q197.935 281.338 197.935 280.495 Q197.97 280.214 198.181 279.335 L208.51 237.702 Q208.792 236.578 209.494 235.945 Q210.232 235.278 210.654 235.208 Q211.075 235.102 211.391 235.102 Q212.34 235.102 212.902 235.629 Q213.499 236.121 213.499 237.034 Q213.499 237.175 213.289 237.983 Q213.113 238.756 212.832 239.951 Q212.551 241.11 212.41 241.637 L209.389 253.723 Q208.37 257.869 208.37 259.836 Q208.37 262.823 209.705 264.474 Q211.075 266.09 213.71 266.09 Q215.362 266.09 216.907 265.422 Q218.453 264.72 219.507 263.771 Q220.561 262.823 221.405 261.804 Q222.248 260.75 222.634 260.082 Q223.021 259.379 223.056 259.204 L224.918 251.861 L228.326 238.405 Q228.537 237.561 228.923 236.999 Q229.345 236.402 229.837 236.191 Q230.328 235.98 230.61 235.945 Q230.891 235.875 231.137 235.875 Q232.015 235.875 232.612 236.402 Q233.209 236.929 233.209 237.843 Q233.209 238.018 232.999 238.861 Q232.823 239.669 232.542 240.864 Q232.261 242.023 232.12 242.656 Q230.996 247.083 230.891 247.539 L228.888 255.304 Q228.783 255.761 228.431 257.236 Q228.115 258.712 227.939 259.485 Q227.764 260.223 227.588 261.242 Q227.448 262.225 227.448 262.787 Q227.448 266.09 229.626 266.09 Q230.469 266.09 231.207 265.598 Q231.945 265.071 232.437 264.333 Q232.964 263.596 233.455 262.331 Q233.982 261.031 234.299 259.977 Q234.615 258.888 235.072 257.201 Q235.247 256.393 235.423 256.147 Q235.599 255.901 236.09 255.901 Q236.934 255.901 236.934 256.604 Z" fill="#000000" fill-rule="nonzero" fill-opacity="1" /><path clip-path="url(#clip990)" d="M269.143 303.09 Q269.143 303.558 268.602 303.607 L267.495 303.607 Q266.364 303.607 265.872 303.435 Q265.38 303.263 264.815 302.476 Q264.47 301.984 263.61 299.696 Q262.773 297.385 261.544 293.892 Q260.339 290.4 259.527 288.334 L247.402 302.648 Q246.566 303.705 245.73 303.705 Q245.115 303.705 244.673 303.287 Q244.23 302.869 244.23 302.23 Q244.23 301.762 244.402 301.492 Q244.599 301.221 245.115 300.68 L259.035 286.883 L254.141 273.185 Q253.206 270.651 252.665 270.012 Q252.149 269.373 250.87 269.151 Q250.403 269.028 250.403 268.635 Q250.403 268.094 251.313 268.094 Q256.182 268.094 257.461 271.66 L267.741 300.311 Q268.307 301.959 268.897 302.648 Q269.143 302.967 269.143 303.09 Z" fill="#000000" fill-rule="nonzero" fill-opacity="1" /></svg>
