<?xml version="1.0" encoding="utf-8"?>
<svg xmlns="http://www.w3.org/2000/svg" xmlns:xlink="http://www.w3.org/1999/xlink" width="400" height="250" viewBox="0 0 1600 1000">
<defs>
  <clipPath id="clip900">
    <rect x="0" y="0" width="1600" height="1000"/>
  </clipPath>
</defs>
<path clip-path="url(#clip900)" d="M0 1000 L1600 1000 L1600 0 L0 0  Z" fill="#ffffff" fill-rule="evenodd" fill-opacity="1"/>
<defs>
  <clipPath id="clip901">
    <rect x="320" y="0" width="1121" height="1000"/>
  </clipPath>
</defs>
<path clip-path="url(#clip900)" d="M3.14961 996.85 L1596.85 996.85 L1596.85 3.14961 L3.14961 3.14961  Z" fill="#ffffff" fill-rule="evenodd" fill-opacity="1"/>
<defs>
  <clipPath id="clip902">
    <rect x="3" y="3" width="1595" height="995"/>
  </clipPath>
</defs>
<polyline clip-path="url(#clip900)" style="stroke:#000000; stroke-linecap:round; stroke-linejoin:round; stroke-width:4; stroke-opacity:1; fill:none" points="3.14961,996.85 1596.85,996.85 "/>
<polyline clip-path="url(#clip900)" style="stroke:#000000; stroke-linecap:round; stroke-linejoin:round; stroke-width:4; stroke-opacity:1; fill:none" points="3.14961,3.14961 1596.85,3.14961 "/>
<polyline clip-path="url(#clip900)" style="stroke:#000000; stroke-linecap:round; stroke-linejoin:round; stroke-width:4; stroke-opacity:1; fill:none" points="3.14961,996.85 3.14961,3.14961 "/>
<polyline clip-path="url(#clip900)" style="stroke:#000000; stroke-linecap:round; stroke-linejoin:round; stroke-width:4; stroke-opacity:1; fill:none" points="1596.85,996.85 1596.85,3.14961 "/>
<polyline clip-path="url(#clip902)" style="stroke:#000000; stroke-linecap:round; stroke-linejoin:round; stroke-width:4; stroke-opacity:1; fill:none" points="-1590.55,500 3190.55,500 "/>
<path clip-path="url(#clip902)" d="M627.192 211.575 L627.192 291.575 L707.192 291.575 L707.192 211.575 L627.192 211.575 Z" fill="#ffff00" fill-rule="evenodd" fill-opacity="1" stroke="#000000" stroke-opacity="1" stroke-width="4"/>
<path clip-path="url(#clip902)" d="M892.808 708.425 L892.808 788.425 L972.808 788.425 L972.808 708.425 L892.808 708.425 Z" fill="#ffff00" fill-rule="evenodd" fill-opacity="1" stroke="#000000" stroke-opacity="1" stroke-width="4"/>
<polyline clip-path="url(#clip902)" style="stroke:#008000; stroke-linecap:round; stroke-linejoin:round; stroke-width:4; stroke-opacity:1; fill:none" points="-1192.13,500 -1188.14,512.427 -1184.16,524.836 -1180.17,537.205 -1176.19,549.518 -1172.2,561.753 -1168.22,573.893 -1164.24,585.918 -1160.25,597.811 -1156.27,609.552 -1152.28,621.123 -1148.3,632.507 -1144.31,643.685 -1140.33,654.641 -1136.35,665.357 -1132.36,675.816 -1128.38,686.004 -1124.39,695.902 -1120.41,705.497 -1116.43,714.774 -1112.44,723.717 -1108.46,732.312 -1104.47,740.547 -1100.49,748.409 -1096.5,755.885 -1092.52,762.963 -1088.54,769.632 -1084.55,775.882 -1080.57,781.703 -1076.58,787.086 -1072.6,792.021 -1068.61,796.502 -1064.63,800.521 -1060.65,804.072 -1056.66,807.148 -1052.68,809.744 -1048.69,811.857 -1044.71,813.483 -1040.72,814.619 -1036.74,815.263 -1032.76,815.413 -1028.77,815.069 -1024.79,814.23 -1020.8,812.899 -1016.82,811.077 -1012.83,808.765 -1008.85,805.968 -1004.87,802.688 -1000.88,798.932 -996.898,794.703 -992.913,790.009 -988.929,784.856 -984.945,779.252 -980.961,773.204 -976.976,766.722 -972.992,759.815 -969.008,752.494 -965.024,744.769 -961.039,736.653 -957.055,728.156 -953.071,719.292 -949.087,710.074 -945.102,700.516 -941.118,690.633 -937.134,680.438 -933.15,669.948 -929.165,659.179 -925.181,648.146 -921.197,636.866 -917.213,625.357 -913.228,613.635 -909.244,601.72 -905.26,589.628 -901.276,577.378 -897.291,564.99 -893.307,552.481 -889.323,539.872 -885.339,527.18 -881.354,514.427 -877.37,501.631 -873.386,488.811 -869.402,475.989 -865.417,463.183 -861.433,450.413 -857.449,437.7 -853.465,425.062 -849.48,412.519 -845.496,400.091 -841.512,387.797 -837.528,375.656 -833.543,363.688 -829.559,351.911 -825.575,340.342 -821.591,329.002 -817.606,317.907 -813.622,307.075 -809.638,296.522 -805.654,286.267 -801.669,276.325 -797.685,266.712 -793.701,257.443 -789.717,248.533 -785.732,239.998 -781.748,231.849 -777.764,224.102 -773.78,216.768 -769.795,209.86 -765.811,203.388 -761.827,197.365 -757.843,191.8 -753.858,186.702 -749.874,182.081 -745.89,177.945 -741.906,174.3 -737.921,171.154 -733.937,168.512 -729.953,166.38 -725.969,164.762 -721.984,163.661 -718,163.081 -714.016,163.024 -710.031,163.491 -706.047,164.482 -702.063,165.997 -698.079,168.035 -694.094,170.594 -690.11,173.672 -686.126,177.265 -682.142,181.369 -678.157,185.979 -674.173,191.089 -670.189,196.692 -666.205,202.782 -662.22,209.35 -658.236,216.387 -654.252,223.884 -650.268,231.83 -646.283,240.216 -642.299,249.028 -638.315,258.255 -634.331,267.884 -630.346,277.901 -626.362,288.292 -622.378,299.043 -618.394,310.137 -614.409,321.559 -610.425,333.293 -606.441,345.321 -602.457,357.626 -598.472,370.191 -594.488,382.996 -590.504,396.023 -586.52,409.254 -582.535,422.667 -578.551,436.245 -574.567,449.965 -570.583,463.809 -566.598,477.756 -562.614,491.784 -558.63,505.872 -554.646,520.001 -550.661,534.147 -546.677,548.29 -542.693,562.408 -538.709,576.481 -534.724,590.486 -530.74,604.402 -526.756,618.207 -522.772,631.882 -518.787,645.403 -514.803,658.751 -510.819,671.905 -506.835,684.844 -502.85,697.548 -498.866,709.996 -494.882,722.17 -490.898,734.05 -486.913,745.617 -482.929,756.853 -478.945,767.739 -474.961,778.257 -470.976,788.392 -466.992,798.125 -463.008,807.441 -459.024,816.324 -455.039,824.76 -451.055,832.734 -447.071,840.232 -443.087,847.241 -439.102,853.749 -435.118,859.744 -431.134,865.216 -427.15,870.153 -423.165,874.547 -419.181,878.389 -415.197,881.671 -411.213,884.385 -407.228,886.526 -403.244,888.088 -399.26,889.065 -395.276,889.455 -391.291,889.255 -387.307,888.461 -383.323,887.073 -379.339,885.091 -375.354,882.514 -371.37,879.345 -367.386,875.585 -363.402,871.237 -359.417,866.306 -355.433,860.795 -351.449,854.711 -347.465,848.06 -343.48,840.85 -339.496,833.088 -335.512,824.783 -331.528,815.946 -327.543,806.587 -323.559,796.717 -319.575,786.348 -315.591,775.494 -311.606,764.169 -307.622,752.386 -303.638,740.16 -299.654,727.509 -295.669,714.447 -291.685,700.993 -287.701,687.164 -283.717,672.978 -279.732,658.455 -275.748,643.614 -271.764,628.475 -267.78,613.059 -263.795,597.387 -259.811,581.481 -255.827,565.361 -251.843,549.052 -247.858,532.574 -243.874,515.952 -239.89,499.209 -235.906,482.369 -231.921,465.454 -227.937,448.49 -223.953,431.5 -219.969,414.509 -215.984,397.542 -212,380.622 -208.016,363.775 -204.031,347.025 -200.047,330.396 -196.063,313.914 -192.079,297.602 -188.094,281.484 -184.11,265.586 -180.126,249.93 -176.142,234.54 -172.157,219.44 -168.173,204.653 -164.189,190.202 -160.205,176.108 -156.22,162.395 -152.236,149.083 -148.252,136.193 -144.268,123.747 -140.283,111.765 -136.299,100.265 -132.315,89.2671 -128.331,78.7897 -124.346,68.8503 -120.362,59.4662 -116.378,50.6536 -112.394,42.4284 -108.409,34.8055 -104.425,27.7992 -100.441,21.423 -96.4567,15.6895 -92.4724,10.6107 -88.4882,6.19755 -84.5039,2.4603 -80.5197,-0.591686 -76.5354,-2.94994 -72.5512,-4.60688 -68.5669,-5.55581 -64.5827,-5.79094 -60.5984,-5.30743 -56.6142,-4.10133 -52.6299,-2.16967 -48.6457,0.489626 -44.6614,3.87765 -40.6772,7.99455 -36.6929,12.8395 -32.7087,18.4108 -28.7244,24.7058 -24.7402,31.7207 -20.7559,39.4509 -16.7717,47.891 -12.7874,57.0344 -8.80315,66.8736 -4.8189,77.4004 -0.834646,88.6055 3.14961,100.479 7.13386,113.009 11.1181,126.184 15.1024,139.992 19.0866,154.419 23.0709,169.449 27.0551,185.069 31.0394,201.262 35.0236,218.01 39.0079,235.297 42.9921,253.104 46.9764,271.412 50.9606,290.201 54.9449,309.451 58.9291,329.14 62.9134,349.248 66.8976,369.752 70.8819,390.63 74.8661,411.857 78.8504,433.41 82.8346,455.265 86.8189,477.398 90.8031,499.783 94.7874,522.395 98.7717,545.208 102.756,568.196 106.74,591.333 110.724,614.592 114.709,637.947 118.693,661.37 122.677,684.836 126.661,708.316 130.646,731.783 134.63,755.211 138.614,778.572 142.598,801.839 146.583,824.986 150.567,847.985 154.551,870.81 158.535,893.434 162.52,915.831 166.504,937.975 170.488,959.841 174.472,981.402 178.457,1002.63 182.441,1023.51 186.425,1044.02 190.409,1064.12 194.394,1083.79 198.378,1103.02 202.362,1121.78 206.346,1140.05 210.331,1157.81 214.315,1175.03 218.299,1191.71 222.283,1207.81 226.268,1223.33 230.252,1238.24 234.236,1252.52 238.22,1266.17 242.205,1279.17 246.189,1291.5 250.173,1303.15 254.157,1314.1 258.142,1324.35 262.126,1333.89 266.11,1342.7 270.094,1350.77 274.079,1358.1 278.063,1364.69 282.047,1370.52 286.031,1375.58 290.016,1379.89 294,1383.42 297.984,1386.19 301.969,1388.18 305.953,1389.41 309.937,1389.86 313.921,1389.55 317.906,1388.46 321.89,1386.62 325.874,1384.02 329.858,1380.66 333.843,1376.56 337.827,1371.73 341.811,1366.16 345.795,1359.87 349.78,1352.87 353.764,1345.17 357.748,1336.78 361.732,1327.72 365.717,1318 369.701,1307.63 373.685,1296.63 377.669,1285.01 381.654,1272.8 385.638,1260 389.622,1246.64 393.606,1232.74 397.591,1218.31 401.575,1203.37 405.559,1187.95 409.543,1172.07 413.528,1155.75 417.512,1139.01 421.496,1121.87 425.48,1104.36 429.465,1086.5 433.449,1068.31 437.433,1049.83 441.417,1031.06 445.402,1012.05 449.386,992.805 453.37,973.361 457.354,953.742 461.339,933.973 465.323,914.079 469.307,894.086 473.291,874.021 477.276,853.908 481.26,833.774 485.244,813.645 489.228,793.545 493.213,773.5 497.197,753.536 501.181,733.677 505.165,713.949 509.15,694.375 513.134,674.98 517.118,655.787 521.102,636.82 525.087,618.102 529.071,599.655 533.055,581.502 537.039,563.663 541.024,546.16 545.008,529.014 548.992,512.243 552.976,495.867 556.961,479.906 560.945,464.375 564.929,449.294 568.913,434.677 572.898,420.541 576.882,406.901 580.866,393.771 584.85,381.163 588.835,369.092 592.819,357.567 596.803,346.601 600.787,336.203 604.772,326.382 608.756,317.147 612.74,308.504 616.724,300.46 620.709,293.02 624.693,286.189 628.677,279.971 632.661,274.368 636.646,269.382 640.63,265.014 644.614,261.264 648.598,258.13 652.583,255.611 656.567,253.703 660.551,252.404 664.535,251.707 668.52,251.608 672.504,252.099 676.488,253.174 680.472,254.825 684.457,257.041 688.441,259.813 692.425,263.13 696.409,266.98 700.394,271.352 704.378,276.231 708.362,281.604 712.346,287.456 716.331,293.772 720.315,300.535 724.299,307.729 728.283,315.336 732.268,323.339 736.252,331.718 740.236,340.454 744.22,349.529 748.205,358.92 752.189,368.609 756.173,378.573 760.157,388.792 764.142,399.243 768.126,409.904 772.11,420.753 776.094,431.766 780.079,442.921 784.063,454.194 788.047,465.563 792.031,477.002 796.016,488.489 800,500 803.984,511.511 807.969,522.998 811.953,534.437 815.937,545.806 819.921,557.079 823.906,568.234 827.89,579.247 831.874,590.096 835.858,600.757 839.843,611.208 843.827,621.427 847.811,631.391 851.795,641.08 855.78,650.471 859.764,659.546 863.748,668.282 867.732,676.661 871.717,684.664 875.701,692.271 879.685,699.465 883.669,706.228 887.654,712.544 891.638,718.396 895.622,723.769 899.606,728.648 903.591,733.02 907.575,736.87 911.559,740.187 915.543,742.959 919.528,745.175 923.512,746.826 927.496,747.901 931.48,748.392 935.465,748.293 939.449,747.596 943.433,746.297 947.417,744.389 951.402,741.87 955.386,738.736 959.37,734.986 963.354,730.618 967.339,725.632 971.323,720.029 975.307,713.811 979.291,706.98 983.276,699.54 987.26,691.496 991.244,682.853 995.228,673.618 999.213,663.797 1003.2,653.399 1007.18,642.433 1011.17,630.908 1015.15,618.837 1019.13,606.229 1023.12,593.099 1027.1,579.459 1031.09,565.323 1035.07,550.706 1039.06,535.625 1043.04,520.094 1047.02,504.133 1051.01,487.757 1054.99,470.986 1058.98,453.84 1062.96,436.337 1066.94,418.498 1070.93,400.345 1074.91,381.898 1078.9,363.18 1082.88,344.213 1086.87,325.02 1090.85,305.625 1094.83,286.051 1098.82,266.323 1102.8,246.464 1106.79,226.5 1110.77,206.455 1114.76,186.355 1118.74,166.226 1122.72,146.092 1126.71,125.979 1130.69,105.914 1134.68,85.9213 1138.66,66.0274 1142.65,46.258 1146.63,26.6388 1150.61,7.19546 1154.6,-12.0466 1158.58,-31.0621 1162.57,-49.8259 1166.55,-68.3131 1170.54,-86.499 1174.52,-104.36 1178.5,-121.871 1182.49,-139.008 1186.47,-155.75 1190.46,-172.073 1194.44,-187.955 1198.43,-203.373 1202.41,-218.307 1206.39,-232.737 1210.38,-246.641 1214.36,-260.001 1218.35,-272.798 1222.33,-285.013 1226.31,-296.63 1230.3,-307.63 1234.28,-318 1238.27,-327.722 1242.25,-336.784 1246.24,-345.17 1250.22,-352.869 1254.2,-359.869 1258.19,-366.158 1262.17,-371.726 1266.16,-376.564 1270.14,-380.664 1274.13,-384.019 1278.11,-386.62 1282.09,-388.465 1286.08,-389.546 1290.06,-389.862 1294.05,-389.408 1298.03,-388.184 1302.02,-386.189 1306,-383.423 1309.98,-379.887 1313.97,-375.584 1317.95,-370.516 1321.94,-364.687 1325.92,-358.104 1329.91,-350.771 1333.89,-342.696 1337.87,-333.887 1341.86,-324.352 1345.84,-314.102 1349.83,-303.147 1353.81,-291.499 1357.8,-279.17 1361.78,-266.173 1365.76,-252.524 1369.75,-238.236 1373.73,-223.326 1377.72,-207.81 1381.7,-191.706 1385.69,-175.031 1389.67,-157.806 1393.65,-140.048 1397.64,-121.78 1401.62,-103.02 1405.61,-83.7914 1409.59,-64.1157 1413.57,-44.0155 1417.56,-23.514 1421.54,-2.63486 1425.53,18.5977 1429.51,40.1593 1433.5,62.0248 1437.48,84.1689 1441.46,106.566 1445.45,129.19 1449.43,152.015 1453.42,175.014 1457.4,198.161 1461.39,221.428 1465.37,244.789 1469.35,268.217 1473.34,291.684 1477.32,315.164 1481.31,338.63 1485.29,362.053 1489.28,385.408 1493.26,408.667 1497.24,431.804 1501.23,454.792 1505.21,477.605 1509.2,500.217 1513.18,522.602 1517.17,544.735 1521.15,566.59 1525.13,588.143 1529.12,609.37 1533.1,630.248 1537.09,650.752 1541.07,670.86 1545.06,690.549 1549.04,709.799 1553.02,728.588 1557.01,746.896 1560.99,764.703 1564.98,781.99 1568.96,798.738 1572.94,814.931 1576.93,830.551 1580.91,845.581 1584.9,860.008 1588.88,873.816 1592.87,886.991 1596.85,899.521 1600.83,911.394 1604.82,922.6 1608.8,933.126 1612.79,942.966 1616.77,952.109 1620.76,960.549 1624.74,968.279 1628.72,975.294 1632.71,981.589 1636.69,987.16 1640.68,992.005 1644.66,996.122 1648.65,999.51 1652.63,1002.17 1656.61,1004.1 1660.6,1005.31 1664.58,1005.79 1668.57,1005.56 1672.55,1004.61 1676.54,1002.95 1680.52,1000.59 1684.5,997.54 1688.49,993.802 1692.47,989.389 1696.46,984.31 1700.44,978.577 1704.43,972.201 1708.41,965.194 1712.39,957.572 1716.38,949.346 1720.36,940.534 1724.35,931.15 1728.33,921.21 1732.31,910.733 1736.3,899.735 1740.28,888.235 1744.27,876.253 1748.25,863.807 1752.24,850.917 1756.22,837.605 1760.2,823.892 1764.19,809.798 1768.17,795.347 1772.16,780.56 1776.14,765.46 1780.13,750.07 1784.11,734.414 1788.09,718.516 1792.08,702.398 1796.06,686.086 1800.05,669.604 1804.03,652.975 1808.02,636.225 1812,619.378 1815.98,602.458 1819.97,585.491 1823.95,568.5 1827.94,551.51 1831.92,534.546 1835.91,517.631 1839.89,500.791 1843.87,484.048 1847.86,467.426 1851.84,450.948 1855.83,434.639 1859.81,418.519 1863.8,402.613 1867.78,386.941 1871.76,371.525 1875.75,356.386 1879.73,341.545 1883.72,327.022 1887.7,312.836 1891.69,299.007 1895.67,285.553 1899.65,272.491 1903.64,259.84 1907.62,247.614 1911.61,235.831 1915.59,224.506 1919.57,213.652 1923.56,203.283 1927.54,193.413 1931.53,184.054 1935.51,175.217 1939.5,166.912 1943.48,159.15 1947.46,151.94 1951.45,145.289 1955.43,139.205 1959.42,133.694 1963.4,128.763 1967.39,124.415 1971.37,120.655 1975.35,117.486 1979.34,114.909 1983.32,112.927 1987.31,111.539 1991.29,110.745 1995.28,110.545 1999.26,110.935 2003.24,111.912 2007.23,113.474 2011.21,115.615 2015.2,118.329 2019.18,121.611 2023.17,125.453 2027.15,129.847 2031.13,134.784 2035.12,140.256 2039.1,146.251 2043.09,152.759 2047.07,159.768 2051.06,167.266 2055.04,175.24 2059.02,183.676 2063.01,192.559 2066.99,201.875 2070.98,211.608 2074.96,221.743 2078.94,232.261 2082.93,243.147 2086.91,254.383 2090.9,265.95 2094.88,277.83 2098.87,290.004 2102.85,302.452 2106.83,315.156 2110.82,328.095 2114.8,341.249 2118.79,354.597 2122.77,368.118 2126.76,381.793 2130.74,395.598 2134.72,409.514 2138.71,423.519 2142.69,437.592 2146.68,451.71 2150.66,465.853 2154.65,479.999 2158.63,494.128 2162.61,508.216 2166.6,522.244 2170.58,536.191 2174.57,550.035 2178.55,563.755 2182.54,577.333 2186.52,590.746 2190.5,603.977 2194.49,617.004 2198.47,629.809 2202.46,642.374 2206.44,654.679 2210.43,666.707 2214.41,678.441 2218.39,689.863 2222.38,700.957 2226.36,711.708 2230.35,722.099 2234.33,732.116 2238.31,741.745 2242.3,750.972 2246.28,759.784 2250.27,768.17 2254.25,776.116 2258.24,783.613 2262.22,790.65 2266.2,797.218 2270.19,803.308 2274.17,808.911 2278.16,814.021 2282.14,818.631 2286.13,822.735 2290.11,826.328 2294.09,829.406 2298.08,831.965 2302.06,834.003 2306.05,835.518 2310.03,836.509 2314.02,836.976 2318,836.919 2321.98,836.339 2325.97,835.238 2329.95,833.62 2333.94,831.488 2337.92,828.846 2341.91,825.7 2345.89,822.055 2349.87,817.919 2353.86,813.298 2357.84,808.2 2361.83,802.635 2365.81,796.612 2369.8,790.14 2373.78,783.232 2377.76,775.898 2381.75,768.151 2385.73,760.002 2389.72,751.467 2393.7,742.557 2397.69,733.288 2401.67,723.675 2405.65,713.733 2409.64,703.478 2413.62,692.925 2417.61,682.093 2421.59,670.998 2425.57,659.658 2429.56,648.089 2433.54,636.312 2437.53,624.344 2441.51,612.203 2445.5,599.909 2449.48,587.481 2453.46,574.938 2457.45,562.3 2461.43,549.587 2465.42,536.817 2469.4,524.011 2473.39,511.189 2477.37,498.369 2481.35,485.573 2485.34,472.82 2489.32,460.128 2493.31,447.519 2497.29,435.01 2501.28,422.622 2505.26,410.372 2509.24,398.28 2513.23,386.365 2517.21,374.643 2521.2,363.134 2525.18,351.854 2529.17,340.821 2533.15,330.052 2537.13,319.562 2541.12,309.367 2545.1,299.484 2549.09,289.926 2553.07,280.708 2557.06,271.844 2561.04,263.347 2565.02,255.231 2569.01,247.506 2572.99,240.185 2576.98,233.278 2580.96,226.796 2584.94,220.748 2588.93,215.144 2592.91,209.991 2596.9,205.297 2600.88,201.068 2604.87,197.312 2608.85,194.032 2612.83,191.235 2616.82,188.923 2620.8,187.101 2624.79,185.77 2628.77,184.931 2632.76,184.587 2636.74,184.737 2640.72,185.381 2644.71,186.517 2648.69,188.143 2652.68,190.256 2656.66,192.852 2660.65,195.928 2664.63,199.479 2668.61,203.498 2672.6,207.979 2676.58,212.914 2680.57,218.297 2684.55,224.118 2688.54,230.368 2692.52,237.037 2696.5,244.115 2700.49,251.591 2704.47,259.453 2708.46,267.688 2712.44,276.283 2716.43,285.226 2720.41,294.503 2724.39,304.098 2728.38,313.996 2732.36,324.184 2736.35,334.643 2740.33,345.359 2744.31,356.315 2748.3,367.493 2752.28,378.877 2756.27,390.448 2760.25,402.189 2764.24,414.082 2768.22,426.107 2772.2,438.247 2776.19,450.482 2780.17,462.795 2784.16,475.164 2788.14,487.573 2792.13,500 "/>
<polyline clip-path="url(#clip902)" style="stroke:#000000; stroke-linecap:round; stroke-linejoin:round; stroke-width:4; stroke-opacity:1; fill:none" stroke-dasharray="16, 10" points="-1590.55,251.575 3190.55,251.575 "/>
<polyline clip-path="url(#clip902)" style="stroke:#000000; stroke-linecap:round; stroke-linejoin:round; stroke-width:4; stroke-opacity:1; fill:none" stroke-dasharray="16, 10" points="-1590.55,748.425 3190.55,748.425 "/>
<line clip-path="url(#clip902)" x1="633.985" y1="279.682" x2="593.985" y2="239.682" style="stroke:#ff0000; stroke-width:4; stroke-opacity:1"/>
<line clip-path="url(#clip902)" x1="633.985" y1="279.682" x2="593.985" y2="319.682" style="stroke:#ff0000; stroke-width:4; stroke-opacity:1"/>
<line clip-path="url(#clip902)" x1="633.985" y1="279.682" x2="673.985" y2="319.682" style="stroke:#ff0000; stroke-width:4; stroke-opacity:1"/>
<line clip-path="url(#clip902)" x1="633.985" y1="279.682" x2="673.985" y2="239.682" style="stroke:#ff0000; stroke-width:4; stroke-opacity:1"/>
<line clip-path="url(#clip902)" x1="966.006" y1="720.312" x2="926.006" y2="680.312" style="stroke:#ff0000; stroke-width:4; stroke-opacity:1"/>
<line clip-path="url(#clip902)" x1="966.006" y1="720.312" x2="926.006" y2="760.312" style="stroke:#ff0000; stroke-width:4; stroke-opacity:1"/>
<line clip-path="url(#clip902)" x1="966.006" y1="720.312" x2="1006.01" y2="760.312" style="stroke:#ff0000; stroke-width:4; stroke-opacity:1"/>
<line clip-path="url(#clip902)" x1="966.006" y1="720.312" x2="1006.01" y2="680.312" style="stroke:#ff0000; stroke-width:4; stroke-opacity:1"/>
<path clip-path="url(#clip900)" d="M56.273 649.763 L299.849 649.763 L299.849 338.723 L56.273 338.723  Z" fill="#ffffff" fill-rule="evenodd" fill-opacity="1"/>
<polyline clip-path="url(#clip900)" style="stroke:#000000; stroke-linecap:round; stroke-linejoin:round; stroke-width:4; stroke-opacity:1; fill:none" points="56.273,649.763 299.849,649.763 299.849,338.723 56.273,338.723 56.273,649.763 "/>
<path clip-path="url(#clip900)" d="M92.195 381.574 L92.195 451.392 L162.013 451.392 L162.013 381.574 L92.195 381.574 Z" fill="#ffff00" fill-rule="evenodd" fill-opacity="1" stroke="#000000" stroke-opacity="1" stroke-width="3.49091"/>
<path clip-path="url(#clip900)" d="M236.934 403.733 Q236.02 408.266 234.79 410.865 Q232.823 414.836 229.45 414.836 Q227.061 414.836 225.234 413.395 Q223.442 411.955 222.986 409.566 Q222.072 410.655 221.405 411.287 Q220.772 411.92 219.507 412.903 Q218.278 413.852 216.732 414.344 Q215.186 414.836 213.429 414.836 Q209.143 414.836 206.438 412.587 Q202.784 427.308 202.468 428.046 Q201.449 429.557 199.973 429.557 Q199.06 429.557 198.497 428.994 Q197.935 428.467 197.935 427.624 Q197.97 427.343 198.181 426.465 L208.51 384.831 Q208.792 383.707 209.494 383.075 Q210.232 382.407 210.654 382.337 Q211.075 382.232 211.391 382.232 Q212.34 382.232 212.902 382.759 Q213.499 383.25 213.499 384.164 Q213.499 384.304 213.289 385.113 Q213.113 385.885 212.832 387.08 Q212.551 388.239 212.41 388.766 L209.389 400.852 Q208.37 404.998 208.37 406.966 Q208.37 409.952 209.705 411.603 Q211.075 413.219 213.71 413.219 Q215.362 413.219 216.907 412.552 Q218.453 411.849 219.507 410.901 Q220.561 409.952 221.405 408.933 Q222.248 407.879 222.634 407.212 Q223.021 406.509 223.056 406.333 L224.918 398.99 L228.326 385.534 Q228.537 384.691 228.923 384.129 Q229.345 383.532 229.837 383.321 Q230.328 383.11 230.61 383.075 Q230.891 383.004 231.137 383.004 Q232.015 383.004 232.612 383.532 Q233.209 384.059 233.209 384.972 Q233.209 385.148 232.999 385.991 Q232.823 386.799 232.542 387.993 Q232.261 389.153 232.12 389.785 Q230.996 394.212 230.891 394.669 L228.888 402.433 Q228.783 402.89 228.431 404.366 Q228.115 405.841 227.939 406.614 Q227.764 407.352 227.588 408.371 Q227.448 409.355 227.448 409.917 Q227.448 413.219 229.626 413.219 Q230.469 413.219 231.207 412.728 Q231.945 412.201 232.437 411.463 Q232.964 410.725 233.455 409.46 Q233.982 408.16 234.299 407.106 Q234.615 406.017 235.072 404.331 Q235.247 403.523 235.423 403.277 Q235.599 403.031 236.09 403.031 Q236.934 403.031 236.934 403.733 Z" fill="#000000" fill-rule="nonzero" fill-opacity="1" /><path clip-path="url(#clip900)" d="M244.23 433.226 Q244.23 425.824 246.099 421.79 Q248.706 415.789 254.854 415.789 Q256.158 415.789 257.51 416.158 Q258.888 416.503 260.609 417.855 Q262.355 419.208 263.413 421.421 Q265.429 425.701 265.429 433.226 Q265.429 440.58 263.56 444.588 Q260.83 450.442 254.805 450.442 Q252.542 450.442 250.231 449.286 Q247.943 448.13 246.492 445.351 Q244.23 441.195 244.23 433.226 M248.411 432.611 Q248.411 440.211 248.952 443.236 Q249.567 446.507 251.239 447.933 Q252.936 449.335 254.805 449.335 Q256.822 449.335 258.494 447.835 Q260.191 446.31 260.708 443.039 Q261.273 439.817 261.249 432.611 Q261.249 425.602 260.757 422.799 Q260.093 419.528 258.322 418.224 Q256.576 416.896 254.805 416.896 Q254.141 416.896 253.428 417.093 Q252.739 417.29 251.731 417.855 Q250.723 418.421 249.936 419.823 Q249.173 421.225 248.804 423.34 Q248.411 426.07 248.411 432.611 Z" fill="#000000" fill-rule="nonzero" fill-opacity="1" /><polyline clip-path="url(#clip900)" style="stroke:#008000; stroke-linecap:round; stroke-linejoin:round; stroke-width:6; stroke-opacity:1; fill:none" points="73.9808,494.243 180.227,494.243 "/>
<path clip-path="url(#clip900)" d="M231.558 467.43 Q231.558 469.397 230.961 471.611 L222.775 504.18 Q222.037 507.061 219.824 507.061 Q218.91 507.061 218.348 506.499 Q217.821 505.972 217.821 505.128 Q217.821 504.847 218.032 503.969 L226.218 470.873 Q226.956 467.851 226.956 466.341 Q226.956 461.317 223.056 461.317 Q219.613 461.317 216.17 463.846 Q214.589 465.111 213.043 467.395 Q211.532 469.643 211.251 470.451 Q210.935 472.278 210.478 473.684 Q210.267 474.667 209.248 478.497 L207.667 484.997 Q206.543 489.845 206.297 490.302 Q205.946 491.286 205.173 491.813 Q204.4 492.34 203.627 492.34 Q202.749 492.34 202.151 491.813 Q201.554 491.286 201.554 490.372 Q201.554 490.232 201.659 489.705 Q201.765 489.178 201.94 488.44 Q202.116 487.702 202.186 487.28 L206.367 470.662 Q207.14 467.641 207.316 466.692 Q207.527 465.708 207.527 464.619 Q207.527 462.722 206.929 462.019 Q206.332 461.317 205.278 461.317 Q203.451 461.317 202.257 463.495 Q201.062 465.673 200.043 469.889 Q199.727 471.049 199.516 471.295 Q199.341 471.541 198.814 471.541 Q197.935 471.505 197.935 470.803 Q197.935 470.627 198.216 469.503 Q198.497 468.343 199.024 466.657 Q199.587 464.935 200.184 463.846 Q200.535 463.108 200.851 462.617 Q201.168 462.125 201.8 461.352 Q202.432 460.579 203.381 460.157 Q204.33 459.736 205.489 459.736 Q208.054 459.736 209.951 461.387 Q211.883 463.038 212.129 465.989 Q212.867 464.9 213.816 463.917 Q214.799 462.933 216.17 461.949 Q217.54 460.93 219.402 460.333 Q221.264 459.736 223.267 459.736 Q227.272 459.736 229.415 461.809 Q231.558 463.846 231.558 467.43 Z" fill="#000000" fill-rule="nonzero" fill-opacity="1" /><path clip-path="url(#clip900)" d="M274.814 493.559 Q274.764 494.469 274.15 494.519 Q273.215 494.568 272.649 494.691 Q272.084 494.789 271.198 495.158 Q270.313 495.527 269.452 496.412 Q268.591 497.298 267.706 498.699 L249.581 527.548 Q249.261 528.089 248.99 528.261 Q248.744 528.458 248.179 528.458 Q247.662 528.458 247.465 528.236 Q247.269 528.04 247.17 527.302 L243.186 496.216 Q243.112 495.65 243.039 495.404 Q242.965 495.158 242.67 494.912 Q242.399 494.666 241.809 494.592 Q241.219 494.519 240.161 494.519 Q239.669 494.519 239.448 494.494 Q239.251 494.469 239.079 494.346 Q238.907 494.199 238.907 493.904 Q238.907 493.461 239.079 493.24 Q239.276 492.994 239.423 492.969 Q239.596 492.945 239.866 492.945 Q240.284 492.945 241.194 492.994 Q242.104 493.043 242.571 493.043 Q243.014 493.043 243.949 493.068 Q244.883 493.092 245.35 493.092 Q246.383 493.092 248.474 493.018 Q250.589 492.945 251.597 492.945 Q252.286 492.945 252.286 493.51 Q252.286 494.199 251.991 494.371 Q251.696 494.519 251.032 494.519 Q249.359 494.519 248.449 494.937 Q247.564 495.355 247.564 496.019 L250.982 522.678 L266.452 498.085 Q267.214 496.929 267.214 496.166 Q267.214 494.691 264.878 494.519 Q264.091 494.519 264.091 493.904 Q264.091 493.461 264.287 493.24 Q264.484 492.994 264.632 492.969 Q264.804 492.945 265.05 492.945 Q265.861 492.945 267.509 493.018 Q269.182 493.092 270.018 493.092 Q270.706 493.092 272.108 493.018 Q273.51 492.945 274.15 492.945 Q274.814 492.945 274.814 493.559 Z" fill="#000000" fill-rule="nonzero" fill-opacity="1" /><line clip-path="url(#clip900)" x1="127.104" y1="572.003" x2="92.195" y2="537.094" style="stroke:#ff0000; stroke-width:3.49091; stroke-opacity:1"/>
<line clip-path="url(#clip900)" x1="127.104" y1="572.003" x2="92.195" y2="606.912" style="stroke:#ff0000; stroke-width:3.49091; stroke-opacity:1"/>
<line clip-path="url(#clip900)" x1="127.104" y1="572.003" x2="162.013" y2="606.912" style="stroke:#ff0000; stroke-width:3.49091; stroke-opacity:1"/>
<line clip-path="url(#clip900)" x1="127.104" y1="572.003" x2="162.013" y2="537.094" style="stroke:#ff0000; stroke-width:3.49091; stroke-opacity:1"/>
<path clip-path="url(#clip900)" d="M236.934 559.054 Q236.02 563.587 234.79 566.186 Q232.823 570.157 229.45 570.157 Q227.061 570.157 225.234 568.716 Q223.442 567.276 222.986 564.886 Q222.072 565.976 221.405 566.608 Q220.772 567.24 219.507 568.224 Q218.278 569.173 216.732 569.665 Q215.186 570.157 213.429 570.157 Q209.143 570.157 206.438 567.908 Q202.784 582.629 202.468 583.367 Q201.449 584.878 199.973 584.878 Q199.06 584.878 198.497 584.315 Q197.935 583.788 197.935 582.945 Q197.97 582.664 198.181 581.786 L208.51 540.152 Q208.792 539.028 209.494 538.396 Q210.232 537.728 210.654 537.658 Q211.075 537.552 211.391 537.552 Q212.34 537.552 212.902 538.08 Q213.499 538.571 213.499 539.485 Q213.499 539.625 213.289 540.433 Q213.113 541.206 212.832 542.401 Q212.551 543.56 212.41 544.087 L209.389 556.173 Q208.37 560.319 208.37 562.287 Q208.37 565.273 209.705 566.924 Q211.075 568.54 213.71 568.54 Q215.362 568.54 216.907 567.873 Q218.453 567.17 219.507 566.222 Q220.561 565.273 221.405 564.254 Q222.248 563.2 222.634 562.533 Q223.021 561.83 223.056 561.654 L224.918 554.311 L228.326 540.855 Q228.537 540.012 228.923 539.45 Q229.345 538.852 229.837 538.642 Q230.328 538.431 230.61 538.396 Q230.891 538.325 231.137 538.325 Q232.015 538.325 232.612 538.852 Q233.209 539.379 233.209 540.293 Q233.209 540.469 232.999 541.312 Q232.823 542.12 232.542 543.314 Q232.261 544.474 232.12 545.106 Q230.996 549.533 230.891 549.99 L228.888 557.754 Q228.783 558.211 228.431 559.687 Q228.115 561.162 227.939 561.935 Q227.764 562.673 227.588 563.692 Q227.448 564.676 227.448 565.238 Q227.448 568.54 229.626 568.54 Q230.469 568.54 231.207 568.049 Q231.945 567.522 232.437 566.784 Q232.964 566.046 233.455 564.781 Q233.982 563.481 234.299 562.427 Q234.615 561.338 235.072 559.652 Q235.247 558.843 235.423 558.598 Q235.599 558.352 236.09 558.352 Q236.934 558.352 236.934 559.054 Z" fill="#000000" fill-rule="nonzero" fill-opacity="1" /><path clip-path="url(#clip900)" d="M269.143 605.541 Q269.143 606.008 268.602 606.057 L267.495 606.057 Q266.364 606.057 265.872 605.885 Q265.38 605.713 264.815 604.926 Q264.47 604.434 263.61 602.147 Q262.773 599.835 261.544 596.343 Q260.339 592.85 259.527 590.785 L247.402 605.098 Q246.566 606.156 245.73 606.156 Q245.115 606.156 244.673 605.738 Q244.23 605.319 244.23 604.68 Q244.23 604.213 244.402 603.942 Q244.599 603.672 245.115 603.131 L259.035 589.334 L254.141 575.635 Q253.206 573.102 252.665 572.462 Q252.149 571.823 250.87 571.602 Q250.403 571.479 250.403 571.085 Q250.403 570.544 251.313 570.544 Q256.182 570.544 257.461 574.11 L267.741 602.762 Q268.307 604.409 268.897 605.098 Q269.143 605.418 269.143 605.541 Z" fill="#000000" fill-rule="nonzero" fill-opacity="1" /></svg>
