<?xml version="1.0" encoding="utf-8"?>
<svg xmlns="http://www.w3.org/2000/svg" xmlns:xlink="http://www.w3.org/1999/xlink" width="400" height="250" viewBox="0 0 1600 1000">
<defs>
  <clipPath id="clip220">
    <rect x="0" y="0" width="1600" height="1000"/>
  </clipPath>
</defs>
<path clip-path="url(#clip220)" d="M0 1000 L1600 1000 L1600 0 L0 0  Z" fill="#ffffff" fill-rule="evenodd" fill-opacity="1"/>
<defs>
  <clipPath id="clip221">
    <rect x="320" y="0" width="1121" height="1000"/>
  </clipPath>
</defs>
<path clip-path="url(#clip220)" d="M47.2441 952.756 L1552.76 952.756 L1552.76 47.2441 L47.2441 47.2441  Z" fill="#ffffff" fill-rule="evenodd" fill-opacity="1"/>
<defs>
  <clipPath id="clip222">
    <rect x="47" y="47" width="1507" height="907"/>
  </clipPath>
</defs>
<polyline clip-path="url(#clip220)" style="stroke:#000000; stroke-linecap:round; stroke-linejoin:round; stroke-width:4; stroke-opacity:1; fill:none" points="47.2441,952.756 1552.76,952.756 "/>
<polyline clip-path="url(#clip220)" style="stroke:#000000; stroke-linecap:round; stroke-linejoin:round; stroke-width:4; stroke-opacity:1; fill:none" points="47.2441,47.2441 1552.76,47.2441 "/>
<polyline clip-path="url(#clip220)" style="stroke:#000000; stroke-linecap:round; stroke-linejoin:round; stroke-width:4; stroke-opacity:1; fill:none" points="47.2441,952.756 47.2441,47.2441 "/>
<polyline clip-path="url(#clip220)" style="stroke:#000000; stroke-linecap:round; stroke-linejoin:round; stroke-width:4; stroke-opacity:1; fill:none" points="1552.76,952.756 1552.76,47.2441 "/>
<polyline clip-path="url(#clip222)" style="stroke:#000000; stroke-linecap:round; stroke-linejoin:round; stroke-width:4; stroke-opacity:1; fill:none" points="-1458.27,500 3058.27,500 "/>
<path clip-path="url(#clip222)" d="M697.27 233.622 L697.27 313.622 L777.27 313.622 L777.27 233.622 L697.27 233.622 Z" fill="#ffff00" fill-rule="evenodd" fill-opacity="1" stroke="#000000" stroke-opacity="1" stroke-width="4"/>
<path clip-path="url(#clip222)" d="M822.73 233.622 L822.73 313.622 L902.73 313.622 L902.73 233.622 L822.73 233.622 Z" fill="#ffff00" fill-rule="evenodd" fill-opacity="1" stroke="#000000" stroke-opacity="1" stroke-width="4"/>
<polyline clip-path="url(#clip222)" style="stroke:#800080; stroke-linecap:round; stroke-linejoin:round; stroke-width:4; stroke-opacity:1; fill:none" points="-1081.89,544.16 -1078.13,544.126 -1074.36,544.026 -1070.6,543.858 -1066.83,543.624 -1063.07,543.323 -1059.31,542.957 -1055.54,542.526 -1051.78,542.029 -1048.02,541.469 -1044.25,540.846 -1040.49,540.16 -1036.72,539.414 -1032.96,538.607 -1029.2,537.742 -1025.43,536.819 -1021.67,535.839 -1017.91,534.805 -1014.14,533.718 -1010.38,532.579 -1006.61,531.391 -1002.85,530.154 -999.087,528.87 -995.323,527.543 -991.559,526.173 -987.795,524.763 -984.031,523.314 -980.268,521.829 -976.504,520.311 -972.74,518.76 -968.976,517.181 -965.213,515.574 -961.449,513.943 -957.685,512.289 -953.921,510.616 -950.157,508.926 -946.394,507.221 -942.63,505.503 -938.866,503.777 -935.102,502.043 -931.339,500.305 -927.575,498.565 -923.811,496.826 -920.047,495.09 -916.283,493.361 -912.52,491.64 -908.756,489.93 -904.992,488.234 -901.228,486.554 -897.465,484.893 -893.701,483.254 -889.937,481.638 -886.173,480.049 -882.409,478.488 -878.646,476.958 -874.882,475.462 -871.118,474.001 -867.354,472.578 -863.591,471.196 -859.827,469.855 -856.063,468.558 -852.299,467.308 -848.535,466.106 -844.772,464.953 -841.008,463.852 -837.244,462.805 -833.48,461.813 -829.717,460.877 -825.953,459.999 -822.189,459.181 -818.425,458.424 -814.661,457.728 -810.898,457.095 -807.134,456.527 -803.37,456.023 -799.606,455.586 -795.843,455.214 -792.079,454.91 -788.315,454.674 -784.551,454.506 -780.787,454.407 -777.024,454.376 -773.26,454.414 -769.496,454.521 -765.732,454.697 -761.969,454.942 -758.205,455.256 -754.441,455.637 -750.677,456.086 -746.913,456.602 -743.15,457.185 -739.386,457.833 -735.622,458.546 -731.858,459.323 -728.094,460.163 -724.331,461.064 -720.567,462.026 -716.803,463.047 -713.039,464.125 -709.276,465.26 -705.512,466.449 -701.748,467.691 -697.984,468.984 -694.22,470.327 -690.457,471.717 -686.693,473.152 -682.929,474.631 -679.165,476.151 -675.402,477.71 -671.638,479.306 -667.874,480.937 -664.11,482.6 -660.346,484.292 -656.583,486.012 -652.819,487.757 -649.055,489.524 -645.291,491.311 -641.528,493.115 -637.764,494.934 -634,496.764 -630.236,498.604 -626.472,500.45 -622.709,502.3 -618.945,504.151 -615.181,506 -611.417,507.845 -607.654,509.683 -603.89,511.51 -600.126,513.326 -596.362,515.125 -592.598,516.907 -588.835,518.668 -585.071,520.406 -581.307,522.118 -577.543,523.801 -573.78,525.454 -570.016,527.072 -566.252,528.655 -562.488,530.199 -558.724,531.703 -554.961,533.163 -551.197,534.578 -547.433,535.945 -543.669,537.263 -539.906,538.528 -536.142,539.74 -532.378,540.897 -528.614,541.995 -524.85,543.035 -521.087,544.014 -517.323,544.93 -513.559,545.781 -509.795,546.568 -506.031,547.287 -502.268,547.939 -498.504,548.521 -494.74,549.033 -490.976,549.474 -487.213,549.843 -483.449,550.139 -479.685,550.362 -475.921,550.51 -472.157,550.584 -468.394,550.584 -464.63,550.508 -460.866,550.358 -457.102,550.132 -453.339,549.832 -449.575,549.456 -445.811,549.007 -442.047,548.483 -438.283,547.886 -434.52,547.215 -430.756,546.473 -426.992,545.66 -423.228,544.776 -419.465,543.823 -415.701,542.802 -411.937,541.714 -408.173,540.56 -404.409,539.343 -400.646,538.063 -396.882,536.722 -393.118,535.322 -389.354,533.865 -385.591,532.352 -381.827,530.786 -378.063,529.169 -374.299,527.502 -370.535,525.788 -366.772,524.03 -363.008,522.23 -359.244,520.389 -355.48,518.512 -351.717,516.599 -347.953,514.655 -344.189,512.68 -340.425,510.679 -336.661,508.654 -332.898,506.608 -329.134,504.543 -325.37,502.463 -321.606,500.37 -317.843,498.268 -314.079,496.158 -310.315,494.046 -306.551,491.932 -302.787,489.82 -299.024,487.714 -295.26,485.616 -291.496,483.529 -287.732,481.457 -283.969,479.402 -280.205,477.367 -276.441,475.355 -272.677,473.37 -268.913,471.413 -265.15,469.488 -261.386,467.598 -257.622,465.746 -253.858,463.934 -250.094,462.165 -246.331,460.441 -242.567,458.766 -238.803,457.142 -235.039,455.571 -231.276,454.056 -227.512,452.599 -223.748,451.202 -219.984,449.868 -216.22,448.598 -212.457,447.396 -208.693,446.262 -204.929,445.199 -201.165,444.208 -197.402,443.291 -193.638,442.45 -189.874,441.686 -186.11,441.001 -182.346,440.396 -178.583,439.872 -174.819,439.43 -171.055,439.071 -167.291,438.797 -163.528,438.607 -159.764,438.502 -156,438.484 -152.236,438.552 -148.472,438.707 -144.709,438.949 -140.945,439.278 -137.181,439.694 -133.417,440.197 -129.654,440.786 -125.89,441.462 -122.126,442.224 -118.362,443.07 -114.598,444.001 -110.835,445.016 -107.071,446.113 -103.307,447.291 -99.5433,448.55 -95.7795,449.889 -92.0157,451.304 -88.252,452.796 -84.4882,454.363 -80.7244,456.002 -76.9606,457.712 -73.1969,459.492 -69.4331,461.338 -65.6693,463.25 -61.9055,465.224 -58.1417,467.259 -54.378,469.352 -50.6142,471.501 -46.8504,473.703 -43.0866,475.956 -39.3228,478.256 -35.5591,480.601 -31.7953,482.989 -28.0315,485.416 -24.2677,487.88 -20.5039,490.377 -16.7402,492.904 -12.9764,495.459 -9.2126,498.038 -5.44882,500.637 -1.68504,503.255 2.07874,505.887 5.84252,508.529 9.6063,511.18 13.3701,513.835 17.1339,516.492 20.8976,519.145 24.6614,521.794 28.4252,524.433 32.189,527.06 35.9528,529.671 39.7165,532.263 43.4803,534.832 47.2441,537.375 51.0079,539.889 54.7717,542.371 58.5354,544.817 62.2992,547.223 66.063,549.588 69.8268,551.907 73.5906,554.177 77.3543,556.396 81.1181,558.561 84.8819,560.667 88.6457,562.714 92.4094,564.697 96.1732,566.614 99.937,568.462 103.701,570.238 107.465,571.941 111.228,573.567 114.992,575.115 118.756,576.581 122.52,577.964 126.283,579.262 130.047,580.472 133.811,581.592 137.575,582.621 141.339,583.557 145.102,584.399 148.866,585.144 152.63,585.792 156.394,586.34 160.157,586.789 163.921,587.136 167.685,587.381 171.449,587.522 175.213,587.56 178.976,587.493 182.74,587.321 186.504,587.043 190.268,586.66 194.031,586.17 197.795,585.574 201.559,584.872 205.323,584.063 209.087,583.149 212.85,582.13 216.614,581.006 220.378,579.777 224.142,578.444 227.906,577.009 231.669,575.472 235.433,573.833 239.197,572.095 242.961,570.259 246.724,568.325 250.488,566.295 254.252,564.171 258.016,561.954 261.78,559.646 265.543,557.249 269.307,554.765 273.071,552.196 276.835,549.543 280.598,546.809 284.362,543.996 288.126,541.106 291.89,538.143 295.654,535.107 299.417,532.002 303.181,528.83 306.945,525.593 310.709,522.295 314.472,518.939 318.236,515.526 322,512.059 325.764,508.542 329.528,504.978 333.291,501.368 337.055,497.717 340.819,494.027 344.583,490.3 348.346,486.541 352.11,482.752 355.874,478.936 359.638,475.096 363.402,471.234 367.165,467.355 370.929,463.461 374.693,459.555 378.457,455.64 382.22,451.719 385.984,447.795 389.748,443.87 393.512,439.949 397.276,436.033 401.039,432.125 404.803,428.228 408.567,424.346 412.331,420.48 416.094,416.633 419.858,412.808 423.622,409.007 427.386,405.234 431.15,401.49 434.913,397.777 438.677,394.099 442.441,390.456 446.205,386.853 449.969,383.29 453.732,379.769 457.496,376.293 461.26,372.863 465.024,369.482 468.787,366.151 472.551,362.871 476.315,359.644 480.079,356.473 483.843,353.357 487.606,350.298 491.37,347.299 495.134,344.359 498.898,341.479 502.661,338.662 506.425,335.907 510.189,333.216 513.953,330.588 517.717,328.026 521.48,325.528 525.244,323.097 529.008,320.731 532.772,318.432 536.535,316.199 540.299,314.033 544.063,311.933 547.827,309.9 551.591,307.933 555.354,306.033 559.118,304.198 562.882,302.429 566.646,300.724 570.409,299.084 574.173,297.508 577.937,295.995 581.701,294.544 585.465,293.155 589.228,291.827 592.992,290.558 596.756,289.349 600.52,288.196 604.283,287.101 608.047,286.061 611.811,285.075 615.575,284.143 619.339,283.262 623.102,282.431 626.866,281.65 630.63,280.916 634.394,280.229 638.157,279.586 641.921,278.987 645.685,278.429 649.449,277.912 653.213,277.433 656.976,276.992 660.74,276.586 664.504,276.215 668.268,275.876 672.031,275.568 675.795,275.289 679.559,275.038 683.323,274.814 687.087,274.614 690.85,274.438 694.614,274.284 698.378,274.149 702.142,274.034 705.906,273.936 709.669,273.855 713.433,273.788 717.197,273.734 720.961,273.692 724.724,273.662 728.488,273.64 732.252,273.628 736.016,273.622 739.78,273.623 743.543,273.629 747.307,273.64 751.071,273.654 754.835,273.67 758.598,273.688 762.362,273.707 766.126,273.726 769.89,273.745 773.654,273.763 777.417,273.78 781.181,273.795 784.945,273.808 788.709,273.818 792.472,273.825 796.236,273.83 800,273.831 803.764,273.83 807.528,273.825 811.291,273.818 815.055,273.808 818.819,273.795 822.583,273.78 826.346,273.763 830.11,273.745 833.874,273.726 837.638,273.707 841.402,273.688 845.165,273.67 848.929,273.654 852.693,273.64 856.457,273.629 860.22,273.623 863.984,273.622 867.748,273.628 871.512,273.64 875.276,273.662 879.039,273.692 882.803,273.734 886.567,273.788 890.331,273.855 894.094,273.936 897.858,274.034 901.622,274.149 905.386,274.284 909.15,274.438 912.913,274.614 916.677,274.814 920.441,275.038 924.205,275.289 927.969,275.568 931.732,275.876 935.496,276.215 939.26,276.586 943.024,276.992 946.787,277.433 950.551,277.912 954.315,278.429 958.079,278.987 961.843,279.586 965.606,280.229 969.37,280.916 973.134,281.65 976.898,282.431 980.661,283.262 984.425,284.143 988.189,285.075 991.953,286.061 995.717,287.101 999.48,288.196 1003.24,289.349 1007.01,290.558 1010.77,291.827 1014.54,293.155 1018.3,294.544 1022.06,295.995 1025.83,297.508 1029.59,299.084 1033.35,300.724 1037.12,302.429 1040.88,304.198 1044.65,306.033 1048.41,307.933 1052.17,309.9 1055.94,311.933 1059.7,314.033 1063.46,316.199 1067.23,318.432 1070.99,320.731 1074.76,323.097 1078.52,325.528 1082.28,328.026 1086.05,330.588 1089.81,333.216 1093.57,335.907 1097.34,338.662 1101.1,341.479 1104.87,344.359 1108.63,347.299 1112.39,350.298 1116.16,353.357 1119.92,356.473 1123.69,359.644 1127.45,362.871 1131.21,366.151 1134.98,369.482 1138.74,372.863 1142.5,376.293 1146.27,379.769 1150.03,383.29 1153.8,386.853 1157.56,390.456 1161.32,394.099 1165.09,397.777 1168.85,401.49 1172.61,405.234 1176.38,409.007 1180.14,412.808 1183.91,416.633 1187.67,420.48 1191.43,424.346 1195.2,428.228 1198.96,432.125 1202.72,436.033 1206.49,439.949 1210.25,443.87 1214.02,447.795 1217.78,451.719 1221.54,455.64 1225.31,459.555 1229.07,463.461 1232.83,467.355 1236.6,471.234 1240.36,475.096 1244.13,478.936 1247.89,482.752 1251.65,486.541 1255.42,490.3 1259.18,494.027 1262.94,497.717 1266.71,501.368 1270.47,504.978 1274.24,508.542 1278,512.059 1281.76,515.526 1285.53,518.939 1289.29,522.295 1293.06,525.593 1296.82,528.83 1300.58,532.002 1304.35,535.107 1308.11,538.143 1311.87,541.106 1315.64,543.996 1319.4,546.809 1323.17,549.543 1326.93,552.196 1330.69,554.765 1334.46,557.249 1338.22,559.646 1341.98,561.954 1345.75,564.171 1349.51,566.295 1353.28,568.325 1357.04,570.259 1360.8,572.095 1364.57,573.833 1368.33,575.472 1372.09,577.009 1375.86,578.444 1379.62,579.777 1383.39,581.006 1387.15,582.13 1390.91,583.149 1394.68,584.063 1398.44,584.872 1402.2,585.574 1405.97,586.17 1409.73,586.66 1413.5,587.043 1417.26,587.321 1421.02,587.493 1424.79,587.56 1428.55,587.522 1432.31,587.381 1436.08,587.136 1439.84,586.789 1443.61,586.34 1447.37,585.792 1451.13,585.144 1454.9,584.399 1458.66,583.557 1462.43,582.621 1466.19,581.592 1469.95,580.472 1473.72,579.262 1477.48,577.964 1481.24,576.581 1485.01,575.115 1488.77,573.567 1492.54,571.941 1496.3,570.238 1500.06,568.462 1503.83,566.614 1507.59,564.697 1511.35,562.714 1515.12,560.667 1518.88,558.561 1522.65,556.396 1526.41,554.177 1530.17,551.907 1533.94,549.588 1537.7,547.223 1541.46,544.817 1545.23,542.371 1548.99,539.889 1552.76,537.375 1556.52,534.832 1560.28,532.263 1564.05,529.671 1567.81,527.06 1571.57,524.433 1575.34,521.794 1579.1,519.145 1582.87,516.492 1586.63,513.835 1590.39,511.18 1594.16,508.529 1597.92,505.887 1601.69,503.255 1605.45,500.637 1609.21,498.038 1612.98,495.459 1616.74,492.904 1620.5,490.377 1624.27,487.88 1628.03,485.416 1631.8,482.989 1635.56,480.601 1639.32,478.256 1643.09,475.956 1646.85,473.703 1650.61,471.501 1654.38,469.352 1658.14,467.259 1661.91,465.224 1665.67,463.25 1669.43,461.338 1673.2,459.492 1676.96,457.712 1680.72,456.002 1684.49,454.363 1688.25,452.796 1692.02,451.304 1695.78,449.889 1699.54,448.55 1703.31,447.291 1707.07,446.113 1710.83,445.016 1714.6,444.001 1718.36,443.07 1722.13,442.224 1725.89,441.462 1729.65,440.786 1733.42,440.197 1737.18,439.694 1740.94,439.278 1744.71,438.949 1748.47,438.707 1752.24,438.552 1756,438.484 1759.76,438.502 1763.53,438.607 1767.29,438.797 1771.06,439.071 1774.82,439.43 1778.58,439.872 1782.35,440.396 1786.11,441.001 1789.87,441.687 1793.64,442.45 1797.4,443.291 1801.17,444.208 1804.93,445.199 1808.69,446.262 1812.46,447.396 1816.22,448.598 1819.98,449.868 1823.75,451.202 1827.51,452.599 1831.28,454.056 1835.04,455.571 1838.8,457.142 1842.57,458.766 1846.33,460.441 1850.09,462.165 1853.86,463.934 1857.62,465.746 1861.39,467.598 1865.15,469.488 1868.91,471.413 1872.68,473.37 1876.44,475.355 1880.2,477.367 1883.97,479.402 1887.73,481.457 1891.5,483.529 1895.26,485.616 1899.02,487.714 1902.79,489.82 1906.55,491.932 1910.31,494.046 1914.08,496.158 1917.84,498.268 1921.61,500.37 1925.37,502.463 1929.13,504.543 1932.9,506.608 1936.66,508.654 1940.43,510.679 1944.19,512.68 1947.95,514.655 1951.72,516.599 1955.48,518.512 1959.24,520.389 1963.01,522.23 1966.77,524.03 1970.54,525.788 1974.3,527.502 1978.06,529.169 1981.83,530.786 1985.59,532.352 1989.35,533.865 1993.12,535.322 1996.88,536.722 2000.65,538.063 2004.41,539.343 2008.17,540.56 2011.94,541.714 2015.7,542.802 2019.46,543.823 2023.23,544.776 2026.99,545.66 2030.76,546.473 2034.52,547.215 2038.28,547.886 2042.05,548.483 2045.81,549.007 2049.57,549.456 2053.34,549.832 2057.1,550.132 2060.87,550.358 2064.63,550.508 2068.39,550.584 2072.16,550.584 2075.92,550.51 2079.69,550.362 2083.45,550.139 2087.21,549.843 2090.98,549.474 2094.74,549.033 2098.5,548.521 2102.27,547.939 2106.03,547.287 2109.8,546.568 2113.56,545.781 2117.32,544.93 2121.09,544.014 2124.85,543.035 2128.61,541.995 2132.38,540.897 2136.14,539.74 2139.91,538.528 2143.67,537.263 2147.43,535.945 2151.2,534.578 2154.96,533.163 2158.72,531.703 2162.49,530.199 2166.25,528.655 2170.02,527.072 2173.78,525.454 2177.54,523.801 2181.31,522.118 2185.07,520.406 2188.83,518.668 2192.6,516.907 2196.36,515.125 2200.13,513.326 2203.89,511.51 2207.65,509.683 2211.42,507.845 2215.18,506 2218.94,504.151 2222.71,502.3 2226.47,500.45 2230.24,498.604 2234,496.764 2237.76,494.934 2241.53,493.115 2245.29,491.311 2249.06,489.524 2252.82,487.757 2256.58,486.012 2260.35,484.292 2264.11,482.6 2267.87,480.937 2271.64,479.306 2275.4,477.71 2279.17,476.151 2282.93,474.631 2286.69,473.152 2290.46,471.717 2294.22,470.327 2297.98,468.984 2301.75,467.691 2305.51,466.449 2309.28,465.26 2313.04,464.125 2316.8,463.047 2320.57,462.026 2324.33,461.064 2328.09,460.163 2331.86,459.323 2335.62,458.546 2339.39,457.833 2343.15,457.185 2346.91,456.602 2350.68,456.086 2354.44,455.637 2358.2,455.256 2361.97,454.942 2365.73,454.697 2369.5,454.521 2373.26,454.414 2377.02,454.376 2380.79,454.407 2384.55,454.506 2388.31,454.674 2392.08,454.91 2395.84,455.214 2399.61,455.586 2403.37,456.023 2407.13,456.527 2410.9,457.095 2414.66,457.728 2418.43,458.424 2422.19,459.181 2425.95,459.999 2429.72,460.877 2433.48,461.813 2437.24,462.805 2441.01,463.852 2444.77,464.953 2448.54,466.105 2452.3,467.308 2456.06,468.558 2459.83,469.855 2463.59,471.196 2467.35,472.578 2471.12,474.001 2474.88,475.462 2478.65,476.958 2482.41,478.488 2486.17,480.049 2489.94,481.638 2493.7,483.254 2497.46,484.893 2501.23,486.554 2504.99,488.234 2508.76,489.93 2512.52,491.64 2516.28,493.361 2520.05,495.09 2523.81,496.826 2527.57,498.565 2531.34,500.305 2535.1,502.043 2538.87,503.777 2542.63,505.503 2546.39,507.221 2550.16,508.926 2553.92,510.616 2557.69,512.289 2561.45,513.943 2565.21,515.574 2568.98,517.18 2572.74,518.76 2576.5,520.311 2580.27,521.829 2584.03,523.314 2587.8,524.763 2591.56,526.173 2595.32,527.543 2599.09,528.87 2602.85,530.154 2606.61,531.391 2610.38,532.579 2614.14,533.718 2617.91,534.805 2621.67,535.839 2625.43,536.819 2629.2,537.742 2632.96,538.607 2636.72,539.414 2640.49,540.16 2644.25,540.846 2648.02,541.469 2651.78,542.029 2655.54,542.526 2659.31,542.957 2663.07,543.323 2666.83,543.624 2670.6,543.858 2674.36,544.026 2678.13,544.126 2681.89,544.16 "/>
<polyline clip-path="url(#clip222)" style="stroke:#000000; stroke-linecap:round; stroke-linejoin:round; stroke-width:4; stroke-opacity:1; fill:none" stroke-dasharray="16, 10" points="-1458.27,273.622 3058.27,273.622 "/>
<polyline clip-path="url(#clip222)" style="stroke:#000000; stroke-linecap:round; stroke-linejoin:round; stroke-width:4; stroke-opacity:1; fill:none" stroke-dasharray="16, 10" points="-1458.27,726.378 3058.27,726.378 "/>
<line clip-path="url(#clip222)" x1="737.266" y1="273.637" x2="697.266" y2="233.637" style="stroke:#ff0000; stroke-width:4; stroke-opacity:1"/>
<line clip-path="url(#clip222)" x1="737.266" y1="273.637" x2="697.266" y2="313.637" style="stroke:#ff0000; stroke-width:4; stroke-opacity:1"/>
<line clip-path="url(#clip222)" x1="737.266" y1="273.637" x2="777.266" y2="313.637" style="stroke:#ff0000; stroke-width:4; stroke-opacity:1"/>
<line clip-path="url(#clip222)" x1="737.266" y1="273.637" x2="777.266" y2="233.637" style="stroke:#ff0000; stroke-width:4; stroke-opacity:1"/>
<line clip-path="url(#clip222)" x1="862.725" y1="273.607" x2="822.725" y2="233.607" style="stroke:#ff0000; stroke-width:4; stroke-opacity:1"/>
<line clip-path="url(#clip222)" x1="862.725" y1="273.607" x2="822.725" y2="313.607" style="stroke:#ff0000; stroke-width:4; stroke-opacity:1"/>
<line clip-path="url(#clip222)" x1="862.725" y1="273.607" x2="902.725" y2="313.607" style="stroke:#ff0000; stroke-width:4; stroke-opacity:1"/>
<line clip-path="url(#clip222)" x1="862.725" y1="273.607" x2="902.725" y2="233.607" style="stroke:#ff0000; stroke-width:4; stroke-opacity:1"/>
<path clip-path="url(#clip220)" d="M97.4278 388.468 L326.621 388.468 L326.621 77.4278 L97.4278 77.4278  Z" fill="#ffffff" fill-rule="evenodd" fill-opacity="1"/>
<polyline clip-path="url(#clip220)" style="stroke:#000000; stroke-linecap:round; stroke-linejoin:round; stroke-width:4; stroke-opacity:1; fill:none" points="97.4278,388.468 326.621,388.468 326.621,77.4278 97.4278,77.4278 97.4278,388.468 "/>
<path clip-path="url(#clip220)" d="M129.43 120.279 L129.43 190.097 L199.249 190.097 L199.249 120.279 L129.43 120.279 Z" fill="#ffff00" fill-rule="evenodd" fill-opacity="1" stroke="#000000" stroke-opacity="1" stroke-width="3.49091"/>
<path clip-path="url(#clip220)" d="M270.249 142.438 Q269.336 146.97 268.106 149.57 Q266.139 153.54 262.766 153.54 Q260.377 153.54 258.55 152.1 Q256.758 150.659 256.301 148.27 Q255.388 149.359 254.72 149.992 Q254.088 150.624 252.823 151.608 Q251.593 152.556 250.048 153.048 Q248.502 153.54 246.745 153.54 Q242.459 153.54 239.753 151.292 Q236.1 166.013 235.783 166.75 Q234.764 168.261 233.289 168.261 Q232.375 168.261 231.813 167.699 Q231.251 167.172 231.251 166.329 Q231.286 166.048 231.497 165.169 L241.826 123.536 Q242.107 122.412 242.81 121.779 Q243.548 121.112 243.969 121.041 Q244.391 120.936 244.707 120.936 Q245.656 120.936 246.218 121.463 Q246.815 121.955 246.815 122.868 Q246.815 123.009 246.605 123.817 Q246.429 124.59 246.148 125.784 Q245.867 126.944 245.726 127.471 L242.705 139.557 Q241.686 143.703 241.686 145.67 Q241.686 148.656 243.021 150.308 Q244.391 151.924 247.026 151.924 Q248.677 151.924 250.223 151.256 Q251.769 150.554 252.823 149.605 Q253.877 148.656 254.72 147.638 Q255.564 146.584 255.95 145.916 Q256.337 145.213 256.372 145.038 L258.234 137.695 L261.642 124.239 Q261.853 123.395 262.239 122.833 Q262.661 122.236 263.152 122.025 Q263.644 121.814 263.925 121.779 Q264.206 121.709 264.452 121.709 Q265.331 121.709 265.928 122.236 Q266.525 122.763 266.525 123.676 Q266.525 123.852 266.314 124.695 Q266.139 125.503 265.858 126.698 Q265.577 127.857 265.436 128.49 Q264.312 132.917 264.206 133.373 L262.204 141.138 Q262.098 141.595 261.747 143.07 Q261.431 144.546 261.255 145.319 Q261.08 146.057 260.904 147.075 Q260.763 148.059 260.763 148.621 Q260.763 151.924 262.942 151.924 Q263.785 151.924 264.523 151.432 Q265.26 150.905 265.752 150.167 Q266.279 149.429 266.771 148.165 Q267.298 146.865 267.614 145.811 Q267.931 144.722 268.387 143.035 Q268.563 142.227 268.739 141.981 Q268.914 141.735 269.406 141.735 Q270.249 141.735 270.249 142.438 Z" fill="#000000" fill-rule="nonzero" fill-opacity="1" /><path clip-path="url(#clip220)" d="M277.546 171.931 Q277.546 164.528 279.415 160.495 Q282.022 154.494 288.17 154.494 Q289.474 154.494 290.826 154.863 Q292.203 155.207 293.925 156.56 Q295.671 157.912 296.729 160.126 Q298.745 164.405 298.745 171.931 Q298.745 179.284 296.876 183.293 Q294.146 189.146 288.121 189.146 Q285.858 189.146 283.547 187.99 Q281.259 186.834 279.808 184.055 Q277.546 179.899 277.546 171.931 M281.727 171.316 Q281.727 178.915 282.268 181.94 Q282.882 185.211 284.555 186.638 Q286.252 188.039 288.121 188.039 Q290.138 188.039 291.81 186.539 Q293.507 185.014 294.023 181.744 Q294.589 178.522 294.564 171.316 Q294.564 164.307 294.073 161.503 Q293.409 158.232 291.638 156.929 Q289.892 155.601 288.121 155.601 Q287.457 155.601 286.744 155.797 Q286.055 155.994 285.047 156.56 Q284.038 157.125 283.251 158.527 Q282.489 159.929 282.12 162.044 Q281.727 164.774 281.727 171.316 Z" fill="#000000" fill-rule="nonzero" fill-opacity="1" /><polyline clip-path="url(#clip220)" style="stroke:#800080; stroke-linecap:round; stroke-linejoin:round; stroke-width:6; stroke-opacity:1; fill:none" points="114.156,232.948 214.523,232.948 "/>
<path clip-path="url(#clip220)" d="M264.874 206.191 Q264.874 208.159 264.277 210.372 L256.091 242.941 Q255.353 245.822 253.139 245.822 Q252.226 245.822 251.664 245.26 Q251.137 244.733 251.137 243.89 Q251.137 243.609 251.348 242.73 L259.534 209.634 Q260.272 206.613 260.272 205.102 Q260.272 200.078 256.372 200.078 Q252.929 200.078 249.485 202.608 Q247.904 203.872 246.359 206.156 Q244.848 208.405 244.567 209.213 Q244.251 211.04 243.794 212.445 Q243.583 213.429 242.564 217.258 L240.983 223.758 Q239.859 228.607 239.613 229.063 Q239.262 230.047 238.489 230.574 Q237.716 231.101 236.943 231.101 Q236.064 231.101 235.467 230.574 Q234.87 230.047 234.87 229.134 Q234.87 228.993 234.975 228.466 Q235.081 227.939 235.256 227.201 Q235.432 226.463 235.502 226.042 L239.683 209.424 Q240.456 206.402 240.632 205.453 Q240.843 204.47 240.843 203.381 Q240.843 201.483 240.245 200.781 Q239.648 200.078 238.594 200.078 Q236.767 200.078 235.573 202.256 Q234.378 204.435 233.359 208.651 Q233.043 209.81 232.832 210.056 Q232.656 210.302 232.129 210.302 Q231.251 210.267 231.251 209.564 Q231.251 209.388 231.532 208.264 Q231.813 207.105 232.34 205.418 Q232.902 203.697 233.5 202.608 Q233.851 201.87 234.167 201.378 Q234.483 200.886 235.116 200.113 Q235.748 199.34 236.697 198.919 Q237.645 198.497 238.805 198.497 Q241.37 198.497 243.267 200.148 Q245.199 201.8 245.445 204.751 Q246.183 203.662 247.132 202.678 Q248.115 201.694 249.485 200.71 Q250.856 199.692 252.718 199.094 Q254.58 198.497 256.582 198.497 Q260.588 198.497 262.731 200.57 Q264.874 202.608 264.874 206.191 Z" fill="#000000" fill-rule="nonzero" fill-opacity="1" /><path clip-path="url(#clip220)" d="M297.136 266.485 Q297.136 266.953 296.595 267.002 L295.488 267.002 Q294.357 267.002 293.865 266.83 Q293.373 266.657 292.808 265.87 Q292.463 265.379 291.602 263.091 Q290.766 260.78 289.537 257.287 Q288.332 253.795 287.52 251.729 L275.395 266.043 Q274.559 267.1 273.723 267.1 Q273.108 267.1 272.665 266.682 Q272.223 266.264 272.223 265.624 Q272.223 265.157 272.395 264.887 Q272.592 264.616 273.108 264.075 L287.028 250.278 L282.134 236.579 Q281.199 234.046 280.658 233.407 Q280.142 232.767 278.863 232.546 Q278.396 232.423 278.396 232.03 Q278.396 231.489 279.306 231.489 Q284.175 231.489 285.454 235.055 L295.734 263.706 Q296.3 265.354 296.89 266.043 Q297.136 266.362 297.136 266.485 Z" fill="#000000" fill-rule="nonzero" fill-opacity="1" /><line clip-path="url(#clip220)" x1="164.339" y1="310.708" x2="129.43" y2="275.799" style="stroke:#ff0000; stroke-width:3.49091; stroke-opacity:1"/>
<line clip-path="url(#clip220)" x1="164.339" y1="310.708" x2="129.43" y2="345.617" style="stroke:#ff0000; stroke-width:3.49091; stroke-opacity:1"/>
<line clip-path="url(#clip220)" x1="164.339" y1="310.708" x2="199.249" y2="345.617" style="stroke:#ff0000; stroke-width:3.49091; stroke-opacity:1"/>
<line clip-path="url(#clip220)" x1="164.339" y1="310.708" x2="199.249" y2="275.799" style="stroke:#ff0000; stroke-width:3.49091; stroke-opacity:1"/>
<path clip-path="url(#clip220)" d="M270.249 297.759 Q269.336 302.291 268.106 304.891 Q266.139 308.861 262.766 308.861 Q260.377 308.861 258.55 307.421 Q256.758 305.98 256.301 303.591 Q255.388 304.68 254.72 305.312 Q254.088 305.945 252.823 306.929 Q251.593 307.877 250.048 308.369 Q248.502 308.861 246.745 308.861 Q242.459 308.861 239.753 306.612 Q236.1 321.333 235.783 322.071 Q234.764 323.582 233.289 323.582 Q232.375 323.582 231.813 323.02 Q231.251 322.493 231.251 321.65 Q231.286 321.369 231.497 320.49 L241.826 278.857 Q242.107 277.733 242.81 277.1 Q243.548 276.433 243.969 276.362 Q244.391 276.257 244.707 276.257 Q245.656 276.257 246.218 276.784 Q246.815 277.276 246.815 278.189 Q246.815 278.33 246.605 279.138 Q246.429 279.911 246.148 281.105 Q245.867 282.265 245.726 282.792 L242.705 294.878 Q241.686 299.024 241.686 300.991 Q241.686 303.977 243.021 305.629 Q244.391 307.245 247.026 307.245 Q248.677 307.245 250.223 306.577 Q251.769 305.875 252.823 304.926 Q253.877 303.977 254.72 302.959 Q255.564 301.905 255.95 301.237 Q256.337 300.534 256.372 300.359 L258.234 293.016 L261.642 279.56 Q261.853 278.716 262.239 278.154 Q262.661 277.557 263.152 277.346 Q263.644 277.135 263.925 277.1 Q264.206 277.03 264.452 277.03 Q265.331 277.03 265.928 277.557 Q266.525 278.084 266.525 278.997 Q266.525 279.173 266.314 280.016 Q266.139 280.824 265.858 282.019 Q265.577 283.178 265.436 283.811 Q264.312 288.238 264.206 288.694 L262.204 296.459 Q262.098 296.916 261.747 298.391 Q261.431 299.867 261.255 300.64 Q261.08 301.378 260.904 302.396 Q260.763 303.38 260.763 303.942 Q260.763 307.245 262.942 307.245 Q263.785 307.245 264.523 306.753 Q265.26 306.226 265.752 305.488 Q266.279 304.75 266.771 303.486 Q267.298 302.186 267.614 301.132 Q267.931 300.042 268.387 298.356 Q268.563 297.548 268.739 297.302 Q268.914 297.056 269.406 297.056 Q270.249 297.056 270.249 297.759 Z" fill="#000000" fill-rule="nonzero" fill-opacity="1" /><path clip-path="url(#clip220)" d="M302.459 344.245 Q302.459 344.713 301.918 344.762 L300.811 344.762 Q299.68 344.762 299.188 344.59 Q298.696 344.417 298.13 343.63 Q297.786 343.139 296.925 340.851 Q296.089 338.54 294.86 335.047 Q293.654 331.555 292.843 329.489 L280.718 343.803 Q279.882 344.86 279.046 344.86 Q278.431 344.86 277.988 344.442 Q277.546 344.024 277.546 343.384 Q277.546 342.917 277.718 342.647 Q277.915 342.376 278.431 341.835 L292.351 328.038 L287.457 314.339 Q286.522 311.806 285.981 311.167 Q285.465 310.527 284.186 310.306 Q283.719 310.183 283.719 309.79 Q283.719 309.249 284.629 309.249 Q289.498 309.249 290.777 312.815 L301.057 341.466 Q301.623 343.114 302.213 343.803 Q302.459 344.122 302.459 344.245 Z" fill="#000000" fill-rule="nonzero" fill-opacity="1" /></svg>
