<?xml version="1.0" encoding="utf-8"?>
<svg xmlns="http://www.w3.org/2000/svg" xmlns:xlink="http://www.w3.org/1999/xlink" width="400" height="250" viewBox="0 0 1600 1000">
<defs>
  <clipPath id="clip140">
    <rect x="0" y="0" width="1600" height="1000"/>
  </clipPath>
</defs>
<path clip-path="url(#clip140)" d="M0 1000 L1600 1000 L1600 0 L0 0  Z" fill="#ffffff" fill-rule="evenodd" fill-opacity="1"/>
<defs>
  <clipPath id="clip141">
    <rect x="320" y="0" width="1121" height="1000"/>
  </clipPath>
</defs>
<path clip-path="url(#clip140)" d="M47.2441 952.756 L1552.76 952.756 L1552.76 47.2441 L47.2441 47.2441  Z" fill="#ffffff" fill-rule="evenodd" fill-opacity="1"/>
<defs>
  <clipPath id="clip142">
    <rect x="47" y="47" width="1507" height="907"/>
  </clipPath>
</defs>
<polyline clip-path="url(#clip140)" style="stroke:#000000; stroke-linecap:round; stroke-linejoin:round; stroke-width:4; stroke-opacity:1; fill:none" points="47.2441,952.756 1552.76,952.756 "/>
<polyline clip-path="url(#clip140)" style="stroke:#000000; stroke-linecap:round; stroke-linejoin:round; stroke-width:4; stroke-opacity:1; fill:none" points="47.2441,47.2441 1552.76,47.2441 "/>
<polyline clip-path="url(#clip140)" style="stroke:#000000; stroke-linecap:round; stroke-linejoin:round; stroke-width:4; stroke-opacity:1; fill:none" points="47.2441,952.756 47.2441,47.2441 "/>
<polyline clip-path="url(#clip140)" style="stroke:#000000; stroke-linecap:round; stroke-linejoin:round; stroke-width:4; stroke-opacity:1; fill:none" points="1552.76,952.756 1552.76,47.2441 "/>
<polyline clip-path="url(#clip142)" style="stroke:#000000; stroke-linecap:round; stroke-linejoin:round; stroke-width:4; stroke-opacity:1; fill:none" points="-1458.27,500 3058.27,500 "/>
<path clip-path="url(#clip142)" d="M540.446 233.622 L540.446 313.622 L620.446 313.622 L620.446 233.622 L540.446 233.622 Z" fill="#ffff00" fill-rule="evenodd" fill-opacity="1" stroke="#000000" stroke-opacity="1" stroke-width="4"/>
<path clip-path="url(#clip142)" d="M979.554 686.378 L979.554 766.378 L1059.55 766.378 L1059.55 686.378 L979.554 686.378 Z" fill="#ffff00" fill-rule="evenodd" fill-opacity="1" stroke="#000000" stroke-opacity="1" stroke-width="4"/>
<polyline clip-path="url(#clip142)" style="stroke:#800080; stroke-linecap:round; stroke-linejoin:round; stroke-width:4; stroke-opacity:1; fill:none" points="-1081.89,500 -1078.13,500.514 -1074.36,501.028 -1070.6,501.54 -1066.83,502.049 -1063.07,502.554 -1059.31,503.055 -1055.54,503.55 -1051.78,504.04 -1048.02,504.522 -1044.25,504.996 -1040.49,505.461 -1036.72,505.917 -1032.96,506.362 -1029.2,506.796 -1025.43,507.218 -1021.67,507.628 -1017.91,508.023 -1014.14,508.405 -1010.38,508.772 -1006.61,509.123 -1002.85,509.458 -999.087,509.777 -995.323,510.078 -991.559,510.361 -987.795,510.626 -984.031,510.872 -980.268,511.099 -976.504,511.306 -972.74,511.493 -968.976,511.66 -965.213,511.806 -961.449,511.931 -957.685,512.034 -953.921,512.116 -950.157,512.177 -946.394,512.216 -942.63,512.233 -938.866,512.228 -935.102,512.201 -931.339,512.152 -927.575,512.082 -923.811,511.989 -920.047,511.875 -916.283,511.74 -912.52,511.583 -908.756,511.406 -904.992,511.208 -901.228,510.989 -897.465,510.751 -893.701,510.493 -889.937,510.216 -886.173,509.92 -882.409,509.605 -878.646,509.274 -874.882,508.925 -871.118,508.559 -867.354,508.177 -863.591,507.781 -859.827,507.369 -856.063,506.944 -852.299,506.506 -848.535,506.055 -844.772,505.592 -841.008,505.119 -837.244,504.635 -833.48,504.143 -829.717,503.641 -825.953,503.133 -822.189,502.618 -818.425,502.097 -814.661,501.571 -810.898,501.042 -807.134,500.509 -803.37,499.975 -799.606,499.439 -795.843,498.903 -792.079,498.368 -788.315,497.835 -784.551,497.304 -780.787,496.777 -777.024,496.255 -773.26,495.738 -769.496,495.228 -765.732,494.724 -761.969,494.23 -758.205,493.744 -754.441,493.268 -750.677,492.804 -746.913,492.351 -743.15,491.91 -739.386,491.483 -735.622,491.07 -731.858,490.672 -728.094,490.29 -724.331,489.925 -720.567,489.576 -716.803,489.245 -713.039,488.933 -709.276,488.639 -705.512,488.365 -701.748,488.112 -697.984,487.879 -694.22,487.667 -690.457,487.476 -686.693,487.308 -682.929,487.162 -679.165,487.039 -675.402,486.938 -671.638,486.861 -667.874,486.807 -664.11,486.777 -660.346,486.771 -656.583,486.788 -652.819,486.83 -649.055,486.895 -645.291,486.984 -641.528,487.097 -637.764,487.234 -634,487.394 -630.236,487.577 -626.472,487.784 -622.709,488.013 -618.945,488.265 -615.181,488.539 -611.417,488.835 -607.654,489.152 -603.89,489.49 -600.126,489.848 -596.362,490.226 -592.598,490.623 -588.835,491.039 -585.071,491.472 -581.307,491.923 -577.543,492.39 -573.78,492.873 -570.016,493.37 -566.252,493.882 -562.488,494.407 -558.724,494.945 -554.961,495.494 -551.197,496.053 -547.433,496.622 -543.669,497.2 -539.906,497.786 -536.142,498.378 -532.378,498.976 -528.614,499.578 -524.85,500.184 -521.087,500.792 -517.323,501.402 -513.559,502.012 -509.795,502.622 -506.031,503.229 -502.268,503.834 -498.504,504.435 -494.74,505.031 -490.976,505.62 -487.213,506.202 -483.449,506.776 -479.685,507.341 -475.921,507.895 -472.157,508.438 -468.394,508.968 -464.63,509.485 -460.866,509.987 -457.102,510.474 -453.339,510.944 -449.575,511.397 -445.811,511.832 -442.047,512.247 -438.283,512.643 -434.52,513.018 -430.756,513.371 -426.992,513.702 -423.228,514.01 -419.465,514.294 -415.701,514.553 -411.937,514.788 -408.173,514.997 -404.409,515.18 -400.646,515.336 -396.882,515.465 -393.118,515.567 -389.354,515.641 -385.591,515.687 -381.827,515.704 -378.063,515.693 -374.299,515.653 -370.535,515.584 -366.772,515.486 -363.008,515.36 -359.244,515.204 -355.48,515.019 -351.717,514.806 -347.953,514.564 -344.189,514.293 -340.425,513.995 -336.661,513.668 -332.898,513.315 -329.134,512.934 -325.37,512.527 -321.606,512.095 -317.843,511.636 -314.079,511.153 -310.315,510.646 -306.551,510.116 -302.787,509.563 -299.024,508.989 -295.26,508.394 -291.496,507.778 -287.732,507.144 -283.969,506.491 -280.205,505.822 -276.441,505.136 -272.677,504.436 -268.913,503.722 -265.15,502.995 -261.386,502.257 -257.622,501.509 -253.858,500.751 -250.094,499.987 -246.331,499.215 -242.567,498.439 -238.803,497.659 -235.039,496.877 -231.276,496.094 -227.512,495.311 -223.748,494.53 -219.984,493.753 -216.22,492.98 -212.457,492.213 -208.693,491.454 -204.929,490.703 -201.165,489.963 -197.402,489.235 -193.638,488.52 -189.874,487.82 -186.11,487.136 -182.346,486.469 -178.583,485.821 -174.819,485.193 -171.055,484.587 -167.291,484.003 -163.528,483.444 -159.764,482.909 -156,482.402 -152.236,481.922 -148.472,481.47 -144.709,481.049 -140.945,480.659 -137.181,480.3 -133.417,479.975 -129.654,479.684 -125.89,479.428 -122.126,479.207 -118.362,479.023 -114.598,478.877 -110.835,478.768 -107.071,478.698 -103.307,478.667 -99.5433,478.676 -95.7795,478.724 -92.0157,478.814 -88.252,478.944 -84.4882,479.116 -80.7244,479.328 -76.9606,479.582 -73.1969,479.878 -69.4331,480.215 -65.6693,480.594 -61.9055,481.014 -58.1417,481.474 -54.378,481.976 -50.6142,482.518 -46.8504,483.1 -43.0866,483.721 -39.3228,484.381 -35.5591,485.079 -31.7953,485.815 -28.0315,486.587 -24.2677,487.395 -20.5039,488.238 -16.7402,489.115 -12.9764,490.024 -9.2126,490.965 -5.44882,491.936 -1.68504,492.937 2.07874,493.965 5.84252,495.019 9.6063,496.098 13.3701,497.2 17.1339,498.323 20.8976,499.467 24.6614,500.628 28.4252,501.806 32.189,502.999 35.9528,504.204 39.7165,505.42 43.4803,506.644 47.2441,507.876 51.0079,509.111 54.7717,510.35 58.5354,511.588 62.2992,512.825 66.063,514.057 69.8268,515.283 73.5906,516.5 77.3543,517.706 81.1181,518.899 84.8819,520.076 88.6457,521.236 92.4094,522.374 96.1732,523.49 99.937,524.58 103.701,525.643 107.465,526.676 111.228,527.676 114.992,528.642 118.756,529.57 122.52,530.459 126.283,531.306 130.047,532.108 133.811,532.864 137.575,533.571 141.339,534.226 145.102,534.829 148.866,535.376 152.63,535.865 156.394,536.294 160.157,536.662 163.921,536.966 167.685,537.204 171.449,537.374 175.213,537.475 178.976,537.504 182.74,537.461 186.504,537.343 190.268,537.148 194.031,536.876 197.795,536.525 201.559,536.094 205.323,535.581 209.087,534.985 212.85,534.305 216.614,533.54 220.378,532.689 224.142,531.752 227.906,530.727 231.669,529.615 235.433,528.413 239.197,527.123 242.961,525.744 246.724,524.275 250.488,522.717 254.252,521.07 258.016,519.332 261.78,517.506 265.543,515.591 269.307,513.588 273.071,511.496 276.835,509.318 280.598,507.053 284.362,504.702 288.126,502.267 291.89,499.749 295.654,497.148 299.417,494.467 303.181,491.706 306.945,488.867 310.709,485.952 314.472,482.963 318.236,479.901 322,476.768 325.764,473.568 329.528,470.301 333.291,466.97 337.055,463.577 340.819,460.125 344.583,456.617 348.346,453.055 352.11,449.442 355.874,445.781 359.638,442.075 363.402,438.327 367.165,434.539 370.929,430.716 374.693,426.861 378.457,422.976 382.22,419.065 385.984,415.132 389.748,411.18 393.512,407.213 397.276,403.235 401.039,399.249 404.803,395.258 408.567,391.268 412.331,387.281 416.094,383.302 419.858,379.334 423.622,375.381 427.386,371.448 431.15,367.538 434.913,363.655 438.677,359.804 442.441,355.988 446.205,352.211 449.969,348.478 453.732,344.792 457.496,341.157 461.26,337.578 465.024,334.058 468.787,330.601 472.551,327.212 476.315,323.893 480.079,320.649 483.843,317.484 487.606,314.402 491.37,311.405 495.134,308.498 498.898,305.685 502.661,302.968 506.425,300.352 510.189,297.839 513.953,295.433 517.717,293.138 521.48,290.956 525.244,288.89 529.008,286.944 532.772,285.119 536.535,283.42 540.299,281.848 544.063,280.407 547.827,279.098 551.591,277.924 555.354,276.887 559.118,275.989 562.882,275.233 566.646,274.62 570.409,274.151 574.173,273.829 577.937,273.655 581.701,273.63 585.465,273.756 589.228,274.033 592.992,274.462 596.756,275.045 600.52,275.781 604.283,276.671 608.047,277.717 611.811,278.917 615.575,280.272 619.339,281.781 623.102,283.446 626.866,285.264 630.63,287.237 634.394,289.362 638.157,291.639 641.921,294.068 645.685,296.647 649.449,299.374 653.213,302.249 656.976,305.27 660.74,308.435 664.504,311.742 668.268,315.19 672.031,318.775 675.795,322.497 679.559,326.353 683.323,330.339 687.087,334.454 690.85,338.695 694.614,343.058 698.378,347.541 702.142,352.141 705.906,356.854 709.669,361.676 713.433,366.606 717.197,371.638 720.961,376.769 724.724,381.996 728.488,387.314 732.252,392.72 736.016,398.209 739.78,403.777 743.543,409.421 747.307,415.135 751.071,420.915 754.835,426.758 758.598,432.657 762.362,438.61 766.126,444.61 769.89,450.655 773.654,456.738 777.417,462.854 781.181,469.001 784.945,475.171 788.709,481.361 792.472,487.566 796.236,493.781 800,500 803.764,506.219 807.528,512.434 811.291,518.639 815.055,524.829 818.819,530.999 822.583,537.146 826.346,543.262 830.11,549.345 833.874,555.39 837.638,561.39 841.402,567.343 845.165,573.242 848.929,579.085 852.693,584.865 856.457,590.579 860.22,596.223 863.984,601.791 867.748,607.28 871.512,612.686 875.276,618.004 879.039,623.231 882.803,628.362 886.567,633.394 890.331,638.324 894.094,643.146 897.858,647.859 901.622,652.459 905.386,656.942 909.15,661.305 912.913,665.546 916.677,669.661 920.441,673.647 924.205,677.503 927.969,681.225 931.732,684.81 935.496,688.258 939.26,691.565 943.024,694.73 946.787,697.751 950.551,700.626 954.315,703.353 958.079,705.932 961.843,708.361 965.606,710.638 969.37,712.763 973.134,714.736 976.898,716.554 980.661,718.219 984.425,719.728 988.189,721.083 991.953,722.283 995.717,723.329 999.48,724.219 1003.24,724.955 1007.01,725.538 1010.77,725.967 1014.54,726.244 1018.3,726.37 1022.06,726.345 1025.83,726.171 1029.59,725.849 1033.35,725.38 1037.12,724.767 1040.88,724.011 1044.65,723.113 1048.41,722.076 1052.17,720.902 1055.94,719.593 1059.7,718.152 1063.46,716.58 1067.23,714.881 1070.99,713.056 1074.76,711.11 1078.52,709.044 1082.28,706.862 1086.05,704.567 1089.81,702.161 1093.57,699.648 1097.34,697.032 1101.1,694.315 1104.87,691.502 1108.63,688.595 1112.39,685.598 1116.16,682.516 1119.92,679.351 1123.69,676.107 1127.45,672.788 1131.21,669.399 1134.98,665.942 1138.74,662.422 1142.5,658.843 1146.27,655.208 1150.03,651.522 1153.8,647.789 1157.56,644.012 1161.32,640.196 1165.09,636.345 1168.85,632.462 1172.61,628.552 1176.38,624.619 1180.14,620.666 1183.91,616.698 1187.67,612.719 1191.43,608.732 1195.2,604.742 1198.96,600.751 1202.72,596.765 1206.49,592.787 1210.25,588.82 1214.02,584.868 1217.78,580.935 1221.54,577.024 1225.31,573.139 1229.07,569.284 1232.83,565.461 1236.6,561.673 1240.36,557.925 1244.13,554.219 1247.89,550.558 1251.65,546.945 1255.42,543.383 1259.18,539.875 1262.94,536.423 1266.71,533.03 1270.47,529.699 1274.24,526.432 1278,523.232 1281.76,520.099 1285.53,517.037 1289.29,514.048 1293.06,511.133 1296.82,508.294 1300.58,505.533 1304.35,502.852 1308.11,500.251 1311.87,497.733 1315.64,495.298 1319.4,492.947 1323.17,490.682 1326.93,488.504 1330.69,486.412 1334.46,484.409 1338.22,482.494 1341.98,480.668 1345.75,478.93 1349.51,477.283 1353.28,475.725 1357.04,474.256 1360.8,472.877 1364.57,471.587 1368.33,470.385 1372.09,469.273 1375.86,468.248 1379.62,467.311 1383.39,466.46 1387.15,465.695 1390.91,465.015 1394.68,464.419 1398.44,463.906 1402.2,463.475 1405.97,463.124 1409.73,462.852 1413.5,462.657 1417.26,462.539 1421.02,462.496 1424.79,462.525 1428.55,462.626 1432.31,462.796 1436.08,463.034 1439.84,463.338 1443.61,463.706 1447.37,464.135 1451.13,464.624 1454.9,465.171 1458.66,465.774 1462.43,466.429 1466.19,467.136 1469.95,467.892 1473.72,468.694 1477.48,469.541 1481.24,470.43 1485.01,471.358 1488.77,472.324 1492.54,473.324 1496.3,474.357 1500.06,475.42 1503.83,476.51 1507.59,477.626 1511.35,478.764 1515.12,479.924 1518.88,481.101 1522.65,482.294 1526.41,483.5 1530.17,484.717 1533.94,485.943 1537.7,487.175 1541.46,488.412 1545.23,489.65 1548.99,490.889 1552.76,492.124 1556.52,493.356 1560.28,494.58 1564.05,495.796 1567.81,497.001 1571.57,498.194 1575.34,499.372 1579.1,500.533 1582.87,501.677 1586.63,502.8 1590.39,503.902 1594.16,504.981 1597.92,506.035 1601.69,507.063 1605.45,508.064 1609.21,509.035 1612.98,509.976 1616.74,510.885 1620.5,511.762 1624.27,512.605 1628.03,513.413 1631.8,514.185 1635.56,514.921 1639.32,515.619 1643.09,516.279 1646.85,516.9 1650.61,517.482 1654.38,518.024 1658.14,518.526 1661.91,518.986 1665.67,519.406 1669.43,519.785 1673.2,520.122 1676.96,520.418 1680.72,520.672 1684.49,520.884 1688.25,521.056 1692.02,521.186 1695.78,521.276 1699.54,521.324 1703.31,521.333 1707.07,521.302 1710.83,521.232 1714.6,521.123 1718.36,520.977 1722.13,520.793 1725.89,520.572 1729.65,520.316 1733.42,520.025 1737.18,519.7 1740.94,519.341 1744.71,518.951 1748.47,518.53 1752.24,518.078 1756,517.598 1759.76,517.091 1763.53,516.556 1767.29,515.997 1771.06,515.413 1774.82,514.807 1778.58,514.179 1782.35,513.531 1786.11,512.864 1789.87,512.18 1793.64,511.48 1797.4,510.765 1801.17,510.037 1804.93,509.297 1808.69,508.546 1812.46,507.787 1816.22,507.02 1819.98,506.247 1823.75,505.47 1827.51,504.689 1831.28,503.906 1835.04,503.123 1838.8,502.341 1842.57,501.561 1846.33,500.785 1850.09,500.013 1853.86,499.249 1857.62,498.491 1861.39,497.743 1865.15,497.005 1868.91,496.278 1872.68,495.564 1876.44,494.864 1880.2,494.178 1883.97,493.509 1887.73,492.856 1891.5,492.222 1895.26,491.606 1899.02,491.011 1902.79,490.437 1906.55,489.884 1910.31,489.354 1914.08,488.847 1917.84,488.364 1921.61,487.905 1925.37,487.473 1929.13,487.066 1932.9,486.685 1936.66,486.332 1940.43,486.005 1944.19,485.707 1947.95,485.436 1951.72,485.194 1955.48,484.981 1959.24,484.796 1963.01,484.64 1966.77,484.514 1970.54,484.416 1974.3,484.347 1978.06,484.307 1981.83,484.296 1985.59,484.313 1989.35,484.359 1993.12,484.433 1996.88,484.535 2000.65,484.664 2004.41,484.82 2008.17,485.003 2011.94,485.212 2015.7,485.447 2019.46,485.706 2023.23,485.99 2026.99,486.298 2030.76,486.629 2034.52,486.982 2038.28,487.357 2042.05,487.753 2045.81,488.168 2049.57,488.603 2053.34,489.056 2057.1,489.526 2060.87,490.013 2064.63,490.515 2068.39,491.032 2072.16,491.562 2075.92,492.105 2079.69,492.659 2083.45,493.224 2087.21,493.798 2090.98,494.38 2094.74,494.969 2098.5,495.565 2102.27,496.166 2106.03,496.771 2109.8,497.378 2113.56,497.988 2117.32,498.598 2121.09,499.208 2124.85,499.816 2128.61,500.422 2132.38,501.024 2136.14,501.622 2139.91,502.214 2143.67,502.8 2147.43,503.378 2151.2,503.947 2154.96,504.506 2158.72,505.055 2162.49,505.593 2166.25,506.118 2170.02,506.63 2173.78,507.127 2177.54,507.61 2181.31,508.077 2185.07,508.528 2188.83,508.961 2192.6,509.377 2196.36,509.774 2200.13,510.152 2203.89,510.51 2207.65,510.848 2211.42,511.165 2215.18,511.461 2218.94,511.735 2222.71,511.987 2226.47,512.216 2230.24,512.423 2234,512.606 2237.76,512.766 2241.53,512.903 2245.29,513.016 2249.06,513.105 2252.82,513.17 2256.58,513.212 2260.35,513.229 2264.11,513.223 2267.87,513.193 2271.64,513.139 2275.4,513.062 2279.17,512.961 2282.93,512.838 2286.69,512.692 2290.46,512.524 2294.22,512.333 2297.98,512.121 2301.75,511.888 2305.51,511.635 2309.28,511.361 2313.04,511.067 2316.8,510.755 2320.57,510.424 2324.33,510.075 2328.09,509.71 2331.86,509.328 2335.62,508.93 2339.39,508.517 2343.15,508.09 2346.91,507.649 2350.68,507.196 2354.44,506.732 2358.2,506.256 2361.97,505.77 2365.73,505.276 2369.5,504.772 2373.26,504.262 2377.02,503.745 2380.79,503.223 2384.55,502.696 2388.31,502.165 2392.08,501.632 2395.84,501.097 2399.61,500.561 2403.37,500.025 2407.13,499.491 2410.9,498.958 2414.66,498.429 2418.43,497.903 2422.19,497.382 2425.95,496.867 2429.72,496.359 2433.48,495.857 2437.24,495.365 2441.01,494.881 2444.77,494.408 2448.54,493.945 2452.3,493.494 2456.06,493.056 2459.83,492.631 2463.59,492.219 2467.35,491.823 2471.12,491.441 2474.88,491.075 2478.65,490.726 2482.41,490.395 2486.17,490.08 2489.94,489.784 2493.7,489.507 2497.46,489.249 2501.23,489.011 2504.99,488.792 2508.76,488.594 2512.52,488.417 2516.28,488.26 2520.05,488.125 2523.81,488.011 2527.57,487.918 2531.34,487.848 2535.1,487.799 2538.87,487.772 2542.63,487.767 2546.39,487.784 2550.16,487.823 2553.92,487.884 2557.69,487.966 2561.45,488.069 2565.21,488.194 2568.98,488.34 2572.74,488.507 2576.5,488.694 2580.27,488.901 2584.03,489.128 2587.8,489.374 2591.56,489.639 2595.32,489.922 2599.09,490.223 2602.85,490.542 2606.61,490.877 2610.38,491.228 2614.14,491.595 2617.91,491.977 2621.67,492.372 2625.43,492.782 2629.2,493.204 2632.96,493.638 2636.72,494.083 2640.49,494.539 2644.25,495.004 2648.02,495.478 2651.78,495.96 2655.54,496.45 2659.31,496.945 2663.07,497.446 2666.83,497.951 2670.6,498.46 2674.36,498.972 2678.13,499.486 2681.89,500 "/>
<polyline clip-path="url(#clip142)" style="stroke:#000000; stroke-linecap:round; stroke-linejoin:round; stroke-width:4; stroke-opacity:1; fill:none" stroke-dasharray="16, 10" points="-1458.27,273.622 3058.27,273.622 "/>
<polyline clip-path="url(#clip142)" style="stroke:#000000; stroke-linecap:round; stroke-linejoin:round; stroke-width:4; stroke-opacity:1; fill:none" stroke-dasharray="16, 10" points="-1458.27,726.378 3058.27,726.378 "/>
<line clip-path="url(#clip142)" x1="580.445" y1="273.622" x2="540.445" y2="233.622" style="stroke:#ff0000; stroke-width:4; stroke-opacity:1"/>
<line clip-path="url(#clip142)" x1="580.445" y1="273.622" x2="540.445" y2="313.622" style="stroke:#ff0000; stroke-width:4; stroke-opacity:1"/>
<line clip-path="url(#clip142)" x1="580.445" y1="273.622" x2="620.445" y2="313.622" style="stroke:#ff0000; stroke-width:4; stroke-opacity:1"/>
<line clip-path="url(#clip142)" x1="580.445" y1="273.622" x2="620.445" y2="233.622" style="stroke:#ff0000; stroke-width:4; stroke-opacity:1"/>
<line clip-path="url(#clip142)" x1="1019.55" y1="726.378" x2="979.553" y2="686.378" style="stroke:#ff0000; stroke-width:4; stroke-opacity:1"/>
<line clip-path="url(#clip142)" x1="1019.55" y1="726.378" x2="979.553" y2="766.378" style="stroke:#ff0000; stroke-width:4; stroke-opacity:1"/>
<line clip-path="url(#clip142)" x1="1019.55" y1="726.378" x2="1059.55" y2="766.378" style="stroke:#ff0000; stroke-width:4; stroke-opacity:1"/>
<line clip-path="url(#clip142)" x1="1019.55" y1="726.378" x2="1059.55" y2="686.378" style="stroke:#ff0000; stroke-width:4; stroke-opacity:1"/>
<path clip-path="url(#clip140)" d="M97.4278 388.468 L326.621 388.468 L326.621 77.4278 L97.4278 77.4278  Z" fill="#ffffff" fill-rule="evenodd" fill-opacity="1"/>
<polyline clip-path="url(#clip140)" style="stroke:#000000; stroke-linecap:round; stroke-linejoin:round; stroke-width:4; stroke-opacity:1; fill:none" points="97.4278,388.468 326.621,388.468 326.621,77.4278 97.4278,77.4278 97.4278,388.468 "/>
<path clip-path="url(#clip140)" d="M129.43 120.279 L129.43 190.097 L199.249 190.097 L199.249 120.279 L129.43 120.279 Z" fill="#ffff00" fill-rule="evenodd" fill-opacity="1" stroke="#000000" stroke-opacity="1" stroke-width="3.49091"/>
<path clip-path="url(#clip140)" d="M270.249 142.438 Q269.336 146.97 268.106 149.57 Q266.139 153.54 262.766 153.54 Q260.377 153.54 258.55 152.1 Q256.758 150.659 256.301 148.27 Q255.388 149.359 254.72 149.992 Q254.088 150.624 252.823 151.608 Q251.593 152.556 250.048 153.048 Q248.502 153.54 246.745 153.54 Q242.459 153.54 239.753 151.292 Q236.1 166.013 235.783 166.75 Q234.764 168.261 233.289 168.261 Q232.375 168.261 231.813 167.699 Q231.251 167.172 231.251 166.329 Q231.286 166.048 231.497 165.169 L241.826 123.536 Q242.107 122.412 242.81 121.779 Q243.548 121.112 243.969 121.041 Q244.391 120.936 244.707 120.936 Q245.656 120.936 246.218 121.463 Q246.815 121.955 246.815 122.868 Q246.815 123.009 246.605 123.817 Q246.429 124.59 246.148 125.784 Q245.867 126.944 245.726 127.471 L242.705 139.557 Q241.686 143.703 241.686 145.67 Q241.686 148.656 243.021 150.308 Q244.391 151.924 247.026 151.924 Q248.677 151.924 250.223 151.256 Q251.769 150.554 252.823 149.605 Q253.877 148.656 254.72 147.638 Q255.564 146.584 255.95 145.916 Q256.337 145.213 256.372 145.038 L258.234 137.695 L261.642 124.239 Q261.853 123.395 262.239 122.833 Q262.661 122.236 263.152 122.025 Q263.644 121.814 263.925 121.779 Q264.206 121.709 264.452 121.709 Q265.331 121.709 265.928 122.236 Q266.525 122.763 266.525 123.676 Q266.525 123.852 266.314 124.695 Q266.139 125.503 265.858 126.698 Q265.577 127.857 265.436 128.49 Q264.312 132.917 264.206 133.373 L262.204 141.138 Q262.098 141.595 261.747 143.07 Q261.431 144.546 261.255 145.319 Q261.08 146.057 260.904 147.075 Q260.763 148.059 260.763 148.621 Q260.763 151.924 262.942 151.924 Q263.785 151.924 264.523 151.432 Q265.26 150.905 265.752 150.167 Q266.279 149.429 266.771 148.165 Q267.298 146.865 267.614 145.811 Q267.931 144.722 268.387 143.035 Q268.563 142.227 268.739 141.981 Q268.914 141.735 269.406 141.735 Q270.249 141.735 270.249 142.438 Z" fill="#000000" fill-rule="nonzero" fill-opacity="1" /><path clip-path="url(#clip140)" d="M277.546 171.931 Q277.546 164.528 279.415 160.495 Q282.022 154.494 288.17 154.494 Q289.474 154.494 290.826 154.863 Q292.203 155.207 293.925 156.56 Q295.671 157.912 296.729 160.126 Q298.745 164.405 298.745 171.931 Q298.745 179.284 296.876 183.293 Q294.146 189.146 288.121 189.146 Q285.858 189.146 283.547 187.99 Q281.259 186.834 279.808 184.055 Q277.546 179.899 277.546 171.931 M281.727 171.316 Q281.727 178.915 282.268 181.94 Q282.882 185.211 284.555 186.638 Q286.252 188.039 288.121 188.039 Q290.138 188.039 291.81 186.539 Q293.507 185.014 294.023 181.744 Q294.589 178.522 294.564 171.316 Q294.564 164.307 294.073 161.503 Q293.409 158.232 291.638 156.929 Q289.892 155.601 288.121 155.601 Q287.457 155.601 286.744 155.797 Q286.055 155.994 285.047 156.56 Q284.038 157.125 283.251 158.527 Q282.489 159.929 282.12 162.044 Q281.727 164.774 281.727 171.316 Z" fill="#000000" fill-rule="nonzero" fill-opacity="1" /><polyline clip-path="url(#clip140)" style="stroke:#800080; stroke-linecap:round; stroke-linejoin:round; stroke-width:6; stroke-opacity:1; fill:none" points="114.156,232.948 214.523,232.948 "/>
<path clip-path="url(#clip140)" d="M264.874 206.191 Q264.874 208.159 264.277 210.372 L256.091 242.941 Q255.353 245.822 253.139 245.822 Q252.226 245.822 251.664 245.26 Q251.137 244.733 251.137 243.89 Q251.137 243.609 251.348 242.73 L259.534 209.634 Q260.272 206.613 260.272 205.102 Q260.272 200.078 256.372 200.078 Q252.929 200.078 249.485 202.608 Q247.904 203.872 246.359 206.156 Q244.848 208.405 244.567 209.213 Q244.251 211.04 243.794 212.445 Q243.583 213.429 242.564 217.258 L240.983 223.758 Q239.859 228.607 239.613 229.063 Q239.262 230.047 238.489 230.574 Q237.716 231.101 236.943 231.101 Q236.064 231.101 235.467 230.574 Q234.87 230.047 234.87 229.134 Q234.87 228.993 234.975 228.466 Q235.081 227.939 235.256 227.201 Q235.432 226.463 235.502 226.042 L239.683 209.424 Q240.456 206.402 240.632 205.453 Q240.843 204.47 240.843 203.381 Q240.843 201.483 240.245 200.781 Q239.648 200.078 238.594 200.078 Q236.767 200.078 235.573 202.256 Q234.378 204.435 233.359 208.651 Q233.043 209.81 232.832 210.056 Q232.656 210.302 232.129 210.302 Q231.251 210.267 231.251 209.564 Q231.251 209.388 231.532 208.264 Q231.813 207.105 232.34 205.418 Q232.902 203.697 233.5 202.608 Q233.851 201.87 234.167 201.378 Q234.483 200.886 235.116 200.113 Q235.748 199.34 236.697 198.919 Q237.645 198.497 238.805 198.497 Q241.37 198.497 243.267 200.148 Q245.199 201.8 245.445 204.751 Q246.183 203.662 247.132 202.678 Q248.115 201.694 249.485 200.71 Q250.856 199.692 252.718 199.094 Q254.58 198.497 256.582 198.497 Q260.588 198.497 262.731 200.57 Q264.874 202.608 264.874 206.191 Z" fill="#000000" fill-rule="nonzero" fill-opacity="1" /><path clip-path="url(#clip140)" d="M297.136 266.485 Q297.136 266.953 296.595 267.002 L295.488 267.002 Q294.357 267.002 293.865 266.83 Q293.373 266.657 292.808 265.87 Q292.463 265.379 291.602 263.091 Q290.766 260.78 289.537 257.287 Q288.332 253.795 287.52 251.729 L275.395 266.043 Q274.559 267.1 273.723 267.1 Q273.108 267.1 272.665 266.682 Q272.223 266.264 272.223 265.624 Q272.223 265.157 272.395 264.887 Q272.592 264.616 273.108 264.075 L287.028 250.278 L282.134 236.579 Q281.199 234.046 280.658 233.407 Q280.142 232.767 278.863 232.546 Q278.396 232.423 278.396 232.03 Q278.396 231.489 279.306 231.489 Q284.175 231.489 285.454 235.055 L295.734 263.706 Q296.3 265.354 296.89 266.043 Q297.136 266.362 297.136 266.485 Z" fill="#000000" fill-rule="nonzero" fill-opacity="1" /><line clip-path="url(#clip140)" x1="164.339" y1="310.708" x2="129.43" y2="275.799" style="stroke:#ff0000; stroke-width:3.49091; stroke-opacity:1"/>
<line clip-path="url(#clip140)" x1="164.339" y1="310.708" x2="129.43" y2="345.617" style="stroke:#ff0000; stroke-width:3.49091; stroke-opacity:1"/>
<line clip-path="url(#clip140)" x1="164.339" y1="310.708" x2="199.249" y2="345.617" style="stroke:#ff0000; stroke-width:3.49091; stroke-opacity:1"/>
<line clip-path="url(#clip140)" x1="164.339" y1="310.708" x2="199.249" y2="275.799" style="stroke:#ff0000; stroke-width:3.49091; stroke-opacity:1"/>
<path clip-path="url(#clip140)" d="M270.249 297.759 Q269.336 302.291 268.106 304.891 Q266.139 308.861 262.766 308.861 Q260.377 308.861 258.55 307.421 Q256.758 305.98 256.301 303.591 Q255.388 304.68 254.72 305.312 Q254.088 305.945 252.823 306.929 Q251.593 307.877 250.048 308.369 Q248.502 308.861 246.745 308.861 Q242.459 308.861 239.753 306.612 Q236.1 321.333 235.783 322.071 Q234.764 323.582 233.289 323.582 Q232.375 323.582 231.813 323.02 Q231.251 322.493 231.251 321.65 Q231.286 321.369 231.497 320.49 L241.826 278.857 Q242.107 277.733 242.81 277.1 Q243.548 276.433 243.969 276.362 Q244.391 276.257 244.707 276.257 Q245.656 276.257 246.218 276.784 Q246.815 277.276 246.815 278.189 Q246.815 278.33 246.605 279.138 Q246.429 279.911 246.148 281.105 Q245.867 282.265 245.726 282.792 L242.705 294.878 Q241.686 299.024 241.686 300.991 Q241.686 303.977 243.021 305.629 Q244.391 307.245 247.026 307.245 Q248.677 307.245 250.223 306.577 Q251.769 305.875 252.823 304.926 Q253.877 303.977 254.72 302.959 Q255.564 301.905 255.95 301.237 Q256.337 300.534 256.372 300.359 L258.234 293.016 L261.642 279.56 Q261.853 278.716 262.239 278.154 Q262.661 277.557 263.152 277.346 Q263.644 277.135 263.925 277.1 Q264.206 277.03 264.452 277.03 Q265.331 277.03 265.928 277.557 Q266.525 278.084 266.525 278.997 Q266.525 279.173 266.314 280.016 Q266.139 280.824 265.858 282.019 Q265.577 283.178 265.436 283.811 Q264.312 288.238 264.206 288.694 L262.204 296.459 Q262.098 296.916 261.747 298.391 Q261.431 299.867 261.255 300.64 Q261.08 301.378 260.904 302.396 Q260.763 303.38 260.763 303.942 Q260.763 307.245 262.942 307.245 Q263.785 307.245 264.523 306.753 Q265.26 306.226 265.752 305.488 Q266.279 304.75 266.771 303.486 Q267.298 302.186 267.614 301.132 Q267.931 300.042 268.387 298.356 Q268.563 297.548 268.739 297.302 Q268.914 297.056 269.406 297.056 Q270.249 297.056 270.249 297.759 Z" fill="#000000" fill-rule="nonzero" fill-opacity="1" /><path clip-path="url(#clip140)" d="M302.459 344.245 Q302.459 344.713 301.918 344.762 L300.811 344.762 Q299.68 344.762 299.188 344.59 Q298.696 344.417 298.13 343.63 Q297.786 343.139 296.925 340.851 Q296.089 338.54 294.86 335.047 Q293.654 331.555 292.843 329.489 L280.718 343.803 Q279.882 344.86 279.046 344.86 Q278.431 344.86 277.988 344.442 Q277.546 344.024 277.546 343.384 Q277.546 342.917 277.718 342.647 Q277.915 342.376 278.431 341.835 L292.351 328.038 L287.457 314.339 Q286.522 311.806 285.981 311.167 Q285.465 310.527 284.186 310.306 Q283.719 310.183 283.719 309.79 Q283.719 309.249 284.629 309.249 Q289.498 309.249 290.777 312.815 L301.057 341.466 Q301.623 343.114 302.213 343.803 Q302.459 344.122 302.459 344.245 Z" fill="#000000" fill-rule="nonzero" fill-opacity="1" /></svg>
