<?xml version="1.0" encoding="utf-8"?>
<svg xmlns="http://www.w3.org/2000/svg" xmlns:xlink="http://www.w3.org/1999/xlink" width="600" height="375" viewBox="0 0 2400 1500">
<defs>
  <clipPath id="clip150">
    <rect x="0" y="0" width="2400" height="1500"/>
  </clipPath>
</defs>
<path clip-path="url(#clip150)" d="M0 1500 L2400 1500 L2400 0 L0 0  Z" fill="#ffffff" fill-rule="evenodd" fill-opacity="1"/>
<defs>
  <clipPath id="clip151">
    <rect x="480" y="0" width="1681" height="1500"/>
  </clipPath>
</defs>
<path clip-path="url(#clip150)" d="M208.355 1329.31 L2352.76 1329.31 L2352.76 47.2441 L208.355 47.2441  Z" fill="#ffffff" fill-rule="evenodd" fill-opacity="1"/>
<defs>
  <clipPath id="clip152">
    <rect x="208" y="47" width="2145" height="1283"/>
  </clipPath>
</defs>
<polyline clip-path="url(#clip152)" style="stroke:#000000; stroke-linecap:round; stroke-linejoin:round; stroke-width:2; stroke-opacity:0.1; fill:none" points="208.355,1329.31 208.355,47.2441 "/>
<polyline clip-path="url(#clip152)" style="stroke:#000000; stroke-linecap:round; stroke-linejoin:round; stroke-width:2; stroke-opacity:0.1; fill:none" points="637.235,1329.31 637.235,47.2441 "/>
<polyline clip-path="url(#clip152)" style="stroke:#000000; stroke-linecap:round; stroke-linejoin:round; stroke-width:2; stroke-opacity:0.1; fill:none" points="1066.12,1329.31 1066.12,47.2441 "/>
<polyline clip-path="url(#clip152)" style="stroke:#000000; stroke-linecap:round; stroke-linejoin:round; stroke-width:2; stroke-opacity:0.1; fill:none" points="1495,1329.31 1495,47.2441 "/>
<polyline clip-path="url(#clip152)" style="stroke:#000000; stroke-linecap:round; stroke-linejoin:round; stroke-width:2; stroke-opacity:0.1; fill:none" points="1923.88,1329.31 1923.88,47.2441 "/>
<polyline clip-path="url(#clip152)" style="stroke:#000000; stroke-linecap:round; stroke-linejoin:round; stroke-width:2; stroke-opacity:0.1; fill:none" points="2352.76,1329.31 2352.76,47.2441 "/>
<polyline clip-path="url(#clip152)" style="stroke:#000000; stroke-linecap:round; stroke-linejoin:round; stroke-width:2; stroke-opacity:0.1; fill:none" points="208.355,1329.31 2352.76,1329.31 "/>
<polyline clip-path="url(#clip152)" style="stroke:#000000; stroke-linecap:round; stroke-linejoin:round; stroke-width:2; stroke-opacity:0.1; fill:none" points="208.355,1115.63 2352.76,1115.63 "/>
<polyline clip-path="url(#clip152)" style="stroke:#000000; stroke-linecap:round; stroke-linejoin:round; stroke-width:2; stroke-opacity:0.1; fill:none" points="208.355,901.955 2352.76,901.955 "/>
<polyline clip-path="url(#clip152)" style="stroke:#000000; stroke-linecap:round; stroke-linejoin:round; stroke-width:2; stroke-opacity:0.1; fill:none" points="208.355,688.277 2352.76,688.277 "/>
<polyline clip-path="url(#clip152)" style="stroke:#000000; stroke-linecap:round; stroke-linejoin:round; stroke-width:2; stroke-opacity:0.1; fill:none" points="208.355,474.599 2352.76,474.599 "/>
<polyline clip-path="url(#clip152)" style="stroke:#000000; stroke-linecap:round; stroke-linejoin:round; stroke-width:2; stroke-opacity:0.1; fill:none" points="208.355,260.922 2352.76,260.922 "/>
<polyline clip-path="url(#clip152)" style="stroke:#000000; stroke-linecap:round; stroke-linejoin:round; stroke-width:2; stroke-opacity:0.1; fill:none" points="208.355,47.2441 2352.76,47.2441 "/>
<polyline clip-path="url(#clip150)" style="stroke:#000000; stroke-linecap:round; stroke-linejoin:round; stroke-width:4; stroke-opacity:1; fill:none" points="208.355,1329.31 2352.76,1329.31 "/>
<polyline clip-path="url(#clip150)" style="stroke:#000000; stroke-linecap:round; stroke-linejoin:round; stroke-width:4; stroke-opacity:1; fill:none" points="208.355,1329.31 208.355,1310.41 "/>
<polyline clip-path="url(#clip150)" style="stroke:#000000; stroke-linecap:round; stroke-linejoin:round; stroke-width:4; stroke-opacity:1; fill:none" points="637.235,1329.31 637.235,1310.41 "/>
<polyline clip-path="url(#clip150)" style="stroke:#000000; stroke-linecap:round; stroke-linejoin:round; stroke-width:4; stroke-opacity:1; fill:none" points="1066.12,1329.31 1066.12,1310.41 "/>
<polyline clip-path="url(#clip150)" style="stroke:#000000; stroke-linecap:round; stroke-linejoin:round; stroke-width:4; stroke-opacity:1; fill:none" points="1495,1329.31 1495,1310.41 "/>
<polyline clip-path="url(#clip150)" style="stroke:#000000; stroke-linecap:round; stroke-linejoin:round; stroke-width:4; stroke-opacity:1; fill:none" points="1923.88,1329.31 1923.88,1310.41 "/>
<polyline clip-path="url(#clip150)" style="stroke:#000000; stroke-linecap:round; stroke-linejoin:round; stroke-width:4; stroke-opacity:1; fill:none" points="2352.76,1329.31 2352.76,1310.41 "/>
<path clip-path="url(#clip150)" d="M185.739 1360.23 Q182.128 1360.23 180.299 1363.79 Q178.494 1367.33 178.494 1374.46 Q178.494 1381.57 180.299 1385.14 Q182.128 1388.68 185.739 1388.68 Q189.373 1388.68 191.179 1385.14 Q193.008 1381.57 193.008 1374.46 Q193.008 1367.33 191.179 1363.79 Q189.373 1360.23 185.739 1360.23 M185.739 1356.52 Q191.549 1356.52 194.605 1361.13 Q197.683 1365.71 197.683 1374.46 Q197.683 1383.19 194.605 1387.8 Q191.549 1392.38 185.739 1392.38 Q179.929 1392.38 176.85 1387.8 Q173.795 1383.19 173.795 1374.46 Q173.795 1365.71 176.85 1361.13 Q179.929 1356.52 185.739 1356.52 Z" fill="#000000" fill-rule="nonzero" fill-opacity="1" /><path clip-path="url(#clip150)" d="M205.901 1385.83 L210.785 1385.83 L210.785 1391.71 L205.901 1391.71 L205.901 1385.83 Z" fill="#000000" fill-rule="nonzero" fill-opacity="1" /><path clip-path="url(#clip150)" d="M230.97 1360.23 Q227.359 1360.23 225.53 1363.79 Q223.725 1367.33 223.725 1374.46 Q223.725 1381.57 225.53 1385.14 Q227.359 1388.68 230.97 1388.68 Q234.605 1388.68 236.41 1385.14 Q238.239 1381.57 238.239 1374.46 Q238.239 1367.33 236.41 1363.79 Q234.605 1360.23 230.97 1360.23 M230.97 1356.52 Q236.78 1356.52 239.836 1361.13 Q242.915 1365.71 242.915 1374.46 Q242.915 1383.19 239.836 1387.8 Q236.78 1392.38 230.97 1392.38 Q225.16 1392.38 222.081 1387.8 Q219.026 1383.19 219.026 1374.46 Q219.026 1365.71 222.081 1361.13 Q225.16 1356.52 230.97 1356.52 Z" fill="#000000" fill-rule="nonzero" fill-opacity="1" /><path clip-path="url(#clip150)" d="M615.418 1360.23 Q611.807 1360.23 609.978 1363.79 Q608.173 1367.33 608.173 1374.46 Q608.173 1381.57 609.978 1385.14 Q611.807 1388.68 615.418 1388.68 Q619.052 1388.68 620.858 1385.14 Q622.686 1381.57 622.686 1374.46 Q622.686 1367.33 620.858 1363.79 Q619.052 1360.23 615.418 1360.23 M615.418 1356.52 Q621.228 1356.52 624.284 1361.13 Q627.362 1365.71 627.362 1374.46 Q627.362 1383.19 624.284 1387.8 Q621.228 1392.38 615.418 1392.38 Q609.608 1392.38 606.529 1387.8 Q603.474 1383.19 603.474 1374.46 Q603.474 1365.71 606.529 1361.13 Q609.608 1356.52 615.418 1356.52 Z" fill="#000000" fill-rule="nonzero" fill-opacity="1" /><path clip-path="url(#clip150)" d="M635.58 1385.83 L640.464 1385.83 L640.464 1391.71 L635.58 1391.71 L635.58 1385.83 Z" fill="#000000" fill-rule="nonzero" fill-opacity="1" /><path clip-path="url(#clip150)" d="M654.677 1387.77 L670.996 1387.77 L670.996 1391.71 L649.052 1391.71 L649.052 1387.77 Q651.714 1385.02 656.297 1380.39 Q660.904 1375.74 662.084 1374.4 Q664.33 1371.87 665.209 1370.14 Q666.112 1368.38 666.112 1366.69 Q666.112 1363.93 664.168 1362.2 Q662.246 1360.46 659.145 1360.46 Q656.945 1360.46 654.492 1361.22 Q652.061 1361.99 649.283 1363.54 L649.283 1358.82 Q652.108 1357.68 654.561 1357.1 Q657.015 1356.52 659.052 1356.52 Q664.422 1356.52 667.617 1359.21 Q670.811 1361.9 670.811 1366.39 Q670.811 1368.52 670.001 1370.44 Q669.214 1372.33 667.107 1374.93 Q666.529 1375.6 663.427 1378.82 Q660.325 1382.01 654.677 1387.77 Z" fill="#000000" fill-rule="nonzero" fill-opacity="1" /><path clip-path="url(#clip150)" d="M1043.26 1360.23 Q1039.65 1360.23 1037.82 1363.79 Q1036.01 1367.33 1036.01 1374.46 Q1036.01 1381.57 1037.82 1385.14 Q1039.65 1388.68 1043.26 1388.68 Q1046.89 1388.68 1048.7 1385.14 Q1050.52 1381.57 1050.52 1374.46 Q1050.52 1367.33 1048.7 1363.79 Q1046.89 1360.23 1043.26 1360.23 M1043.26 1356.52 Q1049.07 1356.52 1052.12 1361.13 Q1055.2 1365.71 1055.2 1374.46 Q1055.2 1383.19 1052.12 1387.8 Q1049.07 1392.38 1043.26 1392.38 Q1037.45 1392.38 1034.37 1387.8 Q1031.31 1383.19 1031.31 1374.46 Q1031.31 1365.71 1034.37 1361.13 Q1037.45 1356.52 1043.26 1356.52 Z" fill="#000000" fill-rule="nonzero" fill-opacity="1" /><path clip-path="url(#clip150)" d="M1063.42 1385.83 L1068.3 1385.83 L1068.3 1391.71 L1063.42 1391.71 L1063.42 1385.83 Z" fill="#000000" fill-rule="nonzero" fill-opacity="1" /><path clip-path="url(#clip150)" d="M1091.33 1361.22 L1079.53 1379.67 L1091.33 1379.67 L1091.33 1361.22 M1090.11 1357.15 L1095.99 1357.15 L1095.99 1379.67 L1100.92 1379.67 L1100.92 1383.56 L1095.99 1383.56 L1095.99 1391.71 L1091.33 1391.71 L1091.33 1383.56 L1075.73 1383.56 L1075.73 1379.05 L1090.11 1357.15 Z" fill="#000000" fill-rule="nonzero" fill-opacity="1" /><path clip-path="url(#clip150)" d="M1472.3 1360.23 Q1468.69 1360.23 1466.86 1363.79 Q1465.05 1367.33 1465.05 1374.46 Q1465.05 1381.57 1466.86 1385.14 Q1468.69 1388.68 1472.3 1388.68 Q1475.93 1388.68 1477.74 1385.14 Q1479.57 1381.57 1479.57 1374.46 Q1479.57 1367.33 1477.74 1363.79 Q1475.93 1360.23 1472.3 1360.23 M1472.3 1356.52 Q1478.11 1356.52 1481.16 1361.13 Q1484.24 1365.71 1484.24 1374.46 Q1484.24 1383.19 1481.16 1387.8 Q1478.11 1392.38 1472.3 1392.38 Q1466.49 1392.38 1463.41 1387.8 Q1460.35 1383.19 1460.35 1374.46 Q1460.35 1365.71 1463.41 1361.13 Q1466.49 1356.52 1472.3 1356.52 Z" fill="#000000" fill-rule="nonzero" fill-opacity="1" /><path clip-path="url(#clip150)" d="M1492.46 1385.83 L1497.34 1385.83 L1497.34 1391.71 L1492.46 1391.71 L1492.46 1385.83 Z" fill="#000000" fill-rule="nonzero" fill-opacity="1" /><path clip-path="url(#clip150)" d="M1518.11 1372.57 Q1514.96 1372.57 1513.11 1374.72 Q1511.28 1376.87 1511.28 1380.62 Q1511.28 1384.35 1513.11 1386.52 Q1514.96 1388.68 1518.11 1388.68 Q1521.26 1388.68 1523.09 1386.52 Q1524.94 1384.35 1524.94 1380.62 Q1524.94 1376.87 1523.09 1374.72 Q1521.26 1372.57 1518.11 1372.57 M1527.39 1357.91 L1527.39 1362.17 Q1525.63 1361.34 1523.83 1360.9 Q1522.04 1360.46 1520.28 1360.46 Q1515.66 1360.46 1513.2 1363.58 Q1510.77 1366.71 1510.42 1373.03 Q1511.79 1371.02 1513.85 1369.95 Q1515.91 1368.86 1518.39 1368.86 Q1523.59 1368.86 1526.6 1372.03 Q1529.64 1375.18 1529.64 1380.62 Q1529.64 1385.95 1526.49 1389.16 Q1523.34 1392.38 1518.11 1392.38 Q1512.11 1392.38 1508.94 1387.8 Q1505.77 1383.19 1505.77 1374.46 Q1505.77 1366.27 1509.66 1361.41 Q1513.55 1356.52 1520.1 1356.52 Q1521.86 1356.52 1523.64 1356.87 Q1525.45 1357.22 1527.39 1357.91 Z" fill="#000000" fill-rule="nonzero" fill-opacity="1" /><path clip-path="url(#clip150)" d="M1901.31 1360.23 Q1897.7 1360.23 1895.87 1363.79 Q1894.06 1367.33 1894.06 1374.46 Q1894.06 1381.57 1895.87 1385.14 Q1897.7 1388.68 1901.31 1388.68 Q1904.94 1388.68 1906.75 1385.14 Q1908.57 1381.57 1908.57 1374.46 Q1908.57 1367.33 1906.75 1363.79 Q1904.94 1360.23 1901.31 1360.23 M1901.31 1356.52 Q1907.12 1356.52 1910.17 1361.13 Q1913.25 1365.71 1913.25 1374.46 Q1913.25 1383.19 1910.17 1387.8 Q1907.12 1392.38 1901.31 1392.38 Q1895.5 1392.38 1892.42 1387.8 Q1889.36 1383.19 1889.36 1374.46 Q1889.36 1365.71 1892.42 1361.13 Q1895.5 1356.52 1901.31 1356.52 Z" fill="#000000" fill-rule="nonzero" fill-opacity="1" /><path clip-path="url(#clip150)" d="M1921.47 1385.83 L1926.35 1385.83 L1926.35 1391.71 L1921.47 1391.71 L1921.47 1385.83 Z" fill="#000000" fill-rule="nonzero" fill-opacity="1" /><path clip-path="url(#clip150)" d="M1946.54 1375.3 Q1943.2 1375.3 1941.28 1377.08 Q1939.38 1378.86 1939.38 1381.99 Q1939.38 1385.11 1941.28 1386.9 Q1943.2 1388.68 1946.54 1388.68 Q1949.87 1388.68 1951.79 1386.9 Q1953.71 1385.09 1953.71 1381.99 Q1953.71 1378.86 1951.79 1377.08 Q1949.89 1375.3 1946.54 1375.3 M1941.86 1373.31 Q1938.85 1372.57 1937.16 1370.51 Q1935.5 1368.45 1935.5 1365.48 Q1935.5 1361.34 1938.44 1358.93 Q1941.4 1356.52 1946.54 1356.52 Q1951.7 1356.52 1954.64 1358.93 Q1957.58 1361.34 1957.58 1365.48 Q1957.58 1368.45 1955.89 1370.51 Q1954.22 1372.57 1951.24 1373.31 Q1954.62 1374.09 1956.49 1376.39 Q1958.39 1378.68 1958.39 1381.99 Q1958.39 1387.01 1955.31 1389.7 Q1952.26 1392.38 1946.54 1392.38 Q1940.82 1392.38 1937.74 1389.7 Q1934.69 1387.01 1934.69 1381.99 Q1934.69 1378.68 1936.58 1376.39 Q1938.48 1374.09 1941.86 1373.31 M1940.15 1365.92 Q1940.15 1368.61 1941.82 1370.11 Q1943.51 1371.62 1946.54 1371.62 Q1949.55 1371.62 1951.24 1370.11 Q1952.95 1368.61 1952.95 1365.92 Q1952.95 1363.24 1951.24 1361.73 Q1949.55 1360.23 1946.54 1360.23 Q1943.51 1360.23 1941.82 1361.73 Q1940.15 1363.24 1940.15 1365.92 Z" fill="#000000" fill-rule="nonzero" fill-opacity="1" /><path clip-path="url(#clip150)" d="M2319.91 1387.77 L2327.55 1387.77 L2327.55 1361.41 L2319.24 1363.08 L2319.24 1358.82 L2327.5 1357.15 L2332.18 1357.15 L2332.18 1387.77 L2339.82 1387.77 L2339.82 1391.71 L2319.91 1391.71 L2319.91 1387.77 Z" fill="#000000" fill-rule="nonzero" fill-opacity="1" /><path clip-path="url(#clip150)" d="M2349.26 1385.83 L2354.14 1385.83 L2354.14 1391.71 L2349.26 1391.71 L2349.26 1385.83 Z" fill="#000000" fill-rule="nonzero" fill-opacity="1" /><path clip-path="url(#clip150)" d="M2374.33 1360.23 Q2370.72 1360.23 2368.89 1363.79 Q2367.08 1367.33 2367.08 1374.46 Q2367.08 1381.57 2368.89 1385.14 Q2370.72 1388.68 2374.33 1388.68 Q2377.96 1388.68 2379.77 1385.14 Q2381.6 1381.57 2381.6 1374.46 Q2381.6 1367.33 2379.77 1363.79 Q2377.96 1360.23 2374.33 1360.23 M2374.33 1356.52 Q2380.14 1356.52 2383.2 1361.13 Q2386.27 1365.71 2386.27 1374.46 Q2386.27 1383.19 2383.2 1387.8 Q2380.14 1392.38 2374.33 1392.38 Q2368.52 1392.38 2365.44 1387.8 Q2362.39 1383.19 2362.39 1374.46 Q2362.39 1365.71 2365.44 1361.13 Q2368.52 1356.52 2374.33 1356.52 Z" fill="#000000" fill-rule="nonzero" fill-opacity="1" /><path clip-path="url(#clip150)" d="M1166.05 1431.94 L1166.05 1449.79 L1174.14 1449.79 Q1178.62 1449.79 1181.08 1447.47 Q1183.53 1445.15 1183.53 1440.85 Q1183.53 1436.58 1181.08 1434.26 Q1178.62 1431.94 1174.14 1431.94 L1166.05 1431.94 M1159.62 1426.65 L1174.14 1426.65 Q1182.13 1426.65 1186.2 1430.28 Q1190.31 1433.88 1190.31 1440.85 Q1190.31 1447.88 1186.2 1451.48 Q1182.13 1455.08 1174.14 1455.08 L1166.05 1455.08 L1166.05 1474.17 L1159.62 1474.17 L1159.62 1426.65 Z" fill="#000000" fill-rule="nonzero" fill-opacity="1" /><path clip-path="url(#clip150)" d="M1210.17 1442.63 Q1205.46 1442.63 1202.72 1446.32 Q1199.98 1449.98 1199.98 1456.38 Q1199.98 1462.78 1202.69 1466.47 Q1205.42 1470.13 1210.17 1470.13 Q1214.85 1470.13 1217.58 1466.44 Q1220.32 1462.75 1220.32 1456.38 Q1220.32 1450.05 1217.58 1446.36 Q1214.85 1442.63 1210.17 1442.63 M1210.17 1437.67 Q1217.81 1437.67 1222.17 1442.63 Q1226.53 1447.6 1226.53 1456.38 Q1226.53 1465.13 1222.17 1470.13 Q1217.81 1475.1 1210.17 1475.1 Q1202.5 1475.1 1198.14 1470.13 Q1193.81 1465.13 1193.81 1456.38 Q1193.81 1447.6 1198.14 1442.63 Q1202.5 1437.67 1210.17 1437.67 Z" fill="#000000" fill-rule="nonzero" fill-opacity="1" /><path clip-path="url(#clip150)" d="M1258.96 1439.58 L1258.96 1445.11 Q1256.48 1443.84 1253.8 1443.2 Q1251.13 1442.57 1248.27 1442.57 Q1243.9 1442.57 1241.71 1443.9 Q1239.54 1445.24 1239.54 1447.92 Q1239.54 1449.95 1241.1 1451.13 Q1242.66 1452.28 1247.37 1453.33 L1249.38 1453.77 Q1255.62 1455.11 1258.23 1457.56 Q1260.87 1459.98 1260.87 1464.34 Q1260.87 1469.3 1256.92 1472.2 Q1253.01 1475.1 1246.13 1475.1 Q1243.27 1475.1 1240.15 1474.52 Q1237.06 1473.98 1233.62 1472.87 L1233.62 1466.82 Q1236.87 1468.51 1240.02 1469.37 Q1243.17 1470.2 1246.26 1470.2 Q1250.4 1470.2 1252.63 1468.79 Q1254.85 1467.36 1254.85 1464.78 Q1254.85 1462.4 1253.23 1461.12 Q1251.64 1459.85 1246.2 1458.67 L1244.16 1458.2 Q1238.72 1457.05 1236.3 1454.69 Q1233.88 1452.31 1233.88 1448.17 Q1233.88 1443.14 1237.44 1440.4 Q1241.01 1437.67 1247.57 1437.67 Q1250.81 1437.67 1253.68 1438.14 Q1256.54 1438.62 1258.96 1439.58 Z" fill="#000000" fill-rule="nonzero" fill-opacity="1" /><path clip-path="url(#clip150)" d="M1270.2 1438.53 L1276.05 1438.53 L1276.05 1474.17 L1270.2 1474.17 L1270.2 1438.53 M1270.2 1424.65 L1276.05 1424.65 L1276.05 1432.06 L1270.2 1432.06 L1270.2 1424.65 Z" fill="#000000" fill-rule="nonzero" fill-opacity="1" /><path clip-path="url(#clip150)" d="M1294.1 1428.4 L1294.1 1438.53 L1306.16 1438.53 L1306.16 1443.08 L1294.1 1443.08 L1294.1 1462.43 Q1294.1 1466.79 1295.28 1468.03 Q1296.49 1469.27 1300.15 1469.27 L1306.16 1469.27 L1306.16 1474.17 L1300.15 1474.17 Q1293.37 1474.17 1290.79 1471.66 Q1288.21 1469.11 1288.21 1462.43 L1288.21 1443.08 L1283.91 1443.08 L1283.91 1438.53 L1288.21 1438.53 L1288.21 1428.4 L1294.1 1428.4 Z" fill="#000000" fill-rule="nonzero" fill-opacity="1" /><path clip-path="url(#clip150)" d="M1313.86 1438.53 L1319.72 1438.53 L1319.72 1474.17 L1313.86 1474.17 L1313.86 1438.53 M1313.86 1424.65 L1319.72 1424.65 L1319.72 1432.06 L1313.86 1432.06 L1313.86 1424.65 Z" fill="#000000" fill-rule="nonzero" fill-opacity="1" /><path clip-path="url(#clip150)" d="M1345.79 1442.63 Q1341.08 1442.63 1338.34 1446.32 Q1335.6 1449.98 1335.6 1456.38 Q1335.6 1462.78 1338.31 1466.47 Q1341.05 1470.13 1345.79 1470.13 Q1350.47 1470.13 1353.2 1466.44 Q1355.94 1462.75 1355.94 1456.38 Q1355.94 1450.05 1353.2 1446.36 Q1350.47 1442.63 1345.79 1442.63 M1345.79 1437.67 Q1353.43 1437.67 1357.79 1442.63 Q1362.15 1447.6 1362.15 1456.38 Q1362.15 1465.13 1357.79 1470.13 Q1353.43 1475.1 1345.79 1475.1 Q1338.12 1475.1 1333.76 1470.13 Q1329.43 1465.13 1329.43 1456.38 Q1329.43 1447.6 1333.76 1442.63 Q1338.12 1437.67 1345.79 1437.67 Z" fill="#000000" fill-rule="nonzero" fill-opacity="1" /><path clip-path="url(#clip150)" d="M1401.49 1452.66 L1401.49 1474.17 L1395.63 1474.17 L1395.63 1452.85 Q1395.63 1447.79 1393.66 1445.27 Q1391.68 1442.76 1387.74 1442.76 Q1383 1442.76 1380.26 1445.78 Q1377.52 1448.81 1377.52 1454.03 L1377.52 1474.17 L1371.63 1474.17 L1371.63 1438.53 L1377.52 1438.53 L1377.52 1444.06 Q1379.62 1440.85 1382.45 1439.26 Q1385.32 1437.67 1389.04 1437.67 Q1395.19 1437.67 1398.34 1441.49 Q1401.49 1445.27 1401.49 1452.66 Z" fill="#000000" fill-rule="nonzero" fill-opacity="1" /><polyline clip-path="url(#clip150)" style="stroke:#000000; stroke-linecap:round; stroke-linejoin:round; stroke-width:4; stroke-opacity:1; fill:none" points="208.355,1329.31 208.355,47.2441 "/>
<polyline clip-path="url(#clip150)" style="stroke:#000000; stroke-linecap:round; stroke-linejoin:round; stroke-width:4; stroke-opacity:1; fill:none" points="208.355,1329.31 227.252,1329.31 "/>
<polyline clip-path="url(#clip150)" style="stroke:#000000; stroke-linecap:round; stroke-linejoin:round; stroke-width:4; stroke-opacity:1; fill:none" points="208.355,1115.63 227.252,1115.63 "/>
<polyline clip-path="url(#clip150)" style="stroke:#000000; stroke-linecap:round; stroke-linejoin:round; stroke-width:4; stroke-opacity:1; fill:none" points="208.355,901.955 227.252,901.955 "/>
<polyline clip-path="url(#clip150)" style="stroke:#000000; stroke-linecap:round; stroke-linejoin:round; stroke-width:4; stroke-opacity:1; fill:none" points="208.355,688.277 227.252,688.277 "/>
<polyline clip-path="url(#clip150)" style="stroke:#000000; stroke-linecap:round; stroke-linejoin:round; stroke-width:4; stroke-opacity:1; fill:none" points="208.355,474.599 227.252,474.599 "/>
<polyline clip-path="url(#clip150)" style="stroke:#000000; stroke-linecap:round; stroke-linejoin:round; stroke-width:4; stroke-opacity:1; fill:none" points="208.355,260.922 227.252,260.922 "/>
<polyline clip-path="url(#clip150)" style="stroke:#000000; stroke-linecap:round; stroke-linejoin:round; stroke-width:4; stroke-opacity:1; fill:none" points="208.355,47.2441 227.252,47.2441 "/>
<path clip-path="url(#clip150)" d="M111.29 1329.76 L140.966 1329.76 L140.966 1333.7 L111.29 1333.7 L111.29 1329.76 Z" fill="#000000" fill-rule="nonzero" fill-opacity="1" /><path clip-path="url(#clip150)" d="M165.225 1327.96 Q168.582 1328.67 170.457 1330.94 Q172.355 1333.21 172.355 1336.54 Q172.355 1341.66 168.836 1344.46 Q165.318 1347.26 158.836 1347.26 Q156.66 1347.26 154.345 1346.82 Q152.054 1346.4 149.6 1345.55 L149.6 1341.03 Q151.545 1342.17 153.859 1342.75 Q156.174 1343.33 158.697 1343.33 Q163.095 1343.33 165.387 1341.59 Q167.702 1339.85 167.702 1336.54 Q167.702 1333.49 165.549 1331.78 Q163.42 1330.04 159.6 1330.04 L155.572 1330.04 L155.572 1326.2 L159.785 1326.2 Q163.234 1326.2 165.063 1324.83 Q166.892 1323.44 166.892 1320.85 Q166.892 1318.19 164.994 1316.78 Q163.119 1315.34 159.6 1315.34 Q157.679 1315.34 155.48 1315.76 Q153.281 1316.17 150.642 1317.05 L150.642 1312.89 Q153.304 1312.15 155.619 1311.78 Q157.957 1311.4 160.017 1311.4 Q165.341 1311.4 168.443 1313.84 Q171.544 1316.24 171.544 1320.36 Q171.544 1323.23 169.901 1325.22 Q168.257 1327.19 165.225 1327.96 Z" fill="#000000" fill-rule="nonzero" fill-opacity="1" /><path clip-path="url(#clip150)" d="M112.239 1116.08 L141.915 1116.08 L141.915 1120.02 L112.239 1120.02 L112.239 1116.08 Z" fill="#000000" fill-rule="nonzero" fill-opacity="1" /><path clip-path="url(#clip150)" d="M156.035 1128.98 L172.355 1128.98 L172.355 1132.91 L150.41 1132.91 L150.41 1128.98 Q153.072 1126.22 157.656 1121.59 Q162.262 1116.94 163.443 1115.6 Q165.688 1113.07 166.568 1111.34 Q167.47 1109.58 167.47 1107.89 Q167.47 1105.13 165.526 1103.4 Q163.605 1101.66 160.503 1101.66 Q158.304 1101.66 155.85 1102.43 Q153.42 1103.19 150.642 1104.74 L150.642 1100.02 Q153.466 1098.88 155.92 1098.31 Q158.373 1097.73 160.41 1097.73 Q165.781 1097.73 168.975 1100.41 Q172.169 1103.1 172.169 1107.59 Q172.169 1109.72 171.359 1111.64 Q170.572 1113.54 168.466 1116.13 Q167.887 1116.8 164.785 1120.02 Q161.683 1123.21 156.035 1128.98 Z" fill="#000000" fill-rule="nonzero" fill-opacity="1" /><path clip-path="url(#clip150)" d="M111.869 902.406 L141.545 902.406 L141.545 906.341 L111.869 906.341 L111.869 902.406 Z" fill="#000000" fill-rule="nonzero" fill-opacity="1" /><path clip-path="url(#clip150)" d="M152.447 915.299 L160.086 915.299 L160.086 888.934 L151.776 890.6 L151.776 886.341 L160.04 884.675 L164.716 884.675 L164.716 915.299 L172.355 915.299 L172.355 919.235 L152.447 919.235 L152.447 915.299 Z" fill="#000000" fill-rule="nonzero" fill-opacity="1" /><path clip-path="url(#clip150)" d="M160.41 674.076 Q156.799 674.076 154.97 677.64 Q153.165 681.182 153.165 688.312 Q153.165 695.418 154.97 698.983 Q156.799 702.525 160.41 702.525 Q164.045 702.525 165.85 698.983 Q167.679 695.418 167.679 688.312 Q167.679 681.182 165.85 677.64 Q164.045 674.076 160.41 674.076 M160.41 670.372 Q166.22 670.372 169.276 674.978 Q172.355 679.562 172.355 688.312 Q172.355 697.038 169.276 701.645 Q166.22 706.228 160.41 706.228 Q154.6 706.228 151.521 701.645 Q148.466 697.038 148.466 688.312 Q148.466 679.562 151.521 674.978 Q154.6 670.372 160.41 670.372 Z" fill="#000000" fill-rule="nonzero" fill-opacity="1" /><path clip-path="url(#clip150)" d="M152.447 487.944 L160.086 487.944 L160.086 461.579 L151.776 463.245 L151.776 458.986 L160.04 457.319 L164.716 457.319 L164.716 487.944 L172.355 487.944 L172.355 491.879 L152.447 491.879 L152.447 487.944 Z" fill="#000000" fill-rule="nonzero" fill-opacity="1" /><path clip-path="url(#clip150)" d="M156.035 274.267 L172.355 274.267 L172.355 278.202 L150.41 278.202 L150.41 274.267 Q153.072 271.512 157.656 266.882 Q162.262 262.23 163.443 260.887 Q165.688 258.364 166.568 256.628 Q167.47 254.869 167.47 253.179 Q167.47 250.424 165.526 248.688 Q163.605 246.952 160.503 246.952 Q158.304 246.952 155.85 247.716 Q153.42 248.48 150.642 250.031 L150.642 245.308 Q153.466 244.174 155.92 243.595 Q158.373 243.017 160.41 243.017 Q165.781 243.017 168.975 245.702 Q172.169 248.387 172.169 252.878 Q172.169 255.007 171.359 256.929 Q170.572 258.827 168.466 261.419 Q167.887 262.091 164.785 265.308 Q161.683 268.503 156.035 274.267 Z" fill="#000000" fill-rule="nonzero" fill-opacity="1" /><path clip-path="url(#clip150)" d="M165.225 45.8899 Q168.582 46.6075 170.457 48.876 Q172.355 51.1445 172.355 54.4779 Q172.355 59.5936 168.836 62.3945 Q165.318 65.1954 158.836 65.1954 Q156.66 65.1954 154.345 64.7556 Q152.054 64.3389 149.6 63.4824 L149.6 58.9686 Q151.545 60.1028 153.859 60.6815 Q156.174 61.2602 158.697 61.2602 Q163.095 61.2602 165.387 59.5241 Q167.702 57.788 167.702 54.4779 Q167.702 51.4223 165.549 49.7094 Q163.42 47.9733 159.6 47.9733 L155.572 47.9733 L155.572 44.1307 L159.785 44.1307 Q163.234 44.1307 165.063 42.765 Q166.892 41.3761 166.892 38.7835 Q166.892 36.1215 164.994 34.7094 Q163.119 33.2743 159.6 33.2743 Q157.679 33.2743 155.48 33.6909 Q153.281 34.1076 150.642 34.9872 L150.642 30.8206 Q153.304 30.0798 155.619 29.7095 Q157.957 29.3391 160.017 29.3391 Q165.341 29.3391 168.443 31.7696 Q171.544 34.177 171.544 38.2974 Q171.544 41.1677 169.901 43.1585 Q168.257 45.1261 165.225 45.8899 Z" fill="#000000" fill-rule="nonzero" fill-opacity="1" /><path clip-path="url(#clip150)" d="M19.848 831.537 L43.4966 840.258 L43.4966 822.784 L19.848 831.537 M13.5142 835.166 L13.5142 827.877 L61.0342 809.766 L61.0342 816.45 L48.8438 820.779 L48.8438 842.2 L61.0342 846.528 L61.0342 853.308 L13.5142 835.166 Z" fill="#000000" fill-rule="nonzero" fill-opacity="1" /><path clip-path="url(#clip150)" d="M32.2293 775.328 Q28.2826 773.132 26.4047 770.076 Q24.5268 767.021 24.5268 762.883 Q24.5268 757.313 28.4417 754.289 Q32.3248 751.266 39.5181 751.266 L61.0342 751.266 L61.0342 757.154 L39.709 757.154 Q34.5846 757.154 32.102 758.968 Q29.6194 760.782 29.6194 764.506 Q29.6194 769.058 32.6431 771.7 Q35.6668 774.341 40.8867 774.341 L61.0342 774.341 L61.0342 780.23 L39.709 780.23 Q34.5528 780.23 32.102 782.044 Q29.6194 783.858 29.6194 787.646 Q29.6194 792.133 32.6749 794.775 Q35.6986 797.417 40.8867 797.417 L61.0342 797.417 L61.0342 803.305 L25.3862 803.305 L25.3862 797.417 L30.9244 797.417 Q27.646 795.412 26.0864 792.611 Q24.5268 789.81 24.5268 785.959 Q24.5268 782.076 26.5002 779.37 Q28.4736 776.633 32.2293 775.328 Z" fill="#000000" fill-rule="nonzero" fill-opacity="1" /><path clip-path="url(#clip150)" d="M55.687 733.919 L74.5931 733.919 L74.5931 739.807 L25.3862 739.807 L25.3862 733.919 L30.7971 733.919 Q27.6142 732.073 26.0864 729.272 Q24.5268 726.439 24.5268 722.524 Q24.5268 716.031 29.6831 711.989 Q34.8393 707.915 43.242 707.915 Q51.6447 707.915 56.801 711.989 Q61.9572 716.031 61.9572 722.524 Q61.9572 726.439 60.4294 729.272 Q58.8698 732.073 55.687 733.919 M43.242 713.994 Q36.7808 713.994 33.1205 716.668 Q29.4284 719.31 29.4284 723.957 Q29.4284 728.604 33.1205 731.277 Q36.7808 733.919 43.242 733.919 Q49.7032 733.919 53.3953 731.277 Q57.0556 728.604 57.0556 723.957 Q57.0556 719.31 53.3953 716.668 Q49.7032 713.994 43.242 713.994 Z" fill="#000000" fill-rule="nonzero" fill-opacity="1" /><path clip-path="url(#clip150)" d="M11.509 698.207 L11.509 692.351 L61.0342 692.351 L61.0342 698.207 L11.509 698.207 Z" fill="#000000" fill-rule="nonzero" fill-opacity="1" /><path clip-path="url(#clip150)" d="M25.3862 680.097 L25.3862 674.241 L61.0342 674.241 L61.0342 680.097 L25.3862 680.097 M11.509 680.097 L11.509 674.241 L18.925 674.241 L18.925 680.097 L11.509 680.097 Z" fill="#000000" fill-rule="nonzero" fill-opacity="1" /><path clip-path="url(#clip150)" d="M15.2647 656.194 L25.3862 656.194 L25.3862 644.131 L29.9377 644.131 L29.9377 656.194 L49.2894 656.194 Q53.6499 656.194 54.8913 655.016 Q56.1326 653.807 56.1326 650.146 L56.1326 644.131 L61.0342 644.131 L61.0342 650.146 Q61.0342 656.926 58.5197 659.504 Q55.9734 662.082 49.2894 662.082 L29.9377 662.082 L29.9377 666.379 L25.3862 666.379 L25.3862 662.082 L15.2647 662.082 L15.2647 656.194 Z" fill="#000000" fill-rule="nonzero" fill-opacity="1" /><path clip-path="url(#clip150)" d="M46.9659 637.033 L25.3862 637.033 L25.3862 631.177 L46.7431 631.177 Q51.8039 631.177 54.3502 629.203 Q56.8646 627.23 56.8646 623.283 Q56.8646 618.541 53.8409 615.803 Q50.8172 613.034 45.5973 613.034 L25.3862 613.034 L25.3862 607.178 L61.0342 607.178 L61.0342 613.034 L55.5596 613.034 Q58.8062 615.167 60.3976 618 Q61.9572 620.8 61.9572 624.524 Q61.9572 630.667 58.1378 633.85 Q54.3183 637.033 46.9659 637.033 M24.5268 622.296 L24.5268 622.296 Z" fill="#000000" fill-rule="nonzero" fill-opacity="1" /><path clip-path="url(#clip150)" d="M30.7971 571.657 L11.509 571.657 L11.509 565.801 L61.0342 565.801 L61.0342 571.657 L55.687 571.657 Q58.8698 573.503 60.4294 576.336 Q61.9572 579.137 61.9572 583.084 Q61.9572 589.545 56.801 593.619 Q51.6447 597.661 43.242 597.661 Q34.8393 597.661 29.6831 593.619 Q24.5268 589.545 24.5268 583.084 Q24.5268 579.137 26.0864 576.336 Q27.6142 573.503 30.7971 571.657 M43.242 591.614 Q49.7032 591.614 53.3953 588.972 Q57.0556 586.298 57.0556 581.651 Q57.0556 577.004 53.3953 574.331 Q49.7032 571.657 43.242 571.657 Q36.7808 571.657 33.1205 574.331 Q29.4284 577.004 29.4284 581.651 Q29.4284 586.298 33.1205 588.972 Q36.7808 591.614 43.242 591.614 Z" fill="#000000" fill-rule="nonzero" fill-opacity="1" /><path clip-path="url(#clip150)" d="M41.7461 523.246 L44.6106 523.246 L44.6106 550.173 Q50.6581 549.791 53.8409 546.545 Q56.9919 543.266 56.9919 537.442 Q56.9919 534.068 56.1644 530.917 Q55.3369 527.734 53.6818 524.615 L59.2199 524.615 Q60.5567 527.766 61.257 531.076 Q61.9572 534.386 61.9572 537.792 Q61.9572 546.322 56.9919 551.319 Q52.0267 556.284 43.5603 556.284 Q34.8074 556.284 29.6831 551.573 Q24.5268 546.831 24.5268 538.81 Q24.5268 531.617 29.1738 527.447 Q33.7889 523.246 41.7461 523.246 M40.0273 529.102 Q35.2212 529.166 32.3566 531.808 Q29.4921 534.418 29.4921 538.747 Q29.4921 543.648 32.2612 546.608 Q35.0302 549.536 40.0592 549.982 L40.0273 529.102 Z" fill="#000000" fill-rule="nonzero" fill-opacity="1" /><polyline clip-path="url(#clip152)" style="stroke:#000000; stroke-linecap:round; stroke-linejoin:round; stroke-width:4; stroke-opacity:1; fill:none" points="-1936.05,688.277 4497.16,688.277 "/>
<path clip-path="url(#clip152)" d="M1157.34 458.599 L1157.34 490.599 L1189.34 490.599 L1189.34 458.599 L1157.34 458.599 Z" fill="#ffff00" fill-rule="evenodd" fill-opacity="1" stroke="#000000" stroke-opacity="1" stroke-width="3"/>
<path clip-path="url(#clip152)" d="M1264.56 458.599 L1264.56 490.599 L1296.56 490.599 L1296.56 458.599 L1264.56 458.599 Z" fill="#ffff00" fill-rule="evenodd" fill-opacity="1" stroke="#000000" stroke-opacity="1" stroke-width="3"/>
<path clip-path="url(#clip152)" d="M1371.78 885.955 L1371.78 917.955 L1403.78 917.955 L1403.78 885.955 L1371.78 885.955 Z" fill="#ffff00" fill-rule="evenodd" fill-opacity="1" stroke="#000000" stroke-opacity="1" stroke-width="3"/>
<polyline clip-path="url(#clip152)" style="stroke:#000000; stroke-linecap:round; stroke-linejoin:round; stroke-width:4; stroke-opacity:1; fill:none" stroke-dasharray="16, 10" points="208.355,671.84 210.499,673.072 212.643,674.329 214.788,675.61 216.932,676.911 219.077,678.231 221.221,679.568 223.365,680.919 225.51,682.283 227.654,683.656 229.799,685.037 231.943,686.424 234.087,687.814 236.232,689.204 238.376,690.593 240.521,691.979 242.665,693.358 244.809,694.729 246.954,696.089 249.098,697.437 251.243,698.769 253.387,700.084 255.531,701.38 257.676,702.654 259.82,703.904 261.965,705.129 264.109,706.325 266.253,707.492 268.398,708.627 270.542,709.729 272.687,710.794 274.831,711.823 276.975,712.813 279.12,713.762 281.264,714.669 283.409,715.532 285.553,716.349 287.697,717.121 289.842,717.844 291.986,718.518 294.131,719.142 296.275,719.715 298.419,720.236 300.564,720.703 302.708,721.116 304.853,721.475 306.997,721.778 309.142,722.025 311.286,722.216 313.43,722.35 315.575,722.427 317.719,722.447 319.864,722.41 322.008,722.316 324.152,722.164 326.297,721.956 328.441,721.691 330.586,721.37 332.73,720.992 334.874,720.56 337.019,720.073 339.163,719.533 341.308,718.939 343.452,718.293 345.596,717.597 347.741,716.85 349.885,716.055 352.03,715.212 354.174,714.323 356.318,713.389 358.463,712.412 360.607,711.393 362.752,710.334 364.896,709.237 367.04,708.104 369.185,706.935 371.329,705.734 373.474,704.501 375.618,703.24 377.762,701.952 379.907,700.639 382.051,699.303 384.196,697.947 386.34,696.573 388.484,695.182 390.629,693.778 392.773,692.362 394.918,690.937 397.062,689.506 399.206,688.07 401.351,686.632 403.495,685.194 405.64,683.759 407.784,682.329 409.928,680.907 412.073,679.494 414.217,678.093 416.362,676.707 418.506,675.338 420.65,673.989 422.795,672.66 424.939,671.355 427.084,670.076 429.228,668.825 431.372,667.605 433.517,666.416 435.661,665.262 437.806,664.144 439.95,663.064 442.094,662.025 444.239,661.027 446.383,660.073 448.528,659.164 450.672,658.302 452.816,657.489 454.961,656.726 457.105,656.013 459.25,655.354 461.394,654.748 463.538,654.197 465.683,653.702 467.827,653.264 469.972,652.884 472.116,652.562 474.26,652.3 476.405,652.097 478.549,651.955 480.694,651.874 482.838,651.853 484.982,651.894 487.127,651.996 489.271,652.159 491.416,652.383 493.56,652.669 495.704,653.015 497.849,653.421 499.993,653.888 502.138,654.413 504.282,654.997 506.426,655.638 508.571,656.336 510.715,657.09 512.86,657.899 515.004,658.761 517.148,659.675 519.293,660.641 521.437,661.655 523.582,662.718 525.726,663.827 527.87,664.98 530.015,666.177 532.159,667.414 534.304,668.69 536.448,670.004 538.592,671.352 540.737,672.733 542.881,674.145 545.026,675.586 547.17,677.053 549.314,678.543 551.459,680.055 553.603,681.586 555.748,683.134 557.892,684.695 560.036,686.268 562.181,687.85 564.325,689.439 566.47,691.031 568.614,692.624 570.758,694.215 572.903,695.803 575.047,697.383 577.192,698.954 579.336,700.513 581.48,702.057 583.625,703.584 585.769,705.091 587.914,706.575 590.058,708.034 592.202,709.466 594.347,710.867 596.491,712.236 598.636,713.569 600.78,714.866 602.924,716.123 605.069,717.338 607.213,718.508 609.358,719.633 611.502,720.709 613.646,721.735 615.791,722.709 617.935,723.629 620.08,724.493 622.224,725.299 624.368,726.047 626.513,726.733 628.657,727.358 630.802,727.92 632.946,728.417 635.09,728.848 637.235,729.212 639.379,729.509 641.524,729.738 643.668,729.897 645.813,729.987 647.957,730.006 650.101,729.955 652.246,729.833 654.39,729.639 656.535,729.375 658.679,729.04 660.823,728.634 662.968,728.158 665.112,727.612 667.257,726.996 669.401,726.311 671.545,725.559 673.69,724.739 675.834,723.853 677.979,722.902 680.123,721.887 682.267,720.81 684.412,719.672 686.556,718.474 688.701,717.218 690.845,715.907 692.989,714.541 695.134,713.123 697.278,711.655 699.423,710.139 701.567,708.578 703.711,706.973 705.856,705.326 708,703.642 710.145,701.921 712.289,700.167 714.433,698.383 716.578,696.57 718.722,694.733 720.867,692.874 723.011,690.996 725.155,689.101 727.3,687.193 729.444,685.276 731.589,683.352 733.733,681.424 735.877,679.495 738.022,677.569 740.166,675.649 742.311,673.739 744.455,671.84 746.599,669.958 748.744,668.094 750.888,666.252 753.033,664.436 755.177,662.648 757.321,660.892 759.466,659.171 761.61,657.487 763.755,655.845 765.899,654.247 768.043,652.696 770.188,651.194 772.332,649.746 774.477,648.353 776.621,647.019 778.765,645.746 780.91,644.536 783.054,643.392 785.199,642.317 787.343,641.313 789.487,640.382 791.632,639.526 793.776,638.748 795.921,638.048 798.065,637.429 800.209,636.893 802.354,636.442 804.498,636.076 806.643,635.797 808.787,635.606 810.931,635.504 813.076,635.492 815.22,635.572 817.365,635.743 819.509,636.006 821.653,636.362 823.798,636.81 825.942,637.351 828.087,637.985 830.231,638.711 832.375,639.53 834.52,640.44 836.664,641.441 838.809,642.532 840.953,643.713 843.097,644.981 845.242,646.337 847.386,647.778 849.531,649.302 851.675,650.909 853.819,652.596 855.964,654.361 858.108,656.202 860.253,658.117 862.397,660.103 864.541,662.158 866.686,664.279 868.83,666.464 870.975,668.708 873.119,671.01 875.263,673.366 877.408,675.772 879.552,678.226 881.697,680.723 883.841,683.26 885.985,685.833 888.13,688.438 890.274,691.071 892.419,693.729 894.563,696.407 896.707,699.101 898.852,701.806 900.996,704.518 903.141,707.233 905.285,709.946 907.429,712.653 909.574,715.349 911.718,718.029 913.863,720.69 916.007,723.325 918.151,725.93 920.296,728.501 922.44,731.033 924.585,733.522 926.729,735.961 928.873,738.347 931.018,740.675 933.162,742.94 935.307,745.138 937.451,747.263 939.595,749.312 941.74,751.279 943.884,753.161 946.029,754.952 948.173,756.649 950.317,758.247 952.462,759.742 954.606,761.13 956.751,762.406 958.895,763.568 961.039,764.61 963.184,765.53 965.328,766.323 967.473,766.987 969.617,767.517 971.761,767.911 973.906,768.166 976.05,768.278 978.195,768.245 980.339,768.065 982.484,767.734 984.628,767.251 986.772,766.613 988.917,765.818 991.061,764.865 993.206,763.752 995.35,762.477 997.494,761.039 999.639,759.438 1001.78,757.672 1003.93,755.741 1006.07,753.644 1008.22,751.38 1010.36,748.951 1012.51,746.355 1014.65,743.594 1016.79,740.668 1018.94,737.577 1021.08,734.322 1023.23,730.905 1025.37,727.327 1027.52,723.59 1029.66,719.694 1031.8,715.643 1033.95,711.439 1036.09,707.083 1038.24,702.579 1040.38,697.929 1042.53,693.136 1044.67,688.203 1046.82,683.134 1048.96,677.932 1051.1,672.602 1053.25,667.146 1055.39,661.569 1057.54,655.875 1059.68,650.07 1061.83,644.156 1063.97,638.14 1066.12,632.026 1068.26,625.819 1070.4,619.525 1072.55,613.149 1074.69,606.696 1076.84,600.172 1078.98,593.583 1081.13,586.935 1083.27,580.234 1085.41,573.486 1087.56,566.697 1089.7,559.873 1091.85,553.022 1093.99,546.149 1096.14,539.261 1098.28,532.365 1100.43,525.468 1102.57,518.576 1104.71,511.695 1106.86,504.834 1109,497.998 1111.15,491.195 1113.29,484.432 1115.44,477.715 1117.58,471.051 1119.73,464.448 1121.87,457.911 1124.01,451.449 1126.16,445.067 1128.3,438.773 1130.45,432.573 1132.59,426.475 1134.74,420.483 1136.88,414.606 1139.02,408.849 1141.17,403.219 1143.31,397.723 1145.46,392.365 1147.6,387.153 1149.75,382.092 1151.89,377.187 1154.04,372.446 1156.18,367.872 1158.32,363.473 1160.47,359.251 1162.61,355.214 1164.76,351.365 1166.9,347.71 1169.05,344.252 1171.19,340.997 1173.34,337.948 1175.48,335.11 1177.62,332.486 1179.77,330.079 1181.91,327.893 1184.06,325.932 1186.2,324.197 1188.35,322.692 1190.49,321.42 1192.63,320.382 1194.78,319.58 1196.92,319.017 1199.07,318.693 1201.21,318.611 1203.36,318.77 1205.5,319.172 1207.65,319.818 1209.79,320.708 1211.93,321.841 1214.08,323.218 1216.22,324.838 1218.37,326.701 1220.51,328.805 1222.66,331.15 1224.8,333.734 1226.95,336.555 1229.09,339.611 1231.23,342.901 1233.38,346.421 1235.52,350.17 1237.67,354.144 1239.81,358.34 1241.96,362.755 1244.1,367.385 1246.24,372.227 1248.39,377.277 1250.53,382.53 1252.68,387.982 1254.82,393.628 1256.97,399.464 1259.11,405.484 1261.26,411.683 1263.4,418.057 1265.54,424.598 1267.69,431.303 1269.83,438.163 1271.98,445.175 1274.12,452.33 1276.27,459.624 1278.41,467.049 1280.56,474.599 1282.7,482.267 1284.84,490.047 1286.99,497.93 1289.13,505.911 1291.28,513.982 1293.42,522.135 1295.57,530.364 1297.71,538.661 1299.85,547.018 1302,555.428 1304.14,563.883 1306.29,572.377 1308.43,580.9 1310.58,589.446 1312.72,598.007 1314.87,606.574 1317.01,615.142 1319.15,623.701 1321.3,632.244 1323.44,640.765 1325.59,649.254 1327.73,657.705 1329.88,666.11 1332.02,674.461 1334.17,682.753 1336.31,690.976 1338.45,699.125 1340.6,707.192 1342.74,715.169 1344.89,723.051 1347.03,730.831 1349.18,738.502 1351.32,746.057 1353.46,753.491 1355.61,760.797 1357.75,767.969 1359.9,775.001 1362.04,781.887 1364.19,788.623 1366.33,795.203 1368.48,801.621 1370.62,807.872 1372.76,813.953 1374.91,819.858 1377.05,825.583 1379.2,831.123 1381.34,836.476 1383.49,841.636 1385.63,846.601 1387.78,851.368 1389.92,855.932 1392.06,860.292 1394.21,864.445 1396.35,868.387 1398.5,872.119 1400.64,875.636 1402.79,878.938 1404.93,882.024 1407.07,884.891 1409.22,887.539 1411.36,889.968 1413.51,892.176 1415.65,894.164 1417.8,895.932 1419.94,897.479 1422.09,898.807 1424.23,899.915 1426.37,900.806 1428.52,901.479 1430.66,901.937 1432.81,902.181 1434.95,902.213 1437.1,902.035 1439.24,901.649 1441.39,901.058 1443.53,900.264 1445.67,899.27 1447.82,898.08 1449.96,896.697 1452.11,895.123 1454.25,893.363 1456.4,891.421 1458.54,889.301 1460.68,887.007 1462.83,884.542 1464.97,881.913 1467.12,879.123 1469.26,876.177 1471.41,873.08 1473.55,869.838 1475.7,866.455 1477.84,862.936 1479.98,859.288 1482.13,855.515 1484.27,851.624 1486.42,847.62 1488.56,843.509 1490.71,839.296 1492.85,834.989 1495,830.592 1497.14,826.111 1499.28,821.554 1501.43,816.926 1503.57,812.233 1505.72,807.481 1507.86,802.677 1510.01,797.826 1512.15,792.936 1514.3,788.012 1516.44,783.061 1518.58,778.088 1520.73,773.099 1522.87,768.102 1525.02,763.102 1527.16,758.104 1529.31,753.116 1531.45,748.142 1533.59,743.189 1535.74,738.262 1537.88,733.367 1540.03,728.51 1542.17,723.695 1544.32,718.929 1546.46,714.216 1548.61,709.562 1550.75,704.972 1552.89,700.45 1555.04,696.001 1557.18,691.631 1559.33,687.343 1561.47,683.141 1563.62,679.03 1565.76,675.014 1567.91,671.097 1570.05,667.282 1572.19,663.572 1574.34,659.973 1576.48,656.485 1578.63,653.113 1580.77,649.859 1582.92,646.726 1585.06,643.716 1587.2,640.832 1589.35,638.076 1591.49,635.449 1593.64,632.954 1595.78,630.591 1597.93,628.363 1600.07,626.27 1602.22,624.314 1604.36,622.494 1606.5,620.812 1608.65,619.268 1610.79,617.863 1612.94,616.595 1615.08,615.466 1617.23,614.475 1619.37,613.62 1621.52,612.903 1623.66,612.321 1625.8,611.874 1627.95,611.56 1630.09,611.378 1632.24,611.326 1634.38,611.403 1636.53,611.607 1638.67,611.936 1640.81,612.387 1642.96,612.959 1645.1,613.648 1647.25,614.453 1649.39,615.37 1651.54,616.396 1653.68,617.529 1655.83,618.766 1657.97,620.103 1660.11,621.537 1662.26,623.064 1664.4,624.681 1666.55,626.385 1668.69,628.171 1670.84,630.036 1672.98,631.976 1675.13,633.987 1677.27,636.065 1679.41,638.206 1681.56,640.406 1683.7,642.661 1685.85,644.966 1687.99,647.318 1690.14,649.712 1692.28,652.144 1694.42,654.61 1696.57,657.105 1698.71,659.625 1700.86,662.166 1703,664.724 1705.15,667.294 1707.29,669.872 1709.44,672.455 1711.58,675.037 1713.72,677.615 1715.87,680.184 1718.01,682.742 1720.16,685.283 1722.3,687.804 1724.45,690.301 1726.59,692.77 1728.74,695.207 1730.88,697.61 1733.02,699.974 1735.17,702.297 1737.31,704.574 1739.46,706.803 1741.6,708.98 1743.75,711.102 1745.89,713.167 1748.03,715.172 1750.18,717.114 1752.32,718.99 1754.47,720.798 1756.61,722.536 1758.76,724.202 1760.9,725.793 1763.05,727.308 1765.19,728.745 1767.33,730.102 1769.48,731.377 1771.62,732.57 1773.77,733.679 1775.91,734.703 1778.06,735.642 1780.2,736.493 1782.35,737.257 1784.49,737.933 1786.63,738.521 1788.78,739.02 1790.92,739.43 1793.07,739.752 1795.21,739.985 1797.36,740.131 1799.5,740.188 1801.64,740.158 1803.79,740.042 1805.93,739.841 1808.08,739.554 1810.22,739.185 1812.37,738.733 1814.51,738.2 1816.66,737.587 1818.8,736.897 1820.94,736.13 1823.09,735.289 1825.23,734.375 1827.38,733.391 1829.52,732.338 1831.67,731.219 1833.81,730.036 1835.96,728.791 1838.1,727.488 1840.24,726.127 1842.39,724.712 1844.53,723.246 1846.68,721.731 1848.82,720.171 1850.97,718.567 1853.11,716.923 1855.25,715.242 1857.4,713.526 1859.54,711.779 1861.69,710.004 1863.83,708.204 1865.98,706.382 1868.12,704.541 1870.27,702.684 1872.41,700.814 1874.55,698.935 1876.7,697.049 1878.84,695.16 1880.99,693.271 1883.13,691.384 1885.28,689.504 1887.42,687.632 1889.57,685.772 1891.71,683.927 1893.85,682.1 1896,680.294 1898.14,678.511 1900.29,676.754 1902.43,675.027 1904.58,673.331 1906.72,671.669 1908.86,670.045 1911.01,668.459 1913.15,666.915 1915.3,665.415 1917.44,663.962 1919.59,662.556 1921.73,661.201 1923.88,659.898 1926.02,658.65 1928.16,657.457 1930.31,656.321 1932.45,655.245 1934.6,654.23 1936.74,653.276 1938.89,652.386 1941.03,651.56 1943.18,650.799 1945.32,650.104 1947.46,649.477 1949.61,648.918 1951.75,648.427 1953.9,648.004 1956.04,647.651 1958.19,647.368 1960.33,647.154 1962.47,647.01 1964.62,646.935 1966.76,646.93 1968.91,646.994 1971.05,647.127 1973.2,647.327 1975.34,647.595 1977.49,647.93 1979.63,648.331 1981.77,648.797 1983.92,649.327 1986.06,649.92 1988.21,650.574 1990.35,651.288 1992.5,652.061 1994.64,652.892 1996.79,653.778 1998.93,654.718 2001.07,655.71 2003.22,656.753 2005.36,657.844 2007.51,658.982 2009.65,660.164 2011.8,661.388 2013.94,662.653 2016.08,663.955 2018.23,665.293 2020.37,666.665 2022.52,668.067 2024.66,669.498 2026.81,670.955 2028.95,672.435 2031.1,673.937 2033.24,675.457 2035.38,676.993 2037.53,678.542 2039.67,680.102 2041.82,681.67 2043.96,683.244 2046.11,684.821 2048.25,686.398 2050.4,687.972 2052.54,689.542 2054.68,691.105 2056.83,692.657 2058.97,694.197 2061.12,695.723 2063.26,697.23 2065.41,698.718 2067.55,700.184 2069.69,701.625 2071.84,703.039 2073.98,704.425 2076.13,705.779 2078.27,707.099 2080.42,708.384 2082.56,709.632 2084.71,710.84 2086.85,712.007 2088.99,713.131 2091.14,714.21 2093.28,715.242 2095.43,716.227 2097.57,717.162 2099.72,718.046 2101.86,718.878 2104.01,719.656 2106.15,720.38 2108.29,721.049 2110.44,721.661 2112.58,722.215 2114.73,722.711 2116.87,723.148 2119.02,723.526 2121.16,723.845 2123.3,724.102 2125.45,724.3 2127.59,724.437 2129.74,724.513 2131.88,724.528 2134.03,724.482 2136.17,724.377 2138.32,724.211 2140.46,723.985 2142.6,723.701 2144.75,723.358 2146.89,722.957 2149.04,722.499 2151.18,721.985 2153.33,721.416 2155.47,720.792 2157.62,720.116 2159.76,719.388 2161.9,718.609 2164.05,717.782 2166.19,716.907 2168.34,715.986 2170.48,715.02 2172.63,714.012 2174.77,712.962 2176.92,711.874 2179.06,710.748 2181.2,709.587 2183.35,708.393 2185.49,707.167 2187.64,705.912 2189.78,704.63 2191.93,703.322 2194.07,701.992 2196.21,700.642 2198.36,699.273 2200.5,697.888 2202.65,696.489 2204.79,695.079 2206.94,693.66 2209.08,692.235 2211.23,690.805 2213.37,689.373 2215.51,687.941 2217.66,686.513 2219.8,685.089 2221.95,683.673 2224.09,682.267 2226.24,680.873 2228.38,679.493 2230.53,678.13 2232.67,676.786 2234.81,675.463 2236.96,674.163 2239.1,672.888 2241.25,671.641 2243.39,670.423 2245.54,669.237 2247.68,668.084 2249.82,666.966 2251.97,665.885 2254.11,664.843 2256.26,663.841 2258.4,662.882 2260.55,661.965 2262.69,661.094 2264.84,660.269 2266.98,659.492 2269.12,658.764 2271.27,658.086 2273.41,657.459 2275.56,656.884 2277.7,656.362 2279.85,655.894 2281.99,655.481 2284.14,655.123 2286.28,654.821 2288.42,654.574 2290.57,654.385 2292.71,654.252 2294.86,654.176 2297,654.157 2299.15,654.196 2301.29,654.291 2303.43,654.443 2305.58,654.652 2307.72,654.917 2309.87,655.237 2312.01,655.612 2314.16,656.042 2316.3,656.525 2318.45,657.062 2320.59,657.65 2322.73,658.289 2324.88,658.978 2327.02,659.716 2329.17,660.501 2331.31,661.332 2333.46,662.208 2335.6,663.127 2337.75,664.088 2339.89,665.089 2342.03,666.128 2344.18,667.205 2346.32,668.316 2348.47,669.46 2350.61,670.636 2352.76,671.84 "/>
<polyline clip-path="url(#clip152)" style="stroke:#0000ff; stroke-linecap:round; stroke-linejoin:round; stroke-width:4; stroke-opacity:1; fill:none" points="208.355,667.638 210.499,669.084 212.643,670.559 214.788,672.06 216.932,673.586 219.077,675.134 221.221,676.702 223.365,678.287 225.51,679.888 227.654,681.5 229.799,683.123 231.943,684.753 234.087,686.388 236.232,688.026 238.376,689.664 240.521,691.299 242.665,692.929 244.809,694.552 246.954,696.165 249.098,697.765 251.243,699.351 253.387,700.919 255.531,702.467 257.676,703.993 259.82,705.495 261.965,706.97 264.109,708.416 266.253,709.831 268.398,711.213 270.542,712.559 272.687,713.867 274.831,715.136 276.975,716.363 279.12,717.547 281.264,718.685 283.409,719.777 285.553,720.82 287.697,721.813 289.842,722.754 291.986,723.642 294.131,724.475 296.275,725.253 298.419,725.974 300.564,726.637 302.708,727.24 304.853,727.784 306.997,728.267 309.142,728.689 311.286,729.048 313.43,729.345 315.575,729.579 317.719,729.749 319.864,729.856 322.008,729.899 324.152,729.879 326.297,729.794 328.441,729.647 330.586,729.436 332.73,729.162 334.874,728.825 337.019,728.427 339.163,727.968 341.308,727.448 343.452,726.869 345.596,726.231 347.741,725.536 349.885,724.784 352.03,723.977 354.174,723.116 356.318,722.203 358.463,721.238 360.607,720.224 362.752,719.163 364.896,718.055 367.04,716.903 369.185,715.708 371.329,714.473 373.474,713.199 375.618,711.889 377.762,710.544 379.907,709.167 382.051,707.76 384.196,706.325 386.34,704.865 388.484,703.381 390.629,701.877 392.773,700.355 394.918,698.817 397.062,697.265 399.206,695.702 401.351,694.131 403.495,692.554 405.64,690.974 407.784,689.393 409.928,687.814 412.073,686.239 414.217,684.671 416.362,683.112 418.506,681.566 420.65,680.033 422.795,678.518 424.939,677.022 427.084,675.547 429.228,674.097 431.372,672.673 433.517,671.278 435.661,669.914 437.806,668.583 439.95,667.288 442.094,666.03 444.239,664.812 446.383,663.635 448.528,662.502 450.672,661.414 452.816,660.373 454.961,659.381 457.105,658.44 459.25,657.55 461.394,656.714 463.538,655.933 465.683,655.208 467.827,654.54 469.972,653.931 472.116,653.381 474.26,652.892 476.405,652.463 478.549,652.097 480.694,651.793 482.838,651.552 484.982,651.375 487.127,651.262 489.271,651.212 491.416,651.227 493.56,651.306 495.704,651.449 497.849,651.656 499.993,651.927 502.138,652.261 504.282,652.657 506.426,653.115 508.571,653.635 510.715,654.215 512.86,654.855 515.004,655.553 517.148,656.309 519.293,657.121 521.437,657.988 523.582,658.909 525.726,659.882 527.87,660.905 530.015,661.977 532.159,663.096 534.304,664.26 536.448,665.468 538.592,666.717 540.737,668.006 542.881,669.331 545.026,670.692 547.17,672.086 549.314,673.51 551.459,674.962 553.603,676.44 555.748,677.941 557.892,679.463 560.036,681.003 562.181,682.559 564.325,684.127 566.47,685.707 568.614,687.293 570.758,688.885 572.903,690.48 575.047,692.074 577.192,693.665 579.336,695.25 581.48,696.826 583.625,698.391 585.769,699.943 587.914,701.478 590.058,702.993 592.202,704.487 594.347,705.956 596.491,707.397 598.636,708.81 600.78,710.19 602.924,711.535 605.069,712.843 607.213,714.112 609.358,715.339 611.502,716.523 613.646,717.66 615.791,718.748 617.935,719.787 620.08,720.773 622.224,721.705 624.368,722.582 626.513,723.4 628.657,724.159 630.802,724.858 632.946,725.494 635.09,726.067 637.235,726.574 639.379,727.016 641.524,727.391 643.668,727.698 645.813,727.936 647.957,728.104 650.101,728.202 652.246,728.23 654.39,728.187 656.535,728.072 658.679,727.886 660.823,727.629 662.968,727.3 665.112,726.9 667.257,726.429 669.401,725.888 671.545,725.276 673.69,724.596 675.834,723.847 677.979,723.031 680.123,722.149 682.267,721.201 684.412,720.189 686.556,719.114 688.701,717.978 690.845,716.782 692.989,715.528 695.134,714.218 697.278,712.854 699.423,711.437 701.567,709.97 703.711,708.455 705.856,706.894 708,705.29 710.145,703.644 712.289,701.96 714.433,700.24 716.578,698.487 718.722,696.703 720.867,694.891 723.011,693.055 725.155,691.196 727.3,689.318 729.444,687.425 731.589,685.518 733.733,683.602 735.877,681.679 738.022,679.752 740.166,677.825 742.311,675.901 744.455,673.983 746.599,672.074 748.744,670.178 750.888,668.298 753.033,666.436 755.177,664.597 757.321,662.784 759.466,660.999 761.61,659.245 763.755,657.527 765.899,655.847 768.043,654.207 770.188,652.612 772.332,651.064 774.477,649.566 776.621,648.12 778.765,646.73 780.91,645.398 783.054,644.128 785.199,642.92 787.343,641.778 789.487,640.705 791.632,639.702 793.776,638.772 795.921,637.916 798.065,637.137 800.209,636.437 802.354,635.817 804.498,635.279 806.643,634.824 808.787,634.455 810.931,634.171 813.076,633.975 815.22,633.866 817.365,633.847 819.509,633.918 821.653,634.079 823.798,634.331 825.942,634.673 828.087,635.108 830.231,635.633 832.375,636.25 834.52,636.957 836.664,637.755 838.809,638.642 840.953,639.619 843.097,640.684 845.242,641.836 847.386,643.074 849.531,644.396 851.675,645.802 853.819,647.289 855.964,648.855 858.108,650.5 860.253,652.22 862.397,654.014 864.541,655.878 866.686,657.812 868.83,659.811 870.975,661.873 873.119,663.996 875.263,666.176 877.408,668.41 879.552,670.695 881.697,673.027 883.841,675.404 885.985,677.82 888.13,680.274 890.274,682.76 892.419,685.276 894.563,687.816 896.707,690.377 898.852,692.955 900.996,695.545 903.141,698.144 905.285,700.746 907.429,703.348 909.574,705.945 911.718,708.532 913.863,711.105 916.007,713.659 918.151,716.19 920.296,718.692 922.44,721.162 924.585,723.594 926.729,725.984 928.873,728.328 931.018,730.619 933.162,732.855 935.307,735.029 937.451,737.139 939.595,739.178 941.74,741.142 943.884,743.027 946.029,744.829 948.173,746.543 950.317,748.164 952.462,749.689 954.606,751.114 956.751,752.433 958.895,753.644 961.039,754.742 963.184,755.724 965.328,756.586 967.473,757.324 969.617,757.935 971.761,758.416 973.906,758.763 976.05,758.974 978.195,759.045 980.339,758.974 982.484,758.758 984.628,758.395 986.772,757.883 988.917,757.218 991.061,756.4 993.206,755.427 995.35,754.297 997.494,753.009 999.639,751.561 1001.78,749.952 1003.93,748.182 1006.07,746.25 1008.22,744.156 1010.36,741.899 1012.51,739.479 1014.65,736.896 1016.79,734.151 1018.94,731.244 1021.08,728.176 1023.23,724.948 1025.37,721.561 1027.52,718.016 1029.66,714.316 1031.8,710.461 1033.95,706.455 1036.09,702.298 1038.24,697.993 1040.38,693.544 1042.53,688.952 1044.67,684.221 1046.82,679.354 1048.96,674.354 1051.1,669.225 1053.25,663.971 1055.39,658.595 1057.54,653.102 1059.68,647.496 1061.83,641.781 1063.97,635.962 1066.12,630.043 1068.26,624.031 1070.4,617.929 1072.55,611.744 1074.69,605.479 1076.84,599.142 1078.98,592.737 1081.13,586.271 1083.27,579.749 1085.41,573.177 1087.56,566.562 1089.7,559.909 1091.85,553.225 1093.99,546.517 1096.14,539.79 1098.28,533.052 1100.43,526.308 1102.57,519.566 1104.71,512.833 1106.86,506.115 1109,499.418 1111.15,492.75 1113.29,486.118 1115.44,479.528 1117.58,472.988 1119.73,466.503 1121.87,460.081 1124.01,453.73 1126.16,447.454 1128.3,441.262 1130.45,435.16 1132.59,429.155 1134.74,423.252 1136.88,417.46 1139.02,411.784 1141.17,406.23 1143.31,400.805 1145.46,395.515 1147.6,390.366 1149.75,385.364 1151.89,380.514 1154.04,375.823 1156.18,371.297 1158.32,366.939 1160.47,362.757 1162.61,358.754 1164.76,354.936 1166.9,351.308 1169.05,347.873 1171.19,344.638 1173.34,341.605 1175.48,338.779 1177.62,336.164 1179.77,333.763 1181.91,331.58 1184.06,329.618 1186.2,327.88 1188.35,326.368 1190.49,325.086 1192.63,324.036 1194.78,323.22 1196.92,322.64 1199.07,322.296 1201.21,322.192 1203.36,322.327 1205.5,322.704 1207.65,323.322 1209.79,324.182 1211.93,325.284 1214.08,326.628 1216.22,328.213 1218.37,330.04 1220.51,332.108 1222.66,334.414 1224.8,336.959 1226.95,339.74 1229.09,342.756 1231.23,346.004 1233.38,349.483 1235.52,353.189 1237.67,357.121 1239.81,361.274 1241.96,365.647 1244.1,370.234 1246.24,375.034 1248.39,380.041 1250.53,385.252 1252.68,390.663 1254.82,396.268 1256.97,402.063 1259.11,408.044 1261.26,414.204 1263.4,420.539 1265.54,427.044 1267.69,433.712 1269.83,440.538 1271.98,447.515 1274.12,454.638 1276.27,461.9 1278.41,469.296 1280.56,476.817 1282.7,484.458 1284.84,492.211 1286.99,500.07 1289.13,508.028 1291.28,516.077 1293.42,524.211 1295.57,532.422 1297.71,540.702 1299.85,549.044 1302,557.441 1304.14,565.884 1306.29,574.368 1308.43,582.883 1310.58,591.422 1312.72,599.977 1314.87,608.541 1317.01,617.107 1319.15,625.666 1321.3,634.21 1323.44,642.733 1325.59,651.226 1327.73,659.682 1329.88,668.093 1332.02,676.453 1334.17,684.753 1336.31,692.987 1338.45,701.147 1340.6,709.226 1342.74,717.218 1344.89,725.114 1347.03,732.909 1349.18,740.596 1351.32,748.168 1353.46,755.619 1355.61,762.943 1357.75,770.133 1359.9,777.184 1362.04,784.089 1364.19,790.844 1366.33,797.443 1368.48,803.88 1370.62,810.151 1372.76,816.251 1374.91,822.174 1377.05,827.917 1379.2,833.476 1381.34,838.845 1383.49,844.022 1385.63,849.003 1387.78,853.784 1389.92,858.363 1392.06,862.736 1394.21,866.9 1396.35,870.853 1398.5,874.594 1400.64,878.119 1402.79,881.427 1404.93,884.516 1407.07,887.386 1409.22,890.035 1411.36,892.463 1413.51,894.668 1415.65,896.651 1417.8,898.411 1419.94,899.948 1422.09,901.264 1424.23,902.358 1426.37,903.232 1428.52,903.886 1430.66,904.321 1432.81,904.541 1434.95,904.545 1437.1,904.336 1439.24,903.917 1441.39,903.29 1443.53,902.457 1445.67,901.421 1447.82,900.185 1449.96,898.753 1452.11,897.129 1454.25,895.314 1456.4,893.315 1458.54,891.133 1460.68,888.775 1462.83,886.243 1464.97,883.543 1467.12,880.679 1469.26,877.656 1471.41,874.479 1473.55,871.153 1475.7,867.683 1477.84,864.075 1479.98,860.333 1482.13,856.464 1484.27,852.474 1486.42,848.367 1488.56,844.15 1490.71,839.829 1492.85,835.41 1495,830.898 1497.14,826.3 1499.28,821.623 1501.43,816.871 1503.57,812.052 1505.72,807.172 1507.86,802.237 1510.01,797.253 1512.15,792.227 1514.3,787.165 1516.44,782.073 1518.58,776.957 1520.73,771.825 1522.87,766.68 1525.02,761.531 1527.16,756.384 1529.31,751.243 1531.45,746.115 1533.59,741.007 1535.74,735.923 1537.88,730.87 1540.03,725.854 1542.17,720.879 1544.32,715.952 1546.46,711.077 1548.61,706.26 1550.75,701.507 1552.89,696.821 1555.04,692.208 1557.18,687.673 1559.33,683.22 1561.47,678.854 1563.62,674.578 1565.76,670.398 1567.91,666.317 1570.05,662.338 1572.19,658.466 1574.34,654.704 1576.48,651.055 1578.63,647.522 1580.77,644.109 1582.92,640.817 1585.06,637.651 1587.2,634.611 1589.35,631.7 1591.49,628.921 1593.64,626.275 1595.78,623.763 1597.93,621.388 1600.07,619.149 1602.22,617.05 1604.36,615.089 1606.5,613.269 1608.65,611.589 1610.79,610.049 1612.94,608.651 1615.08,607.393 1617.23,606.276 1619.37,605.299 1621.52,604.461 1623.66,603.762 1625.8,603.2 1627.95,602.775 1630.09,602.485 1632.24,602.329 1634.38,602.305 1636.53,602.41 1638.67,602.644 1640.81,603.004 1642.96,603.488 1645.1,604.093 1647.25,604.816 1649.39,605.656 1651.54,606.608 1653.68,607.671 1655.83,608.841 1657.97,610.114 1660.11,611.489 1662.26,612.96 1664.4,614.525 1666.55,616.18 1668.69,617.921 1670.84,619.744 1672.98,621.646 1675.13,623.623 1677.27,625.67 1679.41,627.784 1681.56,629.961 1683.7,632.195 1685.85,634.484 1687.99,636.823 1690.14,639.207 1692.28,641.632 1694.42,644.095 1696.57,646.59 1698.71,649.114 1700.86,651.661 1703,654.229 1705.15,656.812 1707.29,659.406 1709.44,662.007 1711.58,664.61 1713.72,667.213 1715.87,669.809 1718.01,672.397 1720.16,674.97 1722.3,677.526 1724.45,680.06 1726.59,682.57 1728.74,685.05 1730.88,687.497 1733.02,689.908 1735.17,692.279 1737.31,694.607 1739.46,696.889 1741.6,699.121 1743.75,701.3 1745.89,703.423 1748.03,705.488 1750.18,707.491 1752.32,709.431 1754.47,711.304 1756.61,713.108 1758.76,714.84 1760.9,716.5 1763.05,718.084 1765.19,719.591 1767.33,721.02 1769.48,722.368 1771.62,723.634 1773.77,724.817 1775.91,725.916 1778.06,726.929 1780.2,727.856 1782.35,728.696 1784.49,729.449 1786.63,730.114 1788.78,730.69 1790.92,731.178 1793.07,731.578 1795.21,731.889 1797.36,732.112 1799.5,732.247 1801.64,732.296 1803.79,732.257 1805.93,732.133 1808.08,731.925 1810.22,731.632 1812.37,731.257 1814.51,730.801 1816.66,730.265 1818.8,729.651 1820.94,728.96 1823.09,728.194 1825.23,727.355 1827.38,726.445 1829.52,725.466 1831.67,724.421 1833.81,723.311 1835.96,722.138 1838.1,720.906 1840.24,719.617 1842.39,718.273 1844.53,716.877 1846.68,715.432 1848.82,713.94 1850.97,712.404 1853.11,710.828 1855.25,709.214 1857.4,707.565 1859.54,705.884 1861.69,704.175 1863.83,702.439 1865.98,700.681 1868.12,698.904 1870.27,697.11 1872.41,695.303 1874.55,693.486 1876.7,691.661 1878.84,689.833 1880.99,688.005 1883.13,686.178 1885.28,684.357 1887.42,682.545 1889.57,680.744 1891.71,678.958 1893.85,677.189 1896,675.44 1898.14,673.715 1900.29,672.015 1902.43,670.344 1904.58,668.705 1906.72,667.1 1908.86,665.531 1911.01,664.001 1913.15,662.513 1915.3,661.069 1917.44,659.67 1919.59,658.32 1921.73,657.02 1923.88,655.771 1926.02,654.577 1928.16,653.439 1930.31,652.358 1932.45,651.336 1934.6,650.375 1936.74,649.476 1938.89,648.639 1941.03,647.867 1943.18,647.16 1945.32,646.52 1947.46,645.946 1949.61,645.44 1951.75,645.003 1953.9,644.634 1956.04,644.334 1958.19,644.104 1960.33,643.943 1962.47,643.852 1964.62,643.83 1966.76,643.877 1968.91,643.994 1971.05,644.178 1973.2,644.431 1975.34,644.75 1977.49,645.137 1979.63,645.588 1981.77,646.105 1983.92,646.685 1986.06,647.327 1988.21,648.03 1990.35,648.793 1992.5,649.615 1994.64,650.493 1996.79,651.426 1998.93,652.412 2001.07,653.45 2003.22,654.537 2005.36,655.672 2007.51,656.853 2009.65,658.077 2011.8,659.342 2013.94,660.647 2016.08,661.988 2018.23,663.364 2020.37,664.772 2022.52,666.21 2024.66,667.675 2026.81,669.164 2028.95,670.676 2031.1,672.207 2033.24,673.755 2035.38,675.318 2037.53,676.892 2039.67,678.475 2041.82,680.064 2043.96,681.658 2046.11,683.252 2048.25,684.845 2050.4,686.433 2052.54,688.014 2054.68,689.586 2056.83,691.146 2058.97,692.692 2061.12,694.22 2063.26,695.728 2065.41,697.214 2067.55,698.675 2069.69,700.11 2071.84,701.515 2073.98,702.888 2076.13,704.228 2078.27,705.532 2080.42,706.797 2082.56,708.022 2084.71,709.206 2086.85,710.345 2088.99,711.439 2091.14,712.485 2093.28,713.481 2095.43,714.427 2097.57,715.321 2099.72,716.161 2101.86,716.946 2104.01,717.675 2106.15,718.346 2108.29,718.959 2110.44,719.513 2112.58,720.006 2114.73,720.439 2116.87,720.81 2119.02,721.119 2121.16,721.366 2123.3,721.55 2125.45,721.671 2127.59,721.728 2129.74,721.722 2131.88,721.653 2134.03,721.522 2136.17,721.327 2138.32,721.07 2140.46,720.752 2142.6,720.372 2144.75,719.931 2146.89,719.431 2149.04,718.872 2151.18,718.255 2153.33,717.581 2155.47,716.852 2157.62,716.068 2159.76,715.231 2161.9,714.342 2164.05,713.403 2166.19,712.415 2168.34,711.38 2170.48,710.3 2172.63,709.177 2174.77,708.012 2176.92,706.807 2179.06,705.565 2181.2,704.287 2183.35,702.976 2185.49,701.633 2187.64,700.261 2189.78,698.863 2191.93,697.439 2194.07,695.994 2196.21,694.529 2198.36,693.047 2200.5,691.549 2202.65,690.039 2204.79,688.52 2206.94,686.992 2209.08,685.46 2211.23,683.925 2213.37,682.39 2215.51,680.858 2217.66,679.33 2219.8,677.811 2221.95,676.301 2224.09,674.804 2226.24,673.322 2228.38,671.857 2230.53,670.412 2232.67,668.989 2234.81,667.59 2236.96,666.219 2239.1,664.876 2241.25,663.565 2243.39,662.287 2245.54,661.045 2247.68,659.84 2249.82,658.675 2251.97,657.551 2254.11,656.47 2256.26,655.435 2258.4,654.446 2260.55,653.506 2262.69,652.616 2264.84,651.777 2266.98,650.991 2269.12,650.26 2271.27,649.584 2273.41,648.964 2275.56,648.403 2277.7,647.899 2279.85,647.456 2281.99,647.072 2284.14,646.75 2286.28,646.489 2288.42,646.291 2290.57,646.154 2292.71,646.081 2294.86,646.07 2297,646.122 2299.15,646.238 2301.29,646.416 2303.43,646.657 2305.58,646.961 2307.72,647.326 2309.87,647.753 2312.01,648.241 2314.16,648.79 2316.3,649.397 2318.45,650.064 2320.59,650.788 2322.73,651.568 2324.88,652.404 2327.02,653.294 2329.17,654.237 2331.31,655.231 2333.46,656.275 2335.6,657.368 2337.75,658.507 2339.89,659.692 2342.03,660.919 2344.18,662.188 2346.32,663.496 2348.47,664.842 2350.61,666.224 2352.76,667.638 "/>
<path clip-path="url(#clip150)" d="M1946.19 394.964 L2281.28 394.964 L2281.28 89.9796 L1946.19 89.9796  Z" fill="#ffffff" fill-rule="evenodd" fill-opacity="1"/>
<polyline clip-path="url(#clip150)" style="stroke:#000000; stroke-linecap:round; stroke-linejoin:round; stroke-width:4; stroke-opacity:1; fill:none" points="1946.19,394.964 2281.28,394.964 2281.28,89.9796 1946.19,89.9796 1946.19,394.964 "/>
<path clip-path="url(#clip150)" d="M2018.74 143.47 L2018.74 188.981 L2064.26 188.981 L2064.26 143.47 L2018.74 143.47 Z" fill="#ffff00" fill-rule="evenodd" fill-opacity="1" stroke="#000000" stroke-opacity="1" stroke-width="4.26667"/>
<path clip-path="url(#clip150)" d="M2162.81 157.719 Q2162.2 160.741 2161.38 162.474 Q2160.07 165.121 2157.82 165.121 Q2156.22 165.121 2155.01 164.16 Q2153.81 163.2 2153.51 161.607 Q2152.9 162.333 2152.45 162.755 Q2152.03 163.177 2151.19 163.832 Q2150.37 164.465 2149.34 164.793 Q2148.31 165.121 2147.14 165.121 Q2144.28 165.121 2142.47 163.622 Q2140.04 173.436 2139.83 173.928 Q2139.15 174.935 2138.17 174.935 Q2137.56 174.935 2137.18 174.56 Q2136.81 174.209 2136.81 173.646 Q2136.83 173.459 2136.97 172.874 L2143.86 145.118 Q2144.04 144.368 2144.51 143.947 Q2145 143.502 2145.29 143.455 Q2145.57 143.385 2145.78 143.385 Q2146.41 143.385 2146.78 143.736 Q2147.18 144.064 2147.18 144.673 Q2147.18 144.767 2147.04 145.305 Q2146.93 145.821 2146.74 146.617 Q2146.55 147.39 2146.46 147.741 L2144.44 155.799 Q2143.76 158.562 2143.76 159.874 Q2143.76 161.865 2144.65 162.966 Q2145.57 164.043 2147.32 164.043 Q2148.42 164.043 2149.45 163.598 Q2150.49 163.13 2151.19 162.497 Q2151.89 161.865 2152.45 161.186 Q2153.01 160.483 2153.27 160.038 Q2153.53 159.57 2153.55 159.452 L2154.8 154.557 L2157.07 145.586 Q2157.21 145.024 2157.47 144.649 Q2157.75 144.251 2158.07 144.111 Q2158.4 143.97 2158.59 143.947 Q2158.78 143.9 2158.94 143.9 Q2159.53 143.9 2159.92 144.251 Q2160.32 144.603 2160.32 145.212 Q2160.32 145.329 2160.18 145.891 Q2160.07 146.43 2159.88 147.226 Q2159.69 147.999 2159.6 148.42 Q2158.85 151.372 2158.78 151.676 L2157.44 156.853 Q2157.37 157.157 2157.14 158.141 Q2156.93 159.125 2156.81 159.64 Q2156.69 160.132 2156.58 160.811 Q2156.48 161.467 2156.48 161.842 Q2156.48 164.043 2157.93 164.043 Q2158.5 164.043 2158.99 163.715 Q2159.48 163.364 2159.81 162.872 Q2160.16 162.38 2160.49 161.537 Q2160.84 160.67 2161.05 159.968 Q2161.26 159.242 2161.56 158.117 Q2161.68 157.579 2161.8 157.415 Q2161.92 157.251 2162.24 157.251 Q2162.81 157.251 2162.81 157.719 Z" fill="#000000" fill-rule="nonzero" fill-opacity="1" /><path clip-path="url(#clip150)" d="M2167.66 177.382 Q2167.66 172.447 2168.91 169.758 Q2170.65 165.757 2174.74 165.757 Q2175.61 165.757 2176.51 166.003 Q2177.43 166.233 2178.58 167.135 Q2179.74 168.036 2180.45 169.512 Q2181.79 172.365 2181.79 177.382 Q2181.79 182.284 2180.55 184.957 Q2178.73 188.859 2174.71 188.859 Q2173.2 188.859 2171.66 188.088 Q2170.14 187.318 2169.17 185.465 Q2167.66 182.694 2167.66 177.382 M2170.45 176.972 Q2170.45 182.038 2170.81 184.055 Q2171.22 186.236 2172.33 187.186 Q2173.47 188.121 2174.71 188.121 Q2176.06 188.121 2177.17 187.121 Q2178.3 186.104 2178.65 183.924 Q2179.02 181.776 2179.01 176.972 Q2179.01 172.299 2178.68 170.43 Q2178.24 168.249 2177.06 167.38 Q2175.89 166.495 2174.71 166.495 Q2174.27 166.495 2173.79 166.626 Q2173.33 166.757 2172.66 167.135 Q2171.99 167.512 2171.46 168.446 Q2170.96 169.381 2170.71 170.791 Q2170.45 172.611 2170.45 176.972 Z" fill="#000000" fill-rule="nonzero" fill-opacity="1" /><polyline clip-path="url(#clip150)" style="stroke:#000000; stroke-linecap:round; stroke-linejoin:round; stroke-width:4; stroke-opacity:1; fill:none" stroke-dasharray="16, 10" points="1970.02,242.472 2112.98,242.472 "/>
<path clip-path="url(#clip150)" d="M2136.81 240.49 Q2136.81 236.648 2140.48 233.814 Q2144.18 230.98 2149.31 230.559 L2149.31 227.771 Q2149.31 226.343 2148.42 225.968 Q2147.53 225.57 2144.09 225.57 L2143.18 225.57 L2143.18 224.071 Q2147.3 224.211 2151.33 224.211 Q2155.36 224.211 2159.48 224.071 L2159.48 225.57 L2158.61 225.57 Q2155.26 225.57 2154.3 225.944 Q2153.34 226.319 2153.34 227.771 L2153.34 230.559 Q2158.57 230.933 2162.34 233.768 Q2166.11 236.602 2166.11 240.49 Q2166.11 244.097 2162.5 247.025 Q2158.92 249.929 2153.34 250.374 L2153.34 253.138 Q2153.34 254.567 2154.23 254.965 Q2155.12 255.363 2158.57 255.363 L2159.48 255.363 L2159.48 256.839 Q2155.36 256.698 2151.33 256.698 Q2147.3 256.698 2143.18 256.839 L2143.18 255.363 L2144.09 255.363 Q2147.49 255.363 2148.4 254.965 Q2149.31 254.543 2149.31 253.138 L2149.31 250.374 Q2144.14 249.952 2140.46 247.095 Q2136.81 244.237 2136.81 240.49 M2141.58 240.443 Q2141.58 248.172 2149.31 249.203 L2149.31 231.706 Q2145.61 232.245 2143.6 234.423 Q2141.58 236.602 2141.58 240.443 M2153.34 249.25 Q2161.26 248.102 2161.26 240.49 Q2161.26 238.007 2160.51 236.25 Q2159.78 234.494 2158.4 233.58 Q2157.04 232.667 2155.92 232.292 Q2154.8 231.894 2153.34 231.66 L2153.34 249.25 Z" fill="#000000" fill-rule="nonzero" fill-opacity="1" /><path clip-path="url(#clip150)" d="M2180.26 214.481 Q2180.26 213.907 2181.03 213.53 L2185.7 211.317 L2180.96 209.103 Q2180.26 208.775 2180.26 208.201 Q2180.26 207.873 2180.52 207.578 Q2180.8 207.267 2181.16 207.267 Q2181.42 207.267 2181.9 207.628 L2186.06 210.644 Q2185.55 205.103 2185.57 204.939 Q2185.57 204.611 2185.81 204.365 Q2186.06 204.102 2186.47 204.102 Q2186.8 204.102 2187.06 204.348 Q2187.34 204.578 2187.34 204.939 L2186.85 210.644 L2190.57 207.89 Q2191.44 207.25 2191.75 207.267 Q2192.13 207.267 2192.39 207.562 Q2192.65 207.857 2192.65 208.201 Q2192.65 208.775 2191.88 209.136 L2187.21 211.349 L2191.95 213.579 Q2192.65 213.907 2192.65 214.481 Q2192.65 214.809 2192.37 215.12 Q2192.11 215.416 2191.75 215.416 Q2191.55 215.416 2191.21 215.219 Q2191.14 215.186 2190.44 214.661 Q2189.73 214.137 2188.63 213.333 Q2187.55 212.53 2186.85 212.022 Q2187.35 217.563 2187.34 217.727 Q2187.34 218.055 2187.09 218.318 Q2186.85 218.58 2186.44 218.58 Q2186.11 218.58 2185.83 218.35 Q2185.57 218.104 2185.57 217.727 L2186.06 212.022 L2181.37 215.416 Q2180.86 215.416 2180.58 215.17 Q2180.32 214.907 2180.29 214.76 Q2180.26 214.612 2180.26 214.481 Z" fill="#000000" fill-rule="nonzero" fill-opacity="1" /><path clip-path="url(#clip150)" d="M2233.45 237.468 Q2233.45 237.796 2233.24 238.569 L2228.65 256.885 Q2227.64 260.961 2224.36 263.819 Q2221.1 266.676 2217.4 266.676 Q2215.18 266.676 2213.75 265.482 Q2212.32 264.31 2212.32 262.507 Q2212.32 260.914 2213.16 260.141 Q2214.01 259.392 2215.01 259.392 Q2215.34 259.392 2215.69 259.485 Q2216.05 259.579 2216.42 259.977 Q2216.79 260.375 2216.79 261.055 Q2216.79 262.156 2215.83 263.022 Q2215.37 263.42 2214.92 263.514 Q2214.5 263.608 2213.77 263.608 Q2214.05 264.264 2214.57 264.709 Q2215.08 265.154 2215.67 265.318 Q2216.26 265.505 2216.63 265.552 Q2217.03 265.622 2217.4 265.622 Q2220.4 265.622 2222.7 262.601 Q2223.38 261.687 2223.87 260.774 Q2224.38 259.884 2224.76 258.783 Q2225.13 257.705 2225.3 257.12 Q2225.48 256.534 2225.81 255.199 Q2223.63 257.377 2220.96 257.377 Q2219.84 257.377 2218.83 257.073 Q2217.85 256.768 2216.98 256.136 Q2216.12 255.48 2215.6 254.332 Q2215.11 253.185 2215.11 251.662 Q2215.11 250.046 2215.74 247.844 Q2216.37 245.643 2217.9 241.591 Q2218.72 239.319 2218.72 238.218 Q2218.72 237.679 2218.6 237.351 Q2218.48 237 2218.25 236.883 Q2218.01 236.742 2217.87 236.719 Q2217.76 236.695 2217.52 236.695 Q2216.14 236.695 2214.85 238.101 Q2213.56 239.506 2212.67 242.645 Q2212.48 243.23 2212.37 243.371 Q2212.25 243.511 2211.9 243.511 Q2211.31 243.488 2211.31 243.019 Q2211.31 242.832 2211.52 242.106 Q2211.74 241.356 2212.23 240.256 Q2212.74 239.131 2213.45 238.124 Q2214.15 237.094 2215.25 236.367 Q2216.37 235.641 2217.66 235.641 Q2219.42 235.641 2220.5 236.789 Q2221.6 237.913 2221.6 239.576 Q2221.6 240.256 2221.41 240.865 Q2221.24 241.45 2220.64 243.019 Q2218.18 249.343 2218.18 252.435 Q2218.18 253.185 2218.29 253.817 Q2218.43 254.426 2218.74 255.035 Q2219.04 255.621 2219.65 255.972 Q2220.28 256.3 2221.15 256.3 Q2222.25 256.3 2223.28 255.785 Q2224.34 255.246 2224.99 254.52 Q2225.67 253.794 2226.07 253.185 Q2226.49 252.552 2226.59 252.224 L2228.74 243.605 L2229.7 239.764 Q2230.15 237.679 2230.36 237.164 Q2230.64 236.672 2231.13 236.414 Q2231.62 236.157 2232.04 236.157 Q2232.63 236.157 2233.03 236.508 Q2233.45 236.859 2233.45 237.468 Z" fill="#000000" fill-rule="nonzero" fill-opacity="1" /><path clip-path="url(#clip150)" d="M2238.34 269.123 Q2238.34 264.188 2239.59 261.499 Q2241.32 257.498 2245.42 257.498 Q2246.29 257.498 2247.19 257.744 Q2248.11 257.974 2249.26 258.876 Q2250.42 259.777 2251.13 261.253 Q2252.47 264.106 2252.47 269.123 Q2252.47 274.025 2251.23 276.698 Q2249.41 280.6 2245.39 280.6 Q2243.88 280.6 2242.34 279.829 Q2240.82 279.059 2239.85 277.206 Q2238.34 274.435 2238.34 269.123 M2241.13 268.713 Q2241.13 273.779 2241.49 275.796 Q2241.9 277.977 2243.01 278.928 Q2244.14 279.862 2245.39 279.862 Q2246.73 279.862 2247.85 278.862 Q2248.98 277.845 2249.33 275.665 Q2249.7 273.517 2249.69 268.713 Q2249.69 264.04 2249.36 262.171 Q2248.92 259.99 2247.73 259.121 Q2246.57 258.236 2245.39 258.236 Q2244.95 258.236 2244.47 258.367 Q2244.01 258.498 2243.34 258.876 Q2242.67 259.253 2242.14 260.187 Q2241.64 261.122 2241.39 262.532 Q2241.13 264.352 2241.13 268.713 Z" fill="#000000" fill-rule="nonzero" fill-opacity="1" /><polyline clip-path="url(#clip150)" style="stroke:#0000ff; stroke-linecap:round; stroke-linejoin:round; stroke-width:4; stroke-opacity:1; fill:none" points="1970.02,318.718 2112.98,318.718 "/>
<path clip-path="url(#clip150)" d="M2136.81 323.747 Q2136.81 319.906 2140.48 317.071 Q2144.18 314.237 2149.31 313.816 L2149.31 311.028 Q2149.31 309.6 2148.42 309.225 Q2147.53 308.827 2144.09 308.827 L2143.18 308.827 L2143.18 307.328 Q2147.3 307.468 2151.33 307.468 Q2155.36 307.468 2159.48 307.328 L2159.48 308.827 L2158.61 308.827 Q2155.26 308.827 2154.3 309.201 Q2153.34 309.576 2153.34 311.028 L2153.34 313.816 Q2158.57 314.19 2162.34 317.025 Q2166.11 319.859 2166.11 323.747 Q2166.11 327.354 2162.5 330.282 Q2158.92 333.186 2153.34 333.631 L2153.34 336.395 Q2153.34 337.824 2154.23 338.222 Q2155.12 338.62 2158.57 338.62 L2159.48 338.62 L2159.48 340.096 Q2155.36 339.955 2151.33 339.955 Q2147.3 339.955 2143.18 340.096 L2143.18 338.62 L2144.09 338.62 Q2147.49 338.62 2148.4 338.222 Q2149.31 337.8 2149.31 336.395 L2149.31 333.631 Q2144.14 333.209 2140.46 330.352 Q2136.81 327.494 2136.81 323.747 M2141.58 323.7 Q2141.58 331.429 2149.31 332.46 L2149.31 314.963 Q2145.61 315.502 2143.6 317.68 Q2141.58 319.859 2141.58 323.7 M2153.34 332.507 Q2161.26 331.359 2161.26 323.747 Q2161.26 321.264 2160.51 319.507 Q2159.78 317.751 2158.4 316.837 Q2157.04 315.924 2155.92 315.549 Q2154.8 315.151 2153.34 314.917 L2153.34 332.507 Z" fill="#000000" fill-rule="nonzero" fill-opacity="1" /><path clip-path="url(#clip150)" d="M2180.26 297.738 Q2180.26 297.164 2181.03 296.787 L2185.7 294.574 L2180.96 292.36 Q2180.26 292.032 2180.26 291.458 Q2180.26 291.131 2180.52 290.835 Q2180.8 290.524 2181.16 290.524 Q2181.42 290.524 2181.9 290.885 L2186.06 293.901 Q2185.55 288.36 2185.57 288.196 Q2185.57 287.868 2185.81 287.622 Q2186.06 287.36 2186.47 287.36 Q2186.8 287.36 2187.06 287.605 Q2187.34 287.835 2187.34 288.196 L2186.85 293.901 L2190.57 291.147 Q2191.44 290.507 2191.75 290.524 Q2192.13 290.524 2192.39 290.819 Q2192.65 291.114 2192.65 291.458 Q2192.65 292.032 2191.88 292.393 L2187.21 294.606 L2191.95 296.836 Q2192.65 297.164 2192.65 297.738 Q2192.65 298.066 2192.37 298.377 Q2192.11 298.673 2191.75 298.673 Q2191.55 298.673 2191.21 298.476 Q2191.14 298.443 2190.44 297.918 Q2189.73 297.394 2188.63 296.59 Q2187.55 295.787 2186.85 295.279 Q2187.35 300.82 2187.34 300.984 Q2187.34 301.312 2187.09 301.575 Q2186.85 301.837 2186.44 301.837 Q2186.11 301.837 2185.83 301.607 Q2185.57 301.361 2185.57 300.984 L2186.06 295.279 L2181.37 298.673 Q2180.86 298.673 2180.58 298.427 Q2180.32 298.164 2180.29 298.017 Q2180.26 297.869 2180.26 297.738 Z" fill="#000000" fill-rule="nonzero" fill-opacity="1" /><path clip-path="url(#clip150)" d="M2233.45 320.725 Q2233.45 321.053 2233.24 321.826 L2228.65 340.143 Q2227.64 344.218 2224.36 347.076 Q2221.1 349.933 2217.4 349.933 Q2215.18 349.933 2213.75 348.739 Q2212.32 347.567 2212.32 345.764 Q2212.32 344.171 2213.16 343.398 Q2214.01 342.649 2215.01 342.649 Q2215.34 342.649 2215.69 342.742 Q2216.05 342.836 2216.42 343.234 Q2216.79 343.632 2216.79 344.312 Q2216.79 345.413 2215.83 346.279 Q2215.37 346.677 2214.92 346.771 Q2214.5 346.865 2213.77 346.865 Q2214.05 347.521 2214.57 347.966 Q2215.08 348.411 2215.67 348.575 Q2216.26 348.762 2216.63 348.809 Q2217.03 348.879 2217.4 348.879 Q2220.4 348.879 2222.7 345.858 Q2223.38 344.944 2223.87 344.031 Q2224.38 343.141 2224.76 342.04 Q2225.13 340.962 2225.3 340.377 Q2225.48 339.791 2225.81 338.456 Q2223.63 340.634 2220.96 340.634 Q2219.84 340.634 2218.83 340.33 Q2217.85 340.025 2216.98 339.393 Q2216.12 338.737 2215.6 337.589 Q2215.11 336.442 2215.11 334.919 Q2215.11 333.303 2215.74 331.101 Q2216.37 328.9 2217.9 324.848 Q2218.72 322.576 2218.72 321.475 Q2218.72 320.936 2218.6 320.608 Q2218.48 320.257 2218.25 320.14 Q2218.01 319.999 2217.87 319.976 Q2217.76 319.952 2217.52 319.952 Q2216.14 319.952 2214.85 321.358 Q2213.56 322.763 2212.67 325.902 Q2212.48 326.487 2212.37 326.628 Q2212.25 326.768 2211.9 326.768 Q2211.31 326.745 2211.31 326.276 Q2211.31 326.089 2211.52 325.363 Q2211.74 324.613 2212.23 323.513 Q2212.74 322.388 2213.45 321.381 Q2214.15 320.351 2215.25 319.624 Q2216.37 318.898 2217.66 318.898 Q2219.42 318.898 2220.5 320.046 Q2221.6 321.17 2221.6 322.833 Q2221.6 323.513 2221.41 324.122 Q2221.24 324.707 2220.64 326.276 Q2218.18 332.6 2218.18 335.692 Q2218.18 336.442 2218.29 337.074 Q2218.43 337.683 2218.74 338.292 Q2219.04 338.878 2219.65 339.229 Q2220.28 339.557 2221.15 339.557 Q2222.25 339.557 2223.28 339.042 Q2224.34 338.503 2224.99 337.777 Q2225.67 337.051 2226.07 336.442 Q2226.49 335.809 2226.59 335.481 L2228.74 326.862 L2229.7 323.021 Q2230.15 320.936 2230.36 320.421 Q2230.64 319.929 2231.13 319.671 Q2231.62 319.414 2232.04 319.414 Q2232.63 319.414 2233.03 319.765 Q2233.45 320.116 2233.45 320.725 Z" fill="#000000" fill-rule="nonzero" fill-opacity="1" /></svg>
