<?xml version="1.0" encoding="utf-8"?>
<svg xmlns="http://www.w3.org/2000/svg" xmlns:xlink="http://www.w3.org/1999/xlink" width="600" height="375" viewBox="0 0 2400 1500">
<defs>
  <clipPath id="clip190">
    <rect x="0" y="0" width="2400" height="1500"/>
  </clipPath>
</defs>
<path clip-path="url(#clip190)" d="M0 1500 L2400 1500 L2400 0 L0 0  Z" fill="#ffffff" fill-rule="evenodd" fill-opacity="1"/>
<defs>
  <clipPath id="clip191">
    <rect x="480" y="0" width="1681" height="1500"/>
  </clipPath>
</defs>
<path clip-path="url(#clip190)" d="M208.355 1329.31 L2352.76 1329.31 L2352.76 47.2441 L208.355 47.2441  Z" fill="#ffffff" fill-rule="evenodd" fill-opacity="1"/>
<defs>
  <clipPath id="clip192">
    <rect x="208" y="47" width="2145" height="1283"/>
  </clipPath>
</defs>
<polyline clip-path="url(#clip192)" style="stroke:#000000; stroke-linecap:round; stroke-linejoin:round; stroke-width:2; stroke-opacity:0.1; fill:none" points="208.355,1329.31 208.355,47.2441 "/>
<polyline clip-path="url(#clip192)" style="stroke:#000000; stroke-linecap:round; stroke-linejoin:round; stroke-width:2; stroke-opacity:0.1; fill:none" points="637.235,1329.31 637.235,47.2441 "/>
<polyline clip-path="url(#clip192)" style="stroke:#000000; stroke-linecap:round; stroke-linejoin:round; stroke-width:2; stroke-opacity:0.1; fill:none" points="1066.12,1329.31 1066.12,47.2441 "/>
<polyline clip-path="url(#clip192)" style="stroke:#000000; stroke-linecap:round; stroke-linejoin:round; stroke-width:2; stroke-opacity:0.1; fill:none" points="1495,1329.31 1495,47.2441 "/>
<polyline clip-path="url(#clip192)" style="stroke:#000000; stroke-linecap:round; stroke-linejoin:round; stroke-width:2; stroke-opacity:0.1; fill:none" points="1923.88,1329.31 1923.88,47.2441 "/>
<polyline clip-path="url(#clip192)" style="stroke:#000000; stroke-linecap:round; stroke-linejoin:round; stroke-width:2; stroke-opacity:0.1; fill:none" points="2352.76,1329.31 2352.76,47.2441 "/>
<polyline clip-path="url(#clip192)" style="stroke:#000000; stroke-linecap:round; stroke-linejoin:round; stroke-width:2; stroke-opacity:0.1; fill:none" points="208.355,1329.31 2352.76,1329.31 "/>
<polyline clip-path="url(#clip192)" style="stroke:#000000; stroke-linecap:round; stroke-linejoin:round; stroke-width:2; stroke-opacity:0.1; fill:none" points="208.355,1115.63 2352.76,1115.63 "/>
<polyline clip-path="url(#clip192)" style="stroke:#000000; stroke-linecap:round; stroke-linejoin:round; stroke-width:2; stroke-opacity:0.1; fill:none" points="208.355,901.955 2352.76,901.955 "/>
<polyline clip-path="url(#clip192)" style="stroke:#000000; stroke-linecap:round; stroke-linejoin:round; stroke-width:2; stroke-opacity:0.1; fill:none" points="208.355,688.277 2352.76,688.277 "/>
<polyline clip-path="url(#clip192)" style="stroke:#000000; stroke-linecap:round; stroke-linejoin:round; stroke-width:2; stroke-opacity:0.1; fill:none" points="208.355,474.599 2352.76,474.599 "/>
<polyline clip-path="url(#clip192)" style="stroke:#000000; stroke-linecap:round; stroke-linejoin:round; stroke-width:2; stroke-opacity:0.1; fill:none" points="208.355,260.922 2352.76,260.922 "/>
<polyline clip-path="url(#clip192)" style="stroke:#000000; stroke-linecap:round; stroke-linejoin:round; stroke-width:2; stroke-opacity:0.1; fill:none" points="208.355,47.2441 2352.76,47.2441 "/>
<polyline clip-path="url(#clip190)" style="stroke:#000000; stroke-linecap:round; stroke-linejoin:round; stroke-width:4; stroke-opacity:1; fill:none" points="208.355,1329.31 2352.76,1329.31 "/>
<polyline clip-path="url(#clip190)" style="stroke:#000000; stroke-linecap:round; stroke-linejoin:round; stroke-width:4; stroke-opacity:1; fill:none" points="208.355,1329.31 208.355,1310.41 "/>
<polyline clip-path="url(#clip190)" style="stroke:#000000; stroke-linecap:round; stroke-linejoin:round; stroke-width:4; stroke-opacity:1; fill:none" points="637.235,1329.31 637.235,1310.41 "/>
<polyline clip-path="url(#clip190)" style="stroke:#000000; stroke-linecap:round; stroke-linejoin:round; stroke-width:4; stroke-opacity:1; fill:none" points="1066.12,1329.31 1066.12,1310.41 "/>
<polyline clip-path="url(#clip190)" style="stroke:#000000; stroke-linecap:round; stroke-linejoin:round; stroke-width:4; stroke-opacity:1; fill:none" points="1495,1329.31 1495,1310.41 "/>
<polyline clip-path="url(#clip190)" style="stroke:#000000; stroke-linecap:round; stroke-linejoin:round; stroke-width:4; stroke-opacity:1; fill:none" points="1923.88,1329.31 1923.88,1310.41 "/>
<polyline clip-path="url(#clip190)" style="stroke:#000000; stroke-linecap:round; stroke-linejoin:round; stroke-width:4; stroke-opacity:1; fill:none" points="2352.76,1329.31 2352.76,1310.41 "/>
<path clip-path="url(#clip190)" d="M185.739 1360.23 Q182.128 1360.23 180.299 1363.79 Q178.494 1367.33 178.494 1374.46 Q178.494 1381.57 180.299 1385.14 Q182.128 1388.68 185.739 1388.68 Q189.373 1388.68 191.179 1385.14 Q193.008 1381.57 193.008 1374.46 Q193.008 1367.33 191.179 1363.79 Q189.373 1360.23 185.739 1360.23 M185.739 1356.52 Q191.549 1356.52 194.605 1361.13 Q197.683 1365.71 197.683 1374.46 Q197.683 1383.19 194.605 1387.8 Q191.549 1392.38 185.739 1392.38 Q179.929 1392.38 176.85 1387.8 Q173.795 1383.19 173.795 1374.46 Q173.795 1365.71 176.85 1361.13 Q179.929 1356.52 185.739 1356.52 Z" fill="#000000" fill-rule="nonzero" fill-opacity="1" /><path clip-path="url(#clip190)" d="M205.901 1385.83 L210.785 1385.83 L210.785 1391.71 L205.901 1391.71 L205.901 1385.83 Z" fill="#000000" fill-rule="nonzero" fill-opacity="1" /><path clip-path="url(#clip190)" d="M230.97 1360.23 Q227.359 1360.23 225.53 1363.79 Q223.725 1367.33 223.725 1374.46 Q223.725 1381.57 225.53 1385.14 Q227.359 1388.68 230.97 1388.68 Q234.605 1388.68 236.41 1385.14 Q238.239 1381.57 238.239 1374.46 Q238.239 1367.33 236.41 1363.79 Q234.605 1360.23 230.97 1360.23 M230.97 1356.52 Q236.78 1356.52 239.836 1361.13 Q242.915 1365.71 242.915 1374.46 Q242.915 1383.19 239.836 1387.8 Q236.78 1392.38 230.97 1392.38 Q225.16 1392.38 222.081 1387.8 Q219.026 1383.19 219.026 1374.46 Q219.026 1365.71 222.081 1361.13 Q225.16 1356.52 230.97 1356.52 Z" fill="#000000" fill-rule="nonzero" fill-opacity="1" /><path clip-path="url(#clip190)" d="M615.418 1360.23 Q611.807 1360.23 609.978 1363.79 Q608.173 1367.33 608.173 1374.46 Q608.173 1381.57 609.978 1385.14 Q611.807 1388.68 615.418 1388.68 Q619.052 1388.68 620.858 1385.14 Q622.686 1381.57 622.686 1374.46 Q622.686 1367.33 620.858 1363.79 Q619.052 1360.23 615.418 1360.23 M615.418 1356.52 Q621.228 1356.52 624.284 1361.13 Q627.362 1365.71 627.362 1374.46 Q627.362 1383.19 624.284 1387.8 Q621.228 1392.38 615.418 1392.38 Q609.608 1392.38 606.529 1387.8 Q603.474 1383.19 603.474 1374.46 Q603.474 1365.71 606.529 1361.13 Q609.608 1356.52 615.418 1356.52 Z" fill="#000000" fill-rule="nonzero" fill-opacity="1" /><path clip-path="url(#clip190)" d="M635.58 1385.83 L640.464 1385.83 L640.464 1391.71 L635.58 1391.71 L635.58 1385.83 Z" fill="#000000" fill-rule="nonzero" fill-opacity="1" /><path clip-path="url(#clip190)" d="M654.677 1387.77 L670.996 1387.77 L670.996 1391.71 L649.052 1391.71 L649.052 1387.77 Q651.714 1385.02 656.297 1380.39 Q660.904 1375.74 662.084 1374.4 Q664.33 1371.87 665.209 1370.14 Q666.112 1368.38 666.112 1366.69 Q666.112 1363.93 664.168 1362.2 Q662.246 1360.46 659.145 1360.46 Q656.945 1360.46 654.492 1361.22 Q652.061 1361.99 649.283 1363.54 L649.283 1358.82 Q652.108 1357.68 654.561 1357.1 Q657.015 1356.52 659.052 1356.52 Q664.422 1356.52 667.617 1359.21 Q670.811 1361.9 670.811 1366.39 Q670.811 1368.52 670.001 1370.44 Q669.214 1372.33 667.107 1374.93 Q666.529 1375.6 663.427 1378.82 Q660.325 1382.01 654.677 1387.77 Z" fill="#000000" fill-rule="nonzero" fill-opacity="1" /><path clip-path="url(#clip190)" d="M1043.26 1360.23 Q1039.65 1360.23 1037.82 1363.79 Q1036.01 1367.33 1036.01 1374.46 Q1036.01 1381.57 1037.82 1385.14 Q1039.65 1388.68 1043.26 1388.68 Q1046.89 1388.68 1048.7 1385.14 Q1050.52 1381.57 1050.52 1374.46 Q1050.52 1367.33 1048.7 1363.79 Q1046.89 1360.23 1043.26 1360.23 M1043.26 1356.52 Q1049.07 1356.52 1052.12 1361.13 Q1055.2 1365.71 1055.2 1374.46 Q1055.2 1383.19 1052.12 1387.8 Q1049.07 1392.38 1043.26 1392.38 Q1037.45 1392.38 1034.37 1387.8 Q1031.31 1383.19 1031.31 1374.46 Q1031.31 1365.71 1034.37 1361.13 Q1037.45 1356.52 1043.26 1356.52 Z" fill="#000000" fill-rule="nonzero" fill-opacity="1" /><path clip-path="url(#clip190)" d="M1063.42 1385.83 L1068.3 1385.83 L1068.3 1391.71 L1063.42 1391.71 L1063.42 1385.83 Z" fill="#000000" fill-rule="nonzero" fill-opacity="1" /><path clip-path="url(#clip190)" d="M1091.33 1361.22 L1079.53 1379.67 L1091.33 1379.67 L1091.33 1361.22 M1090.11 1357.15 L1095.99 1357.15 L1095.99 1379.67 L1100.92 1379.67 L1100.92 1383.56 L1095.99 1383.56 L1095.99 1391.71 L1091.33 1391.71 L1091.33 1383.56 L1075.73 1383.56 L1075.73 1379.05 L1090.11 1357.15 Z" fill="#000000" fill-rule="nonzero" fill-opacity="1" /><path clip-path="url(#clip190)" d="M1472.3 1360.23 Q1468.69 1360.23 1466.86 1363.79 Q1465.05 1367.33 1465.05 1374.46 Q1465.05 1381.57 1466.86 1385.14 Q1468.69 1388.68 1472.3 1388.68 Q1475.93 1388.68 1477.74 1385.14 Q1479.57 1381.57 1479.57 1374.46 Q1479.57 1367.33 1477.74 1363.79 Q1475.93 1360.23 1472.3 1360.23 M1472.3 1356.52 Q1478.11 1356.52 1481.16 1361.13 Q1484.24 1365.71 1484.24 1374.46 Q1484.24 1383.19 1481.16 1387.8 Q1478.11 1392.38 1472.3 1392.38 Q1466.49 1392.38 1463.41 1387.8 Q1460.35 1383.19 1460.35 1374.46 Q1460.35 1365.71 1463.41 1361.13 Q1466.49 1356.52 1472.3 1356.52 Z" fill="#000000" fill-rule="nonzero" fill-opacity="1" /><path clip-path="url(#clip190)" d="M1492.46 1385.83 L1497.34 1385.83 L1497.34 1391.71 L1492.46 1391.71 L1492.46 1385.83 Z" fill="#000000" fill-rule="nonzero" fill-opacity="1" /><path clip-path="url(#clip190)" d="M1518.11 1372.57 Q1514.96 1372.57 1513.11 1374.72 Q1511.28 1376.87 1511.28 1380.62 Q1511.28 1384.35 1513.11 1386.52 Q1514.96 1388.68 1518.11 1388.68 Q1521.26 1388.68 1523.09 1386.52 Q1524.94 1384.35 1524.94 1380.62 Q1524.94 1376.87 1523.09 1374.72 Q1521.26 1372.57 1518.11 1372.57 M1527.39 1357.91 L1527.39 1362.17 Q1525.63 1361.34 1523.83 1360.9 Q1522.04 1360.46 1520.28 1360.46 Q1515.66 1360.46 1513.2 1363.58 Q1510.77 1366.71 1510.42 1373.03 Q1511.79 1371.02 1513.85 1369.95 Q1515.91 1368.86 1518.39 1368.86 Q1523.59 1368.86 1526.6 1372.03 Q1529.64 1375.18 1529.64 1380.62 Q1529.64 1385.95 1526.49 1389.16 Q1523.34 1392.38 1518.11 1392.38 Q1512.11 1392.38 1508.94 1387.8 Q1505.77 1383.19 1505.77 1374.46 Q1505.77 1366.27 1509.66 1361.41 Q1513.55 1356.52 1520.1 1356.52 Q1521.86 1356.52 1523.64 1356.87 Q1525.45 1357.22 1527.39 1357.91 Z" fill="#000000" fill-rule="nonzero" fill-opacity="1" /><path clip-path="url(#clip190)" d="M1901.31 1360.23 Q1897.7 1360.23 1895.87 1363.79 Q1894.06 1367.33 1894.06 1374.46 Q1894.06 1381.57 1895.87 1385.14 Q1897.7 1388.68 1901.31 1388.68 Q1904.94 1388.68 1906.75 1385.14 Q1908.57 1381.57 1908.57 1374.46 Q1908.57 1367.33 1906.75 1363.79 Q1904.94 1360.23 1901.31 1360.23 M1901.31 1356.52 Q1907.12 1356.52 1910.17 1361.13 Q1913.25 1365.71 1913.25 1374.46 Q1913.25 1383.19 1910.17 1387.8 Q1907.12 1392.38 1901.31 1392.38 Q1895.5 1392.38 1892.42 1387.8 Q1889.36 1383.19 1889.36 1374.46 Q1889.36 1365.71 1892.42 1361.13 Q1895.5 1356.52 1901.31 1356.52 Z" fill="#000000" fill-rule="nonzero" fill-opacity="1" /><path clip-path="url(#clip190)" d="M1921.47 1385.83 L1926.35 1385.83 L1926.35 1391.71 L1921.47 1391.71 L1921.47 1385.83 Z" fill="#000000" fill-rule="nonzero" fill-opacity="1" /><path clip-path="url(#clip190)" d="M1946.54 1375.3 Q1943.2 1375.3 1941.28 1377.08 Q1939.38 1378.86 1939.38 1381.99 Q1939.38 1385.11 1941.28 1386.9 Q1943.2 1388.68 1946.54 1388.68 Q1949.87 1388.68 1951.79 1386.9 Q1953.71 1385.09 1953.71 1381.99 Q1953.71 1378.86 1951.79 1377.08 Q1949.89 1375.3 1946.54 1375.3 M1941.86 1373.31 Q1938.85 1372.57 1937.16 1370.51 Q1935.5 1368.45 1935.5 1365.48 Q1935.5 1361.34 1938.44 1358.93 Q1941.4 1356.52 1946.54 1356.52 Q1951.7 1356.52 1954.64 1358.93 Q1957.58 1361.34 1957.58 1365.48 Q1957.58 1368.45 1955.89 1370.51 Q1954.22 1372.57 1951.24 1373.31 Q1954.62 1374.09 1956.49 1376.39 Q1958.39 1378.68 1958.39 1381.99 Q1958.39 1387.01 1955.31 1389.7 Q1952.26 1392.38 1946.54 1392.38 Q1940.82 1392.38 1937.74 1389.7 Q1934.69 1387.01 1934.69 1381.99 Q1934.69 1378.68 1936.58 1376.39 Q1938.48 1374.09 1941.86 1373.31 M1940.15 1365.92 Q1940.15 1368.61 1941.82 1370.11 Q1943.51 1371.62 1946.54 1371.62 Q1949.55 1371.62 1951.24 1370.11 Q1952.95 1368.61 1952.95 1365.92 Q1952.95 1363.24 1951.24 1361.73 Q1949.55 1360.23 1946.54 1360.23 Q1943.51 1360.23 1941.82 1361.73 Q1940.15 1363.24 1940.15 1365.92 Z" fill="#000000" fill-rule="nonzero" fill-opacity="1" /><path clip-path="url(#clip190)" d="M2319.91 1387.77 L2327.55 1387.77 L2327.55 1361.41 L2319.24 1363.08 L2319.24 1358.82 L2327.5 1357.15 L2332.18 1357.15 L2332.18 1387.77 L2339.82 1387.77 L2339.82 1391.71 L2319.91 1391.71 L2319.91 1387.77 Z" fill="#000000" fill-rule="nonzero" fill-opacity="1" /><path clip-path="url(#clip190)" d="M2349.26 1385.83 L2354.14 1385.83 L2354.14 1391.71 L2349.26 1391.71 L2349.26 1385.83 Z" fill="#000000" fill-rule="nonzero" fill-opacity="1" /><path clip-path="url(#clip190)" d="M2374.33 1360.23 Q2370.72 1360.23 2368.89 1363.79 Q2367.08 1367.33 2367.08 1374.46 Q2367.08 1381.57 2368.89 1385.14 Q2370.72 1388.68 2374.33 1388.68 Q2377.96 1388.68 2379.77 1385.14 Q2381.6 1381.57 2381.6 1374.46 Q2381.6 1367.33 2379.77 1363.79 Q2377.96 1360.23 2374.33 1360.23 M2374.33 1356.52 Q2380.14 1356.52 2383.2 1361.13 Q2386.27 1365.71 2386.27 1374.46 Q2386.27 1383.19 2383.2 1387.8 Q2380.14 1392.38 2374.33 1392.38 Q2368.52 1392.38 2365.44 1387.8 Q2362.39 1383.19 2362.39 1374.46 Q2362.39 1365.71 2365.44 1361.13 Q2368.52 1356.52 2374.33 1356.52 Z" fill="#000000" fill-rule="nonzero" fill-opacity="1" /><path clip-path="url(#clip190)" d="M1166.05 1431.94 L1166.05 1449.79 L1174.14 1449.79 Q1178.62 1449.79 1181.08 1447.47 Q1183.53 1445.15 1183.53 1440.85 Q1183.53 1436.58 1181.08 1434.26 Q1178.62 1431.94 1174.14 1431.94 L1166.05 1431.94 M1159.62 1426.65 L1174.14 1426.65 Q1182.13 1426.65 1186.2 1430.28 Q1190.31 1433.88 1190.31 1440.85 Q1190.31 1447.88 1186.2 1451.48 Q1182.13 1455.08 1174.14 1455.08 L1166.05 1455.08 L1166.05 1474.17 L1159.62 1474.17 L1159.62 1426.65 Z" fill="#000000" fill-rule="nonzero" fill-opacity="1" /><path clip-path="url(#clip190)" d="M1210.17 1442.63 Q1205.46 1442.63 1202.72 1446.32 Q1199.98 1449.98 1199.98 1456.38 Q1199.98 1462.78 1202.69 1466.47 Q1205.42 1470.13 1210.17 1470.13 Q1214.85 1470.13 1217.58 1466.44 Q1220.32 1462.75 1220.32 1456.38 Q1220.32 1450.05 1217.58 1446.36 Q1214.85 1442.63 1210.17 1442.63 M1210.17 1437.67 Q1217.81 1437.67 1222.17 1442.63 Q1226.53 1447.6 1226.53 1456.38 Q1226.53 1465.13 1222.17 1470.13 Q1217.81 1475.1 1210.17 1475.1 Q1202.5 1475.1 1198.14 1470.13 Q1193.81 1465.13 1193.81 1456.38 Q1193.81 1447.6 1198.14 1442.63 Q1202.5 1437.67 1210.17 1437.67 Z" fill="#000000" fill-rule="nonzero" fill-opacity="1" /><path clip-path="url(#clip190)" d="M1258.96 1439.58 L1258.96 1445.11 Q1256.48 1443.84 1253.8 1443.2 Q1251.13 1442.57 1248.27 1442.57 Q1243.9 1442.57 1241.71 1443.9 Q1239.54 1445.24 1239.54 1447.92 Q1239.54 1449.95 1241.1 1451.13 Q1242.66 1452.28 1247.37 1453.33 L1249.38 1453.77 Q1255.62 1455.11 1258.23 1457.56 Q1260.87 1459.98 1260.87 1464.34 Q1260.87 1469.3 1256.92 1472.2 Q1253.01 1475.1 1246.13 1475.1 Q1243.27 1475.1 1240.15 1474.52 Q1237.06 1473.98 1233.62 1472.87 L1233.62 1466.82 Q1236.87 1468.51 1240.02 1469.37 Q1243.17 1470.2 1246.26 1470.2 Q1250.4 1470.2 1252.63 1468.79 Q1254.85 1467.36 1254.85 1464.78 Q1254.85 1462.4 1253.23 1461.12 Q1251.64 1459.85 1246.2 1458.67 L1244.16 1458.2 Q1238.72 1457.05 1236.3 1454.69 Q1233.88 1452.31 1233.88 1448.17 Q1233.88 1443.14 1237.44 1440.4 Q1241.01 1437.67 1247.57 1437.67 Q1250.81 1437.67 1253.68 1438.14 Q1256.54 1438.62 1258.96 1439.58 Z" fill="#000000" fill-rule="nonzero" fill-opacity="1" /><path clip-path="url(#clip190)" d="M1270.2 1438.53 L1276.05 1438.53 L1276.05 1474.17 L1270.2 1474.17 L1270.2 1438.53 M1270.2 1424.65 L1276.05 1424.65 L1276.05 1432.06 L1270.2 1432.06 L1270.2 1424.65 Z" fill="#000000" fill-rule="nonzero" fill-opacity="1" /><path clip-path="url(#clip190)" d="M1294.1 1428.4 L1294.1 1438.53 L1306.16 1438.53 L1306.16 1443.08 L1294.1 1443.08 L1294.1 1462.43 Q1294.1 1466.79 1295.28 1468.03 Q1296.49 1469.27 1300.15 1469.27 L1306.16 1469.27 L1306.16 1474.17 L1300.15 1474.17 Q1293.37 1474.17 1290.79 1471.66 Q1288.21 1469.11 1288.21 1462.43 L1288.21 1443.08 L1283.91 1443.08 L1283.91 1438.53 L1288.21 1438.53 L1288.21 1428.4 L1294.1 1428.4 Z" fill="#000000" fill-rule="nonzero" fill-opacity="1" /><path clip-path="url(#clip190)" d="M1313.86 1438.53 L1319.72 1438.53 L1319.72 1474.17 L1313.86 1474.17 L1313.86 1438.53 M1313.86 1424.65 L1319.72 1424.65 L1319.72 1432.06 L1313.86 1432.06 L1313.86 1424.65 Z" fill="#000000" fill-rule="nonzero" fill-opacity="1" /><path clip-path="url(#clip190)" d="M1345.79 1442.63 Q1341.08 1442.63 1338.34 1446.32 Q1335.6 1449.98 1335.6 1456.38 Q1335.6 1462.78 1338.31 1466.47 Q1341.05 1470.13 1345.79 1470.13 Q1350.47 1470.13 1353.2 1466.44 Q1355.94 1462.75 1355.94 1456.38 Q1355.94 1450.05 1353.2 1446.36 Q1350.47 1442.63 1345.79 1442.63 M1345.79 1437.67 Q1353.43 1437.67 1357.79 1442.63 Q1362.15 1447.6 1362.15 1456.38 Q1362.15 1465.13 1357.79 1470.13 Q1353.43 1475.1 1345.79 1475.1 Q1338.12 1475.1 1333.76 1470.13 Q1329.43 1465.13 1329.43 1456.38 Q1329.43 1447.6 1333.76 1442.63 Q1338.12 1437.67 1345.79 1437.67 Z" fill="#000000" fill-rule="nonzero" fill-opacity="1" /><path clip-path="url(#clip190)" d="M1401.49 1452.66 L1401.49 1474.17 L1395.63 1474.17 L1395.63 1452.85 Q1395.63 1447.79 1393.66 1445.27 Q1391.68 1442.76 1387.74 1442.76 Q1383 1442.76 1380.26 1445.78 Q1377.52 1448.81 1377.52 1454.03 L1377.52 1474.17 L1371.63 1474.17 L1371.63 1438.53 L1377.52 1438.53 L1377.52 1444.06 Q1379.62 1440.85 1382.45 1439.26 Q1385.32 1437.67 1389.04 1437.67 Q1395.19 1437.67 1398.34 1441.49 Q1401.49 1445.27 1401.49 1452.66 Z" fill="#000000" fill-rule="nonzero" fill-opacity="1" /><polyline clip-path="url(#clip190)" style="stroke:#000000; stroke-linecap:round; stroke-linejoin:round; stroke-width:4; stroke-opacity:1; fill:none" points="208.355,1329.31 208.355,47.2441 "/>
<polyline clip-path="url(#clip190)" style="stroke:#000000; stroke-linecap:round; stroke-linejoin:round; stroke-width:4; stroke-opacity:1; fill:none" points="208.355,1329.31 227.252,1329.31 "/>
<polyline clip-path="url(#clip190)" style="stroke:#000000; stroke-linecap:round; stroke-linejoin:round; stroke-width:4; stroke-opacity:1; fill:none" points="208.355,1115.63 227.252,1115.63 "/>
<polyline clip-path="url(#clip190)" style="stroke:#000000; stroke-linecap:round; stroke-linejoin:round; stroke-width:4; stroke-opacity:1; fill:none" points="208.355,901.955 227.252,901.955 "/>
<polyline clip-path="url(#clip190)" style="stroke:#000000; stroke-linecap:round; stroke-linejoin:round; stroke-width:4; stroke-opacity:1; fill:none" points="208.355,688.277 227.252,688.277 "/>
<polyline clip-path="url(#clip190)" style="stroke:#000000; stroke-linecap:round; stroke-linejoin:round; stroke-width:4; stroke-opacity:1; fill:none" points="208.355,474.599 227.252,474.599 "/>
<polyline clip-path="url(#clip190)" style="stroke:#000000; stroke-linecap:round; stroke-linejoin:round; stroke-width:4; stroke-opacity:1; fill:none" points="208.355,260.922 227.252,260.922 "/>
<polyline clip-path="url(#clip190)" style="stroke:#000000; stroke-linecap:round; stroke-linejoin:round; stroke-width:4; stroke-opacity:1; fill:none" points="208.355,47.2441 227.252,47.2441 "/>
<path clip-path="url(#clip190)" d="M111.29 1329.76 L140.966 1329.76 L140.966 1333.7 L111.29 1333.7 L111.29 1329.76 Z" fill="#000000" fill-rule="nonzero" fill-opacity="1" /><path clip-path="url(#clip190)" d="M165.225 1327.96 Q168.582 1328.67 170.457 1330.94 Q172.355 1333.21 172.355 1336.54 Q172.355 1341.66 168.836 1344.46 Q165.318 1347.26 158.836 1347.26 Q156.66 1347.26 154.345 1346.82 Q152.054 1346.4 149.6 1345.55 L149.6 1341.03 Q151.545 1342.17 153.859 1342.75 Q156.174 1343.33 158.697 1343.33 Q163.095 1343.33 165.387 1341.59 Q167.702 1339.85 167.702 1336.54 Q167.702 1333.49 165.549 1331.78 Q163.42 1330.04 159.6 1330.04 L155.572 1330.04 L155.572 1326.2 L159.785 1326.2 Q163.234 1326.2 165.063 1324.83 Q166.892 1323.44 166.892 1320.85 Q166.892 1318.19 164.994 1316.78 Q163.119 1315.34 159.6 1315.34 Q157.679 1315.34 155.48 1315.76 Q153.281 1316.17 150.642 1317.05 L150.642 1312.89 Q153.304 1312.15 155.619 1311.78 Q157.957 1311.4 160.017 1311.4 Q165.341 1311.4 168.443 1313.84 Q171.544 1316.24 171.544 1320.36 Q171.544 1323.23 169.901 1325.22 Q168.257 1327.19 165.225 1327.96 Z" fill="#000000" fill-rule="nonzero" fill-opacity="1" /><path clip-path="url(#clip190)" d="M112.239 1116.08 L141.915 1116.08 L141.915 1120.02 L112.239 1120.02 L112.239 1116.08 Z" fill="#000000" fill-rule="nonzero" fill-opacity="1" /><path clip-path="url(#clip190)" d="M156.035 1128.98 L172.355 1128.98 L172.355 1132.91 L150.41 1132.91 L150.41 1128.98 Q153.072 1126.22 157.656 1121.59 Q162.262 1116.94 163.443 1115.6 Q165.688 1113.07 166.568 1111.34 Q167.47 1109.58 167.47 1107.89 Q167.47 1105.13 165.526 1103.4 Q163.605 1101.66 160.503 1101.66 Q158.304 1101.66 155.85 1102.43 Q153.42 1103.19 150.642 1104.74 L150.642 1100.02 Q153.466 1098.88 155.92 1098.31 Q158.373 1097.73 160.41 1097.73 Q165.781 1097.73 168.975 1100.41 Q172.169 1103.1 172.169 1107.59 Q172.169 1109.72 171.359 1111.64 Q170.572 1113.54 168.466 1116.13 Q167.887 1116.8 164.785 1120.02 Q161.683 1123.21 156.035 1128.98 Z" fill="#000000" fill-rule="nonzero" fill-opacity="1" /><path clip-path="url(#clip190)" d="M111.869 902.406 L141.545 902.406 L141.545 906.341 L111.869 906.341 L111.869 902.406 Z" fill="#000000" fill-rule="nonzero" fill-opacity="1" /><path clip-path="url(#clip190)" d="M152.447 915.299 L160.086 915.299 L160.086 888.934 L151.776 890.6 L151.776 886.341 L160.04 884.675 L164.716 884.675 L164.716 915.299 L172.355 915.299 L172.355 919.235 L152.447 919.235 L152.447 915.299 Z" fill="#000000" fill-rule="nonzero" fill-opacity="1" /><path clip-path="url(#clip190)" d="M160.41 674.076 Q156.799 674.076 154.97 677.64 Q153.165 681.182 153.165 688.312 Q153.165 695.418 154.97 698.983 Q156.799 702.525 160.41 702.525 Q164.045 702.525 165.85 698.983 Q167.679 695.418 167.679 688.312 Q167.679 681.182 165.85 677.64 Q164.045 674.076 160.41 674.076 M160.41 670.372 Q166.22 670.372 169.276 674.978 Q172.355 679.562 172.355 688.312 Q172.355 697.038 169.276 701.645 Q166.22 706.228 160.41 706.228 Q154.6 706.228 151.521 701.645 Q148.466 697.038 148.466 688.312 Q148.466 679.562 151.521 674.978 Q154.6 670.372 160.41 670.372 Z" fill="#000000" fill-rule="nonzero" fill-opacity="1" /><path clip-path="url(#clip190)" d="M152.447 487.944 L160.086 487.944 L160.086 461.579 L151.776 463.245 L151.776 458.986 L160.04 457.319 L164.716 457.319 L164.716 487.944 L172.355 487.944 L172.355 491.879 L152.447 491.879 L152.447 487.944 Z" fill="#000000" fill-rule="nonzero" fill-opacity="1" /><path clip-path="url(#clip190)" d="M156.035 274.267 L172.355 274.267 L172.355 278.202 L150.41 278.202 L150.41 274.267 Q153.072 271.512 157.656 266.882 Q162.262 262.23 163.443 260.887 Q165.688 258.364 166.568 256.628 Q167.47 254.869 167.47 253.179 Q167.47 250.424 165.526 248.688 Q163.605 246.952 160.503 246.952 Q158.304 246.952 155.85 247.716 Q153.42 248.48 150.642 250.031 L150.642 245.308 Q153.466 244.174 155.92 243.595 Q158.373 243.017 160.41 243.017 Q165.781 243.017 168.975 245.702 Q172.169 248.387 172.169 252.878 Q172.169 255.007 171.359 256.929 Q170.572 258.827 168.466 261.419 Q167.887 262.091 164.785 265.308 Q161.683 268.503 156.035 274.267 Z" fill="#000000" fill-rule="nonzero" fill-opacity="1" /><path clip-path="url(#clip190)" d="M165.225 45.8899 Q168.582 46.6075 170.457 48.876 Q172.355 51.1445 172.355 54.4779 Q172.355 59.5936 168.836 62.3945 Q165.318 65.1954 158.836 65.1954 Q156.66 65.1954 154.345 64.7556 Q152.054 64.3389 149.6 63.4824 L149.6 58.9686 Q151.545 60.1028 153.859 60.6815 Q156.174 61.2602 158.697 61.2602 Q163.095 61.2602 165.387 59.5241 Q167.702 57.788 167.702 54.4779 Q167.702 51.4223 165.549 49.7094 Q163.42 47.9733 159.6 47.9733 L155.572 47.9733 L155.572 44.1307 L159.785 44.1307 Q163.234 44.1307 165.063 42.765 Q166.892 41.3761 166.892 38.7835 Q166.892 36.1215 164.994 34.7094 Q163.119 33.2743 159.6 33.2743 Q157.679 33.2743 155.48 33.6909 Q153.281 34.1076 150.642 34.9872 L150.642 30.8206 Q153.304 30.0798 155.619 29.7095 Q157.957 29.3391 160.017 29.3391 Q165.341 29.3391 168.443 31.7696 Q171.544 34.177 171.544 38.2974 Q171.544 41.1677 169.901 43.1585 Q168.257 45.1261 165.225 45.8899 Z" fill="#000000" fill-rule="nonzero" fill-opacity="1" /><path clip-path="url(#clip190)" d="M19.848 831.537 L43.4966 840.258 L43.4966 822.784 L19.848 831.537 M13.5142 835.166 L13.5142 827.877 L61.0342 809.766 L61.0342 816.45 L48.8438 820.779 L48.8438 842.2 L61.0342 846.528 L61.0342 853.308 L13.5142 835.166 Z" fill="#000000" fill-rule="nonzero" fill-opacity="1" /><path clip-path="url(#clip190)" d="M32.2293 775.328 Q28.2826 773.132 26.4047 770.076 Q24.5268 767.021 24.5268 762.883 Q24.5268 757.313 28.4417 754.289 Q32.3248 751.266 39.5181 751.266 L61.0342 751.266 L61.0342 757.154 L39.709 757.154 Q34.5846 757.154 32.102 758.968 Q29.6194 760.782 29.6194 764.506 Q29.6194 769.058 32.6431 771.7 Q35.6668 774.341 40.8867 774.341 L61.0342 774.341 L61.0342 780.23 L39.709 780.23 Q34.5528 780.23 32.102 782.044 Q29.6194 783.858 29.6194 787.646 Q29.6194 792.133 32.6749 794.775 Q35.6986 797.417 40.8867 797.417 L61.0342 797.417 L61.0342 803.305 L25.3862 803.305 L25.3862 797.417 L30.9244 797.417 Q27.646 795.412 26.0864 792.611 Q24.5268 789.81 24.5268 785.959 Q24.5268 782.076 26.5002 779.37 Q28.4736 776.633 32.2293 775.328 Z" fill="#000000" fill-rule="nonzero" fill-opacity="1" /><path clip-path="url(#clip190)" d="M55.687 733.919 L74.5931 733.919 L74.5931 739.807 L25.3862 739.807 L25.3862 733.919 L30.7971 733.919 Q27.6142 732.073 26.0864 729.272 Q24.5268 726.439 24.5268 722.524 Q24.5268 716.031 29.6831 711.989 Q34.8393 707.915 43.242 707.915 Q51.6447 707.915 56.801 711.989 Q61.9572 716.031 61.9572 722.524 Q61.9572 726.439 60.4294 729.272 Q58.8698 732.073 55.687 733.919 M43.242 713.994 Q36.7808 713.994 33.1205 716.668 Q29.4284 719.31 29.4284 723.957 Q29.4284 728.604 33.1205 731.277 Q36.7808 733.919 43.242 733.919 Q49.7032 733.919 53.3953 731.277 Q57.0556 728.604 57.0556 723.957 Q57.0556 719.31 53.3953 716.668 Q49.7032 713.994 43.242 713.994 Z" fill="#000000" fill-rule="nonzero" fill-opacity="1" /><path clip-path="url(#clip190)" d="M11.509 698.207 L11.509 692.351 L61.0342 692.351 L61.0342 698.207 L11.509 698.207 Z" fill="#000000" fill-rule="nonzero" fill-opacity="1" /><path clip-path="url(#clip190)" d="M25.3862 680.097 L25.3862 674.241 L61.0342 674.241 L61.0342 680.097 L25.3862 680.097 M11.509 680.097 L11.509 674.241 L18.925 674.241 L18.925 680.097 L11.509 680.097 Z" fill="#000000" fill-rule="nonzero" fill-opacity="1" /><path clip-path="url(#clip190)" d="M15.2647 656.194 L25.3862 656.194 L25.3862 644.131 L29.9377 644.131 L29.9377 656.194 L49.2894 656.194 Q53.6499 656.194 54.8913 655.016 Q56.1326 653.807 56.1326 650.146 L56.1326 644.131 L61.0342 644.131 L61.0342 650.146 Q61.0342 656.926 58.5197 659.504 Q55.9734 662.082 49.2894 662.082 L29.9377 662.082 L29.9377 666.379 L25.3862 666.379 L25.3862 662.082 L15.2647 662.082 L15.2647 656.194 Z" fill="#000000" fill-rule="nonzero" fill-opacity="1" /><path clip-path="url(#clip190)" d="M46.9659 637.033 L25.3862 637.033 L25.3862 631.177 L46.7431 631.177 Q51.8039 631.177 54.3502 629.203 Q56.8646 627.23 56.8646 623.283 Q56.8646 618.541 53.8409 615.803 Q50.8172 613.034 45.5973 613.034 L25.3862 613.034 L25.3862 607.178 L61.0342 607.178 L61.0342 613.034 L55.5596 613.034 Q58.8062 615.167 60.3976 618 Q61.9572 620.8 61.9572 624.524 Q61.9572 630.667 58.1378 633.85 Q54.3183 637.033 46.9659 637.033 M24.5268 622.296 L24.5268 622.296 Z" fill="#000000" fill-rule="nonzero" fill-opacity="1" /><path clip-path="url(#clip190)" d="M30.7971 571.657 L11.509 571.657 L11.509 565.801 L61.0342 565.801 L61.0342 571.657 L55.687 571.657 Q58.8698 573.503 60.4294 576.336 Q61.9572 579.137 61.9572 583.084 Q61.9572 589.545 56.801 593.619 Q51.6447 597.661 43.242 597.661 Q34.8393 597.661 29.6831 593.619 Q24.5268 589.545 24.5268 583.084 Q24.5268 579.137 26.0864 576.336 Q27.6142 573.503 30.7971 571.657 M43.242 591.614 Q49.7032 591.614 53.3953 588.972 Q57.0556 586.298 57.0556 581.651 Q57.0556 577.004 53.3953 574.331 Q49.7032 571.657 43.242 571.657 Q36.7808 571.657 33.1205 574.331 Q29.4284 577.004 29.4284 581.651 Q29.4284 586.298 33.1205 588.972 Q36.7808 591.614 43.242 591.614 Z" fill="#000000" fill-rule="nonzero" fill-opacity="1" /><path clip-path="url(#clip190)" d="M41.7461 523.246 L44.6106 523.246 L44.6106 550.173 Q50.6581 549.791 53.8409 546.545 Q56.9919 543.266 56.9919 537.442 Q56.9919 534.068 56.1644 530.917 Q55.3369 527.734 53.6818 524.615 L59.2199 524.615 Q60.5567 527.766 61.257 531.076 Q61.9572 534.386 61.9572 537.792 Q61.9572 546.322 56.9919 551.319 Q52.0267 556.284 43.5603 556.284 Q34.8074 556.284 29.6831 551.573 Q24.5268 546.831 24.5268 538.81 Q24.5268 531.617 29.1738 527.447 Q33.7889 523.246 41.7461 523.246 M40.0273 529.102 Q35.2212 529.166 32.3566 531.808 Q29.4921 534.418 29.4921 538.747 Q29.4921 543.648 32.2612 546.608 Q35.0302 549.536 40.0592 549.982 L40.0273 529.102 Z" fill="#000000" fill-rule="nonzero" fill-opacity="1" /><polyline clip-path="url(#clip192)" style="stroke:#000000; stroke-linecap:round; stroke-linejoin:round; stroke-width:4; stroke-opacity:1; fill:none" points="-1936.05,688.277 4497.16,688.277 "/>
<path clip-path="url(#clip192)" d="M1157.34 458.599 L1157.34 490.599 L1189.34 490.599 L1189.34 458.599 L1157.34 458.599 Z" fill="#ffff00" fill-rule="evenodd" fill-opacity="1" stroke="#000000" stroke-opacity="1" stroke-width="3"/>
<path clip-path="url(#clip192)" d="M1264.56 458.599 L1264.56 490.599 L1296.56 490.599 L1296.56 458.599 L1264.56 458.599 Z" fill="#ffff00" fill-rule="evenodd" fill-opacity="1" stroke="#000000" stroke-opacity="1" stroke-width="3"/>
<path clip-path="url(#clip192)" d="M1371.78 885.955 L1371.78 917.955 L1403.78 917.955 L1403.78 885.955 L1371.78 885.955 Z" fill="#ffff00" fill-rule="evenodd" fill-opacity="1" stroke="#000000" stroke-opacity="1" stroke-width="3"/>
<polyline clip-path="url(#clip192)" style="stroke:#800080; stroke-linecap:round; stroke-linejoin:round; stroke-width:4; stroke-opacity:1; fill:none" points="208.355,557.073 210.499,562.555 212.643,568.176 214.788,573.932 216.932,579.816 219.077,585.823 221.221,591.948 223.365,598.183 225.51,604.523 227.654,610.962 229.799,617.491 231.943,624.105 234.087,630.797 236.232,637.56 238.376,644.386 240.521,651.267 242.665,658.198 244.809,665.169 246.954,672.174 249.098,679.205 251.243,686.253 253.387,693.312 255.531,700.372 257.676,707.427 259.82,714.469 261.965,721.488 264.109,728.478 266.253,735.431 268.398,742.337 270.542,749.19 272.687,755.982 274.831,762.704 276.975,769.349 279.12,775.909 281.264,782.377 283.409,788.744 285.553,795.004 287.697,801.148 289.842,807.17 291.986,813.062 294.131,818.818 296.275,824.43 298.419,829.892 300.564,835.197 302.708,840.338 304.853,845.311 306.997,850.107 309.142,854.723 311.286,859.151 313.43,863.387 315.575,867.425 317.719,871.26 319.864,874.888 322.008,878.304 324.152,881.504 326.297,884.483 328.441,887.239 330.586,889.767 332.73,892.064 334.874,894.127 337.019,895.954 339.163,897.542 341.308,898.889 343.452,899.993 345.596,900.853 347.741,901.467 349.885,901.834 352.03,901.955 354.174,901.827 356.318,901.452 358.463,900.829 360.607,899.959 362.752,898.843 364.896,897.482 367.04,895.877 369.185,894.03 371.329,891.944 373.474,889.619 375.618,887.06 377.762,884.268 379.907,881.247 382.051,878.001 384.196,874.533 386.34,870.846 388.484,866.947 390.629,862.837 392.773,858.524 394.918,854.011 397.062,849.304 399.206,844.408 401.351,839.33 403.495,834.074 405.64,828.647 407.784,823.057 409.928,817.308 412.073,811.408 414.217,805.364 416.362,799.182 418.506,792.872 420.65,786.438 422.795,779.89 424.939,773.235 427.084,766.481 429.228,759.636 431.372,752.708 433.517,745.705 435.661,738.635 437.806,731.507 439.95,724.33 442.094,717.111 444.239,709.859 446.383,702.583 448.528,695.291 450.672,687.993 452.816,680.696 454.961,673.409 457.105,666.14 459.25,658.899 461.394,651.694 463.538,644.533 465.683,637.425 467.827,630.378 469.972,623.4 472.116,616.499 474.26,609.684 476.405,602.961 478.549,596.34 480.694,589.828 482.838,583.432 484.982,577.16 487.127,571.019 489.271,565.015 491.416,559.157 493.56,553.45 495.704,547.9 497.849,542.516 499.993,537.301 502.138,532.262 504.282,527.405 506.426,522.736 508.571,518.258 510.715,513.978 512.86,509.9 515.004,506.027 517.148,502.365 519.293,498.917 521.437,495.687 523.582,492.678 525.726,489.893 527.87,487.334 530.015,485.005 532.159,482.907 534.304,481.043 536.448,479.413 538.592,478.019 540.737,476.863 542.881,475.944 545.026,475.263 547.17,474.82 549.314,474.615 551.459,474.647 553.603,474.917 555.748,475.421 557.892,476.16 560.036,477.131 562.181,478.332 564.325,479.761 566.47,481.416 568.614,483.294 570.758,485.391 572.903,487.705 575.047,490.231 577.192,492.965 579.336,495.905 581.48,499.044 583.625,502.379 585.769,505.904 587.914,509.614 590.058,513.505 592.202,517.571 594.347,521.805 596.491,526.202 598.636,530.755 600.78,535.459 602.924,540.307 605.069,545.292 607.213,550.407 609.358,555.646 611.502,561 613.646,566.464 615.791,572.029 617.935,577.689 620.08,583.435 622.224,589.26 624.368,595.155 626.513,601.115 628.657,607.129 630.802,613.191 632.946,619.293 635.09,625.426 637.235,631.583 639.379,637.755 641.524,643.935 643.668,650.114 645.813,656.284 647.957,662.438 650.101,668.568 652.246,674.666 654.39,680.723 656.535,686.733 658.679,692.687 660.823,698.579 662.968,704.4 665.112,710.144 667.257,715.803 669.401,721.369 671.545,726.837 673.69,732.2 675.834,737.45 677.979,742.581 680.123,747.588 682.267,752.463 684.412,757.201 686.556,761.797 688.701,766.244 690.845,770.538 692.989,774.672 695.134,778.643 697.278,782.446 699.423,786.076 701.567,789.529 703.711,792.801 705.856,795.889 708,798.788 710.145,801.496 712.289,804.01 714.433,806.327 716.578,808.444 718.722,810.36 720.867,812.072 723.011,813.579 725.155,814.879 727.3,815.972 729.444,816.856 731.589,817.531 733.733,817.996 735.877,818.252 738.022,818.299 740.166,818.137 742.311,817.766 744.455,817.189 746.599,816.406 748.744,815.418 750.888,814.228 753.033,812.837 755.177,811.249 757.321,809.464 759.466,807.487 761.61,805.319 763.755,802.964 765.899,800.427 768.043,797.709 770.188,794.815 772.332,791.75 774.477,788.517 776.621,785.12 778.765,781.565 780.91,777.856 783.054,773.998 785.199,769.997 787.343,765.857 789.487,761.584 791.632,757.183 793.776,752.661 795.921,748.023 798.065,743.274 800.209,738.421 802.354,733.471 804.498,728.429 806.643,723.301 808.787,718.094 810.931,712.814 813.076,707.468 815.22,702.062 817.365,696.603 819.509,691.098 821.653,685.552 823.798,679.972 825.942,674.366 828.087,668.739 830.231,663.097 832.375,657.449 834.52,651.799 836.664,646.155 838.809,640.522 840.953,634.907 843.097,629.317 845.242,623.756 847.386,618.232 849.531,612.75 851.675,607.316 853.819,601.936 855.964,596.614 858.108,591.358 860.253,586.171 862.397,581.06 864.541,576.028 866.686,571.082 868.83,566.225 870.975,561.463 873.119,556.798 875.263,552.237 877.408,547.782 879.552,543.438 881.697,539.208 883.841,535.095 885.985,531.103 888.13,527.234 890.274,523.492 892.419,519.88 894.563,516.398 896.707,513.05 898.852,509.838 900.996,506.763 903.141,503.827 905.285,501.031 907.429,498.375 909.574,495.862 911.718,493.492 913.863,491.265 916.007,489.181 918.151,487.24 920.296,485.442 922.44,483.787 924.585,482.273 926.729,480.901 928.873,479.668 931.018,478.575 933.162,477.618 935.307,476.797 937.451,476.11 939.595,475.554 941.74,475.127 943.884,474.828 946.029,474.653 948.173,474.6 950.317,474.665 952.462,474.846 954.606,475.139 956.751,475.541 958.895,476.049 961.039,476.659 963.184,477.367 965.328,478.169 967.473,479.061 969.617,480.039 971.761,481.1 973.906,482.238 976.05,483.449 978.195,484.729 980.339,486.073 982.484,487.478 984.628,488.937 986.772,490.447 988.917,492.002 991.061,493.599 993.206,495.232 995.35,496.896 997.494,498.588 999.639,500.301 1001.78,502.032 1003.93,503.775 1006.07,505.527 1008.22,507.281 1010.36,509.035 1012.51,510.782 1014.65,512.519 1016.79,514.242 1018.94,515.945 1021.08,517.626 1023.23,519.278 1025.37,520.899 1027.52,522.485 1029.66,524.031 1031.8,525.535 1033.95,526.991 1036.09,528.397 1038.24,529.75 1040.38,531.046 1042.53,532.282 1044.67,533.456 1046.82,534.564 1048.96,535.604 1051.1,536.573 1053.25,537.47 1055.39,538.292 1057.54,539.037 1059.68,539.703 1061.83,540.29 1063.97,540.795 1066.12,541.217 1068.26,541.556 1070.4,541.811 1072.55,541.98 1074.69,542.065 1076.84,542.063 1078.98,541.976 1081.13,541.803 1083.27,541.546 1085.41,541.203 1087.56,540.777 1089.7,540.268 1091.85,539.677 1093.99,539.006 1096.14,538.256 1098.28,537.429 1100.43,536.527 1102.57,535.551 1104.71,534.504 1106.86,533.389 1109,532.207 1111.15,530.963 1113.29,529.658 1115.44,528.295 1117.58,526.879 1119.73,525.411 1121.87,523.897 1124.01,522.339 1126.16,520.741 1128.3,519.107 1130.45,517.441 1132.59,515.748 1134.74,514.03 1136.88,512.294 1139.02,510.543 1141.17,508.781 1143.31,507.013 1145.46,505.245 1147.6,503.48 1149.75,501.723 1151.89,499.979 1154.04,498.254 1156.18,496.551 1158.32,494.876 1160.47,493.233 1162.61,491.629 1164.76,490.066 1166.9,488.552 1169.05,487.089 1171.19,485.684 1173.34,484.341 1175.48,483.064 1177.62,481.86 1179.77,480.731 1181.91,479.684 1184.06,478.722 1186.2,477.849 1188.35,477.071 1190.49,476.392 1192.63,475.816 1194.78,475.346 1196.92,474.987 1199.07,474.743 1201.21,474.617 1203.36,474.613 1205.5,474.734 1207.65,474.984 1209.79,475.365 1211.93,475.882 1214.08,476.535 1216.22,477.329 1218.37,478.265 1220.51,479.345 1222.66,480.572 1224.8,481.948 1226.95,483.474 1229.09,485.152 1231.23,486.983 1233.38,488.967 1235.52,491.107 1237.67,493.402 1239.81,495.853 1241.96,498.46 1244.1,501.222 1246.24,504.141 1248.39,507.215 1250.53,510.443 1252.68,513.826 1254.82,517.36 1256.97,521.046 1259.11,524.882 1261.26,528.865 1263.4,532.994 1265.54,537.267 1267.69,541.681 1269.83,546.233 1271.98,550.921 1274.12,555.741 1276.27,560.69 1278.41,565.764 1280.56,570.961 1282.7,576.275 1284.84,581.704 1286.99,587.242 1289.13,592.885 1291.28,598.628 1293.42,604.468 1295.57,610.397 1297.71,616.413 1299.85,622.509 1302,628.679 1304.14,634.919 1306.29,641.222 1308.43,647.583 1310.58,653.996 1312.72,660.454 1314.87,666.951 1317.01,673.482 1319.15,680.04 1321.3,686.618 1323.44,693.209 1325.59,699.808 1327.73,706.407 1329.88,713.001 1332.02,719.581 1334.17,726.142 1336.31,732.676 1338.45,739.177 1340.6,745.639 1342.74,752.053 1344.89,758.413 1347.03,764.714 1349.18,770.947 1351.32,777.106 1353.46,783.185 1355.61,789.177 1357.75,795.075 1359.9,800.874 1362.04,806.566 1364.19,812.145 1366.33,817.605 1368.48,822.941 1370.62,828.146 1372.76,833.214 1374.91,838.14 1377.05,842.918 1379.2,847.543 1381.34,852.009 1383.49,856.312 1385.63,860.446 1387.78,864.407 1389.92,868.191 1392.06,871.792 1394.21,875.207 1396.35,878.431 1398.5,881.462 1400.64,884.295 1402.79,886.927 1404.93,889.356 1407.07,891.577 1409.22,893.589 1411.36,895.389 1413.51,896.974 1415.65,898.344 1417.8,899.496 1419.94,900.428 1422.09,901.14 1424.23,901.631 1426.37,901.899 1428.52,901.945 1430.66,901.768 1432.81,901.368 1434.95,900.746 1437.1,899.902 1439.24,898.836 1441.39,897.551 1443.53,896.047 1445.67,894.326 1447.82,892.389 1449.96,890.239 1452.11,887.878 1454.25,885.308 1456.4,882.533 1458.54,879.554 1460.68,876.377 1462.83,873.003 1464.97,869.437 1467.12,865.682 1469.26,861.743 1471.41,857.625 1473.55,853.33 1475.7,848.865 1477.84,844.233 1479.98,839.441 1482.13,834.494 1484.27,829.396 1486.42,824.154 1488.56,818.773 1490.71,813.259 1492.85,807.618 1495,801.856 1497.14,795.98 1499.28,789.996 1501.43,783.911 1503.57,777.731 1505.72,771.462 1507.86,765.113 1510.01,758.689 1512.15,752.197 1514.3,745.645 1516.44,739.039 1518.58,732.387 1520.73,725.696 1522.87,718.972 1525.02,712.224 1527.16,705.457 1529.31,698.68 1531.45,691.899 1533.59,685.122 1535.74,678.355 1537.88,671.606 1540.03,664.881 1542.17,658.187 1544.32,651.532 1546.46,644.922 1548.61,638.363 1550.75,631.863 1552.89,625.427 1555.04,619.062 1557.18,612.775 1559.33,606.571 1561.47,600.456 1563.62,594.436 1565.76,588.518 1567.91,582.705 1570.05,577.005 1572.19,571.421 1574.34,565.959 1576.48,560.624 1578.63,555.42 1580.77,550.352 1582.92,545.425 1585.06,540.641 1587.2,536.006 1589.35,531.522 1591.49,527.193 1593.64,523.022 1595.78,519.013 1597.93,515.167 1600.07,511.488 1602.22,507.978 1604.36,504.638 1606.5,501.471 1608.65,498.479 1610.79,495.661 1612.94,493.02 1615.08,490.557 1617.23,488.272 1619.37,486.165 1621.52,484.236 1623.66,482.486 1625.8,480.915 1627.95,479.52 1630.09,478.303 1632.24,477.261 1634.38,476.393 1636.53,475.698 1638.67,475.175 1640.81,474.82 1642.96,474.633 1645.1,474.61 1647.25,474.749 1649.39,475.048 1651.54,475.503 1653.68,476.111 1655.83,476.868 1657.97,477.772 1660.11,478.818 1662.26,480.003 1664.4,481.322 1666.55,482.771 1668.69,484.346 1670.84,486.043 1672.98,487.856 1675.13,489.781 1677.27,491.813 1679.41,493.946 1681.56,496.177 1683.7,498.499 1685.85,500.907 1687.99,503.396 1690.14,505.96 1692.28,508.593 1694.42,511.291 1696.57,514.047 1698.71,516.856 1700.86,519.712 1703,522.609 1705.15,525.541 1707.29,528.502 1709.44,531.488 1711.58,534.491 1713.72,537.507 1715.87,540.529 1718.01,543.552 1720.16,546.57 1722.3,549.578 1724.45,552.569 1726.59,555.539 1728.74,558.482 1730.88,561.392 1733.02,564.265 1735.17,567.095 1737.31,569.878 1739.46,572.608 1741.6,575.28 1743.75,577.89 1745.89,580.434 1748.03,582.906 1750.18,585.304 1752.32,587.621 1754.47,589.856 1756.61,592.003 1758.76,594.059 1760.9,596.021 1763.05,597.885 1765.19,599.649 1767.33,601.309 1769.48,602.863 1771.62,604.308 1773.77,605.642 1775.91,606.863 1778.06,607.969 1780.2,608.957 1782.35,609.827 1784.49,610.578 1786.63,611.208 1788.78,611.716 1790.92,612.101 1793.07,612.364 1795.21,612.503 1797.36,612.519 1799.5,612.413 1801.64,612.183 1803.79,611.832 1805.93,611.359 1808.08,610.766 1810.22,610.053 1812.37,609.223 1814.51,608.277 1816.66,607.217 1818.8,606.044 1820.94,604.76 1823.09,603.369 1825.23,601.873 1827.38,600.274 1829.52,598.575 1831.67,596.78 1833.81,594.891 1835.96,592.911 1838.1,590.846 1840.24,588.697 1842.39,586.469 1844.53,584.165 1846.68,581.79 1848.82,579.349 1850.97,576.844 1853.11,574.281 1855.25,571.664 1857.4,568.997 1859.54,566.286 1861.69,563.535 1863.83,560.748 1865.98,557.931 1868.12,555.089 1870.27,552.226 1872.41,549.348 1874.55,546.459 1876.7,543.564 1878.84,540.669 1880.99,537.779 1883.13,534.898 1885.28,532.032 1887.42,529.185 1889.57,526.364 1891.71,523.571 1893.85,520.814 1896,518.095 1898.14,515.421 1900.29,512.796 1902.43,510.224 1904.58,507.711 1906.72,505.26 1908.86,502.876 1911.01,500.563 1913.15,498.326 1915.3,496.168 1917.44,494.093 1919.59,492.106 1921.73,490.21 1923.88,488.407 1926.02,486.703 1928.16,485.1 1930.31,483.6 1932.45,482.208 1934.6,480.925 1936.74,479.755 1938.89,478.699 1941.03,477.759 1943.18,476.939 1945.32,476.239 1947.46,475.662 1949.61,475.208 1951.75,474.879 1953.9,474.676 1956.04,474.6 1958.19,474.651 1960.33,474.831 1962.47,475.138 1964.62,475.574 1966.76,476.137 1968.91,476.829 1971.05,477.647 1973.2,478.591 1975.34,479.661 1977.49,480.855 1979.63,482.172 1981.77,483.61 1983.92,485.167 1986.06,486.841 1988.21,488.63 1990.35,490.533 1992.5,492.545 1994.64,494.665 1996.79,496.89 1998.93,499.216 2001.07,501.64 2003.22,504.16 2005.36,506.77 2007.51,509.468 2009.65,512.25 2011.8,515.112 2013.94,518.049 2016.08,521.058 2018.23,524.133 2020.37,527.271 2022.52,530.466 2024.66,533.715 2026.81,537.011 2028.95,540.351 2031.1,543.73 2033.24,547.141 2035.38,550.581 2037.53,554.043 2039.67,557.523 2041.82,561.016 2043.96,564.515 2046.11,568.016 2048.25,571.514 2050.4,575.002 2052.54,578.476 2054.68,581.93 2056.83,585.359 2058.97,588.758 2061.12,592.121 2063.26,595.443 2065.41,598.719 2067.55,601.943 2069.69,605.111 2071.84,608.218 2073.98,611.258 2076.13,614.227 2078.27,617.12 2080.42,619.933 2082.56,622.661 2084.71,625.299 2086.85,627.843 2088.99,630.29 2091.14,632.635 2093.28,634.874 2095.43,637.003 2097.57,639.02 2099.72,640.92 2101.86,642.701 2104.01,644.359 2106.15,645.892 2108.29,647.297 2110.44,648.571 2112.58,649.712 2114.73,650.719 2116.87,651.589 2119.02,652.321 2121.16,652.913 2123.3,653.363 2125.45,653.672 2127.59,653.838 2129.74,653.861 2131.88,653.74 2134.03,653.475 2136.17,653.066 2138.32,652.514 2140.46,651.819 2142.6,650.983 2144.75,650.005 2146.89,648.887 2149.04,647.631 2151.18,646.239 2153.33,644.711 2155.47,643.052 2157.62,641.262 2159.76,639.344 2161.9,637.301 2164.05,635.137 2166.19,632.854 2168.34,630.456 2170.48,627.946 2172.63,625.328 2174.77,622.607 2176.92,619.786 2179.06,616.869 2181.2,613.862 2183.35,610.768 2185.49,607.593 2187.64,604.342 2189.78,601.02 2191.93,597.632 2194.07,594.183 2196.21,590.68 2198.36,587.127 2200.5,583.531 2202.65,579.898 2204.79,576.233 2206.94,572.542 2209.08,568.832 2211.23,565.109 2213.37,561.38 2215.51,557.649 2217.66,553.925 2219.8,550.213 2221.95,546.519 2224.09,542.851 2226.24,539.215 2228.38,535.616 2230.53,532.062 2232.67,528.559 2234.81,525.114 2236.96,521.732 2239.1,518.42 2241.25,515.184 2243.39,512.031 2245.54,508.967 2247.68,505.997 2249.82,503.127 2251.97,500.364 2254.11,497.713 2256.26,495.179 2258.4,492.769 2260.55,490.487 2262.69,488.339 2264.84,486.329 2266.98,484.463 2269.12,482.745 2271.27,481.179 2273.41,479.771 2275.56,478.524 2277.7,477.442 2279.85,476.529 2281.99,475.788 2284.14,475.224 2286.28,474.838 2288.42,474.634 2290.57,474.614 2292.71,474.781 2294.86,475.137 2297,475.684 2299.15,476.423 2301.29,477.357 2303.43,478.485 2305.58,479.81 2307.72,481.331 2309.87,483.05 2312.01,484.966 2314.16,487.079 2316.3,489.388 2318.45,491.894 2320.59,494.595 2322.73,497.489 2324.88,500.576 2327.02,503.854 2329.17,507.321 2331.31,510.973 2333.46,514.81 2335.6,518.828 2337.75,523.024 2339.89,527.395 2342.03,531.937 2344.18,536.646 2346.32,541.519 2348.47,546.55 2350.61,551.737 2352.76,557.073 "/>
<polyline clip-path="url(#clip192)" style="stroke:#000000; stroke-linecap:round; stroke-linejoin:round; stroke-width:4; stroke-opacity:1; fill:none" stroke-dasharray="16, 10" points="-1936.05,474.599 4497.16,474.599 "/>
<polyline clip-path="url(#clip192)" style="stroke:#000000; stroke-linecap:round; stroke-linejoin:round; stroke-width:4; stroke-opacity:1; fill:none" stroke-dasharray="16, 10" points="-1936.05,901.955 4497.16,901.955 "/>
<line clip-path="url(#clip192)" x1="1202.35" y1="361.97" x2="1186.35" y2="345.97" style="stroke:#ff0000; stroke-width:3; stroke-opacity:1"/>
<line clip-path="url(#clip192)" x1="1202.35" y1="361.97" x2="1186.35" y2="377.97" style="stroke:#ff0000; stroke-width:3; stroke-opacity:1"/>
<line clip-path="url(#clip192)" x1="1202.35" y1="361.97" x2="1218.35" y2="377.97" style="stroke:#ff0000; stroke-width:3; stroke-opacity:1"/>
<line clip-path="url(#clip192)" x1="1202.35" y1="361.97" x2="1218.35" y2="345.97" style="stroke:#ff0000; stroke-width:3; stroke-opacity:1"/>
<line clip-path="url(#clip192)" x1="1427.89" y1="822.295" x2="1411.89" y2="806.295" style="stroke:#ff0000; stroke-width:3; stroke-opacity:1"/>
<line clip-path="url(#clip192)" x1="1427.89" y1="822.295" x2="1411.89" y2="838.295" style="stroke:#ff0000; stroke-width:3; stroke-opacity:1"/>
<line clip-path="url(#clip192)" x1="1427.89" y1="822.295" x2="1443.89" y2="838.295" style="stroke:#ff0000; stroke-width:3; stroke-opacity:1"/>
<line clip-path="url(#clip192)" x1="1427.89" y1="822.295" x2="1443.89" y2="806.295" style="stroke:#ff0000; stroke-width:3; stroke-opacity:1"/>
<line clip-path="url(#clip192)" x1="1203.66" y1="361.903" x2="1203.66" y2="345.903" style="stroke:#0000ff; stroke-width:3; stroke-opacity:1"/>
<line clip-path="url(#clip192)" x1="1203.66" y1="361.903" x2="1187.66" y2="361.903" style="stroke:#0000ff; stroke-width:3; stroke-opacity:1"/>
<line clip-path="url(#clip192)" x1="1203.66" y1="361.903" x2="1203.66" y2="377.903" style="stroke:#0000ff; stroke-width:3; stroke-opacity:1"/>
<line clip-path="url(#clip192)" x1="1203.66" y1="361.903" x2="1219.66" y2="361.903" style="stroke:#0000ff; stroke-width:3; stroke-opacity:1"/>
<line clip-path="url(#clip192)" x1="1426.15" y1="820.804" x2="1426.15" y2="804.804" style="stroke:#0000ff; stroke-width:3; stroke-opacity:1"/>
<line clip-path="url(#clip192)" x1="1426.15" y1="820.804" x2="1410.15" y2="820.804" style="stroke:#0000ff; stroke-width:3; stroke-opacity:1"/>
<line clip-path="url(#clip192)" x1="1426.15" y1="820.804" x2="1426.15" y2="836.804" style="stroke:#0000ff; stroke-width:3; stroke-opacity:1"/>
<line clip-path="url(#clip192)" x1="1426.15" y1="820.804" x2="1442.15" y2="820.804" style="stroke:#0000ff; stroke-width:3; stroke-opacity:1"/>
<line clip-path="url(#clip192)" x1="1637.72" y1="678.07" x2="1637.72" y2="662.07" style="stroke:#0000ff; stroke-width:3; stroke-opacity:1"/>
<line clip-path="url(#clip192)" x1="1637.72" y1="678.07" x2="1621.72" y2="678.07" style="stroke:#0000ff; stroke-width:3; stroke-opacity:1"/>
<line clip-path="url(#clip192)" x1="1637.72" y1="678.07" x2="1637.72" y2="694.07" style="stroke:#0000ff; stroke-width:3; stroke-opacity:1"/>
<line clip-path="url(#clip192)" x1="1637.72" y1="678.07" x2="1653.72" y2="678.07" style="stroke:#0000ff; stroke-width:3; stroke-opacity:1"/>
<line clip-path="url(#clip192)" x1="938.593" y1="684.787" x2="938.593" y2="668.787" style="stroke:#0000ff; stroke-width:3; stroke-opacity:1"/>
<line clip-path="url(#clip192)" x1="938.593" y1="684.787" x2="922.593" y2="684.787" style="stroke:#0000ff; stroke-width:3; stroke-opacity:1"/>
<line clip-path="url(#clip192)" x1="938.593" y1="684.787" x2="938.593" y2="700.787" style="stroke:#0000ff; stroke-width:3; stroke-opacity:1"/>
<line clip-path="url(#clip192)" x1="938.593" y1="684.787" x2="954.593" y2="684.787" style="stroke:#0000ff; stroke-width:3; stroke-opacity:1"/>
<path clip-path="url(#clip190)" d="M1950.69 349.18 L2281.28 349.18 L2281.28 89.9796 L1950.69 89.9796  Z" fill="#ffffff" fill-rule="evenodd" fill-opacity="1"/>
<polyline clip-path="url(#clip190)" style="stroke:#000000; stroke-linecap:round; stroke-linejoin:round; stroke-width:4; stroke-opacity:1; fill:none" points="1950.69,349.18 2281.28,349.18 2281.28,89.9796 1950.69,89.9796 1950.69,349.18 "/>
<path clip-path="url(#clip190)" d="M2023.24 119.064 L2023.24 164.575 L2068.75 164.575 L2068.75 119.064 L2023.24 119.064 Z" fill="#ffff00" fill-rule="evenodd" fill-opacity="1" stroke="#000000" stroke-opacity="1" stroke-width="4.26667"/>
<path clip-path="url(#clip190)" d="M2167.3 133.313 Q2166.69 136.335 2165.87 138.068 Q2164.56 140.715 2162.31 140.715 Q2160.72 140.715 2159.5 139.754 Q2158.31 138.794 2158 137.201 Q2157.39 137.927 2156.95 138.349 Q2156.53 138.771 2155.68 139.426 Q2154.86 140.059 2153.83 140.387 Q2152.8 140.715 2151.63 140.715 Q2148.77 140.715 2146.97 139.216 Q2144.53 149.03 2144.32 149.521 Q2143.64 150.529 2142.66 150.529 Q2142.05 150.529 2141.68 150.154 Q2141.3 149.802 2141.3 149.24 Q2141.32 149.053 2141.46 148.467 L2148.35 120.712 Q2148.54 119.962 2149.01 119.541 Q2149.5 119.096 2149.78 119.049 Q2150.06 118.979 2150.27 118.979 Q2150.9 118.979 2151.28 119.33 Q2151.68 119.658 2151.68 120.267 Q2151.68 120.36 2151.54 120.899 Q2151.42 121.414 2151.23 122.211 Q2151.04 122.984 2150.95 123.335 L2148.94 131.392 Q2148.26 134.156 2148.26 135.468 Q2148.26 137.459 2149.15 138.56 Q2150.06 139.637 2151.82 139.637 Q2152.92 139.637 2153.95 139.192 Q2154.98 138.724 2155.68 138.091 Q2156.38 137.459 2156.95 136.78 Q2157.51 136.077 2157.77 135.632 Q2158.02 135.163 2158.05 135.046 L2159.29 130.151 L2161.56 121.18 Q2161.7 120.618 2161.96 120.243 Q2162.24 119.845 2162.57 119.705 Q2162.9 119.564 2163.08 119.541 Q2163.27 119.494 2163.43 119.494 Q2164.02 119.494 2164.42 119.845 Q2164.82 120.197 2164.82 120.806 Q2164.82 120.923 2164.68 121.485 Q2164.56 122.023 2164.37 122.82 Q2164.18 123.593 2164.09 124.014 Q2163.34 126.966 2163.27 127.27 L2161.94 132.446 Q2161.87 132.751 2161.63 133.735 Q2161.42 134.718 2161.3 135.234 Q2161.19 135.726 2161.07 136.405 Q2160.98 137.061 2160.98 137.435 Q2160.98 139.637 2162.43 139.637 Q2162.99 139.637 2163.48 139.309 Q2163.97 138.958 2164.3 138.466 Q2164.65 137.974 2164.98 137.131 Q2165.33 136.264 2165.54 135.562 Q2165.75 134.836 2166.06 133.711 Q2166.18 133.173 2166.29 133.009 Q2166.41 132.845 2166.74 132.845 Q2167.3 132.845 2167.3 133.313 Z" fill="#000000" fill-rule="nonzero" fill-opacity="1" /><path clip-path="url(#clip190)" d="M2172.16 152.976 Q2172.16 148.041 2173.4 145.352 Q2175.14 141.351 2179.24 141.351 Q2180.11 141.351 2181.01 141.597 Q2181.93 141.827 2183.07 142.728 Q2184.24 143.63 2184.94 145.106 Q2186.29 147.959 2186.29 152.976 Q2186.29 157.878 2185.04 160.551 Q2183.22 164.453 2179.21 164.453 Q2177.7 164.453 2176.16 163.682 Q2174.63 162.912 2173.66 161.059 Q2172.16 158.288 2172.16 152.976 M2174.94 152.566 Q2174.94 157.632 2175.3 159.649 Q2175.71 161.829 2176.83 162.78 Q2177.96 163.715 2179.21 163.715 Q2180.55 163.715 2181.66 162.715 Q2182.8 161.698 2183.14 159.518 Q2183.52 157.37 2183.5 152.566 Q2183.5 147.893 2183.17 146.024 Q2182.73 143.843 2181.55 142.974 Q2180.39 142.089 2179.21 142.089 Q2178.76 142.089 2178.29 142.22 Q2177.83 142.351 2177.16 142.728 Q2176.48 143.106 2175.96 144.04 Q2175.45 144.975 2175.2 146.385 Q2174.94 148.205 2174.94 152.566 Z" fill="#000000" fill-rule="nonzero" fill-opacity="1" /><polyline clip-path="url(#clip190)" style="stroke:#800080; stroke-linecap:round; stroke-linejoin:round; stroke-width:4; stroke-opacity:1; fill:none" points="1974.51,193.66 2117.47,193.66 "/>
<path clip-path="url(#clip190)" d="M2163.72 175.82 Q2163.72 177.132 2163.32 178.607 L2157.86 200.32 Q2157.37 202.241 2155.89 202.241 Q2155.28 202.241 2154.91 201.866 Q2154.56 201.515 2154.56 200.952 Q2154.56 200.765 2154.7 200.179 L2160.16 178.116 Q2160.65 176.101 2160.65 175.094 Q2160.65 171.745 2158.05 171.745 Q2155.75 171.745 2153.46 173.431 Q2152.4 174.274 2151.37 175.797 Q2150.37 177.296 2150.18 177.834 Q2149.97 179.052 2149.66 179.989 Q2149.52 180.645 2148.84 183.198 L2147.79 187.531 Q2147.04 190.764 2146.88 191.068 Q2146.64 191.724 2146.13 192.075 Q2145.61 192.427 2145.1 192.427 Q2144.51 192.427 2144.11 192.075 Q2143.71 191.724 2143.71 191.115 Q2143.71 191.021 2143.78 190.67 Q2143.85 190.319 2143.97 189.827 Q2144.09 189.335 2144.13 189.054 L2146.92 177.975 Q2147.44 175.961 2147.55 175.328 Q2147.7 174.672 2147.7 173.946 Q2147.7 172.681 2147.3 172.213 Q2146.9 171.745 2146.2 171.745 Q2144.98 171.745 2144.18 173.197 Q2143.39 174.649 2142.71 177.46 Q2142.5 178.233 2142.35 178.397 Q2142.24 178.561 2141.89 178.561 Q2141.3 178.537 2141.3 178.069 Q2141.3 177.952 2141.49 177.202 Q2141.68 176.429 2142.03 175.305 Q2142.4 174.157 2142.8 173.431 Q2143.03 172.939 2143.24 172.611 Q2143.46 172.283 2143.88 171.768 Q2144.3 171.253 2144.93 170.972 Q2145.56 170.691 2146.34 170.691 Q2148.05 170.691 2149.31 171.791 Q2150.6 172.892 2150.76 174.86 Q2151.26 174.134 2151.89 173.478 Q2152.54 172.822 2153.46 172.166 Q2154.37 171.487 2155.61 171.089 Q2156.85 170.691 2158.19 170.691 Q2160.86 170.691 2162.29 172.073 Q2163.72 173.431 2163.72 175.82 Z" fill="#000000" fill-rule="nonzero" fill-opacity="1" /><path clip-path="url(#clip190)" d="M2185.22 216.011 Q2185.22 216.323 2184.86 216.355 L2184.12 216.355 Q2183.36 216.355 2183.04 216.241 Q2182.71 216.126 2182.33 215.601 Q2182.1 215.273 2181.53 213.748 Q2180.97 212.207 2180.15 209.879 Q2179.35 207.551 2178.81 206.174 L2170.72 215.716 Q2170.17 216.421 2169.61 216.421 Q2169.2 216.421 2168.9 216.142 Q2168.61 215.863 2168.61 215.437 Q2168.61 215.126 2168.72 214.945 Q2168.85 214.765 2169.2 214.404 L2178.48 205.206 L2175.22 196.074 Q2174.59 194.385 2174.23 193.959 Q2173.89 193.532 2173.04 193.385 Q2172.72 193.303 2172.72 193.041 Q2172.72 192.68 2173.33 192.68 Q2176.58 192.68 2177.43 195.057 L2184.28 214.158 Q2184.66 215.257 2185.05 215.716 Q2185.22 215.929 2185.22 216.011 Z" fill="#000000" fill-rule="nonzero" fill-opacity="1" /><line clip-path="url(#clip190)" x1="2045.99" y1="245.5" x2="2023.24" y2="222.744" style="stroke:#ff0000; stroke-width:4.26667; stroke-opacity:1"/>
<line clip-path="url(#clip190)" x1="2045.99" y1="245.5" x2="2023.24" y2="268.255" style="stroke:#ff0000; stroke-width:4.26667; stroke-opacity:1"/>
<line clip-path="url(#clip190)" x1="2045.99" y1="245.5" x2="2068.75" y2="268.255" style="stroke:#ff0000; stroke-width:4.26667; stroke-opacity:1"/>
<line clip-path="url(#clip190)" x1="2045.99" y1="245.5" x2="2068.75" y2="222.744" style="stroke:#ff0000; stroke-width:4.26667; stroke-opacity:1"/>
<path clip-path="url(#clip190)" d="M2167.3 236.606 Q2166.69 239.627 2165.87 241.361 Q2164.56 244.007 2162.31 244.007 Q2160.72 244.007 2159.5 243.047 Q2158.31 242.087 2158 240.494 Q2157.39 241.22 2156.95 241.642 Q2156.53 242.063 2155.68 242.719 Q2154.86 243.352 2153.83 243.679 Q2152.8 244.007 2151.63 244.007 Q2148.77 244.007 2146.97 242.508 Q2144.53 252.322 2144.32 252.814 Q2143.64 253.821 2142.66 253.821 Q2142.05 253.821 2141.68 253.447 Q2141.3 253.095 2141.3 252.533 Q2141.32 252.346 2141.46 251.76 L2148.35 224.005 Q2148.54 223.255 2149.01 222.834 Q2149.5 222.388 2149.78 222.342 Q2150.06 222.271 2150.27 222.271 Q2150.9 222.271 2151.28 222.623 Q2151.68 222.951 2151.68 223.56 Q2151.68 223.653 2151.54 224.192 Q2151.42 224.707 2151.23 225.504 Q2151.04 226.277 2150.95 226.628 L2148.94 234.685 Q2148.26 237.449 2148.26 238.761 Q2148.26 240.752 2149.15 241.853 Q2150.06 242.93 2151.82 242.93 Q2152.92 242.93 2153.95 242.485 Q2154.98 242.016 2155.68 241.384 Q2156.38 240.752 2156.95 240.072 Q2157.51 239.37 2157.77 238.925 Q2158.02 238.456 2158.05 238.339 L2159.29 233.444 L2161.56 224.473 Q2161.7 223.911 2161.96 223.536 Q2162.24 223.138 2162.57 222.997 Q2162.9 222.857 2163.08 222.834 Q2163.27 222.787 2163.43 222.787 Q2164.02 222.787 2164.42 223.138 Q2164.82 223.489 2164.82 224.098 Q2164.82 224.215 2164.68 224.778 Q2164.56 225.316 2164.37 226.113 Q2164.18 226.886 2164.09 227.307 Q2163.34 230.258 2163.27 230.563 L2161.94 235.739 Q2161.87 236.044 2161.63 237.028 Q2161.42 238.011 2161.3 238.527 Q2161.19 239.018 2161.07 239.698 Q2160.98 240.353 2160.98 240.728 Q2160.98 242.93 2162.43 242.93 Q2162.99 242.93 2163.48 242.602 Q2163.97 242.251 2164.3 241.759 Q2164.65 241.267 2164.98 240.424 Q2165.33 239.557 2165.54 238.854 Q2165.75 238.128 2166.06 237.004 Q2166.18 236.465 2166.29 236.301 Q2166.41 236.137 2166.74 236.137 Q2167.3 236.137 2167.3 236.606 Z" fill="#000000" fill-rule="nonzero" fill-opacity="1" /><path clip-path="url(#clip190)" d="M2172.16 267.717 L2172.16 260.994 Q2172.16 260.617 2172.17 260.486 Q2172.19 260.355 2172.29 260.256 Q2172.38 260.158 2172.58 260.158 Q2172.96 260.158 2172.99 260.502 Q2173.09 263.831 2175.07 265.667 Q2177.02 267.487 2180.37 267.487 Q2182.39 267.487 2183.63 266.044 Q2184.88 264.585 2184.88 262.683 Q2184.88 260.863 2183.83 259.584 Q2183.39 259.01 2182.83 258.65 Q2182.29 258.273 2181.94 258.158 Q2181.62 258.043 2180.98 257.879 Q2176.81 256.879 2176.55 256.764 Q2174.57 256.092 2173.35 254.403 Q2172.16 252.698 2172.16 250.616 Q2172.16 247.927 2174.04 246.025 Q2175.94 244.107 2178.7 244.107 Q2180.07 244.107 2181.22 244.549 Q2182.39 244.976 2182.86 245.369 Q2183.34 245.763 2184.07 246.468 L2185.24 244.549 Q2185.5 244.107 2185.75 244.107 Q2186.01 244.107 2186.06 244.271 Q2186.12 244.418 2186.12 244.91 L2186.12 251.665 Q2186.12 252.042 2186.11 252.173 Q2186.09 252.305 2185.98 252.387 Q2185.88 252.469 2185.68 252.469 Q2185.35 252.469 2185.27 252.075 Q2184.34 245.058 2178.73 245.058 Q2176.81 245.058 2175.55 246.353 Q2174.3 247.632 2174.3 249.452 Q2174.3 250.927 2175.22 252.141 Q2176.14 253.337 2177.7 253.715 L2181.99 254.748 Q2184.14 255.256 2185.58 257.158 Q2187.03 259.06 2187.03 261.535 Q2187.03 264.388 2185.16 266.454 Q2183.3 268.52 2180.4 268.52 Q2178.32 268.52 2176.71 267.831 Q2175.11 267.143 2174.24 266.175 Q2173.57 267.29 2173.12 267.913 L2173.02 268.077 Q2172.76 268.52 2172.52 268.52 Q2172.25 268.52 2172.2 268.356 Q2172.16 268.192 2172.16 267.717 Z" fill="#000000" fill-rule="nonzero" fill-opacity="1" /><path clip-path="url(#clip190)" d="M2192.08 267.782 L2192.08 266.749 L2192.88 266.749 Q2194.7 266.749 2195.11 266.454 Q2195.54 266.143 2195.54 265.159 L2195.54 247.468 Q2195.54 246.5 2195.11 246.205 Q2194.68 245.894 2192.88 245.894 L2192.08 245.894 L2192.08 244.845 L2204.36 244.845 Q2208.65 244.845 2211.64 248.271 Q2214.64 251.698 2214.64 256.502 Q2214.64 261.207 2211.62 264.503 Q2208.62 267.782 2204.36 267.782 L2192.08 267.782 M2198.42 265.405 Q2198.42 266.274 2198.67 266.52 Q2198.91 266.749 2200.06 266.749 L2203.46 266.749 Q2205.67 266.749 2207.16 265.847 Q2208.65 264.929 2209.42 263.88 Q2211.28 261.355 2211.28 256.502 Q2211.28 251.403 2209.54 249.009 Q2207.29 245.894 2203.42 245.894 L2200.06 245.894 Q2198.91 245.894 2198.67 246.123 Q2198.42 246.353 2198.42 247.238 L2198.42 265.405 Z" fill="#000000" fill-rule="nonzero" fill-opacity="1" /><path clip-path="url(#clip190)" d="M2218.24 267.782 L2218.24 266.749 L2219.05 266.749 Q2220.87 266.749 2221.28 266.454 Q2221.7 266.143 2221.7 265.159 L2221.7 247.468 Q2221.7 246.5 2221.28 246.205 Q2220.85 245.894 2219.05 245.894 L2218.24 245.894 L2218.24 244.845 L2230.1 244.845 Q2233.49 244.845 2235.75 246.714 Q2238.02 248.583 2238.02 251.091 Q2238.02 253.583 2235.7 255.387 Q2233.41 257.174 2230.36 257.174 L2224.69 257.174 L2224.69 265.159 Q2224.69 266.126 2225.1 266.438 Q2225.52 266.749 2227.34 266.749 L2228.15 266.749 L2228.15 267.782 Q2226.97 267.684 2223.18 267.684 Q2219.42 267.684 2218.24 267.782 M2224.59 256.305 L2229.21 256.305 Q2230.72 256.305 2231.82 255.879 Q2232.92 255.453 2233.41 254.944 Q2233.92 254.42 2234.2 253.583 Q2234.49 252.731 2234.52 252.272 Q2234.56 251.796 2234.56 251.091 Q2234.56 250.353 2234.52 249.894 Q2234.49 249.419 2234.2 248.583 Q2233.92 247.73 2233.41 247.222 Q2232.92 246.697 2231.82 246.304 Q2230.74 245.894 2229.21 245.894 L2226.23 245.894 Q2225.08 245.894 2224.83 246.123 Q2224.59 246.353 2224.59 247.238 L2224.59 256.305 Z" fill="#000000" fill-rule="nonzero" fill-opacity="1" /><line clip-path="url(#clip190)" x1="2045.99" y1="297.34" x2="2045.99" y2="274.584" style="stroke:#0000ff; stroke-width:4.26667; stroke-opacity:1"/>
<line clip-path="url(#clip190)" x1="2045.99" y1="297.34" x2="2023.24" y2="297.34" style="stroke:#0000ff; stroke-width:4.26667; stroke-opacity:1"/>
<line clip-path="url(#clip190)" x1="2045.99" y1="297.34" x2="2045.99" y2="320.095" style="stroke:#0000ff; stroke-width:4.26667; stroke-opacity:1"/>
<line clip-path="url(#clip190)" x1="2045.99" y1="297.34" x2="2068.75" y2="297.34" style="stroke:#0000ff; stroke-width:4.26667; stroke-opacity:1"/>
<path clip-path="url(#clip190)" d="M2167.3 288.446 Q2166.69 291.467 2165.87 293.201 Q2164.56 295.847 2162.31 295.847 Q2160.72 295.847 2159.5 294.887 Q2158.31 293.927 2158 292.334 Q2157.39 293.06 2156.95 293.482 Q2156.53 293.903 2155.68 294.559 Q2154.86 295.192 2153.83 295.519 Q2152.8 295.847 2151.63 295.847 Q2148.77 295.847 2146.97 294.348 Q2144.53 304.162 2144.32 304.654 Q2143.64 305.661 2142.66 305.661 Q2142.05 305.661 2141.68 305.287 Q2141.3 304.935 2141.3 304.373 Q2141.32 304.186 2141.46 303.6 L2148.35 275.845 Q2148.54 275.095 2149.01 274.674 Q2149.5 274.228 2149.78 274.182 Q2150.06 274.111 2150.27 274.111 Q2150.9 274.111 2151.28 274.463 Q2151.68 274.791 2151.68 275.4 Q2151.68 275.493 2151.54 276.032 Q2151.42 276.547 2151.23 277.344 Q2151.04 278.117 2150.95 278.468 L2148.94 286.525 Q2148.26 289.289 2148.26 290.601 Q2148.26 292.592 2149.15 293.693 Q2150.06 294.77 2151.82 294.77 Q2152.92 294.77 2153.95 294.325 Q2154.98 293.856 2155.68 293.224 Q2156.38 292.592 2156.95 291.912 Q2157.51 291.21 2157.77 290.765 Q2158.02 290.296 2158.05 290.179 L2159.29 285.284 L2161.56 276.313 Q2161.7 275.751 2161.96 275.376 Q2162.24 274.978 2162.57 274.837 Q2162.9 274.697 2163.08 274.674 Q2163.27 274.627 2163.43 274.627 Q2164.02 274.627 2164.42 274.978 Q2164.82 275.329 2164.82 275.938 Q2164.82 276.055 2164.68 276.618 Q2164.56 277.156 2164.37 277.953 Q2164.18 278.726 2164.09 279.147 Q2163.34 282.098 2163.27 282.403 L2161.94 287.579 Q2161.87 287.884 2161.63 288.868 Q2161.42 289.851 2161.3 290.367 Q2161.19 290.858 2161.07 291.538 Q2160.98 292.193 2160.98 292.568 Q2160.98 294.77 2162.43 294.77 Q2162.99 294.77 2163.48 294.442 Q2163.97 294.091 2164.3 293.599 Q2164.65 293.107 2164.98 292.264 Q2165.33 291.397 2165.54 290.694 Q2165.75 289.968 2166.06 288.844 Q2166.18 288.305 2166.29 288.141 Q2166.41 287.977 2166.74 287.977 Q2167.3 287.977 2167.3 288.446 Z" fill="#000000" fill-rule="nonzero" fill-opacity="1" /><path clip-path="url(#clip190)" d="M2172.16 319.557 L2172.16 312.834 Q2172.16 312.457 2172.17 312.326 Q2172.19 312.195 2172.29 312.096 Q2172.38 311.998 2172.58 311.998 Q2172.96 311.998 2172.99 312.342 Q2173.09 315.671 2175.07 317.507 Q2177.02 319.327 2180.37 319.327 Q2182.39 319.327 2183.63 317.884 Q2184.88 316.425 2184.88 314.523 Q2184.88 312.703 2183.83 311.424 Q2183.39 310.85 2182.83 310.49 Q2182.29 310.113 2181.94 309.998 Q2181.62 309.883 2180.98 309.719 Q2176.81 308.719 2176.55 308.604 Q2174.57 307.932 2173.35 306.243 Q2172.16 304.538 2172.16 302.456 Q2172.16 299.767 2174.04 297.865 Q2175.94 295.947 2178.7 295.947 Q2180.07 295.947 2181.22 296.389 Q2182.39 296.816 2182.86 297.209 Q2183.34 297.603 2184.07 298.308 L2185.24 296.389 Q2185.5 295.947 2185.75 295.947 Q2186.01 295.947 2186.06 296.111 Q2186.12 296.258 2186.12 296.75 L2186.12 303.505 Q2186.12 303.882 2186.11 304.013 Q2186.09 304.145 2185.98 304.227 Q2185.88 304.309 2185.68 304.309 Q2185.35 304.309 2185.27 303.915 Q2184.34 296.898 2178.73 296.898 Q2176.81 296.898 2175.55 298.193 Q2174.3 299.472 2174.3 301.292 Q2174.3 302.767 2175.22 303.981 Q2176.14 305.177 2177.7 305.555 L2181.99 306.588 Q2184.14 307.096 2185.58 308.998 Q2187.03 310.9 2187.03 313.375 Q2187.03 316.228 2185.16 318.294 Q2183.3 320.36 2180.4 320.36 Q2178.32 320.36 2176.71 319.671 Q2175.11 318.983 2174.24 318.015 Q2173.57 319.13 2173.12 319.753 L2173.02 319.917 Q2172.76 320.36 2172.52 320.36 Q2172.25 320.36 2172.2 320.196 Q2172.16 320.032 2172.16 319.557 Z" fill="#000000" fill-rule="nonzero" fill-opacity="1" /><path clip-path="url(#clip190)" d="M2192.08 319.622 L2192.08 318.589 L2192.88 318.589 Q2194.7 318.589 2195.11 318.294 Q2195.54 317.983 2195.54 316.999 L2195.54 299.406 Q2195.54 298.439 2195.11 298.144 Q2194.68 297.832 2192.88 297.832 L2192.08 297.832 L2192.08 296.783 L2210.51 296.783 L2211.44 304.341 L2210.6 304.341 Q2210.37 302.423 2210.06 301.341 Q2209.77 300.242 2209.08 299.373 Q2208.39 298.504 2207.23 298.177 Q2206.08 297.832 2204.19 297.832 L2200.16 297.832 Q2199.01 297.832 2198.77 298.078 Q2198.52 298.308 2198.52 299.177 L2198.52 307.67 L2201.41 307.67 Q2203.69 307.67 2204.32 306.85 Q2204.96 306.03 2204.96 303.735 L2205.8 303.735 L2205.8 312.638 L2204.96 312.638 Q2204.96 310.326 2204.32 309.522 Q2203.69 308.703 2201.41 308.703 L2198.52 308.703 L2198.52 316.966 Q2198.52 317.671 2198.64 317.95 Q2198.75 318.212 2199.45 318.409 Q2200.16 318.589 2201.7 318.589 L2202.82 318.589 L2202.82 319.622 Q2201.6 319.524 2197.18 319.524 Q2193.26 319.524 2192.08 319.622 Z" fill="#000000" fill-rule="nonzero" fill-opacity="1" /><path clip-path="url(#clip190)" d="M2218.19 297.734 L2218.19 296.685 Q2218.66 296.685 2219.51 296.717 Q2220.37 296.75 2221.04 296.766 Q2221.71 296.783 2222.29 296.783 Q2225.84 296.783 2227.06 296.685 L2227.06 297.734 Q2224.24 297.734 2224.24 298.734 Q2224.24 298.964 2224.3 299.177 L2229.7 315.687 L2234.37 301.292 L2233.63 298.931 Q2233.37 298.095 2232.79 297.914 Q2232.22 297.734 2230.61 297.734 L2230.61 296.685 Q2231.09 296.685 2231.94 296.717 Q2232.79 296.75 2233.47 296.766 Q2234.14 296.783 2234.7 296.783 Q2238.25 296.783 2239.47 296.685 L2239.47 297.734 Q2236.65 297.734 2236.65 298.734 Q2236.65 298.832 2236.75 299.242 L2242.12 315.687 L2247.16 300.177 Q2247.32 299.669 2247.34 299.505 Q2247.34 298.898 2246.63 298.34 Q2245.93 297.767 2244.4 297.734 L2244.4 296.685 Q2247.03 296.783 2248.4 296.783 Q2249.94 296.783 2251.45 296.685 L2251.45 297.734 Q2248.8 297.734 2248.11 299.98 L2241.68 319.688 Q2241.62 319.95 2241.57 320.065 Q2241.52 320.196 2241.39 320.278 Q2241.26 320.36 2241.03 320.36 Q2240.58 320.36 2240.39 319.72 L2234.81 302.636 L2229.27 319.688 Q2229.2 319.95 2229.14 320.065 Q2229.09 320.196 2228.96 320.278 Q2228.83 320.36 2228.6 320.36 Q2228.15 320.36 2227.96 319.72 L2221.24 299.144 Q2220.94 298.177 2220.48 297.963 Q2220.04 297.734 2218.19 297.734 Z" fill="#000000" fill-rule="nonzero" fill-opacity="1" /></svg>
