<?xml version="1.0" encoding="utf-8"?>
<svg xmlns="http://www.w3.org/2000/svg" xmlns:xlink="http://www.w3.org/1999/xlink" width="600" height="400" viewBox="0 0 2400 1600">
<defs>
  <clipPath id="clip470">
    <rect x="0" y="0" width="2400" height="1600"/>
  </clipPath>
</defs>
<path clip-path="url(#clip470)" d="M0 1600 L2400 1600 L2400 0 L0 0  Z" fill="#ffffff" fill-rule="evenodd" fill-opacity="1"/>
<defs>
  <clipPath id="clip471">
    <rect x="480" y="0" width="1681" height="1600"/>
  </clipPath>
</defs>
<path clip-path="url(#clip470)" d="M340.514 1423.18 L2352.76 1423.18 L2352.76 47.2441 L340.514 47.2441  Z" fill="#ffffff" fill-rule="evenodd" fill-opacity="1"/>
<defs>
  <clipPath id="clip472">
    <rect x="340" y="47" width="2013" height="1377"/>
  </clipPath>
</defs>
<polyline clip-path="url(#clip472)" style="stroke:#000000; stroke-linecap:round; stroke-linejoin:round; stroke-width:2; stroke-opacity:0.1; fill:none" points="340.514,1423.18 340.514,47.2441 "/>
<polyline clip-path="url(#clip472)" style="stroke:#000000; stroke-linecap:round; stroke-linejoin:round; stroke-width:2; stroke-opacity:0.1; fill:none" points="742.962,1423.18 742.962,47.2441 "/>
<polyline clip-path="url(#clip472)" style="stroke:#000000; stroke-linecap:round; stroke-linejoin:round; stroke-width:2; stroke-opacity:0.1; fill:none" points="1145.41,1423.18 1145.41,47.2441 "/>
<polyline clip-path="url(#clip472)" style="stroke:#000000; stroke-linecap:round; stroke-linejoin:round; stroke-width:2; stroke-opacity:0.1; fill:none" points="1547.86,1423.18 1547.86,47.2441 "/>
<polyline clip-path="url(#clip472)" style="stroke:#000000; stroke-linecap:round; stroke-linejoin:round; stroke-width:2; stroke-opacity:0.1; fill:none" points="1950.31,1423.18 1950.31,47.2441 "/>
<polyline clip-path="url(#clip472)" style="stroke:#000000; stroke-linecap:round; stroke-linejoin:round; stroke-width:2; stroke-opacity:0.1; fill:none" points="2352.76,1423.18 2352.76,47.2441 "/>
<polyline clip-path="url(#clip472)" style="stroke:#000000; stroke-linecap:round; stroke-linejoin:round; stroke-width:2; stroke-opacity:0.1; fill:none" points="340.514,1254.52 2352.76,1254.52 "/>
<polyline clip-path="url(#clip472)" style="stroke:#000000; stroke-linecap:round; stroke-linejoin:round; stroke-width:2; stroke-opacity:0.1; fill:none" points="340.514,994.108 2352.76,994.108 "/>
<polyline clip-path="url(#clip472)" style="stroke:#000000; stroke-linecap:round; stroke-linejoin:round; stroke-width:2; stroke-opacity:0.1; fill:none" points="340.514,733.697 2352.76,733.697 "/>
<polyline clip-path="url(#clip472)" style="stroke:#000000; stroke-linecap:round; stroke-linejoin:round; stroke-width:2; stroke-opacity:0.1; fill:none" points="340.514,473.285 2352.76,473.285 "/>
<polyline clip-path="url(#clip472)" style="stroke:#000000; stroke-linecap:round; stroke-linejoin:round; stroke-width:2; stroke-opacity:0.1; fill:none" points="340.514,212.874 2352.76,212.874 "/>
<polyline clip-path="url(#clip470)" style="stroke:#000000; stroke-linecap:round; stroke-linejoin:round; stroke-width:4; stroke-opacity:1; fill:none" points="340.514,1423.18 2352.76,1423.18 "/>
<polyline clip-path="url(#clip470)" style="stroke:#000000; stroke-linecap:round; stroke-linejoin:round; stroke-width:4; stroke-opacity:1; fill:none" points="340.514,1423.18 340.514,1404.28 "/>
<polyline clip-path="url(#clip470)" style="stroke:#000000; stroke-linecap:round; stroke-linejoin:round; stroke-width:4; stroke-opacity:1; fill:none" points="742.962,1423.18 742.962,1404.28 "/>
<polyline clip-path="url(#clip470)" style="stroke:#000000; stroke-linecap:round; stroke-linejoin:round; stroke-width:4; stroke-opacity:1; fill:none" points="1145.41,1423.18 1145.41,1404.28 "/>
<polyline clip-path="url(#clip470)" style="stroke:#000000; stroke-linecap:round; stroke-linejoin:round; stroke-width:4; stroke-opacity:1; fill:none" points="1547.86,1423.18 1547.86,1404.28 "/>
<polyline clip-path="url(#clip470)" style="stroke:#000000; stroke-linecap:round; stroke-linejoin:round; stroke-width:4; stroke-opacity:1; fill:none" points="1950.31,1423.18 1950.31,1404.28 "/>
<polyline clip-path="url(#clip470)" style="stroke:#000000; stroke-linecap:round; stroke-linejoin:round; stroke-width:4; stroke-opacity:1; fill:none" points="2352.76,1423.18 2352.76,1404.28 "/>
<path clip-path="url(#clip470)" d="M340.514 1454.1 Q336.903 1454.1 335.074 1457.66 Q333.268 1461.2 333.268 1468.33 Q333.268 1475.44 335.074 1479.01 Q336.903 1482.55 340.514 1482.55 Q344.148 1482.55 345.954 1479.01 Q347.782 1475.44 347.782 1468.33 Q347.782 1461.2 345.954 1457.66 Q344.148 1454.1 340.514 1454.1 M340.514 1450.39 Q346.324 1450.39 349.379 1455 Q352.458 1459.58 352.458 1468.33 Q352.458 1477.06 349.379 1481.67 Q346.324 1486.25 340.514 1486.25 Q334.704 1486.25 331.625 1481.67 Q328.569 1477.06 328.569 1468.33 Q328.569 1459.58 331.625 1455 Q334.704 1450.39 340.514 1450.39 Z" fill="#000000" fill-rule="nonzero" fill-opacity="1" /><path clip-path="url(#clip470)" d="M737.615 1481.64 L753.934 1481.64 L753.934 1485.58 L731.99 1485.58 L731.99 1481.64 Q734.652 1478.89 739.235 1474.26 Q743.842 1469.61 745.022 1468.27 Q747.268 1465.74 748.147 1464.01 Q749.05 1462.25 749.05 1460.56 Q749.05 1457.8 747.106 1456.07 Q745.184 1454.33 742.083 1454.33 Q739.884 1454.33 737.43 1455.09 Q734.999 1455.86 732.222 1457.41 L732.222 1452.69 Q735.046 1451.55 737.499 1450.97 Q739.953 1450.39 741.99 1450.39 Q747.36 1450.39 750.555 1453.08 Q753.749 1455.77 753.749 1460.26 Q753.749 1462.39 752.939 1464.31 Q752.152 1466.2 750.045 1468.8 Q749.467 1469.47 746.365 1472.69 Q743.263 1475.88 737.615 1481.64 Z" fill="#000000" fill-rule="nonzero" fill-opacity="1" /><path clip-path="url(#clip470)" d="M1148.42 1455.09 L1136.61 1473.54 L1148.42 1473.54 L1148.42 1455.09 M1147.19 1451.02 L1153.07 1451.02 L1153.07 1473.54 L1158 1473.54 L1158 1477.43 L1153.07 1477.43 L1153.07 1485.58 L1148.42 1485.58 L1148.42 1477.43 L1132.82 1477.43 L1132.82 1472.92 L1147.19 1451.02 Z" fill="#000000" fill-rule="nonzero" fill-opacity="1" /><path clip-path="url(#clip470)" d="M1548.26 1466.44 Q1545.12 1466.44 1543.26 1468.59 Q1541.44 1470.74 1541.44 1474.49 Q1541.44 1478.22 1543.26 1480.39 Q1545.12 1482.55 1548.26 1482.55 Q1551.41 1482.55 1553.24 1480.39 Q1555.09 1478.22 1555.09 1474.49 Q1555.09 1470.74 1553.24 1468.59 Q1551.41 1466.44 1548.26 1466.44 M1557.55 1451.78 L1557.55 1456.04 Q1555.79 1455.21 1553.98 1454.77 Q1552.2 1454.33 1550.44 1454.33 Q1545.81 1454.33 1543.36 1457.45 Q1540.93 1460.58 1540.58 1466.9 Q1541.94 1464.89 1544 1463.82 Q1546.07 1462.73 1548.54 1462.73 Q1553.75 1462.73 1556.76 1465.9 Q1559.79 1469.05 1559.79 1474.49 Q1559.79 1479.82 1556.64 1483.03 Q1553.5 1486.25 1548.26 1486.25 Q1542.27 1486.25 1539.1 1481.67 Q1535.93 1477.06 1535.93 1468.33 Q1535.93 1460.14 1539.82 1455.28 Q1543.7 1450.39 1550.25 1450.39 Q1552.01 1450.39 1553.8 1450.74 Q1555.6 1451.09 1557.55 1451.78 Z" fill="#000000" fill-rule="nonzero" fill-opacity="1" /><path clip-path="url(#clip470)" d="M1950.31 1469.17 Q1946.97 1469.17 1945.05 1470.95 Q1943.15 1472.73 1943.15 1475.86 Q1943.15 1478.98 1945.05 1480.77 Q1946.97 1482.55 1950.31 1482.55 Q1953.64 1482.55 1955.56 1480.77 Q1957.48 1478.96 1957.48 1475.86 Q1957.48 1472.73 1955.56 1470.95 Q1953.66 1469.17 1950.31 1469.17 M1945.63 1467.18 Q1942.62 1466.44 1940.93 1464.38 Q1939.27 1462.32 1939.27 1459.35 Q1939.27 1455.21 1942.21 1452.8 Q1945.17 1450.39 1950.31 1450.39 Q1955.47 1450.39 1958.41 1452.8 Q1961.35 1455.21 1961.35 1459.35 Q1961.35 1462.32 1959.66 1464.38 Q1957.99 1466.44 1955.01 1467.18 Q1958.39 1467.96 1960.26 1470.26 Q1962.16 1472.55 1962.16 1475.86 Q1962.16 1480.88 1959.08 1483.57 Q1956.03 1486.25 1950.31 1486.25 Q1944.59 1486.25 1941.51 1483.57 Q1938.46 1480.88 1938.46 1475.86 Q1938.46 1472.55 1940.35 1470.26 Q1942.25 1467.96 1945.63 1467.18 M1943.92 1459.79 Q1943.92 1462.48 1945.59 1463.98 Q1947.28 1465.49 1950.31 1465.49 Q1953.32 1465.49 1955.01 1463.98 Q1956.72 1462.48 1956.72 1459.79 Q1956.72 1457.11 1955.01 1455.6 Q1953.32 1454.1 1950.31 1454.1 Q1947.28 1454.1 1945.59 1455.6 Q1943.92 1457.11 1943.92 1459.79 Z" fill="#000000" fill-rule="nonzero" fill-opacity="1" /><path clip-path="url(#clip470)" d="M2327.44 1481.64 L2335.08 1481.64 L2335.08 1455.28 L2326.77 1456.95 L2326.77 1452.69 L2335.04 1451.02 L2339.71 1451.02 L2339.71 1481.64 L2347.35 1481.64 L2347.35 1485.58 L2327.44 1485.58 L2327.44 1481.64 Z" fill="#000000" fill-rule="nonzero" fill-opacity="1" /><path clip-path="url(#clip470)" d="M2366.8 1454.1 Q2363.18 1454.1 2361.36 1457.66 Q2359.55 1461.2 2359.55 1468.33 Q2359.55 1475.44 2361.36 1479.01 Q2363.18 1482.55 2366.8 1482.55 Q2370.43 1482.55 2372.23 1479.01 Q2374.06 1475.44 2374.06 1468.33 Q2374.06 1461.2 2372.23 1457.66 Q2370.43 1454.1 2366.8 1454.1 M2366.8 1450.39 Q2372.61 1450.39 2375.66 1455 Q2378.74 1459.58 2378.74 1468.33 Q2378.74 1477.06 2375.66 1481.67 Q2372.61 1486.25 2366.8 1486.25 Q2360.99 1486.25 2357.91 1481.67 Q2354.85 1477.06 2354.85 1468.33 Q2354.85 1459.58 2357.91 1455 Q2360.99 1450.39 2366.8 1450.39 Z" fill="#000000" fill-rule="nonzero" fill-opacity="1" /><path clip-path="url(#clip470)" d="M1216.81 1520.52 L1257.01 1520.52 L1257.01 1525.93 L1240.14 1525.93 L1240.14 1568.04 L1233.68 1568.04 L1233.68 1525.93 L1216.81 1525.93 L1216.81 1520.52 Z" fill="#000000" fill-rule="nonzero" fill-opacity="1" /><path clip-path="url(#clip470)" d="M1260.95 1532.4 L1266.81 1532.4 L1266.81 1568.04 L1260.95 1568.04 L1260.95 1532.4 M1260.95 1518.52 L1266.81 1518.52 L1266.81 1525.93 L1260.95 1525.93 L1260.95 1518.52 Z" fill="#000000" fill-rule="nonzero" fill-opacity="1" /><path clip-path="url(#clip470)" d="M1306.82 1539.24 Q1309.01 1535.29 1312.07 1533.41 Q1315.12 1531.54 1319.26 1531.54 Q1324.83 1531.54 1327.86 1535.45 Q1330.88 1539.33 1330.88 1546.53 L1330.88 1568.04 L1324.99 1568.04 L1324.99 1546.72 Q1324.99 1541.59 1323.18 1539.11 Q1321.36 1536.63 1317.64 1536.63 Q1313.09 1536.63 1310.45 1539.65 Q1307.8 1542.68 1307.8 1547.9 L1307.8 1568.04 L1301.92 1568.04 L1301.92 1546.72 Q1301.92 1541.56 1300.1 1539.11 Q1298.29 1536.63 1294.5 1536.63 Q1290.01 1536.63 1287.37 1539.68 Q1284.73 1542.71 1284.73 1547.9 L1284.73 1568.04 L1278.84 1568.04 L1278.84 1532.4 L1284.73 1532.4 L1284.73 1537.93 Q1286.73 1534.66 1289.53 1533.1 Q1292.34 1531.54 1296.19 1531.54 Q1300.07 1531.54 1302.78 1533.51 Q1305.51 1535.48 1306.82 1539.24 Z" fill="#000000" fill-rule="nonzero" fill-opacity="1" /><path clip-path="url(#clip470)" d="M1373.05 1548.76 L1373.05 1551.62 L1346.13 1551.62 Q1346.51 1557.67 1349.75 1560.85 Q1353.03 1564 1358.86 1564 Q1362.23 1564 1365.38 1563.17 Q1368.56 1562.35 1371.68 1560.69 L1371.68 1566.23 Q1368.53 1567.57 1365.22 1568.27 Q1361.91 1568.97 1358.51 1568.97 Q1349.98 1568.97 1344.98 1564 Q1340.01 1559.04 1340.01 1550.57 Q1340.01 1541.82 1344.73 1536.69 Q1349.47 1531.54 1357.49 1531.54 Q1364.68 1531.54 1368.85 1536.18 Q1373.05 1540.8 1373.05 1548.76 M1367.2 1547.04 Q1367.13 1542.23 1364.49 1539.37 Q1361.88 1536.5 1357.55 1536.5 Q1352.65 1536.5 1349.69 1539.27 Q1346.76 1542.04 1346.32 1547.07 L1367.2 1547.04 Z" fill="#000000" fill-rule="nonzero" fill-opacity="1" /><path clip-path="url(#clip470)" d="M1417.45 1518.58 Q1413.19 1525.9 1411.12 1533.06 Q1409.05 1540.23 1409.05 1547.58 Q1409.05 1554.93 1411.12 1562.16 Q1413.22 1569.35 1417.45 1576.64 L1412.36 1576.64 Q1407.59 1569.16 1405.2 1561.93 Q1402.84 1554.71 1402.84 1547.58 Q1402.84 1540.48 1405.2 1533.29 Q1407.55 1526.09 1412.36 1518.58 L1417.45 1518.58 Z" fill="#000000" fill-rule="nonzero" fill-opacity="1" /><path clip-path="url(#clip470)" d="M1451.54 1533.45 L1451.54 1538.98 Q1449.06 1537.71 1446.39 1537.07 Q1443.71 1536.44 1440.85 1536.44 Q1436.49 1536.44 1434.29 1537.77 Q1432.13 1539.11 1432.13 1541.79 Q1432.13 1543.82 1433.69 1545 Q1435.25 1546.15 1439.96 1547.2 L1441.96 1547.64 Q1448.2 1548.98 1450.81 1551.43 Q1453.45 1553.85 1453.45 1558.21 Q1453.45 1563.17 1449.5 1566.07 Q1445.59 1568.97 1438.71 1568.97 Q1435.85 1568.97 1432.73 1568.39 Q1429.64 1567.85 1426.21 1566.74 L1426.21 1560.69 Q1429.45 1562.38 1432.6 1563.24 Q1435.75 1564.07 1438.84 1564.07 Q1442.98 1564.07 1445.21 1562.66 Q1447.44 1561.23 1447.44 1558.65 Q1447.44 1556.27 1445.81 1554.99 Q1444.22 1553.72 1438.78 1552.54 L1436.74 1552.07 Q1431.3 1550.92 1428.88 1548.56 Q1426.46 1546.18 1426.46 1542.04 Q1426.46 1537.01 1430.03 1534.27 Q1433.59 1531.54 1440.15 1531.54 Q1443.39 1531.54 1446.26 1532.01 Q1449.12 1532.49 1451.54 1533.45 Z" fill="#000000" fill-rule="nonzero" fill-opacity="1" /><path clip-path="url(#clip470)" d="M1461.85 1518.58 L1466.95 1518.58 Q1471.72 1526.09 1474.08 1533.29 Q1476.46 1540.48 1476.46 1547.58 Q1476.46 1554.71 1474.08 1561.93 Q1471.72 1569.16 1466.95 1576.64 L1461.85 1576.64 Q1466.09 1569.35 1468.16 1562.16 Q1470.26 1554.93 1470.26 1547.58 Q1470.26 1540.23 1468.16 1533.06 Q1466.09 1525.9 1461.85 1518.58 Z" fill="#000000" fill-rule="nonzero" fill-opacity="1" /><polyline clip-path="url(#clip470)" style="stroke:#000000; stroke-linecap:round; stroke-linejoin:round; stroke-width:4; stroke-opacity:1; fill:none" points="340.514,1423.18 340.514,47.2441 "/>
<polyline clip-path="url(#clip470)" style="stroke:#000000; stroke-linecap:round; stroke-linejoin:round; stroke-width:4; stroke-opacity:1; fill:none" points="340.514,1254.52 359.411,1254.52 "/>
<polyline clip-path="url(#clip470)" style="stroke:#000000; stroke-linecap:round; stroke-linejoin:round; stroke-width:4; stroke-opacity:1; fill:none" points="340.514,994.108 359.411,994.108 "/>
<polyline clip-path="url(#clip470)" style="stroke:#000000; stroke-linecap:round; stroke-linejoin:round; stroke-width:4; stroke-opacity:1; fill:none" points="340.514,733.697 359.411,733.697 "/>
<polyline clip-path="url(#clip470)" style="stroke:#000000; stroke-linecap:round; stroke-linejoin:round; stroke-width:4; stroke-opacity:1; fill:none" points="340.514,473.285 359.411,473.285 "/>
<polyline clip-path="url(#clip470)" style="stroke:#000000; stroke-linecap:round; stroke-linejoin:round; stroke-width:4; stroke-opacity:1; fill:none" points="340.514,212.874 359.411,212.874 "/>
<path clip-path="url(#clip470)" d="M127.686 1240.32 Q124.075 1240.32 122.246 1243.88 Q120.441 1247.42 120.441 1254.55 Q120.441 1261.66 122.246 1265.23 Q124.075 1268.77 127.686 1268.77 Q131.32 1268.77 133.126 1265.23 Q134.954 1261.66 134.954 1254.55 Q134.954 1247.42 133.126 1243.88 Q131.32 1240.32 127.686 1240.32 M127.686 1236.61 Q133.496 1236.61 136.552 1241.22 Q139.63 1245.8 139.63 1254.55 Q139.63 1263.28 136.552 1267.89 Q133.496 1272.47 127.686 1272.47 Q121.876 1272.47 118.797 1267.89 Q115.742 1263.28 115.742 1254.55 Q115.742 1245.8 118.797 1241.22 Q121.876 1236.61 127.686 1236.61 Z" fill="#000000" fill-rule="nonzero" fill-opacity="1" /><path clip-path="url(#clip470)" d="M147.848 1265.92 L152.732 1265.92 L152.732 1271.8 L147.848 1271.8 L147.848 1265.92 Z" fill="#000000" fill-rule="nonzero" fill-opacity="1" /><path clip-path="url(#clip470)" d="M172.917 1240.32 Q169.306 1240.32 167.477 1243.88 Q165.672 1247.42 165.672 1254.55 Q165.672 1261.66 167.477 1265.23 Q169.306 1268.77 172.917 1268.77 Q176.551 1268.77 178.357 1265.23 Q180.186 1261.66 180.186 1254.55 Q180.186 1247.42 178.357 1243.88 Q176.551 1240.32 172.917 1240.32 M172.917 1236.61 Q178.727 1236.61 181.783 1241.22 Q184.862 1245.8 184.862 1254.55 Q184.862 1263.28 181.783 1267.89 Q178.727 1272.47 172.917 1272.47 Q167.107 1272.47 164.028 1267.89 Q160.973 1263.28 160.973 1254.55 Q160.973 1245.8 164.028 1241.22 Q167.107 1236.61 172.917 1236.61 Z" fill="#000000" fill-rule="nonzero" fill-opacity="1" /><path clip-path="url(#clip470)" d="M207.246 1253.17 Q210.602 1253.88 212.477 1256.15 Q214.375 1258.42 214.375 1261.75 Q214.375 1266.87 210.857 1269.67 Q207.338 1272.47 200.857 1272.47 Q198.681 1272.47 196.366 1272.03 Q194.075 1271.61 191.621 1270.76 L191.621 1266.24 Q193.565 1267.38 195.88 1267.96 Q198.195 1268.54 200.718 1268.54 Q205.116 1268.54 207.408 1266.8 Q209.723 1265.06 209.723 1261.75 Q209.723 1258.7 207.57 1256.98 Q205.44 1255.25 201.621 1255.25 L197.593 1255.25 L197.593 1251.41 L201.806 1251.41 Q205.255 1251.41 207.084 1250.04 Q208.912 1248.65 208.912 1246.06 Q208.912 1243.4 207.014 1241.99 Q205.139 1240.55 201.621 1240.55 Q199.7 1240.55 197.5 1240.97 Q195.301 1241.38 192.663 1242.26 L192.663 1238.1 Q195.325 1237.36 197.639 1236.99 Q199.977 1236.61 202.037 1236.61 Q207.362 1236.61 210.463 1239.05 Q213.565 1241.45 213.565 1245.57 Q213.565 1248.44 211.922 1250.43 Q210.278 1252.4 207.246 1253.17 Z" fill="#000000" fill-rule="nonzero" fill-opacity="1" /><path clip-path="url(#clip470)" d="M233.241 1240.32 Q229.63 1240.32 227.801 1243.88 Q225.996 1247.42 225.996 1254.55 Q225.996 1261.66 227.801 1265.23 Q229.63 1268.77 233.241 1268.77 Q236.875 1268.77 238.681 1265.23 Q240.509 1261.66 240.509 1254.55 Q240.509 1247.42 238.681 1243.88 Q236.875 1240.32 233.241 1240.32 M233.241 1236.61 Q239.051 1236.61 242.107 1241.22 Q245.185 1245.8 245.185 1254.55 Q245.185 1263.28 242.107 1267.89 Q239.051 1272.47 233.241 1272.47 Q227.431 1272.47 224.352 1267.89 Q221.297 1263.28 221.297 1254.55 Q221.297 1245.8 224.352 1241.22 Q227.431 1236.61 233.241 1236.61 Z" fill="#000000" fill-rule="nonzero" fill-opacity="1" /><path clip-path="url(#clip470)" d="M266.25 1241.31 L254.445 1259.76 L266.25 1259.76 L266.25 1241.31 M265.023 1237.24 L270.903 1237.24 L270.903 1259.76 L275.833 1259.76 L275.833 1263.65 L270.903 1263.65 L270.903 1271.8 L266.25 1271.8 L266.25 1263.65 L250.648 1263.65 L250.648 1259.14 L265.023 1237.24 Z" fill="#000000" fill-rule="nonzero" fill-opacity="1" /><path clip-path="url(#clip470)" d="M283.611 1237.24 L301.967 1237.24 L301.967 1241.17 L287.893 1241.17 L287.893 1249.65 Q288.912 1249.3 289.931 1249.14 Q290.949 1248.95 291.968 1248.95 Q297.755 1248.95 301.134 1252.12 Q304.514 1255.3 304.514 1260.71 Q304.514 1266.29 301.042 1269.39 Q297.569 1272.47 291.25 1272.47 Q289.074 1272.47 286.806 1272.1 Q284.56 1271.73 282.153 1270.99 L282.153 1266.29 Q284.236 1267.42 286.458 1267.98 Q288.681 1268.54 291.157 1268.54 Q295.162 1268.54 297.5 1266.43 Q299.838 1264.32 299.838 1260.71 Q299.838 1257.1 297.5 1254.99 Q295.162 1252.89 291.157 1252.89 Q289.282 1252.89 287.407 1253.3 Q285.556 1253.72 283.611 1254.6 L283.611 1237.24 Z" fill="#000000" fill-rule="nonzero" fill-opacity="1" /><path clip-path="url(#clip470)" d="M126.783 979.907 Q123.172 979.907 121.343 983.472 Q119.538 987.013 119.538 994.143 Q119.538 1001.25 121.343 1004.81 Q123.172 1008.36 126.783 1008.36 Q130.417 1008.36 132.223 1004.81 Q134.052 1001.25 134.052 994.143 Q134.052 987.013 132.223 983.472 Q130.417 979.907 126.783 979.907 M126.783 976.203 Q132.593 976.203 135.649 980.81 Q138.728 985.393 138.728 994.143 Q138.728 1002.87 135.649 1007.48 Q132.593 1012.06 126.783 1012.06 Q120.973 1012.06 117.894 1007.48 Q114.839 1002.87 114.839 994.143 Q114.839 985.393 117.894 980.81 Q120.973 976.203 126.783 976.203 Z" fill="#000000" fill-rule="nonzero" fill-opacity="1" /><path clip-path="url(#clip470)" d="M146.945 1005.51 L151.829 1005.51 L151.829 1011.39 L146.945 1011.39 L146.945 1005.51 Z" fill="#000000" fill-rule="nonzero" fill-opacity="1" /><path clip-path="url(#clip470)" d="M172.014 979.907 Q168.403 979.907 166.575 983.472 Q164.769 987.013 164.769 994.143 Q164.769 1001.25 166.575 1004.81 Q168.403 1008.36 172.014 1008.36 Q175.649 1008.36 177.454 1004.81 Q179.283 1001.25 179.283 994.143 Q179.283 987.013 177.454 983.472 Q175.649 979.907 172.014 979.907 M172.014 976.203 Q177.825 976.203 180.88 980.81 Q183.959 985.393 183.959 994.143 Q183.959 1002.87 180.88 1007.48 Q177.825 1012.06 172.014 1012.06 Q166.204 1012.06 163.126 1007.48 Q160.07 1002.87 160.07 994.143 Q160.07 985.393 163.126 980.81 Q166.204 976.203 172.014 976.203 Z" fill="#000000" fill-rule="nonzero" fill-opacity="1" /><path clip-path="url(#clip470)" d="M206.343 992.754 Q209.699 993.472 211.574 995.74 Q213.473 998.009 213.473 1001.34 Q213.473 1006.46 209.954 1009.26 Q206.436 1012.06 199.954 1012.06 Q197.778 1012.06 195.463 1011.62 Q193.172 1011.2 190.718 1010.35 L190.718 1005.83 Q192.663 1006.97 194.977 1007.55 Q197.292 1008.12 199.815 1008.12 Q204.213 1008.12 206.505 1006.39 Q208.82 1004.65 208.82 1001.34 Q208.82 998.286 206.667 996.573 Q204.537 994.837 200.718 994.837 L196.69 994.837 L196.69 990.995 L200.903 990.995 Q204.352 990.995 206.181 989.629 Q208.01 988.24 208.01 985.648 Q208.01 982.986 206.112 981.574 Q204.237 980.138 200.718 980.138 Q198.797 980.138 196.598 980.555 Q194.399 980.972 191.76 981.851 L191.76 977.685 Q194.422 976.944 196.737 976.574 Q199.075 976.203 201.135 976.203 Q206.459 976.203 209.561 978.634 Q212.662 981.041 212.662 985.161 Q212.662 988.032 211.019 990.023 Q209.375 991.99 206.343 992.754 Z" fill="#000000" fill-rule="nonzero" fill-opacity="1" /><path clip-path="url(#clip470)" d="M232.338 979.907 Q228.727 979.907 226.898 983.472 Q225.093 987.013 225.093 994.143 Q225.093 1001.25 226.898 1004.81 Q228.727 1008.36 232.338 1008.36 Q235.972 1008.36 237.778 1004.81 Q239.607 1001.25 239.607 994.143 Q239.607 987.013 237.778 983.472 Q235.972 979.907 232.338 979.907 M232.338 976.203 Q238.148 976.203 241.204 980.81 Q244.283 985.393 244.283 994.143 Q244.283 1002.87 241.204 1007.48 Q238.148 1012.06 232.338 1012.06 Q226.528 1012.06 223.449 1007.48 Q220.394 1002.87 220.394 994.143 Q220.394 985.393 223.449 980.81 Q226.528 976.203 232.338 976.203 Z" fill="#000000" fill-rule="nonzero" fill-opacity="1" /><path clip-path="url(#clip470)" d="M265.347 980.902 L253.542 999.351 L265.347 999.351 L265.347 980.902 M264.12 976.828 L270 976.828 L270 999.351 L274.931 999.351 L274.931 1003.24 L270 1003.24 L270 1011.39 L265.347 1011.39 L265.347 1003.24 L249.746 1003.24 L249.746 998.726 L264.12 976.828 Z" fill="#000000" fill-rule="nonzero" fill-opacity="1" /><path clip-path="url(#clip470)" d="M292.662 994.976 Q289.329 994.976 287.407 996.759 Q285.509 998.541 285.509 1001.67 Q285.509 1004.79 287.407 1006.57 Q289.329 1008.36 292.662 1008.36 Q295.995 1008.36 297.917 1006.57 Q299.838 1004.77 299.838 1001.67 Q299.838 998.541 297.917 996.759 Q296.018 994.976 292.662 994.976 M287.986 992.986 Q284.977 992.245 283.287 990.185 Q281.62 988.124 281.62 985.161 Q281.62 981.018 284.56 978.611 Q287.523 976.203 292.662 976.203 Q297.824 976.203 300.764 978.611 Q303.704 981.018 303.704 985.161 Q303.704 988.124 302.014 990.185 Q300.347 992.245 297.361 992.986 Q300.741 993.773 302.616 996.064 Q304.514 998.356 304.514 1001.67 Q304.514 1006.69 301.435 1009.37 Q298.38 1012.06 292.662 1012.06 Q286.944 1012.06 283.866 1009.37 Q280.81 1006.69 280.81 1001.67 Q280.81 998.356 282.708 996.064 Q284.606 993.773 287.986 992.986 M286.273 985.601 Q286.273 988.286 287.94 989.791 Q289.63 991.296 292.662 991.296 Q295.671 991.296 297.361 989.791 Q299.074 988.286 299.074 985.601 Q299.074 982.916 297.361 981.411 Q295.671 979.907 292.662 979.907 Q289.63 979.907 287.94 981.411 Q286.273 982.916 286.273 985.601 Z" fill="#000000" fill-rule="nonzero" fill-opacity="1" /><path clip-path="url(#clip470)" d="M127.917 719.495 Q124.306 719.495 122.478 723.06 Q120.672 726.602 120.672 733.731 Q120.672 740.838 122.478 744.403 Q124.306 747.944 127.917 747.944 Q131.552 747.944 133.357 744.403 Q135.186 740.838 135.186 733.731 Q135.186 726.602 133.357 723.06 Q131.552 719.495 127.917 719.495 M127.917 715.792 Q133.728 715.792 136.783 720.398 Q139.862 724.981 139.862 733.731 Q139.862 742.458 136.783 747.065 Q133.728 751.648 127.917 751.648 Q122.107 751.648 119.029 747.065 Q115.973 742.458 115.973 733.731 Q115.973 724.981 119.029 720.398 Q122.107 715.792 127.917 715.792 Z" fill="#000000" fill-rule="nonzero" fill-opacity="1" /><path clip-path="url(#clip470)" d="M148.079 745.097 L152.964 745.097 L152.964 750.977 L148.079 750.977 L148.079 745.097 Z" fill="#000000" fill-rule="nonzero" fill-opacity="1" /><path clip-path="url(#clip470)" d="M173.149 719.495 Q169.538 719.495 167.709 723.06 Q165.903 726.602 165.903 733.731 Q165.903 740.838 167.709 744.403 Q169.538 747.944 173.149 747.944 Q176.783 747.944 178.589 744.403 Q180.417 740.838 180.417 733.731 Q180.417 726.602 178.589 723.06 Q176.783 719.495 173.149 719.495 M173.149 715.792 Q178.959 715.792 182.014 720.398 Q185.093 724.981 185.093 733.731 Q185.093 742.458 182.014 747.065 Q178.959 751.648 173.149 751.648 Q167.339 751.648 164.26 747.065 Q161.204 742.458 161.204 733.731 Q161.204 724.981 164.26 720.398 Q167.339 715.792 173.149 715.792 Z" fill="#000000" fill-rule="nonzero" fill-opacity="1" /><path clip-path="url(#clip470)" d="M207.477 732.343 Q210.834 733.06 212.709 735.329 Q214.607 737.597 214.607 740.93 Q214.607 746.046 211.088 748.847 Q207.57 751.648 201.088 751.648 Q198.912 751.648 196.598 751.208 Q194.306 750.792 191.852 749.935 L191.852 745.421 Q193.797 746.555 196.112 747.134 Q198.426 747.713 200.95 747.713 Q205.348 747.713 207.639 745.977 Q209.954 744.241 209.954 740.93 Q209.954 737.875 207.801 736.162 Q205.672 734.426 201.852 734.426 L197.825 734.426 L197.825 730.583 L202.037 730.583 Q205.487 730.583 207.315 729.218 Q209.144 727.829 209.144 725.236 Q209.144 722.574 207.246 721.162 Q205.371 719.727 201.852 719.727 Q199.931 719.727 197.732 720.144 Q195.533 720.56 192.894 721.44 L192.894 717.273 Q195.556 716.532 197.871 716.162 Q200.209 715.792 202.269 715.792 Q207.593 715.792 210.695 718.222 Q213.797 720.63 213.797 724.75 Q213.797 727.62 212.153 729.611 Q210.51 731.579 207.477 732.343 Z" fill="#000000" fill-rule="nonzero" fill-opacity="1" /><path clip-path="url(#clip470)" d="M233.472 719.495 Q229.861 719.495 228.033 723.06 Q226.227 726.602 226.227 733.731 Q226.227 740.838 228.033 744.403 Q229.861 747.944 233.472 747.944 Q237.107 747.944 238.912 744.403 Q240.741 740.838 240.741 733.731 Q240.741 726.602 238.912 723.06 Q237.107 719.495 233.472 719.495 M233.472 715.792 Q239.283 715.792 242.338 720.398 Q245.417 724.981 245.417 733.731 Q245.417 742.458 242.338 747.065 Q239.283 751.648 233.472 751.648 Q227.662 751.648 224.584 747.065 Q221.528 742.458 221.528 733.731 Q221.528 724.981 224.584 720.398 Q227.662 715.792 233.472 715.792 Z" fill="#000000" fill-rule="nonzero" fill-opacity="1" /><path clip-path="url(#clip470)" d="M253.681 716.417 L272.037 716.417 L272.037 720.352 L257.963 720.352 L257.963 728.824 Q258.982 728.477 260 728.315 Q261.019 728.13 262.037 728.13 Q267.824 728.13 271.204 731.301 Q274.583 734.472 274.583 739.889 Q274.583 745.467 271.111 748.569 Q267.639 751.648 261.32 751.648 Q259.144 751.648 256.875 751.278 Q254.63 750.907 252.222 750.167 L252.222 745.467 Q254.306 746.602 256.528 747.157 Q258.75 747.713 261.227 747.713 Q265.232 747.713 267.57 745.606 Q269.907 743.5 269.907 739.889 Q269.907 736.278 267.57 734.171 Q265.232 732.065 261.227 732.065 Q259.352 732.065 257.477 732.481 Q255.625 732.898 253.681 733.778 L253.681 716.417 Z" fill="#000000" fill-rule="nonzero" fill-opacity="1" /><path clip-path="url(#clip470)" d="M284.606 747.042 L292.245 747.042 L292.245 720.676 L283.935 722.343 L283.935 718.083 L292.199 716.417 L296.875 716.417 L296.875 747.042 L304.514 747.042 L304.514 750.977 L284.606 750.977 L284.606 747.042 Z" fill="#000000" fill-rule="nonzero" fill-opacity="1" /><path clip-path="url(#clip470)" d="M126.205 459.084 Q122.593 459.084 120.765 462.649 Q118.959 466.19 118.959 473.32 Q118.959 480.426 120.765 483.991 Q122.593 487.533 126.205 487.533 Q129.839 487.533 131.644 483.991 Q133.473 480.426 133.473 473.32 Q133.473 466.19 131.644 462.649 Q129.839 459.084 126.205 459.084 M126.205 455.38 Q132.015 455.38 135.07 459.987 Q138.149 464.57 138.149 473.32 Q138.149 482.047 135.07 486.653 Q132.015 491.236 126.205 491.236 Q120.394 491.236 117.316 486.653 Q114.26 482.047 114.26 473.32 Q114.26 464.57 117.316 459.987 Q120.394 455.38 126.205 455.38 Z" fill="#000000" fill-rule="nonzero" fill-opacity="1" /><path clip-path="url(#clip470)" d="M146.366 484.686 L151.251 484.686 L151.251 490.565 L146.366 490.565 L146.366 484.686 Z" fill="#000000" fill-rule="nonzero" fill-opacity="1" /><path clip-path="url(#clip470)" d="M171.436 459.084 Q167.825 459.084 165.996 462.649 Q164.19 466.19 164.19 473.32 Q164.19 480.426 165.996 483.991 Q167.825 487.533 171.436 487.533 Q175.07 487.533 176.876 483.991 Q178.704 480.426 178.704 473.32 Q178.704 466.19 176.876 462.649 Q175.07 459.084 171.436 459.084 M171.436 455.38 Q177.246 455.38 180.301 459.987 Q183.38 464.57 183.38 473.32 Q183.38 482.047 180.301 486.653 Q177.246 491.236 171.436 491.236 Q165.626 491.236 162.547 486.653 Q159.491 482.047 159.491 473.32 Q159.491 464.57 162.547 459.987 Q165.626 455.38 171.436 455.38 Z" fill="#000000" fill-rule="nonzero" fill-opacity="1" /><path clip-path="url(#clip470)" d="M205.764 471.931 Q209.121 472.649 210.996 474.917 Q212.894 477.186 212.894 480.519 Q212.894 485.635 209.375 488.436 Q205.857 491.236 199.375 491.236 Q197.2 491.236 194.885 490.797 Q192.593 490.38 190.139 489.524 L190.139 485.01 Q192.084 486.144 194.399 486.723 Q196.713 487.301 199.237 487.301 Q203.635 487.301 205.926 485.565 Q208.241 483.829 208.241 480.519 Q208.241 477.463 206.088 475.75 Q203.959 474.014 200.139 474.014 L196.112 474.014 L196.112 470.172 L200.325 470.172 Q203.774 470.172 205.602 468.806 Q207.431 467.417 207.431 464.825 Q207.431 462.163 205.533 460.751 Q203.658 459.315 200.139 459.315 Q198.218 459.315 196.019 459.732 Q193.82 460.149 191.181 461.028 L191.181 456.862 Q193.843 456.121 196.158 455.751 Q198.496 455.38 200.556 455.38 Q205.88 455.38 208.982 457.811 Q212.084 460.218 212.084 464.338 Q212.084 467.209 210.44 469.2 Q208.797 471.167 205.764 471.931 Z" fill="#000000" fill-rule="nonzero" fill-opacity="1" /><path clip-path="url(#clip470)" d="M231.76 459.084 Q228.148 459.084 226.32 462.649 Q224.514 466.19 224.514 473.32 Q224.514 480.426 226.32 483.991 Q228.148 487.533 231.76 487.533 Q235.394 487.533 237.199 483.991 Q239.028 480.426 239.028 473.32 Q239.028 466.19 237.199 462.649 Q235.394 459.084 231.76 459.084 M231.76 455.38 Q237.57 455.38 240.625 459.987 Q243.704 464.57 243.704 473.32 Q243.704 482.047 240.625 486.653 Q237.57 491.236 231.76 491.236 Q225.949 491.236 222.871 486.653 Q219.815 482.047 219.815 473.32 Q219.815 464.57 222.871 459.987 Q225.949 455.38 231.76 455.38 Z" fill="#000000" fill-rule="nonzero" fill-opacity="1" /><path clip-path="url(#clip470)" d="M251.968 456.005 L270.324 456.005 L270.324 459.94 L256.25 459.94 L256.25 468.413 Q257.269 468.065 258.287 467.903 Q259.306 467.718 260.324 467.718 Q266.111 467.718 269.491 470.889 Q272.87 474.061 272.87 479.477 Q272.87 485.056 269.398 488.158 Q265.926 491.236 259.607 491.236 Q257.431 491.236 255.162 490.866 Q252.917 490.496 250.509 489.755 L250.509 485.056 Q252.593 486.19 254.815 486.746 Q257.037 487.301 259.514 487.301 Q263.519 487.301 265.857 485.195 Q268.195 483.088 268.195 479.477 Q268.195 475.866 265.857 473.76 Q263.519 471.653 259.514 471.653 Q257.639 471.653 255.764 472.07 Q253.912 472.487 251.968 473.366 L251.968 456.005 Z" fill="#000000" fill-rule="nonzero" fill-opacity="1" /><path clip-path="url(#clip470)" d="M294.93 460.079 L283.125 478.528 L294.93 478.528 L294.93 460.079 M293.704 456.005 L299.583 456.005 L299.583 478.528 L304.514 478.528 L304.514 482.417 L299.583 482.417 L299.583 490.565 L294.93 490.565 L294.93 482.417 L279.329 482.417 L279.329 477.903 L293.704 456.005 Z" fill="#000000" fill-rule="nonzero" fill-opacity="1" /><path clip-path="url(#clip470)" d="M127.593 198.672 Q123.982 198.672 122.154 202.237 Q120.348 205.779 120.348 212.908 Q120.348 220.015 122.154 223.58 Q123.982 227.121 127.593 227.121 Q131.228 227.121 133.033 223.58 Q134.862 220.015 134.862 212.908 Q134.862 205.779 133.033 202.237 Q131.228 198.672 127.593 198.672 M127.593 194.969 Q133.404 194.969 136.459 199.575 Q139.538 204.158 139.538 212.908 Q139.538 221.635 136.459 226.242 Q133.404 230.825 127.593 230.825 Q121.783 230.825 118.705 226.242 Q115.649 221.635 115.649 212.908 Q115.649 204.158 118.705 199.575 Q121.783 194.969 127.593 194.969 Z" fill="#000000" fill-rule="nonzero" fill-opacity="1" /><path clip-path="url(#clip470)" d="M147.755 224.274 L152.64 224.274 L152.64 230.154 L147.755 230.154 L147.755 224.274 Z" fill="#000000" fill-rule="nonzero" fill-opacity="1" /><path clip-path="url(#clip470)" d="M172.825 198.672 Q169.214 198.672 167.385 202.237 Q165.579 205.779 165.579 212.908 Q165.579 220.015 167.385 223.58 Q169.214 227.121 172.825 227.121 Q176.459 227.121 178.264 223.58 Q180.093 220.015 180.093 212.908 Q180.093 205.779 178.264 202.237 Q176.459 198.672 172.825 198.672 M172.825 194.969 Q178.635 194.969 181.69 199.575 Q184.769 204.158 184.769 212.908 Q184.769 221.635 181.69 226.242 Q178.635 230.825 172.825 230.825 Q167.015 230.825 163.936 226.242 Q160.88 221.635 160.88 212.908 Q160.88 204.158 163.936 199.575 Q167.015 194.969 172.825 194.969 Z" fill="#000000" fill-rule="nonzero" fill-opacity="1" /><path clip-path="url(#clip470)" d="M207.153 211.52 Q210.51 212.237 212.385 214.506 Q214.283 216.774 214.283 220.107 Q214.283 225.223 210.764 228.024 Q207.246 230.825 200.764 230.825 Q198.588 230.825 196.274 230.385 Q193.982 229.969 191.528 229.112 L191.528 224.598 Q193.473 225.732 195.787 226.311 Q198.102 226.89 200.625 226.89 Q205.024 226.89 207.315 225.154 Q209.63 223.418 209.63 220.107 Q209.63 217.052 207.477 215.339 Q205.348 213.603 201.528 213.603 L197.5 213.603 L197.5 209.76 L201.713 209.76 Q205.162 209.76 206.991 208.395 Q208.82 207.006 208.82 204.413 Q208.82 201.751 206.922 200.339 Q205.047 198.904 201.528 198.904 Q199.607 198.904 197.408 199.321 Q195.209 199.737 192.57 200.617 L192.57 196.45 Q195.232 195.709 197.547 195.339 Q199.885 194.969 201.945 194.969 Q207.269 194.969 210.371 197.399 Q213.473 199.807 213.473 203.927 Q213.473 206.797 211.829 208.788 Q210.186 210.756 207.153 211.52 Z" fill="#000000" fill-rule="nonzero" fill-opacity="1" /><path clip-path="url(#clip470)" d="M233.148 198.672 Q229.537 198.672 227.709 202.237 Q225.903 205.779 225.903 212.908 Q225.903 220.015 227.709 223.58 Q229.537 227.121 233.148 227.121 Q236.783 227.121 238.588 223.58 Q240.417 220.015 240.417 212.908 Q240.417 205.779 238.588 202.237 Q236.783 198.672 233.148 198.672 M233.148 194.969 Q238.959 194.969 242.014 199.575 Q245.093 204.158 245.093 212.908 Q245.093 221.635 242.014 226.242 Q238.959 230.825 233.148 230.825 Q227.338 230.825 224.26 226.242 Q221.204 221.635 221.204 212.908 Q221.204 204.158 224.26 199.575 Q227.338 194.969 233.148 194.969 Z" fill="#000000" fill-rule="nonzero" fill-opacity="1" /><path clip-path="url(#clip470)" d="M253.357 195.594 L271.713 195.594 L271.713 199.529 L257.639 199.529 L257.639 208.001 Q258.658 207.654 259.676 207.492 Q260.695 207.307 261.713 207.307 Q267.5 207.307 270.88 210.478 Q274.259 213.649 274.259 219.066 Q274.259 224.644 270.787 227.746 Q267.315 230.825 260.995 230.825 Q258.82 230.825 256.551 230.455 Q254.306 230.084 251.898 229.344 L251.898 224.644 Q253.982 225.779 256.204 226.334 Q258.426 226.89 260.903 226.89 Q264.907 226.89 267.245 224.783 Q269.583 222.677 269.583 219.066 Q269.583 215.455 267.245 213.348 Q264.907 211.242 260.903 211.242 Q259.028 211.242 257.153 211.658 Q255.301 212.075 253.357 212.955 L253.357 195.594 Z" fill="#000000" fill-rule="nonzero" fill-opacity="1" /><path clip-path="url(#clip470)" d="M282.292 195.594 L304.514 195.594 L304.514 197.584 L291.968 230.154 L287.083 230.154 L298.889 199.529 L282.292 199.529 L282.292 195.594 Z" fill="#000000" fill-rule="nonzero" fill-opacity="1" /><path clip-path="url(#clip470)" d="M20.8447 963.55 Q20.8447 970.552 26.0645 974.69 Q31.2844 978.796 40.2919 978.796 Q49.2675 978.796 54.4874 974.69 Q59.7073 970.552 59.7073 963.55 Q59.7073 956.548 54.4874 952.474 Q49.2675 948.368 40.2919 948.368 Q31.2844 948.368 26.0645 952.474 Q20.8447 956.548 20.8447 963.55 M15.6248 963.55 Q15.6248 953.556 22.3406 947.572 Q29.0246 941.588 40.2919 941.588 Q51.5274 941.588 58.2432 947.572 Q64.9272 953.556 64.9272 963.55 Q64.9272 973.576 58.2432 979.591 Q51.5592 985.575 40.2919 985.575 Q29.0246 985.575 22.3406 979.591 Q15.6248 973.576 15.6248 963.55 Z" fill="#000000" fill-rule="nonzero" fill-opacity="1" /><path clip-path="url(#clip470)" d="M46.212 906.195 Q39.7508 906.195 36.0905 908.868 Q32.3984 911.51 32.3984 916.157 Q32.3984 920.804 36.0905 923.478 Q39.7508 926.12 46.212 926.12 Q52.6732 926.12 56.3653 923.478 Q60.0256 920.804 60.0256 916.157 Q60.0256 911.51 56.3653 908.868 Q52.6732 906.195 46.212 906.195 M33.7671 926.12 Q30.5842 924.273 29.0564 921.473 Q27.4968 918.64 27.4968 914.725 Q27.4968 908.232 32.6531 904.19 Q37.8093 900.116 46.212 900.116 Q54.6147 900.116 59.771 904.19 Q64.9272 908.232 64.9272 914.725 Q64.9272 918.64 63.3994 921.473 Q61.8398 924.273 58.657 926.12 L64.0042 926.12 L64.0042 932.008 L14.479 932.008 L14.479 926.12 L33.7671 926.12 Z" fill="#000000" fill-rule="nonzero" fill-opacity="1" /><path clip-path="url(#clip470)" d="M28.3562 890.408 L28.3562 884.551 L64.6407 884.551 Q71.452 884.551 74.5076 887.161 Q77.5631 889.739 77.5631 895.5 L77.5631 897.728 L72.5979 897.728 L72.5979 896.169 Q72.5979 892.827 71.0383 891.617 Q69.5105 890.408 64.6407 890.408 L28.3562 890.408 M14.479 890.408 L14.479 884.551 L21.895 884.551 L21.895 890.408 L14.479 890.408 Z" fill="#000000" fill-rule="nonzero" fill-opacity="1" /><path clip-path="url(#clip470)" d="M44.7161 841.806 L47.5806 841.806 L47.5806 868.733 Q53.6281 868.351 56.8109 865.104 Q59.9619 861.826 59.9619 856.001 Q59.9619 852.627 59.1344 849.476 Q58.3069 846.294 56.6518 843.174 L62.1899 843.174 Q63.5267 846.325 64.227 849.636 Q64.9272 852.946 64.9272 856.351 Q64.9272 864.881 59.9619 869.878 Q54.9967 874.844 46.5303 874.844 Q37.7774 874.844 32.6531 870.133 Q27.4968 865.391 27.4968 857.37 Q27.4968 850.177 32.1438 846.007 Q36.7589 841.806 44.7161 841.806 M42.9973 847.662 Q38.1912 847.726 35.3266 850.368 Q32.4621 852.978 32.4621 857.306 Q32.4621 862.208 35.2312 865.168 Q38.0002 868.096 43.0292 868.542 L42.9973 847.662 Z" fill="#000000" fill-rule="nonzero" fill-opacity="1" /><path clip-path="url(#clip470)" d="M29.7248 806.54 L35.1993 806.54 Q33.8307 809.022 33.1623 811.537 Q32.4621 814.019 32.4621 816.566 Q32.4621 822.263 36.0905 825.414 Q39.6872 828.565 46.212 828.565 Q52.7369 828.565 56.3653 825.414 Q59.9619 822.263 59.9619 816.566 Q59.9619 814.019 59.2935 811.537 Q58.5933 809.022 57.2247 806.54 L62.6355 806.54 Q63.7814 808.991 64.3543 811.632 Q64.9272 814.242 64.9272 817.202 Q64.9272 825.255 59.8664 829.997 Q54.8057 834.74 46.212 834.74 Q37.491 834.74 32.4939 829.966 Q27.4968 825.159 27.4968 816.82 Q27.4968 814.115 28.0697 811.537 Q28.6108 808.959 29.7248 806.54 Z" fill="#000000" fill-rule="nonzero" fill-opacity="1" /><path clip-path="url(#clip470)" d="M18.2347 790.562 L28.3562 790.562 L28.3562 778.499 L32.9077 778.499 L32.9077 790.562 L52.2594 790.562 Q56.6199 790.562 57.8613 789.384 Q59.1026 788.175 59.1026 784.514 L59.1026 778.499 L64.0042 778.499 L64.0042 784.514 Q64.0042 791.294 61.4897 793.872 Q58.9434 796.45 52.2594 796.45 L32.9077 796.45 L32.9077 800.747 L28.3562 800.747 L28.3562 796.45 L18.2347 796.45 L18.2347 790.562 Z" fill="#000000" fill-rule="nonzero" fill-opacity="1" /><path clip-path="url(#clip470)" d="M28.3562 770.796 L28.3562 764.94 L64.0042 764.94 L64.0042 770.796 L28.3562 770.796 M14.479 770.796 L14.479 764.94 L21.895 764.94 L21.895 770.796 L14.479 770.796 Z" fill="#000000" fill-rule="nonzero" fill-opacity="1" /><path clip-path="url(#clip470)" d="M28.3562 756.887 L28.3562 750.681 L58.275 739.541 L28.3562 728.401 L28.3562 722.194 L64.0042 735.562 L64.0042 743.519 L28.3562 756.887 Z" fill="#000000" fill-rule="nonzero" fill-opacity="1" /><path clip-path="url(#clip470)" d="M44.7161 683.618 L47.5806 683.618 L47.5806 710.545 Q53.6281 710.163 56.8109 706.916 Q59.9619 703.638 59.9619 697.813 Q59.9619 694.44 59.1344 691.289 Q58.3069 688.106 56.6518 684.987 L62.1899 684.987 Q63.5267 688.138 64.227 691.448 Q64.9272 694.758 64.9272 698.164 Q64.9272 706.694 59.9619 711.691 Q54.9967 716.656 46.5303 716.656 Q37.7774 716.656 32.6531 711.945 Q27.4968 707.203 27.4968 699.182 Q27.4968 691.989 32.1438 687.819 Q36.7589 683.618 44.7161 683.618 M42.9973 689.474 Q38.1912 689.538 35.3266 692.18 Q32.4621 694.79 32.4621 699.118 Q32.4621 704.02 35.2312 706.98 Q38.0002 709.908 43.0292 710.354 L42.9973 689.474 Z" fill="#000000" fill-rule="nonzero" fill-opacity="1" /><path clip-path="url(#clip470)" d="M28.3562 657.487 L28.3562 651.28 L58.275 640.14 L28.3562 629 L28.3562 622.794 L64.0042 636.162 L64.0042 644.119 L28.3562 657.487 Z" fill="#000000" fill-rule="nonzero" fill-opacity="1" /><path clip-path="url(#clip470)" d="M46.0847 598.508 Q46.0847 605.606 47.7079 608.343 Q49.3312 611.081 53.2461 611.081 Q56.3653 611.081 58.2114 609.044 Q60.0256 606.975 60.0256 603.442 Q60.0256 598.572 56.5881 595.644 Q53.1188 592.684 47.3897 592.684 L46.0847 592.684 L46.0847 598.508 M43.6657 586.827 L64.0042 586.827 L64.0042 592.684 L58.5933 592.684 Q61.8398 594.689 63.3994 597.681 Q64.9272 600.673 64.9272 605.001 Q64.9272 610.476 61.8716 613.722 Q58.7843 616.937 53.6281 616.937 Q47.6125 616.937 44.5569 612.927 Q41.5014 608.885 41.5014 600.896 L41.5014 592.684 L40.9285 592.684 Q36.8862 592.684 34.6901 595.357 Q32.4621 597.999 32.4621 602.805 Q32.4621 605.861 33.1941 608.757 Q33.9262 611.654 35.3903 614.327 L29.9795 614.327 Q28.7381 611.113 28.1334 608.089 Q27.4968 605.065 27.4968 602.201 Q27.4968 594.466 31.5072 590.647 Q35.5176 586.827 43.6657 586.827 Z" fill="#000000" fill-rule="nonzero" fill-opacity="1" /><path clip-path="url(#clip470)" d="M14.479 574.764 L14.479 568.908 L64.0042 568.908 L64.0042 574.764 L14.479 574.764 Z" fill="#000000" fill-rule="nonzero" fill-opacity="1" /><path clip-path="url(#clip470)" d="M49.9359 557.259 L28.3562 557.259 L28.3562 551.402 L49.7131 551.402 Q54.7739 551.402 57.3202 549.429 Q59.8346 547.455 59.8346 543.509 Q59.8346 538.766 56.8109 536.029 Q53.7872 533.26 48.5673 533.26 L28.3562 533.26 L28.3562 527.403 L64.0042 527.403 L64.0042 533.26 L58.5296 533.26 Q61.7762 535.392 63.3676 538.225 Q64.9272 541.026 64.9272 544.75 Q64.9272 550.893 61.1078 554.076 Q57.2883 557.259 49.9359 557.259 M27.4968 542.522 L27.4968 542.522 Z" fill="#000000" fill-rule="nonzero" fill-opacity="1" /><path clip-path="url(#clip470)" d="M44.7161 484.849 L47.5806 484.849 L47.5806 511.776 Q53.6281 511.394 56.8109 508.147 Q59.9619 504.869 59.9619 499.044 Q59.9619 495.67 59.1344 492.519 Q58.3069 489.337 56.6518 486.217 L62.1899 486.217 Q63.5267 489.368 64.227 492.679 Q64.9272 495.989 64.9272 499.394 Q64.9272 507.924 59.9619 512.921 Q54.9967 517.887 46.5303 517.887 Q37.7774 517.887 32.6531 513.176 Q27.4968 508.434 27.4968 500.413 Q27.4968 493.22 32.1438 489.05 Q36.7589 484.849 44.7161 484.849 M42.9973 490.705 Q38.1912 490.769 35.3266 493.411 Q32.4621 496.021 32.4621 500.349 Q32.4621 505.251 35.2312 508.211 Q38.0002 511.139 43.0292 511.585 L42.9973 490.705 Z" fill="#000000" fill-rule="nonzero" fill-opacity="1" /><polyline clip-path="url(#clip472)" style="stroke:#009af9; stroke-linecap:round; stroke-linejoin:round; stroke-width:8; stroke-opacity:1; fill:none" points="340.514,167.483 374.118,463.939 405.912,644.294 485.798,775.504 531.476,864.27 564.879,917.005 595.062,972.315 623.837,1016.54 653.015,1055.78 681.186,1089.77 710.968,1126.61 740.749,1164.65 771.134,1202.27 799.707,1235.95 828.684,1263.84 857.258,1284.23 888.447,1298.81 916.619,1310.1 947.205,1320.25 975.577,1329.69 1004.55,1337.77 1032.32,1344.89 1060.7,1352.02 1089.27,1359.2 1118.85,1365.62 1150.84,1370.71 1184.65,1374.63 1218.45,1377.55 1247.23,1379.45 1275.2,1380.51 1305.18,1381.16 1334.96,1381.71 1364.14,1382.23 1392.72,1382.69 1421.29,1383.06 1449.86,1383.34 1478.03,1383.59 1506.81,1383.8 1534.78,1383.95 1564.96,1384.04 1594.54,1384.1 1623.32,1384.15 1651.89,1384.2 1682.28,1384.22 1710.45,1384.24 "/>
<polyline clip-path="url(#clip472)" style="stroke:#e26f46; stroke-linecap:round; stroke-linejoin:round; stroke-width:8; stroke-opacity:1; fill:none" points="340.514,86.1857 402.491,382.098 435.894,562.221 468.694,693.667 551.397,782.475 597.075,835.341 632.691,890.807 661.869,935.206 692.254,974.522 723.242,1008.55 751.816,1045.43 780.792,1083.59 809.165,1121.35 838.946,1155.11 869.331,1183.05 901.326,1203.42 931.107,1217.97 959.681,1229.23 989.663,1239.36 1021.26,1248.73 1051.84,1256.76 1082.43,1263.95 1111,1271.28 1140.38,1278.6 1170.56,1284.92 1199.54,1289.81 1226.91,1293.62 1256.89,1296.58 1285.66,1298.59 1314.84,1299.73 1343.21,1300.42 1371.79,1300.96 1399.76,1301.47 1428.13,1301.93 1456.1,1302.29 1485.08,1302.57 1513.25,1302.81 1541.62,1303.03 1570.4,1303.18 1599.37,1303.28 1626.94,1303.34 1655.31,1303.4 1683.08,1303.44 1712.06,1303.47 1743.05,1303.49 1771.82,1303.5 1800.8,1303.51 1829.37,1303.53 1857.34,1303.53 1889.34,1303.54 1920.53,1303.55 1952.32,1303.56 1983.11,1303.56 2011.48,1303.56 2040.25,1303.56 2069.83,1303.56 "/>
<polyline clip-path="url(#clip472)" style="stroke:#3da44d; stroke-linecap:round; stroke-linejoin:round; stroke-width:8; stroke-opacity:1; fill:none" points="340.514,167.483 376.935,463.939 415.369,643.341 460.443,770.652 498.676,851.774 550.592,894.685 586.007,933.556 623.837,960.42 660.46,980.38 701.309,994.537 738.334,1007.5 774.957,1019.6 811.378,1031.6 852.831,1044.04 889.856,1056.79 926.881,1068.36 965.516,1078.37 1005.56,1087.85 1043.59,1098.16 1082.63,1109.58 1120.06,1121.63 1155.87,1134.89 1190.89,1151.37 1227.91,1172.27 1269.36,1196.24 1305.59,1221.52 1342.21,1247.04 1380.24,1271.18 1416.86,1290.92 1453.89,1302.52 1493.73,1307.66 1530.35,1310.5 1570.8,1313.44 1605.61,1316.69 1642.43,1319.98 1678.86,1323.04 1714.47,1326.26 1751.9,1330.53 1799.19,1336.83 1843.46,1345.08 1884.71,1353.28 1929.18,1359.44 1973.85,1363.83 2018.12,1367.32 2059.37,1369.87 2096.4,1371.37 2133.82,1372.29 2172.06,1373.1 2215.52,1373.93 2257.38,1374.68 2299.23,1375.36 2339.27,1376.09 2374.89,1376.91 "/>
<polyline clip-path="url(#clip472)" style="stroke:#c271d2; stroke-linecap:round; stroke-linejoin:round; stroke-width:8; stroke-opacity:1; fill:none" points="340.514,167.483 528.055,468.713 654.021,659.877 767.914,798.941 939.156,890.047 1068.54,940.666 1242.2,985.329 1366.96,1018.01 1490.51,1043.17 1653.1,1060.73 1783.9,1076.69 1945.68,1091.81 2077.88,1106.95 2197.01,1122.93 2372.27,1139.63 "/>
<polyline clip-path="url(#clip472)" style="stroke:#ac8d18; stroke-linecap:round; stroke-linejoin:round; stroke-width:8; stroke-opacity:1; fill:none" points="340.514,167.483 792.866,463.939 966.321,635.801 1087.66,794.359 1260.11,870.079 1394.53,919.496 1504.6,945.981 1616.48,966.334 1777.25,983.716 1916.1,992.036 2028.58,996.851 2141.27,1000.76 2254.76,1004.52 2365.63,1005.68 "/>
<polyline clip-path="url(#clip472)" style="stroke:#00a9ad; stroke-linecap:round; stroke-linejoin:round; stroke-width:8; stroke-opacity:1; fill:none" points="340.514,167.483 923.662,463.939 1194.51,635.801 1439.6,794.359 1689.32,870.079 1893.56,919.496 2157.97,945.981 2368.65,966.334 "/>
<polyline clip-path="url(#clip472)" style="stroke:#ed5d92; stroke-linecap:round; stroke-linejoin:round; stroke-width:8; stroke-opacity:1; fill:none" points="340.514,167.483 870.136,463.939 1096.11,643.103 1309.21,769.557 1586.7,849.168 1796.77,890.2 2003.83,925.985 2210.49,949.488 2415.54,965.533 "/>
<path clip-path="url(#clip470)" d="M1596.03 507.829 L2285.68 507.829 L2285.68 93.1086 L1596.03 93.1086  Z" fill="#ffffff" fill-rule="evenodd" fill-opacity="1"/>
<polyline clip-path="url(#clip470)" style="stroke:#000000; stroke-linecap:round; stroke-linejoin:round; stroke-width:4; stroke-opacity:1; fill:none" points="1596.03,507.829 2285.68,507.829 2285.68,93.1086 1596.03,93.1086 1596.03,507.829 "/>
<polyline clip-path="url(#clip470)" style="stroke:#009af9; stroke-linecap:round; stroke-linejoin:round; stroke-width:8; stroke-opacity:1; fill:none" points="1618.39,144.949 1752.54,144.949 "/>
<path clip-path="url(#clip470)" d="M1779.58 145.724 L1779.58 158.386 L1787.08 158.386 Q1790.85 158.386 1792.65 156.835 Q1794.48 155.261 1794.48 152.043 Q1794.48 148.803 1792.65 147.275 Q1790.85 145.724 1787.08 145.724 L1779.58 145.724 M1779.58 131.511 L1779.58 141.928 L1786.5 141.928 Q1789.92 141.928 1791.59 140.655 Q1793.28 139.358 1793.28 136.719 Q1793.28 134.104 1791.59 132.807 Q1789.92 131.511 1786.5 131.511 L1779.58 131.511 M1774.9 127.669 L1786.84 127.669 Q1792.19 127.669 1795.08 129.891 Q1797.98 132.113 1797.98 136.21 Q1797.98 139.382 1796.5 141.257 Q1795.02 143.131 1792.14 143.594 Q1795.59 144.335 1797.49 146.696 Q1799.41 149.034 1799.41 152.553 Q1799.41 157.182 1796.27 159.705 Q1793.12 162.229 1787.31 162.229 L1774.9 162.229 L1774.9 127.669 Z" fill="#000000" fill-rule="nonzero" fill-opacity="1" /><path clip-path="url(#clip470)" d="M1807.42 127.669 L1827.28 127.669 L1827.28 131.604 L1812.1 131.604 L1812.1 141.789 L1825.8 141.789 L1825.8 145.724 L1812.1 145.724 L1812.1 162.229 L1807.42 162.229 L1807.42 127.669 Z" fill="#000000" fill-rule="nonzero" fill-opacity="1" /><path clip-path="url(#clip470)" d="M1858.26 157.298 L1858.26 148.016 L1850.62 148.016 L1850.62 144.173 L1862.89 144.173 L1862.89 159.011 Q1860.18 160.932 1856.91 161.928 Q1853.65 162.9 1849.95 162.9 Q1841.84 162.9 1837.26 158.178 Q1832.7 153.432 1832.7 144.983 Q1832.7 136.511 1837.26 131.789 Q1841.84 127.044 1849.95 127.044 Q1853.33 127.044 1856.36 127.877 Q1859.41 128.71 1861.98 130.331 L1861.98 135.307 Q1859.39 133.108 1856.47 131.997 Q1853.56 130.886 1850.34 130.886 Q1844 130.886 1840.8 134.428 Q1837.63 137.969 1837.63 144.983 Q1837.63 151.974 1840.8 155.516 Q1844 159.057 1850.34 159.057 Q1852.82 159.057 1854.76 158.641 Q1856.7 158.201 1858.26 157.298 Z" fill="#000000" fill-rule="nonzero" fill-opacity="1" /><path clip-path="url(#clip470)" d="M1892.14 128.803 L1892.14 133.363 Q1889.48 132.09 1887.12 131.465 Q1884.76 130.84 1882.56 130.84 Q1878.74 130.84 1876.66 132.321 Q1874.6 133.803 1874.6 136.534 Q1874.6 138.826 1875.96 140.007 Q1877.35 141.164 1881.2 141.882 L1884.02 142.46 Q1889.25 143.456 1891.73 145.979 Q1894.23 148.479 1894.23 152.692 Q1894.23 157.715 1890.85 160.307 Q1887.49 162.9 1880.99 162.9 Q1878.53 162.9 1875.76 162.344 Q1873 161.789 1870.04 160.701 L1870.04 155.886 Q1872.89 157.483 1875.62 158.293 Q1878.35 159.104 1880.99 159.104 Q1884.99 159.104 1887.17 157.53 Q1889.34 155.956 1889.34 153.039 Q1889.34 150.493 1887.77 149.057 Q1886.22 147.622 1882.65 146.905 L1879.81 146.349 Q1874.58 145.307 1872.24 143.085 Q1869.9 140.863 1869.9 136.905 Q1869.9 132.321 1873.12 129.682 Q1876.36 127.044 1882.03 127.044 Q1884.46 127.044 1886.98 127.483 Q1889.51 127.923 1892.14 128.803 Z" fill="#000000" fill-rule="nonzero" fill-opacity="1" /><polyline clip-path="url(#clip470)" style="stroke:#e26f46; stroke-linecap:round; stroke-linejoin:round; stroke-width:8; stroke-opacity:1; fill:none" points="1618.39,196.789 1752.54,196.789 "/>
<path clip-path="url(#clip470)" d="M1774.9 179.509 L1779.58 179.509 L1779.58 210.133 L1796.4 210.133 L1796.4 214.069 L1774.9 214.069 L1774.9 179.509 Z" fill="#000000" fill-rule="nonzero" fill-opacity="1" /><path clip-path="url(#clip470)" d="M1805.99 197.564 L1805.99 210.226 L1813.49 210.226 Q1817.26 210.226 1819.07 208.675 Q1820.89 207.101 1820.89 203.883 Q1820.89 200.643 1819.07 199.115 Q1817.26 197.564 1813.49 197.564 L1805.99 197.564 M1805.99 183.351 L1805.99 193.768 L1812.91 193.768 Q1816.33 193.768 1818 192.495 Q1819.69 191.198 1819.69 188.559 Q1819.69 185.944 1818 184.647 Q1816.33 183.351 1812.91 183.351 L1805.99 183.351 M1801.31 179.509 L1813.26 179.509 Q1818.6 179.509 1821.5 181.731 Q1824.39 183.953 1824.39 188.05 Q1824.39 191.222 1822.91 193.097 Q1821.43 194.971 1818.56 195.434 Q1822.01 196.175 1823.9 198.536 Q1825.83 200.874 1825.83 204.393 Q1825.83 209.022 1822.68 211.545 Q1819.53 214.069 1813.72 214.069 L1801.31 214.069 L1801.31 179.509 Z" fill="#000000" fill-rule="nonzero" fill-opacity="1" /><path clip-path="url(#clip470)" d="M1833.83 179.509 L1853.7 179.509 L1853.7 183.444 L1838.51 183.444 L1838.51 193.629 L1852.21 193.629 L1852.21 197.564 L1838.51 197.564 L1838.51 214.069 L1833.83 214.069 L1833.83 179.509 Z" fill="#000000" fill-rule="nonzero" fill-opacity="1" /><path clip-path="url(#clip470)" d="M1884.67 209.138 L1884.67 199.856 L1877.03 199.856 L1877.03 196.013 L1889.3 196.013 L1889.3 210.851 Q1886.59 212.772 1883.32 213.768 Q1880.06 214.74 1876.36 214.74 Q1868.26 214.74 1863.67 210.018 Q1859.11 205.272 1859.11 196.823 Q1859.11 188.351 1863.67 183.629 Q1868.26 178.884 1876.36 178.884 Q1879.74 178.884 1882.77 179.717 Q1885.82 180.55 1888.39 182.171 L1888.39 187.147 Q1885.8 184.948 1882.89 183.837 Q1879.97 182.726 1876.75 182.726 Q1870.41 182.726 1867.21 186.268 Q1864.04 189.809 1864.04 196.823 Q1864.04 203.814 1867.21 207.356 Q1870.41 210.897 1876.75 210.897 Q1879.23 210.897 1881.17 210.481 Q1883.12 210.041 1884.67 209.138 Z" fill="#000000" fill-rule="nonzero" fill-opacity="1" /><path clip-path="url(#clip470)" d="M1918.56 180.643 L1918.56 185.203 Q1915.89 183.93 1913.53 183.305 Q1911.17 182.68 1908.97 182.68 Q1905.15 182.68 1903.07 184.161 Q1901.01 185.643 1901.01 188.374 Q1901.01 190.666 1902.38 191.847 Q1903.76 193.004 1907.61 193.722 L1910.43 194.3 Q1915.66 195.296 1918.14 197.819 Q1920.64 200.319 1920.64 204.532 Q1920.64 209.555 1917.26 212.147 Q1913.9 214.74 1907.4 214.74 Q1904.95 214.74 1902.17 214.184 Q1899.41 213.629 1896.45 212.541 L1896.45 207.726 Q1899.3 209.323 1902.03 210.133 Q1904.76 210.944 1907.4 210.944 Q1911.4 210.944 1913.58 209.37 Q1915.76 207.796 1915.76 204.879 Q1915.76 202.333 1914.18 200.897 Q1912.63 199.462 1909.07 198.745 L1906.22 198.189 Q1900.99 197.147 1898.65 194.925 Q1896.31 192.703 1896.31 188.745 Q1896.31 184.161 1899.53 181.522 Q1902.77 178.884 1908.44 178.884 Q1910.87 178.884 1913.39 179.323 Q1915.92 179.763 1918.56 180.643 Z" fill="#000000" fill-rule="nonzero" fill-opacity="1" /><polyline clip-path="url(#clip470)" style="stroke:#3da44d; stroke-linecap:round; stroke-linejoin:round; stroke-width:8; stroke-opacity:1; fill:none" points="1618.39,248.629 1752.54,248.629 "/>
<path clip-path="url(#clip470)" d="M1797.14 232.483 L1797.14 237.043 Q1794.48 235.77 1792.12 235.145 Q1789.76 234.52 1787.56 234.52 Q1783.74 234.52 1781.66 236.001 Q1779.6 237.483 1779.6 240.214 Q1779.6 242.506 1780.96 243.687 Q1782.35 244.844 1786.2 245.562 L1789.02 246.14 Q1794.25 247.136 1796.73 249.659 Q1799.23 252.159 1799.23 256.372 Q1799.23 261.395 1795.85 263.987 Q1792.49 266.58 1785.99 266.58 Q1783.53 266.58 1780.76 266.024 Q1778 265.469 1775.04 264.381 L1775.04 259.566 Q1777.89 261.163 1780.62 261.973 Q1783.35 262.784 1785.99 262.784 Q1789.99 262.784 1792.17 261.21 Q1794.34 259.636 1794.34 256.719 Q1794.34 254.173 1792.77 252.737 Q1791.22 251.302 1787.65 250.585 L1784.81 250.029 Q1779.58 248.987 1777.24 246.765 Q1774.9 244.543 1774.9 240.585 Q1774.9 236.001 1778.12 233.362 Q1781.36 230.724 1787.03 230.724 Q1789.46 230.724 1791.98 231.163 Q1794.51 231.603 1797.14 232.483 Z" fill="#000000" fill-rule="nonzero" fill-opacity="1" /><path clip-path="url(#clip470)" d="M1826.52 244.96 Q1828.12 242.089 1830.34 240.724 Q1832.56 239.358 1835.57 239.358 Q1839.62 239.358 1841.82 242.205 Q1844.02 245.029 1844.02 250.261 L1844.02 265.909 L1839.74 265.909 L1839.74 250.399 Q1839.74 246.673 1838.42 244.867 Q1837.1 243.062 1834.39 243.062 Q1831.08 243.062 1829.16 245.261 Q1827.24 247.46 1827.24 251.256 L1827.24 265.909 L1822.95 265.909 L1822.95 250.399 Q1822.95 246.649 1821.64 244.867 Q1820.32 243.062 1817.56 243.062 Q1814.3 243.062 1812.38 245.284 Q1810.45 247.483 1810.45 251.256 L1810.45 265.909 L1806.17 265.909 L1806.17 239.983 L1810.45 239.983 L1810.45 244.011 Q1811.91 241.626 1813.95 240.492 Q1815.99 239.358 1818.79 239.358 Q1821.61 239.358 1823.58 240.793 Q1825.57 242.228 1826.52 244.96 Z" fill="#000000" fill-rule="nonzero" fill-opacity="1" /><path clip-path="url(#clip470)" d="M1862.56 242.969 Q1859.14 242.969 1857.14 245.654 Q1855.15 248.316 1855.15 252.969 Q1855.15 257.622 1857.12 260.307 Q1859.11 262.969 1862.56 262.969 Q1865.96 262.969 1867.95 260.284 Q1869.95 257.598 1869.95 252.969 Q1869.95 248.362 1867.95 245.677 Q1865.96 242.969 1862.56 242.969 M1862.56 239.358 Q1868.12 239.358 1871.29 242.969 Q1874.46 246.58 1874.46 252.969 Q1874.46 259.335 1871.29 262.969 Q1868.12 266.58 1862.56 266.58 Q1856.98 266.58 1853.81 262.969 Q1850.66 259.335 1850.66 252.969 Q1850.66 246.58 1853.81 242.969 Q1856.98 239.358 1862.56 239.358 Z" fill="#000000" fill-rule="nonzero" fill-opacity="1" /><path clip-path="url(#clip470)" d="M1891.57 242.969 Q1888.14 242.969 1886.15 245.654 Q1884.16 248.316 1884.16 252.969 Q1884.16 257.622 1886.13 260.307 Q1888.12 262.969 1891.57 262.969 Q1894.97 262.969 1896.96 260.284 Q1898.95 257.598 1898.95 252.969 Q1898.95 248.362 1896.96 245.677 Q1894.97 242.969 1891.57 242.969 M1891.57 239.358 Q1897.12 239.358 1900.29 242.969 Q1903.46 246.58 1903.46 252.969 Q1903.46 259.335 1900.29 262.969 Q1897.12 266.58 1891.57 266.58 Q1885.99 266.58 1882.82 262.969 Q1879.67 259.335 1879.67 252.969 Q1879.67 246.58 1882.82 242.969 Q1885.99 239.358 1891.57 239.358 Z" fill="#000000" fill-rule="nonzero" fill-opacity="1" /><path clip-path="url(#clip470)" d="M1914.74 232.622 L1914.74 239.983 L1923.51 239.983 L1923.51 243.293 L1914.74 243.293 L1914.74 257.367 Q1914.74 260.538 1915.59 261.441 Q1916.47 262.344 1919.13 262.344 L1923.51 262.344 L1923.51 265.909 L1919.13 265.909 Q1914.2 265.909 1912.33 264.08 Q1910.45 262.228 1910.45 257.367 L1910.45 243.293 L1907.33 243.293 L1907.33 239.983 L1910.45 239.983 L1910.45 232.622 L1914.74 232.622 Z" fill="#000000" fill-rule="nonzero" fill-opacity="1" /><path clip-path="url(#clip470)" d="M1950.66 250.261 L1950.66 265.909 L1946.4 265.909 L1946.4 250.399 Q1946.4 246.719 1944.97 244.89 Q1943.53 243.062 1940.66 243.062 Q1937.21 243.062 1935.22 245.261 Q1933.23 247.46 1933.23 251.256 L1933.23 265.909 L1928.95 265.909 L1928.95 229.89 L1933.23 229.89 L1933.23 244.011 Q1934.76 241.673 1936.82 240.515 Q1938.9 239.358 1941.61 239.358 Q1946.08 239.358 1948.37 242.136 Q1950.66 244.89 1950.66 250.261 Z" fill="#000000" fill-rule="nonzero" fill-opacity="1" /><polyline clip-path="url(#clip470)" style="stroke:#c271d2; stroke-linecap:round; stroke-linejoin:round; stroke-width:8; stroke-opacity:1; fill:none" points="1618.39,300.469 1752.54,300.469 "/>
<path clip-path="url(#clip470)" d="M1797.14 284.323 L1797.14 288.883 Q1794.48 287.61 1792.12 286.985 Q1789.76 286.36 1787.56 286.36 Q1783.74 286.36 1781.66 287.841 Q1779.6 289.323 1779.6 292.054 Q1779.6 294.346 1780.96 295.527 Q1782.35 296.684 1786.2 297.402 L1789.02 297.98 Q1794.25 298.976 1796.73 301.499 Q1799.23 303.999 1799.23 308.212 Q1799.23 313.235 1795.85 315.827 Q1792.49 318.42 1785.99 318.42 Q1783.53 318.42 1780.76 317.864 Q1778 317.309 1775.04 316.221 L1775.04 311.406 Q1777.89 313.003 1780.62 313.813 Q1783.35 314.624 1785.99 314.624 Q1789.99 314.624 1792.17 313.05 Q1794.34 311.476 1794.34 308.559 Q1794.34 306.013 1792.77 304.577 Q1791.22 303.142 1787.65 302.425 L1784.81 301.869 Q1779.58 300.827 1777.24 298.605 Q1774.9 296.383 1774.9 292.425 Q1774.9 287.841 1778.12 285.202 Q1781.36 282.564 1787.03 282.564 Q1789.46 282.564 1791.98 283.003 Q1794.51 283.443 1797.14 284.323 Z" fill="#000000" fill-rule="nonzero" fill-opacity="1" /><path clip-path="url(#clip470)" d="M1826.52 296.8 Q1828.12 293.929 1830.34 292.564 Q1832.56 291.198 1835.57 291.198 Q1839.62 291.198 1841.82 294.045 Q1844.02 296.869 1844.02 302.101 L1844.02 317.749 L1839.74 317.749 L1839.74 302.239 Q1839.74 298.513 1838.42 296.707 Q1837.1 294.902 1834.39 294.902 Q1831.08 294.902 1829.16 297.101 Q1827.24 299.3 1827.24 303.096 L1827.24 317.749 L1822.95 317.749 L1822.95 302.239 Q1822.95 298.489 1821.64 296.707 Q1820.32 294.902 1817.56 294.902 Q1814.3 294.902 1812.38 297.124 Q1810.45 299.323 1810.45 303.096 L1810.45 317.749 L1806.17 317.749 L1806.17 291.823 L1810.45 291.823 L1810.45 295.851 Q1811.91 293.466 1813.95 292.332 Q1815.99 291.198 1818.79 291.198 Q1821.61 291.198 1823.58 292.633 Q1825.57 294.068 1826.52 296.8 Z" fill="#000000" fill-rule="nonzero" fill-opacity="1" /><path clip-path="url(#clip470)" d="M1862.56 294.809 Q1859.14 294.809 1857.14 297.494 Q1855.15 300.156 1855.15 304.809 Q1855.15 309.462 1857.12 312.147 Q1859.11 314.809 1862.56 314.809 Q1865.96 314.809 1867.95 312.124 Q1869.95 309.438 1869.95 304.809 Q1869.95 300.202 1867.95 297.517 Q1865.96 294.809 1862.56 294.809 M1862.56 291.198 Q1868.12 291.198 1871.29 294.809 Q1874.46 298.42 1874.46 304.809 Q1874.46 311.175 1871.29 314.809 Q1868.12 318.42 1862.56 318.42 Q1856.98 318.42 1853.81 314.809 Q1850.66 311.175 1850.66 304.809 Q1850.66 298.42 1853.81 294.809 Q1856.98 291.198 1862.56 291.198 Z" fill="#000000" fill-rule="nonzero" fill-opacity="1" /><path clip-path="url(#clip470)" d="M1891.57 294.809 Q1888.14 294.809 1886.15 297.494 Q1884.16 300.156 1884.16 304.809 Q1884.16 309.462 1886.13 312.147 Q1888.12 314.809 1891.57 314.809 Q1894.97 314.809 1896.96 312.124 Q1898.95 309.438 1898.95 304.809 Q1898.95 300.202 1896.96 297.517 Q1894.97 294.809 1891.57 294.809 M1891.57 291.198 Q1897.12 291.198 1900.29 294.809 Q1903.46 298.42 1903.46 304.809 Q1903.46 311.175 1900.29 314.809 Q1897.12 318.42 1891.57 318.42 Q1885.99 318.42 1882.82 314.809 Q1879.67 311.175 1879.67 304.809 Q1879.67 298.42 1882.82 294.809 Q1885.99 291.198 1891.57 291.198 Z" fill="#000000" fill-rule="nonzero" fill-opacity="1" /><path clip-path="url(#clip470)" d="M1914.74 284.462 L1914.74 291.823 L1923.51 291.823 L1923.51 295.133 L1914.74 295.133 L1914.74 309.207 Q1914.74 312.378 1915.59 313.281 Q1916.47 314.184 1919.13 314.184 L1923.51 314.184 L1923.51 317.749 L1919.13 317.749 Q1914.2 317.749 1912.33 315.92 Q1910.45 314.068 1910.45 309.207 L1910.45 295.133 L1907.33 295.133 L1907.33 291.823 L1910.45 291.823 L1910.45 284.462 L1914.74 284.462 Z" fill="#000000" fill-rule="nonzero" fill-opacity="1" /><path clip-path="url(#clip470)" d="M1950.66 302.101 L1950.66 317.749 L1946.4 317.749 L1946.4 302.239 Q1946.4 298.559 1944.97 296.73 Q1943.53 294.902 1940.66 294.902 Q1937.21 294.902 1935.22 297.101 Q1933.23 299.3 1933.23 303.096 L1933.23 317.749 L1928.95 317.749 L1928.95 281.73 L1933.23 281.73 L1933.23 295.851 Q1934.76 293.513 1936.82 292.355 Q1938.9 291.198 1941.61 291.198 Q1946.08 291.198 1948.37 293.976 Q1950.66 296.73 1950.66 302.101 Z" fill="#000000" fill-rule="nonzero" fill-opacity="1" /><path clip-path="url(#clip470)" d="M1992.84 304.809 Q1992.84 300.11 1990.89 297.448 Q1988.97 294.763 1985.59 294.763 Q1982.21 294.763 1980.27 297.448 Q1978.35 300.11 1978.35 304.809 Q1978.35 309.508 1980.27 312.193 Q1982.21 314.855 1985.59 314.855 Q1988.97 314.855 1990.89 312.193 Q1992.84 309.508 1992.84 304.809 M1978.35 295.758 Q1979.69 293.443 1981.73 292.332 Q1983.79 291.198 1986.63 291.198 Q1991.36 291.198 1994.3 294.948 Q1997.26 298.698 1997.26 304.809 Q1997.26 310.92 1994.3 314.67 Q1991.36 318.42 1986.63 318.42 Q1983.79 318.42 1981.73 317.309 Q1979.69 316.175 1978.35 313.86 L1978.35 317.749 L1974.07 317.749 L1974.07 281.73 L1978.35 281.73 L1978.35 295.758 Z" fill="#000000" fill-rule="nonzero" fill-opacity="1" /><path clip-path="url(#clip470)" d="M2004.32 291.823 L2008.58 291.823 L2008.58 317.749 L2004.32 317.749 L2004.32 291.823 M2004.32 281.73 L2008.58 281.73 L2008.58 287.124 L2004.32 287.124 L2004.32 281.73 Z" fill="#000000" fill-rule="nonzero" fill-opacity="1" /><path clip-path="url(#clip470)" d="M2017.49 281.73 L2021.75 281.73 L2021.75 317.749 L2017.49 317.749 L2017.49 281.73 Z" fill="#000000" fill-rule="nonzero" fill-opacity="1" /><path clip-path="url(#clip470)" d="M2052.84 303.721 L2052.84 305.804 L2033.25 305.804 Q2033.53 310.202 2035.89 312.517 Q2038.28 314.809 2042.51 314.809 Q2044.97 314.809 2047.26 314.207 Q2049.57 313.605 2051.84 312.401 L2051.84 316.429 Q2049.55 317.401 2047.14 317.911 Q2044.74 318.42 2042.26 318.42 Q2036.06 318.42 2032.42 314.809 Q2028.81 311.198 2028.81 305.04 Q2028.81 298.675 2032.24 294.948 Q2035.69 291.198 2041.52 291.198 Q2046.75 291.198 2049.78 294.577 Q2052.84 297.934 2052.84 303.721 M2048.58 302.471 Q2048.53 298.976 2046.61 296.892 Q2044.71 294.809 2041.56 294.809 Q2038 294.809 2035.85 296.823 Q2033.72 298.837 2033.39 302.494 L2048.58 302.471 Z" fill="#000000" fill-rule="nonzero" fill-opacity="1" /><path clip-path="url(#clip470)" d="M2056.77 291.823 L2061.29 291.823 L2069.39 313.582 L2077.49 291.823 L2082 291.823 L2072.28 317.749 L2066.5 317.749 L2056.77 291.823 Z" fill="#000000" fill-rule="nonzero" fill-opacity="1" /><path clip-path="url(#clip470)" d="M2110.06 303.721 L2110.06 305.804 L2090.48 305.804 Q2090.75 310.202 2093.12 312.517 Q2095.5 314.809 2099.74 314.809 Q2102.19 314.809 2104.48 314.207 Q2106.8 313.605 2109.06 312.401 L2109.06 316.429 Q2106.77 317.401 2104.37 317.911 Q2101.96 318.42 2099.48 318.42 Q2093.28 318.42 2089.64 314.809 Q2086.03 311.198 2086.03 305.04 Q2086.03 298.675 2089.46 294.948 Q2092.91 291.198 2098.74 291.198 Q2103.97 291.198 2107 294.577 Q2110.06 297.934 2110.06 303.721 M2105.8 302.471 Q2105.75 298.976 2103.83 296.892 Q2101.93 294.809 2098.79 294.809 Q2095.22 294.809 2093.07 296.823 Q2090.94 298.837 2090.62 302.494 L2105.8 302.471 Z" fill="#000000" fill-rule="nonzero" fill-opacity="1" /><path clip-path="url(#clip470)" d="M2117.05 281.73 L2121.31 281.73 L2121.31 317.749 L2117.05 317.749 L2117.05 281.73 Z" fill="#000000" fill-rule="nonzero" fill-opacity="1" /><polyline clip-path="url(#clip470)" style="stroke:#ac8d18; stroke-linecap:round; stroke-linejoin:round; stroke-width:8; stroke-opacity:1; fill:none" points="1618.39,352.309 1752.54,352.309 "/>
<path clip-path="url(#clip470)" d="M1774.9 335.029 L1779.58 335.029 L1779.58 365.653 L1796.4 365.653 L1796.4 369.589 L1774.9 369.589 L1774.9 335.029 Z" fill="#000000" fill-rule="nonzero" fill-opacity="1" /><path clip-path="url(#clip470)" d="M1812.91 356.556 Q1807.75 356.556 1805.76 357.737 Q1803.77 358.917 1803.77 361.765 Q1803.77 364.033 1805.25 365.376 Q1806.75 366.695 1809.32 366.695 Q1812.86 366.695 1814.99 364.195 Q1817.14 361.672 1817.14 357.505 L1817.14 356.556 L1812.91 356.556 M1821.4 354.797 L1821.4 369.589 L1817.14 369.589 L1817.14 365.653 Q1815.69 368.015 1813.51 369.149 Q1811.33 370.26 1808.19 370.26 Q1804.21 370.26 1801.84 368.038 Q1799.51 365.792 1799.51 362.042 Q1799.51 357.667 1802.42 355.445 Q1805.36 353.223 1811.17 353.223 L1817.14 353.223 L1817.14 352.806 Q1817.14 349.867 1815.2 348.269 Q1813.28 346.649 1809.78 346.649 Q1807.56 346.649 1805.46 347.181 Q1803.35 347.714 1801.4 348.779 L1801.4 344.843 Q1803.74 343.941 1805.94 343.501 Q1808.14 343.038 1810.22 343.038 Q1815.85 343.038 1818.63 345.954 Q1821.4 348.871 1821.4 354.797 Z" fill="#000000" fill-rule="nonzero" fill-opacity="1" /><path clip-path="url(#clip470)" d="M1846.7 344.427 L1846.7 348.454 Q1844.9 347.529 1842.95 347.066 Q1841.01 346.603 1838.93 346.603 Q1835.76 346.603 1834.16 347.575 Q1832.58 348.547 1832.58 350.491 Q1832.58 351.973 1833.72 352.829 Q1834.85 353.663 1838.28 354.427 L1839.74 354.751 Q1844.27 355.723 1846.17 357.505 Q1848.09 359.265 1848.09 362.436 Q1848.09 366.047 1845.22 368.153 Q1842.38 370.26 1837.38 370.26 Q1835.29 370.26 1833.02 369.843 Q1830.78 369.45 1828.28 368.64 L1828.28 364.241 Q1830.64 365.468 1832.93 366.093 Q1835.22 366.695 1837.47 366.695 Q1840.48 366.695 1842.1 365.677 Q1843.72 364.635 1843.72 362.76 Q1843.72 361.024 1842.54 360.098 Q1841.38 359.172 1837.42 358.316 L1835.94 357.968 Q1831.98 357.135 1830.22 355.422 Q1828.46 353.686 1828.46 350.677 Q1828.46 347.019 1831.06 345.029 Q1833.65 343.038 1838.42 343.038 Q1840.78 343.038 1842.86 343.385 Q1844.95 343.732 1846.7 344.427 Z" fill="#000000" fill-rule="nonzero" fill-opacity="1" /><path clip-path="url(#clip470)" d="M1871.4 344.427 L1871.4 348.454 Q1869.6 347.529 1867.65 347.066 Q1865.71 346.603 1863.63 346.603 Q1860.45 346.603 1858.86 347.575 Q1857.28 348.547 1857.28 350.491 Q1857.28 351.973 1858.42 352.829 Q1859.55 353.663 1862.98 354.427 L1864.44 354.751 Q1868.97 355.723 1870.87 357.505 Q1872.79 359.265 1872.79 362.436 Q1872.79 366.047 1869.92 368.153 Q1867.08 370.26 1862.08 370.26 Q1859.99 370.26 1857.72 369.843 Q1855.48 369.45 1852.98 368.64 L1852.98 364.241 Q1855.34 365.468 1857.63 366.093 Q1859.92 366.695 1862.17 366.695 Q1865.18 366.695 1866.8 365.677 Q1868.42 364.635 1868.42 362.76 Q1868.42 361.024 1867.24 360.098 Q1866.08 359.172 1862.12 358.316 L1860.64 357.968 Q1856.68 357.135 1854.92 355.422 Q1853.16 353.686 1853.16 350.677 Q1853.16 347.019 1855.76 345.029 Q1858.35 343.038 1863.12 343.038 Q1865.48 343.038 1867.56 343.385 Q1869.64 343.732 1871.4 344.427 Z" fill="#000000" fill-rule="nonzero" fill-opacity="1" /><path clip-path="url(#clip470)" d="M1889.62 346.649 Q1886.2 346.649 1884.2 349.334 Q1882.21 351.996 1882.21 356.649 Q1882.21 361.302 1884.18 363.987 Q1886.17 366.649 1889.62 366.649 Q1893.02 366.649 1895.01 363.964 Q1897.01 361.278 1897.01 356.649 Q1897.01 352.042 1895.01 349.357 Q1893.02 346.649 1889.62 346.649 M1889.62 343.038 Q1895.18 343.038 1898.35 346.649 Q1901.52 350.26 1901.52 356.649 Q1901.52 363.015 1898.35 366.649 Q1895.18 370.26 1889.62 370.26 Q1884.04 370.26 1880.87 366.649 Q1877.72 363.015 1877.72 356.649 Q1877.72 350.26 1880.87 346.649 Q1884.04 343.038 1889.62 343.038 Z" fill="#000000" fill-rule="nonzero" fill-opacity="1" /><path clip-path="url(#clip470)" d="M1942.26 356.649 Q1942.26 351.95 1940.32 349.288 Q1938.39 346.603 1935.01 346.603 Q1931.63 346.603 1929.69 349.288 Q1927.77 351.95 1927.77 356.649 Q1927.77 361.348 1929.69 364.033 Q1931.63 366.695 1935.01 366.695 Q1938.39 366.695 1940.32 364.033 Q1942.26 361.348 1942.26 356.649 M1927.77 347.598 Q1929.11 345.283 1931.15 344.172 Q1933.21 343.038 1936.06 343.038 Q1940.78 343.038 1943.72 346.788 Q1946.68 350.538 1946.68 356.649 Q1946.68 362.76 1943.72 366.51 Q1940.78 370.26 1936.06 370.26 Q1933.21 370.26 1931.15 369.149 Q1929.11 368.015 1927.77 365.7 L1927.77 369.589 L1923.49 369.589 L1923.49 333.57 L1927.77 333.57 L1927.77 347.598 Z" fill="#000000" fill-rule="nonzero" fill-opacity="1" /><path clip-path="url(#clip470)" d="M1953.74 343.663 L1958 343.663 L1958 369.589 L1953.74 369.589 L1953.74 343.663 M1953.74 333.57 L1958 333.57 L1958 338.964 L1953.74 338.964 L1953.74 333.57 Z" fill="#000000" fill-rule="nonzero" fill-opacity="1" /><path clip-path="url(#clip470)" d="M1966.91 333.57 L1971.17 333.57 L1971.17 369.589 L1966.91 369.589 L1966.91 333.57 Z" fill="#000000" fill-rule="nonzero" fill-opacity="1" /><path clip-path="url(#clip470)" d="M2002.26 355.561 L2002.26 357.644 L1982.68 357.644 Q1982.95 362.042 1985.32 364.357 Q1987.7 366.649 1991.94 366.649 Q1994.39 366.649 1996.68 366.047 Q1999 365.445 2001.26 364.241 L2001.26 368.269 Q1998.97 369.241 1996.57 369.751 Q1994.16 370.26 1991.68 370.26 Q1985.48 370.26 1981.84 366.649 Q1978.23 363.038 1978.23 356.88 Q1978.23 350.515 1981.66 346.788 Q1985.11 343.038 1990.94 343.038 Q1996.17 343.038 1999.2 346.417 Q2002.26 349.774 2002.26 355.561 M1998 354.311 Q1997.95 350.816 1996.03 348.732 Q1994.13 346.649 1990.99 346.649 Q1987.42 346.649 1985.27 348.663 Q1983.14 350.677 1982.82 354.334 L1998 354.311 Z" fill="#000000" fill-rule="nonzero" fill-opacity="1" /><path clip-path="url(#clip470)" d="M2006.19 343.663 L2010.71 343.663 L2018.81 365.422 L2026.91 343.663 L2031.43 343.663 L2021.7 369.589 L2015.92 369.589 L2006.19 343.663 Z" fill="#000000" fill-rule="nonzero" fill-opacity="1" /><path clip-path="url(#clip470)" d="M2059.48 355.561 L2059.48 357.644 L2039.9 357.644 Q2040.18 362.042 2042.54 364.357 Q2044.92 366.649 2049.16 366.649 Q2051.61 366.649 2053.9 366.047 Q2056.22 365.445 2058.49 364.241 L2058.49 368.269 Q2056.19 369.241 2053.79 369.751 Q2051.38 370.26 2048.9 370.26 Q2042.7 370.26 2039.06 366.649 Q2035.45 363.038 2035.45 356.88 Q2035.45 350.515 2038.88 346.788 Q2042.33 343.038 2048.16 343.038 Q2053.39 343.038 2056.43 346.417 Q2059.48 349.774 2059.48 355.561 M2055.22 354.311 Q2055.18 350.816 2053.25 348.732 Q2051.36 346.649 2048.21 346.649 Q2044.64 346.649 2042.49 348.663 Q2040.36 350.677 2040.04 354.334 L2055.22 354.311 Z" fill="#000000" fill-rule="nonzero" fill-opacity="1" /><path clip-path="url(#clip470)" d="M2066.47 333.57 L2070.73 333.57 L2070.73 369.589 L2066.47 369.589 L2066.47 333.57 Z" fill="#000000" fill-rule="nonzero" fill-opacity="1" /><polyline clip-path="url(#clip470)" style="stroke:#00a9ad; stroke-linecap:round; stroke-linejoin:round; stroke-width:8; stroke-opacity:1; fill:none" points="1618.39,404.149 1752.54,404.149 "/>
<path clip-path="url(#clip470)" d="M1774.9 386.869 L1779.58 386.869 L1779.58 417.493 L1796.4 417.493 L1796.4 421.429 L1774.9 421.429 L1774.9 386.869 Z" fill="#000000" fill-rule="nonzero" fill-opacity="1" /><path clip-path="url(#clip470)" d="M1812.91 408.396 Q1807.75 408.396 1805.76 409.577 Q1803.77 410.757 1803.77 413.605 Q1803.77 415.873 1805.25 417.216 Q1806.75 418.535 1809.32 418.535 Q1812.86 418.535 1814.99 416.035 Q1817.14 413.512 1817.14 409.345 L1817.14 408.396 L1812.91 408.396 M1821.4 406.637 L1821.4 421.429 L1817.14 421.429 L1817.14 417.493 Q1815.69 419.855 1813.51 420.989 Q1811.33 422.1 1808.19 422.1 Q1804.21 422.1 1801.84 419.878 Q1799.51 417.632 1799.51 413.882 Q1799.51 409.507 1802.42 407.285 Q1805.36 405.063 1811.17 405.063 L1817.14 405.063 L1817.14 404.646 Q1817.14 401.707 1815.2 400.109 Q1813.28 398.489 1809.78 398.489 Q1807.56 398.489 1805.46 399.021 Q1803.35 399.554 1801.4 400.619 L1801.4 396.683 Q1803.74 395.781 1805.94 395.341 Q1808.14 394.878 1810.22 394.878 Q1815.85 394.878 1818.63 397.794 Q1821.4 400.711 1821.4 406.637 Z" fill="#000000" fill-rule="nonzero" fill-opacity="1" /><path clip-path="url(#clip470)" d="M1846.7 396.267 L1846.7 400.294 Q1844.9 399.369 1842.95 398.906 Q1841.01 398.443 1838.93 398.443 Q1835.76 398.443 1834.16 399.415 Q1832.58 400.387 1832.58 402.331 Q1832.58 403.813 1833.72 404.669 Q1834.85 405.503 1838.28 406.267 L1839.74 406.591 Q1844.27 407.563 1846.17 409.345 Q1848.09 411.105 1848.09 414.276 Q1848.09 417.887 1845.22 419.993 Q1842.38 422.1 1837.38 422.1 Q1835.29 422.1 1833.02 421.683 Q1830.78 421.29 1828.28 420.48 L1828.28 416.081 Q1830.64 417.308 1832.93 417.933 Q1835.22 418.535 1837.47 418.535 Q1840.48 418.535 1842.1 417.517 Q1843.72 416.475 1843.72 414.6 Q1843.72 412.864 1842.54 411.938 Q1841.38 411.012 1837.42 410.156 L1835.94 409.808 Q1831.98 408.975 1830.22 407.262 Q1828.46 405.526 1828.46 402.517 Q1828.46 398.859 1831.06 396.869 Q1833.65 394.878 1838.42 394.878 Q1840.78 394.878 1842.86 395.225 Q1844.95 395.572 1846.7 396.267 Z" fill="#000000" fill-rule="nonzero" fill-opacity="1" /><path clip-path="url(#clip470)" d="M1871.4 396.267 L1871.4 400.294 Q1869.6 399.369 1867.65 398.906 Q1865.71 398.443 1863.63 398.443 Q1860.45 398.443 1858.86 399.415 Q1857.28 400.387 1857.28 402.331 Q1857.28 403.813 1858.42 404.669 Q1859.55 405.503 1862.98 406.267 L1864.44 406.591 Q1868.97 407.563 1870.87 409.345 Q1872.79 411.105 1872.79 414.276 Q1872.79 417.887 1869.92 419.993 Q1867.08 422.1 1862.08 422.1 Q1859.99 422.1 1857.72 421.683 Q1855.48 421.29 1852.98 420.48 L1852.98 416.081 Q1855.34 417.308 1857.63 417.933 Q1859.92 418.535 1862.17 418.535 Q1865.18 418.535 1866.8 417.517 Q1868.42 416.475 1868.42 414.6 Q1868.42 412.864 1867.24 411.938 Q1866.08 411.012 1862.12 410.156 L1860.64 409.808 Q1856.68 408.975 1854.92 407.262 Q1853.16 405.526 1853.16 402.517 Q1853.16 398.859 1855.76 396.869 Q1858.35 394.878 1863.12 394.878 Q1865.48 394.878 1867.56 395.225 Q1869.64 395.572 1871.4 396.267 Z" fill="#000000" fill-rule="nonzero" fill-opacity="1" /><path clip-path="url(#clip470)" d="M1889.62 398.489 Q1886.2 398.489 1884.2 401.174 Q1882.21 403.836 1882.21 408.489 Q1882.21 413.142 1884.18 415.827 Q1886.17 418.489 1889.62 418.489 Q1893.02 418.489 1895.01 415.804 Q1897.01 413.118 1897.01 408.489 Q1897.01 403.882 1895.01 401.197 Q1893.02 398.489 1889.62 398.489 M1889.62 394.878 Q1895.18 394.878 1898.35 398.489 Q1901.52 402.1 1901.52 408.489 Q1901.52 414.855 1898.35 418.489 Q1895.18 422.1 1889.62 422.1 Q1884.04 422.1 1880.87 418.489 Q1877.72 414.855 1877.72 408.489 Q1877.72 402.1 1880.87 398.489 Q1884.04 394.878 1889.62 394.878 Z" fill="#000000" fill-rule="nonzero" fill-opacity="1" /><path clip-path="url(#clip470)" d="M1940.18 396.267 L1940.18 400.294 Q1938.37 399.369 1936.43 398.906 Q1934.48 398.443 1932.4 398.443 Q1929.23 398.443 1927.63 399.415 Q1926.06 400.387 1926.06 402.331 Q1926.06 403.813 1927.19 404.669 Q1928.32 405.503 1931.75 406.267 L1933.21 406.591 Q1937.75 407.563 1939.64 409.345 Q1941.57 411.105 1941.57 414.276 Q1941.57 417.887 1938.7 419.993 Q1935.85 422.1 1930.85 422.1 Q1928.76 422.1 1926.5 421.683 Q1924.25 421.29 1921.75 420.48 L1921.75 416.081 Q1924.11 417.308 1926.4 417.933 Q1928.7 418.535 1930.94 418.535 Q1933.95 418.535 1935.57 417.517 Q1937.19 416.475 1937.19 414.6 Q1937.19 412.864 1936.01 411.938 Q1934.85 411.012 1930.89 410.156 L1929.41 409.808 Q1925.45 408.975 1923.7 407.262 Q1921.94 405.526 1921.94 402.517 Q1921.94 398.859 1924.53 396.869 Q1927.12 394.878 1931.89 394.878 Q1934.25 394.878 1936.33 395.225 Q1938.42 395.572 1940.18 396.267 Z" fill="#000000" fill-rule="nonzero" fill-opacity="1" /><path clip-path="url(#clip470)" d="M1968.53 400.48 Q1970.13 397.609 1972.35 396.244 Q1974.57 394.878 1977.58 394.878 Q1981.63 394.878 1983.83 397.725 Q1986.03 400.549 1986.03 405.781 L1986.03 421.429 L1981.75 421.429 L1981.75 405.919 Q1981.75 402.193 1980.43 400.387 Q1979.11 398.582 1976.4 398.582 Q1973.09 398.582 1971.17 400.781 Q1969.25 402.98 1969.25 406.776 L1969.25 421.429 L1964.97 421.429 L1964.97 405.919 Q1964.97 402.169 1963.65 400.387 Q1962.33 398.582 1959.57 398.582 Q1956.31 398.582 1954.39 400.804 Q1952.47 403.003 1952.47 406.776 L1952.47 421.429 L1948.19 421.429 L1948.19 395.503 L1952.47 395.503 L1952.47 399.531 Q1953.93 397.146 1955.96 396.012 Q1958 394.878 1960.8 394.878 Q1963.63 394.878 1965.59 396.313 Q1967.58 397.748 1968.53 400.48 Z" fill="#000000" fill-rule="nonzero" fill-opacity="1" /><path clip-path="url(#clip470)" d="M2004.57 398.489 Q2001.15 398.489 1999.16 401.174 Q1997.17 403.836 1997.17 408.489 Q1997.17 413.142 1999.13 415.827 Q2001.13 418.489 2004.57 418.489 Q2007.98 418.489 2009.97 415.804 Q2011.96 413.118 2011.96 408.489 Q2011.96 403.882 2009.97 401.197 Q2007.98 398.489 2004.57 398.489 M2004.57 394.878 Q2010.13 394.878 2013.3 398.489 Q2016.47 402.1 2016.47 408.489 Q2016.47 414.855 2013.3 418.489 Q2010.13 422.1 2004.57 422.1 Q1999 422.1 1995.82 418.489 Q1992.68 414.855 1992.68 408.489 Q1992.68 402.1 1995.82 398.489 Q1999 394.878 2004.57 394.878 Z" fill="#000000" fill-rule="nonzero" fill-opacity="1" /><path clip-path="url(#clip470)" d="M2033.58 398.489 Q2030.15 398.489 2028.16 401.174 Q2026.17 403.836 2026.17 408.489 Q2026.17 413.142 2028.14 415.827 Q2030.13 418.489 2033.58 418.489 Q2036.98 418.489 2038.97 415.804 Q2040.96 413.118 2040.96 408.489 Q2040.96 403.882 2038.97 401.197 Q2036.98 398.489 2033.58 398.489 M2033.58 394.878 Q2039.13 394.878 2042.31 398.489 Q2045.48 402.1 2045.48 408.489 Q2045.48 414.855 2042.31 418.489 Q2039.13 422.1 2033.58 422.1 Q2028 422.1 2024.83 418.489 Q2021.68 414.855 2021.68 408.489 Q2021.68 402.1 2024.83 398.489 Q2028 394.878 2033.58 394.878 Z" fill="#000000" fill-rule="nonzero" fill-opacity="1" /><path clip-path="url(#clip470)" d="M2056.75 388.142 L2056.75 395.503 L2065.52 395.503 L2065.52 398.813 L2056.75 398.813 L2056.75 412.887 Q2056.75 416.058 2057.61 416.961 Q2058.49 417.864 2061.15 417.864 L2065.52 417.864 L2065.52 421.429 L2061.15 421.429 Q2056.22 421.429 2054.34 419.6 Q2052.47 417.748 2052.47 412.887 L2052.47 398.813 L2049.34 398.813 L2049.34 395.503 L2052.47 395.503 L2052.47 388.142 L2056.75 388.142 Z" fill="#000000" fill-rule="nonzero" fill-opacity="1" /><path clip-path="url(#clip470)" d="M2092.68 405.781 L2092.68 421.429 L2088.42 421.429 L2088.42 405.919 Q2088.42 402.239 2086.98 400.41 Q2085.55 398.582 2082.68 398.582 Q2079.23 398.582 2077.24 400.781 Q2075.25 402.98 2075.25 406.776 L2075.25 421.429 L2070.96 421.429 L2070.96 385.41 L2075.25 385.41 L2075.25 399.531 Q2076.77 397.193 2078.83 396.035 Q2080.92 394.878 2083.62 394.878 Q2088.09 394.878 2090.38 397.656 Q2092.68 400.41 2092.68 405.781 Z" fill="#000000" fill-rule="nonzero" fill-opacity="1" /><path clip-path="url(#clip470)" d="M2134.85 408.489 Q2134.85 403.79 2132.91 401.128 Q2130.99 398.443 2127.61 398.443 Q2124.23 398.443 2122.28 401.128 Q2120.36 403.79 2120.36 408.489 Q2120.36 413.188 2122.28 415.873 Q2124.23 418.535 2127.61 418.535 Q2130.99 418.535 2132.91 415.873 Q2134.85 413.188 2134.85 408.489 M2120.36 399.438 Q2121.7 397.123 2123.74 396.012 Q2125.8 394.878 2128.65 394.878 Q2133.37 394.878 2136.31 398.628 Q2139.27 402.378 2139.27 408.489 Q2139.27 414.6 2136.31 418.35 Q2133.37 422.1 2128.65 422.1 Q2125.8 422.1 2123.74 420.989 Q2121.7 419.855 2120.36 417.54 L2120.36 421.429 L2116.08 421.429 L2116.08 385.41 L2120.36 385.41 L2120.36 399.438 Z" fill="#000000" fill-rule="nonzero" fill-opacity="1" /><path clip-path="url(#clip470)" d="M2146.33 395.503 L2150.59 395.503 L2150.59 421.429 L2146.33 421.429 L2146.33 395.503 M2146.33 385.41 L2150.59 385.41 L2150.59 390.804 L2146.33 390.804 L2146.33 385.41 Z" fill="#000000" fill-rule="nonzero" fill-opacity="1" /><path clip-path="url(#clip470)" d="M2159.5 385.41 L2163.76 385.41 L2163.76 421.429 L2159.5 421.429 L2159.5 385.41 Z" fill="#000000" fill-rule="nonzero" fill-opacity="1" /><path clip-path="url(#clip470)" d="M2194.85 407.401 L2194.85 409.484 L2175.27 409.484 Q2175.55 413.882 2177.91 416.197 Q2180.29 418.489 2184.53 418.489 Q2186.98 418.489 2189.27 417.887 Q2191.59 417.285 2193.86 416.081 L2193.86 420.109 Q2191.56 421.081 2189.16 421.591 Q2186.75 422.1 2184.27 422.1 Q2178.07 422.1 2174.43 418.489 Q2170.82 414.878 2170.82 408.72 Q2170.82 402.355 2174.25 398.628 Q2177.7 394.878 2183.53 394.878 Q2188.76 394.878 2191.8 398.257 Q2194.85 401.614 2194.85 407.401 M2190.59 406.151 Q2190.55 402.656 2188.62 400.572 Q2186.73 398.489 2183.58 398.489 Q2180.01 398.489 2177.86 400.503 Q2175.73 402.517 2175.41 406.174 L2190.59 406.151 Z" fill="#000000" fill-rule="nonzero" fill-opacity="1" /><path clip-path="url(#clip470)" d="M2198.79 395.503 L2203.3 395.503 L2211.4 417.262 L2219.5 395.503 L2224.02 395.503 L2214.3 421.429 L2208.51 421.429 L2198.79 395.503 Z" fill="#000000" fill-rule="nonzero" fill-opacity="1" /><path clip-path="url(#clip470)" d="M2252.07 407.401 L2252.07 409.484 L2232.49 409.484 Q2232.77 413.882 2235.13 416.197 Q2237.51 418.489 2241.75 418.489 Q2244.2 418.489 2246.49 417.887 Q2248.81 417.285 2251.08 416.081 L2251.08 420.109 Q2248.79 421.081 2246.38 421.591 Q2243.97 422.1 2241.49 422.1 Q2235.29 422.1 2231.66 418.489 Q2228.05 414.878 2228.05 408.72 Q2228.05 402.355 2231.47 398.628 Q2234.92 394.878 2240.75 394.878 Q2245.99 394.878 2249.02 398.257 Q2252.07 401.614 2252.07 407.401 M2247.81 406.151 Q2247.77 402.656 2245.85 400.572 Q2243.95 398.489 2240.8 398.489 Q2237.24 398.489 2235.08 400.503 Q2232.95 402.517 2232.63 406.174 L2247.81 406.151 Z" fill="#000000" fill-rule="nonzero" fill-opacity="1" /><path clip-path="url(#clip470)" d="M2259.06 385.41 L2263.32 385.41 L2263.32 421.429 L2259.06 421.429 L2259.06 385.41 Z" fill="#000000" fill-rule="nonzero" fill-opacity="1" /><polyline clip-path="url(#clip470)" style="stroke:#ed5d92; stroke-linecap:round; stroke-linejoin:round; stroke-width:8; stroke-opacity:1; fill:none" points="1618.39,455.989 1752.54,455.989 "/>
<path clip-path="url(#clip470)" d="M1774.9 438.709 L1779.58 438.709 L1779.58 469.333 L1796.4 469.333 L1796.4 473.269 L1774.9 473.269 L1774.9 438.709 Z" fill="#000000" fill-rule="nonzero" fill-opacity="1" /><path clip-path="url(#clip470)" d="M1812.91 460.236 Q1807.75 460.236 1805.76 461.417 Q1803.77 462.597 1803.77 465.445 Q1803.77 467.713 1805.25 469.056 Q1806.75 470.375 1809.32 470.375 Q1812.86 470.375 1814.99 467.875 Q1817.14 465.352 1817.14 461.185 L1817.14 460.236 L1812.91 460.236 M1821.4 458.477 L1821.4 473.269 L1817.14 473.269 L1817.14 469.333 Q1815.69 471.695 1813.51 472.829 Q1811.33 473.94 1808.19 473.94 Q1804.21 473.94 1801.84 471.718 Q1799.51 469.472 1799.51 465.722 Q1799.51 461.347 1802.42 459.125 Q1805.36 456.903 1811.17 456.903 L1817.14 456.903 L1817.14 456.486 Q1817.14 453.547 1815.2 451.949 Q1813.28 450.329 1809.78 450.329 Q1807.56 450.329 1805.46 450.861 Q1803.35 451.394 1801.4 452.459 L1801.4 448.523 Q1803.74 447.621 1805.94 447.181 Q1808.14 446.718 1810.22 446.718 Q1815.85 446.718 1818.63 449.634 Q1821.4 452.551 1821.4 458.477 Z" fill="#000000" fill-rule="nonzero" fill-opacity="1" /><path clip-path="url(#clip470)" d="M1846.7 448.107 L1846.7 452.134 Q1844.9 451.209 1842.95 450.746 Q1841.01 450.283 1838.93 450.283 Q1835.76 450.283 1834.16 451.255 Q1832.58 452.227 1832.58 454.171 Q1832.58 455.653 1833.72 456.509 Q1834.85 457.343 1838.28 458.107 L1839.74 458.431 Q1844.27 459.403 1846.17 461.185 Q1848.09 462.945 1848.09 466.116 Q1848.09 469.727 1845.22 471.833 Q1842.38 473.94 1837.38 473.94 Q1835.29 473.94 1833.02 473.523 Q1830.78 473.13 1828.28 472.32 L1828.28 467.921 Q1830.64 469.148 1832.93 469.773 Q1835.22 470.375 1837.47 470.375 Q1840.48 470.375 1842.1 469.357 Q1843.72 468.315 1843.72 466.44 Q1843.72 464.704 1842.54 463.778 Q1841.38 462.852 1837.42 461.996 L1835.94 461.648 Q1831.98 460.815 1830.22 459.102 Q1828.46 457.366 1828.46 454.357 Q1828.46 450.699 1831.06 448.709 Q1833.65 446.718 1838.42 446.718 Q1840.78 446.718 1842.86 447.065 Q1844.95 447.412 1846.7 448.107 Z" fill="#000000" fill-rule="nonzero" fill-opacity="1" /><path clip-path="url(#clip470)" d="M1871.4 448.107 L1871.4 452.134 Q1869.6 451.209 1867.65 450.746 Q1865.71 450.283 1863.63 450.283 Q1860.45 450.283 1858.86 451.255 Q1857.28 452.227 1857.28 454.171 Q1857.28 455.653 1858.42 456.509 Q1859.55 457.343 1862.98 458.107 L1864.44 458.431 Q1868.97 459.403 1870.87 461.185 Q1872.79 462.945 1872.79 466.116 Q1872.79 469.727 1869.92 471.833 Q1867.08 473.94 1862.08 473.94 Q1859.99 473.94 1857.72 473.523 Q1855.48 473.13 1852.98 472.32 L1852.98 467.921 Q1855.34 469.148 1857.63 469.773 Q1859.92 470.375 1862.17 470.375 Q1865.18 470.375 1866.8 469.357 Q1868.42 468.315 1868.42 466.44 Q1868.42 464.704 1867.24 463.778 Q1866.08 462.852 1862.12 461.996 L1860.64 461.648 Q1856.68 460.815 1854.92 459.102 Q1853.16 457.366 1853.16 454.357 Q1853.16 450.699 1855.76 448.709 Q1858.35 446.718 1863.12 446.718 Q1865.48 446.718 1867.56 447.065 Q1869.64 447.412 1871.4 448.107 Z" fill="#000000" fill-rule="nonzero" fill-opacity="1" /><path clip-path="url(#clip470)" d="M1889.62 450.329 Q1886.2 450.329 1884.2 453.014 Q1882.21 455.676 1882.21 460.329 Q1882.21 464.982 1884.18 467.667 Q1886.17 470.329 1889.62 470.329 Q1893.02 470.329 1895.01 467.644 Q1897.01 464.958 1897.01 460.329 Q1897.01 455.722 1895.01 453.037 Q1893.02 450.329 1889.62 450.329 M1889.62 446.718 Q1895.18 446.718 1898.35 450.329 Q1901.52 453.94 1901.52 460.329 Q1901.52 466.695 1898.35 470.329 Q1895.18 473.94 1889.62 473.94 Q1884.04 473.94 1880.87 470.329 Q1877.72 466.695 1877.72 460.329 Q1877.72 453.94 1880.87 450.329 Q1884.04 446.718 1889.62 446.718 Z" fill="#000000" fill-rule="nonzero" fill-opacity="1" /><path clip-path="url(#clip470)" d="M1927.86 439.982 L1927.86 447.343 L1936.63 447.343 L1936.63 450.653 L1927.86 450.653 L1927.86 464.727 Q1927.86 467.898 1928.72 468.801 Q1929.6 469.704 1932.26 469.704 L1936.63 469.704 L1936.63 473.269 L1932.26 473.269 Q1927.33 473.269 1925.45 471.44 Q1923.58 469.588 1923.58 464.727 L1923.58 450.653 L1920.45 450.653 L1920.45 447.343 L1923.58 447.343 L1923.58 439.982 L1927.86 439.982 Z" fill="#000000" fill-rule="nonzero" fill-opacity="1" /><path clip-path="url(#clip470)" d="M1957.26 451.324 Q1956.54 450.908 1955.69 450.722 Q1954.85 450.514 1953.83 450.514 Q1950.22 450.514 1948.28 452.875 Q1946.36 455.213 1946.36 459.611 L1946.36 473.269 L1942.07 473.269 L1942.07 447.343 L1946.36 447.343 L1946.36 451.371 Q1947.7 449.009 1949.85 447.875 Q1952.01 446.718 1955.08 446.718 Q1955.52 446.718 1956.06 446.787 Q1956.59 446.834 1957.24 446.949 L1957.26 451.324 Z" fill="#000000" fill-rule="nonzero" fill-opacity="1" /><path clip-path="url(#clip470)" d="M1961.73 447.343 L1965.99 447.343 L1965.99 473.269 L1961.73 473.269 L1961.73 447.343 M1961.73 437.25 L1965.99 437.25 L1965.99 442.644 L1961.73 442.644 L1961.73 437.25 Z" fill="#000000" fill-rule="nonzero" fill-opacity="1" /><path clip-path="url(#clip470)" d="M1974.9 437.25 L1979.16 437.25 L1979.16 473.269 L1974.9 473.269 L1974.9 437.25 Z" fill="#000000" fill-rule="nonzero" fill-opacity="1" /><path clip-path="url(#clip470)" d="M2010.25 459.241 L2010.25 461.324 L1990.66 461.324 Q1990.94 465.722 1993.3 468.037 Q1995.69 470.329 1999.92 470.329 Q2002.38 470.329 2004.67 469.727 Q2006.98 469.125 2009.25 467.921 L2009.25 471.949 Q2006.96 472.921 2004.55 473.431 Q2002.14 473.94 1999.67 473.94 Q1993.46 473.94 1989.83 470.329 Q1986.22 466.718 1986.22 460.56 Q1986.22 454.195 1989.64 450.468 Q1993.09 446.718 1998.93 446.718 Q2004.16 446.718 2007.19 450.097 Q2010.25 453.454 2010.25 459.241 M2005.99 457.991 Q2005.94 454.496 2004.02 452.412 Q2002.12 450.329 1998.97 450.329 Q1995.41 450.329 1993.25 452.343 Q1991.13 454.357 1990.8 458.014 L2005.99 457.991 Z" fill="#000000" fill-rule="nonzero" fill-opacity="1" /><path clip-path="url(#clip470)" d="M2014.18 447.343 L2018.69 447.343 L2026.8 469.102 L2034.9 447.343 L2039.41 447.343 L2029.69 473.269 L2023.9 473.269 L2014.18 447.343 Z" fill="#000000" fill-rule="nonzero" fill-opacity="1" /><path clip-path="url(#clip470)" d="M2067.47 459.241 L2067.47 461.324 L2047.88 461.324 Q2048.16 465.722 2050.52 468.037 Q2052.91 470.329 2057.14 470.329 Q2059.6 470.329 2061.89 469.727 Q2064.2 469.125 2066.47 467.921 L2066.47 471.949 Q2064.18 472.921 2061.77 473.431 Q2059.37 473.94 2056.89 473.94 Q2050.69 473.94 2047.05 470.329 Q2043.44 466.718 2043.44 460.56 Q2043.44 454.195 2046.87 450.468 Q2050.31 446.718 2056.15 446.718 Q2061.38 446.718 2064.41 450.097 Q2067.47 453.454 2067.47 459.241 M2063.21 457.991 Q2063.16 454.496 2061.24 452.412 Q2059.34 450.329 2056.19 450.329 Q2052.63 450.329 2050.48 452.343 Q2048.35 454.357 2048.02 458.014 L2063.21 457.991 Z" fill="#000000" fill-rule="nonzero" fill-opacity="1" /><path clip-path="url(#clip470)" d="M2074.46 437.25 L2078.72 437.25 L2078.72 473.269 L2074.46 473.269 L2074.46 437.25 Z" fill="#000000" fill-rule="nonzero" fill-opacity="1" /></svg>
