<?xml version="1.0" encoding="utf-8"?>
<svg xmlns="http://www.w3.org/2000/svg" xmlns:xlink="http://www.w3.org/1999/xlink" width="400" height="250" viewBox="0 0 1600 1000">
<defs>
  <clipPath id="clip280">
    <rect x="0" y="0" width="1600" height="1000"/>
  </clipPath>
</defs>
<path clip-path="url(#clip280)" d="M0 1000 L1600 1000 L1600 0 L0 0  Z" fill="#ffffff" fill-rule="evenodd" fill-opacity="1"/>
<defs>
  <clipPath id="clip281">
    <rect x="320" y="0" width="1121" height="1000"/>
  </clipPath>
</defs>
<path clip-path="url(#clip280)" d="M3.14961 996.85 L1596.85 996.85 L1596.85 3.14961 L3.14961 3.14961  Z" fill="#ffffff" fill-rule="evenodd" fill-opacity="1"/>
<defs>
  <clipPath id="clip282">
    <rect x="3" y="3" width="1595" height="995"/>
  </clipPath>
</defs>
<polyline clip-path="url(#clip280)" style="stroke:#000000; stroke-linecap:round; stroke-linejoin:round; stroke-width:4; stroke-opacity:1; fill:none" points="3.14961,996.85 1596.85,996.85 "/>
<polyline clip-path="url(#clip280)" style="stroke:#000000; stroke-linecap:round; stroke-linejoin:round; stroke-width:4; stroke-opacity:1; fill:none" points="3.14961,3.14961 1596.85,3.14961 "/>
<polyline clip-path="url(#clip280)" style="stroke:#000000; stroke-linecap:round; stroke-linejoin:round; stroke-width:4; stroke-opacity:1; fill:none" points="3.14961,996.85 3.14961,3.14961 "/>
<polyline clip-path="url(#clip280)" style="stroke:#000000; stroke-linecap:round; stroke-linejoin:round; stroke-width:4; stroke-opacity:1; fill:none" points="1596.85,996.85 1596.85,3.14961 "/>
<polyline clip-path="url(#clip282)" style="stroke:#000000; stroke-linecap:round; stroke-linejoin:round; stroke-width:4; stroke-opacity:1; fill:none" points="-1590.55,500 3190.55,500 "/>
<path clip-path="url(#clip282)" d="M693.596 211.575 L693.596 291.575 L773.596 291.575 L773.596 211.575 L693.596 211.575 Z" fill="#ffff00" fill-rule="evenodd" fill-opacity="1" stroke="#000000" stroke-opacity="1" stroke-width="4"/>
<path clip-path="url(#clip282)" d="M826.404 211.575 L826.404 291.575 L906.404 291.575 L906.404 211.575 L826.404 211.575 Z" fill="#ffff00" fill-rule="evenodd" fill-opacity="1" stroke="#000000" stroke-opacity="1" stroke-width="4"/>
<polyline clip-path="url(#clip282)" style="stroke:#008000; stroke-linecap:round; stroke-linejoin:round; stroke-width:4; stroke-opacity:1; fill:none" points="-1192.13,529.254 -1188.14,529.231 -1184.16,529.163 -1180.17,529.048 -1176.19,528.889 -1172.2,528.684 -1168.22,528.434 -1164.24,528.139 -1160.25,527.8 -1156.27,527.418 -1152.28,526.993 -1148.3,526.525 -1144.31,526.016 -1140.33,525.466 -1136.35,524.876 -1132.36,524.247 -1128.38,523.579 -1124.39,522.875 -1120.41,522.134 -1116.43,521.359 -1112.44,520.55 -1108.46,519.708 -1104.47,518.835 -1100.49,517.932 -1096.5,517 -1092.52,516.042 -1088.54,515.058 -1084.55,514.05 -1080.57,513.019 -1076.58,511.967 -1072.6,510.896 -1068.61,509.807 -1064.63,508.702 -1060.65,507.583 -1056.66,506.451 -1052.68,505.308 -1048.69,504.156 -1044.71,502.996 -1040.72,501.831 -1036.74,500.663 -1032.76,499.492 -1028.77,498.321 -1024.79,497.151 -1020.8,495.985 -1016.82,494.825 -1012.83,493.671 -1008.85,492.526 -1004.87,491.392 -1000.88,490.27 -996.898,489.162 -992.913,488.069 -988.929,486.995 -984.945,485.939 -980.961,484.905 -976.976,483.892 -972.992,482.904 -969.008,481.942 -965.024,481.006 -961.039,480.099 -957.055,479.222 -953.071,478.377 -949.087,477.564 -945.102,476.785 -941.118,476.041 -937.134,475.334 -933.15,474.665 -929.165,474.034 -925.181,473.443 -921.197,472.892 -917.213,472.383 -913.228,471.917 -909.244,471.493 -905.26,471.114 -901.276,470.779 -897.291,470.489 -893.307,470.245 -889.323,470.047 -885.339,469.895 -881.354,469.79 -877.37,469.732 -873.386,469.722 -869.402,469.758 -865.417,469.842 -861.433,469.973 -857.449,470.151 -853.465,470.376 -849.48,470.648 -845.496,470.966 -841.512,471.33 -837.528,471.739 -833.543,472.193 -829.559,472.691 -825.575,473.233 -821.591,473.818 -817.606,474.445 -813.622,475.113 -809.638,475.821 -805.654,476.569 -801.669,477.354 -797.685,478.176 -793.701,479.035 -789.717,479.927 -785.732,480.853 -781.748,481.811 -777.764,482.8 -773.78,483.817 -769.795,484.862 -765.811,485.933 -761.827,487.029 -757.843,488.147 -753.858,489.286 -749.874,490.445 -745.89,491.622 -741.906,492.814 -737.921,494.021 -733.937,495.24 -729.953,496.469 -725.969,497.708 -721.984,498.953 -718,500.202 -714.016,501.455 -710.031,502.709 -706.047,503.962 -702.063,505.213 -698.079,506.459 -694.094,507.698 -690.11,508.928 -686.126,510.149 -682.142,511.357 -678.157,512.551 -674.173,513.729 -670.189,514.889 -666.205,516.029 -662.22,517.148 -658.236,518.244 -654.252,519.314 -650.268,520.358 -646.283,521.374 -642.299,522.36 -638.315,523.314 -634.331,524.235 -630.346,525.122 -626.362,525.972 -622.378,526.785 -618.394,527.559 -614.409,528.293 -610.425,528.986 -606.441,529.636 -602.457,530.243 -598.472,530.805 -594.488,531.321 -590.504,531.791 -586.52,532.213 -582.535,532.586 -578.551,532.911 -574.567,533.186 -570.583,533.411 -566.598,533.585 -562.614,533.708 -558.63,533.779 -554.646,533.799 -550.661,533.766 -546.677,533.681 -542.693,533.544 -538.709,533.355 -534.724,533.113 -530.74,532.82 -526.756,532.475 -522.772,532.078 -518.787,531.631 -514.803,531.133 -510.819,530.585 -506.835,529.987 -502.85,529.342 -498.866,528.648 -494.882,527.908 -490.898,527.121 -486.913,526.29 -482.929,525.414 -478.945,524.496 -474.961,523.536 -470.976,522.536 -466.992,521.497 -463.008,520.421 -459.024,519.308 -455.039,518.161 -451.055,516.981 -447.071,515.769 -443.087,514.528 -439.102,513.258 -435.118,511.963 -431.134,510.643 -427.15,509.301 -423.165,507.938 -419.181,506.556 -415.197,505.158 -411.213,503.745 -407.228,502.319 -403.244,500.883 -399.26,499.439 -395.276,497.988 -391.291,496.533 -387.307,495.075 -383.323,493.618 -379.339,492.163 -375.354,490.713 -371.37,489.269 -367.386,487.834 -363.402,486.41 -359.417,484.999 -355.433,483.603 -351.449,482.225 -347.465,480.866 -343.48,479.528 -339.496,478.215 -335.512,476.927 -331.528,475.667 -327.543,474.437 -323.559,473.238 -319.575,472.074 -315.591,470.945 -311.606,469.853 -307.622,468.8 -303.638,467.789 -299.654,466.82 -295.669,465.896 -291.685,465.017 -287.701,464.186 -283.717,463.404 -279.732,462.673 -275.748,461.993 -271.764,461.366 -267.78,460.793 -263.795,460.276 -259.811,459.815 -255.827,459.412 -251.843,459.067 -247.858,458.781 -243.874,458.555 -239.89,458.39 -235.906,458.286 -231.921,458.244 -227.937,458.264 -223.953,458.346 -219.969,458.492 -215.984,458.7 -212,458.972 -208.016,459.306 -204.031,459.704 -200.047,460.164 -196.063,460.687 -192.079,461.272 -188.094,461.919 -184.11,462.628 -180.126,463.397 -176.142,464.225 -172.157,465.113 -168.173,466.06 -164.189,467.063 -160.205,468.123 -156.22,469.238 -152.236,470.407 -148.252,471.629 -144.268,472.902 -140.283,474.225 -136.299,475.596 -132.315,477.014 -128.331,478.477 -124.346,479.984 -120.362,481.531 -116.378,483.119 -112.394,484.744 -108.409,486.405 -104.425,488.1 -100.441,489.826 -96.4567,491.582 -92.4724,493.365 -88.4882,495.172 -84.5039,497.002 -80.5197,498.853 -76.5354,500.721 -72.5512,502.604 -68.5669,504.501 -64.5827,506.408 -60.5984,508.322 -56.6142,510.242 -52.6299,512.164 -48.6457,514.087 -44.6614,516.007 -40.6772,517.921 -36.6929,519.828 -32.7087,521.724 -28.7244,523.607 -24.7402,525.475 -20.7559,527.323 -16.7717,529.151 -12.7874,530.954 -8.80315,532.732 -4.8189,534.48 -0.834646,536.196 3.14961,537.879 7.13386,539.524 11.1181,541.131 15.1024,542.695 19.0866,544.215 23.0709,545.689 27.0551,547.113 31.0394,548.487 35.0236,549.806 39.0079,551.07 42.9921,552.276 46.9764,553.422 50.9606,554.505 54.9449,555.524 58.9291,556.477 62.9134,557.362 66.8976,558.177 70.8819,558.921 74.8661,559.591 78.8504,560.187 82.8346,560.706 86.8189,561.147 90.8031,561.509 94.7874,561.791 98.7717,561.991 102.756,562.108 106.74,562.142 110.724,562.091 114.709,561.954 118.693,561.731 122.677,561.421 126.661,561.023 130.646,560.538 134.63,559.963 138.614,559.3 142.598,558.549 146.583,557.707 150.567,556.777 154.551,555.758 158.535,554.65 162.52,553.453 166.504,552.168 170.488,550.795 174.472,549.334 178.457,547.787 182.441,546.154 186.425,544.435 190.409,542.632 194.394,540.745 198.378,538.777 202.362,536.726 206.346,534.596 210.331,532.387 214.315,530.101 218.299,527.738 222.283,525.302 226.268,522.792 230.252,520.211 234.236,517.561 238.22,514.843 242.205,512.059 246.189,509.211 250.173,506.302 254.157,503.332 258.142,500.305 262.126,497.222 266.11,494.086 270.094,490.898 274.079,487.661 278.063,484.378 282.047,481.051 286.031,477.682 290.016,474.273 294,470.827 297.984,467.347 301.969,463.835 305.953,460.293 309.937,456.724 313.921,453.131 317.906,449.516 321.89,445.881 325.874,442.23 329.858,438.564 333.843,434.887 337.827,431.201 341.811,427.508 345.795,423.811 349.78,420.113 353.764,416.416 357.748,412.722 361.732,409.034 365.717,405.354 369.701,401.686 373.685,398.03 377.669,394.39 381.654,390.767 385.638,387.165 389.622,383.585 393.606,380.029 397.591,376.5 401.575,373 405.559,369.53 409.543,366.093 413.528,362.69 417.512,359.324 421.496,355.996 425.48,352.708 429.465,349.462 433.449,346.258 437.433,343.1 441.417,339.988 445.402,336.924 449.386,333.908 453.37,330.943 457.354,328.03 461.339,325.169 465.323,322.361 469.307,319.609 473.291,316.912 477.276,314.271 481.26,311.688 485.244,309.163 489.228,306.696 493.213,304.288 497.197,301.94 501.181,299.651 505.165,297.423 509.15,295.255 513.134,293.148 517.118,291.101 521.102,289.116 525.087,287.19 529.071,285.326 533.055,283.522 537.039,281.778 541.024,280.093 545.008,278.469 548.992,276.903 552.976,275.395 556.961,273.946 560.945,272.553 564.929,271.218 568.913,269.938 572.898,268.713 576.882,267.542 580.866,266.425 584.85,265.36 588.835,264.346 592.819,263.383 596.803,262.468 600.787,261.602 604.772,260.783 608.756,260.01 612.74,259.281 616.724,258.596 620.709,257.952 624.693,257.35 628.677,256.787 632.661,256.262 636.646,255.774 640.63,255.321 644.614,254.902 648.598,254.516 652.583,254.162 656.567,253.837 660.551,253.541 664.535,253.272 668.52,253.028 672.504,252.81 676.488,252.614 680.472,252.44 684.457,252.286 688.441,252.151 692.425,252.034 696.409,251.934 700.394,251.849 704.378,251.777 708.362,251.719 712.346,251.672 716.331,251.636 720.315,251.609 724.299,251.591 728.283,251.58 732.268,251.575 736.252,251.576 740.236,251.581 744.22,251.59 748.205,251.602 752.189,251.617 756.173,251.632 760.157,251.649 764.142,251.666 768.126,251.682 772.11,251.698 776.094,251.712 780.079,251.725 784.063,251.736 788.047,251.745 792.031,251.751 796.016,251.755 800,251.757 803.984,251.755 807.969,251.751 811.953,251.745 815.937,251.736 819.921,251.725 823.906,251.712 827.89,251.698 831.874,251.682 835.858,251.666 839.843,251.649 843.827,251.632 847.811,251.617 851.795,251.602 855.78,251.59 859.764,251.581 863.748,251.576 867.732,251.575 871.717,251.58 875.701,251.591 879.685,251.609 883.669,251.636 887.654,251.672 891.638,251.719 895.622,251.777 899.606,251.849 903.591,251.934 907.575,252.034 911.559,252.151 915.543,252.286 919.528,252.44 923.512,252.614 927.496,252.81 931.48,253.028 935.465,253.272 939.449,253.541 943.433,253.837 947.417,254.162 951.402,254.516 955.386,254.902 959.37,255.321 963.354,255.774 967.339,256.262 971.323,256.787 975.307,257.35 979.291,257.952 983.276,258.596 987.26,259.281 991.244,260.01 995.228,260.783 999.213,261.602 1003.2,262.468 1007.18,263.383 1011.17,264.346 1015.15,265.36 1019.13,266.425 1023.12,267.542 1027.1,268.713 1031.09,269.938 1035.07,271.218 1039.06,272.553 1043.04,273.946 1047.02,275.395 1051.01,276.903 1054.99,278.469 1058.98,280.093 1062.96,281.778 1066.94,283.522 1070.93,285.326 1074.91,287.19 1078.9,289.116 1082.88,291.101 1086.87,293.148 1090.85,295.255 1094.83,297.423 1098.82,299.651 1102.8,301.94 1106.79,304.288 1110.77,306.696 1114.76,309.163 1118.74,311.688 1122.72,314.271 1126.71,316.912 1130.69,319.609 1134.68,322.361 1138.66,325.169 1142.65,328.03 1146.63,330.943 1150.61,333.908 1154.6,336.924 1158.58,339.988 1162.57,343.1 1166.55,346.258 1170.54,349.462 1174.52,352.708 1178.5,355.996 1182.49,359.324 1186.47,362.69 1190.46,366.093 1194.44,369.53 1198.43,373 1202.41,376.5 1206.39,380.029 1210.38,383.585 1214.36,387.165 1218.35,390.767 1222.33,394.39 1226.31,398.03 1230.3,401.686 1234.28,405.354 1238.27,409.034 1242.25,412.722 1246.24,416.416 1250.22,420.113 1254.2,423.811 1258.19,427.508 1262.17,431.201 1266.16,434.887 1270.14,438.564 1274.13,442.23 1278.11,445.881 1282.09,449.516 1286.08,453.131 1290.06,456.724 1294.05,460.293 1298.03,463.835 1302.02,467.347 1306,470.827 1309.98,474.273 1313.97,477.682 1317.95,481.051 1321.94,484.378 1325.92,487.661 1329.91,490.898 1333.89,494.086 1337.87,497.222 1341.86,500.305 1345.84,503.332 1349.83,506.302 1353.81,509.211 1357.8,512.059 1361.78,514.843 1365.76,517.561 1369.75,520.211 1373.73,522.792 1377.72,525.302 1381.7,527.738 1385.69,530.101 1389.67,532.387 1393.65,534.596 1397.64,536.726 1401.62,538.777 1405.61,540.745 1409.59,542.632 1413.57,544.435 1417.56,546.154 1421.54,547.787 1425.53,549.334 1429.51,550.795 1433.5,552.168 1437.48,553.453 1441.46,554.65 1445.45,555.758 1449.43,556.777 1453.42,557.707 1457.4,558.549 1461.39,559.3 1465.37,559.963 1469.35,560.538 1473.34,561.023 1477.32,561.421 1481.31,561.731 1485.29,561.954 1489.28,562.091 1493.26,562.142 1497.24,562.108 1501.23,561.991 1505.21,561.791 1509.2,561.509 1513.18,561.147 1517.17,560.706 1521.15,560.187 1525.13,559.591 1529.12,558.921 1533.1,558.177 1537.09,557.362 1541.07,556.477 1545.06,555.524 1549.04,554.505 1553.02,553.422 1557.01,552.276 1560.99,551.07 1564.98,549.806 1568.96,548.487 1572.94,547.113 1576.93,545.689 1580.91,544.215 1584.9,542.695 1588.88,541.131 1592.87,539.524 1596.85,537.879 1600.83,536.196 1604.82,534.48 1608.8,532.732 1612.79,530.954 1616.77,529.151 1620.76,527.323 1624.74,525.475 1628.72,523.607 1632.71,521.724 1636.69,519.828 1640.68,517.921 1644.66,516.007 1648.65,514.087 1652.63,512.164 1656.61,510.242 1660.6,508.322 1664.58,506.408 1668.57,504.501 1672.55,502.604 1676.54,500.721 1680.52,498.853 1684.5,497.002 1688.49,495.172 1692.47,493.365 1696.46,491.582 1700.44,489.826 1704.43,488.1 1708.41,486.405 1712.39,484.744 1716.38,483.119 1720.36,481.531 1724.35,479.984 1728.33,478.477 1732.31,477.014 1736.3,475.596 1740.28,474.225 1744.27,472.902 1748.25,471.629 1752.24,470.407 1756.22,469.238 1760.2,468.123 1764.19,467.063 1768.17,466.06 1772.16,465.113 1776.14,464.225 1780.13,463.397 1784.11,462.628 1788.09,461.919 1792.08,461.272 1796.06,460.687 1800.05,460.164 1804.03,459.704 1808.02,459.306 1812,458.972 1815.98,458.7 1819.97,458.492 1823.95,458.346 1827.94,458.264 1831.92,458.244 1835.91,458.286 1839.89,458.39 1843.87,458.555 1847.86,458.781 1851.84,459.067 1855.83,459.412 1859.81,459.815 1863.8,460.276 1867.78,460.793 1871.76,461.366 1875.75,461.993 1879.73,462.673 1883.72,463.404 1887.7,464.186 1891.69,465.017 1895.67,465.896 1899.65,466.82 1903.64,467.789 1907.62,468.8 1911.61,469.853 1915.59,470.945 1919.57,472.074 1923.56,473.238 1927.54,474.437 1931.53,475.667 1935.51,476.927 1939.5,478.215 1943.48,479.528 1947.46,480.866 1951.45,482.225 1955.43,483.603 1959.42,484.999 1963.4,486.41 1967.39,487.834 1971.37,489.269 1975.35,490.713 1979.34,492.163 1983.32,493.618 1987.31,495.075 1991.29,496.533 1995.28,497.988 1999.26,499.439 2003.24,500.883 2007.23,502.319 2011.21,503.745 2015.2,505.158 2019.18,506.556 2023.17,507.938 2027.15,509.301 2031.13,510.643 2035.12,511.963 2039.1,513.258 2043.09,514.528 2047.07,515.769 2051.06,516.981 2055.04,518.161 2059.02,519.308 2063.01,520.421 2066.99,521.497 2070.98,522.536 2074.96,523.536 2078.94,524.496 2082.93,525.414 2086.91,526.29 2090.9,527.121 2094.88,527.908 2098.87,528.648 2102.85,529.342 2106.83,529.987 2110.82,530.585 2114.8,531.133 2118.79,531.631 2122.77,532.078 2126.76,532.475 2130.74,532.82 2134.72,533.113 2138.71,533.355 2142.69,533.544 2146.68,533.681 2150.66,533.766 2154.65,533.799 2158.63,533.779 2162.61,533.708 2166.6,533.585 2170.58,533.411 2174.57,533.186 2178.55,532.911 2182.54,532.586 2186.52,532.213 2190.5,531.791 2194.49,531.321 2198.47,530.805 2202.46,530.243 2206.44,529.636 2210.43,528.986 2214.41,528.293 2218.39,527.559 2222.38,526.785 2226.36,525.972 2230.35,525.122 2234.33,524.235 2238.31,523.314 2242.3,522.36 2246.28,521.374 2250.27,520.358 2254.25,519.314 2258.24,518.244 2262.22,517.148 2266.2,516.029 2270.19,514.889 2274.17,513.729 2278.16,512.551 2282.14,511.357 2286.13,510.149 2290.11,508.928 2294.09,507.698 2298.08,506.459 2302.06,505.213 2306.05,503.962 2310.03,502.709 2314.02,501.455 2318,500.202 2321.98,498.953 2325.97,497.708 2329.95,496.469 2333.94,495.24 2337.92,494.021 2341.91,492.814 2345.89,491.622 2349.87,490.445 2353.86,489.286 2357.84,488.147 2361.83,487.029 2365.81,485.933 2369.8,484.862 2373.78,483.817 2377.76,482.8 2381.75,481.811 2385.73,480.853 2389.72,479.927 2393.7,479.035 2397.69,478.176 2401.67,477.354 2405.65,476.569 2409.64,475.821 2413.62,475.113 2417.61,474.445 2421.59,473.818 2425.57,473.233 2429.56,472.691 2433.54,472.193 2437.53,471.739 2441.51,471.33 2445.5,470.966 2449.48,470.648 2453.46,470.376 2457.45,470.151 2461.43,469.973 2465.42,469.842 2469.4,469.758 2473.39,469.722 2477.37,469.732 2481.35,469.79 2485.34,469.895 2489.32,470.047 2493.31,470.245 2497.29,470.489 2501.28,470.779 2505.26,471.114 2509.24,471.493 2513.23,471.917 2517.21,472.383 2521.2,472.892 2525.18,473.443 2529.17,474.034 2533.15,474.665 2537.13,475.334 2541.12,476.041 2545.1,476.785 2549.09,477.564 2553.07,478.377 2557.06,479.222 2561.04,480.099 2565.02,481.006 2569.01,481.942 2572.99,482.904 2576.98,483.892 2580.96,484.905 2584.94,485.939 2588.93,486.995 2592.91,488.069 2596.9,489.162 2600.88,490.27 2604.87,491.392 2608.85,492.526 2612.83,493.671 2616.82,494.825 2620.8,495.985 2624.79,497.151 2628.77,498.321 2632.76,499.492 2636.74,500.663 2640.72,501.831 2644.71,502.996 2648.69,504.156 2652.68,505.308 2656.66,506.451 2660.65,507.583 2664.63,508.702 2668.61,509.807 2672.6,510.896 2676.58,511.967 2680.57,513.019 2684.55,514.05 2688.54,515.058 2692.52,516.042 2696.5,517 2700.49,517.932 2704.47,518.835 2708.46,519.708 2712.44,520.55 2716.43,521.359 2720.41,522.134 2724.39,522.875 2728.38,523.579 2732.36,524.247 2736.35,524.876 2740.33,525.466 2744.31,526.016 2748.3,526.525 2752.28,526.993 2756.27,527.418 2760.25,527.8 2764.24,528.139 2768.22,528.434 2772.2,528.684 2776.19,528.889 2780.17,529.048 2784.16,529.163 2788.14,529.231 2792.13,529.254 "/>
<polyline clip-path="url(#clip282)" style="stroke:#000000; stroke-linecap:round; stroke-linejoin:round; stroke-width:4; stroke-opacity:1; fill:none" stroke-dasharray="16, 10" points="-1590.55,251.575 3190.55,251.575 "/>
<polyline clip-path="url(#clip282)" style="stroke:#000000; stroke-linecap:round; stroke-linejoin:round; stroke-width:4; stroke-opacity:1; fill:none" stroke-dasharray="16, 10" points="-1590.55,748.425 3190.55,748.425 "/>
<line clip-path="url(#clip282)" x1="733.591" y1="251.592" x2="693.591" y2="211.592" style="stroke:#ff0000; stroke-width:4; stroke-opacity:1"/>
<line clip-path="url(#clip282)" x1="733.591" y1="251.592" x2="693.591" y2="291.592" style="stroke:#ff0000; stroke-width:4; stroke-opacity:1"/>
<line clip-path="url(#clip282)" x1="733.591" y1="251.592" x2="773.591" y2="291.592" style="stroke:#ff0000; stroke-width:4; stroke-opacity:1"/>
<line clip-path="url(#clip282)" x1="733.591" y1="251.592" x2="773.591" y2="211.592" style="stroke:#ff0000; stroke-width:4; stroke-opacity:1"/>
<line clip-path="url(#clip282)" x1="866.399" y1="251.558" x2="826.399" y2="211.558" style="stroke:#ff0000; stroke-width:4; stroke-opacity:1"/>
<line clip-path="url(#clip282)" x1="866.399" y1="251.558" x2="826.399" y2="291.558" style="stroke:#ff0000; stroke-width:4; stroke-opacity:1"/>
<line clip-path="url(#clip282)" x1="866.399" y1="251.558" x2="906.399" y2="291.558" style="stroke:#ff0000; stroke-width:4; stroke-opacity:1"/>
<line clip-path="url(#clip282)" x1="866.399" y1="251.558" x2="906.399" y2="211.558" style="stroke:#ff0000; stroke-width:4; stroke-opacity:1"/>
</svg>
