<?xml version="1.0" encoding="utf-8"?>
<svg xmlns="http://www.w3.org/2000/svg" xmlns:xlink="http://www.w3.org/1999/xlink" width="180" height="63" viewBox="0 0 720 252">
<defs>
  <clipPath id="clip930">
    <rect x="0" y="0" width="720" height="252"/>
  </clipPath>
</defs>
<path clip-path="url(#clip930)" d="M0 252 L720 252 L720 2.84217e-14 L0 2.84217e-14  Z" fill="#ffffff" fill-rule="evenodd" fill-opacity="1"/>
<defs>
  <clipPath id="clip931">
    <rect x="144" y="0" width="505" height="252"/>
  </clipPath>
</defs>
<path clip-path="url(#clip930)" d="M0 252 L720 252 L720 2.84217e-14 L0 2.84217e-14  Z" fill="#ffffff" fill-rule="evenodd" fill-opacity="1"/>
<polyline clip-path="url(#clip930)" style="stroke:#000000; stroke-linecap:round; stroke-linejoin:round; stroke-width:4; stroke-opacity:1; fill:none" points="0,252 720,252 "/>
<polyline clip-path="url(#clip930)" style="stroke:#000000; stroke-linecap:round; stroke-linejoin:round; stroke-width:4; stroke-opacity:1; fill:none" points="0,2.84217e-14 720,2.84217e-14 "/>
<polyline clip-path="url(#clip930)" style="stroke:#000000; stroke-linecap:round; stroke-linejoin:round; stroke-width:4; stroke-opacity:1; fill:none" points="0,252 0,2.84217e-14 "/>
<polyline clip-path="url(#clip930)" style="stroke:#000000; stroke-linecap:round; stroke-linejoin:round; stroke-width:4; stroke-opacity:1; fill:none" points="720,252 720,2.84217e-14 "/>
<polyline clip-path="url(#clip930)" style="stroke:#000000; stroke-linecap:round; stroke-linejoin:round; stroke-width:4; stroke-opacity:1; fill:none" points="-720,126 1440,126 "/>
<polyline clip-path="url(#clip930)" style="stroke:#0000ff; stroke-linecap:round; stroke-linejoin:round; stroke-width:4; stroke-opacity:1; fill:none" points="0,124.216 0.72,124.179 1.44,124.142 2.16,124.104 2.88,124.065 3.6,124.025 4.32,123.985 5.04,123.943 5.76,123.901 6.48,123.858 7.2,123.814 7.92,123.769 8.64,123.723 9.36,123.677 10.08,123.629 10.8,123.581 11.52,123.531 12.24,123.481 12.96,123.429 13.68,123.376 14.4,123.323 15.12,123.268 15.84,123.212 16.56,123.155 17.28,123.097 18,123.038 18.72,122.978 19.44,122.916 20.16,122.854 20.88,122.79 21.6,122.725 22.32,122.658 23.04,122.591 23.76,122.522 24.48,122.451 25.2,122.38 25.92,122.307 26.64,122.233 27.36,122.157 28.08,122.08 28.8,122.002 29.52,121.922 30.24,121.841 30.96,121.759 31.68,121.675 32.4,121.589 33.12,121.502 33.84,121.414 34.56,121.324 35.28,121.233 36,121.14 36.72,121.045 37.44,120.949 38.16,120.852 38.88,120.753 39.6,120.652 40.32,120.55 41.04,120.446 41.76,120.341 42.48,120.234 43.2,120.126 43.92,120.015 44.64,119.904 45.36,119.791 46.08,119.676 46.8,119.559 47.52,119.441 48.24,119.322 48.96,119.2 49.68,119.078 50.4,118.953 51.12,118.827 51.84,118.7 52.56,118.571 53.28,118.44 54,118.308 54.72,118.174 55.44,118.038 56.16,117.901 56.88,117.763 57.6,117.623 58.32,117.482 59.04,117.339 59.76,117.194 60.48,117.048 61.2,116.901 61.92,116.752 62.64,116.602 63.36,116.45 64.08,116.297 64.8,116.143 65.52,115.987 66.24,115.83 66.96,115.672 67.68,115.512 68.4,115.351 69.12,115.189 69.84,115.026 70.56,114.862 71.28,114.696 72,114.529 72.72,114.361 73.44,114.192 74.16,114.022 74.88,113.851 75.6,113.679 76.32,113.506 77.04,113.332 77.76,113.157 78.48,112.981 79.2,112.805 79.92,112.627 80.64,112.449 81.36,112.27 82.08,112.091 82.8,111.91 83.52,111.73 84.24,111.548 84.96,111.366 85.68,111.183 86.4,111 87.12,110.817 87.84,110.633 88.56,110.449 89.28,110.264 90,110.079 90.72,109.894 91.44,109.709 92.16,109.523 92.88,109.337 93.6,109.151 94.32,108.966 95.04,108.78 95.76,108.594 96.48,108.408 97.2,108.222 97.92,108.037 98.64,107.851 99.36,107.666 100.08,107.481 100.8,107.296 101.52,107.112 102.24,106.928 102.96,106.745 103.68,106.562 104.4,106.379 105.12,106.197 105.84,106.016 106.56,105.835 107.28,105.654 108,105.475 108.72,105.296 109.44,105.118 110.16,104.941 110.88,104.764 111.6,104.588 112.32,104.414 113.04,104.24 113.76,104.067 114.48,103.895 115.2,103.724 115.92,103.555 116.64,103.386 117.36,103.218 118.08,103.052 118.8,102.886 119.52,102.722 120.24,102.559 120.96,102.398 121.68,102.237 122.4,102.078 123.12,101.921 123.84,101.764 124.56,101.609 125.28,101.456 126,101.303 126.72,101.153 127.44,101.003 128.16,100.856 128.88,100.709 129.6,100.564 130.32,100.421 131.04,100.279 131.76,100.139 132.48,100 133.2,99.8633 133.92,99.7277 134.64,99.5938 135.36,99.4615 136.08,99.3308 136.8,99.2018 137.52,99.0743 138.24,98.9485 138.96,98.8244 139.68,98.7019 140.4,98.581 141.12,98.4618 141.84,98.3442 142.56,98.2283 143.28,98.1141 144,98.0015 144.72,97.8905 145.44,97.7812 146.16,97.6736 146.88,97.5676 147.6,97.4632 148.32,97.3605 149.04,97.2594 149.76,97.1599 150.48,97.0621 151.2,96.9658 151.92,96.8712 152.64,96.7781 153.36,96.6867 154.08,96.5967 154.8,96.5084 155.52,96.4216 156.24,96.3364 156.96,96.2526 157.68,96.1704 158.4,96.0897 159.12,96.0105 159.84,95.9328 160.56,95.8565 161.28,95.7817 162,95.7083 162.72,95.6364 163.44,95.5658 164.16,95.4967 164.88,95.4289 165.6,95.3625 166.32,95.2974 167.04,95.2337 167.76,95.1712 168.48,95.1101 169.2,95.0503 169.92,94.9918 170.64,94.9345 171.36,94.8785 172.08,94.8237 172.8,94.7701 173.52,94.7177 174.24,94.6665 174.96,94.6165 175.68,94.5676 176.4,94.5199 177.12,94.4734 177.84,94.4279 178.56,94.3836 179.28,94.3404 180,94.2983 180.72,94.2573 181.44,94.2173 182.16,94.1784 182.88,94.1406 183.6,94.1038 184.32,94.068 185.04,94.0333 185.76,93.9996 186.48,93.9669 187.2,93.9352 187.92,93.9045 188.64,93.8749 189.36,93.8462 190.08,93.8186 190.8,93.7919 191.52,93.7662 192.24,93.7416 192.96,93.7179 193.68,93.6952 194.4,93.6735 195.12,93.6528 195.84,93.6331 196.56,93.6144 197.28,93.5967 198,93.5801 198.72,93.5644 199.44,93.5498 200.16,93.5362 200.88,93.5236 201.6,93.5121 202.32,93.5017 203.04,93.4923 203.76,93.484 204.48,93.4768 205.2,93.4707 205.92,93.4656 206.64,93.4618 207.36,93.459 208.08,93.4574 208.8,93.457 209.52,93.4578 210.24,93.4598 210.96,93.4629 211.68,93.4673 212.4,93.473 213.12,93.48 213.84,93.4882 214.56,93.4977 215.28,93.5086 216,93.5208 216.72,93.5344 217.44,93.5493 218.16,93.5657 218.88,93.5835 219.6,93.6027 220.32,93.6235 221.04,93.6457 221.76,93.6694 222.48,93.6947 223.2,93.7215 223.92,93.75 224.64,93.78 225.36,93.8117 226.08,93.845 226.8,93.88 227.52,93.9167 228.24,93.9551 228.96,93.9953 229.68,94.0372 230.4,94.081 231.12,94.1265 231.84,94.1739 232.56,94.2232 233.28,94.2743 234,94.3273 234.72,94.3823 235.44,94.4392 236.16,94.4981 236.88,94.5589 237.6,94.6218 238.32,94.6867 239.04,94.7536 239.76,94.8226 240.48,94.8937 241.2,94.9669 241.92,95.0422 242.64,95.1196 243.36,95.1992 244.08,95.2809 244.8,95.3649 245.52,95.451 246.24,95.5393 246.96,95.6298 247.68,95.7226 248.4,95.8176 249.12,95.9149 249.84,96.0144 250.56,96.1162 251.28,96.2203 252,96.3266 252.72,96.4352 253.44,96.5462 254.16,96.6594 254.88,96.7749 255.6,96.8927 256.32,97.0128 257.04,97.1352 257.76,97.26 258.48,97.387 259.2,97.5163 259.92,97.6479 260.64,97.7818 261.36,97.918 262.08,98.0565 262.8,98.1972 263.52,98.3402 264.24,98.4854 264.96,98.6329 265.68,98.7825 266.4,98.9345 267.12,99.0886 267.84,99.2448 268.56,99.4033 269.28,99.5639 270,99.7266 270.72,99.8915 271.44,100.058 272.16,100.227 272.88,100.399 273.6,100.572 274.32,100.747 275.04,100.924 275.76,101.103 276.48,101.284 277.2,101.467 277.92,101.651 278.64,101.838 279.36,102.026 280.08,102.216 280.8,102.408 281.52,102.602 282.24,102.797 282.96,102.994 283.68,103.193 284.4,103.393 285.12,103.595 285.84,103.798 286.56,104.003 287.28,104.209 288,104.417 288.72,104.626 289.44,104.836 290.16,105.047 290.88,105.26 291.6,105.474 292.32,105.69 293.04,105.906 293.76,106.123 294.48,106.342 295.2,106.561 295.92,106.782 296.64,107.003 297.36,107.226 298.08,107.449 298.8,107.673 299.52,107.898 300.24,108.123 300.96,108.349 301.68,108.576 302.4,108.803 303.12,109.032 303.84,109.26 304.56,109.489 305.28,109.719 306,109.949 306.72,110.179 307.44,110.41 308.16,110.641 308.88,110.872 309.6,111.103 310.32,111.335 311.04,111.567 311.76,111.799 312.48,112.031 313.2,112.264 313.92,112.496 314.64,112.728 315.36,112.96 316.08,113.193 316.8,113.425 317.52,113.657 318.24,113.889 318.96,114.121 319.68,114.352 320.4,114.584 321.12,114.815 321.84,115.046 322.56,115.277 323.28,115.507 324,115.737 324.72,115.967 325.44,116.196 326.16,116.425 326.88,116.654 327.6,116.883 328.32,117.111 329.04,117.338 329.76,117.565 330.48,117.792 331.2,118.019 331.92,118.244 332.64,118.47 333.36,118.695 334.08,118.92 334.8,119.144 335.52,119.367 336.24,119.591 336.96,119.813 337.68,120.036 338.4,120.258 339.12,120.479 339.84,120.7 340.56,120.921 341.28,121.141 342,121.36 342.72,121.58 343.44,121.799 344.16,122.017 344.88,122.235 345.6,122.453 346.32,122.67 347.04,122.887 347.76,123.104 348.48,123.32 349.2,123.536 349.92,123.752 350.64,123.967 351.36,124.182 352.08,124.397 352.8,124.611 353.52,124.826 354.24,125.04 354.96,125.254 355.68,125.467 356.4,125.681 357.12,125.894 357.84,126.108 358.56,126.321 359.28,126.534 360,126.747 360.72,126.96 361.44,127.173 362.16,127.386 362.88,127.599 363.6,127.812 364.32,128.025 365.04,128.238 365.76,128.451 366.48,128.664 367.2,128.877 367.92,129.091 368.64,129.304 369.36,129.518 370.08,129.731 370.8,129.945 371.52,130.16 372.24,130.374 372.96,130.588 373.68,130.803 374.4,131.018 375.12,131.233 375.84,131.449 376.56,131.664 377.28,131.88 378,132.096 378.72,132.313 379.44,132.529 380.16,132.746 380.88,132.964 381.6,133.181 382.32,133.399 383.04,133.617 383.76,133.835 384.48,134.054 385.2,134.273 385.92,134.492 386.64,134.711 387.36,134.931 388.08,135.151 388.8,135.371 389.52,135.591 390.24,135.811 390.96,136.032 391.68,136.253 392.4,136.473 393.12,136.694 393.84,136.916 394.56,137.137 395.28,137.358 396,137.579 396.72,137.801 397.44,138.022 398.16,138.243 398.88,138.464 399.6,138.685 400.32,138.906 401.04,139.127 401.76,139.348 402.48,139.568 403.2,139.788 403.92,140.008 404.64,140.227 405.36,140.446 406.08,140.665 406.8,140.883 407.52,141.1 408.24,141.317 408.96,141.534 409.68,141.75 410.4,141.965 411.12,142.179 411.84,142.393 412.56,142.605 413.28,142.817 414,143.028 414.72,143.238 415.44,143.447 416.16,143.655 416.88,143.861 417.6,144.067 418.32,144.271 419.04,144.473 419.76,144.675 420.48,144.875 421.2,145.073 421.92,145.27 422.64,145.465 423.36,145.659 424.08,145.851 424.8,146.041 425.52,146.229 426.24,146.415 426.96,146.599 427.68,146.782 428.4,146.962 429.12,147.14 429.84,147.315 430.56,147.489 431.28,147.66 432,147.829 432.72,147.995 433.44,148.159 434.16,148.32 434.88,148.478 435.6,148.634 436.32,148.787 437.04,148.937 437.76,149.085 438.48,149.229 439.2,149.37 439.92,149.509 440.64,149.644 441.36,149.776 442.08,149.905 442.8,150.031 443.52,150.153 444.24,150.272 444.96,150.388 445.68,150.5 446.4,150.609 447.12,150.714 447.84,150.816 448.56,150.914 449.28,151.008 450,151.099 450.72,151.186 451.44,151.269 452.16,151.348 452.88,151.423 453.6,151.495 454.32,151.562 455.04,151.626 455.76,151.686 456.48,151.741 457.2,151.793 457.92,151.841 458.64,151.884 459.36,151.923 460.08,151.959 460.8,151.99 461.52,152.017 462.24,152.04 462.96,152.058 463.68,152.073 464.4,152.083 465.12,152.089 465.84,152.091 466.56,152.089 467.28,152.082 468,152.072 468.72,152.057 469.44,152.038 470.16,152.014 470.88,151.987 471.6,151.955 472.32,151.919 473.04,151.879 473.76,151.835 474.48,151.787 475.2,151.735 475.92,151.679 476.64,151.618 477.36,151.554 478.08,151.486 478.8,151.413 479.52,151.337 480.24,151.257 480.96,151.173 481.68,151.085 482.4,150.994 483.12,150.898 483.84,150.799 484.56,150.697 485.28,150.591 486,150.481 486.72,150.367 487.44,150.251 488.16,150.13 488.88,150.007 489.6,149.88 490.32,149.75 491.04,149.617 491.76,149.48 492.48,149.341 493.2,149.198 493.92,149.053 494.64,148.904 495.36,148.753 496.08,148.599 496.8,148.442 497.52,148.283 498.24,148.121 498.96,147.957 499.68,147.79 500.4,147.621 501.12,147.45 501.84,147.276 502.56,147.101 503.28,146.923 504,146.743 504.72,146.562 505.44,146.378 506.16,146.193 506.88,146.006 507.6,145.818 508.32,145.628 509.04,145.437 509.76,145.244 510.48,145.05 511.2,144.854 511.92,144.658 512.64,144.46 513.36,144.262 514.08,144.062 514.8,143.862 515.52,143.661 516.24,143.459 516.96,143.257 517.68,143.054 518.4,142.851 519.12,142.647 519.84,142.443 520.56,142.239 521.28,142.035 522,141.83 522.72,141.626 523.44,141.421 524.16,141.217 524.88,141.013 525.6,140.809 526.32,140.605 527.04,140.402 527.76,140.199 528.48,139.997 529.2,139.795 529.92,139.594 530.64,139.394 531.36,139.195 532.08,138.996 532.8,138.798 533.52,138.601 534.24,138.405 534.96,138.21 535.68,138.016 536.4,137.823 537.12,137.632 537.84,137.442 538.56,137.253 539.28,137.065 540,136.879 540.72,136.694 541.44,136.51 542.16,136.328 542.88,136.148 543.6,135.969 544.32,135.792 545.04,135.616 545.76,135.442 546.48,135.27 547.2,135.1 547.92,134.931 548.64,134.764 549.36,134.599 550.08,134.436 550.8,134.275 551.52,134.115 552.24,133.958 552.96,133.802 553.68,133.649 554.4,133.497 555.12,133.348 555.84,133.2 556.56,133.055 557.28,132.911 558,132.77 558.72,132.63 559.44,132.493 560.16,132.358 560.88,132.225 561.6,132.093 562.32,131.965 563.04,131.838 563.76,131.713 564.48,131.59 565.2,131.47 565.92,131.352 566.64,131.235 567.36,131.121 568.08,131.009 568.8,130.899 569.52,130.791 570.24,130.686 570.96,130.582 571.68,130.481 572.4,130.381 573.12,130.284 573.84,130.189 574.56,130.095 575.28,130.004 576,129.915 576.72,129.828 577.44,129.743 578.16,129.66 578.88,129.579 579.6,129.5 580.32,129.423 581.04,129.348 581.76,129.275 582.48,129.203 583.2,129.134 583.92,129.067 584.64,129.001 585.36,128.938 586.08,128.876 586.8,128.816 587.52,128.758 588.24,128.701 588.96,128.647 589.68,128.594 590.4,128.543 591.12,128.493 591.84,128.446 592.56,128.4 593.28,128.355 594,128.313 594.72,128.272 595.44,128.232 596.16,128.194 596.88,128.158 597.6,128.123 598.32,128.09 599.04,128.058 599.76,128.028 600.48,127.999 601.2,127.971 601.92,127.945 602.64,127.92 603.36,127.897 604.08,127.875 604.8,127.854 605.52,127.834 606.24,127.816 606.96,127.799 607.68,127.783 608.4,127.768 609.12,127.755 609.84,127.742 610.56,127.73 611.28,127.72 612,127.711 612.72,127.702 613.44,127.695 614.16,127.688 614.88,127.683 615.6,127.678 616.32,127.674 617.04,127.671 617.76,127.669 618.48,127.667 619.2,127.667 619.92,127.667 620.64,127.667 621.36,127.668 622.08,127.67 622.8,127.673 623.52,127.676 624.24,127.679 624.96,127.684 625.68,127.688 626.4,127.693 627.12,127.698 627.84,127.704 628.56,127.71 629.28,127.717 630,127.724 630.72,127.731 631.44,127.738 632.16,127.745 632.88,127.753 633.6,127.761 634.32,127.769 635.04,127.776 635.76,127.785 636.48,127.793 637.2,127.801 637.92,127.809 638.64,127.817 639.36,127.825 640.08,127.833 640.8,127.841 641.52,127.848 642.24,127.856 642.96,127.863 643.68,127.87 644.4,127.877 645.12,127.883 645.84,127.89 646.56,127.896 647.28,127.901 648,127.906 648.72,127.911 649.44,127.916 650.16,127.92 650.88,127.924 651.6,127.927 652.32,127.93 653.04,127.932 653.76,127.934 654.48,127.935 655.2,127.936 655.92,127.937 656.64,127.936 657.36,127.936 658.08,127.934 658.8,127.932 659.52,127.93 660.24,127.927 660.96,127.923 661.68,127.919 662.4,127.914 663.12,127.908 663.84,127.902 664.56,127.895 665.28,127.888 666,127.88 666.72,127.871 667.44,127.862 668.16,127.852 668.88,127.842 669.6,127.83 670.32,127.819 671.04,127.806 671.76,127.793 672.48,127.779 673.2,127.765 673.92,127.75 674.64,127.735 675.36,127.719 676.08,127.702 676.8,127.685 677.52,127.667 678.24,127.649 678.96,127.63 679.68,127.61 680.4,127.59 681.12,127.57 681.84,127.549 682.56,127.527 683.28,127.506 684,127.483 684.72,127.46 685.44,127.437 686.16,127.414 686.88,127.39 687.6,127.365 688.32,127.341 689.04,127.316 689.76,127.29 690.48,127.265 691.2,127.239 691.92,127.213 692.64,127.186 693.36,127.159 694.08,127.133 694.8,127.106 695.52,127.078 696.24,127.051 696.96,127.023 697.68,126.996 698.4,126.968 699.12,126.94 699.84,126.913 700.56,126.885 701.28,126.857 702,126.829 702.72,126.801 703.44,126.774 704.16,126.746 704.88,126.719 705.6,126.691 706.32,126.664 707.04,126.637 707.76,126.609 708.48,126.583 709.2,126.556 709.92,126.529 710.64,126.503 711.36,126.477 712.08,126.452 712.8,126.426 713.52,126.401 714.24,126.376 714.96,126.351 715.68,126.327 716.4,126.303 717.12,126.28 717.84,126.257 718.56,126.234 719.28,126.211 720,126.189 "/>
<path clip-path="url(#clip930)" d="M544.841 114.311 L696 114.311 L696 8.4 L544.841 8.4  Z" fill="#ffffff" fill-rule="evenodd" fill-opacity="1"/>
<polyline clip-path="url(#clip930)" style="stroke:#000000; stroke-linecap:round; stroke-linejoin:round; stroke-width:4; stroke-opacity:1; fill:none" points="544.841,114.311 696,114.311 696,8.4 544.841,8.4 544.841,114.311 "/>
<polyline clip-path="url(#clip930)" style="stroke:#0000ff; stroke-linecap:round; stroke-linejoin:round; stroke-width:4; stroke-opacity:1; fill:none" points="552.841,61.3555 600.841,61.3555 "/>
<path clip-path="url(#clip930)" d="M608.841 61.7391 Q608.841 57.8978 612.519 55.0637 Q616.219 52.2296 621.349 51.808 L621.349 49.0207 Q621.349 47.592 620.459 47.2172 Q619.569 46.819 616.126 46.819 L615.212 46.819 L615.212 45.32 Q619.335 45.4605 623.363 45.4605 Q627.392 45.4605 631.514 45.32 L631.514 46.819 L630.648 46.819 Q627.298 46.819 626.338 47.1938 Q625.377 47.5685 625.377 49.0207 L625.377 51.808 Q630.601 52.1828 634.372 55.0169 Q638.143 57.851 638.143 61.7391 Q638.143 65.3462 634.536 68.274 Q630.952 71.1784 625.377 71.6234 L625.377 74.3872 Q625.377 75.816 626.268 76.2142 Q627.158 76.6124 630.601 76.6124 L631.514 76.6124 L631.514 78.088 Q627.392 77.9474 623.363 77.9474 Q619.335 77.9474 615.212 78.088 L615.212 76.6124 L616.126 76.6124 Q619.522 76.6124 620.435 76.2142 Q621.349 75.7926 621.349 74.3872 L621.349 71.6234 Q616.172 71.2018 612.495 68.3442 Q608.841 65.4867 608.841 61.7391 M613.619 61.6923 Q613.619 69.4217 621.349 70.4523 L621.349 52.9557 Q617.648 53.4944 615.634 55.6727 Q613.619 57.851 613.619 61.6923 M625.377 70.4991 Q633.294 69.3514 633.294 61.7391 Q633.294 59.2563 632.545 57.4997 Q631.819 55.743 630.437 54.8295 Q629.078 53.916 627.954 53.5413 Q626.83 53.1431 625.377 52.9089 L625.377 70.4991 Z" fill="#000000" fill-rule="nonzero" fill-opacity="1" /><path clip-path="url(#clip930)" d="M655.508 45.4038 Q655.295 45.7809 654.852 45.8793 Q654.426 45.9613 654.065 45.7154 L649.769 42.551 L650.327 47.8632 Q650.376 48.2895 650.097 48.6174 Q649.819 48.9289 649.359 48.9289 Q648.9 48.9289 648.622 48.6174 Q648.343 48.2895 648.392 47.8632 L648.95 42.551 L644.654 45.7154 Q644.293 45.9613 643.851 45.8793 Q643.424 45.7809 643.211 45.4038 Q642.982 44.994 643.113 44.5841 Q643.26 44.1578 643.687 43.9938 L648.556 41.846 L643.687 39.6981 Q643.26 39.5342 643.113 39.1243 Q642.982 38.698 643.211 38.2881 Q643.424 37.911 643.851 37.829 Q644.293 37.7307 644.654 37.9766 L648.95 41.141 L648.392 35.8287 Q648.343 35.3861 648.622 35.0581 Q648.917 34.7302 649.359 34.7302 Q649.802 34.7302 650.081 35.0581 Q650.376 35.3861 650.327 35.8287 L649.769 41.141 L654.065 37.9766 Q654.426 37.7307 654.852 37.829 Q655.295 37.911 655.508 38.2881 Q655.737 38.698 655.59 39.1243 Q655.459 39.5342 655.032 39.6981 L650.163 41.846 L655.032 43.9938 Q655.459 44.1578 655.59 44.5841 Q655.737 44.994 655.508 45.4038 Z" fill="#000000" fill-rule="nonzero" fill-opacity="1" /><path clip-path="url(#clip930)" d="M686.865 58.7176 Q686.865 59.0455 686.654 59.8185 L682.064 78.1348 Q681.056 82.2103 677.777 85.0679 Q674.522 87.9254 670.821 87.9254 Q668.596 87.9254 667.167 86.7309 Q665.738 85.5597 665.738 83.7562 Q665.738 82.1635 666.581 81.3905 Q667.425 80.641 668.432 80.641 Q668.76 80.641 669.111 80.7347 Q669.462 80.8284 669.837 81.2266 Q670.212 81.6248 670.212 82.304 Q670.212 83.4049 669.251 84.2715 Q668.783 84.6697 668.338 84.7634 Q667.916 84.8571 667.19 84.8571 Q667.471 85.5129 667.987 85.9579 Q668.502 86.403 669.088 86.5669 Q669.673 86.7543 670.048 86.8011 Q670.446 86.8714 670.821 86.8714 Q673.819 86.8714 676.114 83.8499 Q676.793 82.9364 677.285 82.023 Q677.801 81.1329 678.175 80.032 Q678.55 78.9546 678.714 78.3691 Q678.902 77.7835 679.229 76.4484 Q677.051 78.6267 674.381 78.6267 Q673.257 78.6267 672.25 78.3222 Q671.266 78.0177 670.399 77.3853 Q669.533 76.7295 669.017 75.5818 Q668.525 74.4341 668.525 72.9116 Q668.525 71.2955 669.158 69.0938 Q669.79 66.8921 671.313 62.84 Q672.132 60.568 672.132 59.4671 Q672.132 58.9284 672.015 58.6005 Q671.898 58.2492 671.664 58.1321 Q671.43 57.9915 671.289 57.9681 Q671.172 57.9447 670.938 57.9447 Q669.556 57.9447 668.268 59.35 Q666.979 60.7554 666.089 63.894 Q665.902 64.4795 665.785 64.6201 Q665.668 64.7606 665.316 64.7606 Q664.731 64.7372 664.731 64.2687 Q664.731 64.0814 664.942 63.3553 Q665.153 62.6057 665.644 61.5049 Q666.16 60.3806 666.862 59.3735 Q667.565 58.3429 668.666 57.6168 Q669.79 56.8907 671.078 56.8907 Q672.835 56.8907 673.913 58.0384 Q675.013 59.1626 675.013 60.8256 Q675.013 61.5049 674.826 62.1139 Q674.662 62.6994 674.053 64.2687 Q671.594 70.5928 671.594 73.6846 Q671.594 74.4341 671.711 75.0665 Q671.851 75.6755 672.156 76.2845 Q672.46 76.87 673.069 77.2214 Q673.702 77.5493 674.568 77.5493 Q675.669 77.5493 676.7 77.034 Q677.754 76.4953 678.41 75.7692 Q679.089 75.0431 679.487 74.4341 Q679.909 73.8017 680.002 73.4738 L682.157 64.8543 L683.118 61.013 Q683.563 58.9284 683.773 58.4131 Q684.054 57.9213 684.546 57.6636 Q685.038 57.406 685.46 57.406 Q686.045 57.406 686.444 57.7573 Q686.865 58.1086 686.865 58.7176 Z" fill="#000000" fill-rule="nonzero" fill-opacity="1" /></svg>
