<?xml version="1.0" encoding="utf-8"?>
<svg xmlns="http://www.w3.org/2000/svg" xmlns:xlink="http://www.w3.org/1999/xlink" width="600" height="375" viewBox="0 0 2400 1500">
<defs>
  <clipPath id="clip620">
    <rect x="0" y="0" width="2400" height="1500"/>
  </clipPath>
</defs>
<path clip-path="url(#clip620)" d="M0 1500 L2400 1500 L2400 0 L0 0  Z" fill="#ffffff" fill-rule="evenodd" fill-opacity="1"/>
<defs>
  <clipPath id="clip621">
    <rect x="480" y="0" width="1681" height="1500"/>
  </clipPath>
</defs>
<path clip-path="url(#clip620)" d="M208.355 1329.31 L2352.76 1329.31 L2352.76 47.2441 L208.355 47.2441  Z" fill="#ffffff" fill-rule="evenodd" fill-opacity="1"/>
<defs>
  <clipPath id="clip622">
    <rect x="208" y="47" width="2145" height="1283"/>
  </clipPath>
</defs>
<polyline clip-path="url(#clip622)" style="stroke:#000000; stroke-linecap:round; stroke-linejoin:round; stroke-width:2; stroke-opacity:0.1; fill:none" points="208.355,1329.31 208.355,47.2441 "/>
<polyline clip-path="url(#clip622)" style="stroke:#000000; stroke-linecap:round; stroke-linejoin:round; stroke-width:2; stroke-opacity:0.1; fill:none" points="637.235,1329.31 637.235,47.2441 "/>
<polyline clip-path="url(#clip622)" style="stroke:#000000; stroke-linecap:round; stroke-linejoin:round; stroke-width:2; stroke-opacity:0.1; fill:none" points="1066.12,1329.31 1066.12,47.2441 "/>
<polyline clip-path="url(#clip622)" style="stroke:#000000; stroke-linecap:round; stroke-linejoin:round; stroke-width:2; stroke-opacity:0.1; fill:none" points="1495,1329.31 1495,47.2441 "/>
<polyline clip-path="url(#clip622)" style="stroke:#000000; stroke-linecap:round; stroke-linejoin:round; stroke-width:2; stroke-opacity:0.1; fill:none" points="1923.88,1329.31 1923.88,47.2441 "/>
<polyline clip-path="url(#clip622)" style="stroke:#000000; stroke-linecap:round; stroke-linejoin:round; stroke-width:2; stroke-opacity:0.1; fill:none" points="2352.76,1329.31 2352.76,47.2441 "/>
<polyline clip-path="url(#clip622)" style="stroke:#000000; stroke-linecap:round; stroke-linejoin:round; stroke-width:2; stroke-opacity:0.1; fill:none" points="208.355,1329.31 2352.76,1329.31 "/>
<polyline clip-path="url(#clip622)" style="stroke:#000000; stroke-linecap:round; stroke-linejoin:round; stroke-width:2; stroke-opacity:0.1; fill:none" points="208.355,1115.63 2352.76,1115.63 "/>
<polyline clip-path="url(#clip622)" style="stroke:#000000; stroke-linecap:round; stroke-linejoin:round; stroke-width:2; stroke-opacity:0.1; fill:none" points="208.355,901.955 2352.76,901.955 "/>
<polyline clip-path="url(#clip622)" style="stroke:#000000; stroke-linecap:round; stroke-linejoin:round; stroke-width:2; stroke-opacity:0.1; fill:none" points="208.355,688.277 2352.76,688.277 "/>
<polyline clip-path="url(#clip622)" style="stroke:#000000; stroke-linecap:round; stroke-linejoin:round; stroke-width:2; stroke-opacity:0.1; fill:none" points="208.355,474.599 2352.76,474.599 "/>
<polyline clip-path="url(#clip622)" style="stroke:#000000; stroke-linecap:round; stroke-linejoin:round; stroke-width:2; stroke-opacity:0.1; fill:none" points="208.355,260.922 2352.76,260.922 "/>
<polyline clip-path="url(#clip622)" style="stroke:#000000; stroke-linecap:round; stroke-linejoin:round; stroke-width:2; stroke-opacity:0.1; fill:none" points="208.355,47.2441 2352.76,47.2441 "/>
<polyline clip-path="url(#clip620)" style="stroke:#000000; stroke-linecap:round; stroke-linejoin:round; stroke-width:4; stroke-opacity:1; fill:none" points="208.355,1329.31 2352.76,1329.31 "/>
<polyline clip-path="url(#clip620)" style="stroke:#000000; stroke-linecap:round; stroke-linejoin:round; stroke-width:4; stroke-opacity:1; fill:none" points="208.355,1329.31 208.355,1310.41 "/>
<polyline clip-path="url(#clip620)" style="stroke:#000000; stroke-linecap:round; stroke-linejoin:round; stroke-width:4; stroke-opacity:1; fill:none" points="637.235,1329.31 637.235,1310.41 "/>
<polyline clip-path="url(#clip620)" style="stroke:#000000; stroke-linecap:round; stroke-linejoin:round; stroke-width:4; stroke-opacity:1; fill:none" points="1066.12,1329.31 1066.12,1310.41 "/>
<polyline clip-path="url(#clip620)" style="stroke:#000000; stroke-linecap:round; stroke-linejoin:round; stroke-width:4; stroke-opacity:1; fill:none" points="1495,1329.31 1495,1310.41 "/>
<polyline clip-path="url(#clip620)" style="stroke:#000000; stroke-linecap:round; stroke-linejoin:round; stroke-width:4; stroke-opacity:1; fill:none" points="1923.88,1329.31 1923.88,1310.41 "/>
<polyline clip-path="url(#clip620)" style="stroke:#000000; stroke-linecap:round; stroke-linejoin:round; stroke-width:4; stroke-opacity:1; fill:none" points="2352.76,1329.31 2352.76,1310.41 "/>
<path clip-path="url(#clip620)" d="M185.739 1360.23 Q182.128 1360.23 180.299 1363.79 Q178.494 1367.33 178.494 1374.46 Q178.494 1381.57 180.299 1385.14 Q182.128 1388.68 185.739 1388.68 Q189.373 1388.68 191.179 1385.14 Q193.008 1381.57 193.008 1374.46 Q193.008 1367.33 191.179 1363.79 Q189.373 1360.23 185.739 1360.23 M185.739 1356.52 Q191.549 1356.52 194.605 1361.13 Q197.683 1365.71 197.683 1374.46 Q197.683 1383.19 194.605 1387.8 Q191.549 1392.38 185.739 1392.38 Q179.929 1392.38 176.85 1387.8 Q173.795 1383.19 173.795 1374.46 Q173.795 1365.71 176.85 1361.13 Q179.929 1356.52 185.739 1356.52 Z" fill="#000000" fill-rule="nonzero" fill-opacity="1" /><path clip-path="url(#clip620)" d="M205.901 1385.83 L210.785 1385.83 L210.785 1391.71 L205.901 1391.71 L205.901 1385.83 Z" fill="#000000" fill-rule="nonzero" fill-opacity="1" /><path clip-path="url(#clip620)" d="M230.97 1360.23 Q227.359 1360.23 225.53 1363.79 Q223.725 1367.33 223.725 1374.46 Q223.725 1381.57 225.53 1385.14 Q227.359 1388.68 230.97 1388.68 Q234.605 1388.68 236.41 1385.14 Q238.239 1381.57 238.239 1374.46 Q238.239 1367.33 236.41 1363.79 Q234.605 1360.23 230.97 1360.23 M230.97 1356.52 Q236.78 1356.52 239.836 1361.13 Q242.915 1365.71 242.915 1374.46 Q242.915 1383.19 239.836 1387.8 Q236.78 1392.38 230.97 1392.38 Q225.16 1392.38 222.081 1387.8 Q219.026 1383.19 219.026 1374.46 Q219.026 1365.71 222.081 1361.13 Q225.16 1356.52 230.97 1356.52 Z" fill="#000000" fill-rule="nonzero" fill-opacity="1" /><path clip-path="url(#clip620)" d="M615.418 1360.23 Q611.807 1360.23 609.978 1363.79 Q608.173 1367.33 608.173 1374.46 Q608.173 1381.57 609.978 1385.14 Q611.807 1388.68 615.418 1388.68 Q619.052 1388.68 620.858 1385.14 Q622.686 1381.57 622.686 1374.46 Q622.686 1367.33 620.858 1363.79 Q619.052 1360.23 615.418 1360.23 M615.418 1356.52 Q621.228 1356.52 624.284 1361.13 Q627.362 1365.71 627.362 1374.46 Q627.362 1383.19 624.284 1387.8 Q621.228 1392.38 615.418 1392.38 Q609.608 1392.38 606.529 1387.8 Q603.474 1383.19 603.474 1374.46 Q603.474 1365.71 606.529 1361.13 Q609.608 1356.52 615.418 1356.52 Z" fill="#000000" fill-rule="nonzero" fill-opacity="1" /><path clip-path="url(#clip620)" d="M635.58 1385.83 L640.464 1385.83 L640.464 1391.71 L635.58 1391.71 L635.58 1385.83 Z" fill="#000000" fill-rule="nonzero" fill-opacity="1" /><path clip-path="url(#clip620)" d="M654.677 1387.77 L670.996 1387.77 L670.996 1391.71 L649.052 1391.71 L649.052 1387.77 Q651.714 1385.02 656.297 1380.39 Q660.904 1375.74 662.084 1374.4 Q664.33 1371.87 665.209 1370.14 Q666.112 1368.38 666.112 1366.69 Q666.112 1363.93 664.168 1362.2 Q662.246 1360.46 659.145 1360.46 Q656.945 1360.46 654.492 1361.22 Q652.061 1361.99 649.283 1363.54 L649.283 1358.82 Q652.108 1357.68 654.561 1357.1 Q657.015 1356.52 659.052 1356.52 Q664.422 1356.52 667.617 1359.21 Q670.811 1361.9 670.811 1366.39 Q670.811 1368.52 670.001 1370.44 Q669.214 1372.33 667.107 1374.93 Q666.529 1375.6 663.427 1378.82 Q660.325 1382.01 654.677 1387.77 Z" fill="#000000" fill-rule="nonzero" fill-opacity="1" /><path clip-path="url(#clip620)" d="M1043.26 1360.23 Q1039.65 1360.23 1037.82 1363.79 Q1036.01 1367.33 1036.01 1374.46 Q1036.01 1381.57 1037.82 1385.14 Q1039.65 1388.68 1043.26 1388.68 Q1046.89 1388.68 1048.7 1385.14 Q1050.52 1381.57 1050.52 1374.46 Q1050.52 1367.33 1048.7 1363.79 Q1046.89 1360.23 1043.26 1360.23 M1043.26 1356.52 Q1049.07 1356.52 1052.12 1361.13 Q1055.2 1365.71 1055.2 1374.46 Q1055.2 1383.19 1052.12 1387.8 Q1049.07 1392.38 1043.26 1392.38 Q1037.45 1392.38 1034.37 1387.8 Q1031.31 1383.19 1031.31 1374.46 Q1031.31 1365.71 1034.37 1361.13 Q1037.45 1356.52 1043.26 1356.52 Z" fill="#000000" fill-rule="nonzero" fill-opacity="1" /><path clip-path="url(#clip620)" d="M1063.42 1385.83 L1068.3 1385.83 L1068.3 1391.71 L1063.42 1391.71 L1063.42 1385.83 Z" fill="#000000" fill-rule="nonzero" fill-opacity="1" /><path clip-path="url(#clip620)" d="M1091.33 1361.22 L1079.53 1379.67 L1091.33 1379.67 L1091.33 1361.22 M1090.11 1357.15 L1095.99 1357.15 L1095.99 1379.67 L1100.92 1379.67 L1100.92 1383.56 L1095.99 1383.56 L1095.99 1391.71 L1091.33 1391.71 L1091.33 1383.56 L1075.73 1383.56 L1075.73 1379.05 L1090.11 1357.15 Z" fill="#000000" fill-rule="nonzero" fill-opacity="1" /><path clip-path="url(#clip620)" d="M1472.3 1360.23 Q1468.69 1360.23 1466.86 1363.79 Q1465.05 1367.33 1465.05 1374.46 Q1465.05 1381.57 1466.86 1385.14 Q1468.69 1388.68 1472.3 1388.68 Q1475.93 1388.68 1477.74 1385.14 Q1479.57 1381.57 1479.57 1374.46 Q1479.57 1367.33 1477.74 1363.79 Q1475.93 1360.23 1472.3 1360.23 M1472.3 1356.52 Q1478.11 1356.52 1481.16 1361.13 Q1484.24 1365.71 1484.24 1374.46 Q1484.24 1383.19 1481.16 1387.8 Q1478.11 1392.38 1472.3 1392.38 Q1466.49 1392.38 1463.41 1387.8 Q1460.35 1383.19 1460.35 1374.46 Q1460.35 1365.71 1463.41 1361.13 Q1466.49 1356.52 1472.3 1356.52 Z" fill="#000000" fill-rule="nonzero" fill-opacity="1" /><path clip-path="url(#clip620)" d="M1492.46 1385.83 L1497.34 1385.83 L1497.34 1391.71 L1492.46 1391.71 L1492.46 1385.83 Z" fill="#000000" fill-rule="nonzero" fill-opacity="1" /><path clip-path="url(#clip620)" d="M1518.11 1372.57 Q1514.96 1372.57 1513.11 1374.72 Q1511.28 1376.87 1511.28 1380.62 Q1511.28 1384.35 1513.11 1386.52 Q1514.96 1388.68 1518.11 1388.68 Q1521.26 1388.68 1523.09 1386.52 Q1524.94 1384.35 1524.94 1380.62 Q1524.94 1376.87 1523.09 1374.72 Q1521.26 1372.57 1518.11 1372.57 M1527.39 1357.91 L1527.39 1362.17 Q1525.63 1361.34 1523.83 1360.9 Q1522.04 1360.46 1520.28 1360.46 Q1515.66 1360.46 1513.2 1363.58 Q1510.77 1366.71 1510.42 1373.03 Q1511.79 1371.02 1513.85 1369.95 Q1515.91 1368.86 1518.39 1368.86 Q1523.59 1368.86 1526.6 1372.03 Q1529.64 1375.18 1529.64 1380.62 Q1529.64 1385.95 1526.49 1389.16 Q1523.34 1392.38 1518.11 1392.38 Q1512.11 1392.38 1508.94 1387.8 Q1505.77 1383.19 1505.77 1374.46 Q1505.77 1366.27 1509.66 1361.41 Q1513.55 1356.52 1520.1 1356.52 Q1521.86 1356.52 1523.64 1356.87 Q1525.45 1357.22 1527.39 1357.91 Z" fill="#000000" fill-rule="nonzero" fill-opacity="1" /><path clip-path="url(#clip620)" d="M1901.31 1360.23 Q1897.7 1360.23 1895.87 1363.79 Q1894.06 1367.33 1894.06 1374.46 Q1894.06 1381.57 1895.87 1385.14 Q1897.7 1388.68 1901.31 1388.68 Q1904.94 1388.68 1906.75 1385.14 Q1908.57 1381.57 1908.57 1374.46 Q1908.57 1367.33 1906.75 1363.79 Q1904.94 1360.23 1901.31 1360.23 M1901.31 1356.52 Q1907.12 1356.52 1910.17 1361.13 Q1913.25 1365.71 1913.25 1374.46 Q1913.25 1383.19 1910.17 1387.8 Q1907.12 1392.38 1901.31 1392.38 Q1895.5 1392.38 1892.42 1387.8 Q1889.36 1383.19 1889.36 1374.46 Q1889.36 1365.71 1892.42 1361.13 Q1895.5 1356.52 1901.31 1356.52 Z" fill="#000000" fill-rule="nonzero" fill-opacity="1" /><path clip-path="url(#clip620)" d="M1921.47 1385.83 L1926.35 1385.83 L1926.35 1391.71 L1921.47 1391.71 L1921.47 1385.83 Z" fill="#000000" fill-rule="nonzero" fill-opacity="1" /><path clip-path="url(#clip620)" d="M1946.54 1375.3 Q1943.2 1375.3 1941.28 1377.08 Q1939.38 1378.86 1939.38 1381.99 Q1939.38 1385.11 1941.28 1386.9 Q1943.2 1388.68 1946.54 1388.68 Q1949.87 1388.68 1951.79 1386.9 Q1953.71 1385.09 1953.71 1381.99 Q1953.71 1378.86 1951.79 1377.08 Q1949.89 1375.3 1946.54 1375.3 M1941.86 1373.31 Q1938.85 1372.57 1937.16 1370.51 Q1935.5 1368.45 1935.5 1365.48 Q1935.5 1361.34 1938.44 1358.93 Q1941.4 1356.52 1946.54 1356.52 Q1951.7 1356.52 1954.64 1358.93 Q1957.58 1361.34 1957.58 1365.48 Q1957.58 1368.45 1955.89 1370.51 Q1954.22 1372.57 1951.24 1373.31 Q1954.62 1374.09 1956.49 1376.39 Q1958.39 1378.68 1958.39 1381.99 Q1958.39 1387.01 1955.31 1389.7 Q1952.26 1392.38 1946.54 1392.38 Q1940.82 1392.38 1937.74 1389.7 Q1934.69 1387.01 1934.69 1381.99 Q1934.69 1378.68 1936.58 1376.39 Q1938.48 1374.09 1941.86 1373.31 M1940.15 1365.92 Q1940.15 1368.61 1941.82 1370.11 Q1943.51 1371.62 1946.54 1371.62 Q1949.55 1371.62 1951.24 1370.11 Q1952.95 1368.61 1952.95 1365.92 Q1952.95 1363.24 1951.24 1361.73 Q1949.55 1360.23 1946.54 1360.23 Q1943.51 1360.23 1941.82 1361.73 Q1940.15 1363.24 1940.15 1365.92 Z" fill="#000000" fill-rule="nonzero" fill-opacity="1" /><path clip-path="url(#clip620)" d="M2319.91 1387.77 L2327.55 1387.77 L2327.55 1361.41 L2319.24 1363.08 L2319.24 1358.82 L2327.5 1357.15 L2332.18 1357.15 L2332.18 1387.77 L2339.82 1387.77 L2339.82 1391.71 L2319.91 1391.71 L2319.91 1387.77 Z" fill="#000000" fill-rule="nonzero" fill-opacity="1" /><path clip-path="url(#clip620)" d="M2349.26 1385.83 L2354.14 1385.83 L2354.14 1391.71 L2349.26 1391.71 L2349.26 1385.83 Z" fill="#000000" fill-rule="nonzero" fill-opacity="1" /><path clip-path="url(#clip620)" d="M2374.33 1360.23 Q2370.72 1360.23 2368.89 1363.79 Q2367.08 1367.33 2367.08 1374.46 Q2367.08 1381.57 2368.89 1385.14 Q2370.72 1388.68 2374.33 1388.68 Q2377.96 1388.68 2379.77 1385.14 Q2381.6 1381.57 2381.6 1374.46 Q2381.6 1367.33 2379.77 1363.79 Q2377.96 1360.23 2374.33 1360.23 M2374.33 1356.52 Q2380.14 1356.52 2383.2 1361.13 Q2386.27 1365.71 2386.27 1374.46 Q2386.27 1383.19 2383.2 1387.8 Q2380.14 1392.38 2374.33 1392.38 Q2368.52 1392.38 2365.44 1387.8 Q2362.39 1383.19 2362.39 1374.46 Q2362.39 1365.71 2365.44 1361.13 Q2368.52 1356.52 2374.33 1356.52 Z" fill="#000000" fill-rule="nonzero" fill-opacity="1" /><path clip-path="url(#clip620)" d="M1166.05 1431.94 L1166.05 1449.79 L1174.14 1449.79 Q1178.62 1449.79 1181.08 1447.47 Q1183.53 1445.15 1183.53 1440.85 Q1183.53 1436.58 1181.08 1434.26 Q1178.62 1431.94 1174.14 1431.94 L1166.05 1431.94 M1159.62 1426.65 L1174.14 1426.65 Q1182.13 1426.65 1186.2 1430.28 Q1190.31 1433.88 1190.31 1440.85 Q1190.31 1447.88 1186.2 1451.48 Q1182.13 1455.08 1174.14 1455.08 L1166.05 1455.08 L1166.05 1474.17 L1159.62 1474.17 L1159.62 1426.65 Z" fill="#000000" fill-rule="nonzero" fill-opacity="1" /><path clip-path="url(#clip620)" d="M1210.17 1442.63 Q1205.46 1442.63 1202.72 1446.32 Q1199.98 1449.98 1199.98 1456.38 Q1199.98 1462.78 1202.69 1466.47 Q1205.42 1470.13 1210.17 1470.13 Q1214.85 1470.13 1217.58 1466.44 Q1220.32 1462.75 1220.32 1456.38 Q1220.32 1450.05 1217.58 1446.36 Q1214.85 1442.63 1210.17 1442.63 M1210.17 1437.67 Q1217.81 1437.67 1222.17 1442.63 Q1226.53 1447.6 1226.53 1456.38 Q1226.53 1465.13 1222.17 1470.13 Q1217.81 1475.1 1210.17 1475.1 Q1202.5 1475.1 1198.14 1470.13 Q1193.81 1465.13 1193.81 1456.38 Q1193.81 1447.6 1198.14 1442.63 Q1202.5 1437.67 1210.17 1437.67 Z" fill="#000000" fill-rule="nonzero" fill-opacity="1" /><path clip-path="url(#clip620)" d="M1258.96 1439.58 L1258.96 1445.11 Q1256.48 1443.84 1253.8 1443.2 Q1251.13 1442.57 1248.27 1442.57 Q1243.9 1442.57 1241.71 1443.9 Q1239.54 1445.24 1239.54 1447.92 Q1239.54 1449.95 1241.1 1451.13 Q1242.66 1452.28 1247.37 1453.33 L1249.38 1453.77 Q1255.62 1455.11 1258.23 1457.56 Q1260.87 1459.98 1260.87 1464.34 Q1260.87 1469.3 1256.92 1472.2 Q1253.01 1475.1 1246.13 1475.1 Q1243.27 1475.1 1240.15 1474.52 Q1237.06 1473.98 1233.62 1472.87 L1233.62 1466.82 Q1236.87 1468.51 1240.02 1469.37 Q1243.17 1470.2 1246.26 1470.2 Q1250.4 1470.2 1252.63 1468.79 Q1254.85 1467.36 1254.85 1464.78 Q1254.85 1462.4 1253.23 1461.12 Q1251.64 1459.85 1246.2 1458.67 L1244.16 1458.2 Q1238.72 1457.05 1236.3 1454.69 Q1233.88 1452.31 1233.88 1448.17 Q1233.88 1443.14 1237.44 1440.4 Q1241.01 1437.67 1247.57 1437.67 Q1250.81 1437.67 1253.68 1438.14 Q1256.54 1438.62 1258.96 1439.58 Z" fill="#000000" fill-rule="nonzero" fill-opacity="1" /><path clip-path="url(#clip620)" d="M1270.2 1438.53 L1276.05 1438.53 L1276.05 1474.17 L1270.2 1474.17 L1270.2 1438.53 M1270.2 1424.65 L1276.05 1424.65 L1276.05 1432.06 L1270.2 1432.06 L1270.2 1424.65 Z" fill="#000000" fill-rule="nonzero" fill-opacity="1" /><path clip-path="url(#clip620)" d="M1294.1 1428.4 L1294.1 1438.53 L1306.16 1438.53 L1306.16 1443.08 L1294.1 1443.08 L1294.1 1462.43 Q1294.1 1466.79 1295.28 1468.03 Q1296.49 1469.27 1300.15 1469.27 L1306.16 1469.27 L1306.16 1474.17 L1300.15 1474.17 Q1293.37 1474.17 1290.79 1471.66 Q1288.21 1469.11 1288.21 1462.43 L1288.21 1443.08 L1283.91 1443.08 L1283.91 1438.53 L1288.21 1438.53 L1288.21 1428.4 L1294.1 1428.4 Z" fill="#000000" fill-rule="nonzero" fill-opacity="1" /><path clip-path="url(#clip620)" d="M1313.86 1438.53 L1319.72 1438.53 L1319.72 1474.17 L1313.86 1474.17 L1313.86 1438.53 M1313.86 1424.65 L1319.72 1424.65 L1319.72 1432.06 L1313.86 1432.06 L1313.86 1424.65 Z" fill="#000000" fill-rule="nonzero" fill-opacity="1" /><path clip-path="url(#clip620)" d="M1345.79 1442.63 Q1341.08 1442.63 1338.34 1446.32 Q1335.6 1449.98 1335.6 1456.38 Q1335.6 1462.78 1338.31 1466.47 Q1341.05 1470.13 1345.79 1470.13 Q1350.47 1470.13 1353.2 1466.44 Q1355.94 1462.75 1355.94 1456.38 Q1355.94 1450.05 1353.2 1446.36 Q1350.47 1442.63 1345.79 1442.63 M1345.79 1437.67 Q1353.43 1437.67 1357.79 1442.63 Q1362.15 1447.6 1362.15 1456.38 Q1362.15 1465.13 1357.79 1470.13 Q1353.43 1475.1 1345.79 1475.1 Q1338.12 1475.1 1333.76 1470.13 Q1329.43 1465.13 1329.43 1456.38 Q1329.43 1447.6 1333.76 1442.63 Q1338.12 1437.67 1345.79 1437.67 Z" fill="#000000" fill-rule="nonzero" fill-opacity="1" /><path clip-path="url(#clip620)" d="M1401.49 1452.66 L1401.49 1474.17 L1395.63 1474.17 L1395.63 1452.85 Q1395.63 1447.79 1393.66 1445.27 Q1391.68 1442.76 1387.74 1442.76 Q1383 1442.76 1380.26 1445.78 Q1377.52 1448.81 1377.52 1454.03 L1377.52 1474.17 L1371.63 1474.17 L1371.63 1438.53 L1377.52 1438.53 L1377.52 1444.06 Q1379.62 1440.85 1382.45 1439.26 Q1385.32 1437.67 1389.04 1437.67 Q1395.19 1437.67 1398.34 1441.49 Q1401.49 1445.27 1401.49 1452.66 Z" fill="#000000" fill-rule="nonzero" fill-opacity="1" /><polyline clip-path="url(#clip620)" style="stroke:#000000; stroke-linecap:round; stroke-linejoin:round; stroke-width:4; stroke-opacity:1; fill:none" points="208.355,1329.31 208.355,47.2441 "/>
<polyline clip-path="url(#clip620)" style="stroke:#000000; stroke-linecap:round; stroke-linejoin:round; stroke-width:4; stroke-opacity:1; fill:none" points="208.355,1329.31 227.252,1329.31 "/>
<polyline clip-path="url(#clip620)" style="stroke:#000000; stroke-linecap:round; stroke-linejoin:round; stroke-width:4; stroke-opacity:1; fill:none" points="208.355,1115.63 227.252,1115.63 "/>
<polyline clip-path="url(#clip620)" style="stroke:#000000; stroke-linecap:round; stroke-linejoin:round; stroke-width:4; stroke-opacity:1; fill:none" points="208.355,901.955 227.252,901.955 "/>
<polyline clip-path="url(#clip620)" style="stroke:#000000; stroke-linecap:round; stroke-linejoin:round; stroke-width:4; stroke-opacity:1; fill:none" points="208.355,688.277 227.252,688.277 "/>
<polyline clip-path="url(#clip620)" style="stroke:#000000; stroke-linecap:round; stroke-linejoin:round; stroke-width:4; stroke-opacity:1; fill:none" points="208.355,474.599 227.252,474.599 "/>
<polyline clip-path="url(#clip620)" style="stroke:#000000; stroke-linecap:round; stroke-linejoin:round; stroke-width:4; stroke-opacity:1; fill:none" points="208.355,260.922 227.252,260.922 "/>
<polyline clip-path="url(#clip620)" style="stroke:#000000; stroke-linecap:round; stroke-linejoin:round; stroke-width:4; stroke-opacity:1; fill:none" points="208.355,47.2441 227.252,47.2441 "/>
<path clip-path="url(#clip620)" d="M111.29 1329.76 L140.966 1329.76 L140.966 1333.7 L111.29 1333.7 L111.29 1329.76 Z" fill="#000000" fill-rule="nonzero" fill-opacity="1" /><path clip-path="url(#clip620)" d="M165.225 1327.96 Q168.582 1328.67 170.457 1330.94 Q172.355 1333.21 172.355 1336.54 Q172.355 1341.66 168.836 1344.46 Q165.318 1347.26 158.836 1347.26 Q156.66 1347.26 154.345 1346.82 Q152.054 1346.4 149.6 1345.55 L149.6 1341.03 Q151.545 1342.17 153.859 1342.75 Q156.174 1343.33 158.697 1343.33 Q163.095 1343.33 165.387 1341.59 Q167.702 1339.85 167.702 1336.54 Q167.702 1333.49 165.549 1331.78 Q163.42 1330.04 159.6 1330.04 L155.572 1330.04 L155.572 1326.2 L159.785 1326.2 Q163.234 1326.2 165.063 1324.83 Q166.892 1323.44 166.892 1320.85 Q166.892 1318.19 164.994 1316.78 Q163.119 1315.34 159.6 1315.34 Q157.679 1315.34 155.48 1315.76 Q153.281 1316.17 150.642 1317.05 L150.642 1312.89 Q153.304 1312.15 155.619 1311.78 Q157.957 1311.4 160.017 1311.4 Q165.341 1311.4 168.443 1313.84 Q171.544 1316.24 171.544 1320.36 Q171.544 1323.23 169.901 1325.22 Q168.257 1327.19 165.225 1327.96 Z" fill="#000000" fill-rule="nonzero" fill-opacity="1" /><path clip-path="url(#clip620)" d="M112.239 1116.08 L141.915 1116.08 L141.915 1120.02 L112.239 1120.02 L112.239 1116.08 Z" fill="#000000" fill-rule="nonzero" fill-opacity="1" /><path clip-path="url(#clip620)" d="M156.035 1128.98 L172.355 1128.98 L172.355 1132.91 L150.41 1132.91 L150.41 1128.98 Q153.072 1126.22 157.656 1121.59 Q162.262 1116.94 163.443 1115.6 Q165.688 1113.07 166.568 1111.34 Q167.47 1109.58 167.47 1107.89 Q167.47 1105.13 165.526 1103.4 Q163.605 1101.66 160.503 1101.66 Q158.304 1101.66 155.85 1102.43 Q153.42 1103.19 150.642 1104.74 L150.642 1100.02 Q153.466 1098.88 155.92 1098.31 Q158.373 1097.73 160.41 1097.73 Q165.781 1097.73 168.975 1100.41 Q172.169 1103.1 172.169 1107.59 Q172.169 1109.72 171.359 1111.64 Q170.572 1113.54 168.466 1116.13 Q167.887 1116.8 164.785 1120.02 Q161.683 1123.21 156.035 1128.98 Z" fill="#000000" fill-rule="nonzero" fill-opacity="1" /><path clip-path="url(#clip620)" d="M111.869 902.406 L141.545 902.406 L141.545 906.341 L111.869 906.341 L111.869 902.406 Z" fill="#000000" fill-rule="nonzero" fill-opacity="1" /><path clip-path="url(#clip620)" d="M152.447 915.299 L160.086 915.299 L160.086 888.934 L151.776 890.6 L151.776 886.341 L160.04 884.675 L164.716 884.675 L164.716 915.299 L172.355 915.299 L172.355 919.235 L152.447 919.235 L152.447 915.299 Z" fill="#000000" fill-rule="nonzero" fill-opacity="1" /><path clip-path="url(#clip620)" d="M160.41 674.076 Q156.799 674.076 154.97 677.64 Q153.165 681.182 153.165 688.312 Q153.165 695.418 154.97 698.983 Q156.799 702.525 160.41 702.525 Q164.045 702.525 165.85 698.983 Q167.679 695.418 167.679 688.312 Q167.679 681.182 165.85 677.64 Q164.045 674.076 160.41 674.076 M160.41 670.372 Q166.22 670.372 169.276 674.978 Q172.355 679.562 172.355 688.312 Q172.355 697.038 169.276 701.645 Q166.22 706.228 160.41 706.228 Q154.6 706.228 151.521 701.645 Q148.466 697.038 148.466 688.312 Q148.466 679.562 151.521 674.978 Q154.6 670.372 160.41 670.372 Z" fill="#000000" fill-rule="nonzero" fill-opacity="1" /><path clip-path="url(#clip620)" d="M152.447 487.944 L160.086 487.944 L160.086 461.579 L151.776 463.245 L151.776 458.986 L160.04 457.319 L164.716 457.319 L164.716 487.944 L172.355 487.944 L172.355 491.879 L152.447 491.879 L152.447 487.944 Z" fill="#000000" fill-rule="nonzero" fill-opacity="1" /><path clip-path="url(#clip620)" d="M156.035 274.267 L172.355 274.267 L172.355 278.202 L150.41 278.202 L150.41 274.267 Q153.072 271.512 157.656 266.882 Q162.262 262.23 163.443 260.887 Q165.688 258.364 166.568 256.628 Q167.47 254.869 167.47 253.179 Q167.47 250.424 165.526 248.688 Q163.605 246.952 160.503 246.952 Q158.304 246.952 155.85 247.716 Q153.42 248.48 150.642 250.031 L150.642 245.308 Q153.466 244.174 155.92 243.595 Q158.373 243.017 160.41 243.017 Q165.781 243.017 168.975 245.702 Q172.169 248.387 172.169 252.878 Q172.169 255.007 171.359 256.929 Q170.572 258.827 168.466 261.419 Q167.887 262.091 164.785 265.308 Q161.683 268.503 156.035 274.267 Z" fill="#000000" fill-rule="nonzero" fill-opacity="1" /><path clip-path="url(#clip620)" d="M165.225 45.8899 Q168.582 46.6075 170.457 48.876 Q172.355 51.1445 172.355 54.4779 Q172.355 59.5936 168.836 62.3945 Q165.318 65.1954 158.836 65.1954 Q156.66 65.1954 154.345 64.7556 Q152.054 64.3389 149.6 63.4824 L149.6 58.9686 Q151.545 60.1028 153.859 60.6815 Q156.174 61.2602 158.697 61.2602 Q163.095 61.2602 165.387 59.5241 Q167.702 57.788 167.702 54.4779 Q167.702 51.4223 165.549 49.7094 Q163.42 47.9733 159.6 47.9733 L155.572 47.9733 L155.572 44.1307 L159.785 44.1307 Q163.234 44.1307 165.063 42.765 Q166.892 41.3761 166.892 38.7835 Q166.892 36.1215 164.994 34.7094 Q163.119 33.2743 159.6 33.2743 Q157.679 33.2743 155.48 33.6909 Q153.281 34.1076 150.642 34.9872 L150.642 30.8206 Q153.304 30.0798 155.619 29.7095 Q157.957 29.3391 160.017 29.3391 Q165.341 29.3391 168.443 31.7696 Q171.544 34.177 171.544 38.2974 Q171.544 41.1677 169.901 43.1585 Q168.257 45.1261 165.225 45.8899 Z" fill="#000000" fill-rule="nonzero" fill-opacity="1" /><path clip-path="url(#clip620)" d="M19.848 831.537 L43.4966 840.258 L43.4966 822.784 L19.848 831.537 M13.5142 835.166 L13.5142 827.877 L61.0342 809.766 L61.0342 816.45 L48.8438 820.779 L48.8438 842.2 L61.0342 846.528 L61.0342 853.308 L13.5142 835.166 Z" fill="#000000" fill-rule="nonzero" fill-opacity="1" /><path clip-path="url(#clip620)" d="M32.2293 775.328 Q28.2826 773.132 26.4047 770.076 Q24.5268 767.021 24.5268 762.883 Q24.5268 757.313 28.4417 754.289 Q32.3248 751.266 39.5181 751.266 L61.0342 751.266 L61.0342 757.154 L39.709 757.154 Q34.5846 757.154 32.102 758.968 Q29.6194 760.782 29.6194 764.506 Q29.6194 769.058 32.6431 771.7 Q35.6668 774.341 40.8867 774.341 L61.0342 774.341 L61.0342 780.23 L39.709 780.23 Q34.5528 780.23 32.102 782.044 Q29.6194 783.858 29.6194 787.646 Q29.6194 792.133 32.6749 794.775 Q35.6986 797.417 40.8867 797.417 L61.0342 797.417 L61.0342 803.305 L25.3862 803.305 L25.3862 797.417 L30.9244 797.417 Q27.646 795.412 26.0864 792.611 Q24.5268 789.81 24.5268 785.959 Q24.5268 782.076 26.5002 779.37 Q28.4736 776.633 32.2293 775.328 Z" fill="#000000" fill-rule="nonzero" fill-opacity="1" /><path clip-path="url(#clip620)" d="M55.687 733.919 L74.5931 733.919 L74.5931 739.807 L25.3862 739.807 L25.3862 733.919 L30.7971 733.919 Q27.6142 732.073 26.0864 729.272 Q24.5268 726.439 24.5268 722.524 Q24.5268 716.031 29.6831 711.989 Q34.8393 707.915 43.242 707.915 Q51.6447 707.915 56.801 711.989 Q61.9572 716.031 61.9572 722.524 Q61.9572 726.439 60.4294 729.272 Q58.8698 732.073 55.687 733.919 M43.242 713.994 Q36.7808 713.994 33.1205 716.668 Q29.4284 719.31 29.4284 723.957 Q29.4284 728.604 33.1205 731.277 Q36.7808 733.919 43.242 733.919 Q49.7032 733.919 53.3953 731.277 Q57.0556 728.604 57.0556 723.957 Q57.0556 719.31 53.3953 716.668 Q49.7032 713.994 43.242 713.994 Z" fill="#000000" fill-rule="nonzero" fill-opacity="1" /><path clip-path="url(#clip620)" d="M11.509 698.207 L11.509 692.351 L61.0342 692.351 L61.0342 698.207 L11.509 698.207 Z" fill="#000000" fill-rule="nonzero" fill-opacity="1" /><path clip-path="url(#clip620)" d="M25.3862 680.097 L25.3862 674.241 L61.0342 674.241 L61.0342 680.097 L25.3862 680.097 M11.509 680.097 L11.509 674.241 L18.925 674.241 L18.925 680.097 L11.509 680.097 Z" fill="#000000" fill-rule="nonzero" fill-opacity="1" /><path clip-path="url(#clip620)" d="M15.2647 656.194 L25.3862 656.194 L25.3862 644.131 L29.9377 644.131 L29.9377 656.194 L49.2894 656.194 Q53.6499 656.194 54.8913 655.016 Q56.1326 653.807 56.1326 650.146 L56.1326 644.131 L61.0342 644.131 L61.0342 650.146 Q61.0342 656.926 58.5197 659.504 Q55.9734 662.082 49.2894 662.082 L29.9377 662.082 L29.9377 666.379 L25.3862 666.379 L25.3862 662.082 L15.2647 662.082 L15.2647 656.194 Z" fill="#000000" fill-rule="nonzero" fill-opacity="1" /><path clip-path="url(#clip620)" d="M46.9659 637.033 L25.3862 637.033 L25.3862 631.177 L46.7431 631.177 Q51.8039 631.177 54.3502 629.203 Q56.8646 627.23 56.8646 623.283 Q56.8646 618.541 53.8409 615.803 Q50.8172 613.034 45.5973 613.034 L25.3862 613.034 L25.3862 607.178 L61.0342 607.178 L61.0342 613.034 L55.5596 613.034 Q58.8062 615.167 60.3976 618 Q61.9572 620.8 61.9572 624.524 Q61.9572 630.667 58.1378 633.85 Q54.3183 637.033 46.9659 637.033 M24.5268 622.296 L24.5268 622.296 Z" fill="#000000" fill-rule="nonzero" fill-opacity="1" /><path clip-path="url(#clip620)" d="M30.7971 571.657 L11.509 571.657 L11.509 565.801 L61.0342 565.801 L61.0342 571.657 L55.687 571.657 Q58.8698 573.503 60.4294 576.336 Q61.9572 579.137 61.9572 583.084 Q61.9572 589.545 56.801 593.619 Q51.6447 597.661 43.242 597.661 Q34.8393 597.661 29.6831 593.619 Q24.5268 589.545 24.5268 583.084 Q24.5268 579.137 26.0864 576.336 Q27.6142 573.503 30.7971 571.657 M43.242 591.614 Q49.7032 591.614 53.3953 588.972 Q57.0556 586.298 57.0556 581.651 Q57.0556 577.004 53.3953 574.331 Q49.7032 571.657 43.242 571.657 Q36.7808 571.657 33.1205 574.331 Q29.4284 577.004 29.4284 581.651 Q29.4284 586.298 33.1205 588.972 Q36.7808 591.614 43.242 591.614 Z" fill="#000000" fill-rule="nonzero" fill-opacity="1" /><path clip-path="url(#clip620)" d="M41.7461 523.246 L44.6106 523.246 L44.6106 550.173 Q50.6581 549.791 53.8409 546.545 Q56.9919 543.266 56.9919 537.442 Q56.9919 534.068 56.1644 530.917 Q55.3369 527.734 53.6818 524.615 L59.2199 524.615 Q60.5567 527.766 61.257 531.076 Q61.9572 534.386 61.9572 537.792 Q61.9572 546.322 56.9919 551.319 Q52.0267 556.284 43.5603 556.284 Q34.8074 556.284 29.6831 551.573 Q24.5268 546.831 24.5268 538.81 Q24.5268 531.617 29.1738 527.447 Q33.7889 523.246 41.7461 523.246 M40.0273 529.102 Q35.2212 529.166 32.3566 531.808 Q29.4921 534.418 29.4921 538.747 Q29.4921 543.648 32.2612 546.608 Q35.0302 549.536 40.0592 549.982 L40.0273 529.102 Z" fill="#000000" fill-rule="nonzero" fill-opacity="1" /><polyline clip-path="url(#clip622)" style="stroke:#000000; stroke-linecap:round; stroke-linejoin:round; stroke-width:4; stroke-opacity:1; fill:none" points="-1936.05,688.277 4497.16,688.277 "/>
<path clip-path="url(#clip622)" d="M1050.12 351.761 L1050.12 383.761 L1082.12 383.761 L1082.12 351.761 L1050.12 351.761 Z" fill="#ffff00" fill-rule="evenodd" fill-opacity="1" stroke="#000000" stroke-opacity="1" stroke-width="3"/>
<path clip-path="url(#clip622)" d="M1693.44 885.955 L1693.44 917.955 L1725.44 917.955 L1725.44 885.955 L1693.44 885.955 Z" fill="#ffff00" fill-rule="evenodd" fill-opacity="1" stroke="#000000" stroke-opacity="1" stroke-width="3"/>
<polyline clip-path="url(#clip622)" style="stroke:#000000; stroke-linecap:round; stroke-linejoin:round; stroke-width:4; stroke-opacity:1; fill:none" stroke-dasharray="16, 10" points="208.355,697.236 210.499,697.189 212.643,697.121 214.788,697.033 216.932,696.925 219.077,696.797 221.221,696.649 223.365,696.481 225.51,696.294 227.654,696.088 229.799,695.863 231.943,695.62 234.087,695.359 236.232,695.081 238.376,694.785 240.521,694.473 242.665,694.146 244.809,693.802 246.954,693.444 249.098,693.072 251.243,692.687 253.387,692.288 255.531,691.878 257.676,691.457 259.82,691.025 261.965,690.584 264.109,690.134 266.253,689.677 268.398,689.212 270.542,688.741 272.687,688.266 274.831,687.786 276.975,687.303 279.12,686.817 281.264,686.33 283.409,685.843 285.553,685.357 287.697,684.872 289.842,684.39 291.986,683.912 294.131,683.438 296.275,682.97 298.419,682.508 300.564,682.054 302.708,681.609 304.853,681.172 306.997,680.747 309.142,680.333 311.286,679.931 313.43,679.542 315.575,679.167 317.719,678.807 319.864,678.463 322.008,678.135 324.152,677.824 326.297,677.532 328.441,677.258 330.586,677.004 332.73,676.769 334.874,676.556 337.019,676.363 339.163,676.193 341.308,676.045 343.452,675.919 345.596,675.817 347.741,675.739 349.885,675.684 352.03,675.654 354.174,675.648 356.318,675.667 358.463,675.711 360.607,675.779 362.752,675.873 364.896,675.992 367.04,676.137 369.185,676.306 371.329,676.5 373.474,676.719 375.618,676.962 377.762,677.23 379.907,677.522 382.051,677.837 384.196,678.176 386.34,678.538 388.484,678.922 390.629,679.327 392.773,679.754 394.918,680.202 397.062,680.669 399.206,681.156 401.351,681.661 403.495,682.184 405.64,682.723 407.784,683.279 409.928,683.85 412.073,684.434 414.217,685.032 416.362,685.643 418.506,686.264 420.65,686.895 422.795,687.536 424.939,688.184 427.084,688.839 429.228,689.5 431.372,690.165 433.517,690.833 435.661,691.503 437.806,692.174 439.95,692.845 442.094,693.513 444.239,694.179 446.383,694.84 448.528,695.496 450.672,696.146 452.816,696.787 454.961,697.418 457.105,698.04 459.25,698.649 461.394,699.245 463.538,699.827 465.683,700.394 467.827,700.944 469.972,701.476 472.116,701.989 474.26,702.481 476.405,702.953 478.549,703.402 480.694,703.828 482.838,704.23 484.982,704.606 487.127,704.956 489.271,705.278 491.416,705.573 493.56,705.839 495.704,706.075 497.849,706.28 499.993,706.455 502.138,706.598 504.282,706.709 506.426,706.786 508.571,706.831 510.715,706.841 512.86,706.818 515.004,706.76 517.148,706.668 519.293,706.54 521.437,706.378 523.582,706.18 525.726,705.947 527.87,705.68 530.015,705.377 532.159,705.039 534.304,704.667 536.448,704.261 538.592,703.821 540.737,703.347 542.881,702.84 545.026,702.301 547.17,701.73 549.314,701.128 551.459,700.495 553.603,699.833 555.748,699.142 557.892,698.423 560.036,697.677 562.181,696.905 564.325,696.109 566.47,695.289 568.614,694.446 570.758,693.582 572.903,692.698 575.047,691.796 577.192,690.877 579.336,689.941 581.48,688.992 583.625,688.029 585.769,687.056 587.914,686.073 590.058,685.082 592.202,684.084 594.347,683.082 596.491,682.077 598.636,681.071 600.78,680.065 602.924,679.062 605.069,678.063 607.213,677.07 609.358,676.085 611.502,675.11 613.646,674.146 615.791,673.195 617.935,672.259 620.08,671.341 622.224,670.441 624.368,669.562 626.513,668.705 628.657,667.873 630.802,667.067 632.946,666.288 635.09,665.539 637.235,664.821 639.379,664.136 641.524,663.485 643.668,662.87 645.813,662.293 647.957,661.755 650.101,661.258 652.246,660.802 654.39,660.39 656.535,660.022 658.679,659.7 660.823,659.425 662.968,659.199 665.112,659.021 667.257,658.894 669.401,658.818 671.545,658.793 673.69,658.822 675.834,658.903 677.979,659.039 680.123,659.229 682.267,659.474 684.412,659.775 686.556,660.131 688.701,660.543 690.845,661.01 692.989,661.534 695.134,662.113 697.278,662.748 699.423,663.439 701.567,664.184 703.711,664.983 705.856,665.837 708,666.744 710.145,667.704 712.289,668.715 714.433,669.777 716.578,670.888 718.722,672.048 720.867,673.256 723.011,674.509 725.155,675.807 727.3,677.149 729.444,678.531 731.589,679.954 733.733,681.414 735.877,682.911 738.022,684.441 740.166,686.004 742.311,687.597 744.455,689.217 746.599,690.863 748.744,692.533 750.888,694.222 753.033,695.931 755.177,697.654 757.321,699.391 759.466,701.138 761.61,702.892 763.755,704.651 765.899,706.411 768.043,708.171 770.188,709.926 772.332,711.674 774.477,713.412 776.621,715.137 778.765,716.845 780.91,718.533 783.054,720.199 785.199,721.839 787.343,723.449 789.487,725.027 791.632,726.569 793.776,728.072 795.921,729.533 798.065,730.948 800.209,732.315 802.354,733.629 804.498,734.889 806.643,736.09 808.787,737.23 810.931,738.305 813.076,739.312 815.22,740.248 817.365,741.111 819.509,741.897 821.653,742.603 823.798,743.227 825.942,743.766 828.087,744.217 830.231,744.576 832.375,744.843 834.52,745.014 836.664,745.087 838.809,745.06 840.953,744.929 843.097,744.694 845.242,744.352 847.386,743.902 849.531,743.34 851.675,742.666 853.819,741.879 855.964,740.975 858.108,739.955 860.253,738.817 862.397,737.559 864.541,736.181 866.686,734.682 868.83,733.061 870.975,731.318 873.119,729.451 875.263,727.461 877.408,725.348 879.552,723.111 881.697,720.75 883.841,718.266 885.985,715.659 888.13,712.93 890.274,710.079 892.419,707.107 894.563,704.015 896.707,700.804 898.852,697.476 900.996,694.031 903.141,690.471 905.285,686.799 907.429,683.015 909.574,679.123 911.718,675.123 913.863,671.018 916.007,666.811 918.151,662.505 920.296,658.101 922.44,653.603 924.585,649.014 926.729,644.337 928.873,639.574 931.018,634.73 933.162,629.808 935.307,624.812 937.451,619.744 939.595,614.61 941.74,609.412 943.884,604.156 946.029,598.845 948.173,593.483 950.317,588.074 952.462,582.624 954.606,577.137 956.751,571.617 958.895,566.069 961.039,560.497 963.184,554.907 965.328,549.304 967.473,543.691 969.617,538.075 971.761,532.46 973.906,526.852 976.05,521.255 978.195,515.675 980.339,510.116 982.484,504.585 984.628,499.085 986.772,493.623 988.917,488.203 991.061,482.831 993.206,477.512 995.35,472.251 997.494,467.053 999.639,461.924 1001.78,456.868 1003.93,451.89 1006.07,446.995 1008.22,442.189 1010.36,437.477 1012.51,432.862 1014.65,428.35 1016.79,423.945 1018.94,419.652 1021.08,415.476 1023.23,411.421 1025.37,407.491 1027.52,403.691 1029.66,400.024 1031.8,396.495 1033.95,393.107 1036.09,389.864 1038.24,386.77 1040.38,383.829 1042.53,381.043 1044.67,378.416 1046.82,375.951 1048.96,373.65 1051.1,371.518 1053.25,369.555 1055.39,367.766 1057.54,366.151 1059.68,364.714 1061.83,363.455 1063.97,362.377 1066.12,361.482 1068.26,360.771 1070.4,360.245 1072.55,359.905 1074.69,359.752 1076.84,359.787 1078.98,360.01 1081.13,360.422 1083.27,361.022 1085.41,361.811 1087.56,362.789 1089.7,363.954 1091.85,365.308 1093.99,366.847 1096.14,368.572 1098.28,370.482 1100.43,372.574 1102.57,374.849 1104.71,377.302 1106.86,379.934 1109,382.741 1111.15,385.721 1113.29,388.872 1115.44,392.192 1117.58,395.676 1119.73,399.323 1121.87,403.13 1124.01,407.092 1126.16,411.206 1128.3,415.469 1130.45,419.877 1132.59,424.426 1134.74,429.112 1136.88,433.93 1139.02,438.876 1141.17,443.946 1143.31,449.135 1145.46,454.439 1147.6,459.851 1149.75,465.368 1151.89,470.984 1154.04,476.694 1156.18,482.493 1158.32,488.375 1160.47,494.335 1162.61,500.367 1164.76,506.466 1166.9,512.625 1169.05,518.84 1171.19,525.104 1173.34,531.412 1175.48,537.757 1177.62,544.134 1179.77,550.536 1181.91,556.958 1184.06,563.394 1186.2,569.837 1188.35,576.282 1190.49,582.723 1192.63,589.153 1194.78,595.567 1196.92,601.959 1199.07,608.323 1201.21,614.653 1203.36,620.942 1205.5,627.187 1207.65,633.379 1209.79,639.515 1211.93,645.588 1214.08,651.594 1216.22,657.525 1218.37,663.378 1220.51,669.147 1222.66,674.827 1224.8,680.412 1226.95,685.899 1229.09,691.281 1231.23,696.555 1233.38,701.716 1235.52,706.76 1237.67,711.682 1239.81,716.478 1241.96,721.144 1244.1,725.677 1246.24,730.072 1248.39,734.327 1250.53,738.437 1252.68,742.4 1254.82,746.214 1256.97,749.874 1259.11,753.378 1261.26,756.725 1263.4,759.911 1265.54,762.935 1267.69,765.794 1269.83,768.488 1271.98,771.014 1274.12,773.371 1276.27,775.558 1278.41,777.575 1280.56,779.42 1282.7,781.093 1284.84,782.594 1286.99,783.922 1289.13,785.078 1291.28,786.062 1293.42,786.874 1295.57,787.515 1297.71,787.986 1299.85,788.288 1302,788.422 1304.14,788.39 1306.29,788.193 1308.43,787.833 1310.58,787.313 1312.72,786.634 1314.87,785.798 1317.01,784.809 1319.15,783.669 1321.3,782.38 1323.44,780.947 1325.59,779.371 1327.73,777.657 1329.88,775.808 1332.02,773.828 1334.17,771.72 1336.31,769.489 1338.45,767.139 1340.6,764.673 1342.74,762.096 1344.89,759.413 1347.03,756.628 1349.18,753.746 1351.32,750.772 1353.46,747.71 1355.61,744.566 1357.75,741.345 1359.9,738.051 1362.04,734.69 1364.19,731.268 1366.33,727.789 1368.48,724.26 1370.62,720.685 1372.76,717.069 1374.91,713.42 1377.05,709.741 1379.2,706.039 1381.34,702.319 1383.49,698.587 1385.63,694.849 1387.78,691.109 1389.92,687.374 1392.06,683.648 1394.21,679.939 1396.35,676.251 1398.5,672.589 1400.64,668.959 1402.79,665.366 1404.93,661.816 1407.07,658.314 1409.22,654.865 1411.36,651.473 1413.51,648.145 1415.65,644.885 1417.8,641.698 1419.94,638.588 1422.09,635.561 1424.23,632.62 1426.37,629.77 1428.52,627.016 1430.66,624.361 1432.81,621.809 1434.95,619.365 1437.1,617.032 1439.24,614.814 1441.39,612.714 1443.53,610.735 1445.67,608.881 1447.82,607.155 1449.96,605.559 1452.11,604.096 1454.25,602.769 1456.4,601.58 1458.54,600.531 1460.68,599.623 1462.83,598.86 1464.97,598.242 1467.12,597.772 1469.26,597.449 1471.41,597.276 1473.55,597.253 1475.7,597.381 1477.84,597.66 1479.98,598.092 1482.13,598.675 1484.27,599.41 1486.42,600.297 1488.56,601.335 1490.71,602.524 1492.85,603.864 1495,605.352 1497.14,606.989 1499.28,608.772 1501.43,610.701 1503.57,612.773 1505.72,614.987 1507.86,617.341 1510.01,619.833 1512.15,622.461 1514.3,625.221 1516.44,628.112 1518.58,631.131 1520.73,634.275 1522.87,637.54 1525.02,640.924 1527.16,644.424 1529.31,648.035 1531.45,651.754 1533.59,655.578 1535.74,659.503 1537.88,663.524 1540.03,667.639 1542.17,671.842 1544.32,676.129 1546.46,680.496 1548.61,684.939 1550.75,689.453 1552.89,694.033 1555.04,698.676 1557.18,703.375 1559.33,708.127 1561.47,712.927 1563.62,717.769 1565.76,722.649 1567.91,727.562 1570.05,732.503 1572.19,737.467 1574.34,742.448 1576.48,747.442 1578.63,752.444 1580.77,757.449 1582.92,762.452 1585.06,767.447 1587.2,772.43 1589.35,777.395 1591.49,782.339 1593.64,787.255 1595.78,792.139 1597.93,796.986 1600.07,801.792 1602.22,806.551 1604.36,811.259 1606.5,815.912 1608.65,820.505 1610.79,825.033 1612.94,829.492 1615.08,833.878 1617.23,838.187 1619.37,842.414 1621.52,846.557 1623.66,850.609 1625.8,854.569 1627.95,858.432 1630.09,862.195 1632.24,865.855 1634.38,869.407 1636.53,872.85 1638.67,876.179 1640.81,879.393 1642.96,882.488 1645.1,885.461 1647.25,888.311 1649.39,891.035 1651.54,893.63 1653.68,896.095 1655.83,898.428 1657.97,900.627 1660.11,902.69 1662.26,904.616 1664.4,906.404 1666.55,908.053 1668.69,909.561 1670.84,910.928 1672.98,912.153 1675.13,913.236 1677.27,914.176 1679.41,914.973 1681.56,915.627 1683.7,916.138 1685.85,916.506 1687.99,916.733 1690.14,916.818 1692.28,916.761 1694.42,916.565 1696.57,916.23 1698.71,915.757 1700.86,915.147 1703,914.402 1705.15,913.523 1707.29,912.513 1709.44,911.372 1711.58,910.103 1713.72,908.708 1715.87,907.189 1718.01,905.548 1720.16,903.788 1722.3,901.912 1724.45,899.921 1726.59,897.819 1728.74,895.609 1730.88,893.293 1733.02,890.874 1735.17,888.356 1737.31,885.742 1739.46,883.035 1741.6,880.238 1743.75,877.356 1745.89,874.39 1748.03,871.345 1750.18,868.225 1752.32,865.032 1754.47,861.772 1756.61,858.446 1758.76,855.06 1760.9,851.617 1763.05,848.121 1765.19,844.575 1767.33,840.984 1769.48,837.351 1771.62,833.68 1773.77,829.976 1775.91,826.241 1778.06,822.481 1780.2,818.697 1782.35,814.896 1784.49,811.08 1786.63,807.253 1788.78,803.419 1790.92,799.581 1793.07,795.744 1795.21,791.911 1797.36,788.086 1799.5,784.271 1801.64,780.472 1803.79,776.69 1805.93,772.93 1808.08,769.195 1810.22,765.487 1812.37,761.811 1814.51,758.17 1816.66,754.566 1818.8,751.002 1820.94,747.481 1823.09,744.006 1825.23,740.58 1827.38,737.205 1829.52,733.884 1831.67,730.619 1833.81,727.413 1835.96,724.267 1838.1,721.184 1840.24,718.166 1842.39,715.214 1844.53,712.332 1846.68,709.519 1848.82,706.778 1850.97,704.11 1853.11,701.517 1855.25,699 1857.4,696.56 1859.54,694.198 1861.69,691.915 1863.83,689.712 1865.98,687.59 1868.12,685.548 1870.27,683.589 1872.41,681.711 1874.55,679.916 1876.7,678.203 1878.84,676.572 1880.99,675.024 1883.13,673.559 1885.28,672.176 1887.42,670.874 1889.57,669.654 1891.71,668.514 1893.85,667.455 1896,666.475 1898.14,665.573 1900.29,664.75 1902.43,664.003 1904.58,663.332 1906.72,662.735 1908.86,662.212 1911.01,661.761 1913.15,661.38 1915.3,661.068 1917.44,660.824 1919.59,660.647 1921.73,660.533 1923.88,660.483 1926.02,660.493 1928.16,660.563 1930.31,660.69 1932.45,660.872 1934.6,661.108 1936.74,661.396 1938.89,661.733 1941.03,662.118 1943.18,662.548 1945.32,663.021 1947.46,663.536 1949.61,664.09 1951.75,664.681 1953.9,665.307 1956.04,665.965 1958.19,666.654 1960.33,667.372 1962.47,668.115 1964.62,668.883 1966.76,669.672 1968.91,670.481 1971.05,671.308 1973.2,672.15 1975.34,673.006 1977.49,673.873 1979.63,674.749 1981.77,675.632 1983.92,676.521 1986.06,677.413 1988.21,678.307 1990.35,679.2 1992.5,680.091 1994.64,680.978 1996.79,681.859 1998.93,682.732 2001.07,683.597 2003.22,684.45 2005.36,685.292 2007.51,686.119 2009.65,686.932 2011.8,687.727 2013.94,688.505 2016.08,689.264 2018.23,690.002 2020.37,690.719 2022.52,691.413 2024.66,692.084 2026.81,692.73 2028.95,693.351 2031.1,693.946 2033.24,694.514 2035.38,695.054 2037.53,695.566 2039.67,696.049 2041.82,696.503 2043.96,696.927 2046.11,697.322 2048.25,697.686 2050.4,698.019 2052.54,698.322 2054.68,698.595 2056.83,698.836 2058.97,699.047 2061.12,699.227 2063.26,699.377 2065.41,699.496 2067.55,699.586 2069.69,699.646 2071.84,699.677 2073.98,699.679 2076.13,699.652 2078.27,699.598 2080.42,699.517 2082.56,699.409 2084.71,699.276 2086.85,699.117 2088.99,698.934 2091.14,698.727 2093.28,698.498 2095.43,698.247 2097.57,697.975 2099.72,697.683 2101.86,697.372 2104.01,697.044 2106.15,696.698 2108.29,696.336 2110.44,695.959 2112.58,695.569 2114.73,695.166 2116.87,694.751 2119.02,694.326 2121.16,693.892 2123.3,693.449 2125.45,692.999 2127.59,692.544 2129.74,692.084 2131.88,691.62 2134.03,691.153 2136.17,690.685 2138.32,690.217 2140.46,689.75 2142.6,689.284 2144.75,688.822 2146.89,688.364 2149.04,687.91 2151.18,687.463 2153.33,687.023 2155.47,686.591 2157.62,686.168 2159.76,685.755 2161.9,685.352 2164.05,684.962 2166.19,684.583 2168.34,684.218 2170.48,683.867 2172.63,683.531 2174.77,683.21 2176.92,682.905 2179.06,682.616 2181.2,682.345 2183.35,682.092 2185.49,681.856 2187.64,681.639 2189.78,681.442 2191.93,681.263 2194.07,681.104 2196.21,680.965 2198.36,680.846 2200.5,680.747 2202.65,680.669 2204.79,680.611 2206.94,680.573 2209.08,680.556 2211.23,680.559 2213.37,680.583 2215.51,680.627 2217.66,680.69 2219.8,680.774 2221.95,680.876 2224.09,680.998 2226.24,681.139 2228.38,681.298 2230.53,681.475 2232.67,681.67 2234.81,681.881 2236.96,682.109 2239.1,682.353 2241.25,682.612 2243.39,682.885 2245.54,683.173 2247.68,683.474 2249.82,683.787 2251.97,684.112 2254.11,684.449 2256.26,684.795 2258.4,685.151 2260.55,685.516 2262.69,685.888 2264.84,686.267 2266.98,686.652 2269.12,687.042 2271.27,687.437 2273.41,687.835 2275.56,688.235 2277.7,688.637 2279.85,689.039 2281.99,689.441 2284.14,689.842 2286.28,690.24 2288.42,690.636 2290.57,691.027 2292.71,691.414 2294.86,691.795 2297,692.169 2299.15,692.536 2301.29,692.894 2303.43,693.244 2305.58,693.583 2307.72,693.912 2309.87,694.229 2312.01,694.534 2314.16,694.826 2316.3,695.104 2318.45,695.369 2320.59,695.618 2322.73,695.851 2324.88,696.069 2327.02,696.27 2329.17,696.453 2331.31,696.62 2333.46,696.768 2335.6,696.897 2337.75,697.008 2339.89,697.1 2342.03,697.172 2344.18,697.225 2346.32,697.258 2348.47,697.271 2350.61,697.264 2352.76,697.236 "/>
<polyline clip-path="url(#clip622)" style="stroke:#0000ff; stroke-linecap:round; stroke-linejoin:round; stroke-width:4; stroke-opacity:1; fill:none" points="208.355,688.913 210.499,689.289 212.643,689.652 214.788,690.002 216.932,690.339 219.077,690.662 221.221,690.972 223.365,691.268 225.51,691.549 227.654,691.817 229.799,692.071 231.943,692.31 234.087,692.535 236.232,692.746 238.376,692.943 240.521,693.127 242.665,693.296 244.809,693.451 246.954,693.594 249.098,693.722 251.243,693.838 253.387,693.941 255.531,694.032 257.676,694.11 259.82,694.177 261.965,694.232 264.109,694.277 266.253,694.31 268.398,694.334 270.542,694.347 272.687,694.352 274.831,694.348 276.975,694.335 279.12,694.315 281.264,694.287 283.409,694.253 285.553,694.213 287.697,694.167 289.842,694.116 291.986,694.061 294.131,694.002 296.275,693.94 298.419,693.875 300.564,693.809 302.708,693.74 304.853,693.671 306.997,693.602 309.142,693.533 311.286,693.465 313.43,693.398 315.575,693.333 317.719,693.271 319.864,693.212 322.008,693.157 324.152,693.106 326.297,693.059 328.441,693.018 330.586,692.982 332.73,692.952 334.874,692.928 337.019,692.912 339.163,692.902 341.308,692.901 343.452,692.907 345.596,692.921 347.741,692.944 349.885,692.976 352.03,693.017 354.174,693.066 356.318,693.126 358.463,693.194 360.607,693.273 362.752,693.361 364.896,693.459 367.04,693.566 369.185,693.684 371.329,693.811 373.474,693.948 375.618,694.094 377.762,694.25 379.907,694.415 382.051,694.589 384.196,694.772 386.34,694.964 388.484,695.164 390.629,695.372 392.773,695.587 394.918,695.81 397.062,696.039 399.206,696.275 401.351,696.517 403.495,696.764 405.64,697.016 407.784,697.272 409.928,697.533 412.073,697.796 414.217,698.062 416.362,698.33 418.506,698.6 420.65,698.87 422.795,699.14 424.939,699.409 427.084,699.677 429.228,699.942 431.372,700.205 433.517,700.464 435.661,700.718 437.806,700.967 439.95,701.211 442.094,701.447 444.239,701.676 446.383,701.896 448.528,702.108 450.672,702.309 452.816,702.5 454.961,702.679 457.105,702.846 459.25,703 461.394,703.141 463.538,703.266 465.683,703.377 467.827,703.472 469.972,703.55 472.116,703.611 474.26,703.654 476.405,703.678 478.549,703.683 480.694,703.669 482.838,703.634 484.982,703.579 487.127,703.502 489.271,703.403 491.416,703.283 493.56,703.139 495.704,702.973 497.849,702.784 499.993,702.571 502.138,702.334 504.282,702.074 506.426,701.789 508.571,701.48 510.715,701.146 512.86,700.788 515.004,700.406 517.148,700 519.293,699.569 521.437,699.114 523.582,698.635 525.726,698.133 527.87,697.607 530.015,697.058 532.159,696.486 534.304,695.892 536.448,695.277 538.592,694.64 540.737,693.982 542.881,693.304 545.026,692.607 547.17,691.891 549.314,691.157 551.459,690.406 553.603,689.638 555.748,688.855 557.892,688.058 560.036,687.247 562.181,686.423 564.325,685.588 566.47,684.742 568.614,683.887 570.758,683.024 572.903,682.154 575.047,681.278 577.192,680.398 579.336,679.515 581.48,678.629 583.625,677.743 585.769,676.858 587.914,675.975 590.058,675.096 592.202,674.221 594.347,673.353 596.491,672.493 598.636,671.642 600.78,670.802 602.924,669.975 605.069,669.161 607.213,668.362 609.358,667.58 611.502,666.816 613.646,666.072 615.791,665.349 617.935,664.649 620.08,663.973 622.224,663.322 624.368,662.698 626.513,662.103 628.657,661.537 630.802,661.002 632.946,660.499 635.09,660.03 637.235,659.596 639.379,659.197 641.524,658.836 643.668,658.514 645.813,658.23 647.957,657.988 650.101,657.786 652.246,657.627 654.39,657.512 656.535,657.44 658.679,657.414 660.823,657.433 662.968,657.498 665.112,657.611 667.257,657.771 669.401,657.978 671.545,658.235 673.69,658.539 675.834,658.893 677.979,659.296 680.123,659.748 682.267,660.249 684.412,660.799 686.556,661.399 688.701,662.047 690.845,662.744 692.989,663.489 695.134,664.282 697.278,665.122 699.423,666.009 701.567,666.942 703.711,667.92 705.856,668.942 708,670.008 710.145,671.117 712.289,672.266 714.433,673.456 716.578,674.684 718.722,675.95 720.867,677.252 723.011,678.588 725.155,679.957 727.3,681.358 729.444,682.788 731.589,684.246 733.733,685.729 735.877,687.237 738.022,688.766 740.166,690.315 742.311,691.881 744.455,693.462 746.599,695.057 748.744,696.662 750.888,698.275 753.033,699.894 755.177,701.516 757.321,703.138 759.466,704.759 761.61,706.374 763.755,707.983 765.899,709.581 768.043,711.165 770.188,712.735 772.332,714.285 774.477,715.814 776.621,717.318 778.765,718.795 780.91,720.242 783.054,721.655 785.199,723.032 787.343,724.37 789.487,725.666 791.632,726.917 793.776,728.12 795.921,729.271 798.065,730.369 800.209,731.41 802.354,732.392 804.498,733.311 806.643,734.164 808.787,734.95 810.931,735.664 813.076,736.305 815.22,736.87 817.365,737.356 819.509,737.761 821.653,738.081 823.798,738.316 825.942,738.462 828.087,738.517 830.231,738.479 832.375,738.346 834.52,738.115 836.664,737.785 838.809,737.354 840.953,736.82 843.097,736.181 845.242,735.436 847.386,734.584 849.531,733.622 851.675,732.55 853.819,731.366 855.964,730.07 858.108,728.66 860.253,727.136 862.397,725.496 864.541,723.741 866.686,721.87 868.83,719.882 870.975,717.778 873.119,715.556 875.263,713.218 877.408,710.764 879.552,708.193 881.697,705.506 883.841,702.705 885.985,699.788 888.13,696.758 890.274,693.616 892.419,690.361 894.563,686.997 896.707,683.524 898.852,679.943 900.996,676.257 903.141,672.467 905.285,668.575 907.429,664.583 909.574,660.494 911.718,656.31 913.863,652.032 916.007,647.665 918.151,643.21 920.296,638.67 922.44,634.049 924.585,629.349 926.729,624.574 928.873,619.727 931.018,614.811 933.162,609.83 935.307,604.788 937.451,599.688 939.595,594.535 941.74,589.331 943.884,584.082 946.029,578.791 948.173,573.462 950.317,568.101 952.462,562.71 954.606,557.295 956.751,551.861 958.895,546.411 961.039,540.95 963.184,535.483 965.328,530.015 967.473,524.551 969.617,519.095 971.761,513.651 973.906,508.226 976.05,502.824 978.195,497.45 980.339,492.108 982.484,486.804 984.628,481.543 986.772,476.329 988.917,471.168 991.061,466.064 993.206,461.023 995.35,456.048 997.494,451.146 999.639,446.32 1001.78,441.576 1003.93,436.917 1006.07,432.35 1008.22,427.879 1010.36,423.507 1012.51,419.239 1014.65,415.081 1016.79,411.036 1018.94,407.108 1021.08,403.301 1023.23,399.62 1025.37,396.069 1027.52,392.651 1029.66,389.37 1031.8,386.229 1033.95,383.233 1036.09,380.384 1038.24,377.686 1040.38,375.142 1042.53,372.755 1044.67,370.528 1046.82,368.463 1048.96,366.562 1051.1,364.83 1053.25,363.266 1055.39,361.875 1057.54,360.657 1059.68,359.614 1061.83,358.749 1063.97,358.062 1066.12,357.555 1068.26,357.228 1070.4,357.083 1072.55,357.121 1074.69,357.342 1076.84,357.746 1078.98,358.335 1081.13,359.106 1083.27,360.062 1085.41,361.2 1087.56,362.522 1089.7,364.026 1091.85,365.711 1093.99,367.576 1096.14,369.62 1098.28,371.842 1100.43,374.239 1102.57,376.811 1104.71,379.556 1106.86,382.471 1109,385.553 1111.15,388.802 1113.29,392.213 1115.44,395.784 1117.58,399.513 1119.73,403.395 1121.87,407.429 1124.01,411.61 1126.16,415.935 1128.3,420.4 1130.45,425.001 1132.59,429.735 1134.74,434.597 1136.88,439.583 1139.02,444.689 1141.17,449.91 1143.31,455.241 1145.46,460.678 1147.6,466.216 1149.75,471.85 1151.89,477.574 1154.04,483.385 1156.18,489.276 1158.32,495.242 1160.47,501.279 1162.61,507.379 1164.76,513.539 1166.9,519.752 1169.05,526.013 1171.19,532.316 1173.34,538.655 1175.48,545.025 1177.62,551.42 1179.77,557.834 1181.91,564.261 1184.06,570.695 1186.2,577.132 1188.35,583.564 1190.49,589.986 1192.63,596.393 1194.78,602.778 1196.92,609.135 1199.07,615.46 1201.21,621.747 1203.36,627.989 1205.5,634.182 1207.65,640.319 1209.79,646.396 1211.93,652.407 1214.08,658.347 1216.22,664.211 1218.37,669.993 1220.51,675.689 1222.66,681.293 1224.8,686.801 1226.95,692.209 1229.09,697.511 1231.23,702.703 1233.38,707.781 1235.52,712.741 1237.67,717.579 1239.81,722.291 1241.96,726.872 1244.1,731.32 1246.24,735.631 1248.39,739.802 1250.53,743.83 1252.68,747.711 1254.82,751.443 1256.97,755.023 1259.11,758.449 1261.26,761.718 1263.4,764.829 1265.54,767.779 1267.69,770.567 1269.83,773.191 1271.98,775.65 1274.12,777.943 1276.27,780.068 1278.41,782.025 1280.56,783.813 1282.7,785.432 1284.84,786.881 1286.99,788.161 1289.13,789.271 1291.28,790.213 1293.42,790.986 1295.57,791.591 1297.71,792.029 1299.85,792.301 1302,792.409 1304.14,792.354 1306.29,792.137 1308.43,791.761 1310.58,791.227 1312.72,790.538 1314.87,789.695 1317.01,788.702 1319.15,787.56 1321.3,786.274 1323.44,784.845 1325.59,783.277 1327.73,781.574 1329.88,779.738 1332.02,777.773 1334.17,775.684 1336.31,773.473 1338.45,771.145 1340.6,768.704 1342.74,766.154 1344.89,763.499 1347.03,760.744 1349.18,757.894 1351.32,754.953 1353.46,751.926 1355.61,748.817 1357.75,745.632 1359.9,742.375 1362.04,739.052 1364.19,735.668 1366.33,732.227 1368.48,728.736 1370.62,725.199 1372.76,721.621 1374.91,718.008 1377.05,714.366 1379.2,710.699 1381.34,707.014 1383.49,703.314 1385.63,699.607 1387.78,695.897 1389.92,692.189 1392.06,688.489 1394.21,684.803 1396.35,681.135 1398.5,677.491 1400.64,673.876 1402.79,670.295 1404.93,666.754 1407.07,663.257 1409.22,659.809 1411.36,656.416 1413.51,653.081 1415.65,649.811 1417.8,646.609 1419.94,643.48 1422.09,640.428 1424.23,637.459 1426.37,634.575 1428.52,631.782 1430.66,629.083 1432.81,626.483 1434.95,623.984 1437.1,621.591 1439.24,619.307 1441.39,617.135 1443.53,615.079 1445.67,613.141 1447.82,611.325 1449.96,609.634 1452.11,608.069 1454.25,606.634 1456.4,605.33 1458.54,604.16 1460.68,603.126 1462.83,602.229 1464.97,601.472 1467.12,600.855 1469.26,600.379 1471.41,600.047 1473.55,599.859 1475.7,599.815 1477.84,599.916 1479.98,600.162 1482.13,600.555 1484.27,601.093 1486.42,601.777 1488.56,602.606 1490.71,603.58 1492.85,604.698 1495,605.959 1497.14,607.363 1499.28,608.908 1501.43,610.593 1503.57,612.416 1505.72,614.376 1507.86,616.471 1510.01,618.698 1512.15,621.057 1514.3,623.544 1516.44,626.156 1518.58,628.893 1520.73,631.749 1522.87,634.724 1525.02,637.814 1527.16,641.015 1529.31,644.325 1531.45,647.739 1533.59,651.256 1535.74,654.87 1537.88,658.579 1540.03,662.378 1542.17,666.263 1544.32,670.231 1546.46,674.278 1548.61,678.398 1550.75,682.589 1552.89,686.845 1555.04,691.162 1557.18,695.535 1559.33,699.961 1561.47,704.435 1563.62,708.951 1565.76,713.506 1567.91,718.094 1570.05,722.71 1572.19,727.351 1574.34,732.011 1576.48,736.686 1578.63,741.37 1580.77,746.058 1582.92,750.747 1585.06,755.431 1587.2,760.106 1589.35,764.766 1591.49,769.407 1593.64,774.024 1595.78,778.612 1597.93,783.168 1600.07,787.686 1602.22,792.162 1604.36,796.591 1606.5,800.969 1608.65,805.292 1610.79,809.555 1612.94,813.755 1615.08,817.886 1617.23,821.946 1619.37,825.93 1621.52,829.834 1623.66,833.655 1625.8,837.388 1627.95,841.031 1630.09,844.581 1632.24,848.033 1634.38,851.384 1636.53,854.632 1638.67,857.774 1640.81,860.806 1642.96,863.727 1645.1,866.533 1647.25,869.222 1649.39,871.792 1651.54,874.241 1653.68,876.566 1655.83,878.767 1657.97,880.84 1660.11,882.786 1662.26,884.601 1664.4,886.285 1666.55,887.837 1668.69,889.256 1670.84,890.541 1672.98,891.691 1675.13,892.706 1677.27,893.585 1679.41,894.328 1681.56,894.935 1683.7,895.406 1685.85,895.742 1687.99,895.942 1690.14,896.007 1692.28,895.938 1694.42,895.736 1696.57,895.401 1698.71,894.934 1700.86,894.338 1703,893.612 1705.15,892.758 1707.29,891.779 1709.44,890.675 1711.58,889.449 1713.72,888.102 1715.87,886.637 1718.01,885.055 1720.16,883.36 1722.3,881.552 1724.45,879.636 1726.59,877.613 1728.74,875.487 1730.88,873.259 1733.02,870.933 1735.17,868.512 1737.31,865.999 1739.46,863.397 1741.6,860.709 1743.75,857.938 1745.89,855.088 1748.03,852.162 1750.18,849.164 1752.32,846.096 1754.47,842.963 1756.61,839.769 1758.76,836.516 1760.9,833.208 1763.05,829.849 1765.19,826.443 1767.33,822.993 1769.48,819.504 1771.62,815.978 1773.77,812.42 1775.91,808.833 1778.06,805.221 1780.2,801.589 1782.35,797.938 1784.49,794.274 1786.63,790.599 1788.78,786.918 1790.92,783.235 1793.07,779.551 1795.21,775.873 1797.36,772.201 1799.5,768.541 1801.64,764.896 1803.79,761.269 1805.93,757.663 1808.08,754.081 1810.22,750.527 1812.37,747.003 1814.51,743.514 1816.66,740.061 1818.8,736.648 1820.94,733.277 1823.09,729.952 1825.23,726.674 1827.38,723.446 1829.52,720.272 1831.67,717.152 1833.81,714.09 1835.96,711.088 1838.1,708.147 1840.24,705.27 1842.39,702.459 1844.53,699.715 1846.68,697.04 1848.82,694.435 1850.97,691.903 1853.11,689.444 1855.25,687.06 1857.4,684.752 1859.54,682.52 1861.69,680.367 1863.83,678.292 1865.98,676.297 1868.12,674.382 1870.27,672.547 1872.41,670.793 1874.55,669.121 1876.7,667.53 1878.84,666.021 1880.99,664.593 1883.13,663.246 1885.28,661.981 1887.42,660.797 1889.57,659.693 1891.71,658.67 1893.85,657.725 1896,656.86 1898.14,656.072 1900.29,655.362 1902.43,654.728 1904.58,654.168 1906.72,653.683 1908.86,653.271 1911.01,652.93 1913.15,652.66 1915.3,652.458 1917.44,652.323 1919.59,652.255 1921.73,652.25 1923.88,652.308 1926.02,652.426 1928.16,652.604 1930.31,652.839 1932.45,653.129 1934.6,653.472 1936.74,653.867 1938.89,654.311 1941.03,654.803 1943.18,655.34 1945.32,655.92 1947.46,656.541 1949.61,657.201 1951.75,657.898 1953.9,658.63 1956.04,659.394 1958.19,660.188 1960.33,661.011 1962.47,661.859 1964.62,662.731 1966.76,663.624 1968.91,664.537 1971.05,665.467 1973.2,666.412 1975.34,667.37 1977.49,668.338 1979.63,669.315 1981.77,670.299 1983.92,671.287 1986.06,672.278 1988.21,673.269 1990.35,674.259 1992.5,675.245 1994.64,676.226 1996.79,677.2 1998.93,678.165 2001.07,679.119 2003.22,680.061 2005.36,680.989 2007.51,681.902 2009.65,682.798 2011.8,683.675 2013.94,684.532 2016.08,685.368 2018.23,686.181 2020.37,686.97 2022.52,687.734 2024.66,688.473 2026.81,689.183 2028.95,689.866 2031.1,690.52 2033.24,691.143 2035.38,691.736 2037.53,692.297 2039.67,692.826 2041.82,693.322 2043.96,693.785 2046.11,694.214 2048.25,694.609 2050.4,694.97 2052.54,695.296 2054.68,695.587 2056.83,695.843 2058.97,696.064 2061.12,696.25 2063.26,696.4 2065.41,696.516 2067.55,696.597 2069.69,696.644 2071.84,696.656 2073.98,696.635 2076.13,696.58 2078.27,696.493 2080.42,696.373 2082.56,696.221 2084.71,696.038 2086.85,695.825 2088.99,695.582 2091.14,695.31 2093.28,695.01 2095.43,694.682 2097.57,694.328 2099.72,693.949 2101.86,693.545 2104.01,693.118 2106.15,692.668 2108.29,692.196 2110.44,691.705 2112.58,691.194 2114.73,690.665 2116.87,690.119 2119.02,689.558 2121.16,688.982 2123.3,688.392 2125.45,687.791 2127.59,687.179 2129.74,686.556 2131.88,685.926 2134.03,685.288 2136.17,684.644 2138.32,683.996 2140.46,683.344 2142.6,682.69 2144.75,682.035 2146.89,681.38 2149.04,680.726 2151.18,680.075 2153.33,679.428 2155.47,678.785 2157.62,678.149 2159.76,677.52 2161.9,676.899 2164.05,676.287 2166.19,675.686 2168.34,675.096 2170.48,674.518 2172.63,673.953 2174.77,673.403 2176.92,672.868 2179.06,672.348 2181.2,671.846 2183.35,671.361 2185.49,670.894 2187.64,670.446 2189.78,670.018 2191.93,669.61 2194.07,669.223 2196.21,668.857 2198.36,668.513 2200.5,668.191 2202.65,667.892 2204.79,667.617 2206.94,667.364 2209.08,667.136 2211.23,666.931 2213.37,666.751 2215.51,666.595 2217.66,666.463 2219.8,666.356 2221.95,666.273 2224.09,666.215 2226.24,666.181 2228.38,666.171 2230.53,666.186 2232.67,666.225 2234.81,666.287 2236.96,666.373 2239.1,666.482 2241.25,666.614 2243.39,666.768 2245.54,666.945 2247.68,667.143 2249.82,667.363 2251.97,667.603 2254.11,667.863 2256.26,668.143 2258.4,668.441 2260.55,668.758 2262.69,669.093 2264.84,669.445 2266.98,669.813 2269.12,670.196 2271.27,670.595 2273.41,671.008 2275.56,671.434 2277.7,671.872 2279.85,672.323 2281.99,672.784 2284.14,673.256 2286.28,673.737 2288.42,674.226 2290.57,674.723 2292.71,675.227 2294.86,675.737 2297,676.253 2299.15,676.772 2301.29,677.295 2303.43,677.821 2305.58,678.348 2307.72,678.877 2309.87,679.405 2312.01,679.933 2314.16,680.46 2316.3,680.985 2318.45,681.506 2320.59,682.024 2322.73,682.538 2324.88,683.046 2327.02,683.549 2329.17,684.045 2331.31,684.534 2333.46,685.016 2335.6,685.489 2337.75,685.953 2339.89,686.408 2342.03,686.853 2344.18,687.288 2346.32,687.711 2348.47,688.124 2350.61,688.524 2352.76,688.913 "/>
<path clip-path="url(#clip620)" d="M1946.19 394.964 L2281.28 394.964 L2281.28 89.9796 L1946.19 89.9796  Z" fill="#ffffff" fill-rule="evenodd" fill-opacity="1"/>
<polyline clip-path="url(#clip620)" style="stroke:#000000; stroke-linecap:round; stroke-linejoin:round; stroke-width:4; stroke-opacity:1; fill:none" points="1946.19,394.964 2281.28,394.964 2281.28,89.9796 1946.19,89.9796 1946.19,394.964 "/>
<path clip-path="url(#clip620)" d="M2018.74 143.47 L2018.74 188.981 L2064.26 188.981 L2064.26 143.47 L2018.74 143.47 Z" fill="#ffff00" fill-rule="evenodd" fill-opacity="1" stroke="#000000" stroke-opacity="1" stroke-width="4.26667"/>
<path clip-path="url(#clip620)" d="M2162.81 157.719 Q2162.2 160.741 2161.38 162.474 Q2160.07 165.121 2157.82 165.121 Q2156.22 165.121 2155.01 164.16 Q2153.81 163.2 2153.51 161.607 Q2152.9 162.333 2152.45 162.755 Q2152.03 163.177 2151.19 163.832 Q2150.37 164.465 2149.34 164.793 Q2148.31 165.121 2147.14 165.121 Q2144.28 165.121 2142.47 163.622 Q2140.04 173.436 2139.83 173.928 Q2139.15 174.935 2138.17 174.935 Q2137.56 174.935 2137.18 174.56 Q2136.81 174.209 2136.81 173.646 Q2136.83 173.459 2136.97 172.874 L2143.86 145.118 Q2144.04 144.368 2144.51 143.947 Q2145 143.502 2145.29 143.455 Q2145.57 143.385 2145.78 143.385 Q2146.41 143.385 2146.78 143.736 Q2147.18 144.064 2147.18 144.673 Q2147.18 144.767 2147.04 145.305 Q2146.93 145.821 2146.74 146.617 Q2146.55 147.39 2146.46 147.741 L2144.44 155.799 Q2143.76 158.562 2143.76 159.874 Q2143.76 161.865 2144.65 162.966 Q2145.57 164.043 2147.32 164.043 Q2148.42 164.043 2149.45 163.598 Q2150.49 163.13 2151.19 162.497 Q2151.89 161.865 2152.45 161.186 Q2153.01 160.483 2153.27 160.038 Q2153.53 159.57 2153.55 159.452 L2154.8 154.557 L2157.07 145.586 Q2157.21 145.024 2157.47 144.649 Q2157.75 144.251 2158.07 144.111 Q2158.4 143.97 2158.59 143.947 Q2158.78 143.9 2158.94 143.9 Q2159.53 143.9 2159.92 144.251 Q2160.32 144.603 2160.32 145.212 Q2160.32 145.329 2160.18 145.891 Q2160.07 146.43 2159.88 147.226 Q2159.69 147.999 2159.6 148.42 Q2158.85 151.372 2158.78 151.676 L2157.44 156.853 Q2157.37 157.157 2157.14 158.141 Q2156.93 159.125 2156.81 159.64 Q2156.69 160.132 2156.58 160.811 Q2156.48 161.467 2156.48 161.842 Q2156.48 164.043 2157.93 164.043 Q2158.5 164.043 2158.99 163.715 Q2159.48 163.364 2159.81 162.872 Q2160.16 162.38 2160.49 161.537 Q2160.84 160.67 2161.05 159.968 Q2161.26 159.242 2161.56 158.117 Q2161.68 157.579 2161.8 157.415 Q2161.92 157.251 2162.24 157.251 Q2162.81 157.251 2162.81 157.719 Z" fill="#000000" fill-rule="nonzero" fill-opacity="1" /><path clip-path="url(#clip620)" d="M2167.66 177.382 Q2167.66 172.447 2168.91 169.758 Q2170.65 165.757 2174.74 165.757 Q2175.61 165.757 2176.51 166.003 Q2177.43 166.233 2178.58 167.135 Q2179.74 168.036 2180.45 169.512 Q2181.79 172.365 2181.79 177.382 Q2181.79 182.284 2180.55 184.957 Q2178.73 188.859 2174.71 188.859 Q2173.2 188.859 2171.66 188.088 Q2170.14 187.318 2169.17 185.465 Q2167.66 182.694 2167.66 177.382 M2170.45 176.972 Q2170.45 182.038 2170.81 184.055 Q2171.22 186.236 2172.33 187.186 Q2173.47 188.121 2174.71 188.121 Q2176.06 188.121 2177.17 187.121 Q2178.3 186.104 2178.65 183.924 Q2179.02 181.776 2179.01 176.972 Q2179.01 172.299 2178.68 170.43 Q2178.24 168.249 2177.06 167.38 Q2175.89 166.495 2174.71 166.495 Q2174.27 166.495 2173.79 166.626 Q2173.33 166.757 2172.66 167.135 Q2171.99 167.512 2171.46 168.446 Q2170.96 169.381 2170.71 170.791 Q2170.45 172.611 2170.45 176.972 Z" fill="#000000" fill-rule="nonzero" fill-opacity="1" /><polyline clip-path="url(#clip620)" style="stroke:#000000; stroke-linecap:round; stroke-linejoin:round; stroke-width:4; stroke-opacity:1; fill:none" stroke-dasharray="16, 10" points="1970.02,242.472 2112.98,242.472 "/>
<path clip-path="url(#clip620)" d="M2136.81 240.49 Q2136.81 236.648 2140.48 233.814 Q2144.18 230.98 2149.31 230.559 L2149.31 227.771 Q2149.31 226.343 2148.42 225.968 Q2147.53 225.57 2144.09 225.57 L2143.18 225.57 L2143.18 224.071 Q2147.3 224.211 2151.33 224.211 Q2155.36 224.211 2159.48 224.071 L2159.48 225.57 L2158.61 225.57 Q2155.26 225.57 2154.3 225.944 Q2153.34 226.319 2153.34 227.771 L2153.34 230.559 Q2158.57 230.933 2162.34 233.768 Q2166.11 236.602 2166.11 240.49 Q2166.11 244.097 2162.5 247.025 Q2158.92 249.929 2153.34 250.374 L2153.34 253.138 Q2153.34 254.567 2154.23 254.965 Q2155.12 255.363 2158.57 255.363 L2159.48 255.363 L2159.48 256.839 Q2155.36 256.698 2151.33 256.698 Q2147.3 256.698 2143.18 256.839 L2143.18 255.363 L2144.09 255.363 Q2147.49 255.363 2148.4 254.965 Q2149.31 254.543 2149.31 253.138 L2149.31 250.374 Q2144.14 249.952 2140.46 247.095 Q2136.81 244.237 2136.81 240.49 M2141.58 240.443 Q2141.58 248.172 2149.31 249.203 L2149.31 231.706 Q2145.61 232.245 2143.6 234.423 Q2141.58 236.602 2141.58 240.443 M2153.34 249.25 Q2161.26 248.102 2161.26 240.49 Q2161.26 238.007 2160.51 236.25 Q2159.78 234.494 2158.4 233.58 Q2157.04 232.667 2155.92 232.292 Q2154.8 231.894 2153.34 231.66 L2153.34 249.25 Z" fill="#000000" fill-rule="nonzero" fill-opacity="1" /><path clip-path="url(#clip620)" d="M2180.26 214.481 Q2180.26 213.907 2181.03 213.53 L2185.7 211.317 L2180.96 209.103 Q2180.26 208.775 2180.26 208.201 Q2180.26 207.873 2180.52 207.578 Q2180.8 207.267 2181.16 207.267 Q2181.42 207.267 2181.9 207.628 L2186.06 210.644 Q2185.55 205.103 2185.57 204.939 Q2185.57 204.611 2185.81 204.365 Q2186.06 204.102 2186.47 204.102 Q2186.8 204.102 2187.06 204.348 Q2187.34 204.578 2187.34 204.939 L2186.85 210.644 L2190.57 207.89 Q2191.44 207.25 2191.75 207.267 Q2192.13 207.267 2192.39 207.562 Q2192.65 207.857 2192.65 208.201 Q2192.65 208.775 2191.88 209.136 L2187.21 211.349 L2191.95 213.579 Q2192.65 213.907 2192.65 214.481 Q2192.65 214.809 2192.37 215.12 Q2192.11 215.416 2191.75 215.416 Q2191.55 215.416 2191.21 215.219 Q2191.14 215.186 2190.44 214.661 Q2189.73 214.137 2188.63 213.333 Q2187.55 212.53 2186.85 212.022 Q2187.35 217.563 2187.34 217.727 Q2187.34 218.055 2187.09 218.318 Q2186.85 218.58 2186.44 218.58 Q2186.11 218.58 2185.83 218.35 Q2185.57 218.104 2185.57 217.727 L2186.06 212.022 L2181.37 215.416 Q2180.86 215.416 2180.58 215.17 Q2180.32 214.907 2180.29 214.76 Q2180.26 214.612 2180.26 214.481 Z" fill="#000000" fill-rule="nonzero" fill-opacity="1" /><path clip-path="url(#clip620)" d="M2233.45 237.468 Q2233.45 237.796 2233.24 238.569 L2228.65 256.885 Q2227.64 260.961 2224.36 263.819 Q2221.1 266.676 2217.4 266.676 Q2215.18 266.676 2213.75 265.482 Q2212.32 264.31 2212.32 262.507 Q2212.32 260.914 2213.16 260.141 Q2214.01 259.392 2215.01 259.392 Q2215.34 259.392 2215.69 259.485 Q2216.05 259.579 2216.42 259.977 Q2216.79 260.375 2216.79 261.055 Q2216.79 262.156 2215.83 263.022 Q2215.37 263.42 2214.92 263.514 Q2214.5 263.608 2213.77 263.608 Q2214.05 264.264 2214.57 264.709 Q2215.08 265.154 2215.67 265.318 Q2216.26 265.505 2216.63 265.552 Q2217.03 265.622 2217.4 265.622 Q2220.4 265.622 2222.7 262.601 Q2223.38 261.687 2223.87 260.774 Q2224.38 259.884 2224.76 258.783 Q2225.13 257.705 2225.3 257.12 Q2225.48 256.534 2225.81 255.199 Q2223.63 257.377 2220.96 257.377 Q2219.84 257.377 2218.83 257.073 Q2217.85 256.768 2216.98 256.136 Q2216.12 255.48 2215.6 254.332 Q2215.11 253.185 2215.11 251.662 Q2215.11 250.046 2215.74 247.844 Q2216.37 245.643 2217.9 241.591 Q2218.72 239.319 2218.72 238.218 Q2218.72 237.679 2218.6 237.351 Q2218.48 237 2218.25 236.883 Q2218.01 236.742 2217.87 236.719 Q2217.76 236.695 2217.52 236.695 Q2216.14 236.695 2214.85 238.101 Q2213.56 239.506 2212.67 242.645 Q2212.48 243.23 2212.37 243.371 Q2212.25 243.511 2211.9 243.511 Q2211.31 243.488 2211.31 243.019 Q2211.31 242.832 2211.52 242.106 Q2211.74 241.356 2212.23 240.256 Q2212.74 239.131 2213.45 238.124 Q2214.15 237.094 2215.25 236.367 Q2216.37 235.641 2217.66 235.641 Q2219.42 235.641 2220.5 236.789 Q2221.6 237.913 2221.6 239.576 Q2221.6 240.256 2221.41 240.865 Q2221.24 241.45 2220.64 243.019 Q2218.18 249.343 2218.18 252.435 Q2218.18 253.185 2218.29 253.817 Q2218.43 254.426 2218.74 255.035 Q2219.04 255.621 2219.65 255.972 Q2220.28 256.3 2221.15 256.3 Q2222.25 256.3 2223.28 255.785 Q2224.34 255.246 2224.99 254.52 Q2225.67 253.794 2226.07 253.185 Q2226.49 252.552 2226.59 252.224 L2228.74 243.605 L2229.7 239.764 Q2230.15 237.679 2230.36 237.164 Q2230.64 236.672 2231.13 236.414 Q2231.62 236.157 2232.04 236.157 Q2232.63 236.157 2233.03 236.508 Q2233.45 236.859 2233.45 237.468 Z" fill="#000000" fill-rule="nonzero" fill-opacity="1" /><path clip-path="url(#clip620)" d="M2238.34 269.123 Q2238.34 264.188 2239.59 261.499 Q2241.32 257.498 2245.42 257.498 Q2246.29 257.498 2247.19 257.744 Q2248.11 257.974 2249.26 258.876 Q2250.42 259.777 2251.13 261.253 Q2252.47 264.106 2252.47 269.123 Q2252.47 274.025 2251.23 276.698 Q2249.41 280.6 2245.39 280.6 Q2243.88 280.6 2242.34 279.829 Q2240.82 279.059 2239.85 277.206 Q2238.34 274.435 2238.34 269.123 M2241.13 268.713 Q2241.13 273.779 2241.49 275.796 Q2241.9 277.977 2243.01 278.928 Q2244.14 279.862 2245.39 279.862 Q2246.73 279.862 2247.85 278.862 Q2248.98 277.845 2249.33 275.665 Q2249.7 273.517 2249.69 268.713 Q2249.69 264.04 2249.36 262.171 Q2248.92 259.99 2247.73 259.121 Q2246.57 258.236 2245.39 258.236 Q2244.95 258.236 2244.47 258.367 Q2244.01 258.498 2243.34 258.876 Q2242.67 259.253 2242.14 260.187 Q2241.64 261.122 2241.39 262.532 Q2241.13 264.352 2241.13 268.713 Z" fill="#000000" fill-rule="nonzero" fill-opacity="1" /><polyline clip-path="url(#clip620)" style="stroke:#0000ff; stroke-linecap:round; stroke-linejoin:round; stroke-width:4; stroke-opacity:1; fill:none" points="1970.02,318.718 2112.98,318.718 "/>
<path clip-path="url(#clip620)" d="M2136.81 323.747 Q2136.81 319.906 2140.48 317.071 Q2144.18 314.237 2149.31 313.816 L2149.31 311.028 Q2149.31 309.6 2148.42 309.225 Q2147.53 308.827 2144.09 308.827 L2143.18 308.827 L2143.18 307.328 Q2147.3 307.468 2151.33 307.468 Q2155.36 307.468 2159.48 307.328 L2159.48 308.827 L2158.61 308.827 Q2155.26 308.827 2154.3 309.201 Q2153.34 309.576 2153.34 311.028 L2153.34 313.816 Q2158.57 314.19 2162.34 317.025 Q2166.11 319.859 2166.11 323.747 Q2166.11 327.354 2162.5 330.282 Q2158.92 333.186 2153.34 333.631 L2153.34 336.395 Q2153.34 337.824 2154.23 338.222 Q2155.12 338.62 2158.57 338.62 L2159.48 338.62 L2159.48 340.096 Q2155.36 339.955 2151.33 339.955 Q2147.3 339.955 2143.18 340.096 L2143.18 338.62 L2144.09 338.62 Q2147.49 338.62 2148.4 338.222 Q2149.31 337.8 2149.31 336.395 L2149.31 333.631 Q2144.14 333.209 2140.46 330.352 Q2136.81 327.494 2136.81 323.747 M2141.58 323.7 Q2141.58 331.429 2149.31 332.46 L2149.31 314.963 Q2145.61 315.502 2143.6 317.68 Q2141.58 319.859 2141.58 323.7 M2153.34 332.507 Q2161.26 331.359 2161.26 323.747 Q2161.26 321.264 2160.51 319.507 Q2159.78 317.751 2158.4 316.837 Q2157.04 315.924 2155.92 315.549 Q2154.8 315.151 2153.34 314.917 L2153.34 332.507 Z" fill="#000000" fill-rule="nonzero" fill-opacity="1" /><path clip-path="url(#clip620)" d="M2180.26 297.738 Q2180.26 297.164 2181.03 296.787 L2185.7 294.574 L2180.96 292.36 Q2180.26 292.032 2180.26 291.458 Q2180.26 291.131 2180.52 290.835 Q2180.8 290.524 2181.16 290.524 Q2181.42 290.524 2181.9 290.885 L2186.06 293.901 Q2185.55 288.36 2185.57 288.196 Q2185.57 287.868 2185.81 287.622 Q2186.06 287.36 2186.47 287.36 Q2186.8 287.36 2187.06 287.605 Q2187.34 287.835 2187.34 288.196 L2186.85 293.901 L2190.57 291.147 Q2191.44 290.507 2191.75 290.524 Q2192.13 290.524 2192.39 290.819 Q2192.65 291.114 2192.65 291.458 Q2192.65 292.032 2191.88 292.393 L2187.21 294.606 L2191.95 296.836 Q2192.65 297.164 2192.65 297.738 Q2192.65 298.066 2192.37 298.377 Q2192.11 298.673 2191.75 298.673 Q2191.55 298.673 2191.21 298.476 Q2191.14 298.443 2190.44 297.918 Q2189.73 297.394 2188.63 296.59 Q2187.55 295.787 2186.85 295.279 Q2187.35 300.82 2187.34 300.984 Q2187.34 301.312 2187.09 301.575 Q2186.85 301.837 2186.44 301.837 Q2186.11 301.837 2185.83 301.607 Q2185.57 301.361 2185.57 300.984 L2186.06 295.279 L2181.37 298.673 Q2180.86 298.673 2180.58 298.427 Q2180.32 298.164 2180.29 298.017 Q2180.26 297.869 2180.26 297.738 Z" fill="#000000" fill-rule="nonzero" fill-opacity="1" /><path clip-path="url(#clip620)" d="M2233.45 320.725 Q2233.45 321.053 2233.24 321.826 L2228.65 340.143 Q2227.64 344.218 2224.36 347.076 Q2221.1 349.933 2217.4 349.933 Q2215.18 349.933 2213.75 348.739 Q2212.32 347.567 2212.32 345.764 Q2212.32 344.171 2213.16 343.398 Q2214.01 342.649 2215.01 342.649 Q2215.34 342.649 2215.69 342.742 Q2216.05 342.836 2216.42 343.234 Q2216.79 343.632 2216.79 344.312 Q2216.79 345.413 2215.83 346.279 Q2215.37 346.677 2214.92 346.771 Q2214.5 346.865 2213.77 346.865 Q2214.05 347.521 2214.57 347.966 Q2215.08 348.411 2215.67 348.575 Q2216.26 348.762 2216.63 348.809 Q2217.03 348.879 2217.4 348.879 Q2220.4 348.879 2222.7 345.858 Q2223.38 344.944 2223.87 344.031 Q2224.38 343.141 2224.76 342.04 Q2225.13 340.962 2225.3 340.377 Q2225.48 339.791 2225.81 338.456 Q2223.63 340.634 2220.96 340.634 Q2219.84 340.634 2218.83 340.33 Q2217.85 340.025 2216.98 339.393 Q2216.12 338.737 2215.6 337.589 Q2215.11 336.442 2215.11 334.919 Q2215.11 333.303 2215.74 331.101 Q2216.37 328.9 2217.9 324.848 Q2218.72 322.576 2218.72 321.475 Q2218.72 320.936 2218.6 320.608 Q2218.48 320.257 2218.25 320.14 Q2218.01 319.999 2217.87 319.976 Q2217.76 319.952 2217.52 319.952 Q2216.14 319.952 2214.85 321.358 Q2213.56 322.763 2212.67 325.902 Q2212.48 326.487 2212.37 326.628 Q2212.25 326.768 2211.9 326.768 Q2211.31 326.745 2211.31 326.276 Q2211.31 326.089 2211.52 325.363 Q2211.74 324.613 2212.23 323.513 Q2212.74 322.388 2213.45 321.381 Q2214.15 320.351 2215.25 319.624 Q2216.37 318.898 2217.66 318.898 Q2219.42 318.898 2220.5 320.046 Q2221.6 321.17 2221.6 322.833 Q2221.6 323.513 2221.41 324.122 Q2221.24 324.707 2220.64 326.276 Q2218.18 332.6 2218.18 335.692 Q2218.18 336.442 2218.29 337.074 Q2218.43 337.683 2218.74 338.292 Q2219.04 338.878 2219.65 339.229 Q2220.28 339.557 2221.15 339.557 Q2222.25 339.557 2223.28 339.042 Q2224.34 338.503 2224.99 337.777 Q2225.67 337.051 2226.07 336.442 Q2226.49 335.809 2226.59 335.481 L2228.74 326.862 L2229.7 323.021 Q2230.15 320.936 2230.36 320.421 Q2230.64 319.929 2231.13 319.671 Q2231.62 319.414 2232.04 319.414 Q2232.63 319.414 2233.03 319.765 Q2233.45 320.116 2233.45 320.725 Z" fill="#000000" fill-rule="nonzero" fill-opacity="1" /></svg>
