<?xml version="1.0" encoding="utf-8"?>
<svg xmlns="http://www.w3.org/2000/svg" xmlns:xlink="http://www.w3.org/1999/xlink" width="400" height="250" viewBox="0 0 1600 1000">
<defs>
  <clipPath id="clip510">
    <rect x="0" y="0" width="1600" height="1000"/>
  </clipPath>
</defs>
<path clip-path="url(#clip510)" d="M0 1000 L1600 1000 L1600 0 L0 0  Z" fill="#ffffff" fill-rule="evenodd" fill-opacity="1"/>
<defs>
  <clipPath id="clip511">
    <rect x="320" y="0" width="1121" height="1000"/>
  </clipPath>
</defs>
<path clip-path="url(#clip510)" d="M200.355 834.31 L1552.76 834.31 L1552.76 47.2441 L200.355 47.2441  Z" fill="#ffffff" fill-rule="evenodd" fill-opacity="1"/>
<defs>
  <clipPath id="clip512">
    <rect x="200" y="47" width="1353" height="788"/>
  </clipPath>
</defs>
<polyline clip-path="url(#clip512)" style="stroke:#000000; stroke-linecap:round; stroke-linejoin:round; stroke-width:2; stroke-opacity:0.1; fill:none" points="200.355,834.31 200.355,47.2441 "/>
<polyline clip-path="url(#clip512)" style="stroke:#000000; stroke-linecap:round; stroke-linejoin:round; stroke-width:2; stroke-opacity:0.1; fill:none" points="470.835,834.31 470.835,47.2441 "/>
<polyline clip-path="url(#clip512)" style="stroke:#000000; stroke-linecap:round; stroke-linejoin:round; stroke-width:2; stroke-opacity:0.1; fill:none" points="741.315,834.31 741.315,47.2441 "/>
<polyline clip-path="url(#clip512)" style="stroke:#000000; stroke-linecap:round; stroke-linejoin:round; stroke-width:2; stroke-opacity:0.1; fill:none" points="1011.8,834.31 1011.8,47.2441 "/>
<polyline clip-path="url(#clip512)" style="stroke:#000000; stroke-linecap:round; stroke-linejoin:round; stroke-width:2; stroke-opacity:0.1; fill:none" points="1282.28,834.31 1282.28,47.2441 "/>
<polyline clip-path="url(#clip512)" style="stroke:#000000; stroke-linecap:round; stroke-linejoin:round; stroke-width:2; stroke-opacity:0.1; fill:none" points="1552.76,834.31 1552.76,47.2441 "/>
<polyline clip-path="url(#clip512)" style="stroke:#000000; stroke-linecap:round; stroke-linejoin:round; stroke-width:2; stroke-opacity:0.1; fill:none" points="200.355,834.31 1552.76,834.31 "/>
<polyline clip-path="url(#clip512)" style="stroke:#000000; stroke-linecap:round; stroke-linejoin:round; stroke-width:2; stroke-opacity:0.1; fill:none" points="200.355,703.132 1552.76,703.132 "/>
<polyline clip-path="url(#clip512)" style="stroke:#000000; stroke-linecap:round; stroke-linejoin:round; stroke-width:2; stroke-opacity:0.1; fill:none" points="200.355,571.955 1552.76,571.955 "/>
<polyline clip-path="url(#clip512)" style="stroke:#000000; stroke-linecap:round; stroke-linejoin:round; stroke-width:2; stroke-opacity:0.1; fill:none" points="200.355,440.777 1552.76,440.777 "/>
<polyline clip-path="url(#clip512)" style="stroke:#000000; stroke-linecap:round; stroke-linejoin:round; stroke-width:2; stroke-opacity:0.1; fill:none" points="200.355,309.599 1552.76,309.599 "/>
<polyline clip-path="url(#clip512)" style="stroke:#000000; stroke-linecap:round; stroke-linejoin:round; stroke-width:2; stroke-opacity:0.1; fill:none" points="200.355,178.422 1552.76,178.422 "/>
<polyline clip-path="url(#clip512)" style="stroke:#000000; stroke-linecap:round; stroke-linejoin:round; stroke-width:2; stroke-opacity:0.1; fill:none" points="200.355,47.2441 1552.76,47.2441 "/>
<polyline clip-path="url(#clip510)" style="stroke:#000000; stroke-linecap:round; stroke-linejoin:round; stroke-width:4; stroke-opacity:1; fill:none" points="200.355,834.31 1552.76,834.31 "/>
<polyline clip-path="url(#clip510)" style="stroke:#000000; stroke-linecap:round; stroke-linejoin:round; stroke-width:4; stroke-opacity:1; fill:none" points="200.355,834.31 200.355,815.412 "/>
<polyline clip-path="url(#clip510)" style="stroke:#000000; stroke-linecap:round; stroke-linejoin:round; stroke-width:4; stroke-opacity:1; fill:none" points="470.835,834.31 470.835,815.412 "/>
<polyline clip-path="url(#clip510)" style="stroke:#000000; stroke-linecap:round; stroke-linejoin:round; stroke-width:4; stroke-opacity:1; fill:none" points="741.315,834.31 741.315,815.412 "/>
<polyline clip-path="url(#clip510)" style="stroke:#000000; stroke-linecap:round; stroke-linejoin:round; stroke-width:4; stroke-opacity:1; fill:none" points="1011.8,834.31 1011.8,815.412 "/>
<polyline clip-path="url(#clip510)" style="stroke:#000000; stroke-linecap:round; stroke-linejoin:round; stroke-width:4; stroke-opacity:1; fill:none" points="1282.28,834.31 1282.28,815.412 "/>
<polyline clip-path="url(#clip510)" style="stroke:#000000; stroke-linecap:round; stroke-linejoin:round; stroke-width:4; stroke-opacity:1; fill:none" points="1552.76,834.31 1552.76,815.412 "/>
<path clip-path="url(#clip510)" d="M177.739 858.829 Q174.128 858.829 172.299 862.393 Q170.494 865.935 170.494 873.065 Q170.494 880.171 172.299 883.736 Q174.128 887.277 177.739 887.277 Q181.373 887.277 183.179 883.736 Q185.008 880.171 185.008 873.065 Q185.008 865.935 183.179 862.393 Q181.373 858.829 177.739 858.829 M177.739 855.125 Q183.549 855.125 186.605 859.731 Q189.683 864.315 189.683 873.065 Q189.683 881.791 186.605 886.398 Q183.549 890.981 177.739 890.981 Q171.929 890.981 168.85 886.398 Q165.795 881.791 165.795 873.065 Q165.795 864.315 168.85 859.731 Q171.929 855.125 177.739 855.125 Z" fill="#000000" fill-rule="nonzero" fill-opacity="1" /><path clip-path="url(#clip510)" d="M197.901 884.43 L202.785 884.43 L202.785 890.31 L197.901 890.31 L197.901 884.43 Z" fill="#000000" fill-rule="nonzero" fill-opacity="1" /><path clip-path="url(#clip510)" d="M222.97 858.829 Q219.359 858.829 217.53 862.393 Q215.725 865.935 215.725 873.065 Q215.725 880.171 217.53 883.736 Q219.359 887.277 222.97 887.277 Q226.605 887.277 228.41 883.736 Q230.239 880.171 230.239 873.065 Q230.239 865.935 228.41 862.393 Q226.605 858.829 222.97 858.829 M222.97 855.125 Q228.78 855.125 231.836 859.731 Q234.915 864.315 234.915 873.065 Q234.915 881.791 231.836 886.398 Q228.78 890.981 222.97 890.981 Q217.16 890.981 214.081 886.398 Q211.026 881.791 211.026 873.065 Q211.026 864.315 214.081 859.731 Q217.16 855.125 222.97 855.125 Z" fill="#000000" fill-rule="nonzero" fill-opacity="1" /><path clip-path="url(#clip510)" d="M449.018 858.829 Q445.407 858.829 443.578 862.393 Q441.773 865.935 441.773 873.065 Q441.773 880.171 443.578 883.736 Q445.407 887.277 449.018 887.277 Q452.652 887.277 454.458 883.736 Q456.286 880.171 456.286 873.065 Q456.286 865.935 454.458 862.393 Q452.652 858.829 449.018 858.829 M449.018 855.125 Q454.828 855.125 457.884 859.731 Q460.962 864.315 460.962 873.065 Q460.962 881.791 457.884 886.398 Q454.828 890.981 449.018 890.981 Q443.208 890.981 440.129 886.398 Q437.074 881.791 437.074 873.065 Q437.074 864.315 440.129 859.731 Q443.208 855.125 449.018 855.125 Z" fill="#000000" fill-rule="nonzero" fill-opacity="1" /><path clip-path="url(#clip510)" d="M469.18 884.43 L474.064 884.43 L474.064 890.31 L469.18 890.31 L469.18 884.43 Z" fill="#000000" fill-rule="nonzero" fill-opacity="1" /><path clip-path="url(#clip510)" d="M488.277 886.375 L504.596 886.375 L504.596 890.31 L482.652 890.31 L482.652 886.375 Q485.314 883.62 489.897 878.99 Q494.504 874.338 495.684 872.995 Q497.93 870.472 498.809 868.736 Q499.712 866.977 499.712 865.287 Q499.712 862.532 497.768 860.796 Q495.846 859.06 492.745 859.06 Q490.545 859.06 488.092 859.824 Q485.661 860.588 482.883 862.139 L482.883 857.417 Q485.708 856.282 488.161 855.704 Q490.615 855.125 492.652 855.125 Q498.022 855.125 501.217 857.81 Q504.411 860.495 504.411 864.986 Q504.411 867.116 503.601 869.037 Q502.814 870.935 500.707 873.528 Q500.129 874.199 497.027 877.416 Q493.925 880.611 488.277 886.375 Z" fill="#000000" fill-rule="nonzero" fill-opacity="1" /><path clip-path="url(#clip510)" d="M718.456 858.829 Q714.845 858.829 713.017 862.393 Q711.211 865.935 711.211 873.065 Q711.211 880.171 713.017 883.736 Q714.845 887.277 718.456 887.277 Q722.091 887.277 723.896 883.736 Q725.725 880.171 725.725 873.065 Q725.725 865.935 723.896 862.393 Q722.091 858.829 718.456 858.829 M718.456 855.125 Q724.267 855.125 727.322 859.731 Q730.401 864.315 730.401 873.065 Q730.401 881.791 727.322 886.398 Q724.267 890.981 718.456 890.981 Q712.646 890.981 709.568 886.398 Q706.512 881.791 706.512 873.065 Q706.512 864.315 709.568 859.731 Q712.646 855.125 718.456 855.125 Z" fill="#000000" fill-rule="nonzero" fill-opacity="1" /><path clip-path="url(#clip510)" d="M738.618 884.43 L743.503 884.43 L743.503 890.31 L738.618 890.31 L738.618 884.43 Z" fill="#000000" fill-rule="nonzero" fill-opacity="1" /><path clip-path="url(#clip510)" d="M766.535 859.824 L754.729 878.273 L766.535 878.273 L766.535 859.824 M765.308 855.75 L771.188 855.75 L771.188 878.273 L776.118 878.273 L776.118 882.162 L771.188 882.162 L771.188 890.31 L766.535 890.31 L766.535 882.162 L750.933 882.162 L750.933 877.648 L765.308 855.75 Z" fill="#000000" fill-rule="nonzero" fill-opacity="1" /><path clip-path="url(#clip510)" d="M989.099 858.829 Q985.488 858.829 983.659 862.393 Q981.853 865.935 981.853 873.065 Q981.853 880.171 983.659 883.736 Q985.488 887.277 989.099 887.277 Q992.733 887.277 994.539 883.736 Q996.367 880.171 996.367 873.065 Q996.367 865.935 994.539 862.393 Q992.733 858.829 989.099 858.829 M989.099 855.125 Q994.909 855.125 997.964 859.731 Q1001.04 864.315 1001.04 873.065 Q1001.04 881.791 997.964 886.398 Q994.909 890.981 989.099 890.981 Q983.289 890.981 980.21 886.398 Q977.154 881.791 977.154 873.065 Q977.154 864.315 980.21 859.731 Q983.289 855.125 989.099 855.125 Z" fill="#000000" fill-rule="nonzero" fill-opacity="1" /><path clip-path="url(#clip510)" d="M1009.26 884.43 L1014.14 884.43 L1014.14 890.31 L1009.26 890.31 L1009.26 884.43 Z" fill="#000000" fill-rule="nonzero" fill-opacity="1" /><path clip-path="url(#clip510)" d="M1034.91 871.166 Q1031.76 871.166 1029.91 873.319 Q1028.08 875.472 1028.08 879.222 Q1028.08 882.949 1029.91 885.125 Q1031.76 887.277 1034.91 887.277 Q1038.06 887.277 1039.89 885.125 Q1041.74 882.949 1041.74 879.222 Q1041.74 875.472 1039.89 873.319 Q1038.06 871.166 1034.91 871.166 M1044.19 856.514 L1044.19 860.773 Q1042.43 859.94 1040.63 859.5 Q1038.84 859.06 1037.08 859.06 Q1032.46 859.06 1030 862.185 Q1027.57 865.31 1027.22 871.629 Q1028.59 869.616 1030.65 868.551 Q1032.71 867.463 1035.19 867.463 Q1040.39 867.463 1043.4 870.634 Q1046.44 873.782 1046.44 879.222 Q1046.44 884.546 1043.29 887.764 Q1040.14 890.981 1034.91 890.981 Q1028.91 890.981 1025.74 886.398 Q1022.57 881.791 1022.57 873.065 Q1022.57 864.87 1026.46 860.009 Q1030.35 855.125 1036.9 855.125 Q1038.66 855.125 1040.44 855.472 Q1042.25 855.819 1044.19 856.514 Z" fill="#000000" fill-rule="nonzero" fill-opacity="1" /><path clip-path="url(#clip510)" d="M1259.71 858.829 Q1256.1 858.829 1254.27 862.393 Q1252.46 865.935 1252.46 873.065 Q1252.46 880.171 1254.27 883.736 Q1256.1 887.277 1259.71 887.277 Q1263.34 887.277 1265.15 883.736 Q1266.97 880.171 1266.97 873.065 Q1266.97 865.935 1265.15 862.393 Q1263.34 858.829 1259.71 858.829 M1259.71 855.125 Q1265.52 855.125 1268.57 859.731 Q1271.65 864.315 1271.65 873.065 Q1271.65 881.791 1268.57 886.398 Q1265.52 890.981 1259.71 890.981 Q1253.9 890.981 1250.82 886.398 Q1247.76 881.791 1247.76 873.065 Q1247.76 864.315 1250.82 859.731 Q1253.9 855.125 1259.71 855.125 Z" fill="#000000" fill-rule="nonzero" fill-opacity="1" /><path clip-path="url(#clip510)" d="M1279.87 884.43 L1284.75 884.43 L1284.75 890.31 L1279.87 890.31 L1279.87 884.43 Z" fill="#000000" fill-rule="nonzero" fill-opacity="1" /><path clip-path="url(#clip510)" d="M1304.94 873.898 Q1301.6 873.898 1299.68 875.68 Q1297.78 877.463 1297.78 880.588 Q1297.78 883.713 1299.68 885.495 Q1301.6 887.277 1304.94 887.277 Q1308.27 887.277 1310.19 885.495 Q1312.11 883.69 1312.11 880.588 Q1312.11 877.463 1310.19 875.68 Q1308.29 873.898 1304.94 873.898 M1300.26 871.907 Q1297.25 871.166 1295.56 869.106 Q1293.9 867.046 1293.9 864.083 Q1293.9 859.94 1296.84 857.532 Q1299.8 855.125 1304.94 855.125 Q1310.1 855.125 1313.04 857.532 Q1315.98 859.94 1315.98 864.083 Q1315.98 867.046 1314.29 869.106 Q1312.62 871.166 1309.64 871.907 Q1313.02 872.694 1314.89 874.986 Q1316.79 877.278 1316.79 880.588 Q1316.79 885.611 1313.71 888.296 Q1310.66 890.981 1304.94 890.981 Q1299.22 890.981 1296.14 888.296 Q1293.09 885.611 1293.09 880.588 Q1293.09 877.278 1294.98 874.986 Q1296.88 872.694 1300.26 871.907 M1298.55 864.523 Q1298.55 867.208 1300.22 868.713 Q1301.91 870.217 1304.94 870.217 Q1307.95 870.217 1309.64 868.713 Q1311.35 867.208 1311.35 864.523 Q1311.35 861.838 1309.64 860.333 Q1307.95 858.829 1304.94 858.829 Q1301.91 858.829 1300.22 860.333 Q1298.55 861.838 1298.55 864.523 Z" fill="#000000" fill-rule="nonzero" fill-opacity="1" /><path clip-path="url(#clip510)" d="M1519.91 886.375 L1527.55 886.375 L1527.55 860.009 L1519.24 861.676 L1519.24 857.417 L1527.5 855.75 L1532.18 855.75 L1532.18 886.375 L1539.82 886.375 L1539.82 890.31 L1519.91 890.31 L1519.91 886.375 Z" fill="#000000" fill-rule="nonzero" fill-opacity="1" /><path clip-path="url(#clip510)" d="M1549.26 884.43 L1554.14 884.43 L1554.14 890.31 L1549.26 890.31 L1549.26 884.43 Z" fill="#000000" fill-rule="nonzero" fill-opacity="1" /><path clip-path="url(#clip510)" d="M1574.33 858.829 Q1570.72 858.829 1568.89 862.393 Q1567.08 865.935 1567.08 873.065 Q1567.08 880.171 1568.89 883.736 Q1570.72 887.277 1574.33 887.277 Q1577.96 887.277 1579.77 883.736 Q1581.6 880.171 1581.6 873.065 Q1581.6 865.935 1579.77 862.393 Q1577.96 858.829 1574.33 858.829 M1574.33 855.125 Q1580.14 855.125 1583.2 859.731 Q1586.27 864.315 1586.27 873.065 Q1586.27 881.791 1583.2 886.398 Q1580.14 890.981 1574.33 890.981 Q1568.52 890.981 1565.44 886.398 Q1562.39 881.791 1562.39 873.065 Q1562.39 864.315 1565.44 859.731 Q1568.52 855.125 1574.33 855.125 Z" fill="#000000" fill-rule="nonzero" fill-opacity="1" /><path clip-path="url(#clip510)" d="M762.052 924.937 L762.052 942.793 L770.137 942.793 Q774.624 942.793 777.075 940.47 Q779.526 938.146 779.526 933.849 Q779.526 929.584 777.075 927.261 Q774.624 924.937 770.137 924.937 L762.052 924.937 M755.623 919.654 L770.137 919.654 Q778.126 919.654 782.2 923.282 Q786.305 926.879 786.305 933.849 Q786.305 940.883 782.2 944.48 Q778.126 948.077 770.137 948.077 L762.052 948.077 L762.052 967.174 L755.623 967.174 L755.623 919.654 Z" fill="#000000" fill-rule="nonzero" fill-opacity="1" /><path clip-path="url(#clip510)" d="M806.166 935.632 Q801.456 935.632 798.719 939.324 Q795.981 942.984 795.981 949.382 Q795.981 955.779 798.687 959.471 Q801.424 963.132 806.166 963.132 Q810.845 963.132 813.583 959.44 Q816.32 955.747 816.32 949.382 Q816.32 943.048 813.583 939.356 Q810.845 935.632 806.166 935.632 M806.166 930.667 Q813.805 930.667 818.166 935.632 Q822.526 940.597 822.526 949.382 Q822.526 958.135 818.166 963.132 Q813.805 968.097 806.166 968.097 Q798.496 968.097 794.135 963.132 Q789.807 958.135 789.807 949.382 Q789.807 940.597 794.135 935.632 Q798.496 930.667 806.166 930.667 Z" fill="#000000" fill-rule="nonzero" fill-opacity="1" /><path clip-path="url(#clip510)" d="M854.96 932.576 L854.96 938.114 Q852.477 936.841 849.803 936.205 Q847.13 935.568 844.265 935.568 Q839.905 935.568 837.709 936.905 Q835.544 938.242 835.544 940.915 Q835.544 942.952 837.104 944.13 Q838.663 945.276 843.374 946.326 L845.379 946.772 Q851.618 948.109 854.228 950.559 Q856.869 952.978 856.869 957.339 Q856.869 962.304 852.923 965.2 Q849.008 968.097 842.133 968.097 Q839.268 968.097 836.149 967.524 Q833.062 966.983 829.624 965.869 L829.624 959.821 Q832.871 961.508 836.022 962.368 Q839.173 963.195 842.26 963.195 Q846.398 963.195 848.626 961.795 Q850.854 960.363 850.854 957.784 Q850.854 955.397 849.23 954.124 Q847.639 952.851 842.196 951.673 L840.159 951.196 Q834.717 950.05 832.298 947.695 Q829.879 945.308 829.879 941.17 Q829.879 936.141 833.444 933.404 Q837.008 930.667 843.565 930.667 Q846.812 930.667 849.676 931.144 Q852.541 931.621 854.96 932.576 Z" fill="#000000" fill-rule="nonzero" fill-opacity="1" /><path clip-path="url(#clip510)" d="M866.195 931.526 L872.052 931.526 L872.052 967.174 L866.195 967.174 L866.195 931.526 M866.195 917.649 L872.052 917.649 L872.052 925.065 L866.195 925.065 L866.195 917.649 Z" fill="#000000" fill-rule="nonzero" fill-opacity="1" /><path clip-path="url(#clip510)" d="M890.098 921.404 L890.098 931.526 L902.161 931.526 L902.161 936.077 L890.098 936.077 L890.098 955.429 Q890.098 959.79 891.276 961.031 Q892.485 962.272 896.146 962.272 L902.161 962.272 L902.161 967.174 L896.146 967.174 Q889.366 967.174 886.788 964.659 Q884.21 962.113 884.21 955.429 L884.21 936.077 L879.913 936.077 L879.913 931.526 L884.21 931.526 L884.21 921.404 L890.098 921.404 Z" fill="#000000" fill-rule="nonzero" fill-opacity="1" /><path clip-path="url(#clip510)" d="M909.864 931.526 L915.72 931.526 L915.72 967.174 L909.864 967.174 L909.864 931.526 M909.864 917.649 L915.72 917.649 L915.72 925.065 L909.864 925.065 L909.864 917.649 Z" fill="#000000" fill-rule="nonzero" fill-opacity="1" /><path clip-path="url(#clip510)" d="M941.788 935.632 Q937.077 935.632 934.34 939.324 Q931.603 942.984 931.603 949.382 Q931.603 955.779 934.308 959.471 Q937.045 963.132 941.788 963.132 Q946.467 963.132 949.204 959.44 Q951.941 955.747 951.941 949.382 Q951.941 943.048 949.204 939.356 Q946.467 935.632 941.788 935.632 M941.788 930.667 Q949.427 930.667 953.787 935.632 Q958.148 940.597 958.148 949.382 Q958.148 958.135 953.787 963.132 Q949.427 968.097 941.788 968.097 Q934.117 968.097 929.757 963.132 Q925.428 958.135 925.428 949.382 Q925.428 940.597 929.757 935.632 Q934.117 930.667 941.788 930.667 Z" fill="#000000" fill-rule="nonzero" fill-opacity="1" /><path clip-path="url(#clip510)" d="M997.488 945.658 L997.488 967.174 L991.631 967.174 L991.631 945.849 Q991.631 940.788 989.658 938.274 Q987.685 935.759 983.738 935.759 Q978.995 935.759 976.258 938.783 Q973.521 941.807 973.521 947.026 L973.521 967.174 L967.633 967.174 L967.633 931.526 L973.521 931.526 L973.521 937.064 Q975.622 933.849 978.454 932.258 Q981.319 930.667 985.043 930.667 Q991.186 930.667 994.337 934.486 Q997.488 938.274 997.488 945.658 Z" fill="#000000" fill-rule="nonzero" fill-opacity="1" /><polyline clip-path="url(#clip510)" style="stroke:#000000; stroke-linecap:round; stroke-linejoin:round; stroke-width:4; stroke-opacity:1; fill:none" points="200.355,834.31 200.355,47.2441 "/>
<polyline clip-path="url(#clip510)" style="stroke:#000000; stroke-linecap:round; stroke-linejoin:round; stroke-width:4; stroke-opacity:1; fill:none" points="200.355,834.31 219.252,834.31 "/>
<polyline clip-path="url(#clip510)" style="stroke:#000000; stroke-linecap:round; stroke-linejoin:round; stroke-width:4; stroke-opacity:1; fill:none" points="200.355,703.132 219.252,703.132 "/>
<polyline clip-path="url(#clip510)" style="stroke:#000000; stroke-linecap:round; stroke-linejoin:round; stroke-width:4; stroke-opacity:1; fill:none" points="200.355,571.955 219.252,571.955 "/>
<polyline clip-path="url(#clip510)" style="stroke:#000000; stroke-linecap:round; stroke-linejoin:round; stroke-width:4; stroke-opacity:1; fill:none" points="200.355,440.777 219.252,440.777 "/>
<polyline clip-path="url(#clip510)" style="stroke:#000000; stroke-linecap:round; stroke-linejoin:round; stroke-width:4; stroke-opacity:1; fill:none" points="200.355,309.599 219.252,309.599 "/>
<polyline clip-path="url(#clip510)" style="stroke:#000000; stroke-linecap:round; stroke-linejoin:round; stroke-width:4; stroke-opacity:1; fill:none" points="200.355,178.422 219.252,178.422 "/>
<polyline clip-path="url(#clip510)" style="stroke:#000000; stroke-linecap:round; stroke-linejoin:round; stroke-width:4; stroke-opacity:1; fill:none" points="200.355,47.2441 219.252,47.2441 "/>
<path clip-path="url(#clip510)" d="M115.29 834.761 L144.966 834.761 L144.966 838.696 L115.29 838.696 L115.29 834.761 Z" fill="#000000" fill-rule="nonzero" fill-opacity="1" /><path clip-path="url(#clip510)" d="M169.225 832.956 Q172.582 833.673 174.457 835.942 Q176.355 838.21 176.355 841.544 Q176.355 846.659 172.836 849.46 Q169.318 852.261 162.836 852.261 Q160.66 852.261 158.345 851.821 Q156.054 851.405 153.6 850.548 L153.6 846.034 Q155.545 847.169 157.859 847.747 Q160.174 848.326 162.697 848.326 Q167.095 848.326 169.387 846.59 Q171.702 844.854 171.702 841.544 Q171.702 838.488 169.549 836.775 Q167.42 835.039 163.6 835.039 L159.572 835.039 L159.572 831.196 L163.785 831.196 Q167.234 831.196 169.063 829.831 Q170.892 828.442 170.892 825.849 Q170.892 823.187 168.994 821.775 Q167.119 820.34 163.6 820.34 Q161.679 820.34 159.48 820.757 Q157.281 821.173 154.642 822.053 L154.642 817.886 Q157.304 817.146 159.619 816.775 Q161.957 816.405 164.017 816.405 Q169.341 816.405 172.443 818.835 Q175.544 821.243 175.544 825.363 Q175.544 828.233 173.901 830.224 Q172.257 832.192 169.225 832.956 Z" fill="#000000" fill-rule="nonzero" fill-opacity="1" /><path clip-path="url(#clip510)" d="M116.239 703.584 L145.915 703.584 L145.915 707.519 L116.239 707.519 L116.239 703.584 Z" fill="#000000" fill-rule="nonzero" fill-opacity="1" /><path clip-path="url(#clip510)" d="M160.035 716.477 L176.355 716.477 L176.355 720.412 L154.41 720.412 L154.41 716.477 Q157.072 713.722 161.656 709.093 Q166.262 704.44 167.443 703.097 Q169.688 700.574 170.568 698.838 Q171.47 697.079 171.47 695.389 Q171.47 692.635 169.526 690.898 Q167.605 689.162 164.503 689.162 Q162.304 689.162 159.85 689.926 Q157.42 690.69 154.642 692.241 L154.642 687.519 Q157.466 686.385 159.92 685.806 Q162.373 685.227 164.41 685.227 Q169.781 685.227 172.975 687.912 Q176.169 690.598 176.169 695.088 Q176.169 697.218 175.359 699.139 Q174.572 701.037 172.466 703.63 Q171.887 704.301 168.785 707.519 Q165.683 710.713 160.035 716.477 Z" fill="#000000" fill-rule="nonzero" fill-opacity="1" /><path clip-path="url(#clip510)" d="M115.869 572.406 L145.545 572.406 L145.545 576.341 L115.869 576.341 L115.869 572.406 Z" fill="#000000" fill-rule="nonzero" fill-opacity="1" /><path clip-path="url(#clip510)" d="M156.447 585.299 L164.086 585.299 L164.086 558.934 L155.776 560.6 L155.776 556.341 L164.04 554.675 L168.716 554.675 L168.716 585.299 L176.355 585.299 L176.355 589.235 L156.447 589.235 L156.447 585.299 Z" fill="#000000" fill-rule="nonzero" fill-opacity="1" /><path clip-path="url(#clip510)" d="M164.41 426.576 Q160.799 426.576 158.97 430.14 Q157.165 433.682 157.165 440.812 Q157.165 447.918 158.97 451.483 Q160.799 455.025 164.41 455.025 Q168.045 455.025 169.85 451.483 Q171.679 447.918 171.679 440.812 Q171.679 433.682 169.85 430.14 Q168.045 426.576 164.41 426.576 M164.41 422.872 Q170.22 422.872 173.276 427.478 Q176.355 432.062 176.355 440.812 Q176.355 449.538 173.276 454.145 Q170.22 458.728 164.41 458.728 Q158.6 458.728 155.521 454.145 Q152.466 449.538 152.466 440.812 Q152.466 432.062 155.521 427.478 Q158.6 422.872 164.41 422.872 Z" fill="#000000" fill-rule="nonzero" fill-opacity="1" /><path clip-path="url(#clip510)" d="M156.447 322.944 L164.086 322.944 L164.086 296.579 L155.776 298.245 L155.776 293.986 L164.04 292.319 L168.716 292.319 L168.716 322.944 L176.355 322.944 L176.355 326.879 L156.447 326.879 L156.447 322.944 Z" fill="#000000" fill-rule="nonzero" fill-opacity="1" /><path clip-path="url(#clip510)" d="M160.035 191.767 L176.355 191.767 L176.355 195.702 L154.41 195.702 L154.41 191.767 Q157.072 189.012 161.656 184.382 Q166.262 179.73 167.443 178.387 Q169.688 175.864 170.568 174.128 Q171.47 172.369 171.47 170.679 Q171.47 167.924 169.526 166.188 Q167.605 164.452 164.503 164.452 Q162.304 164.452 159.85 165.216 Q157.42 165.98 154.642 167.531 L154.642 162.808 Q157.466 161.674 159.92 161.095 Q162.373 160.517 164.41 160.517 Q169.781 160.517 172.975 163.202 Q176.169 165.887 176.169 170.378 Q176.169 172.507 175.359 174.429 Q174.572 176.327 172.466 178.919 Q171.887 179.591 168.785 182.808 Q165.683 186.003 160.035 191.767 Z" fill="#000000" fill-rule="nonzero" fill-opacity="1" /><path clip-path="url(#clip510)" d="M169.225 45.8899 Q172.582 46.6075 174.457 48.876 Q176.355 51.1445 176.355 54.4779 Q176.355 59.5936 172.836 62.3945 Q169.318 65.1954 162.836 65.1954 Q160.66 65.1954 158.345 64.7556 Q156.054 64.3389 153.6 63.4824 L153.6 58.9686 Q155.545 60.1028 157.859 60.6815 Q160.174 61.2602 162.697 61.2602 Q167.095 61.2602 169.387 59.5241 Q171.702 57.788 171.702 54.4779 Q171.702 51.4223 169.549 49.7094 Q167.42 47.9733 163.6 47.9733 L159.572 47.9733 L159.572 44.1307 L163.785 44.1307 Q167.234 44.1307 169.063 42.765 Q170.892 41.3761 170.892 38.7835 Q170.892 36.1215 168.994 34.7094 Q167.119 33.2743 163.6 33.2743 Q161.679 33.2743 159.48 33.6909 Q157.281 34.1076 154.642 34.9872 L154.642 30.8206 Q157.304 30.0798 159.619 29.7095 Q161.957 29.3391 164.017 29.3391 Q169.341 29.3391 172.443 31.7696 Q175.544 34.177 175.544 38.2974 Q175.544 41.1677 173.901 43.1585 Q172.257 45.1261 169.225 45.8899 Z" fill="#000000" fill-rule="nonzero" fill-opacity="1" /><path clip-path="url(#clip510)" d="M35.848 584.037 L59.4966 592.758 L59.4966 575.284 L35.848 584.037 M29.5142 587.666 L29.5142 580.377 L77.0342 562.266 L77.0342 568.95 L64.8438 573.279 L64.8438 594.7 L77.0342 599.028 L77.0342 605.808 L29.5142 587.666 Z" fill="#000000" fill-rule="nonzero" fill-opacity="1" /><path clip-path="url(#clip510)" d="M48.2293 527.828 Q44.2826 525.632 42.4047 522.576 Q40.5268 519.521 40.5268 515.383 Q40.5268 509.813 44.4417 506.789 Q48.3248 503.766 55.5181 503.766 L77.0342 503.766 L77.0342 509.654 L55.709 509.654 Q50.5846 509.654 48.102 511.468 Q45.6194 513.282 45.6194 517.006 Q45.6194 521.558 48.6431 524.2 Q51.6668 526.841 56.8867 526.841 L77.0342 526.841 L77.0342 532.73 L55.709 532.73 Q50.5528 532.73 48.102 534.544 Q45.6194 536.358 45.6194 540.146 Q45.6194 544.633 48.6749 547.275 Q51.6986 549.917 56.8867 549.917 L77.0342 549.917 L77.0342 555.805 L41.3862 555.805 L41.3862 549.917 L46.9244 549.917 Q43.646 547.912 42.0864 545.111 Q40.5268 542.31 40.5268 538.459 Q40.5268 534.576 42.5002 531.87 Q44.4736 529.133 48.2293 527.828 Z" fill="#000000" fill-rule="nonzero" fill-opacity="1" /><path clip-path="url(#clip510)" d="M71.687 486.419 L90.5931 486.419 L90.5931 492.307 L41.3862 492.307 L41.3862 486.419 L46.7971 486.419 Q43.6142 484.573 42.0864 481.772 Q40.5268 478.939 40.5268 475.024 Q40.5268 468.531 45.6831 464.489 Q50.8393 460.415 59.242 460.415 Q67.6447 460.415 72.801 464.489 Q77.9572 468.531 77.9572 475.024 Q77.9572 478.939 76.4294 481.772 Q74.8698 484.573 71.687 486.419 M59.242 466.494 Q52.7808 466.494 49.1205 469.168 Q45.4284 471.81 45.4284 476.457 Q45.4284 481.104 49.1205 483.777 Q52.7808 486.419 59.242 486.419 Q65.7032 486.419 69.3953 483.777 Q73.0556 481.104 73.0556 476.457 Q73.0556 471.81 69.3953 469.168 Q65.7032 466.494 59.242 466.494 Z" fill="#000000" fill-rule="nonzero" fill-opacity="1" /><path clip-path="url(#clip510)" d="M27.509 450.707 L27.509 444.851 L77.0342 444.851 L77.0342 450.707 L27.509 450.707 Z" fill="#000000" fill-rule="nonzero" fill-opacity="1" /><path clip-path="url(#clip510)" d="M41.3862 432.597 L41.3862 426.741 L77.0342 426.741 L77.0342 432.597 L41.3862 432.597 M27.509 432.597 L27.509 426.741 L34.925 426.741 L34.925 432.597 L27.509 432.597 Z" fill="#000000" fill-rule="nonzero" fill-opacity="1" /><path clip-path="url(#clip510)" d="M31.2647 408.694 L41.3862 408.694 L41.3862 396.631 L45.9377 396.631 L45.9377 408.694 L65.2894 408.694 Q69.6499 408.694 70.8913 407.516 Q72.1326 406.307 72.1326 402.646 L72.1326 396.631 L77.0342 396.631 L77.0342 402.646 Q77.0342 409.426 74.5197 412.004 Q71.9734 414.582 65.2894 414.582 L45.9377 414.582 L45.9377 418.879 L41.3862 418.879 L41.3862 414.582 L31.2647 414.582 L31.2647 408.694 Z" fill="#000000" fill-rule="nonzero" fill-opacity="1" /><path clip-path="url(#clip510)" d="M62.9659 389.533 L41.3862 389.533 L41.3862 383.677 L62.7431 383.677 Q67.8039 383.677 70.3502 381.703 Q72.8646 379.73 72.8646 375.783 Q72.8646 371.041 69.8409 368.303 Q66.8172 365.534 61.5973 365.534 L41.3862 365.534 L41.3862 359.678 L77.0342 359.678 L77.0342 365.534 L71.5596 365.534 Q74.8062 367.667 76.3976 370.5 Q77.9572 373.3 77.9572 377.024 Q77.9572 383.167 74.1378 386.35 Q70.3183 389.533 62.9659 389.533 M40.5268 374.796 L40.5268 374.796 Z" fill="#000000" fill-rule="nonzero" fill-opacity="1" /><path clip-path="url(#clip510)" d="M46.7971 324.157 L27.509 324.157 L27.509 318.301 L77.0342 318.301 L77.0342 324.157 L71.687 324.157 Q74.8698 326.003 76.4294 328.836 Q77.9572 331.637 77.9572 335.584 Q77.9572 342.045 72.801 346.119 Q67.6447 350.161 59.242 350.161 Q50.8393 350.161 45.6831 346.119 Q40.5268 342.045 40.5268 335.584 Q40.5268 331.637 42.0864 328.836 Q43.6142 326.003 46.7971 324.157 M59.242 344.114 Q65.7032 344.114 69.3953 341.472 Q73.0556 338.798 73.0556 334.151 Q73.0556 329.504 69.3953 326.831 Q65.7032 324.157 59.242 324.157 Q52.7808 324.157 49.1205 326.831 Q45.4284 329.504 45.4284 334.151 Q45.4284 338.798 49.1205 341.472 Q52.7808 344.114 59.242 344.114 Z" fill="#000000" fill-rule="nonzero" fill-opacity="1" /><path clip-path="url(#clip510)" d="M57.7461 275.746 L60.6106 275.746 L60.6106 302.673 Q66.6581 302.291 69.8409 299.045 Q72.9919 295.766 72.9919 289.942 Q72.9919 286.568 72.1644 283.417 Q71.3369 280.234 69.6818 277.115 L75.2199 277.115 Q76.5567 280.266 77.257 283.576 Q77.9572 286.886 77.9572 290.292 Q77.9572 298.822 72.9919 303.819 Q68.0267 308.784 59.5603 308.784 Q50.8074 308.784 45.6831 304.073 Q40.5268 299.331 40.5268 291.31 Q40.5268 284.117 45.1738 279.947 Q49.7889 275.746 57.7461 275.746 M56.0273 281.602 Q51.2212 281.666 48.3566 284.308 Q45.4921 286.918 45.4921 291.247 Q45.4921 296.148 48.2612 299.108 Q51.0302 302.036 56.0592 302.482 L56.0273 281.602 Z" fill="#000000" fill-rule="nonzero" fill-opacity="1" /><polyline clip-path="url(#clip512)" style="stroke:#000000; stroke-linecap:round; stroke-linejoin:round; stroke-width:4; stroke-opacity:1; fill:none" points="-1152.05,440.777 2905.16,440.777 "/>
<path clip-path="url(#clip512)" d="M721.315 224.011 L721.315 264.011 L761.315 264.011 L761.315 224.011 L721.315 224.011 Z" fill="#ffd700" fill-rule="evenodd" fill-opacity="1" stroke="none"/>
<path clip-path="url(#clip512)" d="M1127.04 551.955 L1127.04 591.955 L1167.04 591.955 L1167.04 551.955 L1127.04 551.955 Z" fill="#ffd700" fill-rule="evenodd" fill-opacity="1" stroke="none"/>
<polyline clip-path="url(#clip512)" style="stroke:#0000ff; stroke-linecap:round; stroke-linejoin:round; stroke-width:4; stroke-opacity:1; fill:none" points="200.355,443.722 201.707,443.823 203.059,443.914 204.412,443.994 205.764,444.064 207.117,444.124 208.469,444.174 209.821,444.213 211.174,444.242 212.526,444.261 213.879,444.27 215.231,444.269 216.583,444.258 217.936,444.237 219.288,444.207 220.641,444.168 221.993,444.119 223.345,444.061 224.698,443.995 226.05,443.92 227.403,443.838 228.755,443.747 230.107,443.649 231.46,443.544 232.812,443.432 234.165,443.313 235.517,443.189 236.869,443.059 238.222,442.923 239.574,442.783 240.927,442.638 242.279,442.49 243.631,442.337 244.984,442.182 246.336,442.024 247.689,441.864 249.041,441.703 250.393,441.54 251.746,441.376 253.098,441.213 254.451,441.049 255.803,440.886 257.155,440.725 258.508,440.565 259.86,440.407 261.213,440.252 262.565,440.1 263.918,439.952 265.27,439.807 266.622,439.668 267.975,439.533 269.327,439.403 270.68,439.279 272.032,439.162 273.384,439.051 274.737,438.947 276.089,438.85 277.442,438.761 278.794,438.68 280.146,438.607 281.499,438.543 282.851,438.488 284.204,438.442 285.556,438.405 286.908,438.378 288.261,438.361 289.613,438.354 290.966,438.357 292.318,438.371 293.67,438.395 295.023,438.429 296.375,438.474 297.728,438.53 299.08,438.597 300.432,438.674 301.785,438.762 303.137,438.861 304.49,438.97 305.842,439.09 307.194,439.22 308.547,439.36 309.899,439.51 311.252,439.67 312.604,439.84 313.956,440.019 315.309,440.208 316.661,440.405 318.014,440.61 319.366,440.824 320.718,441.046 322.071,441.275 323.423,441.512 324.776,441.755 326.128,442.004 327.48,442.259 328.833,442.519 330.185,442.785 331.538,443.054 332.89,443.328 334.242,443.604 335.595,443.884 336.947,444.165 338.3,444.449 339.652,444.733 341.004,445.018 342.357,445.302 343.709,445.586 345.062,445.869 346.414,446.149 347.766,446.427 349.119,446.701 350.471,446.972 351.824,447.238 353.176,447.499 354.528,447.755 355.881,448.004 357.233,448.246 358.586,448.48 359.938,448.706 361.29,448.923 362.643,449.131 363.995,449.329 365.348,449.516 366.7,449.692 368.052,449.857 369.405,450.009 370.757,450.149 372.11,450.275 373.462,450.388 374.814,450.486 376.167,450.57 377.519,450.639 378.872,450.692 380.224,450.73 381.576,450.751 382.929,450.756 384.281,450.744 385.634,450.716 386.986,450.669 388.338,450.606 389.691,450.525 391.043,450.426 392.396,450.309 393.748,450.173 395.1,450.02 396.453,449.849 397.805,449.659 399.158,449.452 400.51,449.226 401.862,448.983 403.215,448.721 404.567,448.442 405.92,448.146 407.272,447.832 408.624,447.501 409.977,447.154 411.329,446.79 412.682,446.411 414.034,446.016 415.386,445.606 416.739,445.181 418.091,444.742 419.444,444.29 420.796,443.824 422.148,443.346 423.501,442.856 424.853,442.356 426.206,441.844 427.558,441.323 428.91,440.793 430.263,440.255 431.615,439.709 432.968,439.156 434.32,438.598 435.672,438.035 437.025,437.468 438.377,436.897 439.73,436.324 441.082,435.75 442.434,435.175 443.787,434.601 445.139,434.029 446.492,433.459 447.844,432.893 449.196,432.331 450.549,431.774 451.901,431.224 453.254,430.682 454.606,430.148 455.958,429.624 457.311,429.11 458.663,428.608 460.016,428.118 461.368,427.642 462.72,427.181 464.073,426.735 465.425,426.306 466.778,425.894 468.13,425.501 469.482,425.127 470.835,424.773 472.187,424.441 473.54,424.13 474.892,423.842 476.245,423.578 477.597,423.339 478.949,423.124 480.302,422.936 481.654,422.773 483.007,422.639 484.359,422.532 485.711,422.453 487.064,422.404 488.416,422.384 489.769,422.394 491.121,422.434 492.473,422.505 493.826,422.608 495.178,422.741 496.531,422.906 497.883,423.104 499.235,423.333 500.588,423.594 501.94,423.887 503.293,424.213 504.645,424.57 505.997,424.959 507.35,425.381 508.702,425.833 510.055,426.318 511.407,426.833 512.759,427.378 514.112,427.954 515.464,428.56 516.817,429.194 518.169,429.858 519.521,430.549 520.874,431.267 522.226,432.012 523.579,432.782 524.931,433.577 526.283,434.396 527.636,435.237 528.988,436.101 530.341,436.985 531.693,437.888 533.045,438.81 534.398,439.75 535.75,440.705 537.103,441.674 538.455,442.657 539.807,443.652 541.16,444.657 542.512,445.671 543.865,446.692 545.217,447.719 546.569,448.75 547.922,449.784 549.274,450.818 550.627,451.852 551.979,452.883 553.331,453.909 554.684,454.93 556.036,455.942 557.389,456.945 558.741,457.936 560.093,458.914 561.446,459.876 562.798,460.821 564.151,461.747 565.503,462.652 566.855,463.534 568.208,464.391 569.56,465.222 570.913,466.024 572.265,466.795 573.617,467.534 574.97,468.239 576.322,468.908 577.675,469.538 579.027,470.129 580.379,470.679 581.732,471.185 583.084,471.645 584.437,472.059 585.789,472.425 587.141,472.74 588.494,473.004 589.846,473.214 591.199,473.369 592.551,473.468 593.903,473.509 595.256,473.49 596.608,473.412 597.961,473.271 599.313,473.067 600.665,472.799 602.018,472.465 603.37,472.065 604.723,471.598 606.075,471.062 607.427,470.456 608.78,469.781 610.132,469.035 611.485,468.218 612.837,467.329 614.189,466.367 615.542,465.333 616.894,464.225 618.247,463.044 619.599,461.789 620.951,460.461 622.304,459.058 623.656,457.583 625.009,456.033 626.361,454.411 627.713,452.715 629.066,450.948 630.418,449.108 631.771,447.197 633.123,445.215 634.475,443.163 635.828,441.042 637.18,438.854 638.533,436.598 639.885,434.276 641.237,431.889 642.59,429.439 643.942,426.927 645.295,424.354 646.647,421.722 647.999,419.033 649.352,416.287 650.704,413.488 652.057,410.637 653.409,407.736 654.761,404.786 656.114,401.79 657.466,398.75 658.819,395.669 660.171,392.548 661.523,389.39 662.876,386.198 664.228,382.973 665.581,379.719 666.933,376.437 668.285,373.131 669.638,369.804 670.99,366.457 672.343,363.095 673.695,359.719 675.047,356.332 676.4,352.938 677.752,349.54 679.105,346.14 680.457,342.741 681.809,339.347 683.162,335.96 684.514,332.584 685.867,329.222 687.219,325.876 688.572,322.55 689.924,319.247 691.276,315.97 692.629,312.722 693.981,309.506 695.334,306.326 696.686,303.184 698.038,300.084 699.391,297.028 700.743,294.02 702.096,291.062 703.448,288.158 704.8,285.31 706.153,282.521 707.505,279.795 708.858,277.134 710.21,274.54 711.562,272.017 712.915,269.566 714.267,267.192 715.62,264.895 716.972,262.68 718.324,260.547 719.677,258.5 721.029,256.54 722.382,254.67 723.734,252.892 725.086,251.209 726.439,249.621 727.791,248.131 729.144,246.74 730.496,245.451 731.848,244.264 733.201,243.182 734.553,242.206 735.906,241.336 737.258,240.575 738.61,239.923 739.963,239.381 741.315,238.951 742.668,238.632 744.02,238.426 745.372,238.333 746.725,238.354 748.077,238.489 749.43,238.738 750.782,239.101 752.134,239.579 753.487,240.171 754.839,240.876 756.192,241.696 757.544,242.628 758.896,243.673 760.249,244.83 761.601,246.099 762.954,247.477 764.306,248.964 765.658,250.56 767.011,252.262 768.363,254.07 769.716,255.982 771.068,257.996 772.42,260.112 773.773,262.326 775.125,264.637 776.478,267.043 777.83,269.543 779.182,272.133 780.535,274.813 781.887,277.578 783.24,280.427 784.592,283.358 785.944,286.368 787.297,289.453 788.649,292.612 790.002,295.841 791.354,299.138 792.706,302.499 794.059,305.922 795.411,309.403 796.764,312.939 798.116,316.527 799.468,320.164 800.821,323.846 802.173,327.571 803.526,331.333 804.878,335.131 806.23,338.961 807.583,342.818 808.935,346.7 810.288,350.603 811.64,354.523 812.992,358.457 814.345,362.401 815.697,366.352 817.05,370.305 818.402,374.258 819.754,378.206 821.107,382.147 822.459,386.075 823.812,389.989 825.164,393.884 826.516,397.756 827.869,401.603 829.221,405.421 830.574,409.205 831.926,412.954 833.278,416.663 834.631,420.33 835.983,423.951 837.336,427.522 838.688,431.041 840.04,434.505 841.393,437.91 842.745,441.254 844.098,444.533 845.45,447.746 846.802,450.889 848.155,453.96 849.507,456.955 850.86,459.874 852.212,462.712 853.564,465.469 854.917,468.142 856.269,470.728 857.622,473.226 858.974,475.634 860.326,477.95 861.679,480.172 863.031,482.299 864.384,484.33 865.736,486.263 867.088,488.097 868.441,489.83 869.793,491.462 871.146,492.993 872.498,494.42 873.85,495.744 875.203,496.963 876.555,498.078 877.908,499.089 879.26,499.994 880.612,500.795 881.965,501.491 883.317,502.082 884.67,502.568 886.022,502.951 887.374,503.23 888.727,503.406 890.079,503.48 891.432,503.454 892.784,503.327 894.136,503.101 895.489,502.777 896.841,502.357 898.194,501.842 899.546,501.233 900.898,500.533 902.251,499.742 903.603,498.864 904.956,497.899 906.308,496.85 907.661,495.719 909.013,494.508 910.365,493.22 911.718,491.856 913.07,490.42 914.423,488.914 915.775,487.34 917.127,485.702 918.48,484.002 919.832,482.242 921.185,480.426 922.537,478.557 923.889,476.638 925.242,474.671 926.594,472.661 927.947,470.609 929.299,468.52 930.651,466.396 932.004,464.241 933.356,462.058 934.709,459.85 936.061,457.621 937.413,455.374 938.766,453.112 940.118,450.839 941.471,448.557 942.823,446.272 944.175,443.985 945.528,441.701 946.88,439.421 948.233,437.151 949.585,434.893 950.937,432.651 952.29,430.427 953.642,428.225 954.995,426.048 956.347,423.9 957.699,421.783 959.052,419.7 960.404,417.655 961.757,415.651 963.109,413.689 964.461,411.774 965.814,409.908 967.166,408.094 968.519,406.334 969.871,404.632 971.223,402.988 972.576,401.407 973.928,399.889 975.281,398.439 976.633,397.057 977.985,395.745 979.338,394.507 980.69,393.343 982.043,392.256 983.395,391.247 984.747,390.317 986.1,389.47 987.452,388.704 988.805,388.023 990.157,387.427 991.509,386.918 992.862,386.496 994.214,386.162 995.567,385.917 996.919,385.762 998.271,385.697 999.624,385.722 1000.98,385.839 1002.33,386.047 1003.68,386.347 1005.03,386.738 1006.39,387.22 1007.74,387.793 1009.09,388.457 1010.44,389.211 1011.8,390.055 1013.15,390.989 1014.5,392.01 1015.85,393.12 1017.21,394.315 1018.56,395.596 1019.91,396.962 1021.26,398.411 1022.61,399.941 1023.97,401.552 1025.32,403.241 1026.67,405.008 1028.02,406.85 1029.38,408.765 1030.73,410.752 1032.08,412.809 1033.43,414.933 1034.79,417.123 1036.14,419.376 1037.49,421.69 1038.84,424.063 1040.2,426.492 1041.55,428.975 1042.9,431.509 1044.25,434.091 1045.61,436.72 1046.96,439.392 1048.31,442.104 1049.66,444.854 1051.02,447.639 1052.37,450.457 1053.72,453.303 1055.07,456.176 1056.42,459.072 1057.78,461.988 1059.13,464.922 1060.48,467.87 1061.83,470.829 1063.19,473.797 1064.54,476.77 1065.89,479.746 1067.24,482.72 1068.6,485.691 1069.95,488.656 1071.3,491.61 1072.65,494.552 1074.01,497.479 1075.36,500.386 1076.71,503.273 1078.06,506.134 1079.42,508.969 1080.77,511.774 1082.12,514.546 1083.47,517.283 1084.83,519.981 1086.18,522.639 1087.53,525.253 1088.88,527.822 1090.23,530.343 1091.59,532.812 1092.94,535.229 1094.29,537.591 1095.64,539.895 1097,542.139 1098.35,544.322 1099.7,546.441 1101.05,548.495 1102.41,550.481 1103.76,552.399 1105.11,554.245 1106.46,556.019 1107.82,557.719 1109.17,559.344 1110.52,560.893 1111.87,562.363 1113.23,563.755 1114.58,565.066 1115.93,566.296 1117.28,567.445 1118.64,568.511 1119.99,569.493 1121.34,570.392 1122.69,571.205 1124.04,571.934 1125.4,572.578 1126.75,573.137 1128.1,573.609 1129.45,573.997 1130.81,574.298 1132.16,574.514 1133.51,574.645 1134.86,574.691 1136.22,574.653 1137.57,574.531 1138.92,574.325 1140.27,574.036 1141.63,573.666 1142.98,573.214 1144.33,572.683 1145.68,572.072 1147.04,571.383 1148.39,570.617 1149.74,569.775 1151.09,568.859 1152.45,567.87 1153.8,566.81 1155.15,565.679 1156.5,564.48 1157.85,563.214 1159.21,561.882 1160.56,560.488 1161.91,559.031 1163.26,557.515 1164.62,555.942 1165.97,554.312 1167.32,552.628 1168.67,550.893 1170.03,549.108 1171.38,547.275 1172.73,545.397 1174.08,543.475 1175.44,541.513 1176.79,539.512 1178.14,537.474 1179.49,535.401 1180.85,533.297 1182.2,531.163 1183.55,529.002 1184.9,526.816 1186.26,524.607 1187.61,522.378 1188.96,520.13 1190.31,517.867 1191.66,515.591 1193.02,513.304 1194.37,511.008 1195.72,508.705 1197.07,506.398 1198.43,504.09 1199.78,501.781 1201.13,499.475 1202.48,497.174 1203.84,494.88 1205.19,492.595 1206.54,490.321 1207.89,488.059 1209.25,485.813 1210.6,483.585 1211.95,481.375 1213.3,479.186 1214.66,477.02 1216.01,474.878 1217.36,472.763 1218.71,470.675 1220.07,468.618 1221.42,466.591 1222.77,464.597 1224.12,462.637 1225.47,460.713 1226.83,458.826 1228.18,456.977 1229.53,455.167 1230.88,453.399 1232.24,451.671 1233.59,449.987 1234.94,448.346 1236.29,446.75 1237.65,445.199 1239,443.695 1240.35,442.237 1241.7,440.828 1243.06,439.466 1244.41,438.153 1245.76,436.889 1247.11,435.674 1248.47,434.51 1249.82,433.395 1251.17,432.33 1252.52,431.316 1253.88,430.353 1255.23,429.439 1256.58,428.576 1257.93,427.763 1259.28,427 1260.64,426.287 1261.99,425.623 1263.34,425.008 1264.69,424.441 1266.05,423.923 1267.4,423.452 1268.75,423.028 1270.1,422.65 1271.46,422.318 1272.81,422.031 1274.16,421.788 1275.51,421.588 1276.87,421.43 1278.22,421.314 1279.57,421.239 1280.92,421.202 1282.28,421.205 1283.63,421.244 1284.98,421.32 1286.33,421.431 1287.69,421.576 1289.04,421.754 1290.39,421.964 1291.74,422.203 1293.09,422.472 1294.45,422.769 1295.8,423.093 1297.15,423.441 1298.5,423.814 1299.86,424.209 1301.21,424.626 1302.56,425.063 1303.91,425.518 1305.27,425.991 1306.62,426.479 1307.97,426.982 1309.32,427.499 1310.68,428.028 1312.03,428.567 1313.38,429.115 1314.73,429.672 1316.09,430.235 1317.44,430.804 1318.79,431.377 1320.14,431.953 1321.5,432.531 1322.85,433.11 1324.2,433.688 1325.55,434.264 1326.9,434.837 1328.26,435.407 1329.61,435.971 1330.96,436.529 1332.31,437.081 1333.67,437.624 1335.02,438.158 1336.37,438.682 1337.72,439.196 1339.08,439.697 1340.43,440.187 1341.78,440.663 1343.13,441.125 1344.49,441.573 1345.84,442.006 1347.19,442.422 1348.54,442.822 1349.9,443.205 1351.25,443.571 1352.6,443.919 1353.95,444.248 1355.31,444.559 1356.66,444.851 1358.01,445.123 1359.36,445.376 1360.71,445.609 1362.07,445.822 1363.42,446.015 1364.77,446.188 1366.12,446.34 1367.48,446.473 1368.83,446.585 1370.18,446.678 1371.53,446.75 1372.89,446.802 1374.24,446.835 1375.59,446.848 1376.94,446.842 1378.3,446.817 1379.65,446.774 1381,446.712 1382.35,446.633 1383.71,446.535 1385.06,446.421 1386.41,446.29 1387.76,446.144 1389.12,445.981 1390.47,445.803 1391.82,445.611 1393.17,445.405 1394.52,445.186 1395.88,444.954 1397.23,444.709 1398.58,444.454 1399.93,444.187 1401.29,443.911 1402.64,443.625 1403.99,443.33 1405.34,443.027 1406.7,442.717 1408.05,442.4 1409.4,442.077 1410.75,441.75 1412.11,441.417 1413.46,441.081 1414.81,440.742 1416.16,440.401 1417.52,440.058 1418.87,439.715 1420.22,439.371 1421.57,439.028 1422.93,438.686 1424.28,438.347 1425.63,438.01 1426.98,437.676 1428.33,437.346 1429.69,437.021 1431.04,436.701 1432.39,436.387 1433.74,436.079 1435.1,435.778 1436.45,435.485 1437.8,435.2 1439.15,434.923 1440.51,434.656 1441.86,434.398 1443.21,434.15 1444.56,433.913 1445.92,433.686 1447.27,433.47 1448.62,433.266 1449.97,433.074 1451.33,432.894 1452.68,432.726 1454.03,432.572 1455.38,432.429 1456.74,432.3 1458.09,432.185 1459.44,432.082 1460.79,431.993 1462.15,431.918 1463.5,431.856 1464.85,431.808 1466.2,431.773 1467.55,431.752 1468.91,431.745 1470.26,431.751 1471.61,431.771 1472.96,431.803 1474.32,431.849 1475.67,431.908 1477.02,431.98 1478.37,432.064 1479.73,432.16 1481.08,432.268 1482.43,432.388 1483.78,432.52 1485.14,432.662 1486.49,432.816 1487.84,432.979 1489.19,433.153 1490.55,433.336 1491.9,433.528 1493.25,433.729 1494.6,433.938 1495.96,434.155 1497.31,434.379 1498.66,434.611 1500.01,434.848 1501.36,435.092 1502.72,435.34 1504.07,435.594 1505.42,435.852 1506.77,436.114 1508.13,436.379 1509.48,436.647 1510.83,436.916 1512.18,437.188 1513.54,437.461 1514.89,437.734 1516.24,438.008 1517.59,438.281 1518.95,438.553 1520.3,438.823 1521.65,439.092 1523,439.358 1524.36,439.621 1525.71,439.881 1527.06,440.136 1528.41,440.388 1529.77,440.634 1531.12,440.875 1532.47,441.111 1533.82,441.34 1535.17,441.563 1536.53,441.779 1537.88,441.988 1539.23,442.189 1540.58,442.382 1541.94,442.567 1543.29,442.744 1544.64,442.912 1545.99,443.07 1547.35,443.22 1548.7,443.36 1550.05,443.491 1551.4,443.611 1552.76,443.722 "/>
<path clip-path="url(#clip510)" d="M1293.28 232.337 L1507.68 232.337 L1507.68 73.4796 L1293.28 73.4796  Z" fill="#ffffff" fill-rule="evenodd" fill-opacity="1"/>
<polyline clip-path="url(#clip510)" style="stroke:#000000; stroke-linecap:round; stroke-linejoin:round; stroke-width:4; stroke-opacity:1; fill:none" points="1293.28,232.337 1507.68,232.337 1507.68,73.4796 1293.28,73.4796 1293.28,232.337 "/>
<path clip-path="url(#clip510)" d="M1327.78 100.832 L1327.78 152.032 L1378.98 152.032 L1378.98 100.832 L1327.78 100.832 Z" fill="#ffd700" fill-rule="evenodd" fill-opacity="1" stroke="none"/>
<path clip-path="url(#clip510)" d="M1439.49 117.929 Q1438.88 120.95 1438.06 122.684 Q1436.75 125.33 1434.5 125.33 Q1432.91 125.33 1431.69 124.37 Q1430.5 123.41 1430.19 121.817 Q1429.58 122.543 1429.14 122.965 Q1428.72 123.386 1427.87 124.042 Q1427.05 124.674 1426.02 125.002 Q1424.99 125.33 1423.82 125.33 Q1420.96 125.33 1419.16 123.831 Q1416.72 133.645 1416.51 134.137 Q1415.83 135.144 1414.85 135.144 Q1414.24 135.144 1413.87 134.77 Q1413.49 134.418 1413.49 133.856 Q1413.52 133.669 1413.66 133.083 L1420.54 105.328 Q1420.73 104.578 1421.2 104.156 Q1421.69 103.711 1421.97 103.665 Q1422.25 103.594 1422.46 103.594 Q1423.09 103.594 1423.47 103.946 Q1423.87 104.274 1423.87 104.883 Q1423.87 104.976 1423.73 105.515 Q1423.61 106.03 1423.42 106.827 Q1423.24 107.6 1423.14 107.951 L1421.13 116.008 Q1420.45 118.772 1420.45 120.084 Q1420.45 122.075 1421.34 123.175 Q1422.25 124.253 1424.01 124.253 Q1425.11 124.253 1426.14 123.808 Q1427.17 123.339 1427.87 122.707 Q1428.58 122.075 1429.14 121.395 Q1429.7 120.693 1429.96 120.248 Q1430.22 119.779 1430.24 119.662 L1431.48 114.767 L1433.75 105.796 Q1433.89 105.234 1434.15 104.859 Q1434.43 104.461 1434.76 104.32 Q1435.09 104.18 1435.27 104.156 Q1435.46 104.11 1435.63 104.11 Q1436.21 104.11 1436.61 104.461 Q1437.01 104.812 1437.01 105.421 Q1437.01 105.538 1436.87 106.1 Q1436.75 106.639 1436.56 107.436 Q1436.38 108.209 1436.28 108.63 Q1435.53 111.581 1435.46 111.886 L1434.13 117.062 Q1434.06 117.367 1433.82 118.35 Q1433.61 119.334 1433.49 119.849 Q1433.38 120.341 1433.26 121.021 Q1433.17 121.676 1433.17 122.051 Q1433.17 124.253 1434.62 124.253 Q1435.18 124.253 1435.67 123.925 Q1436.16 123.574 1436.49 123.082 Q1436.84 122.59 1437.17 121.747 Q1437.52 120.88 1437.73 120.177 Q1437.94 119.451 1438.25 118.327 Q1438.37 117.788 1438.48 117.624 Q1438.6 117.46 1438.93 117.46 Q1439.49 117.46 1439.49 117.929 Z" fill="#000000" fill-rule="nonzero" fill-opacity="1" /><path clip-path="url(#clip510)" d="M1444.36 137.594 Q1444.36 132.659 1445.61 129.97 Q1447.35 125.969 1451.44 125.969 Q1452.31 125.969 1453.22 126.215 Q1454.13 126.445 1455.28 127.346 Q1456.45 128.248 1457.15 129.724 Q1458.49 132.577 1458.49 137.594 Q1458.49 142.496 1457.25 145.168 Q1455.43 149.071 1451.41 149.071 Q1449.9 149.071 1448.36 148.3 Q1446.84 147.529 1445.87 145.677 Q1444.36 142.906 1444.36 137.594 M1447.15 137.184 Q1447.15 142.25 1447.51 144.267 Q1447.92 146.447 1449.03 147.398 Q1450.17 148.333 1451.41 148.333 Q1452.76 148.333 1453.87 147.333 Q1455 146.316 1455.35 144.136 Q1455.72 141.988 1455.71 137.184 Q1455.71 132.511 1455.38 130.642 Q1454.94 128.461 1453.76 127.592 Q1452.59 126.707 1451.41 126.707 Q1450.97 126.707 1450.49 126.838 Q1450.03 126.969 1449.36 127.346 Q1448.69 127.723 1448.17 128.658 Q1447.66 129.593 1447.41 131.003 Q1447.15 132.823 1447.15 137.184 Z" fill="#000000" fill-rule="nonzero" fill-opacity="1" /><polyline clip-path="url(#clip510)" style="stroke:#0000ff; stroke-linecap:round; stroke-linejoin:round; stroke-width:4; stroke-opacity:1; fill:none" points="1308.3,179.384 1398.46,179.384 "/>
<path clip-path="url(#clip510)" d="M1413.49 179.772 Q1413.49 175.931 1417.17 173.097 Q1420.87 170.263 1426 169.841 L1426 167.054 Q1426 165.625 1425.11 165.25 Q1424.22 164.852 1420.78 164.852 L1419.86 164.852 L1419.86 163.353 Q1423.98 163.494 1428.01 163.494 Q1432.04 163.494 1436.16 163.353 L1436.16 164.852 L1435.3 164.852 Q1431.95 164.852 1430.99 165.227 Q1430.03 165.602 1430.03 167.054 L1430.03 169.841 Q1435.25 170.216 1439.02 173.05 Q1442.79 175.884 1442.79 179.772 Q1442.79 183.379 1439.19 186.307 Q1435.6 189.211 1430.03 189.656 L1430.03 192.42 Q1430.03 193.849 1430.92 194.247 Q1431.81 194.645 1435.25 194.645 L1436.16 194.645 L1436.16 196.121 Q1432.04 195.98 1428.01 195.98 Q1423.98 195.98 1419.86 196.121 L1419.86 194.645 L1420.78 194.645 Q1424.17 194.645 1425.09 194.247 Q1426 193.826 1426 192.42 L1426 189.656 Q1420.82 189.235 1417.15 186.377 Q1413.49 183.52 1413.49 179.772 M1418.27 179.725 Q1418.27 187.455 1426 188.485 L1426 170.989 Q1422.3 171.527 1420.28 173.706 Q1418.27 175.884 1418.27 179.725 M1430.03 188.532 Q1437.94 187.384 1437.94 179.772 Q1437.94 177.289 1437.2 175.533 Q1436.47 173.776 1435.09 172.863 Q1433.73 171.949 1432.6 171.574 Q1431.48 171.176 1430.03 170.942 L1430.03 188.532 Z" fill="#000000" fill-rule="nonzero" fill-opacity="1" /><path clip-path="url(#clip510)" d="M1460.16 163.435 Q1459.95 163.812 1459.5 163.91 Q1459.08 163.992 1458.72 163.747 L1454.42 160.582 L1454.98 165.894 Q1455.03 166.321 1454.75 166.649 Q1454.47 166.96 1454.01 166.96 Q1453.55 166.96 1453.27 166.649 Q1452.99 166.321 1453.04 165.894 L1453.6 160.582 L1449.3 163.747 Q1448.94 163.992 1448.5 163.91 Q1448.08 163.812 1447.86 163.435 Q1447.63 163.025 1447.76 162.615 Q1447.91 162.189 1448.34 162.025 L1453.21 159.877 L1448.34 157.729 Q1447.91 157.565 1447.76 157.155 Q1447.63 156.729 1447.86 156.319 Q1448.08 155.942 1448.5 155.86 Q1448.94 155.762 1449.3 156.008 L1453.6 159.172 L1453.04 153.86 Q1452.99 153.417 1453.27 153.089 Q1453.57 152.761 1454.01 152.761 Q1454.45 152.761 1454.73 153.089 Q1455.03 153.417 1454.98 153.86 L1454.42 159.172 L1458.72 156.008 Q1459.08 155.762 1459.5 155.86 Q1459.95 155.942 1460.16 156.319 Q1460.39 156.729 1460.24 157.155 Q1460.11 157.565 1459.68 157.729 L1454.81 159.877 L1459.68 162.025 Q1460.11 162.189 1460.24 162.615 Q1460.39 163.025 1460.16 163.435 Z" fill="#000000" fill-rule="nonzero" fill-opacity="1" /><path clip-path="url(#clip510)" d="M1491.52 176.751 Q1491.52 177.079 1491.3 177.852 L1486.71 196.168 Q1485.71 200.243 1482.43 203.101 Q1479.17 205.958 1475.47 205.958 Q1473.25 205.958 1471.82 204.764 Q1470.39 203.593 1470.39 201.789 Q1470.39 200.197 1471.23 199.424 Q1472.07 198.674 1473.08 198.674 Q1473.41 198.674 1473.76 198.768 Q1474.11 198.861 1474.49 199.26 Q1474.86 199.658 1474.86 200.337 Q1474.86 201.438 1473.9 202.305 Q1473.43 202.703 1472.99 202.796 Q1472.57 202.89 1471.84 202.89 Q1472.12 203.546 1472.64 203.991 Q1473.15 204.436 1473.74 204.6 Q1474.32 204.787 1474.7 204.834 Q1475.1 204.904 1475.47 204.904 Q1478.47 204.904 1480.76 201.883 Q1481.44 200.969 1481.94 200.056 Q1482.45 199.166 1482.83 198.065 Q1483.2 196.988 1483.36 196.402 Q1483.55 195.817 1483.88 194.481 Q1481.7 196.66 1479.03 196.66 Q1477.91 196.66 1476.9 196.355 Q1475.92 196.051 1475.05 195.418 Q1474.18 194.763 1473.67 193.615 Q1473.18 192.467 1473.18 190.945 Q1473.18 189.329 1473.81 187.127 Q1474.44 184.925 1475.96 180.873 Q1476.78 178.601 1476.78 177.5 Q1476.78 176.961 1476.67 176.634 Q1476.55 176.282 1476.31 176.165 Q1476.08 176.025 1475.94 176.001 Q1475.82 175.978 1475.59 175.978 Q1474.21 175.978 1472.92 177.383 Q1471.63 178.788 1470.74 181.927 Q1470.55 182.513 1470.44 182.653 Q1470.32 182.794 1469.97 182.794 Q1469.38 182.77 1469.38 182.302 Q1469.38 182.114 1469.59 181.388 Q1469.8 180.639 1470.29 179.538 Q1470.81 178.414 1471.51 177.406 Q1472.22 176.376 1473.32 175.65 Q1474.44 174.924 1475.73 174.924 Q1477.49 174.924 1478.56 176.071 Q1479.66 177.196 1479.66 178.859 Q1479.66 179.538 1479.48 180.147 Q1479.31 180.732 1478.7 182.302 Q1476.24 188.626 1476.24 191.718 Q1476.24 192.467 1476.36 193.1 Q1476.5 193.709 1476.81 194.317 Q1477.11 194.903 1477.72 195.254 Q1478.35 195.582 1479.22 195.582 Q1480.32 195.582 1481.35 195.067 Q1482.4 194.528 1483.06 193.802 Q1483.74 193.076 1484.14 192.467 Q1484.56 191.835 1484.65 191.507 L1486.81 182.887 L1487.77 179.046 Q1488.21 176.961 1488.42 176.446 Q1488.7 175.954 1489.2 175.697 Q1489.69 175.439 1490.11 175.439 Q1490.7 175.439 1491.09 175.79 Q1491.52 176.142 1491.52 176.751 Z" fill="#000000" fill-rule="nonzero" fill-opacity="1" /></svg>
