<?xml version="1.0" encoding="utf-8"?>
<svg xmlns="http://www.w3.org/2000/svg" xmlns:xlink="http://www.w3.org/1999/xlink" width="180" height="63" viewBox="0 0 720 252">
<defs>
  <clipPath id="clip490">
    <rect x="0" y="0" width="720" height="252"/>
  </clipPath>
</defs>
<path clip-path="url(#clip490)" d="M0 252 L720 252 L720 2.84217e-14 L0 2.84217e-14  Z" fill="#ffffff" fill-rule="evenodd" fill-opacity="1"/>
<defs>
  <clipPath id="clip491">
    <rect x="144" y="0" width="505" height="252"/>
  </clipPath>
</defs>
<path clip-path="url(#clip490)" d="M0 252 L720 252 L720 2.84217e-14 L0 2.84217e-14  Z" fill="#ffffff" fill-rule="evenodd" fill-opacity="1"/>
<polyline clip-path="url(#clip490)" style="stroke:#000000; stroke-linecap:round; stroke-linejoin:round; stroke-width:4; stroke-opacity:1; fill:none" points="0,252 720,252 "/>
<polyline clip-path="url(#clip490)" style="stroke:#000000; stroke-linecap:round; stroke-linejoin:round; stroke-width:4; stroke-opacity:1; fill:none" points="0,2.84217e-14 720,2.84217e-14 "/>
<polyline clip-path="url(#clip490)" style="stroke:#000000; stroke-linecap:round; stroke-linejoin:round; stroke-width:4; stroke-opacity:1; fill:none" points="0,252 0,2.84217e-14 "/>
<polyline clip-path="url(#clip490)" style="stroke:#000000; stroke-linecap:round; stroke-linejoin:round; stroke-width:4; stroke-opacity:1; fill:none" points="720,252 720,2.84217e-14 "/>
<polyline clip-path="url(#clip490)" style="stroke:#000000; stroke-linecap:round; stroke-linejoin:round; stroke-width:4; stroke-opacity:1; fill:none" points="-720,126 1440,126 "/>
<polyline clip-path="url(#clip490)" style="stroke:#0000ff; stroke-linecap:round; stroke-linejoin:round; stroke-width:4; stroke-opacity:1; fill:none" points="0,120.441 0.72,136.902 1.44,119.881 2.16,127.632 2.88,117.329 3.6,119.274 4.32,130.331 5.04,128.523 5.76,125.803 6.48,133.163 7.2,131.918 7.92,128.145 8.64,126.163 9.36,130.343 10.08,117.06 10.8,121.002 11.52,135.932 12.24,126.08 12.96,134.045 13.68,130.409 14.4,125.663 15.12,132.075 15.84,127.607 16.56,125.606 17.28,125.634 18,122.794 18.72,126.753 19.44,127.397 20.16,126.281 20.88,124.16 21.6,114.855 22.32,130.843 23.04,133.076 23.76,140.644 24.48,130.304 25.2,128.581 25.92,115.188 26.64,121.09 27.36,131.026 28.08,130.68 28.8,118.138 29.52,131.671 30.24,126.348 30.96,123.306 31.68,129.024 32.4,128.893 33.12,127.734 33.84,120.623 34.56,129.787 35.28,122.547 36,127.569 36.72,124.339 37.44,113.967 38.16,121.747 38.88,119.844 39.6,126.815 40.32,115.107 41.04,128.777 41.76,110.782 42.48,116.436 43.2,131.195 43.92,121.258 44.64,121.709 45.36,112.215 46.08,124.064 46.8,112.956 47.52,130.226 48.24,115.34 48.96,116.1 49.68,125.838 50.4,114.212 51.12,128.048 51.84,117.075 52.56,113.833 53.28,121.96 54,107.711 54.72,108.718 55.44,113.958 56.16,107.327 56.88,125.584 57.6,121.706 58.32,107.494 59.04,110.075 59.76,118.338 60.48,116.375 61.2,118.57 61.92,124.715 62.64,103.468 63.36,110.592 64.08,111.934 64.8,104.968 65.52,108.855 66.24,115.508 66.96,107.848 67.68,95.7243 68.4,116.885 69.12,111.772 69.84,102.898 70.56,98.0068 71.28,108.875 72,107.503 72.72,102.451 73.44,108.239 74.16,109.818 74.88,94.8792 75.6,109.384 76.32,107.806 77.04,103.733 77.76,90.2551 78.48,101.911 79.2,99.4423 79.92,94.4411 80.64,102.149 81.36,98.0488 82.08,98.7404 82.8,104.967 83.52,101.417 84.24,99.1036 84.96,88.7366 85.68,84.5388 86.4,85.2366 87.12,95.1659 87.84,82.2657 88.56,85.9392 89.28,83.856 90,77.2848 90.72,78.858 91.44,88.0987 92.16,85.9419 92.88,81.7486 93.6,84.0103 94.32,80.984 95.04,83.8428 95.76,78.8279 96.48,75.7015 97.2,73.8993 97.92,65.6783 98.64,67.4389 99.36,68.2954 100.08,64.7641 100.8,62.3592 101.52,62.8001 102.24,66.5692 102.96,57.1258 103.68,67.2789 104.4,58.5548 105.12,52.6767 105.84,59.72 106.56,60.6501 107.28,59.6021 108,59.1381 108.72,50.7486 109.44,57.381 110.16,60.2911 110.88,63.6868 111.6,59.2738 112.32,50.7668 113.04,49.3416 113.76,35.6441 114.48,47.5385 115.2,50.9445 115.92,50.3063 116.64,54.5225 117.36,33.4134 118.08,34.673 118.8,41.1867 119.52,42.2637 120.24,40.8868 120.96,38.4633 121.68,46.9958 122.4,33.3213 123.12,38.6023 123.84,30.1778 124.56,32.9683 125.28,40.6637 126,36.4754 126.72,41.0779 127.44,34.9342 128.16,26.1703 128.88,30.4657 129.6,36.7437 130.32,38.3507 131.04,33.967 131.76,18.9102 132.48,22.8004 133.2,24.1088 133.92,32.3126 134.64,18.1837 135.36,37.6299 136.08,34.7024 136.8,30.6518 137.52,22.4904 138.24,13.2193 138.96,28.965 139.68,28.1953 140.4,31.585 141.12,24.658 141.84,21.6809 142.56,20.2745 143.28,25.3052 144,21.005 144.72,23.3656 145.44,25.3012 146.16,19.853 146.88,27.5545 147.6,24.8584 148.32,33.0156 149.04,30.6838 149.76,21.7416 150.48,24.0783 151.2,19.2411 151.92,21.4785 152.64,23.5329 153.36,20.8962 154.08,31.8965 154.8,14.6901 155.52,17.8534 156.24,23.1866 156.96,26.3651 157.68,31.626 158.4,35.2873 159.12,15.5961 159.84,23.2641 160.56,32.3648 161.28,32.3362 162,28.7632 162.72,25.7355 163.44,28.7897 164.16,26.0087 164.88,30.1631 165.6,18.9799 166.32,31.791 167.04,21.3002 167.76,25.7008 168.48,25.209 169.2,24.4245 169.92,35.0867 170.64,32.37 171.36,24.3704 172.08,22.2313 172.8,25.4683 173.52,42.0031 174.24,27.9682 174.96,25.6428 175.68,39.2696 176.4,34.7441 177.12,37.6866 177.84,34.0051 178.56,41.3731 179.28,38.2162 180,47.8471 180.72,33.542 181.44,34.4872 182.16,36.3416 182.88,35.9785 183.6,43.9352 184.32,44.7076 185.04,31.5753 185.76,43.5189 186.48,35.6 187.2,43.3757 187.92,23.0979 188.64,31.0678 189.36,36.477 190.08,38.6928 190.8,40.2241 191.52,49.8188 192.24,44.4065 192.96,44.4401 193.68,43.7069 194.4,36.8398 195.12,39.2325 195.84,28.7153 196.56,47.8344 197.28,44.1171 198,39.8443 198.72,47.1843 199.44,48.6605 200.16,42.1069 200.88,35.2126 201.6,45.5599 202.32,40.4836 203.04,33.4778 203.76,50.3112 204.48,44.1064 205.2,39.6209 205.92,40.1627 206.64,46.0804 207.36,39.6988 208.08,39.1121 208.8,46.328 209.52,43.6164 210.24,44.9279 210.96,34.0997 211.68,48.9699 212.4,41.7224 213.12,42.5251 213.84,48.8744 214.56,38.6908 215.28,38.385 216,32.3617 216.72,13.6146 217.44,32.307 218.16,38.5436 218.88,36.0314 219.6,23.1755 220.32,24.6124 221.04,29.4601 221.76,32.7076 222.48,34.5352 223.2,27.6539 223.92,37.8274 224.64,30.4952 225.36,41.4006 226.08,38.2299 226.8,22.0009 227.52,21.0849 228.24,27.0394 228.96,19.3763 229.68,24.7854 230.4,27.9607 231.12,28.4404 231.84,23.6573 232.56,34.5239 233.28,20.3123 234,15.7318 234.72,25.5101 235.44,28.084 236.16,24.8973 236.88,23.3564 237.6,31.0582 238.32,31.3291 239.04,26.091 239.76,22.2637 240.48,29.0851 241.2,25.9564 241.92,31.1438 242.64,21.3503 243.36,15.7663 244.08,22.6652 244.8,11.5291 245.52,15.1326 246.24,18.2467 246.96,12.8795 247.68,21.611 248.4,17.296 249.12,18.2492 249.84,16.1426 250.56,24.3313 251.28,30.49 252,23.2856 252.72,37.9122 253.44,22.7908 254.16,31.5267 254.88,20.5663 255.6,16.8313 256.32,18.9134 257.04,21.6473 257.76,18.5627 258.48,26.3416 259.2,18.2654 259.92,32.8472 260.64,27.9531 261.36,18.7405 262.08,19.4916 262.8,19.3864 263.52,31.732 264.24,27.1969 264.96,35.374 265.68,28.2764 266.4,24.0078 267.12,32.5204 267.84,30.3103 268.56,26.9767 269.28,27.5024 270,35.2254 270.72,38.0893 271.44,28.3221 272.16,34.2382 272.88,40.7925 273.6,36.1073 274.32,46.5141 275.04,40.504 275.76,43.8002 276.48,41.1044 277.2,43.092 277.92,43.3665 278.64,39.8489 279.36,39.8591 280.08,44.9709 280.8,46.28 281.52,45.4628 282.24,52.2927 282.96,46.9949 283.68,46.4281 284.4,48.9406 285.12,54.2353 285.84,54.2152 286.56,47.8814 287.28,58.0561 288,60.2728 288.72,54.4564 289.44,64.7839 290.16,56.6706 290.88,50.434 291.6,58.3332 292.32,68.0744 293.04,70.296 293.76,59.0697 294.48,66.8652 295.2,72.6015 295.92,61.5219 296.64,67.0081 297.36,81.6016 298.08,73.3186 298.8,80.6471 299.52,76.9766 300.24,72.647 300.96,70.6589 301.68,58.7455 302.4,76.237 303.12,83.9365 303.84,87.2846 304.56,87.6108 305.28,89.667 306,83.2871 306.72,89.0547 307.44,83.7075 308.16,87.2077 308.88,86.3547 309.6,95.0525 310.32,96.6748 311.04,94.406 311.76,90.1705 312.48,99.8644 313.2,98.3309 313.92,94.1888 314.64,88.6541 315.36,95.8488 316.08,99.941 316.8,101.307 317.52,96.8149 318.24,100.326 318.96,103.122 319.68,93.1655 320.4,109.721 321.12,108.229 321.84,102.831 322.56,106.031 323.28,102.823 324,106.545 324.72,106.905 325.44,100.231 326.16,111.385 326.88,99.4091 327.6,115.127 328.32,113.723 329.04,106.136 329.76,104.931 330.48,117.278 331.2,111.097 331.92,111.383 332.64,124.021 333.36,116.072 334.08,114.269 334.8,112.529 335.52,111.43 336.24,119.79 336.96,114.797 337.68,114.707 338.4,107.812 339.12,124.093 339.84,117.722 340.56,116.734 341.28,118.418 342,122.886 342.72,114.973 343.44,112.136 344.16,127.192 344.88,119.187 345.6,116.349 346.32,134.592 347.04,111.434 347.76,111.088 348.48,126.72 349.2,121.776 349.92,130.23 350.64,130.205 351.36,117.613 352.08,123.137 352.8,131.623 353.52,126.408 354.24,121.953 354.96,123.013 355.68,121.857 356.4,121.337 357.12,132.335 357.84,118.104 358.56,128.979 359.28,123.585 360,117.473 360.72,116.373 361.44,125.892 362.16,123.891 362.88,131.207 363.6,128.286 364.32,124.255 365.04,120.415 365.76,130.86 366.48,121.109 367.2,119.291 367.92,128.544 368.64,139.012 369.36,132.264 370.08,122.894 370.8,130.697 371.52,136.15 372.24,131.26 372.96,131.297 373.68,135.407 374.4,124.472 375.12,132.945 375.84,132.018 376.56,136.459 377.28,135.736 378,116.955 378.72,132.522 379.44,139.066 380.16,132.53 380.88,134.131 381.6,133.135 382.32,141.436 383.04,128.389 383.76,144.279 384.48,134.512 385.2,138.777 385.92,144.03 386.64,142.223 387.36,134.813 388.08,130.518 388.8,147.02 389.52,145.281 390.24,136.28 390.96,144.593 391.68,146.234 392.4,136.844 393.12,151.489 393.84,141.909 394.56,140.116 395.28,158.771 396,150.35 396.72,144.784 397.44,146.865 398.16,156.08 398.88,153.135 399.6,155.667 400.32,162.965 401.04,151.835 401.76,152.663 402.48,145.827 403.2,142.808 403.92,165.76 404.64,152.116 405.36,159.575 406.08,153.566 406.8,153.79 407.52,157.338 408.24,147.984 408.96,158.849 409.68,157.726 410.4,169.979 411.12,165.845 411.84,157.632 412.56,167.842 413.28,176.014 414,171.021 414.72,174.245 415.44,176.699 416.16,169.346 416.88,169.175 417.6,170.705 418.32,169.372 419.04,183.838 419.76,183.549 420.48,192.786 421.2,177.661 421.92,173.484 422.64,184.639 423.36,185.461 424.08,180.856 424.8,177.637 425.52,181.536 426.24,185.865 426.96,193.563 427.68,179.364 428.4,183.729 429.12,194.894 429.84,199.887 430.56,204.264 431.28,193.802 432,193.858 432.72,192.285 433.44,194.964 434.16,195.07 434.88,203.712 435.6,197.553 436.32,196.6 437.04,197.116 437.76,198.038 438.48,206.188 439.2,209.215 439.92,204.117 440.64,203.18 441.36,215.595 442.08,215.5 442.8,210.835 443.52,204.714 444.24,215.133 444.96,212.061 445.68,208.677 446.4,208.313 447.12,210.097 447.84,211.334 448.56,209.047 449.28,211.364 450,215.676 450.72,229.943 451.44,222.144 452.16,225.317 452.88,229.235 453.6,222.087 454.32,211.209 455.04,221.299 455.76,230.732 456.48,224.982 457.2,216.126 457.92,218.914 458.64,225.738 459.36,213.515 460.08,225.888 460.8,222.39 461.52,231.964 462.24,236.864 462.96,219.356 463.68,231.154 464.4,221.441 465.12,228.697 465.84,230.542 466.56,235.34 467.28,223.254 468,232.285 468.72,222.819 469.44,231.595 470.16,229.975 470.88,219.304 471.6,212.796 472.32,224 473.04,221.645 473.76,216.235 474.48,227.583 475.2,227.214 475.92,211.34 476.64,216.174 477.36,231.757 478.08,220.813 478.8,226.888 479.52,226.454 480.24,224.591 480.96,216.881 481.68,226.457 482.4,224.489 483.12,219.619 483.84,212.736 484.56,217.016 485.28,222.546 486,208.589 486.72,220.652 487.44,209.736 488.16,212.849 488.88,212.431 489.6,207.28 490.32,210.299 491.04,219.834 491.76,204.123 492.48,208.133 493.2,207.504 493.92,203.196 494.64,216.181 495.36,202.76 496.08,199.655 496.8,207.908 497.52,211.471 498.24,210.751 498.96,201.075 499.68,200.525 500.4,190.677 501.12,202.545 501.84,196.319 502.56,192.073 503.28,195.254 504,192.999 504.72,195.536 505.44,187.096 506.16,192.909 506.88,183.731 507.6,189.894 508.32,180.072 509.04,185.736 509.76,193.274 510.48,184.06 511.2,188.736 511.92,179.512 512.64,173.513 513.36,179.647 514.08,173.711 514.8,184.557 515.52,175.351 516.24,174.932 516.96,176.625 517.68,169.604 518.4,168.358 519.12,168.172 519.84,180.418 520.56,171.399 521.28,173.71 522,177.769 522.72,167.944 523.44,162.833 524.16,159.511 524.88,173.337 525.6,152.674 526.32,167.155 527.04,162.522 527.76,163.634 528.48,159.478 529.2,157.087 529.92,161.2 530.64,161.859 531.36,159.946 532.08,152.643 532.8,143.418 533.52,165.011 534.24,146.258 534.96,143.571 535.68,155.594 536.4,161.459 537.12,144.235 537.84,142.455 538.56,142.213 539.28,150.752 540,150.282 540.72,143.615 541.44,146.026 542.16,144.549 542.88,144.436 543.6,133.841 544.32,142.678 545.04,140.107 545.76,141.75 546.48,143.66 547.2,138.41 547.92,133.151 548.64,134.522 549.36,135.191 550.08,146.253 550.8,142.081 551.52,131.41 552.24,153.846 552.96,135.958 553.68,141.524 554.4,128.836 555.12,132.86 555.84,132.369 556.56,132.972 557.28,143.828 558,136.176 558.72,133.253 559.44,133.057 560.16,133.817 560.88,132.249 561.6,141.076 562.32,135.977 563.04,128.048 563.76,129.199 564.48,125.211 565.2,145.408 565.92,124.265 566.64,131.988 567.36,121.388 568.08,142.123 568.8,142.865 569.52,124.271 570.24,131.155 570.96,125.591 571.68,133.825 572.4,139.969 573.12,129.946 573.84,127.781 574.56,132.411 575.28,133.21 576,124.148 576.72,132.113 577.44,137.716 578.16,129.988 578.88,134.087 579.6,126.584 580.32,120.685 581.04,129.515 581.76,135.596 582.48,123.457 583.2,124.928 583.92,136.176 584.64,137.412 585.36,133.967 586.08,126.098 586.8,133.105 587.52,133.479 588.24,118.717 588.96,128.93 589.68,133.37 590.4,127.798 591.12,129.005 591.84,128.622 592.56,121.655 593.28,120.938 594,132.429 594.72,125.358 595.44,134.755 596.16,123.913 596.88,124.76 597.6,126.385 598.32,135.281 599.04,126.821 599.76,127.887 600.48,135.419 601.2,125.059 601.92,127.876 602.64,119.737 603.36,135.66 604.08,128.123 604.8,133.713 605.52,122.537 606.24,127.324 606.96,123.791 607.68,127.603 608.4,120.954 609.12,133.355 609.84,123.848 610.56,128.494 611.28,115.357 612,121.286 612.72,122.822 613.44,124.026 614.16,126.781 614.88,134.563 615.6,121.273 616.32,125.753 617.04,114.489 617.76,127.964 618.48,128.461 619.2,131.563 619.92,116.988 620.64,119.974 621.36,127.982 622.08,133.111 622.8,122.042 623.52,132.626 624.24,131.32 624.96,116.522 625.68,121.673 626.4,128.838 627.12,129.16 627.84,125.972 628.56,123.375 629.28,125.15 630,133.428 630.72,120.527 631.44,133.131 632.16,137.164 632.88,135.628 633.6,133.555 634.32,124.119 635.04,127.958 635.76,126.166 636.48,129.656 637.2,129.465 637.92,113.375 638.64,121.272 639.36,111.775 640.08,129.465 640.8,134.476 641.52,129.694 642.24,134.321 642.96,114.239 643.68,120.875 644.4,124.474 645.12,114.454 645.84,117.847 646.56,133.147 647.28,127.16 648,117.568 648.72,119.545 649.44,127.066 650.16,124.872 650.88,125.067 651.6,122.229 652.32,129.747 653.04,128.582 653.76,130.914 654.48,128.353 655.2,126.61 655.92,133.386 656.64,128.776 657.36,126.928 658.08,122.401 658.8,135.323 659.52,124.995 660.24,123.209 660.96,133.395 661.68,127.814 662.4,127.73 663.12,119.123 663.84,122.68 664.56,122.027 665.28,120.839 666,128.522 666.72,114.773 667.44,114.296 668.16,132.818 668.88,127.516 669.6,128.191 670.32,124.142 671.04,119.254 671.76,134.002 672.48,124.419 673.2,134.642 673.92,125.304 674.64,130.783 675.36,124.855 676.08,126.078 676.8,131.515 677.52,111.032 678.24,134.377 678.96,127.073 679.68,122.86 680.4,120.481 681.12,129.209 681.84,127.86 682.56,122.896 683.28,129.809 684,132.751 684.72,126.113 685.44,128.378 686.16,121.28 686.88,126.377 687.6,132.152 688.32,120.769 689.04,134.544 689.76,123.587 690.48,126.471 691.2,129.424 691.92,118.494 692.64,129.255 693.36,128.4 694.08,130.015 694.8,130.686 695.52,115.516 696.24,118.701 696.96,120.548 697.68,128.639 698.4,132.135 699.12,126.928 699.84,127.119 700.56,129.324 701.28,142.949 702,113.425 702.72,122.47 703.44,125.857 704.16,127.786 704.88,119.123 705.6,110.551 706.32,120.183 707.04,127.928 707.76,122.728 708.48,124.651 709.2,124.566 709.92,123.112 710.64,138.474 711.36,121.094 712.08,119.086 712.8,121.937 713.52,113.342 714.24,124.266 714.96,125.645 715.68,119.368 716.4,127.545 717.12,119.752 717.84,130.245 718.56,128.658 719.28,119.224 720,123.729 "/>
<path clip-path="url(#clip490)" d="M600.731 112.08 L696 112.08 L696 8.4 L600.731 8.4  Z" fill="#ffffff" fill-rule="evenodd" fill-opacity="1"/>
<polyline clip-path="url(#clip490)" style="stroke:#000000; stroke-linecap:round; stroke-linejoin:round; stroke-width:4; stroke-opacity:1; fill:none" points="600.731,112.08 696,112.08 696,8.4 600.731,8.4 600.731,112.08 "/>
<polyline clip-path="url(#clip490)" style="stroke:#0000ff; stroke-linecap:round; stroke-linejoin:round; stroke-width:4; stroke-opacity:1; fill:none" points="608.731,60.24 656.731,60.24 "/>
<path clip-path="url(#clip490)" d="M686.865 46.4946 Q686.865 46.8226 686.654 47.5955 L682.064 65.9118 Q681.056 69.9874 677.777 72.8449 Q674.522 75.7024 670.821 75.7024 Q668.596 75.7024 667.167 74.5079 Q665.738 73.3368 665.738 71.5332 Q665.738 69.9405 666.581 69.1676 Q667.425 68.418 668.432 68.418 Q668.76 68.418 669.111 68.5117 Q669.462 68.6054 669.837 69.0036 Q670.212 69.4018 670.212 70.081 Q670.212 71.1819 669.251 72.0485 Q668.783 72.4467 668.338 72.5404 Q667.916 72.6341 667.19 72.6341 Q667.471 73.2899 667.987 73.7349 Q668.502 74.18 669.088 74.3439 Q669.673 74.5313 670.048 74.5781 Q670.446 74.6484 670.821 74.6484 Q673.819 74.6484 676.114 71.6269 Q676.793 70.7134 677.285 69.8 Q677.801 68.9099 678.175 67.8091 Q678.55 66.7316 678.714 66.1461 Q678.902 65.5605 679.229 64.2254 Q677.051 66.4037 674.381 66.4037 Q673.257 66.4037 672.25 66.0992 Q671.266 65.7947 670.399 65.1623 Q669.533 64.5065 669.017 63.3588 Q668.525 62.2111 668.525 60.6886 Q668.525 59.0725 669.158 56.8708 Q669.79 54.6691 671.313 50.617 Q672.132 48.345 672.132 47.2442 Q672.132 46.7054 672.015 46.3775 Q671.898 46.0262 671.664 45.9091 Q671.43 45.7685 671.289 45.7451 Q671.172 45.7217 670.938 45.7217 Q669.556 45.7217 668.268 47.127 Q666.979 48.5324 666.089 51.671 Q665.902 52.2566 665.785 52.3971 Q665.668 52.5376 665.316 52.5376 Q664.731 52.5142 664.731 52.0458 Q664.731 51.8584 664.942 51.1323 Q665.153 50.3828 665.644 49.2819 Q666.16 48.1576 666.862 47.1505 Q667.565 46.1199 668.666 45.3938 Q669.79 44.6677 671.078 44.6677 Q672.835 44.6677 673.913 45.8154 Q675.013 46.9397 675.013 48.6027 Q675.013 49.2819 674.826 49.8909 Q674.662 50.4765 674.053 52.0458 Q671.594 58.3698 671.594 61.4616 Q671.594 62.2111 671.711 62.8435 Q671.851 63.4525 672.156 64.0615 Q672.46 64.647 673.069 64.9984 Q673.702 65.3263 674.568 65.3263 Q675.669 65.3263 676.7 64.811 Q677.754 64.2723 678.41 63.5462 Q679.089 62.8201 679.487 62.2111 Q679.909 61.5787 680.002 61.2508 L682.157 52.6313 L683.118 48.79 Q683.563 46.7054 683.773 46.1901 Q684.054 45.6983 684.546 45.4406 Q685.038 45.183 685.46 45.183 Q686.045 45.183 686.444 45.5343 Q686.865 45.8857 686.865 46.4946 Z" fill="#000000" fill-rule="nonzero" fill-opacity="1" /></svg>
