<?xml version="1.0" encoding="utf-8"?>
<svg xmlns="http://www.w3.org/2000/svg" xmlns:xlink="http://www.w3.org/1999/xlink" width="600" height="375" viewBox="0 0 2400 1500">
<defs>
  <clipPath id="clip660">
    <rect x="0" y="0" width="2400" height="1500"/>
  </clipPath>
</defs>
<path clip-path="url(#clip660)" d="M0 1500 L2400 1500 L2400 0 L0 0  Z" fill="#ffffff" fill-rule="evenodd" fill-opacity="1"/>
<defs>
  <clipPath id="clip661">
    <rect x="480" y="0" width="1681" height="1500"/>
  </clipPath>
</defs>
<path clip-path="url(#clip660)" d="M208.355 1329.31 L2352.76 1329.31 L2352.76 47.2441 L208.355 47.2441  Z" fill="#ffffff" fill-rule="evenodd" fill-opacity="1"/>
<defs>
  <clipPath id="clip662">
    <rect x="208" y="47" width="2145" height="1283"/>
  </clipPath>
</defs>
<polyline clip-path="url(#clip662)" style="stroke:#000000; stroke-linecap:round; stroke-linejoin:round; stroke-width:2; stroke-opacity:0.1; fill:none" points="208.355,1329.31 208.355,47.2441 "/>
<polyline clip-path="url(#clip662)" style="stroke:#000000; stroke-linecap:round; stroke-linejoin:round; stroke-width:2; stroke-opacity:0.1; fill:none" points="637.235,1329.31 637.235,47.2441 "/>
<polyline clip-path="url(#clip662)" style="stroke:#000000; stroke-linecap:round; stroke-linejoin:round; stroke-width:2; stroke-opacity:0.1; fill:none" points="1066.12,1329.31 1066.12,47.2441 "/>
<polyline clip-path="url(#clip662)" style="stroke:#000000; stroke-linecap:round; stroke-linejoin:round; stroke-width:2; stroke-opacity:0.1; fill:none" points="1495,1329.31 1495,47.2441 "/>
<polyline clip-path="url(#clip662)" style="stroke:#000000; stroke-linecap:round; stroke-linejoin:round; stroke-width:2; stroke-opacity:0.1; fill:none" points="1923.88,1329.31 1923.88,47.2441 "/>
<polyline clip-path="url(#clip662)" style="stroke:#000000; stroke-linecap:round; stroke-linejoin:round; stroke-width:2; stroke-opacity:0.1; fill:none" points="2352.76,1329.31 2352.76,47.2441 "/>
<polyline clip-path="url(#clip662)" style="stroke:#000000; stroke-linecap:round; stroke-linejoin:round; stroke-width:2; stroke-opacity:0.1; fill:none" points="208.355,1329.31 2352.76,1329.31 "/>
<polyline clip-path="url(#clip662)" style="stroke:#000000; stroke-linecap:round; stroke-linejoin:round; stroke-width:2; stroke-opacity:0.1; fill:none" points="208.355,1115.63 2352.76,1115.63 "/>
<polyline clip-path="url(#clip662)" style="stroke:#000000; stroke-linecap:round; stroke-linejoin:round; stroke-width:2; stroke-opacity:0.1; fill:none" points="208.355,901.955 2352.76,901.955 "/>
<polyline clip-path="url(#clip662)" style="stroke:#000000; stroke-linecap:round; stroke-linejoin:round; stroke-width:2; stroke-opacity:0.1; fill:none" points="208.355,688.277 2352.76,688.277 "/>
<polyline clip-path="url(#clip662)" style="stroke:#000000; stroke-linecap:round; stroke-linejoin:round; stroke-width:2; stroke-opacity:0.1; fill:none" points="208.355,474.599 2352.76,474.599 "/>
<polyline clip-path="url(#clip662)" style="stroke:#000000; stroke-linecap:round; stroke-linejoin:round; stroke-width:2; stroke-opacity:0.1; fill:none" points="208.355,260.922 2352.76,260.922 "/>
<polyline clip-path="url(#clip662)" style="stroke:#000000; stroke-linecap:round; stroke-linejoin:round; stroke-width:2; stroke-opacity:0.1; fill:none" points="208.355,47.2441 2352.76,47.2441 "/>
<polyline clip-path="url(#clip660)" style="stroke:#000000; stroke-linecap:round; stroke-linejoin:round; stroke-width:4; stroke-opacity:1; fill:none" points="208.355,1329.31 2352.76,1329.31 "/>
<polyline clip-path="url(#clip660)" style="stroke:#000000; stroke-linecap:round; stroke-linejoin:round; stroke-width:4; stroke-opacity:1; fill:none" points="208.355,1329.31 208.355,1310.41 "/>
<polyline clip-path="url(#clip660)" style="stroke:#000000; stroke-linecap:round; stroke-linejoin:round; stroke-width:4; stroke-opacity:1; fill:none" points="637.235,1329.31 637.235,1310.41 "/>
<polyline clip-path="url(#clip660)" style="stroke:#000000; stroke-linecap:round; stroke-linejoin:round; stroke-width:4; stroke-opacity:1; fill:none" points="1066.12,1329.31 1066.12,1310.41 "/>
<polyline clip-path="url(#clip660)" style="stroke:#000000; stroke-linecap:round; stroke-linejoin:round; stroke-width:4; stroke-opacity:1; fill:none" points="1495,1329.31 1495,1310.41 "/>
<polyline clip-path="url(#clip660)" style="stroke:#000000; stroke-linecap:round; stroke-linejoin:round; stroke-width:4; stroke-opacity:1; fill:none" points="1923.88,1329.31 1923.88,1310.41 "/>
<polyline clip-path="url(#clip660)" style="stroke:#000000; stroke-linecap:round; stroke-linejoin:round; stroke-width:4; stroke-opacity:1; fill:none" points="2352.76,1329.31 2352.76,1310.41 "/>
<path clip-path="url(#clip660)" d="M185.739 1360.23 Q182.128 1360.23 180.299 1363.79 Q178.494 1367.33 178.494 1374.46 Q178.494 1381.57 180.299 1385.14 Q182.128 1388.68 185.739 1388.68 Q189.373 1388.68 191.179 1385.14 Q193.008 1381.57 193.008 1374.46 Q193.008 1367.33 191.179 1363.79 Q189.373 1360.23 185.739 1360.23 M185.739 1356.52 Q191.549 1356.52 194.605 1361.13 Q197.683 1365.71 197.683 1374.46 Q197.683 1383.19 194.605 1387.8 Q191.549 1392.38 185.739 1392.38 Q179.929 1392.38 176.85 1387.8 Q173.795 1383.19 173.795 1374.46 Q173.795 1365.71 176.85 1361.13 Q179.929 1356.52 185.739 1356.52 Z" fill="#000000" fill-rule="nonzero" fill-opacity="1" /><path clip-path="url(#clip660)" d="M205.901 1385.83 L210.785 1385.83 L210.785 1391.71 L205.901 1391.71 L205.901 1385.83 Z" fill="#000000" fill-rule="nonzero" fill-opacity="1" /><path clip-path="url(#clip660)" d="M230.97 1360.23 Q227.359 1360.23 225.53 1363.79 Q223.725 1367.33 223.725 1374.46 Q223.725 1381.57 225.53 1385.14 Q227.359 1388.68 230.97 1388.68 Q234.605 1388.68 236.41 1385.14 Q238.239 1381.57 238.239 1374.46 Q238.239 1367.33 236.41 1363.79 Q234.605 1360.23 230.97 1360.23 M230.97 1356.52 Q236.78 1356.52 239.836 1361.13 Q242.915 1365.71 242.915 1374.46 Q242.915 1383.19 239.836 1387.8 Q236.78 1392.38 230.97 1392.38 Q225.16 1392.38 222.081 1387.8 Q219.026 1383.19 219.026 1374.46 Q219.026 1365.71 222.081 1361.13 Q225.16 1356.52 230.97 1356.52 Z" fill="#000000" fill-rule="nonzero" fill-opacity="1" /><path clip-path="url(#clip660)" d="M615.418 1360.23 Q611.807 1360.23 609.978 1363.79 Q608.173 1367.33 608.173 1374.46 Q608.173 1381.57 609.978 1385.14 Q611.807 1388.68 615.418 1388.68 Q619.052 1388.68 620.858 1385.14 Q622.686 1381.57 622.686 1374.46 Q622.686 1367.33 620.858 1363.79 Q619.052 1360.23 615.418 1360.23 M615.418 1356.52 Q621.228 1356.52 624.284 1361.13 Q627.362 1365.71 627.362 1374.46 Q627.362 1383.19 624.284 1387.8 Q621.228 1392.38 615.418 1392.38 Q609.608 1392.38 606.529 1387.8 Q603.474 1383.19 603.474 1374.46 Q603.474 1365.71 606.529 1361.13 Q609.608 1356.52 615.418 1356.52 Z" fill="#000000" fill-rule="nonzero" fill-opacity="1" /><path clip-path="url(#clip660)" d="M635.58 1385.83 L640.464 1385.83 L640.464 1391.71 L635.58 1391.71 L635.58 1385.83 Z" fill="#000000" fill-rule="nonzero" fill-opacity="1" /><path clip-path="url(#clip660)" d="M654.677 1387.77 L670.996 1387.77 L670.996 1391.71 L649.052 1391.71 L649.052 1387.77 Q651.714 1385.02 656.297 1380.39 Q660.904 1375.74 662.084 1374.4 Q664.33 1371.87 665.209 1370.14 Q666.112 1368.38 666.112 1366.69 Q666.112 1363.93 664.168 1362.2 Q662.246 1360.46 659.145 1360.46 Q656.945 1360.46 654.492 1361.22 Q652.061 1361.99 649.283 1363.54 L649.283 1358.82 Q652.108 1357.68 654.561 1357.1 Q657.015 1356.52 659.052 1356.52 Q664.422 1356.52 667.617 1359.21 Q670.811 1361.9 670.811 1366.39 Q670.811 1368.52 670.001 1370.44 Q669.214 1372.33 667.107 1374.93 Q666.529 1375.6 663.427 1378.82 Q660.325 1382.01 654.677 1387.77 Z" fill="#000000" fill-rule="nonzero" fill-opacity="1" /><path clip-path="url(#clip660)" d="M1043.26 1360.23 Q1039.65 1360.23 1037.82 1363.79 Q1036.01 1367.33 1036.01 1374.46 Q1036.01 1381.57 1037.82 1385.14 Q1039.65 1388.68 1043.26 1388.68 Q1046.89 1388.68 1048.7 1385.14 Q1050.52 1381.57 1050.52 1374.46 Q1050.52 1367.33 1048.7 1363.79 Q1046.89 1360.23 1043.26 1360.23 M1043.26 1356.52 Q1049.07 1356.52 1052.12 1361.13 Q1055.2 1365.71 1055.2 1374.46 Q1055.2 1383.19 1052.12 1387.8 Q1049.07 1392.38 1043.26 1392.38 Q1037.45 1392.38 1034.37 1387.8 Q1031.31 1383.19 1031.31 1374.46 Q1031.31 1365.71 1034.37 1361.13 Q1037.45 1356.52 1043.26 1356.52 Z" fill="#000000" fill-rule="nonzero" fill-opacity="1" /><path clip-path="url(#clip660)" d="M1063.42 1385.83 L1068.3 1385.83 L1068.3 1391.71 L1063.42 1391.71 L1063.42 1385.83 Z" fill="#000000" fill-rule="nonzero" fill-opacity="1" /><path clip-path="url(#clip660)" d="M1091.33 1361.22 L1079.53 1379.67 L1091.33 1379.67 L1091.33 1361.22 M1090.11 1357.15 L1095.99 1357.15 L1095.99 1379.67 L1100.92 1379.67 L1100.92 1383.56 L1095.99 1383.56 L1095.99 1391.71 L1091.33 1391.71 L1091.33 1383.56 L1075.73 1383.56 L1075.73 1379.05 L1090.11 1357.15 Z" fill="#000000" fill-rule="nonzero" fill-opacity="1" /><path clip-path="url(#clip660)" d="M1472.3 1360.23 Q1468.69 1360.23 1466.86 1363.79 Q1465.05 1367.33 1465.05 1374.46 Q1465.05 1381.57 1466.86 1385.14 Q1468.69 1388.68 1472.3 1388.68 Q1475.93 1388.68 1477.74 1385.14 Q1479.57 1381.57 1479.57 1374.46 Q1479.57 1367.33 1477.74 1363.79 Q1475.93 1360.23 1472.3 1360.23 M1472.3 1356.52 Q1478.11 1356.52 1481.16 1361.13 Q1484.24 1365.71 1484.24 1374.46 Q1484.24 1383.19 1481.16 1387.8 Q1478.11 1392.38 1472.3 1392.38 Q1466.49 1392.38 1463.41 1387.8 Q1460.35 1383.19 1460.35 1374.46 Q1460.35 1365.71 1463.41 1361.13 Q1466.49 1356.52 1472.3 1356.52 Z" fill="#000000" fill-rule="nonzero" fill-opacity="1" /><path clip-path="url(#clip660)" d="M1492.46 1385.83 L1497.34 1385.83 L1497.34 1391.71 L1492.46 1391.71 L1492.46 1385.83 Z" fill="#000000" fill-rule="nonzero" fill-opacity="1" /><path clip-path="url(#clip660)" d="M1518.11 1372.57 Q1514.96 1372.57 1513.11 1374.72 Q1511.28 1376.87 1511.28 1380.62 Q1511.28 1384.35 1513.11 1386.52 Q1514.96 1388.68 1518.11 1388.68 Q1521.26 1388.68 1523.09 1386.52 Q1524.94 1384.35 1524.94 1380.62 Q1524.94 1376.87 1523.09 1374.72 Q1521.26 1372.57 1518.11 1372.57 M1527.39 1357.91 L1527.39 1362.17 Q1525.63 1361.34 1523.83 1360.9 Q1522.04 1360.46 1520.28 1360.46 Q1515.66 1360.46 1513.2 1363.58 Q1510.77 1366.71 1510.42 1373.03 Q1511.79 1371.02 1513.85 1369.95 Q1515.91 1368.86 1518.39 1368.86 Q1523.59 1368.86 1526.6 1372.03 Q1529.64 1375.18 1529.64 1380.62 Q1529.64 1385.95 1526.49 1389.16 Q1523.34 1392.38 1518.11 1392.38 Q1512.11 1392.38 1508.94 1387.8 Q1505.77 1383.19 1505.77 1374.46 Q1505.77 1366.27 1509.66 1361.41 Q1513.55 1356.52 1520.1 1356.52 Q1521.86 1356.52 1523.64 1356.87 Q1525.45 1357.22 1527.39 1357.91 Z" fill="#000000" fill-rule="nonzero" fill-opacity="1" /><path clip-path="url(#clip660)" d="M1901.31 1360.23 Q1897.7 1360.23 1895.87 1363.79 Q1894.06 1367.33 1894.06 1374.46 Q1894.06 1381.57 1895.87 1385.14 Q1897.7 1388.68 1901.31 1388.68 Q1904.94 1388.68 1906.75 1385.14 Q1908.57 1381.57 1908.57 1374.46 Q1908.57 1367.33 1906.75 1363.79 Q1904.94 1360.23 1901.31 1360.23 M1901.31 1356.52 Q1907.12 1356.52 1910.17 1361.13 Q1913.25 1365.71 1913.25 1374.46 Q1913.25 1383.19 1910.17 1387.8 Q1907.12 1392.38 1901.31 1392.38 Q1895.5 1392.38 1892.42 1387.8 Q1889.36 1383.19 1889.36 1374.46 Q1889.36 1365.71 1892.42 1361.13 Q1895.5 1356.52 1901.31 1356.52 Z" fill="#000000" fill-rule="nonzero" fill-opacity="1" /><path clip-path="url(#clip660)" d="M1921.47 1385.83 L1926.35 1385.83 L1926.35 1391.71 L1921.47 1391.71 L1921.47 1385.83 Z" fill="#000000" fill-rule="nonzero" fill-opacity="1" /><path clip-path="url(#clip660)" d="M1946.54 1375.3 Q1943.2 1375.3 1941.28 1377.08 Q1939.38 1378.86 1939.38 1381.99 Q1939.38 1385.11 1941.28 1386.9 Q1943.2 1388.68 1946.54 1388.68 Q1949.87 1388.68 1951.79 1386.9 Q1953.71 1385.09 1953.71 1381.99 Q1953.71 1378.86 1951.79 1377.08 Q1949.89 1375.3 1946.54 1375.3 M1941.86 1373.31 Q1938.85 1372.57 1937.16 1370.51 Q1935.5 1368.45 1935.5 1365.48 Q1935.5 1361.34 1938.44 1358.93 Q1941.4 1356.52 1946.54 1356.52 Q1951.7 1356.52 1954.64 1358.93 Q1957.58 1361.34 1957.58 1365.48 Q1957.58 1368.45 1955.89 1370.51 Q1954.22 1372.57 1951.24 1373.31 Q1954.62 1374.09 1956.49 1376.39 Q1958.39 1378.68 1958.39 1381.99 Q1958.39 1387.01 1955.31 1389.7 Q1952.26 1392.38 1946.54 1392.38 Q1940.82 1392.38 1937.74 1389.7 Q1934.69 1387.01 1934.69 1381.99 Q1934.69 1378.68 1936.58 1376.39 Q1938.48 1374.09 1941.86 1373.31 M1940.15 1365.92 Q1940.15 1368.61 1941.82 1370.11 Q1943.51 1371.62 1946.54 1371.62 Q1949.55 1371.62 1951.24 1370.11 Q1952.95 1368.61 1952.95 1365.92 Q1952.95 1363.24 1951.24 1361.73 Q1949.55 1360.23 1946.54 1360.23 Q1943.51 1360.23 1941.82 1361.73 Q1940.15 1363.24 1940.15 1365.92 Z" fill="#000000" fill-rule="nonzero" fill-opacity="1" /><path clip-path="url(#clip660)" d="M2319.91 1387.77 L2327.55 1387.77 L2327.55 1361.41 L2319.24 1363.08 L2319.24 1358.82 L2327.5 1357.15 L2332.18 1357.15 L2332.18 1387.77 L2339.82 1387.77 L2339.82 1391.71 L2319.91 1391.71 L2319.91 1387.77 Z" fill="#000000" fill-rule="nonzero" fill-opacity="1" /><path clip-path="url(#clip660)" d="M2349.26 1385.83 L2354.14 1385.83 L2354.14 1391.71 L2349.26 1391.71 L2349.26 1385.83 Z" fill="#000000" fill-rule="nonzero" fill-opacity="1" /><path clip-path="url(#clip660)" d="M2374.33 1360.23 Q2370.72 1360.23 2368.89 1363.79 Q2367.08 1367.33 2367.08 1374.46 Q2367.08 1381.57 2368.89 1385.14 Q2370.72 1388.68 2374.33 1388.68 Q2377.96 1388.68 2379.77 1385.14 Q2381.6 1381.57 2381.6 1374.46 Q2381.6 1367.33 2379.77 1363.79 Q2377.96 1360.23 2374.33 1360.23 M2374.33 1356.52 Q2380.14 1356.52 2383.2 1361.13 Q2386.27 1365.71 2386.27 1374.46 Q2386.27 1383.19 2383.2 1387.8 Q2380.14 1392.38 2374.33 1392.38 Q2368.52 1392.38 2365.44 1387.8 Q2362.39 1383.19 2362.39 1374.46 Q2362.39 1365.71 2365.44 1361.13 Q2368.52 1356.52 2374.33 1356.52 Z" fill="#000000" fill-rule="nonzero" fill-opacity="1" /><path clip-path="url(#clip660)" d="M1166.05 1431.94 L1166.05 1449.79 L1174.14 1449.79 Q1178.62 1449.79 1181.08 1447.47 Q1183.53 1445.15 1183.53 1440.85 Q1183.53 1436.58 1181.08 1434.26 Q1178.62 1431.94 1174.14 1431.94 L1166.05 1431.94 M1159.62 1426.65 L1174.14 1426.65 Q1182.13 1426.65 1186.2 1430.28 Q1190.31 1433.88 1190.31 1440.85 Q1190.31 1447.88 1186.2 1451.48 Q1182.13 1455.08 1174.14 1455.08 L1166.05 1455.08 L1166.05 1474.17 L1159.62 1474.17 L1159.62 1426.65 Z" fill="#000000" fill-rule="nonzero" fill-opacity="1" /><path clip-path="url(#clip660)" d="M1210.17 1442.63 Q1205.46 1442.63 1202.72 1446.32 Q1199.98 1449.98 1199.98 1456.38 Q1199.98 1462.78 1202.69 1466.47 Q1205.42 1470.13 1210.17 1470.13 Q1214.85 1470.13 1217.58 1466.44 Q1220.32 1462.75 1220.32 1456.38 Q1220.32 1450.05 1217.58 1446.36 Q1214.85 1442.63 1210.17 1442.63 M1210.17 1437.67 Q1217.81 1437.67 1222.17 1442.63 Q1226.53 1447.6 1226.53 1456.38 Q1226.53 1465.13 1222.17 1470.13 Q1217.81 1475.1 1210.17 1475.1 Q1202.5 1475.1 1198.14 1470.13 Q1193.81 1465.13 1193.81 1456.38 Q1193.81 1447.6 1198.14 1442.63 Q1202.5 1437.67 1210.17 1437.67 Z" fill="#000000" fill-rule="nonzero" fill-opacity="1" /><path clip-path="url(#clip660)" d="M1258.96 1439.58 L1258.96 1445.11 Q1256.48 1443.84 1253.8 1443.2 Q1251.13 1442.57 1248.27 1442.57 Q1243.9 1442.57 1241.71 1443.9 Q1239.54 1445.24 1239.54 1447.92 Q1239.54 1449.95 1241.1 1451.13 Q1242.66 1452.28 1247.37 1453.33 L1249.38 1453.77 Q1255.62 1455.11 1258.23 1457.56 Q1260.87 1459.98 1260.87 1464.34 Q1260.87 1469.3 1256.92 1472.2 Q1253.01 1475.1 1246.13 1475.1 Q1243.27 1475.1 1240.15 1474.52 Q1237.06 1473.98 1233.62 1472.87 L1233.62 1466.82 Q1236.87 1468.51 1240.02 1469.37 Q1243.17 1470.2 1246.26 1470.2 Q1250.4 1470.2 1252.63 1468.79 Q1254.85 1467.36 1254.85 1464.78 Q1254.85 1462.4 1253.23 1461.12 Q1251.64 1459.85 1246.2 1458.67 L1244.16 1458.2 Q1238.72 1457.05 1236.3 1454.69 Q1233.88 1452.31 1233.88 1448.17 Q1233.88 1443.14 1237.44 1440.4 Q1241.01 1437.67 1247.57 1437.67 Q1250.81 1437.67 1253.68 1438.14 Q1256.54 1438.62 1258.96 1439.58 Z" fill="#000000" fill-rule="nonzero" fill-opacity="1" /><path clip-path="url(#clip660)" d="M1270.2 1438.53 L1276.05 1438.53 L1276.05 1474.17 L1270.2 1474.17 L1270.2 1438.53 M1270.2 1424.65 L1276.05 1424.65 L1276.05 1432.06 L1270.2 1432.06 L1270.2 1424.65 Z" fill="#000000" fill-rule="nonzero" fill-opacity="1" /><path clip-path="url(#clip660)" d="M1294.1 1428.4 L1294.1 1438.53 L1306.16 1438.53 L1306.16 1443.08 L1294.1 1443.08 L1294.1 1462.43 Q1294.1 1466.79 1295.28 1468.03 Q1296.49 1469.27 1300.15 1469.27 L1306.16 1469.27 L1306.16 1474.17 L1300.15 1474.17 Q1293.37 1474.17 1290.79 1471.66 Q1288.21 1469.11 1288.21 1462.43 L1288.21 1443.08 L1283.91 1443.08 L1283.91 1438.53 L1288.21 1438.53 L1288.21 1428.4 L1294.1 1428.4 Z" fill="#000000" fill-rule="nonzero" fill-opacity="1" /><path clip-path="url(#clip660)" d="M1313.86 1438.53 L1319.72 1438.53 L1319.72 1474.17 L1313.86 1474.17 L1313.86 1438.53 M1313.86 1424.65 L1319.72 1424.65 L1319.72 1432.06 L1313.86 1432.06 L1313.86 1424.65 Z" fill="#000000" fill-rule="nonzero" fill-opacity="1" /><path clip-path="url(#clip660)" d="M1345.79 1442.63 Q1341.08 1442.63 1338.34 1446.32 Q1335.6 1449.98 1335.6 1456.38 Q1335.6 1462.78 1338.31 1466.47 Q1341.05 1470.13 1345.79 1470.13 Q1350.47 1470.13 1353.2 1466.44 Q1355.94 1462.75 1355.94 1456.38 Q1355.94 1450.05 1353.2 1446.36 Q1350.47 1442.63 1345.79 1442.63 M1345.79 1437.67 Q1353.43 1437.67 1357.79 1442.63 Q1362.15 1447.6 1362.15 1456.38 Q1362.15 1465.13 1357.79 1470.13 Q1353.43 1475.1 1345.79 1475.1 Q1338.12 1475.1 1333.76 1470.13 Q1329.43 1465.13 1329.43 1456.38 Q1329.43 1447.6 1333.76 1442.63 Q1338.12 1437.67 1345.79 1437.67 Z" fill="#000000" fill-rule="nonzero" fill-opacity="1" /><path clip-path="url(#clip660)" d="M1401.49 1452.66 L1401.49 1474.17 L1395.63 1474.17 L1395.63 1452.85 Q1395.63 1447.79 1393.66 1445.27 Q1391.68 1442.76 1387.74 1442.76 Q1383 1442.76 1380.26 1445.78 Q1377.52 1448.81 1377.52 1454.03 L1377.52 1474.17 L1371.63 1474.17 L1371.63 1438.53 L1377.52 1438.53 L1377.52 1444.06 Q1379.62 1440.85 1382.45 1439.26 Q1385.32 1437.67 1389.04 1437.67 Q1395.19 1437.67 1398.34 1441.49 Q1401.49 1445.27 1401.49 1452.66 Z" fill="#000000" fill-rule="nonzero" fill-opacity="1" /><polyline clip-path="url(#clip660)" style="stroke:#000000; stroke-linecap:round; stroke-linejoin:round; stroke-width:4; stroke-opacity:1; fill:none" points="208.355,1329.31 208.355,47.2441 "/>
<polyline clip-path="url(#clip660)" style="stroke:#000000; stroke-linecap:round; stroke-linejoin:round; stroke-width:4; stroke-opacity:1; fill:none" points="208.355,1329.31 227.252,1329.31 "/>
<polyline clip-path="url(#clip660)" style="stroke:#000000; stroke-linecap:round; stroke-linejoin:round; stroke-width:4; stroke-opacity:1; fill:none" points="208.355,1115.63 227.252,1115.63 "/>
<polyline clip-path="url(#clip660)" style="stroke:#000000; stroke-linecap:round; stroke-linejoin:round; stroke-width:4; stroke-opacity:1; fill:none" points="208.355,901.955 227.252,901.955 "/>
<polyline clip-path="url(#clip660)" style="stroke:#000000; stroke-linecap:round; stroke-linejoin:round; stroke-width:4; stroke-opacity:1; fill:none" points="208.355,688.277 227.252,688.277 "/>
<polyline clip-path="url(#clip660)" style="stroke:#000000; stroke-linecap:round; stroke-linejoin:round; stroke-width:4; stroke-opacity:1; fill:none" points="208.355,474.599 227.252,474.599 "/>
<polyline clip-path="url(#clip660)" style="stroke:#000000; stroke-linecap:round; stroke-linejoin:round; stroke-width:4; stroke-opacity:1; fill:none" points="208.355,260.922 227.252,260.922 "/>
<polyline clip-path="url(#clip660)" style="stroke:#000000; stroke-linecap:round; stroke-linejoin:round; stroke-width:4; stroke-opacity:1; fill:none" points="208.355,47.2441 227.252,47.2441 "/>
<path clip-path="url(#clip660)" d="M111.29 1329.76 L140.966 1329.76 L140.966 1333.7 L111.29 1333.7 L111.29 1329.76 Z" fill="#000000" fill-rule="nonzero" fill-opacity="1" /><path clip-path="url(#clip660)" d="M165.225 1327.96 Q168.582 1328.67 170.457 1330.94 Q172.355 1333.21 172.355 1336.54 Q172.355 1341.66 168.836 1344.46 Q165.318 1347.26 158.836 1347.26 Q156.66 1347.26 154.345 1346.82 Q152.054 1346.4 149.6 1345.55 L149.6 1341.03 Q151.545 1342.17 153.859 1342.75 Q156.174 1343.33 158.697 1343.33 Q163.095 1343.33 165.387 1341.59 Q167.702 1339.85 167.702 1336.54 Q167.702 1333.49 165.549 1331.78 Q163.42 1330.04 159.6 1330.04 L155.572 1330.04 L155.572 1326.2 L159.785 1326.2 Q163.234 1326.2 165.063 1324.83 Q166.892 1323.44 166.892 1320.85 Q166.892 1318.19 164.994 1316.78 Q163.119 1315.34 159.6 1315.34 Q157.679 1315.34 155.48 1315.76 Q153.281 1316.17 150.642 1317.05 L150.642 1312.89 Q153.304 1312.15 155.619 1311.78 Q157.957 1311.4 160.017 1311.4 Q165.341 1311.4 168.443 1313.84 Q171.544 1316.24 171.544 1320.36 Q171.544 1323.23 169.901 1325.22 Q168.257 1327.19 165.225 1327.96 Z" fill="#000000" fill-rule="nonzero" fill-opacity="1" /><path clip-path="url(#clip660)" d="M112.239 1116.08 L141.915 1116.08 L141.915 1120.02 L112.239 1120.02 L112.239 1116.08 Z" fill="#000000" fill-rule="nonzero" fill-opacity="1" /><path clip-path="url(#clip660)" d="M156.035 1128.98 L172.355 1128.98 L172.355 1132.91 L150.41 1132.91 L150.41 1128.98 Q153.072 1126.22 157.656 1121.59 Q162.262 1116.94 163.443 1115.6 Q165.688 1113.07 166.568 1111.34 Q167.47 1109.58 167.47 1107.89 Q167.47 1105.13 165.526 1103.4 Q163.605 1101.66 160.503 1101.66 Q158.304 1101.66 155.85 1102.43 Q153.42 1103.19 150.642 1104.74 L150.642 1100.02 Q153.466 1098.88 155.92 1098.31 Q158.373 1097.73 160.41 1097.73 Q165.781 1097.73 168.975 1100.41 Q172.169 1103.1 172.169 1107.59 Q172.169 1109.72 171.359 1111.64 Q170.572 1113.54 168.466 1116.13 Q167.887 1116.8 164.785 1120.02 Q161.683 1123.21 156.035 1128.98 Z" fill="#000000" fill-rule="nonzero" fill-opacity="1" /><path clip-path="url(#clip660)" d="M111.869 902.406 L141.545 902.406 L141.545 906.341 L111.869 906.341 L111.869 902.406 Z" fill="#000000" fill-rule="nonzero" fill-opacity="1" /><path clip-path="url(#clip660)" d="M152.447 915.299 L160.086 915.299 L160.086 888.934 L151.776 890.6 L151.776 886.341 L160.04 884.675 L164.716 884.675 L164.716 915.299 L172.355 915.299 L172.355 919.235 L152.447 919.235 L152.447 915.299 Z" fill="#000000" fill-rule="nonzero" fill-opacity="1" /><path clip-path="url(#clip660)" d="M160.41 674.076 Q156.799 674.076 154.97 677.64 Q153.165 681.182 153.165 688.312 Q153.165 695.418 154.97 698.983 Q156.799 702.525 160.41 702.525 Q164.045 702.525 165.85 698.983 Q167.679 695.418 167.679 688.312 Q167.679 681.182 165.85 677.64 Q164.045 674.076 160.41 674.076 M160.41 670.372 Q166.22 670.372 169.276 674.978 Q172.355 679.562 172.355 688.312 Q172.355 697.038 169.276 701.645 Q166.22 706.228 160.41 706.228 Q154.6 706.228 151.521 701.645 Q148.466 697.038 148.466 688.312 Q148.466 679.562 151.521 674.978 Q154.6 670.372 160.41 670.372 Z" fill="#000000" fill-rule="nonzero" fill-opacity="1" /><path clip-path="url(#clip660)" d="M152.447 487.944 L160.086 487.944 L160.086 461.579 L151.776 463.245 L151.776 458.986 L160.04 457.319 L164.716 457.319 L164.716 487.944 L172.355 487.944 L172.355 491.879 L152.447 491.879 L152.447 487.944 Z" fill="#000000" fill-rule="nonzero" fill-opacity="1" /><path clip-path="url(#clip660)" d="M156.035 274.267 L172.355 274.267 L172.355 278.202 L150.41 278.202 L150.41 274.267 Q153.072 271.512 157.656 266.882 Q162.262 262.23 163.443 260.887 Q165.688 258.364 166.568 256.628 Q167.47 254.869 167.47 253.179 Q167.47 250.424 165.526 248.688 Q163.605 246.952 160.503 246.952 Q158.304 246.952 155.85 247.716 Q153.42 248.48 150.642 250.031 L150.642 245.308 Q153.466 244.174 155.92 243.595 Q158.373 243.017 160.41 243.017 Q165.781 243.017 168.975 245.702 Q172.169 248.387 172.169 252.878 Q172.169 255.007 171.359 256.929 Q170.572 258.827 168.466 261.419 Q167.887 262.091 164.785 265.308 Q161.683 268.503 156.035 274.267 Z" fill="#000000" fill-rule="nonzero" fill-opacity="1" /><path clip-path="url(#clip660)" d="M165.225 45.8899 Q168.582 46.6075 170.457 48.876 Q172.355 51.1445 172.355 54.4779 Q172.355 59.5936 168.836 62.3945 Q165.318 65.1954 158.836 65.1954 Q156.66 65.1954 154.345 64.7556 Q152.054 64.3389 149.6 63.4824 L149.6 58.9686 Q151.545 60.1028 153.859 60.6815 Q156.174 61.2602 158.697 61.2602 Q163.095 61.2602 165.387 59.5241 Q167.702 57.788 167.702 54.4779 Q167.702 51.4223 165.549 49.7094 Q163.42 47.9733 159.6 47.9733 L155.572 47.9733 L155.572 44.1307 L159.785 44.1307 Q163.234 44.1307 165.063 42.765 Q166.892 41.3761 166.892 38.7835 Q166.892 36.1215 164.994 34.7094 Q163.119 33.2743 159.6 33.2743 Q157.679 33.2743 155.48 33.6909 Q153.281 34.1076 150.642 34.9872 L150.642 30.8206 Q153.304 30.0798 155.619 29.7095 Q157.957 29.3391 160.017 29.3391 Q165.341 29.3391 168.443 31.7696 Q171.544 34.177 171.544 38.2974 Q171.544 41.1677 169.901 43.1585 Q168.257 45.1261 165.225 45.8899 Z" fill="#000000" fill-rule="nonzero" fill-opacity="1" /><path clip-path="url(#clip660)" d="M19.848 831.537 L43.4966 840.258 L43.4966 822.784 L19.848 831.537 M13.5142 835.166 L13.5142 827.877 L61.0342 809.766 L61.0342 816.45 L48.8438 820.779 L48.8438 842.2 L61.0342 846.528 L61.0342 853.308 L13.5142 835.166 Z" fill="#000000" fill-rule="nonzero" fill-opacity="1" /><path clip-path="url(#clip660)" d="M32.2293 775.328 Q28.2826 773.132 26.4047 770.076 Q24.5268 767.021 24.5268 762.883 Q24.5268 757.313 28.4417 754.289 Q32.3248 751.266 39.5181 751.266 L61.0342 751.266 L61.0342 757.154 L39.709 757.154 Q34.5846 757.154 32.102 758.968 Q29.6194 760.782 29.6194 764.506 Q29.6194 769.058 32.6431 771.7 Q35.6668 774.341 40.8867 774.341 L61.0342 774.341 L61.0342 780.23 L39.709 780.23 Q34.5528 780.23 32.102 782.044 Q29.6194 783.858 29.6194 787.646 Q29.6194 792.133 32.6749 794.775 Q35.6986 797.417 40.8867 797.417 L61.0342 797.417 L61.0342 803.305 L25.3862 803.305 L25.3862 797.417 L30.9244 797.417 Q27.646 795.412 26.0864 792.611 Q24.5268 789.81 24.5268 785.959 Q24.5268 782.076 26.5002 779.37 Q28.4736 776.633 32.2293 775.328 Z" fill="#000000" fill-rule="nonzero" fill-opacity="1" /><path clip-path="url(#clip660)" d="M55.687 733.919 L74.5931 733.919 L74.5931 739.807 L25.3862 739.807 L25.3862 733.919 L30.7971 733.919 Q27.6142 732.073 26.0864 729.272 Q24.5268 726.439 24.5268 722.524 Q24.5268 716.031 29.6831 711.989 Q34.8393 707.915 43.242 707.915 Q51.6447 707.915 56.801 711.989 Q61.9572 716.031 61.9572 722.524 Q61.9572 726.439 60.4294 729.272 Q58.8698 732.073 55.687 733.919 M43.242 713.994 Q36.7808 713.994 33.1205 716.668 Q29.4284 719.31 29.4284 723.957 Q29.4284 728.604 33.1205 731.277 Q36.7808 733.919 43.242 733.919 Q49.7032 733.919 53.3953 731.277 Q57.0556 728.604 57.0556 723.957 Q57.0556 719.31 53.3953 716.668 Q49.7032 713.994 43.242 713.994 Z" fill="#000000" fill-rule="nonzero" fill-opacity="1" /><path clip-path="url(#clip660)" d="M11.509 698.207 L11.509 692.351 L61.0342 692.351 L61.0342 698.207 L11.509 698.207 Z" fill="#000000" fill-rule="nonzero" fill-opacity="1" /><path clip-path="url(#clip660)" d="M25.3862 680.097 L25.3862 674.241 L61.0342 674.241 L61.0342 680.097 L25.3862 680.097 M11.509 680.097 L11.509 674.241 L18.925 674.241 L18.925 680.097 L11.509 680.097 Z" fill="#000000" fill-rule="nonzero" fill-opacity="1" /><path clip-path="url(#clip660)" d="M15.2647 656.194 L25.3862 656.194 L25.3862 644.131 L29.9377 644.131 L29.9377 656.194 L49.2894 656.194 Q53.6499 656.194 54.8913 655.016 Q56.1326 653.807 56.1326 650.146 L56.1326 644.131 L61.0342 644.131 L61.0342 650.146 Q61.0342 656.926 58.5197 659.504 Q55.9734 662.082 49.2894 662.082 L29.9377 662.082 L29.9377 666.379 L25.3862 666.379 L25.3862 662.082 L15.2647 662.082 L15.2647 656.194 Z" fill="#000000" fill-rule="nonzero" fill-opacity="1" /><path clip-path="url(#clip660)" d="M46.9659 637.033 L25.3862 637.033 L25.3862 631.177 L46.7431 631.177 Q51.8039 631.177 54.3502 629.203 Q56.8646 627.23 56.8646 623.283 Q56.8646 618.541 53.8409 615.803 Q50.8172 613.034 45.5973 613.034 L25.3862 613.034 L25.3862 607.178 L61.0342 607.178 L61.0342 613.034 L55.5596 613.034 Q58.8062 615.167 60.3976 618 Q61.9572 620.8 61.9572 624.524 Q61.9572 630.667 58.1378 633.85 Q54.3183 637.033 46.9659 637.033 M24.5268 622.296 L24.5268 622.296 Z" fill="#000000" fill-rule="nonzero" fill-opacity="1" /><path clip-path="url(#clip660)" d="M30.7971 571.657 L11.509 571.657 L11.509 565.801 L61.0342 565.801 L61.0342 571.657 L55.687 571.657 Q58.8698 573.503 60.4294 576.336 Q61.9572 579.137 61.9572 583.084 Q61.9572 589.545 56.801 593.619 Q51.6447 597.661 43.242 597.661 Q34.8393 597.661 29.6831 593.619 Q24.5268 589.545 24.5268 583.084 Q24.5268 579.137 26.0864 576.336 Q27.6142 573.503 30.7971 571.657 M43.242 591.614 Q49.7032 591.614 53.3953 588.972 Q57.0556 586.298 57.0556 581.651 Q57.0556 577.004 53.3953 574.331 Q49.7032 571.657 43.242 571.657 Q36.7808 571.657 33.1205 574.331 Q29.4284 577.004 29.4284 581.651 Q29.4284 586.298 33.1205 588.972 Q36.7808 591.614 43.242 591.614 Z" fill="#000000" fill-rule="nonzero" fill-opacity="1" /><path clip-path="url(#clip660)" d="M41.7461 523.246 L44.6106 523.246 L44.6106 550.173 Q50.6581 549.791 53.8409 546.545 Q56.9919 543.266 56.9919 537.442 Q56.9919 534.068 56.1644 530.917 Q55.3369 527.734 53.6818 524.615 L59.2199 524.615 Q60.5567 527.766 61.257 531.076 Q61.9572 534.386 61.9572 537.792 Q61.9572 546.322 56.9919 551.319 Q52.0267 556.284 43.5603 556.284 Q34.8074 556.284 29.6831 551.573 Q24.5268 546.831 24.5268 538.81 Q24.5268 531.617 29.1738 527.447 Q33.7889 523.246 41.7461 523.246 M40.0273 529.102 Q35.2212 529.166 32.3566 531.808 Q29.4921 534.418 29.4921 538.747 Q29.4921 543.648 32.2612 546.608 Q35.0302 549.536 40.0592 549.982 L40.0273 529.102 Z" fill="#000000" fill-rule="nonzero" fill-opacity="1" /><polyline clip-path="url(#clip662)" style="stroke:#000000; stroke-linecap:round; stroke-linejoin:round; stroke-width:4; stroke-opacity:1; fill:none" points="-1936.05,688.277 4497.16,688.277 "/>
<path clip-path="url(#clip662)" d="M1050.12 351.761 L1050.12 383.761 L1082.12 383.761 L1082.12 351.761 L1050.12 351.761 Z" fill="#ffff00" fill-rule="evenodd" fill-opacity="1" stroke="#000000" stroke-opacity="1" stroke-width="3"/>
<path clip-path="url(#clip662)" d="M1693.44 885.955 L1693.44 917.955 L1725.44 917.955 L1725.44 885.955 L1693.44 885.955 Z" fill="#ffff00" fill-rule="evenodd" fill-opacity="1" stroke="#000000" stroke-opacity="1" stroke-width="3"/>
<polyline clip-path="url(#clip662)" style="stroke:#008000; stroke-linecap:round; stroke-linejoin:round; stroke-width:4; stroke-opacity:1; fill:none" points="208.355,682.328 210.499,682.394 212.643,682.466 214.788,682.541 216.932,682.621 219.077,682.704 221.221,682.792 223.365,682.883 225.51,682.977 227.654,683.075 229.799,683.175 231.943,683.279 234.087,683.385 236.232,683.494 238.376,683.605 240.521,683.718 242.665,683.834 244.809,683.951 246.954,684.07 249.098,684.191 251.243,684.313 253.387,684.436 255.531,684.561 257.676,684.687 259.82,684.815 261.965,684.943 264.109,685.072 266.253,685.201 268.398,685.332 270.542,685.463 272.687,685.595 274.831,685.727 276.975,685.859 279.12,685.992 281.264,686.126 283.409,686.259 285.553,686.393 287.697,686.527 289.842,686.661 291.986,686.795 294.131,686.93 296.275,687.064 298.419,687.199 300.564,687.334 302.708,687.468 304.853,687.603 306.997,687.738 309.142,687.873 311.286,688.007 313.43,688.142 315.575,688.277 317.719,688.412 319.864,688.547 322.008,688.681 324.152,688.816 326.297,688.951 328.441,689.086 330.586,689.22 332.73,689.355 334.874,689.49 337.019,689.624 339.163,689.759 341.308,689.893 343.452,690.027 345.596,690.161 347.741,690.295 349.885,690.428 352.03,690.562 354.174,690.695 356.318,690.827 358.463,690.959 360.607,691.091 362.752,691.222 364.896,691.353 367.04,691.482 369.185,691.611 371.329,691.739 373.474,691.866 375.618,691.993 377.762,692.117 379.907,692.241 382.051,692.363 384.196,692.484 386.34,692.603 388.484,692.72 390.629,692.836 392.773,692.949 394.918,693.06 397.062,693.169 399.206,693.275 401.351,693.379 403.495,693.479 405.64,693.577 407.784,693.671 409.928,693.762 412.073,693.85 414.217,693.933 416.362,694.013 418.506,694.088 420.65,694.16 422.795,694.226 424.939,694.288 427.084,694.345 429.228,694.396 431.372,694.443 433.517,694.484 435.661,694.519 437.806,694.548 439.95,694.571 442.094,694.587 444.239,694.597 446.383,694.6 448.528,694.596 450.672,694.586 452.816,694.568 454.961,694.542 457.105,694.509 459.25,694.468 461.394,694.419 463.538,694.362 465.683,694.297 467.827,694.223 469.972,694.141 472.116,694.05 474.26,693.951 476.405,693.843 478.549,693.726 480.694,693.6 482.838,693.465 484.982,693.321 487.127,693.168 489.271,693.006 491.416,692.835 493.56,692.654 495.704,692.465 497.849,692.267 499.993,692.06 502.138,691.844 504.282,691.619 506.426,691.385 508.571,691.143 510.715,690.893 512.86,690.634 515.004,690.367 517.148,690.093 519.293,689.81 521.437,689.52 523.582,689.223 525.726,688.919 527.87,688.608 530.015,688.291 532.159,687.968 534.304,687.639 536.448,687.304 538.592,686.964 540.737,686.62 542.881,686.272 545.026,685.919 547.17,685.563 549.314,685.204 551.459,684.843 553.603,684.479 555.748,684.114 557.892,683.748 560.036,683.381 562.181,683.014 564.325,682.648 566.47,682.283 568.614,681.919 570.758,681.557 572.903,681.199 575.047,680.843 577.192,680.492 579.336,680.145 581.48,679.803 583.625,679.467 585.769,679.138 587.914,678.816 590.058,678.501 592.202,678.194 594.347,677.897 596.491,677.609 598.636,677.332 600.78,677.065 602.924,676.81 605.069,676.567 607.213,676.336 609.358,676.119 611.502,675.916 613.646,675.727 615.791,675.554 617.935,675.396 620.08,675.255 622.224,675.13 624.368,675.023 626.513,674.934 628.657,674.863 630.802,674.811 632.946,674.778 635.09,674.765 637.235,674.773 639.379,674.801 641.524,674.85 643.668,674.92 645.813,675.013 647.957,675.127 650.101,675.264 652.246,675.423 654.39,675.605 656.535,675.81 658.679,676.038 660.823,676.289 662.968,676.564 665.112,676.862 667.257,677.184 669.401,677.53 671.545,677.898 673.69,678.29 675.834,678.706 677.979,679.144 680.123,679.606 682.267,680.09 684.412,680.596 686.556,681.125 688.701,681.675 690.845,682.247 692.989,682.84 695.134,683.453 697.278,684.087 699.423,684.739 701.567,685.411 703.711,686.101 705.856,686.808 708,687.532 710.145,688.272 712.289,689.028 714.433,689.798 716.578,690.582 718.722,691.378 720.867,692.186 723.011,693.005 725.155,693.833 727.3,694.671 729.444,695.515 731.589,696.367 733.733,697.223 735.877,698.084 738.022,698.947 740.166,699.812 742.311,700.677 744.455,701.542 746.599,702.404 748.744,703.262 750.888,704.115 753.033,704.961 755.177,705.8 757.321,706.629 759.466,707.447 761.61,708.253 763.755,709.044 765.899,709.82 768.043,710.58 770.188,711.32 772.332,712.04 774.477,712.739 776.621,713.414 778.765,714.065 780.91,714.688 783.054,715.284 785.199,715.85 787.343,716.385 789.487,716.887 791.632,717.355 793.776,717.787 795.921,718.181 798.065,718.537 800.209,718.852 802.354,719.125 804.498,719.354 806.643,719.539 808.787,719.677 810.931,719.768 813.076,719.809 815.22,719.8 817.365,719.74 819.509,719.626 821.653,719.459 823.798,719.236 825.942,718.956 828.087,718.619 830.231,718.224 832.375,717.768 834.52,717.252 836.664,716.674 838.809,716.034 840.953,715.331 843.097,714.564 845.242,713.732 847.386,712.835 849.531,711.873 851.675,710.843 853.819,709.747 855.964,708.584 858.108,707.354 860.253,706.056 862.397,704.69 864.541,703.256 866.686,701.754 868.83,700.184 870.975,698.546 873.119,696.841 875.263,695.068 877.408,693.228 879.552,691.322 881.697,689.349 883.841,687.311 885.985,685.208 888.13,683.041 890.274,680.81 892.419,678.517 894.563,676.162 896.707,673.747 898.852,671.272 900.996,668.739 903.141,666.149 905.285,663.504 907.429,660.804 909.574,658.051 911.718,655.247 913.863,652.393 916.007,649.492 918.151,646.544 920.296,643.553 922.44,640.518 924.585,637.444 926.729,634.331 928.873,631.182 931.018,627.998 933.162,624.783 935.307,621.538 937.451,618.266 939.595,614.969 941.74,611.65 943.884,608.31 946.029,604.953 948.173,601.582 950.317,598.198 952.462,594.805 954.606,591.405 956.751,588.001 958.895,584.596 961.039,581.192 963.184,577.793 965.328,574.401 967.473,571.019 969.617,567.65 971.761,564.297 973.906,560.963 976.05,557.651 978.195,554.364 980.339,551.104 982.484,547.875 984.628,544.68 986.772,541.522 988.917,538.403 991.061,535.327 993.206,532.296 995.35,529.314 997.494,526.383 999.639,523.505 1001.78,520.685 1003.93,517.925 1006.07,515.227 1008.22,512.594 1010.36,510.029 1012.51,507.535 1014.65,505.113 1016.79,502.768 1018.94,500.5 1021.08,498.314 1023.23,496.21 1025.37,494.192 1027.52,492.261 1029.66,490.42 1031.8,488.67 1033.95,487.015 1036.09,485.456 1038.24,483.994 1040.38,482.632 1042.53,481.372 1044.67,480.214 1046.82,479.161 1048.96,478.214 1051.1,477.374 1053.25,476.643 1055.39,476.022 1057.54,475.512 1059.68,475.114 1061.83,474.828 1063.97,474.657 1066.12,474.599 1068.26,474.657 1070.4,474.83 1072.55,475.119 1074.69,475.523 1076.84,476.044 1078.98,476.681 1081.13,477.435 1083.27,478.304 1085.41,479.289 1087.56,480.389 1089.7,481.604 1091.85,482.933 1093.99,484.376 1096.14,485.931 1098.28,487.598 1100.43,489.376 1102.57,491.263 1104.71,493.258 1106.86,495.36 1109,497.567 1111.15,499.878 1113.29,502.29 1115.44,504.803 1117.58,507.414 1119.73,510.121 1121.87,512.923 1124.01,515.816 1126.16,518.799 1128.3,521.869 1130.45,525.024 1132.59,528.261 1134.74,531.577 1136.88,534.97 1139.02,538.438 1141.17,541.976 1143.31,545.582 1145.46,549.253 1147.6,552.987 1149.75,556.779 1151.89,560.626 1154.04,564.526 1156.18,568.474 1158.32,572.468 1160.47,576.504 1162.61,580.578 1164.76,584.688 1166.9,588.828 1169.05,592.996 1171.19,597.188 1173.34,601.401 1175.48,605.63 1177.62,609.872 1179.77,614.123 1181.91,618.379 1184.06,622.637 1186.2,626.893 1188.35,631.143 1190.49,635.384 1192.63,639.61 1194.78,643.82 1196.92,648.008 1199.07,652.172 1201.21,656.308 1203.36,660.411 1205.5,664.479 1207.65,668.508 1209.79,672.493 1211.93,676.433 1214.08,680.322 1216.22,684.159 1218.37,687.938 1220.51,691.658 1222.66,695.315 1224.8,698.905 1226.95,702.426 1229.09,705.875 1231.23,709.248 1233.38,712.543 1235.52,715.756 1237.67,718.886 1239.81,721.93 1241.96,724.884 1244.1,727.747 1246.24,730.516 1248.39,733.19 1250.53,735.765 1252.68,738.24 1254.82,740.613 1256.97,742.882 1259.11,745.045 1261.26,747.101 1263.4,749.049 1265.54,750.886 1267.69,752.612 1269.83,754.226 1271.98,755.726 1274.12,757.112 1276.27,758.382 1278.41,759.537 1280.56,760.576 1282.7,761.498 1284.84,762.304 1286.99,762.992 1289.13,763.563 1291.28,764.018 1293.42,764.356 1295.57,764.577 1297.71,764.683 1299.85,764.674 1302,764.55 1304.14,764.313 1306.29,763.964 1308.43,763.503 1310.58,762.932 1312.72,762.253 1314.87,761.466 1317.01,760.573 1319.15,759.577 1321.3,758.479 1323.44,757.28 1325.59,755.983 1327.73,754.591 1329.88,753.105 1332.02,751.528 1334.17,749.861 1336.31,748.109 1338.45,746.273 1340.6,744.357 1342.74,742.362 1344.89,740.292 1347.03,738.151 1349.18,735.94 1351.32,733.664 1353.46,731.326 1355.61,728.928 1357.75,726.474 1359.9,723.968 1362.04,721.413 1364.19,718.813 1366.33,716.171 1368.48,713.491 1370.62,710.777 1372.76,708.032 1374.91,705.26 1377.05,702.465 1379.2,699.65 1381.34,696.821 1383.49,693.979 1385.63,691.13 1387.78,688.277 1389.92,685.424 1392.06,682.575 1394.21,679.733 1396.35,676.903 1398.5,674.089 1400.64,671.294 1402.79,668.522 1404.93,665.777 1407.07,663.063 1409.22,660.383 1411.36,657.741 1413.51,655.141 1415.65,652.586 1417.8,650.08 1419.94,647.626 1422.09,645.228 1424.23,642.89 1426.37,640.614 1428.52,638.403 1430.66,636.261 1432.81,634.192 1434.95,632.197 1437.1,630.281 1439.24,628.445 1441.39,626.693 1443.53,625.026 1445.67,623.449 1447.82,621.963 1449.96,620.571 1452.11,619.274 1454.25,618.075 1456.4,616.977 1458.54,615.981 1460.68,615.088 1462.83,614.301 1464.97,613.622 1467.12,613.051 1469.26,612.59 1471.41,612.24 1473.55,612.003 1475.7,611.88 1477.84,611.871 1479.98,611.977 1482.13,612.198 1484.27,612.536 1486.42,612.991 1488.56,613.562 1490.71,614.25 1492.85,615.056 1495,615.978 1497.14,617.017 1499.28,618.172 1501.43,619.442 1503.57,620.828 1505.72,622.328 1507.86,623.942 1510.01,625.668 1512.15,627.505 1514.3,629.453 1516.44,631.509 1518.58,633.672 1520.73,635.941 1522.87,638.314 1525.02,640.789 1527.16,643.364 1529.31,646.038 1531.45,648.807 1533.59,651.67 1535.74,654.624 1537.88,657.668 1540.03,660.798 1542.17,664.011 1544.32,667.306 1546.46,670.679 1548.61,674.128 1550.75,677.649 1552.89,681.239 1555.04,684.896 1557.18,688.616 1559.33,692.395 1561.47,696.232 1563.62,700.121 1565.76,704.061 1567.91,708.046 1570.05,712.075 1572.19,716.143 1574.34,720.246 1576.48,724.382 1578.63,728.546 1580.77,732.734 1582.92,736.944 1585.06,741.17 1587.2,745.411 1589.35,749.661 1591.49,753.916 1593.64,758.175 1595.78,762.431 1597.93,766.682 1600.07,770.924 1602.22,775.153 1604.36,779.366 1606.5,783.558 1608.65,787.726 1610.79,791.866 1612.94,795.976 1615.08,800.05 1617.23,804.086 1619.37,808.08 1621.52,812.028 1623.66,815.928 1625.8,819.775 1627.95,823.567 1630.09,827.301 1632.24,830.972 1634.38,834.578 1636.53,838.116 1638.67,841.584 1640.81,844.977 1642.96,848.293 1645.1,851.53 1647.25,854.685 1649.39,857.755 1651.54,860.738 1653.68,863.631 1655.83,866.433 1657.97,869.14 1660.11,871.751 1662.26,874.264 1664.4,876.676 1666.55,878.987 1668.69,881.194 1670.84,883.296 1672.98,885.291 1675.13,887.178 1677.27,888.956 1679.41,890.623 1681.56,892.178 1683.7,893.62 1685.85,894.95 1687.99,896.165 1690.14,897.265 1692.28,898.25 1694.42,899.119 1696.57,899.873 1698.71,900.51 1700.86,901.031 1703,901.435 1705.15,901.724 1707.29,901.897 1709.44,901.955 1711.58,901.897 1713.72,901.726 1715.87,901.44 1718.01,901.042 1720.16,900.532 1722.3,899.911 1724.45,899.18 1726.59,898.34 1728.74,897.393 1730.88,896.34 1733.02,895.182 1735.17,893.922 1737.31,892.56 1739.46,891.098 1741.6,889.539 1743.75,887.884 1745.89,886.134 1748.03,884.293 1750.18,882.362 1752.32,880.344 1754.47,878.24 1756.61,876.053 1758.76,873.786 1760.9,871.441 1763.05,869.019 1765.19,866.525 1767.33,863.96 1769.48,861.327 1771.62,858.629 1773.77,855.869 1775.91,853.049 1778.06,850.171 1780.2,847.24 1782.35,844.258 1784.49,841.227 1786.63,838.151 1788.78,835.032 1790.92,831.873 1793.07,828.678 1795.21,825.45 1797.36,822.19 1799.5,818.903 1801.64,815.591 1803.79,812.257 1805.93,808.904 1808.08,805.535 1810.22,802.153 1812.37,798.761 1814.51,795.362 1816.66,791.958 1818.8,788.553 1820.94,785.149 1823.09,781.749 1825.23,778.356 1827.38,774.972 1829.52,771.601 1831.67,768.244 1833.81,764.904 1835.96,761.585 1838.1,758.288 1840.24,755.016 1842.39,751.771 1844.53,748.556 1846.68,745.372 1848.82,742.223 1850.97,739.11 1853.11,736.036 1855.25,733.001 1857.4,730.009 1859.54,727.062 1861.69,724.16 1863.83,721.307 1865.98,718.503 1868.12,715.75 1870.27,713.05 1872.41,710.405 1874.55,707.815 1876.7,705.282 1878.84,702.807 1880.99,700.392 1883.13,698.037 1885.28,695.744 1887.42,693.513 1889.57,691.346 1891.71,689.243 1893.85,687.205 1896,685.232 1898.14,683.326 1900.29,681.486 1902.43,679.713 1904.58,678.008 1906.72,676.37 1908.86,674.8 1911.01,673.298 1913.15,671.864 1915.3,670.498 1917.44,669.2 1919.59,667.97 1921.73,666.806 1923.88,665.711 1926.02,664.681 1928.16,663.719 1930.31,662.822 1932.45,661.99 1934.6,661.223 1936.74,660.52 1938.89,659.88 1941.03,659.302 1943.18,658.786 1945.32,658.33 1947.46,657.935 1949.61,657.598 1951.75,657.318 1953.9,657.095 1956.04,656.927 1958.19,656.814 1960.33,656.754 1962.47,656.745 1964.62,656.786 1966.76,656.877 1968.91,657.015 1971.05,657.2 1973.2,657.429 1975.34,657.702 1977.49,658.017 1979.63,658.373 1981.77,658.767 1983.92,659.199 1986.06,659.667 1988.21,660.169 1990.35,660.704 1992.5,661.27 1994.64,661.866 1996.79,662.489 1998.93,663.14 2001.07,663.815 2003.22,664.514 2005.36,665.234 2007.51,665.974 2009.65,666.733 2011.8,667.51 2013.94,668.301 2016.08,669.107 2018.23,669.925 2020.37,670.754 2022.52,671.592 2024.66,672.439 2026.81,673.292 2028.95,674.15 2031.1,675.012 2033.24,675.877 2035.38,676.742 2037.53,677.607 2039.67,678.47 2041.82,679.331 2043.96,680.187 2046.11,681.039 2048.25,681.883 2050.4,682.721 2052.54,683.549 2054.68,684.368 2056.83,685.176 2058.97,685.972 2061.12,686.756 2063.26,687.526 2065.41,688.282 2067.55,689.022 2069.69,689.746 2071.84,690.453 2073.98,691.143 2076.13,691.815 2078.27,692.467 2080.42,693.101 2082.56,693.714 2084.71,694.307 2086.85,694.879 2088.99,695.429 2091.14,695.958 2093.28,696.464 2095.43,696.948 2097.57,697.41 2099.72,697.848 2101.86,698.264 2104.01,698.656 2106.15,699.024 2108.29,699.37 2110.44,699.692 2112.58,699.99 2114.73,700.265 2116.87,700.516 2119.02,700.744 2121.16,700.949 2123.3,701.131 2125.45,701.29 2127.59,701.427 2129.74,701.541 2131.88,701.634 2134.03,701.704 2136.17,701.753 2138.32,701.781 2140.46,701.789 2142.6,701.776 2144.75,701.743 2146.89,701.691 2149.04,701.62 2151.18,701.531 2153.33,701.424 2155.47,701.299 2157.62,701.158 2159.76,701 2161.9,700.827 2164.05,700.638 2166.19,700.435 2168.34,700.218 2170.48,699.987 2172.63,699.744 2174.77,699.489 2176.92,699.222 2179.06,698.945 2181.2,698.657 2183.35,698.359 2185.49,698.053 2187.64,697.738 2189.78,697.416 2191.93,697.087 2194.07,696.751 2196.21,696.409 2198.36,696.062 2200.5,695.711 2202.65,695.355 2204.79,694.997 2206.94,694.635 2209.08,694.271 2211.23,693.906 2213.37,693.54 2215.51,693.173 2217.66,692.806 2219.8,692.44 2221.95,692.075 2224.09,691.711 2226.24,691.35 2228.38,690.991 2230.53,690.635 2232.67,690.282 2234.81,689.934 2236.96,689.59 2239.1,689.25 2241.25,688.915 2243.39,688.586 2245.54,688.263 2247.68,687.946 2249.82,687.635 2251.97,687.331 2254.11,687.034 2256.26,686.744 2258.4,686.461 2260.55,686.187 2262.69,685.92 2264.84,685.661 2266.98,685.411 2269.12,685.168 2271.27,684.935 2273.41,684.71 2275.56,684.494 2277.7,684.287 2279.85,684.089 2281.99,683.899 2284.14,683.719 2286.28,683.548 2288.42,683.386 2290.57,683.233 2292.71,683.089 2294.86,682.954 2297,682.828 2299.15,682.711 2301.29,682.603 2303.43,682.504 2305.58,682.413 2307.72,682.331 2309.87,682.257 2312.01,682.192 2314.16,682.135 2316.3,682.086 2318.45,682.045 2320.59,682.012 2322.73,681.986 2324.88,681.968 2327.02,681.957 2329.17,681.954 2331.31,681.957 2333.46,681.967 2335.6,681.983 2337.75,682.006 2339.89,682.035 2342.03,682.07 2344.18,682.111 2346.32,682.157 2348.47,682.209 2350.61,682.266 2352.76,682.328 "/>
<polyline clip-path="url(#clip662)" style="stroke:#000000; stroke-linecap:round; stroke-linejoin:round; stroke-width:4; stroke-opacity:1; fill:none" stroke-dasharray="16, 10" points="-1936.05,474.599 4497.16,474.599 "/>
<polyline clip-path="url(#clip662)" style="stroke:#000000; stroke-linecap:round; stroke-linejoin:round; stroke-width:4; stroke-opacity:1; fill:none" stroke-dasharray="16, 10" points="-1936.05,901.955 4497.16,901.955 "/>
<polyline clip-path="url(#clip662)" style="stroke:#800080; stroke-linecap:round; stroke-linejoin:round; stroke-width:4; stroke-opacity:1; fill:none" points="208.355,651.469 210.499,658.076 212.643,664.714 214.788,671.378 216.932,678.06 219.077,684.754 221.221,691.453 223.365,698.149 225.51,704.837 227.654,711.51 229.799,718.16 231.943,724.781 234.087,731.367 236.232,737.91 238.376,744.405 240.521,750.844 242.665,757.221 244.809,763.53 246.954,769.764 249.098,775.917 251.243,781.983 253.387,787.956 255.531,793.83 257.676,799.599 259.82,805.257 261.965,810.799 264.109,816.219 266.253,821.512 268.398,826.673 270.542,831.696 272.687,836.578 274.831,841.312 276.975,845.895 279.12,850.323 281.264,854.59 283.409,858.693 285.553,862.629 287.697,866.393 289.842,869.982 291.986,873.393 294.131,876.622 296.275,879.668 298.419,882.527 300.564,885.196 302.708,887.674 304.853,889.959 306.997,892.048 309.142,893.941 311.286,895.635 313.43,897.13 315.575,898.424 317.719,899.517 319.864,900.408 322.008,901.098 324.152,901.585 326.297,901.87 328.441,901.954 330.586,901.836 332.73,901.518 334.874,901.001 337.019,900.285 339.163,899.373 341.308,898.265 343.452,896.963 345.596,895.47 347.741,893.787 349.885,891.917 352.03,889.862 354.174,887.625 356.318,885.209 358.463,882.617 360.607,879.852 362.752,876.917 364.896,873.816 367.04,870.553 369.185,867.131 371.329,863.555 373.474,859.828 375.618,855.954 377.762,851.939 379.907,847.786 382.051,843.5 384.196,839.086 386.34,834.547 388.484,829.891 390.629,825.12 392.773,820.24 394.918,815.257 397.062,810.175 399.206,805 401.351,799.737 403.495,794.39 405.64,788.967 407.784,783.471 409.928,777.908 412.073,772.284 414.217,766.604 416.362,760.874 418.506,755.099 420.65,749.284 422.795,743.435 424.939,737.557 427.084,731.656 429.228,725.736 431.372,719.804 433.517,713.864 435.661,707.921 437.806,701.982 439.95,696.05 442.094,690.13 444.239,684.228 446.383,678.349 448.528,672.497 450.672,666.677 452.816,660.893 454.961,655.15 457.105,649.452 459.25,643.804 461.394,638.209 463.538,632.672 465.683,627.196 467.827,621.786 469.972,616.445 472.116,611.176 474.26,605.983 476.405,600.869 478.549,595.837 480.694,590.89 482.838,586.031 484.982,581.262 487.127,576.587 489.271,572.007 491.416,567.525 493.56,563.143 495.704,558.862 497.849,554.684 499.993,550.612 502.138,546.646 504.282,542.789 506.426,539.04 508.571,535.401 510.715,531.872 512.86,528.456 515.004,525.151 517.148,521.959 519.293,518.879 521.437,515.913 523.582,513.059 525.726,510.318 527.87,507.689 530.015,505.171 532.159,502.766 534.304,500.47 536.448,498.284 538.592,496.207 540.737,494.238 542.881,492.375 545.026,490.617 547.17,488.963 549.314,487.41 551.459,485.958 553.603,484.605 555.748,483.349 557.892,482.187 560.036,481.119 562.181,480.141 564.325,479.251 566.47,478.448 568.614,477.729 570.758,477.091 572.903,476.533 575.047,476.051 577.192,475.643 579.336,475.306 581.48,475.038 583.625,474.837 585.769,474.698 587.914,474.62 590.058,474.6 592.202,474.635 594.347,474.722 596.491,474.858 598.636,475.041 600.78,475.268 602.924,475.535 605.069,475.841 607.213,476.182 609.358,476.556 611.502,476.959 613.646,477.39 615.791,477.845 617.935,478.321 620.08,478.817 622.224,479.33 624.368,479.856 626.513,480.394 628.657,480.941 630.802,481.495 632.946,482.053 635.09,482.614 637.235,483.174 639.379,483.733 641.524,484.287 643.668,484.835 645.813,485.375 647.957,485.906 650.101,486.424 652.246,486.93 654.39,487.42 656.535,487.895 658.679,488.351 660.823,488.789 662.968,489.206 665.112,489.602 667.257,489.975 669.401,490.325 671.545,490.65 673.69,490.95 675.834,491.224 677.979,491.472 680.123,491.693 682.267,491.886 684.412,492.051 686.556,492.189 688.701,492.298 690.845,492.379 692.989,492.431 695.134,492.455 697.278,492.451 699.423,492.419 701.567,492.359 703.711,492.272 705.856,492.158 708,492.018 710.145,491.852 712.289,491.661 714.433,491.446 716.578,491.207 718.722,490.946 720.867,490.662 723.011,490.358 725.155,490.034 727.3,489.691 729.444,489.331 731.589,488.953 733.733,488.561 735.877,488.154 738.022,487.734 740.166,487.302 742.311,486.86 744.455,486.409 746.599,485.949 748.744,485.484 750.888,485.013 753.033,484.538 755.177,484.06 757.321,483.582 759.466,483.104 761.61,482.627 763.755,482.153 765.899,481.684 768.043,481.22 770.188,480.763 772.332,480.314 774.477,479.874 776.621,479.445 778.765,479.027 780.91,478.623 783.054,478.232 785.199,477.857 787.343,477.498 789.487,477.155 791.632,476.831 793.776,476.526 795.921,476.241 798.065,475.977 800.209,475.734 802.354,475.513 804.498,475.314 806.643,475.139 808.787,474.988 810.931,474.861 813.076,474.759 815.22,474.682 817.365,474.63 819.509,474.603 821.653,474.602 823.798,474.627 825.942,474.677 828.087,474.754 830.231,474.855 832.375,474.982 834.52,475.134 836.664,475.311 838.809,475.513 840.953,475.738 843.097,475.986 845.242,476.258 847.386,476.552 849.531,476.867 851.675,477.204 853.819,477.56 855.964,477.936 858.108,478.329 860.253,478.741 862.397,479.168 864.541,479.611 866.686,480.068 868.83,480.538 870.975,481.021 873.119,481.514 875.263,482.016 877.408,482.527 879.552,483.045 881.697,483.568 883.841,484.096 885.985,484.626 888.13,485.158 890.274,485.691 892.419,486.222 894.563,486.751 896.707,487.275 898.852,487.795 900.996,488.307 903.141,488.812 905.285,489.307 907.429,489.791 909.574,490.262 911.718,490.721 913.863,491.164 916.007,491.591 918.151,492.001 920.296,492.393 922.44,492.765 924.585,493.115 926.729,493.445 928.873,493.751 931.018,494.033 933.162,494.29 935.307,494.522 937.451,494.727 939.595,494.905 941.74,495.055 943.884,495.176 946.029,495.269 948.173,495.331 950.317,495.364 952.462,495.367 954.606,495.339 956.751,495.28 958.895,495.19 961.039,495.07 963.184,494.919 965.328,494.737 967.473,494.526 969.617,494.284 971.761,494.013 973.906,493.713 976.05,493.384 978.195,493.028 980.339,492.646 982.484,492.237 984.628,491.803 986.772,491.346 988.917,490.865 991.061,490.364 993.206,489.842 995.35,489.302 997.494,488.744 999.639,488.171 1001.78,487.584 1003.93,486.985 1006.07,486.376 1008.22,485.759 1010.36,485.135 1012.51,484.507 1014.65,483.877 1016.79,483.248 1018.94,482.621 1021.08,481.998 1023.23,481.383 1025.37,480.778 1027.52,480.185 1029.66,479.607 1031.8,479.047 1033.95,478.507 1036.09,477.989 1038.24,477.498 1040.38,477.035 1042.53,476.603 1044.67,476.205 1046.82,475.845 1048.96,475.524 1051.1,475.246 1053.25,475.014 1055.39,474.83 1057.54,474.698 1059.68,474.621 1061.83,474.6 1063.97,474.64 1066.12,474.742 1068.26,474.911 1070.4,475.147 1072.55,475.456 1074.69,475.838 1076.84,476.297 1078.98,476.835 1081.13,477.455 1083.27,478.159 1085.41,478.95 1087.56,479.831 1089.7,480.802 1091.85,481.868 1093.99,483.029 1096.14,484.287 1098.28,485.646 1100.43,487.106 1102.57,488.669 1104.71,490.337 1106.86,492.112 1109,493.995 1111.15,495.987 1113.29,498.089 1115.44,500.303 1117.58,502.629 1119.73,505.068 1121.87,507.621 1124.01,510.288 1126.16,513.07 1128.3,515.967 1130.45,518.979 1132.59,522.107 1134.74,525.349 1136.88,528.705 1139.02,532.176 1141.17,535.76 1143.31,539.457 1145.46,543.265 1147.6,547.184 1149.75,551.212 1151.89,555.348 1154.04,559.59 1156.18,563.937 1158.32,568.387 1160.47,572.937 1162.61,577.586 1164.76,582.33 1166.9,587.169 1169.05,592.098 1171.19,597.115 1173.34,602.217 1175.48,607.402 1177.62,612.665 1179.77,618.004 1181.91,623.414 1184.06,628.893 1186.2,634.436 1188.35,640.04 1190.49,645.7 1192.63,651.413 1194.78,657.174 1196.92,662.978 1199.07,668.821 1201.21,674.699 1203.36,680.607 1205.5,686.54 1207.65,692.493 1209.79,698.461 1211.93,704.44 1214.08,710.423 1216.22,716.406 1218.37,722.384 1220.51,728.351 1222.66,734.302 1224.8,740.232 1226.95,746.135 1229.09,752.005 1231.23,757.838 1233.38,763.627 1235.52,769.367 1237.67,775.053 1239.81,780.679 1241.96,786.24 1244.1,791.73 1246.24,797.144 1248.39,802.476 1250.53,807.721 1252.68,812.873 1254.82,817.928 1256.97,822.88 1259.11,827.723 1261.26,832.454 1263.4,837.066 1265.54,841.555 1267.69,845.917 1269.83,850.145 1271.98,854.237 1274.12,858.186 1276.27,861.99 1278.41,865.643 1280.56,869.141 1282.7,872.481 1284.84,875.659 1286.99,878.671 1289.13,881.513 1291.28,884.182 1293.42,886.675 1295.57,888.989 1297.71,891.12 1299.85,893.067 1302,894.827 1304.14,896.397 1306.29,897.776 1308.43,898.961 1310.58,899.951 1312.72,900.744 1314.87,901.34 1317.01,901.736 1319.15,901.932 1321.3,901.927 1323.44,901.722 1325.59,901.315 1327.73,900.707 1329.88,899.897 1332.02,898.888 1334.17,897.678 1336.31,896.269 1338.45,894.663 1340.6,892.86 1342.74,890.862 1344.89,888.671 1347.03,886.289 1349.18,883.718 1351.32,880.96 1353.46,878.019 1355.61,874.897 1357.75,871.598 1359.9,868.124 1362.04,864.48 1364.19,860.668 1366.33,856.694 1368.48,852.56 1370.62,848.272 1372.76,843.834 1374.91,839.251 1377.05,834.527 1379.2,829.668 1381.34,824.679 1383.49,819.566 1385.63,814.333 1387.78,808.987 1389.92,803.533 1392.06,797.978 1394.21,792.328 1396.35,786.589 1398.5,780.767 1400.64,774.869 1402.79,768.902 1404.93,762.871 1407.07,756.785 1409.22,750.65 1411.36,744.472 1413.51,738.26 1415.65,732.02 1417.8,725.758 1419.94,719.484 1422.09,713.202 1424.23,706.922 1426.37,700.649 1428.52,694.392 1430.66,688.158 1432.81,681.953 1434.95,675.785 1437.1,669.662 1439.24,663.59 1441.39,657.577 1443.53,651.629 1445.67,645.755 1447.82,639.959 1449.96,634.251 1452.11,628.635 1454.25,623.12 1456.4,617.711 1458.54,612.415 1460.68,607.238 1462.83,602.187 1464.97,597.268 1467.12,592.486 1469.26,587.847 1471.41,583.357 1473.55,579.022 1475.7,574.846 1477.84,570.836 1479.98,566.994 1482.13,563.328 1484.27,559.84 1486.42,556.535 1488.56,553.418 1490.71,550.492 1492.85,547.761 1495,545.228 1497.14,542.896 1499.28,540.77 1501.43,538.85 1503.57,537.14 1505.72,535.642 1507.86,534.358 1510.01,533.29 1512.15,532.438 1514.3,531.805 1516.44,531.392 1518.58,531.198 1520.73,531.225 1522.87,531.472 1525.02,531.94 1527.16,532.628 1529.31,533.535 1531.45,534.662 1533.59,536.005 1535.74,537.565 1537.88,539.338 1540.03,541.325 1542.17,543.521 1544.32,545.925 1546.46,548.534 1548.61,551.345 1550.75,554.355 1552.89,557.561 1555.04,560.957 1557.18,564.542 1559.33,568.31 1561.47,572.257 1563.62,576.379 1565.76,580.67 1567.91,585.126 1570.05,589.742 1572.19,594.511 1574.34,599.428 1576.48,604.488 1578.63,609.684 1580.77,615.011 1582.92,620.461 1585.06,626.029 1587.2,631.707 1589.35,637.489 1591.49,643.368 1593.64,649.337 1595.78,655.389 1597.93,661.516 1600.07,667.712 1602.22,673.967 1604.36,680.276 1606.5,686.63 1608.65,693.022 1610.79,699.444 1612.94,705.888 1615.08,712.346 1617.23,718.811 1619.37,725.275 1621.52,731.729 1623.66,738.166 1625.8,744.578 1627.95,750.958 1630.09,757.296 1632.24,763.587 1634.38,769.821 1636.53,775.992 1638.67,782.091 1640.81,788.112 1642.96,794.046 1645.1,799.888 1647.25,805.628 1649.39,811.261 1651.54,816.779 1653.68,822.175 1655.83,827.443 1657.97,832.577 1660.11,837.569 1662.26,842.414 1664.4,847.106 1666.55,851.638 1668.69,856.006 1670.84,860.203 1672.98,864.225 1675.13,868.065 1677.27,871.721 1679.41,875.186 1681.56,878.457 1683.7,881.529 1685.85,884.398 1687.99,887.061 1690.14,889.514 1692.28,891.754 1694.42,893.778 1696.57,895.583 1698.71,897.168 1700.86,898.529 1703,899.665 1705.15,900.574 1707.29,901.256 1709.44,901.708 1711.58,901.93 1713.72,901.921 1715.87,901.682 1718.01,901.212 1720.16,900.512 1722.3,899.581 1724.45,898.422 1726.59,897.035 1728.74,895.421 1730.88,893.582 1733.02,891.52 1735.17,889.237 1737.31,886.735 1739.46,884.018 1741.6,881.089 1743.75,877.949 1745.89,874.604 1748.03,871.056 1750.18,867.309 1752.32,863.368 1754.47,859.237 1756.61,854.921 1758.76,850.424 1760.9,845.752 1763.05,840.909 1765.19,835.902 1767.33,830.735 1769.48,825.414 1771.62,819.946 1773.77,814.337 1775.91,808.593 1778.06,802.72 1780.2,796.724 1782.35,790.614 1784.49,784.395 1786.63,778.074 1788.78,771.659 1790.92,765.156 1793.07,758.574 1795.21,751.918 1797.36,745.198 1799.5,738.419 1801.64,731.59 1803.79,724.718 1805.93,717.811 1808.08,710.876 1810.22,703.921 1812.37,696.954 1814.51,689.982 1816.66,683.013 1818.8,676.054 1820.94,669.113 1823.09,662.198 1825.23,655.316 1827.38,648.474 1829.52,641.679 1831.67,634.94 1833.81,628.262 1835.96,621.654 1838.1,615.122 1840.24,608.672 1842.39,602.312 1844.53,596.048 1846.68,589.887 1848.82,583.835 1850.97,577.897 1853.11,572.08 1855.25,566.39 1857.4,560.832 1859.54,555.412 1861.69,550.135 1863.83,545.006 1865.98,540.029 1868.12,535.21 1870.27,530.553 1872.41,526.061 1874.55,521.74 1876.7,517.592 1878.84,513.622 1880.99,509.832 1883.13,506.225 1885.28,502.804 1887.42,499.573 1889.57,496.532 1891.71,493.684 1893.85,491.031 1896,488.574 1898.14,486.315 1900.29,484.254 1902.43,482.393 1904.58,480.731 1906.72,479.27 1908.86,478.008 1911.01,476.946 1913.15,476.083 1915.3,475.418 1917.44,474.95 1919.59,474.678 1921.73,474.6 1923.88,474.715 1926.02,475.02 1928.16,475.513 1930.31,476.192 1932.45,477.054 1934.6,478.095 1936.74,479.313 1938.89,480.703 1941.03,482.264 1943.18,483.99 1945.32,485.877 1947.46,487.921 1949.61,490.119 1951.75,492.464 1953.9,494.953 1956.04,497.58 1958.19,500.34 1960.33,503.228 1962.47,506.239 1964.62,509.366 1966.76,512.604 1968.91,515.948 1971.05,519.39 1973.2,522.926 1975.34,526.549 1977.49,530.253 1979.63,534.03 1981.77,537.876 1983.92,541.783 1986.06,545.745 1988.21,549.756 1990.35,553.808 1992.5,557.895 1994.64,562.01 1996.79,566.147 1998.93,570.299 2001.07,574.459 2003.22,578.62 2005.36,582.777 2007.51,586.922 2009.65,591.048 2011.8,595.15 2013.94,599.221 2016.08,603.254 2018.23,607.243 2020.37,611.182 2022.52,615.065 2024.66,618.886 2026.81,622.639 2028.95,626.318 2031.1,629.917 2033.24,633.431 2035.38,636.855 2037.53,640.183 2039.67,643.411 2041.82,646.533 2043.96,649.545 2046.11,652.442 2048.25,655.22 2050.4,657.874 2052.54,660.401 2054.68,662.797 2056.83,665.058 2058.97,667.181 2061.12,669.163 2063.26,671.001 2065.41,672.691 2067.55,674.233 2069.69,675.622 2071.84,676.858 2073.98,677.939 2076.13,678.862 2078.27,679.627 2080.42,680.232 2082.56,680.678 2084.71,680.962 2086.85,681.084 2088.99,681.046 2091.14,680.846 2093.28,680.485 2095.43,679.963 2097.57,679.282 2099.72,678.443 2101.86,677.447 2104.01,676.294 2106.15,674.988 2108.29,673.531 2110.44,671.923 2112.58,670.169 2114.73,668.27 2116.87,666.23 2119.02,664.051 2121.16,661.737 2123.3,659.292 2125.45,656.718 2127.59,654.021 2129.74,651.204 2131.88,648.272 2134.03,645.228 2136.17,642.078 2138.32,638.827 2140.46,635.479 2142.6,632.039 2144.75,628.513 2146.89,624.906 2149.04,621.223 2151.18,617.471 2153.33,613.655 2155.47,609.78 2157.62,605.854 2159.76,601.881 2161.9,597.868 2164.05,593.822 2166.19,589.748 2168.34,585.652 2170.48,581.542 2172.63,577.423 2174.77,573.302 2176.92,569.186 2179.06,565.08 2181.2,560.992 2183.35,556.928 2185.49,552.894 2187.64,548.896 2189.78,544.942 2191.93,541.037 2194.07,537.188 2196.21,533.401 2198.36,529.683 2200.5,526.038 2202.65,522.475 2204.79,518.997 2206.94,515.612 2209.08,512.325 2211.23,509.141 2213.37,506.067 2215.51,503.107 2217.66,500.267 2219.8,497.551 2221.95,494.966 2224.09,492.515 2226.24,490.204 2228.38,488.036 2230.53,486.016 2232.67,484.149 2234.81,482.438 2236.96,480.886 2239.1,479.498 2241.25,478.277 2243.39,477.226 2245.54,476.347 2247.68,475.644 2249.82,475.119 2251.97,474.775 2254.11,474.613 2256.26,474.635 2258.4,474.843 2260.55,475.238 2262.69,475.822 2264.84,476.594 2266.98,477.557 2269.12,478.71 2271.27,480.054 2273.41,481.588 2275.56,483.313 2277.7,485.227 2279.85,487.33 2281.99,489.621 2284.14,492.099 2286.28,494.762 2288.42,497.609 2290.57,500.637 2292.71,503.845 2294.86,507.23 2297,510.79 2299.15,514.521 2301.29,518.422 2303.43,522.487 2305.58,526.715 2307.72,531.101 2309.87,535.642 2312.01,540.333 2314.16,545.171 2316.3,550.15 2318.45,555.267 2320.59,560.516 2322.73,565.893 2324.88,571.392 2327.02,577.009 2329.17,582.737 2331.31,588.572 2333.46,594.508 2335.6,600.538 2337.75,606.658 2339.89,612.86 2342.03,619.139 2344.18,625.489 2346.32,631.904 2348.47,638.376 2350.61,644.9 2352.76,651.469 "/>
<polyline clip-path="url(#clip662)" style="stroke:#000000; stroke-linecap:round; stroke-linejoin:round; stroke-width:4; stroke-opacity:1; fill:none" stroke-dasharray="16, 10" points="-1936.05,474.599 4497.16,474.599 "/>
<polyline clip-path="url(#clip662)" style="stroke:#000000; stroke-linecap:round; stroke-linejoin:round; stroke-width:4; stroke-opacity:1; fill:none" stroke-dasharray="16, 10" points="-1936.05,901.955 4497.16,901.955 "/>
<line clip-path="url(#clip662)" x1="1061.5" y1="364.029" x2="1045.5" y2="348.029" style="stroke:#ff0000; stroke-width:3; stroke-opacity:1"/>
<line clip-path="url(#clip662)" x1="1061.5" y1="364.029" x2="1045.5" y2="380.029" style="stroke:#ff0000; stroke-width:3; stroke-opacity:1"/>
<line clip-path="url(#clip662)" x1="1061.5" y1="364.029" x2="1077.5" y2="380.029" style="stroke:#ff0000; stroke-width:3; stroke-opacity:1"/>
<line clip-path="url(#clip662)" x1="1061.5" y1="364.029" x2="1077.5" y2="348.029" style="stroke:#ff0000; stroke-width:3; stroke-opacity:1"/>
<line clip-path="url(#clip662)" x1="1712.57" y1="881.637" x2="1696.57" y2="865.637" style="stroke:#ff0000; stroke-width:3; stroke-opacity:1"/>
<line clip-path="url(#clip662)" x1="1712.57" y1="881.637" x2="1696.57" y2="897.637" style="stroke:#ff0000; stroke-width:3; stroke-opacity:1"/>
<line clip-path="url(#clip662)" x1="1712.57" y1="881.637" x2="1728.57" y2="897.637" style="stroke:#ff0000; stroke-width:3; stroke-opacity:1"/>
<line clip-path="url(#clip662)" x1="1712.57" y1="881.637" x2="1728.57" y2="865.637" style="stroke:#ff0000; stroke-width:3; stroke-opacity:1"/>
<line clip-path="url(#clip662)" x1="1061.68" y1="361.326" x2="1061.68" y2="345.326" style="stroke:#0000ff; stroke-width:3; stroke-opacity:1"/>
<line clip-path="url(#clip662)" x1="1061.68" y1="361.326" x2="1045.68" y2="361.326" style="stroke:#0000ff; stroke-width:3; stroke-opacity:1"/>
<line clip-path="url(#clip662)" x1="1061.68" y1="361.326" x2="1061.68" y2="377.326" style="stroke:#0000ff; stroke-width:3; stroke-opacity:1"/>
<line clip-path="url(#clip662)" x1="1061.68" y1="361.326" x2="1077.68" y2="361.326" style="stroke:#0000ff; stroke-width:3; stroke-opacity:1"/>
<line clip-path="url(#clip662)" x1="1712.25" y1="876.121" x2="1712.25" y2="860.121" style="stroke:#0000ff; stroke-width:3; stroke-opacity:1"/>
<line clip-path="url(#clip662)" x1="1712.25" y1="876.121" x2="1696.25" y2="876.121" style="stroke:#0000ff; stroke-width:3; stroke-opacity:1"/>
<line clip-path="url(#clip662)" x1="1712.25" y1="876.121" x2="1712.25" y2="892.121" style="stroke:#0000ff; stroke-width:3; stroke-opacity:1"/>
<line clip-path="url(#clip662)" x1="1712.25" y1="876.121" x2="1728.25" y2="876.121" style="stroke:#0000ff; stroke-width:3; stroke-opacity:1"/>
<path clip-path="url(#clip660)" d="M1950.69 401.02 L2281.28 401.02 L2281.28 89.9796 L1950.69 89.9796  Z" fill="#ffffff" fill-rule="evenodd" fill-opacity="1"/>
<polyline clip-path="url(#clip660)" style="stroke:#000000; stroke-linecap:round; stroke-linejoin:round; stroke-width:4; stroke-opacity:1; fill:none" points="1950.69,401.02 2281.28,401.02 2281.28,89.9796 1950.69,89.9796 1950.69,401.02 "/>
<path clip-path="url(#clip660)" d="M2023.24 119.064 L2023.24 164.575 L2068.75 164.575 L2068.75 119.064 L2023.24 119.064 Z" fill="#ffff00" fill-rule="evenodd" fill-opacity="1" stroke="#000000" stroke-opacity="1" stroke-width="4.26667"/>
<path clip-path="url(#clip660)" d="M2167.3 133.313 Q2166.69 136.335 2165.87 138.068 Q2164.56 140.715 2162.31 140.715 Q2160.72 140.715 2159.5 139.754 Q2158.31 138.794 2158 137.201 Q2157.39 137.927 2156.95 138.349 Q2156.53 138.771 2155.68 139.426 Q2154.86 140.059 2153.83 140.387 Q2152.8 140.715 2151.63 140.715 Q2148.77 140.715 2146.97 139.216 Q2144.53 149.03 2144.32 149.521 Q2143.64 150.529 2142.66 150.529 Q2142.05 150.529 2141.68 150.154 Q2141.3 149.802 2141.3 149.24 Q2141.32 149.053 2141.46 148.467 L2148.35 120.712 Q2148.54 119.962 2149.01 119.541 Q2149.5 119.096 2149.78 119.049 Q2150.06 118.979 2150.27 118.979 Q2150.9 118.979 2151.28 119.33 Q2151.68 119.658 2151.68 120.267 Q2151.68 120.36 2151.54 120.899 Q2151.42 121.414 2151.23 122.211 Q2151.04 122.984 2150.95 123.335 L2148.94 131.392 Q2148.26 134.156 2148.26 135.468 Q2148.26 137.459 2149.15 138.56 Q2150.06 139.637 2151.82 139.637 Q2152.92 139.637 2153.95 139.192 Q2154.98 138.724 2155.68 138.091 Q2156.38 137.459 2156.95 136.78 Q2157.51 136.077 2157.77 135.632 Q2158.02 135.163 2158.05 135.046 L2159.29 130.151 L2161.56 121.18 Q2161.7 120.618 2161.96 120.243 Q2162.24 119.845 2162.57 119.705 Q2162.9 119.564 2163.08 119.541 Q2163.27 119.494 2163.43 119.494 Q2164.02 119.494 2164.42 119.845 Q2164.82 120.197 2164.82 120.806 Q2164.82 120.923 2164.68 121.485 Q2164.56 122.023 2164.37 122.82 Q2164.18 123.593 2164.09 124.014 Q2163.34 126.966 2163.27 127.27 L2161.94 132.446 Q2161.87 132.751 2161.63 133.735 Q2161.42 134.718 2161.3 135.234 Q2161.19 135.726 2161.07 136.405 Q2160.98 137.061 2160.98 137.435 Q2160.98 139.637 2162.43 139.637 Q2162.99 139.637 2163.48 139.309 Q2163.97 138.958 2164.3 138.466 Q2164.65 137.974 2164.98 137.131 Q2165.33 136.264 2165.54 135.562 Q2165.75 134.836 2166.06 133.711 Q2166.18 133.173 2166.29 133.009 Q2166.41 132.845 2166.74 132.845 Q2167.3 132.845 2167.3 133.313 Z" fill="#000000" fill-rule="nonzero" fill-opacity="1" /><path clip-path="url(#clip660)" d="M2172.16 152.976 Q2172.16 148.041 2173.4 145.352 Q2175.14 141.351 2179.24 141.351 Q2180.11 141.351 2181.01 141.597 Q2181.93 141.827 2183.07 142.728 Q2184.24 143.63 2184.94 145.106 Q2186.29 147.959 2186.29 152.976 Q2186.29 157.878 2185.04 160.551 Q2183.22 164.453 2179.21 164.453 Q2177.7 164.453 2176.16 163.682 Q2174.63 162.912 2173.66 161.059 Q2172.16 158.288 2172.16 152.976 M2174.94 152.566 Q2174.94 157.632 2175.3 159.649 Q2175.71 161.829 2176.83 162.78 Q2177.96 163.715 2179.21 163.715 Q2180.55 163.715 2181.66 162.715 Q2182.8 161.698 2183.14 159.518 Q2183.52 157.37 2183.5 152.566 Q2183.5 147.893 2183.17 146.024 Q2182.73 143.843 2181.55 142.974 Q2180.39 142.089 2179.21 142.089 Q2178.76 142.089 2178.29 142.22 Q2177.83 142.351 2177.16 142.728 Q2176.48 143.106 2175.96 144.04 Q2175.45 144.975 2175.2 146.385 Q2174.94 148.205 2174.94 152.566 Z" fill="#000000" fill-rule="nonzero" fill-opacity="1" /><polyline clip-path="url(#clip660)" style="stroke:#008000; stroke-linecap:round; stroke-linejoin:round; stroke-width:4; stroke-opacity:1; fill:none" points="1974.51,193.66 2117.47,193.66 "/>
<path clip-path="url(#clip660)" d="M2163.72 175.777 Q2163.72 177.089 2163.32 178.565 L2157.86 200.277 Q2157.37 202.198 2155.89 202.198 Q2155.28 202.198 2154.91 201.823 Q2154.56 201.472 2154.56 200.91 Q2154.56 200.722 2154.7 200.137 L2160.16 178.073 Q2160.65 176.059 2160.65 175.051 Q2160.65 171.702 2158.05 171.702 Q2155.75 171.702 2153.46 173.388 Q2152.4 174.232 2151.37 175.754 Q2150.37 177.253 2150.18 177.792 Q2149.97 179.01 2149.66 179.947 Q2149.52 180.602 2148.84 183.156 L2147.79 187.489 Q2147.04 190.721 2146.88 191.025 Q2146.64 191.681 2146.13 192.033 Q2145.61 192.384 2145.1 192.384 Q2144.51 192.384 2144.11 192.033 Q2143.71 191.681 2143.71 191.072 Q2143.71 190.979 2143.78 190.627 Q2143.85 190.276 2143.97 189.784 Q2144.09 189.292 2144.13 189.011 L2146.92 177.932 Q2147.44 175.918 2147.55 175.286 Q2147.7 174.63 2147.7 173.904 Q2147.7 172.639 2147.3 172.17 Q2146.9 171.702 2146.2 171.702 Q2144.98 171.702 2144.18 173.154 Q2143.39 174.606 2142.71 177.417 Q2142.5 178.19 2142.35 178.354 Q2142.24 178.518 2141.89 178.518 Q2141.3 178.494 2141.3 178.026 Q2141.3 177.909 2141.49 177.159 Q2141.68 176.386 2142.03 175.262 Q2142.4 174.114 2142.8 173.388 Q2143.03 172.896 2143.24 172.569 Q2143.46 172.241 2143.88 171.725 Q2144.3 171.21 2144.93 170.929 Q2145.56 170.648 2146.34 170.648 Q2148.05 170.648 2149.31 171.749 Q2150.6 172.85 2150.76 174.817 Q2151.26 174.091 2151.89 173.435 Q2152.54 172.779 2153.46 172.124 Q2154.37 171.444 2155.61 171.046 Q2156.85 170.648 2158.19 170.648 Q2160.86 170.648 2162.29 172.03 Q2163.72 173.388 2163.72 175.777 Z" fill="#000000" fill-rule="nonzero" fill-opacity="1" /><path clip-path="url(#clip660)" d="M2192.55 193.198 Q2192.51 193.804 2192.1 193.837 Q2191.48 193.87 2191.1 193.952 Q2190.73 194.018 2190.14 194.264 Q2189.55 194.51 2188.97 195.1 Q2188.4 195.69 2187.81 196.625 L2175.72 215.857 Q2175.51 216.217 2175.33 216.332 Q2175.17 216.463 2174.79 216.463 Q2174.45 216.463 2174.31 216.316 Q2174.18 216.185 2174.12 215.693 L2171.46 194.969 Q2171.41 194.591 2171.36 194.428 Q2171.31 194.264 2171.12 194.1 Q2170.94 193.936 2170.54 193.886 Q2170.15 193.837 2169.44 193.837 Q2169.12 193.837 2168.97 193.821 Q2168.84 193.804 2168.72 193.723 Q2168.61 193.624 2168.61 193.427 Q2168.61 193.132 2168.72 192.985 Q2168.85 192.821 2168.95 192.804 Q2169.07 192.788 2169.25 192.788 Q2169.53 192.788 2170.13 192.821 Q2170.74 192.854 2171.05 192.854 Q2171.35 192.854 2171.97 192.87 Q2172.59 192.886 2172.9 192.886 Q2173.59 192.886 2174.99 192.837 Q2176.4 192.788 2177.07 192.788 Q2177.53 192.788 2177.53 193.165 Q2177.53 193.624 2177.33 193.739 Q2177.13 193.837 2176.69 193.837 Q2175.58 193.837 2174.97 194.116 Q2174.38 194.395 2174.38 194.837 L2176.66 212.61 L2186.97 196.215 Q2187.48 195.444 2187.48 194.936 Q2187.48 193.952 2185.92 193.837 Q2185.4 193.837 2185.4 193.427 Q2185.4 193.132 2185.53 192.985 Q2185.66 192.821 2185.76 192.804 Q2185.87 192.788 2186.04 192.788 Q2186.58 192.788 2187.68 192.837 Q2188.79 192.886 2189.35 192.886 Q2189.81 192.886 2190.74 192.837 Q2191.68 192.788 2192.1 192.788 Q2192.55 192.788 2192.55 193.198 Z" fill="#000000" fill-rule="nonzero" fill-opacity="1" /><polyline clip-path="url(#clip660)" style="stroke:#800080; stroke-linecap:round; stroke-linejoin:round; stroke-width:4; stroke-opacity:1; fill:none" points="1974.51,245.5 2117.47,245.5 "/>
<path clip-path="url(#clip660)" d="M2163.72 227.66 Q2163.72 228.972 2163.32 230.447 L2157.86 252.16 Q2157.37 254.081 2155.89 254.081 Q2155.28 254.081 2154.91 253.706 Q2154.56 253.355 2154.56 252.792 Q2154.56 252.605 2154.7 252.019 L2160.16 229.956 Q2160.65 227.941 2160.65 226.934 Q2160.65 223.585 2158.05 223.585 Q2155.75 223.585 2153.46 225.271 Q2152.4 226.114 2151.37 227.637 Q2150.37 229.136 2150.18 229.674 Q2149.97 230.892 2149.66 231.829 Q2149.52 232.485 2148.84 235.038 L2147.79 239.371 Q2147.04 242.604 2146.88 242.908 Q2146.64 243.564 2146.13 243.915 Q2145.61 244.267 2145.1 244.267 Q2144.51 244.267 2144.11 243.915 Q2143.71 243.564 2143.71 242.955 Q2143.71 242.861 2143.78 242.51 Q2143.85 242.159 2143.97 241.667 Q2144.09 241.175 2144.13 240.894 L2146.92 229.815 Q2147.44 227.801 2147.55 227.168 Q2147.7 226.512 2147.7 225.786 Q2147.7 224.521 2147.3 224.053 Q2146.9 223.585 2146.2 223.585 Q2144.98 223.585 2144.18 225.037 Q2143.39 226.489 2142.71 229.3 Q2142.5 230.073 2142.35 230.237 Q2142.24 230.401 2141.89 230.401 Q2141.3 230.377 2141.3 229.909 Q2141.3 229.792 2141.49 229.042 Q2141.68 228.269 2142.03 227.145 Q2142.4 225.997 2142.8 225.271 Q2143.03 224.779 2143.24 224.451 Q2143.46 224.123 2143.88 223.608 Q2144.3 223.093 2144.93 222.812 Q2145.56 222.531 2146.34 222.531 Q2148.05 222.531 2149.31 223.631 Q2150.6 224.732 2150.76 226.7 Q2151.26 225.974 2151.89 225.318 Q2152.54 224.662 2153.46 224.006 Q2154.37 223.327 2155.61 222.929 Q2156.85 222.531 2158.19 222.531 Q2160.86 222.531 2162.29 223.913 Q2163.72 225.271 2163.72 227.66 Z" fill="#000000" fill-rule="nonzero" fill-opacity="1" /><path clip-path="url(#clip660)" d="M2185.22 267.851 Q2185.22 268.163 2184.86 268.195 L2184.12 268.195 Q2183.36 268.195 2183.04 268.081 Q2182.71 267.966 2182.33 267.441 Q2182.1 267.113 2181.53 265.588 Q2180.97 264.047 2180.15 261.719 Q2179.35 259.391 2178.81 258.014 L2170.72 267.556 Q2170.17 268.261 2169.61 268.261 Q2169.2 268.261 2168.9 267.982 Q2168.61 267.703 2168.61 267.277 Q2168.61 266.966 2168.72 266.785 Q2168.85 266.605 2169.2 266.244 L2178.48 257.046 L2175.22 247.914 Q2174.59 246.225 2174.23 245.799 Q2173.89 245.372 2173.04 245.225 Q2172.72 245.143 2172.72 244.881 Q2172.72 244.52 2173.33 244.52 Q2176.58 244.52 2177.43 246.897 L2184.28 265.998 Q2184.66 267.097 2185.05 267.556 Q2185.22 267.769 2185.22 267.851 Z" fill="#000000" fill-rule="nonzero" fill-opacity="1" /><line clip-path="url(#clip660)" x1="2045.99" y1="297.34" x2="2023.24" y2="274.584" style="stroke:#ff0000; stroke-width:4.26667; stroke-opacity:1"/>
<line clip-path="url(#clip660)" x1="2045.99" y1="297.34" x2="2023.24" y2="320.095" style="stroke:#ff0000; stroke-width:4.26667; stroke-opacity:1"/>
<line clip-path="url(#clip660)" x1="2045.99" y1="297.34" x2="2068.75" y2="320.095" style="stroke:#ff0000; stroke-width:4.26667; stroke-opacity:1"/>
<line clip-path="url(#clip660)" x1="2045.99" y1="297.34" x2="2068.75" y2="274.584" style="stroke:#ff0000; stroke-width:4.26667; stroke-opacity:1"/>
<path clip-path="url(#clip660)" d="M2167.3 288.446 Q2166.69 291.467 2165.87 293.201 Q2164.56 295.847 2162.31 295.847 Q2160.72 295.847 2159.5 294.887 Q2158.31 293.927 2158 292.334 Q2157.39 293.06 2156.95 293.482 Q2156.53 293.903 2155.68 294.559 Q2154.86 295.192 2153.83 295.519 Q2152.8 295.847 2151.63 295.847 Q2148.77 295.847 2146.97 294.348 Q2144.53 304.162 2144.32 304.654 Q2143.64 305.661 2142.66 305.661 Q2142.05 305.661 2141.68 305.287 Q2141.3 304.935 2141.3 304.373 Q2141.32 304.186 2141.46 303.6 L2148.35 275.845 Q2148.54 275.095 2149.01 274.674 Q2149.5 274.228 2149.78 274.182 Q2150.06 274.111 2150.27 274.111 Q2150.9 274.111 2151.28 274.463 Q2151.68 274.791 2151.68 275.4 Q2151.68 275.493 2151.54 276.032 Q2151.42 276.547 2151.23 277.344 Q2151.04 278.117 2150.95 278.468 L2148.94 286.525 Q2148.26 289.289 2148.26 290.601 Q2148.26 292.592 2149.15 293.693 Q2150.06 294.77 2151.82 294.77 Q2152.92 294.77 2153.95 294.325 Q2154.98 293.856 2155.68 293.224 Q2156.38 292.592 2156.95 291.912 Q2157.51 291.21 2157.77 290.765 Q2158.02 290.296 2158.05 290.179 L2159.29 285.284 L2161.56 276.313 Q2161.7 275.751 2161.96 275.376 Q2162.24 274.978 2162.57 274.837 Q2162.9 274.697 2163.08 274.674 Q2163.27 274.627 2163.43 274.627 Q2164.02 274.627 2164.42 274.978 Q2164.82 275.329 2164.82 275.938 Q2164.82 276.055 2164.68 276.618 Q2164.56 277.156 2164.37 277.953 Q2164.18 278.726 2164.09 279.147 Q2163.34 282.098 2163.27 282.403 L2161.94 287.579 Q2161.87 287.884 2161.63 288.868 Q2161.42 289.851 2161.3 290.367 Q2161.19 290.858 2161.07 291.538 Q2160.98 292.193 2160.98 292.568 Q2160.98 294.77 2162.43 294.77 Q2162.99 294.77 2163.48 294.442 Q2163.97 294.091 2164.3 293.599 Q2164.65 293.107 2164.98 292.264 Q2165.33 291.397 2165.54 290.694 Q2165.75 289.968 2166.06 288.844 Q2166.18 288.305 2166.29 288.141 Q2166.41 287.977 2166.74 287.977 Q2167.3 287.977 2167.3 288.446 Z" fill="#000000" fill-rule="nonzero" fill-opacity="1" /><path clip-path="url(#clip660)" d="M2172.16 319.557 L2172.16 312.834 Q2172.16 312.457 2172.17 312.326 Q2172.19 312.195 2172.29 312.096 Q2172.38 311.998 2172.58 311.998 Q2172.96 311.998 2172.99 312.342 Q2173.09 315.671 2175.07 317.507 Q2177.02 319.327 2180.37 319.327 Q2182.39 319.327 2183.63 317.884 Q2184.88 316.425 2184.88 314.523 Q2184.88 312.703 2183.83 311.424 Q2183.39 310.85 2182.83 310.49 Q2182.29 310.113 2181.94 309.998 Q2181.62 309.883 2180.98 309.719 Q2176.81 308.719 2176.55 308.604 Q2174.57 307.932 2173.35 306.243 Q2172.16 304.538 2172.16 302.456 Q2172.16 299.767 2174.04 297.865 Q2175.94 295.947 2178.7 295.947 Q2180.07 295.947 2181.22 296.389 Q2182.39 296.816 2182.86 297.209 Q2183.34 297.603 2184.07 298.308 L2185.24 296.389 Q2185.5 295.947 2185.75 295.947 Q2186.01 295.947 2186.06 296.111 Q2186.12 296.258 2186.12 296.75 L2186.12 303.505 Q2186.12 303.882 2186.11 304.013 Q2186.09 304.145 2185.98 304.227 Q2185.88 304.309 2185.68 304.309 Q2185.35 304.309 2185.27 303.915 Q2184.34 296.898 2178.73 296.898 Q2176.81 296.898 2175.55 298.193 Q2174.3 299.472 2174.3 301.292 Q2174.3 302.767 2175.22 303.981 Q2176.14 305.177 2177.7 305.555 L2181.99 306.588 Q2184.14 307.096 2185.58 308.998 Q2187.03 310.9 2187.03 313.375 Q2187.03 316.228 2185.16 318.294 Q2183.3 320.36 2180.4 320.36 Q2178.32 320.36 2176.71 319.671 Q2175.11 318.983 2174.24 318.015 Q2173.57 319.13 2173.12 319.753 L2173.02 319.917 Q2172.76 320.36 2172.52 320.36 Q2172.25 320.36 2172.2 320.196 Q2172.16 320.032 2172.16 319.557 Z" fill="#000000" fill-rule="nonzero" fill-opacity="1" /><path clip-path="url(#clip660)" d="M2192.08 319.622 L2192.08 318.589 L2192.88 318.589 Q2194.7 318.589 2195.11 318.294 Q2195.54 317.983 2195.54 316.999 L2195.54 299.308 Q2195.54 298.34 2195.11 298.045 Q2194.68 297.734 2192.88 297.734 L2192.08 297.734 L2192.08 296.685 L2204.36 296.685 Q2208.65 296.685 2211.64 300.111 Q2214.64 303.538 2214.64 308.342 Q2214.64 313.047 2211.62 316.343 Q2208.62 319.622 2204.36 319.622 L2192.08 319.622 M2198.42 317.245 Q2198.42 318.114 2198.67 318.36 Q2198.91 318.589 2200.06 318.589 L2203.46 318.589 Q2205.67 318.589 2207.16 317.687 Q2208.65 316.769 2209.42 315.72 Q2211.28 313.195 2211.28 308.342 Q2211.28 303.243 2209.54 300.849 Q2207.29 297.734 2203.42 297.734 L2200.06 297.734 Q2198.91 297.734 2198.67 297.963 Q2198.42 298.193 2198.42 299.078 L2198.42 317.245 Z" fill="#000000" fill-rule="nonzero" fill-opacity="1" /><path clip-path="url(#clip660)" d="M2218.24 319.622 L2218.24 318.589 L2219.05 318.589 Q2220.87 318.589 2221.28 318.294 Q2221.7 317.983 2221.7 316.999 L2221.7 299.308 Q2221.7 298.34 2221.28 298.045 Q2220.85 297.734 2219.05 297.734 L2218.24 297.734 L2218.24 296.685 L2230.1 296.685 Q2233.49 296.685 2235.75 298.554 Q2238.02 300.423 2238.02 302.931 Q2238.02 305.423 2235.7 307.227 Q2233.41 309.014 2230.36 309.014 L2224.69 309.014 L2224.69 316.999 Q2224.69 317.966 2225.1 318.278 Q2225.52 318.589 2227.34 318.589 L2228.15 318.589 L2228.15 319.622 Q2226.97 319.524 2223.18 319.524 Q2219.42 319.524 2218.24 319.622 M2224.59 308.145 L2229.21 308.145 Q2230.72 308.145 2231.82 307.719 Q2232.92 307.293 2233.41 306.784 Q2233.92 306.26 2234.2 305.423 Q2234.49 304.571 2234.52 304.112 Q2234.56 303.636 2234.56 302.931 Q2234.56 302.193 2234.52 301.734 Q2234.49 301.259 2234.2 300.423 Q2233.92 299.57 2233.41 299.062 Q2232.92 298.537 2231.82 298.144 Q2230.74 297.734 2229.21 297.734 L2226.23 297.734 Q2225.08 297.734 2224.83 297.963 Q2224.59 298.193 2224.59 299.078 L2224.59 308.145 Z" fill="#000000" fill-rule="nonzero" fill-opacity="1" /><line clip-path="url(#clip660)" x1="2045.99" y1="349.18" x2="2045.99" y2="326.424" style="stroke:#0000ff; stroke-width:4.26667; stroke-opacity:1"/>
<line clip-path="url(#clip660)" x1="2045.99" y1="349.18" x2="2023.24" y2="349.18" style="stroke:#0000ff; stroke-width:4.26667; stroke-opacity:1"/>
<line clip-path="url(#clip660)" x1="2045.99" y1="349.18" x2="2045.99" y2="371.935" style="stroke:#0000ff; stroke-width:4.26667; stroke-opacity:1"/>
<line clip-path="url(#clip660)" x1="2045.99" y1="349.18" x2="2068.75" y2="349.18" style="stroke:#0000ff; stroke-width:4.26667; stroke-opacity:1"/>
<path clip-path="url(#clip660)" d="M2167.3 340.286 Q2166.69 343.307 2165.87 345.041 Q2164.56 347.687 2162.31 347.687 Q2160.72 347.687 2159.5 346.727 Q2158.31 345.767 2158 344.174 Q2157.39 344.9 2156.95 345.322 Q2156.53 345.743 2155.68 346.399 Q2154.86 347.032 2153.83 347.359 Q2152.8 347.687 2151.63 347.687 Q2148.77 347.687 2146.97 346.188 Q2144.53 356.002 2144.32 356.494 Q2143.64 357.501 2142.66 357.501 Q2142.05 357.501 2141.68 357.127 Q2141.3 356.775 2141.3 356.213 Q2141.32 356.026 2141.46 355.44 L2148.35 327.685 Q2148.54 326.935 2149.01 326.514 Q2149.5 326.068 2149.78 326.022 Q2150.06 325.951 2150.27 325.951 Q2150.9 325.951 2151.28 326.303 Q2151.68 326.631 2151.68 327.24 Q2151.68 327.333 2151.54 327.872 Q2151.42 328.387 2151.23 329.184 Q2151.04 329.957 2150.95 330.308 L2148.94 338.365 Q2148.26 341.129 2148.26 342.441 Q2148.26 344.432 2149.15 345.533 Q2150.06 346.61 2151.82 346.61 Q2152.92 346.61 2153.95 346.165 Q2154.98 345.696 2155.68 345.064 Q2156.38 344.432 2156.95 343.752 Q2157.51 343.05 2157.77 342.605 Q2158.02 342.136 2158.05 342.019 L2159.29 337.124 L2161.56 328.153 Q2161.7 327.591 2161.96 327.216 Q2162.24 326.818 2162.57 326.677 Q2162.9 326.537 2163.08 326.514 Q2163.27 326.467 2163.43 326.467 Q2164.02 326.467 2164.42 326.818 Q2164.82 327.169 2164.82 327.778 Q2164.82 327.895 2164.68 328.458 Q2164.56 328.996 2164.37 329.793 Q2164.18 330.566 2164.09 330.987 Q2163.34 333.938 2163.27 334.243 L2161.94 339.419 Q2161.87 339.724 2161.63 340.708 Q2161.42 341.691 2161.3 342.207 Q2161.19 342.698 2161.07 343.378 Q2160.98 344.033 2160.98 344.408 Q2160.98 346.61 2162.43 346.61 Q2162.99 346.61 2163.48 346.282 Q2163.97 345.931 2164.3 345.439 Q2164.65 344.947 2164.98 344.104 Q2165.33 343.237 2165.54 342.534 Q2165.75 341.808 2166.06 340.684 Q2166.18 340.145 2166.29 339.981 Q2166.41 339.817 2166.74 339.817 Q2167.3 339.817 2167.3 340.286 Z" fill="#000000" fill-rule="nonzero" fill-opacity="1" /><path clip-path="url(#clip660)" d="M2172.16 371.397 L2172.16 364.674 Q2172.16 364.297 2172.17 364.166 Q2172.19 364.035 2172.29 363.936 Q2172.38 363.838 2172.58 363.838 Q2172.96 363.838 2172.99 364.182 Q2173.09 367.511 2175.07 369.347 Q2177.02 371.167 2180.37 371.167 Q2182.39 371.167 2183.63 369.724 Q2184.88 368.265 2184.88 366.363 Q2184.88 364.543 2183.83 363.264 Q2183.39 362.69 2182.83 362.33 Q2182.29 361.953 2181.94 361.838 Q2181.62 361.723 2180.98 361.559 Q2176.81 360.559 2176.55 360.444 Q2174.57 359.772 2173.35 358.083 Q2172.16 356.378 2172.16 354.296 Q2172.16 351.607 2174.04 349.705 Q2175.94 347.787 2178.7 347.787 Q2180.07 347.787 2181.22 348.229 Q2182.39 348.656 2182.86 349.049 Q2183.34 349.443 2184.07 350.148 L2185.24 348.229 Q2185.5 347.787 2185.75 347.787 Q2186.01 347.787 2186.06 347.951 Q2186.12 348.098 2186.12 348.59 L2186.12 355.345 Q2186.12 355.722 2186.11 355.853 Q2186.09 355.985 2185.98 356.067 Q2185.88 356.149 2185.68 356.149 Q2185.35 356.149 2185.27 355.755 Q2184.34 348.738 2178.73 348.738 Q2176.81 348.738 2175.55 350.033 Q2174.3 351.312 2174.3 353.132 Q2174.3 354.607 2175.22 355.821 Q2176.14 357.017 2177.7 357.395 L2181.99 358.428 Q2184.14 358.936 2185.58 360.838 Q2187.03 362.74 2187.03 365.215 Q2187.03 368.068 2185.16 370.134 Q2183.3 372.2 2180.4 372.2 Q2178.32 372.2 2176.71 371.511 Q2175.11 370.823 2174.24 369.855 Q2173.57 370.97 2173.12 371.593 L2173.02 371.757 Q2172.76 372.2 2172.52 372.2 Q2172.25 372.2 2172.2 372.036 Q2172.16 371.872 2172.16 371.397 Z" fill="#000000" fill-rule="nonzero" fill-opacity="1" /><path clip-path="url(#clip660)" d="M2192.08 371.462 L2192.08 370.429 L2192.88 370.429 Q2194.7 370.429 2195.11 370.134 Q2195.54 369.823 2195.54 368.839 L2195.54 351.246 Q2195.54 350.279 2195.11 349.984 Q2194.68 349.672 2192.88 349.672 L2192.08 349.672 L2192.08 348.623 L2210.51 348.623 L2211.44 356.181 L2210.6 356.181 Q2210.37 354.263 2210.06 353.181 Q2209.77 352.082 2209.08 351.213 Q2208.39 350.344 2207.23 350.017 Q2206.08 349.672 2204.19 349.672 L2200.16 349.672 Q2199.01 349.672 2198.77 349.918 Q2198.52 350.148 2198.52 351.017 L2198.52 359.51 L2201.41 359.51 Q2203.69 359.51 2204.32 358.69 Q2204.96 357.87 2204.96 355.575 L2205.8 355.575 L2205.8 364.478 L2204.96 364.478 Q2204.96 362.166 2204.32 361.362 Q2203.69 360.543 2201.41 360.543 L2198.52 360.543 L2198.52 368.806 Q2198.52 369.511 2198.64 369.79 Q2198.75 370.052 2199.45 370.249 Q2200.16 370.429 2201.7 370.429 L2202.82 370.429 L2202.82 371.462 Q2201.6 371.364 2197.18 371.364 Q2193.26 371.364 2192.08 371.462 Z" fill="#000000" fill-rule="nonzero" fill-opacity="1" /><path clip-path="url(#clip660)" d="M2218.19 349.574 L2218.19 348.525 Q2218.66 348.525 2219.51 348.557 Q2220.37 348.59 2221.04 348.606 Q2221.71 348.623 2222.29 348.623 Q2225.84 348.623 2227.06 348.525 L2227.06 349.574 Q2224.24 349.574 2224.24 350.574 Q2224.24 350.804 2224.3 351.017 L2229.7 367.527 L2234.37 353.132 L2233.63 350.771 Q2233.37 349.935 2232.79 349.754 Q2232.22 349.574 2230.61 349.574 L2230.61 348.525 Q2231.09 348.525 2231.94 348.557 Q2232.79 348.59 2233.47 348.606 Q2234.14 348.623 2234.7 348.623 Q2238.25 348.623 2239.47 348.525 L2239.47 349.574 Q2236.65 349.574 2236.65 350.574 Q2236.65 350.672 2236.75 351.082 L2242.12 367.527 L2247.16 352.017 Q2247.32 351.509 2247.34 351.345 Q2247.34 350.738 2246.63 350.18 Q2245.93 349.607 2244.4 349.574 L2244.4 348.525 Q2247.03 348.623 2248.4 348.623 Q2249.94 348.623 2251.45 348.525 L2251.45 349.574 Q2248.8 349.574 2248.11 351.82 L2241.68 371.528 Q2241.62 371.79 2241.57 371.905 Q2241.52 372.036 2241.39 372.118 Q2241.26 372.2 2241.03 372.2 Q2240.58 372.2 2240.39 371.56 L2234.81 354.476 L2229.27 371.528 Q2229.2 371.79 2229.14 371.905 Q2229.09 372.036 2228.96 372.118 Q2228.83 372.2 2228.6 372.2 Q2228.15 372.2 2227.96 371.56 L2221.24 350.984 Q2220.94 350.017 2220.48 349.803 Q2220.04 349.574 2218.19 349.574 Z" fill="#000000" fill-rule="nonzero" fill-opacity="1" /></svg>
