<?xml version="1.0" encoding="utf-8"?>
<svg xmlns="http://www.w3.org/2000/svg" xmlns:xlink="http://www.w3.org/1999/xlink" width="400" height="250" viewBox="0 0 1600 1000">
<defs>
  <clipPath id="clip550">
    <rect x="0" y="0" width="1600" height="1000"/>
  </clipPath>
</defs>
<path clip-path="url(#clip550)" d="M0 1000 L1600 1000 L1600 0 L0 0  Z" fill="#ffffff" fill-rule="evenodd" fill-opacity="1"/>
<defs>
  <clipPath id="clip551">
    <rect x="320" y="0" width="1121" height="1000"/>
  </clipPath>
</defs>
<path clip-path="url(#clip550)" d="M200.355 834.31 L1552.76 834.31 L1552.76 47.2441 L200.355 47.2441  Z" fill="#ffffff" fill-rule="evenodd" fill-opacity="1"/>
<defs>
  <clipPath id="clip552">
    <rect x="200" y="47" width="1353" height="788"/>
  </clipPath>
</defs>
<polyline clip-path="url(#clip552)" style="stroke:#000000; stroke-linecap:round; stroke-linejoin:round; stroke-width:2; stroke-opacity:0.1; fill:none" points="200.355,834.31 200.355,47.2441 "/>
<polyline clip-path="url(#clip552)" style="stroke:#000000; stroke-linecap:round; stroke-linejoin:round; stroke-width:2; stroke-opacity:0.1; fill:none" points="470.835,834.31 470.835,47.2441 "/>
<polyline clip-path="url(#clip552)" style="stroke:#000000; stroke-linecap:round; stroke-linejoin:round; stroke-width:2; stroke-opacity:0.1; fill:none" points="741.315,834.31 741.315,47.2441 "/>
<polyline clip-path="url(#clip552)" style="stroke:#000000; stroke-linecap:round; stroke-linejoin:round; stroke-width:2; stroke-opacity:0.1; fill:none" points="1011.8,834.31 1011.8,47.2441 "/>
<polyline clip-path="url(#clip552)" style="stroke:#000000; stroke-linecap:round; stroke-linejoin:round; stroke-width:2; stroke-opacity:0.1; fill:none" points="1282.28,834.31 1282.28,47.2441 "/>
<polyline clip-path="url(#clip552)" style="stroke:#000000; stroke-linecap:round; stroke-linejoin:round; stroke-width:2; stroke-opacity:0.1; fill:none" points="1552.76,834.31 1552.76,47.2441 "/>
<polyline clip-path="url(#clip552)" style="stroke:#000000; stroke-linecap:round; stroke-linejoin:round; stroke-width:2; stroke-opacity:0.1; fill:none" points="200.355,834.31 1552.76,834.31 "/>
<polyline clip-path="url(#clip552)" style="stroke:#000000; stroke-linecap:round; stroke-linejoin:round; stroke-width:2; stroke-opacity:0.1; fill:none" points="200.355,703.132 1552.76,703.132 "/>
<polyline clip-path="url(#clip552)" style="stroke:#000000; stroke-linecap:round; stroke-linejoin:round; stroke-width:2; stroke-opacity:0.1; fill:none" points="200.355,571.955 1552.76,571.955 "/>
<polyline clip-path="url(#clip552)" style="stroke:#000000; stroke-linecap:round; stroke-linejoin:round; stroke-width:2; stroke-opacity:0.1; fill:none" points="200.355,440.777 1552.76,440.777 "/>
<polyline clip-path="url(#clip552)" style="stroke:#000000; stroke-linecap:round; stroke-linejoin:round; stroke-width:2; stroke-opacity:0.1; fill:none" points="200.355,309.599 1552.76,309.599 "/>
<polyline clip-path="url(#clip552)" style="stroke:#000000; stroke-linecap:round; stroke-linejoin:round; stroke-width:2; stroke-opacity:0.1; fill:none" points="200.355,178.422 1552.76,178.422 "/>
<polyline clip-path="url(#clip552)" style="stroke:#000000; stroke-linecap:round; stroke-linejoin:round; stroke-width:2; stroke-opacity:0.1; fill:none" points="200.355,47.2441 1552.76,47.2441 "/>
<polyline clip-path="url(#clip550)" style="stroke:#000000; stroke-linecap:round; stroke-linejoin:round; stroke-width:4; stroke-opacity:1; fill:none" points="200.355,834.31 1552.76,834.31 "/>
<polyline clip-path="url(#clip550)" style="stroke:#000000; stroke-linecap:round; stroke-linejoin:round; stroke-width:4; stroke-opacity:1; fill:none" points="200.355,834.31 200.355,815.412 "/>
<polyline clip-path="url(#clip550)" style="stroke:#000000; stroke-linecap:round; stroke-linejoin:round; stroke-width:4; stroke-opacity:1; fill:none" points="470.835,834.31 470.835,815.412 "/>
<polyline clip-path="url(#clip550)" style="stroke:#000000; stroke-linecap:round; stroke-linejoin:round; stroke-width:4; stroke-opacity:1; fill:none" points="741.315,834.31 741.315,815.412 "/>
<polyline clip-path="url(#clip550)" style="stroke:#000000; stroke-linecap:round; stroke-linejoin:round; stroke-width:4; stroke-opacity:1; fill:none" points="1011.8,834.31 1011.8,815.412 "/>
<polyline clip-path="url(#clip550)" style="stroke:#000000; stroke-linecap:round; stroke-linejoin:round; stroke-width:4; stroke-opacity:1; fill:none" points="1282.28,834.31 1282.28,815.412 "/>
<polyline clip-path="url(#clip550)" style="stroke:#000000; stroke-linecap:round; stroke-linejoin:round; stroke-width:4; stroke-opacity:1; fill:none" points="1552.76,834.31 1552.76,815.412 "/>
<path clip-path="url(#clip550)" d="M177.739 858.829 Q174.128 858.829 172.299 862.393 Q170.494 865.935 170.494 873.065 Q170.494 880.171 172.299 883.736 Q174.128 887.277 177.739 887.277 Q181.373 887.277 183.179 883.736 Q185.008 880.171 185.008 873.065 Q185.008 865.935 183.179 862.393 Q181.373 858.829 177.739 858.829 M177.739 855.125 Q183.549 855.125 186.605 859.731 Q189.683 864.315 189.683 873.065 Q189.683 881.791 186.605 886.398 Q183.549 890.981 177.739 890.981 Q171.929 890.981 168.85 886.398 Q165.795 881.791 165.795 873.065 Q165.795 864.315 168.85 859.731 Q171.929 855.125 177.739 855.125 Z" fill="#000000" fill-rule="nonzero" fill-opacity="1" /><path clip-path="url(#clip550)" d="M197.901 884.43 L202.785 884.43 L202.785 890.31 L197.901 890.31 L197.901 884.43 Z" fill="#000000" fill-rule="nonzero" fill-opacity="1" /><path clip-path="url(#clip550)" d="M222.97 858.829 Q219.359 858.829 217.53 862.393 Q215.725 865.935 215.725 873.065 Q215.725 880.171 217.53 883.736 Q219.359 887.277 222.97 887.277 Q226.605 887.277 228.41 883.736 Q230.239 880.171 230.239 873.065 Q230.239 865.935 228.41 862.393 Q226.605 858.829 222.97 858.829 M222.97 855.125 Q228.78 855.125 231.836 859.731 Q234.915 864.315 234.915 873.065 Q234.915 881.791 231.836 886.398 Q228.78 890.981 222.97 890.981 Q217.16 890.981 214.081 886.398 Q211.026 881.791 211.026 873.065 Q211.026 864.315 214.081 859.731 Q217.16 855.125 222.97 855.125 Z" fill="#000000" fill-rule="nonzero" fill-opacity="1" /><path clip-path="url(#clip550)" d="M449.018 858.829 Q445.407 858.829 443.578 862.393 Q441.773 865.935 441.773 873.065 Q441.773 880.171 443.578 883.736 Q445.407 887.277 449.018 887.277 Q452.652 887.277 454.458 883.736 Q456.286 880.171 456.286 873.065 Q456.286 865.935 454.458 862.393 Q452.652 858.829 449.018 858.829 M449.018 855.125 Q454.828 855.125 457.884 859.731 Q460.962 864.315 460.962 873.065 Q460.962 881.791 457.884 886.398 Q454.828 890.981 449.018 890.981 Q443.208 890.981 440.129 886.398 Q437.074 881.791 437.074 873.065 Q437.074 864.315 440.129 859.731 Q443.208 855.125 449.018 855.125 Z" fill="#000000" fill-rule="nonzero" fill-opacity="1" /><path clip-path="url(#clip550)" d="M469.18 884.43 L474.064 884.43 L474.064 890.31 L469.18 890.31 L469.18 884.43 Z" fill="#000000" fill-rule="nonzero" fill-opacity="1" /><path clip-path="url(#clip550)" d="M488.277 886.375 L504.596 886.375 L504.596 890.31 L482.652 890.31 L482.652 886.375 Q485.314 883.62 489.897 878.99 Q494.504 874.338 495.684 872.995 Q497.93 870.472 498.809 868.736 Q499.712 866.977 499.712 865.287 Q499.712 862.532 497.768 860.796 Q495.846 859.06 492.745 859.06 Q490.545 859.06 488.092 859.824 Q485.661 860.588 482.883 862.139 L482.883 857.417 Q485.708 856.282 488.161 855.704 Q490.615 855.125 492.652 855.125 Q498.022 855.125 501.217 857.81 Q504.411 860.495 504.411 864.986 Q504.411 867.116 503.601 869.037 Q502.814 870.935 500.707 873.528 Q500.129 874.199 497.027 877.416 Q493.925 880.611 488.277 886.375 Z" fill="#000000" fill-rule="nonzero" fill-opacity="1" /><path clip-path="url(#clip550)" d="M718.456 858.829 Q714.845 858.829 713.017 862.393 Q711.211 865.935 711.211 873.065 Q711.211 880.171 713.017 883.736 Q714.845 887.277 718.456 887.277 Q722.091 887.277 723.896 883.736 Q725.725 880.171 725.725 873.065 Q725.725 865.935 723.896 862.393 Q722.091 858.829 718.456 858.829 M718.456 855.125 Q724.267 855.125 727.322 859.731 Q730.401 864.315 730.401 873.065 Q730.401 881.791 727.322 886.398 Q724.267 890.981 718.456 890.981 Q712.646 890.981 709.568 886.398 Q706.512 881.791 706.512 873.065 Q706.512 864.315 709.568 859.731 Q712.646 855.125 718.456 855.125 Z" fill="#000000" fill-rule="nonzero" fill-opacity="1" /><path clip-path="url(#clip550)" d="M738.618 884.43 L743.503 884.43 L743.503 890.31 L738.618 890.31 L738.618 884.43 Z" fill="#000000" fill-rule="nonzero" fill-opacity="1" /><path clip-path="url(#clip550)" d="M766.535 859.824 L754.729 878.273 L766.535 878.273 L766.535 859.824 M765.308 855.75 L771.188 855.75 L771.188 878.273 L776.118 878.273 L776.118 882.162 L771.188 882.162 L771.188 890.31 L766.535 890.31 L766.535 882.162 L750.933 882.162 L750.933 877.648 L765.308 855.75 Z" fill="#000000" fill-rule="nonzero" fill-opacity="1" /><path clip-path="url(#clip550)" d="M989.099 858.829 Q985.488 858.829 983.659 862.393 Q981.853 865.935 981.853 873.065 Q981.853 880.171 983.659 883.736 Q985.488 887.277 989.099 887.277 Q992.733 887.277 994.539 883.736 Q996.367 880.171 996.367 873.065 Q996.367 865.935 994.539 862.393 Q992.733 858.829 989.099 858.829 M989.099 855.125 Q994.909 855.125 997.964 859.731 Q1001.04 864.315 1001.04 873.065 Q1001.04 881.791 997.964 886.398 Q994.909 890.981 989.099 890.981 Q983.289 890.981 980.21 886.398 Q977.154 881.791 977.154 873.065 Q977.154 864.315 980.21 859.731 Q983.289 855.125 989.099 855.125 Z" fill="#000000" fill-rule="nonzero" fill-opacity="1" /><path clip-path="url(#clip550)" d="M1009.26 884.43 L1014.14 884.43 L1014.14 890.31 L1009.26 890.31 L1009.26 884.43 Z" fill="#000000" fill-rule="nonzero" fill-opacity="1" /><path clip-path="url(#clip550)" d="M1034.91 871.166 Q1031.76 871.166 1029.91 873.319 Q1028.08 875.472 1028.08 879.222 Q1028.08 882.949 1029.91 885.125 Q1031.76 887.277 1034.91 887.277 Q1038.06 887.277 1039.89 885.125 Q1041.74 882.949 1041.74 879.222 Q1041.74 875.472 1039.89 873.319 Q1038.06 871.166 1034.91 871.166 M1044.19 856.514 L1044.19 860.773 Q1042.43 859.94 1040.63 859.5 Q1038.84 859.06 1037.08 859.06 Q1032.46 859.06 1030 862.185 Q1027.57 865.31 1027.22 871.629 Q1028.59 869.616 1030.65 868.551 Q1032.71 867.463 1035.19 867.463 Q1040.39 867.463 1043.4 870.634 Q1046.44 873.782 1046.44 879.222 Q1046.44 884.546 1043.29 887.764 Q1040.14 890.981 1034.91 890.981 Q1028.91 890.981 1025.74 886.398 Q1022.57 881.791 1022.57 873.065 Q1022.57 864.87 1026.46 860.009 Q1030.35 855.125 1036.9 855.125 Q1038.66 855.125 1040.44 855.472 Q1042.25 855.819 1044.19 856.514 Z" fill="#000000" fill-rule="nonzero" fill-opacity="1" /><path clip-path="url(#clip550)" d="M1259.71 858.829 Q1256.1 858.829 1254.27 862.393 Q1252.46 865.935 1252.46 873.065 Q1252.46 880.171 1254.27 883.736 Q1256.1 887.277 1259.71 887.277 Q1263.34 887.277 1265.15 883.736 Q1266.97 880.171 1266.97 873.065 Q1266.97 865.935 1265.15 862.393 Q1263.34 858.829 1259.71 858.829 M1259.71 855.125 Q1265.52 855.125 1268.57 859.731 Q1271.65 864.315 1271.65 873.065 Q1271.65 881.791 1268.57 886.398 Q1265.52 890.981 1259.71 890.981 Q1253.9 890.981 1250.82 886.398 Q1247.76 881.791 1247.76 873.065 Q1247.76 864.315 1250.82 859.731 Q1253.9 855.125 1259.71 855.125 Z" fill="#000000" fill-rule="nonzero" fill-opacity="1" /><path clip-path="url(#clip550)" d="M1279.87 884.43 L1284.75 884.43 L1284.75 890.31 L1279.87 890.31 L1279.87 884.43 Z" fill="#000000" fill-rule="nonzero" fill-opacity="1" /><path clip-path="url(#clip550)" d="M1304.94 873.898 Q1301.6 873.898 1299.68 875.68 Q1297.78 877.463 1297.78 880.588 Q1297.78 883.713 1299.68 885.495 Q1301.6 887.277 1304.94 887.277 Q1308.27 887.277 1310.19 885.495 Q1312.11 883.69 1312.11 880.588 Q1312.11 877.463 1310.19 875.68 Q1308.29 873.898 1304.94 873.898 M1300.26 871.907 Q1297.25 871.166 1295.56 869.106 Q1293.9 867.046 1293.9 864.083 Q1293.9 859.94 1296.84 857.532 Q1299.8 855.125 1304.94 855.125 Q1310.1 855.125 1313.04 857.532 Q1315.98 859.94 1315.98 864.083 Q1315.98 867.046 1314.29 869.106 Q1312.62 871.166 1309.64 871.907 Q1313.02 872.694 1314.89 874.986 Q1316.79 877.278 1316.79 880.588 Q1316.79 885.611 1313.71 888.296 Q1310.66 890.981 1304.94 890.981 Q1299.22 890.981 1296.14 888.296 Q1293.09 885.611 1293.09 880.588 Q1293.09 877.278 1294.98 874.986 Q1296.88 872.694 1300.26 871.907 M1298.55 864.523 Q1298.55 867.208 1300.22 868.713 Q1301.91 870.217 1304.94 870.217 Q1307.95 870.217 1309.64 868.713 Q1311.35 867.208 1311.35 864.523 Q1311.35 861.838 1309.64 860.333 Q1307.95 858.829 1304.94 858.829 Q1301.91 858.829 1300.22 860.333 Q1298.55 861.838 1298.55 864.523 Z" fill="#000000" fill-rule="nonzero" fill-opacity="1" /><path clip-path="url(#clip550)" d="M1519.91 886.375 L1527.55 886.375 L1527.55 860.009 L1519.24 861.676 L1519.24 857.417 L1527.5 855.75 L1532.18 855.75 L1532.18 886.375 L1539.82 886.375 L1539.82 890.31 L1519.91 890.31 L1519.91 886.375 Z" fill="#000000" fill-rule="nonzero" fill-opacity="1" /><path clip-path="url(#clip550)" d="M1549.26 884.43 L1554.14 884.43 L1554.14 890.31 L1549.26 890.31 L1549.26 884.43 Z" fill="#000000" fill-rule="nonzero" fill-opacity="1" /><path clip-path="url(#clip550)" d="M1574.33 858.829 Q1570.72 858.829 1568.89 862.393 Q1567.08 865.935 1567.08 873.065 Q1567.08 880.171 1568.89 883.736 Q1570.72 887.277 1574.33 887.277 Q1577.96 887.277 1579.77 883.736 Q1581.6 880.171 1581.6 873.065 Q1581.6 865.935 1579.77 862.393 Q1577.96 858.829 1574.33 858.829 M1574.33 855.125 Q1580.14 855.125 1583.2 859.731 Q1586.27 864.315 1586.27 873.065 Q1586.27 881.791 1583.2 886.398 Q1580.14 890.981 1574.33 890.981 Q1568.52 890.981 1565.44 886.398 Q1562.39 881.791 1562.39 873.065 Q1562.39 864.315 1565.44 859.731 Q1568.52 855.125 1574.33 855.125 Z" fill="#000000" fill-rule="nonzero" fill-opacity="1" /><path clip-path="url(#clip550)" d="M762.052 924.937 L762.052 942.793 L770.137 942.793 Q774.624 942.793 777.075 940.47 Q779.526 938.146 779.526 933.849 Q779.526 929.584 777.075 927.261 Q774.624 924.937 770.137 924.937 L762.052 924.937 M755.623 919.654 L770.137 919.654 Q778.126 919.654 782.2 923.282 Q786.305 926.879 786.305 933.849 Q786.305 940.883 782.2 944.48 Q778.126 948.077 770.137 948.077 L762.052 948.077 L762.052 967.174 L755.623 967.174 L755.623 919.654 Z" fill="#000000" fill-rule="nonzero" fill-opacity="1" /><path clip-path="url(#clip550)" d="M806.166 935.632 Q801.456 935.632 798.719 939.324 Q795.981 942.984 795.981 949.382 Q795.981 955.779 798.687 959.471 Q801.424 963.132 806.166 963.132 Q810.845 963.132 813.583 959.44 Q816.32 955.747 816.32 949.382 Q816.32 943.048 813.583 939.356 Q810.845 935.632 806.166 935.632 M806.166 930.667 Q813.805 930.667 818.166 935.632 Q822.526 940.597 822.526 949.382 Q822.526 958.135 818.166 963.132 Q813.805 968.097 806.166 968.097 Q798.496 968.097 794.135 963.132 Q789.807 958.135 789.807 949.382 Q789.807 940.597 794.135 935.632 Q798.496 930.667 806.166 930.667 Z" fill="#000000" fill-rule="nonzero" fill-opacity="1" /><path clip-path="url(#clip550)" d="M854.96 932.576 L854.96 938.114 Q852.477 936.841 849.803 936.205 Q847.13 935.568 844.265 935.568 Q839.905 935.568 837.709 936.905 Q835.544 938.242 835.544 940.915 Q835.544 942.952 837.104 944.13 Q838.663 945.276 843.374 946.326 L845.379 946.772 Q851.618 948.109 854.228 950.559 Q856.869 952.978 856.869 957.339 Q856.869 962.304 852.923 965.2 Q849.008 968.097 842.133 968.097 Q839.268 968.097 836.149 967.524 Q833.062 966.983 829.624 965.869 L829.624 959.821 Q832.871 961.508 836.022 962.368 Q839.173 963.195 842.26 963.195 Q846.398 963.195 848.626 961.795 Q850.854 960.363 850.854 957.784 Q850.854 955.397 849.23 954.124 Q847.639 952.851 842.196 951.673 L840.159 951.196 Q834.717 950.05 832.298 947.695 Q829.879 945.308 829.879 941.17 Q829.879 936.141 833.444 933.404 Q837.008 930.667 843.565 930.667 Q846.812 930.667 849.676 931.144 Q852.541 931.621 854.96 932.576 Z" fill="#000000" fill-rule="nonzero" fill-opacity="1" /><path clip-path="url(#clip550)" d="M866.195 931.526 L872.052 931.526 L872.052 967.174 L866.195 967.174 L866.195 931.526 M866.195 917.649 L872.052 917.649 L872.052 925.065 L866.195 925.065 L866.195 917.649 Z" fill="#000000" fill-rule="nonzero" fill-opacity="1" /><path clip-path="url(#clip550)" d="M890.098 921.404 L890.098 931.526 L902.161 931.526 L902.161 936.077 L890.098 936.077 L890.098 955.429 Q890.098 959.79 891.276 961.031 Q892.485 962.272 896.146 962.272 L902.161 962.272 L902.161 967.174 L896.146 967.174 Q889.366 967.174 886.788 964.659 Q884.21 962.113 884.21 955.429 L884.21 936.077 L879.913 936.077 L879.913 931.526 L884.21 931.526 L884.21 921.404 L890.098 921.404 Z" fill="#000000" fill-rule="nonzero" fill-opacity="1" /><path clip-path="url(#clip550)" d="M909.864 931.526 L915.72 931.526 L915.72 967.174 L909.864 967.174 L909.864 931.526 M909.864 917.649 L915.72 917.649 L915.72 925.065 L909.864 925.065 L909.864 917.649 Z" fill="#000000" fill-rule="nonzero" fill-opacity="1" /><path clip-path="url(#clip550)" d="M941.788 935.632 Q937.077 935.632 934.34 939.324 Q931.603 942.984 931.603 949.382 Q931.603 955.779 934.308 959.471 Q937.045 963.132 941.788 963.132 Q946.467 963.132 949.204 959.44 Q951.941 955.747 951.941 949.382 Q951.941 943.048 949.204 939.356 Q946.467 935.632 941.788 935.632 M941.788 930.667 Q949.427 930.667 953.787 935.632 Q958.148 940.597 958.148 949.382 Q958.148 958.135 953.787 963.132 Q949.427 968.097 941.788 968.097 Q934.117 968.097 929.757 963.132 Q925.428 958.135 925.428 949.382 Q925.428 940.597 929.757 935.632 Q934.117 930.667 941.788 930.667 Z" fill="#000000" fill-rule="nonzero" fill-opacity="1" /><path clip-path="url(#clip550)" d="M997.488 945.658 L997.488 967.174 L991.631 967.174 L991.631 945.849 Q991.631 940.788 989.658 938.274 Q987.685 935.759 983.738 935.759 Q978.995 935.759 976.258 938.783 Q973.521 941.807 973.521 947.026 L973.521 967.174 L967.633 967.174 L967.633 931.526 L973.521 931.526 L973.521 937.064 Q975.622 933.849 978.454 932.258 Q981.319 930.667 985.043 930.667 Q991.186 930.667 994.337 934.486 Q997.488 938.274 997.488 945.658 Z" fill="#000000" fill-rule="nonzero" fill-opacity="1" /><polyline clip-path="url(#clip550)" style="stroke:#000000; stroke-linecap:round; stroke-linejoin:round; stroke-width:4; stroke-opacity:1; fill:none" points="200.355,834.31 200.355,47.2441 "/>
<polyline clip-path="url(#clip550)" style="stroke:#000000; stroke-linecap:round; stroke-linejoin:round; stroke-width:4; stroke-opacity:1; fill:none" points="200.355,834.31 219.252,834.31 "/>
<polyline clip-path="url(#clip550)" style="stroke:#000000; stroke-linecap:round; stroke-linejoin:round; stroke-width:4; stroke-opacity:1; fill:none" points="200.355,703.132 219.252,703.132 "/>
<polyline clip-path="url(#clip550)" style="stroke:#000000; stroke-linecap:round; stroke-linejoin:round; stroke-width:4; stroke-opacity:1; fill:none" points="200.355,571.955 219.252,571.955 "/>
<polyline clip-path="url(#clip550)" style="stroke:#000000; stroke-linecap:round; stroke-linejoin:round; stroke-width:4; stroke-opacity:1; fill:none" points="200.355,440.777 219.252,440.777 "/>
<polyline clip-path="url(#clip550)" style="stroke:#000000; stroke-linecap:round; stroke-linejoin:round; stroke-width:4; stroke-opacity:1; fill:none" points="200.355,309.599 219.252,309.599 "/>
<polyline clip-path="url(#clip550)" style="stroke:#000000; stroke-linecap:round; stroke-linejoin:round; stroke-width:4; stroke-opacity:1; fill:none" points="200.355,178.422 219.252,178.422 "/>
<polyline clip-path="url(#clip550)" style="stroke:#000000; stroke-linecap:round; stroke-linejoin:round; stroke-width:4; stroke-opacity:1; fill:none" points="200.355,47.2441 219.252,47.2441 "/>
<path clip-path="url(#clip550)" d="M115.29 834.761 L144.966 834.761 L144.966 838.696 L115.29 838.696 L115.29 834.761 Z" fill="#000000" fill-rule="nonzero" fill-opacity="1" /><path clip-path="url(#clip550)" d="M169.225 832.956 Q172.582 833.673 174.457 835.942 Q176.355 838.21 176.355 841.544 Q176.355 846.659 172.836 849.46 Q169.318 852.261 162.836 852.261 Q160.66 852.261 158.345 851.821 Q156.054 851.405 153.6 850.548 L153.6 846.034 Q155.545 847.169 157.859 847.747 Q160.174 848.326 162.697 848.326 Q167.095 848.326 169.387 846.59 Q171.702 844.854 171.702 841.544 Q171.702 838.488 169.549 836.775 Q167.42 835.039 163.6 835.039 L159.572 835.039 L159.572 831.196 L163.785 831.196 Q167.234 831.196 169.063 829.831 Q170.892 828.442 170.892 825.849 Q170.892 823.187 168.994 821.775 Q167.119 820.34 163.6 820.34 Q161.679 820.34 159.48 820.757 Q157.281 821.173 154.642 822.053 L154.642 817.886 Q157.304 817.146 159.619 816.775 Q161.957 816.405 164.017 816.405 Q169.341 816.405 172.443 818.835 Q175.544 821.243 175.544 825.363 Q175.544 828.233 173.901 830.224 Q172.257 832.192 169.225 832.956 Z" fill="#000000" fill-rule="nonzero" fill-opacity="1" /><path clip-path="url(#clip550)" d="M116.239 703.584 L145.915 703.584 L145.915 707.519 L116.239 707.519 L116.239 703.584 Z" fill="#000000" fill-rule="nonzero" fill-opacity="1" /><path clip-path="url(#clip550)" d="M160.035 716.477 L176.355 716.477 L176.355 720.412 L154.41 720.412 L154.41 716.477 Q157.072 713.722 161.656 709.093 Q166.262 704.44 167.443 703.097 Q169.688 700.574 170.568 698.838 Q171.47 697.079 171.47 695.389 Q171.47 692.635 169.526 690.898 Q167.605 689.162 164.503 689.162 Q162.304 689.162 159.85 689.926 Q157.42 690.69 154.642 692.241 L154.642 687.519 Q157.466 686.385 159.92 685.806 Q162.373 685.227 164.41 685.227 Q169.781 685.227 172.975 687.912 Q176.169 690.598 176.169 695.088 Q176.169 697.218 175.359 699.139 Q174.572 701.037 172.466 703.63 Q171.887 704.301 168.785 707.519 Q165.683 710.713 160.035 716.477 Z" fill="#000000" fill-rule="nonzero" fill-opacity="1" /><path clip-path="url(#clip550)" d="M115.869 572.406 L145.545 572.406 L145.545 576.341 L115.869 576.341 L115.869 572.406 Z" fill="#000000" fill-rule="nonzero" fill-opacity="1" /><path clip-path="url(#clip550)" d="M156.447 585.299 L164.086 585.299 L164.086 558.934 L155.776 560.6 L155.776 556.341 L164.04 554.675 L168.716 554.675 L168.716 585.299 L176.355 585.299 L176.355 589.235 L156.447 589.235 L156.447 585.299 Z" fill="#000000" fill-rule="nonzero" fill-opacity="1" /><path clip-path="url(#clip550)" d="M164.41 426.576 Q160.799 426.576 158.97 430.14 Q157.165 433.682 157.165 440.812 Q157.165 447.918 158.97 451.483 Q160.799 455.025 164.41 455.025 Q168.045 455.025 169.85 451.483 Q171.679 447.918 171.679 440.812 Q171.679 433.682 169.85 430.14 Q168.045 426.576 164.41 426.576 M164.41 422.872 Q170.22 422.872 173.276 427.478 Q176.355 432.062 176.355 440.812 Q176.355 449.538 173.276 454.145 Q170.22 458.728 164.41 458.728 Q158.6 458.728 155.521 454.145 Q152.466 449.538 152.466 440.812 Q152.466 432.062 155.521 427.478 Q158.6 422.872 164.41 422.872 Z" fill="#000000" fill-rule="nonzero" fill-opacity="1" /><path clip-path="url(#clip550)" d="M156.447 322.944 L164.086 322.944 L164.086 296.579 L155.776 298.245 L155.776 293.986 L164.04 292.319 L168.716 292.319 L168.716 322.944 L176.355 322.944 L176.355 326.879 L156.447 326.879 L156.447 322.944 Z" fill="#000000" fill-rule="nonzero" fill-opacity="1" /><path clip-path="url(#clip550)" d="M160.035 191.767 L176.355 191.767 L176.355 195.702 L154.41 195.702 L154.41 191.767 Q157.072 189.012 161.656 184.382 Q166.262 179.73 167.443 178.387 Q169.688 175.864 170.568 174.128 Q171.47 172.369 171.47 170.679 Q171.47 167.924 169.526 166.188 Q167.605 164.452 164.503 164.452 Q162.304 164.452 159.85 165.216 Q157.42 165.98 154.642 167.531 L154.642 162.808 Q157.466 161.674 159.92 161.095 Q162.373 160.517 164.41 160.517 Q169.781 160.517 172.975 163.202 Q176.169 165.887 176.169 170.378 Q176.169 172.507 175.359 174.429 Q174.572 176.327 172.466 178.919 Q171.887 179.591 168.785 182.808 Q165.683 186.003 160.035 191.767 Z" fill="#000000" fill-rule="nonzero" fill-opacity="1" /><path clip-path="url(#clip550)" d="M169.225 45.8899 Q172.582 46.6075 174.457 48.876 Q176.355 51.1445 176.355 54.4779 Q176.355 59.5936 172.836 62.3945 Q169.318 65.1954 162.836 65.1954 Q160.66 65.1954 158.345 64.7556 Q156.054 64.3389 153.6 63.4824 L153.6 58.9686 Q155.545 60.1028 157.859 60.6815 Q160.174 61.2602 162.697 61.2602 Q167.095 61.2602 169.387 59.5241 Q171.702 57.788 171.702 54.4779 Q171.702 51.4223 169.549 49.7094 Q167.42 47.9733 163.6 47.9733 L159.572 47.9733 L159.572 44.1307 L163.785 44.1307 Q167.234 44.1307 169.063 42.765 Q170.892 41.3761 170.892 38.7835 Q170.892 36.1215 168.994 34.7094 Q167.119 33.2743 163.6 33.2743 Q161.679 33.2743 159.48 33.6909 Q157.281 34.1076 154.642 34.9872 L154.642 30.8206 Q157.304 30.0798 159.619 29.7095 Q161.957 29.3391 164.017 29.3391 Q169.341 29.3391 172.443 31.7696 Q175.544 34.177 175.544 38.2974 Q175.544 41.1677 173.901 43.1585 Q172.257 45.1261 169.225 45.8899 Z" fill="#000000" fill-rule="nonzero" fill-opacity="1" /><path clip-path="url(#clip550)" d="M35.848 584.037 L59.4966 592.758 L59.4966 575.284 L35.848 584.037 M29.5142 587.666 L29.5142 580.377 L77.0342 562.266 L77.0342 568.95 L64.8438 573.279 L64.8438 594.7 L77.0342 599.028 L77.0342 605.808 L29.5142 587.666 Z" fill="#000000" fill-rule="nonzero" fill-opacity="1" /><path clip-path="url(#clip550)" d="M48.2293 527.828 Q44.2826 525.632 42.4047 522.576 Q40.5268 519.521 40.5268 515.383 Q40.5268 509.813 44.4417 506.789 Q48.3248 503.766 55.5181 503.766 L77.0342 503.766 L77.0342 509.654 L55.709 509.654 Q50.5846 509.654 48.102 511.468 Q45.6194 513.282 45.6194 517.006 Q45.6194 521.558 48.6431 524.2 Q51.6668 526.841 56.8867 526.841 L77.0342 526.841 L77.0342 532.73 L55.709 532.73 Q50.5528 532.73 48.102 534.544 Q45.6194 536.358 45.6194 540.146 Q45.6194 544.633 48.6749 547.275 Q51.6986 549.917 56.8867 549.917 L77.0342 549.917 L77.0342 555.805 L41.3862 555.805 L41.3862 549.917 L46.9244 549.917 Q43.646 547.912 42.0864 545.111 Q40.5268 542.31 40.5268 538.459 Q40.5268 534.576 42.5002 531.87 Q44.4736 529.133 48.2293 527.828 Z" fill="#000000" fill-rule="nonzero" fill-opacity="1" /><path clip-path="url(#clip550)" d="M71.687 486.419 L90.5931 486.419 L90.5931 492.307 L41.3862 492.307 L41.3862 486.419 L46.7971 486.419 Q43.6142 484.573 42.0864 481.772 Q40.5268 478.939 40.5268 475.024 Q40.5268 468.531 45.6831 464.489 Q50.8393 460.415 59.242 460.415 Q67.6447 460.415 72.801 464.489 Q77.9572 468.531 77.9572 475.024 Q77.9572 478.939 76.4294 481.772 Q74.8698 484.573 71.687 486.419 M59.242 466.494 Q52.7808 466.494 49.1205 469.168 Q45.4284 471.81 45.4284 476.457 Q45.4284 481.104 49.1205 483.777 Q52.7808 486.419 59.242 486.419 Q65.7032 486.419 69.3953 483.777 Q73.0556 481.104 73.0556 476.457 Q73.0556 471.81 69.3953 469.168 Q65.7032 466.494 59.242 466.494 Z" fill="#000000" fill-rule="nonzero" fill-opacity="1" /><path clip-path="url(#clip550)" d="M27.509 450.707 L27.509 444.851 L77.0342 444.851 L77.0342 450.707 L27.509 450.707 Z" fill="#000000" fill-rule="nonzero" fill-opacity="1" /><path clip-path="url(#clip550)" d="M41.3862 432.597 L41.3862 426.741 L77.0342 426.741 L77.0342 432.597 L41.3862 432.597 M27.509 432.597 L27.509 426.741 L34.925 426.741 L34.925 432.597 L27.509 432.597 Z" fill="#000000" fill-rule="nonzero" fill-opacity="1" /><path clip-path="url(#clip550)" d="M31.2647 408.694 L41.3862 408.694 L41.3862 396.631 L45.9377 396.631 L45.9377 408.694 L65.2894 408.694 Q69.6499 408.694 70.8913 407.516 Q72.1326 406.307 72.1326 402.646 L72.1326 396.631 L77.0342 396.631 L77.0342 402.646 Q77.0342 409.426 74.5197 412.004 Q71.9734 414.582 65.2894 414.582 L45.9377 414.582 L45.9377 418.879 L41.3862 418.879 L41.3862 414.582 L31.2647 414.582 L31.2647 408.694 Z" fill="#000000" fill-rule="nonzero" fill-opacity="1" /><path clip-path="url(#clip550)" d="M62.9659 389.533 L41.3862 389.533 L41.3862 383.677 L62.7431 383.677 Q67.8039 383.677 70.3502 381.703 Q72.8646 379.73 72.8646 375.783 Q72.8646 371.041 69.8409 368.303 Q66.8172 365.534 61.5973 365.534 L41.3862 365.534 L41.3862 359.678 L77.0342 359.678 L77.0342 365.534 L71.5596 365.534 Q74.8062 367.667 76.3976 370.5 Q77.9572 373.3 77.9572 377.024 Q77.9572 383.167 74.1378 386.35 Q70.3183 389.533 62.9659 389.533 M40.5268 374.796 L40.5268 374.796 Z" fill="#000000" fill-rule="nonzero" fill-opacity="1" /><path clip-path="url(#clip550)" d="M46.7971 324.157 L27.509 324.157 L27.509 318.301 L77.0342 318.301 L77.0342 324.157 L71.687 324.157 Q74.8698 326.003 76.4294 328.836 Q77.9572 331.637 77.9572 335.584 Q77.9572 342.045 72.801 346.119 Q67.6447 350.161 59.242 350.161 Q50.8393 350.161 45.6831 346.119 Q40.5268 342.045 40.5268 335.584 Q40.5268 331.637 42.0864 328.836 Q43.6142 326.003 46.7971 324.157 M59.242 344.114 Q65.7032 344.114 69.3953 341.472 Q73.0556 338.798 73.0556 334.151 Q73.0556 329.504 69.3953 326.831 Q65.7032 324.157 59.242 324.157 Q52.7808 324.157 49.1205 326.831 Q45.4284 329.504 45.4284 334.151 Q45.4284 338.798 49.1205 341.472 Q52.7808 344.114 59.242 344.114 Z" fill="#000000" fill-rule="nonzero" fill-opacity="1" /><path clip-path="url(#clip550)" d="M57.7461 275.746 L60.6106 275.746 L60.6106 302.673 Q66.6581 302.291 69.8409 299.045 Q72.9919 295.766 72.9919 289.942 Q72.9919 286.568 72.1644 283.417 Q71.3369 280.234 69.6818 277.115 L75.2199 277.115 Q76.5567 280.266 77.257 283.576 Q77.9572 286.886 77.9572 290.292 Q77.9572 298.822 72.9919 303.819 Q68.0267 308.784 59.5603 308.784 Q50.8074 308.784 45.6831 304.073 Q40.5268 299.331 40.5268 291.31 Q40.5268 284.117 45.1738 279.947 Q49.7889 275.746 57.7461 275.746 M56.0273 281.602 Q51.2212 281.666 48.3566 284.308 Q45.4921 286.918 45.4921 291.247 Q45.4921 296.148 48.2612 299.108 Q51.0302 302.036 56.0592 302.482 L56.0273 281.602 Z" fill="#000000" fill-rule="nonzero" fill-opacity="1" /><polyline clip-path="url(#clip552)" style="stroke:#000000; stroke-linecap:round; stroke-linejoin:round; stroke-width:4; stroke-opacity:1; fill:none" points="-1152.05,440.777 2905.16,440.777 "/>
<path clip-path="url(#clip552)" d="M721.315 224.011 L721.315 264.011 L761.315 264.011 L761.315 224.011 L721.315 224.011 Z" fill="#ffd700" fill-rule="evenodd" fill-opacity="1" stroke="none"/>
<path clip-path="url(#clip552)" d="M1127.04 551.955 L1127.04 591.955 L1167.04 591.955 L1167.04 551.955 L1127.04 551.955 Z" fill="#ffd700" fill-rule="evenodd" fill-opacity="1" stroke="none"/>
<polyline clip-path="url(#clip552)" style="stroke:#008000; stroke-linecap:round; stroke-linejoin:round; stroke-width:4; stroke-opacity:1; fill:none" points="200.355,437.125 201.707,437.166 203.059,437.209 204.412,437.256 205.764,437.305 207.117,437.356 208.469,437.41 209.821,437.465 211.174,437.523 212.526,437.583 213.879,437.645 215.231,437.709 216.583,437.774 217.936,437.841 219.288,437.909 220.641,437.978 221.993,438.049 223.345,438.121 224.698,438.194 226.05,438.268 227.403,438.343 228.755,438.419 230.107,438.496 231.46,438.573 232.812,438.651 234.165,438.73 235.517,438.809 236.869,438.889 238.222,438.969 239.574,439.049 240.927,439.13 242.279,439.211 243.631,439.293 244.984,439.374 246.336,439.456 247.689,439.538 249.041,439.62 250.393,439.703 251.746,439.785 253.098,439.867 254.451,439.95 255.803,440.032 257.155,440.115 258.508,440.198 259.86,440.28 261.213,440.363 262.565,440.446 263.918,440.529 265.27,440.611 266.622,440.694 267.975,440.777 269.327,440.86 270.68,440.942 272.032,441.025 273.384,441.108 274.737,441.191 276.089,441.273 277.442,441.356 278.794,441.439 280.146,441.521 281.499,441.604 282.851,441.687 284.204,441.769 285.556,441.851 286.908,441.934 288.261,442.016 289.613,442.098 290.966,442.18 292.318,442.261 293.67,442.343 295.023,442.424 296.375,442.504 297.728,442.585 299.08,442.665 300.432,442.745 301.785,442.824 303.137,442.903 304.49,442.981 305.842,443.058 307.194,443.135 308.547,443.211 309.899,443.286 311.252,443.36 312.604,443.433 313.956,443.505 315.309,443.576 316.661,443.645 318.014,443.713 319.366,443.78 320.718,443.845 322.071,443.909 323.423,443.971 324.776,444.031 326.128,444.089 327.48,444.144 328.833,444.198 330.185,444.249 331.538,444.298 332.89,444.345 334.242,444.388 335.595,444.429 336.947,444.467 338.3,444.502 339.652,444.534 341.004,444.562 342.357,444.587 343.709,444.609 345.062,444.627 346.414,444.641 347.766,444.651 349.119,444.657 350.471,444.659 351.824,444.657 353.176,444.65 354.528,444.639 355.881,444.623 357.233,444.603 358.586,444.578 359.938,444.547 361.29,444.512 362.643,444.472 363.995,444.427 365.348,444.377 366.7,444.321 368.052,444.26 369.405,444.194 370.757,444.122 372.11,444.045 373.462,443.962 374.814,443.873 376.167,443.78 377.519,443.68 378.872,443.575 380.224,443.464 381.576,443.348 382.929,443.226 384.281,443.099 385.634,442.967 386.986,442.829 388.338,442.685 389.691,442.537 391.043,442.383 392.396,442.224 393.748,442.06 395.1,441.892 396.453,441.718 397.805,441.54 399.158,441.358 400.51,441.171 401.862,440.98 403.215,440.786 404.567,440.587 405.92,440.385 407.272,440.18 408.624,439.971 409.977,439.76 411.329,439.546 412.682,439.329 414.034,439.111 415.386,438.891 416.739,438.669 418.091,438.446 419.444,438.221 420.796,437.997 422.148,437.771 423.501,437.546 424.853,437.321 426.206,437.097 427.558,436.874 428.91,436.652 430.263,436.432 431.615,436.213 432.968,435.998 434.32,435.785 435.672,435.575 437.025,435.369 438.377,435.166 439.73,434.969 441.082,434.775 442.434,434.587 443.787,434.405 445.139,434.228 446.492,434.058 447.844,433.894 449.196,433.737 450.549,433.588 451.901,433.446 453.254,433.313 454.606,433.188 455.958,433.073 457.311,432.966 458.663,432.869 460.016,432.783 461.368,432.706 462.72,432.64 464.073,432.586 465.425,432.542 466.778,432.51 468.13,432.49 469.482,432.482 470.835,432.487 472.187,432.504 473.54,432.534 474.892,432.577 476.245,432.634 477.597,432.704 478.949,432.788 480.302,432.886 481.654,432.997 483.007,433.123 484.359,433.263 485.711,433.418 487.064,433.586 488.416,433.77 489.769,433.967 491.121,434.179 492.473,434.405 493.826,434.646 495.178,434.901 496.531,435.17 497.883,435.454 499.235,435.751 500.588,436.062 501.94,436.386 503.293,436.724 504.645,437.075 505.997,437.439 507.35,437.816 508.702,438.204 510.055,438.605 511.407,439.017 512.759,439.441 514.112,439.875 515.464,440.32 516.817,440.774 518.169,441.238 519.521,441.711 520.874,442.192 522.226,442.681 523.579,443.177 524.931,443.679 526.283,444.188 527.636,444.702 528.988,445.221 530.341,445.743 531.693,446.269 533.045,446.797 534.398,447.327 535.75,447.858 537.103,448.39 538.455,448.92 539.807,449.449 541.16,449.976 542.512,450.5 543.865,451.02 545.217,451.534 546.569,452.043 547.922,452.546 549.274,453.04 550.627,453.526 551.979,454.003 553.331,454.469 554.684,454.923 556.036,455.365 557.389,455.794 558.741,456.209 560.093,456.608 561.446,456.991 562.798,457.357 564.151,457.704 565.503,458.033 566.855,458.341 568.208,458.628 569.56,458.893 570.913,459.135 572.265,459.354 573.617,459.547 574.97,459.714 576.322,459.855 577.675,459.969 579.027,460.054 580.379,460.109 581.732,460.135 583.084,460.129 584.437,460.092 585.789,460.023 587.141,459.92 588.494,459.783 589.846,459.611 591.199,459.404 592.551,459.161 593.903,458.882 595.256,458.565 596.608,458.21 597.961,457.817 599.313,457.386 600.665,456.915 602.018,456.404 603.37,455.853 604.723,455.262 606.075,454.631 607.427,453.958 608.78,453.244 610.132,452.488 611.485,451.691 612.837,450.853 614.189,449.973 615.542,449.05 616.894,448.087 618.247,447.081 619.599,446.034 620.951,444.946 622.304,443.817 623.656,442.646 625.009,441.435 626.361,440.184 627.713,438.893 629.066,437.562 630.418,436.193 631.771,434.785 633.123,433.34 634.475,431.857 635.828,430.338 637.18,428.783 638.533,427.193 639.885,425.568 641.237,423.911 642.59,422.221 643.942,420.5 645.295,418.748 646.647,416.967 647.999,415.157 649.352,413.321 650.704,411.458 652.057,409.57 653.409,407.659 654.761,405.726 656.114,403.772 657.466,401.798 658.819,399.806 660.171,397.797 661.523,395.773 662.876,393.735 664.228,391.685 665.581,389.624 666.933,387.554 668.285,385.477 669.638,383.394 670.99,381.307 672.343,379.217 673.695,377.127 675.047,375.037 676.4,372.95 677.752,370.868 679.105,368.792 680.457,366.723 681.809,364.665 683.162,362.618 684.514,360.585 685.867,358.567 687.219,356.566 688.572,354.584 689.924,352.622 691.276,350.684 692.629,348.769 693.981,346.88 695.334,345.02 696.686,343.189 698.038,341.389 699.391,339.623 700.743,337.892 702.096,336.197 703.448,334.541 704.8,332.924 706.153,331.35 707.505,329.818 708.858,328.332 710.21,326.892 711.562,325.5 712.915,324.158 714.267,322.866 715.62,321.627 716.972,320.442 718.324,319.311 719.677,318.238 721.029,317.221 722.382,316.264 723.734,315.367 725.086,314.531 726.439,313.757 727.791,313.046 729.144,312.4 730.496,311.818 731.848,311.303 733.201,310.854 734.553,310.473 735.906,310.16 737.258,309.915 738.61,309.74 739.963,309.635 741.315,309.599 742.668,309.635 744.02,309.741 745.372,309.918 746.725,310.167 748.077,310.486 749.43,310.877 750.782,311.34 752.134,311.874 753.487,312.478 754.839,313.154 756.192,313.9 757.544,314.716 758.896,315.601 760.249,316.556 761.601,317.579 762.954,318.671 764.306,319.829 765.658,321.054 767.011,322.344 768.363,323.699 769.716,325.118 771.068,326.599 772.42,328.141 773.773,329.744 775.125,331.406 776.478,333.126 777.83,334.902 779.182,336.734 780.535,338.618 781.887,340.555 783.24,342.542 784.592,344.578 785.944,346.661 787.297,348.79 788.649,350.962 790.002,353.176 791.354,355.43 792.706,357.722 794.059,360.05 795.411,362.412 796.764,364.806 798.116,367.23 799.468,369.681 800.821,372.159 802.173,374.66 803.526,377.183 804.878,379.725 806.23,382.284 807.583,384.857 808.935,387.443 810.288,390.04 811.64,392.644 812.992,395.253 814.345,397.867 815.697,400.481 817.05,403.093 818.402,405.702 819.754,408.305 821.107,410.9 822.459,413.485 823.812,416.056 825.164,418.612 826.516,421.151 827.869,423.67 829.221,426.167 830.574,428.64 831.926,431.087 833.278,433.506 834.631,435.893 835.983,438.249 837.336,440.569 838.688,442.853 840.04,445.098 841.393,447.302 842.745,449.463 844.098,451.58 845.45,453.651 846.802,455.674 848.155,457.647 849.507,459.568 850.86,461.436 852.212,463.25 853.564,465.008 854.917,466.708 856.269,468.349 857.622,469.93 858.974,471.449 860.326,472.906 861.679,474.299 863.031,475.627 864.384,476.889 865.736,478.085 867.088,479.213 868.441,480.273 869.793,481.263 871.146,482.184 872.498,483.035 873.85,483.815 875.203,484.524 876.555,485.162 877.908,485.728 879.26,486.222 880.612,486.645 881.965,486.996 883.317,487.275 884.67,487.482 886.022,487.618 887.374,487.683 888.727,487.677 890.079,487.602 891.432,487.456 892.784,487.242 894.136,486.959 895.489,486.608 896.841,486.191 898.194,485.708 899.546,485.16 900.898,484.548 902.251,483.874 903.603,483.138 904.956,482.342 906.308,481.487 907.661,480.575 909.013,479.607 910.365,478.584 911.718,477.508 913.07,476.381 914.423,475.204 915.775,473.98 917.127,472.709 918.48,471.395 919.832,470.038 921.185,468.64 922.537,467.205 923.889,465.733 925.242,464.226 926.594,462.688 927.947,461.119 929.299,459.523 930.651,457.901 932.004,456.256 933.356,454.59 934.709,452.905 936.061,451.203 937.413,449.487 938.766,447.759 940.118,446.022 941.471,444.278 942.823,442.528 944.175,440.777 945.528,439.025 946.88,437.276 948.233,435.532 949.585,433.795 950.937,432.067 952.29,430.351 953.642,428.649 954.995,426.964 956.347,425.298 957.699,423.653 959.052,422.031 960.404,420.434 961.757,418.866 963.109,417.328 964.461,415.821 965.814,414.349 967.166,412.914 968.519,411.516 969.871,410.159 971.223,408.844 972.576,407.574 973.928,406.349 975.281,405.173 976.633,404.046 977.985,402.97 979.338,401.947 980.69,400.979 982.043,400.067 983.395,399.212 984.747,398.416 986.1,397.68 987.452,397.006 988.805,396.394 990.157,395.846 991.509,395.363 992.862,394.946 994.214,394.595 995.567,394.312 996.919,394.098 998.271,393.952 999.624,393.876 1000.98,393.871 1002.33,393.936 1003.68,394.072 1005.03,394.279 1006.39,394.558 1007.74,394.909 1009.09,395.332 1010.44,395.826 1011.8,396.392 1013.15,397.03 1014.5,397.739 1015.85,398.519 1017.21,399.37 1018.56,400.291 1019.91,401.281 1021.26,402.341 1022.61,403.469 1023.97,404.665 1025.32,405.927 1026.67,407.255 1028.02,408.648 1029.38,410.105 1030.73,411.624 1032.08,413.205 1033.43,414.846 1034.79,416.546 1036.14,418.304 1037.49,420.118 1038.84,421.986 1040.2,423.907 1041.55,425.88 1042.9,427.903 1044.25,429.974 1045.61,432.091 1046.96,434.252 1048.31,436.456 1049.66,438.701 1051.02,440.985 1052.37,443.305 1053.72,445.66 1055.07,448.048 1056.42,450.467 1057.78,452.914 1059.13,455.387 1060.48,457.884 1061.83,460.403 1063.19,462.942 1064.54,465.498 1065.89,468.069 1067.24,470.654 1068.6,473.248 1069.95,475.852 1071.3,478.461 1072.65,481.073 1074.01,483.687 1075.36,486.3 1076.71,488.91 1078.06,491.514 1079.42,494.111 1080.77,496.697 1082.12,499.27 1083.47,501.829 1084.83,504.371 1086.18,506.894 1087.53,509.395 1088.88,511.872 1090.23,514.324 1091.59,516.748 1092.94,519.142 1094.29,521.504 1095.64,523.832 1097,526.124 1098.35,528.378 1099.7,530.592 1101.05,532.764 1102.41,534.893 1103.76,536.976 1105.11,539.012 1106.46,540.999 1107.82,542.936 1109.17,544.82 1110.52,546.652 1111.87,548.428 1113.23,550.148 1114.58,551.81 1115.93,553.412 1117.28,554.955 1118.64,556.436 1119.99,557.855 1121.34,559.21 1122.69,560.5 1124.04,561.725 1125.4,562.883 1126.75,563.974 1128.1,564.998 1129.45,565.953 1130.81,566.838 1132.16,567.654 1133.51,568.4 1134.86,569.076 1136.22,569.68 1137.57,570.214 1138.92,570.676 1140.27,571.068 1141.63,571.387 1142.98,571.636 1144.33,571.813 1145.68,571.919 1147.04,571.955 1148.39,571.919 1149.74,571.814 1151.09,571.639 1152.45,571.394 1153.8,571.081 1155.15,570.7 1156.5,570.251 1157.85,569.736 1159.21,569.154 1160.56,568.508 1161.91,567.797 1163.26,567.023 1164.62,566.187 1165.97,565.29 1167.32,564.332 1168.67,563.316 1170.03,562.242 1171.38,561.112 1172.73,559.927 1174.08,558.688 1175.44,557.396 1176.79,556.054 1178.14,554.662 1179.49,553.222 1180.85,551.735 1182.2,550.204 1183.55,548.63 1184.9,547.013 1186.26,545.357 1187.61,543.662 1188.96,541.931 1190.31,540.165 1191.66,538.365 1193.02,536.534 1194.37,534.674 1195.72,532.785 1197.07,530.87 1198.43,528.931 1199.78,526.97 1201.13,524.988 1202.48,522.987 1203.84,520.969 1205.19,518.936 1206.54,516.889 1207.89,514.83 1209.25,512.762 1210.6,510.686 1211.95,508.604 1213.3,506.517 1214.66,504.427 1216.01,502.337 1217.36,500.247 1218.71,498.16 1220.07,496.077 1221.42,493.999 1222.77,491.93 1224.12,489.869 1225.47,487.819 1226.83,485.781 1228.18,483.757 1229.53,481.748 1230.88,479.756 1232.24,477.782 1233.59,475.828 1234.94,473.895 1236.29,471.984 1237.65,470.096 1239,468.233 1240.35,466.397 1241.7,464.587 1243.06,462.806 1244.41,461.054 1245.76,459.333 1247.11,457.643 1248.47,455.985 1249.82,454.361 1251.17,452.771 1252.52,451.216 1253.88,449.697 1255.23,448.214 1256.58,446.769 1257.93,445.361 1259.28,443.991 1260.64,442.661 1261.99,441.37 1263.34,440.119 1264.69,438.908 1266.05,437.737 1267.4,436.608 1268.75,435.52 1270.1,434.473 1271.46,433.467 1272.81,432.503 1274.16,431.581 1275.51,430.701 1276.87,429.862 1278.22,429.066 1279.57,428.31 1280.92,427.596 1282.28,426.923 1283.63,426.292 1284.98,425.7 1286.33,425.15 1287.69,424.639 1289.04,424.168 1290.39,423.737 1291.74,423.344 1293.09,422.989 1294.45,422.672 1295.8,422.393 1297.15,422.15 1298.5,421.943 1299.86,421.771 1301.21,421.634 1302.56,421.531 1303.91,421.462 1305.27,421.425 1306.62,421.419 1307.97,421.445 1309.32,421.5 1310.68,421.585 1312.03,421.699 1313.38,421.84 1314.73,422.007 1316.09,422.2 1317.44,422.419 1318.79,422.661 1320.14,422.926 1321.5,423.213 1322.85,423.521 1324.2,423.85 1325.55,424.197 1326.9,424.563 1328.26,424.946 1329.61,425.345 1330.96,425.76 1332.31,426.189 1333.67,426.631 1335.02,427.085 1336.37,427.551 1337.72,428.028 1339.08,428.514 1340.43,429.008 1341.78,429.511 1343.13,430.02 1344.49,430.534 1345.84,431.054 1347.19,431.578 1348.54,432.105 1349.9,432.634 1351.25,433.164 1352.6,433.696 1353.95,434.227 1355.31,434.757 1356.66,435.285 1358.01,435.811 1359.36,436.333 1360.71,436.852 1362.07,437.366 1363.42,437.875 1364.77,438.377 1366.12,438.873 1367.48,439.362 1368.83,439.843 1370.18,440.316 1371.53,440.78 1372.89,441.234 1374.24,441.679 1375.59,442.113 1376.94,442.537 1378.3,442.949 1379.65,443.349 1381,443.738 1382.35,444.115 1383.71,444.479 1385.06,444.83 1386.41,445.168 1387.76,445.492 1389.12,445.803 1390.47,446.1 1391.82,446.384 1393.17,446.653 1394.52,446.908 1395.88,447.149 1397.23,447.375 1398.58,447.587 1399.93,447.784 1401.29,447.968 1402.64,448.136 1403.99,448.291 1405.34,448.431 1406.7,448.557 1408.05,448.668 1409.4,448.766 1410.75,448.85 1412.11,448.92 1413.46,448.977 1414.81,449.02 1416.16,449.05 1417.52,449.067 1418.87,449.072 1420.22,449.064 1421.57,449.044 1422.93,449.012 1424.28,448.968 1425.63,448.914 1426.98,448.848 1428.33,448.771 1429.69,448.684 1431.04,448.588 1432.39,448.481 1433.74,448.365 1435.1,448.241 1436.45,448.108 1437.8,447.966 1439.15,447.817 1440.51,447.66 1441.86,447.496 1443.21,447.326 1444.56,447.149 1445.92,446.967 1447.27,446.779 1448.62,446.585 1449.97,446.387 1451.33,446.185 1452.68,445.979 1454.03,445.769 1455.38,445.556 1456.74,445.341 1458.09,445.122 1459.44,444.902 1460.79,444.68 1462.15,444.457 1463.5,444.233 1464.85,444.008 1466.2,443.783 1467.55,443.557 1468.91,443.333 1470.26,443.108 1471.61,442.885 1472.96,442.663 1474.32,442.443 1475.67,442.224 1477.02,442.008 1478.37,441.794 1479.73,441.583 1481.08,441.374 1482.43,441.169 1483.78,440.967 1485.14,440.768 1486.49,440.574 1487.84,440.383 1489.19,440.196 1490.55,440.014 1491.9,439.836 1493.25,439.662 1494.6,439.494 1495.96,439.33 1497.31,439.171 1498.66,439.017 1500.01,438.869 1501.36,438.725 1502.72,438.587 1504.07,438.455 1505.42,438.327 1506.77,438.206 1508.13,438.09 1509.48,437.979 1510.83,437.874 1512.18,437.774 1513.54,437.681 1514.89,437.592 1516.24,437.509 1517.59,437.432 1518.95,437.36 1520.3,437.294 1521.65,437.233 1523,437.177 1524.36,437.127 1525.71,437.082 1527.06,437.041 1528.41,437.006 1529.77,436.976 1531.12,436.951 1532.47,436.931 1533.82,436.915 1535.17,436.904 1536.53,436.897 1537.88,436.895 1539.23,436.897 1540.58,436.903 1541.94,436.913 1543.29,436.927 1544.64,436.945 1545.99,436.967 1547.35,436.992 1548.7,437.02 1550.05,437.052 1551.4,437.087 1552.76,437.125 "/>
<polyline clip-path="url(#clip552)" style="stroke:#000000; stroke-linecap:round; stroke-linejoin:round; stroke-width:4; stroke-opacity:1; fill:none" stroke-dasharray="16, 10" points="-1152.05,309.599 2905.16,309.599 "/>
<polyline clip-path="url(#clip552)" style="stroke:#000000; stroke-linecap:round; stroke-linejoin:round; stroke-width:4; stroke-opacity:1; fill:none" stroke-dasharray="16, 10" points="-1152.05,571.955 2905.16,571.955 "/>
<polyline clip-path="url(#clip552)" style="stroke:#800080; stroke-linecap:round; stroke-linejoin:round; stroke-width:4; stroke-opacity:1; fill:none" points="200.355,415.968 201.707,420.053 203.059,424.159 204.412,428.281 205.764,432.416 207.117,436.559 208.469,440.707 209.821,444.854 211.174,448.996 212.526,453.13 213.879,457.25 215.231,461.353 216.583,465.435 217.936,469.491 219.288,473.517 220.641,477.51 221.993,481.464 223.345,485.376 224.698,489.243 226.05,493.06 227.403,496.823 228.755,500.528 230.107,504.173 231.46,507.752 232.812,511.264 234.165,514.703 235.517,518.068 236.869,521.354 238.222,524.559 239.574,527.679 240.927,530.712 242.279,533.654 243.631,536.503 244.984,539.256 246.336,541.911 247.689,544.465 249.041,546.916 250.393,549.262 251.746,551.5 253.098,553.63 254.451,555.648 255.803,557.555 257.155,559.347 258.508,561.023 259.86,562.583 261.213,564.026 262.565,565.349 263.918,566.553 265.27,567.637 266.622,568.6 267.975,569.442 269.327,570.162 270.68,570.761 272.032,571.238 273.384,571.594 274.737,571.829 276.089,571.943 277.442,571.936 278.794,571.81 280.146,571.566 281.499,571.204 282.851,570.725 284.204,570.13 285.556,569.422 286.908,568.601 288.261,567.668 289.613,566.626 290.966,565.477 292.318,564.221 293.67,562.862 295.023,561.401 296.375,559.841 297.728,558.184 299.08,556.432 300.432,554.588 301.785,552.654 303.137,550.633 304.49,548.528 305.842,546.342 307.194,544.077 308.547,541.737 309.899,539.325 311.252,536.843 312.604,534.295 313.956,531.683 315.309,529.013 316.661,526.285 318.014,523.505 319.366,520.674 320.718,517.797 322.071,514.877 323.423,511.918 324.776,508.922 326.128,505.894 327.48,502.836 328.833,499.753 330.185,496.647 331.538,493.523 332.89,490.383 334.242,487.23 335.595,484.07 336.947,480.903 338.3,477.735 339.652,474.569 341.004,471.406 342.357,468.252 343.709,465.109 345.062,461.98 346.414,458.868 347.766,455.776 349.119,452.707 350.471,449.665 351.824,446.652 353.176,443.67 354.528,440.722 355.881,437.812 357.233,434.941 358.586,432.112 359.938,429.327 361.29,426.589 362.643,423.9 363.995,421.261 365.348,418.676 366.7,416.145 368.052,413.671 369.405,411.255 370.757,408.899 372.11,406.604 373.462,404.372 374.814,402.204 376.167,400.102 377.519,398.066 378.872,396.097 380.224,394.197 381.576,392.365 382.929,390.603 384.281,388.912 385.634,387.291 386.986,385.741 388.338,384.263 389.691,382.855 391.043,381.52 392.396,380.256 393.748,379.062 395.1,377.94 396.453,376.889 397.805,375.907 399.158,374.995 400.51,374.152 401.862,373.377 403.215,372.669 404.567,372.027 405.92,371.451 407.272,370.939 408.624,370.49 409.977,370.102 411.329,369.775 412.682,369.507 414.034,369.297 415.386,369.142 416.739,369.042 418.091,368.994 419.444,368.997 420.796,369.05 422.148,369.149 423.501,369.294 424.853,369.483 426.206,369.712 427.558,369.982 428.91,370.288 430.263,370.63 431.615,371.005 432.968,371.411 434.32,371.845 435.672,372.307 437.025,372.793 438.377,373.301 439.73,373.829 441.082,374.375 442.434,374.936 443.787,375.511 445.139,376.097 446.492,376.692 447.844,377.294 449.196,377.901 450.549,378.509 451.901,379.119 453.254,379.726 454.606,380.33 455.958,380.927 457.311,381.517 458.663,382.097 460.016,382.666 461.368,383.22 462.72,383.759 464.073,384.281 465.425,384.784 466.778,385.267 468.13,385.727 469.482,386.163 470.835,386.573 472.187,386.957 473.54,387.313 474.892,387.639 476.245,387.935 477.597,388.199 478.949,388.429 480.302,388.626 481.654,388.787 483.007,388.912 484.359,389.001 485.711,389.052 487.064,389.065 488.416,389.039 489.769,388.974 491.121,388.869 492.473,388.724 493.826,388.539 495.178,388.313 496.531,388.046 497.883,387.738 499.235,387.39 500.588,387.001 501.94,386.571 503.293,386.1 504.645,385.59 505.997,385.04 507.35,384.451 508.702,383.822 510.055,383.156 511.407,382.452 512.759,381.711 514.112,380.935 515.464,380.122 516.817,379.276 518.169,378.396 519.521,377.483 520.874,376.539 522.226,375.565 523.579,374.561 524.931,373.529 526.283,372.471 527.636,371.386 528.988,370.278 530.341,369.147 531.693,367.994 533.045,366.82 534.398,365.629 535.75,364.419 537.103,363.194 538.455,361.955 539.807,360.703 541.16,359.439 542.512,358.165 543.865,356.884 545.217,355.595 546.569,354.302 547.922,353.004 549.274,351.705 550.627,350.405 551.979,349.106 553.331,347.81 554.684,346.517 556.036,345.23 557.389,343.95 558.741,342.678 560.093,341.416 561.446,340.165 562.798,338.926 564.151,337.702 565.503,336.492 566.855,335.299 568.208,334.124 569.56,332.968 570.913,331.831 572.265,330.716 573.617,329.623 574.97,328.553 576.322,327.507 577.675,326.486 579.027,325.491 580.379,324.523 581.732,323.582 583.084,322.67 584.437,321.786 585.789,320.932 587.141,320.108 588.494,319.314 589.846,318.551 591.199,317.82 592.551,317.12 593.903,316.452 595.256,315.816 596.608,315.212 597.961,314.641 599.313,314.101 600.665,313.594 602.018,313.119 603.37,312.676 604.723,312.265 606.075,311.885 607.427,311.537 608.78,311.219 610.132,310.932 611.485,310.674 612.837,310.446 614.189,310.247 615.542,310.076 616.894,309.932 618.247,309.815 619.599,309.725 620.951,309.659 622.304,309.618 623.656,309.6 625.009,309.605 626.361,309.632 627.713,309.679 629.066,309.747 630.418,309.832 631.771,309.936 633.123,310.056 634.475,310.192 635.828,310.342 637.18,310.505 638.533,310.68 639.885,310.867 641.237,311.063 642.59,311.268 643.942,311.481 645.295,311.7 646.647,311.924 647.999,312.153 649.352,312.384 650.704,312.618 652.057,312.852 653.409,313.086 654.761,313.318 656.114,313.549 657.466,313.775 658.819,313.997 660.171,314.214 661.523,314.425 662.876,314.628 664.228,314.823 665.581,315.01 666.933,315.186 668.285,315.352 669.638,315.507 670.99,315.65 672.343,315.781 673.695,315.898 675.047,316.002 676.4,316.092 677.752,316.168 679.105,316.229 680.457,316.275 681.809,316.305 683.162,316.321 684.514,316.32 685.867,316.304 687.219,316.272 688.572,316.225 689.924,316.162 691.276,316.084 692.629,315.991 693.981,315.883 695.334,315.761 696.686,315.625 698.038,315.476 699.391,315.313 700.743,315.139 702.096,314.953 703.448,314.757 704.8,314.55 706.153,314.334 707.505,314.111 708.858,313.88 710.21,313.643 711.562,313.401 712.915,313.155 714.267,312.906 715.62,312.656 716.972,312.406 718.324,312.158 719.677,311.912 721.029,311.67 722.382,311.433 723.734,311.204 725.086,310.983 726.439,310.773 727.791,310.574 729.144,310.389 730.496,310.219 731.848,310.066 733.201,309.932 734.553,309.818 735.906,309.725 737.258,309.657 738.61,309.615 739.963,309.599 741.315,309.613 742.668,309.658 744.02,309.736 745.372,309.848 746.725,309.996 748.077,310.182 749.43,310.409 750.782,310.676 752.134,310.987 753.487,311.342 754.839,311.744 756.192,312.194 757.544,312.693 758.896,313.244 760.249,313.847 761.601,314.505 762.954,315.218 764.306,315.987 765.658,316.815 767.011,317.702 768.363,318.65 769.716,319.659 771.068,320.731 772.42,321.866 773.773,323.066 775.125,324.332 776.478,325.663 777.83,327.062 779.182,328.528 780.535,330.062 781.887,331.664 783.24,333.336 784.592,335.076 785.944,336.885 787.297,338.764 788.649,340.712 790.002,342.73 791.354,344.816 792.706,346.972 794.059,349.196 795.411,351.487 796.764,353.846 798.116,356.272 799.468,358.764 800.821,361.321 802.173,363.942 803.526,366.626 804.878,369.372 806.23,372.178 807.583,375.044 808.935,377.968 810.288,380.948 811.64,383.982 812.992,387.07 814.345,390.209 815.697,393.397 817.05,396.632 818.402,399.912 819.754,403.236 821.107,406.599 822.459,410.002 823.812,413.44 825.164,416.911 826.516,420.414 827.869,423.944 829.221,427.501 830.574,431.079 831.926,434.678 833.278,438.294 834.631,441.923 835.983,445.564 837.336,449.212 838.688,452.866 840.04,456.521 841.393,460.174 842.745,463.823 844.098,467.463 845.45,471.093 846.802,474.707 848.155,478.304 849.507,481.879 850.86,485.43 852.212,488.953 853.564,492.444 854.917,495.9 856.269,499.318 857.622,502.695 858.974,506.027 860.326,509.311 861.679,512.543 863.031,515.72 864.384,518.84 865.736,521.898 867.088,524.892 868.441,527.819 869.793,530.675 871.146,533.457 872.498,536.163 873.85,538.79 875.203,541.334 876.555,543.793 877.908,546.165 879.26,548.447 880.612,550.635 881.965,552.729 883.317,554.725 884.67,556.621 886.022,558.415 887.374,560.105 888.727,561.689 890.079,563.165 891.432,564.532 892.784,565.787 894.136,566.93 895.489,567.958 896.841,568.872 898.194,569.668 899.546,570.347 900.898,570.908 902.251,571.349 903.603,571.671 904.956,571.872 906.308,571.953 907.661,571.912 909.013,571.751 910.365,571.468 911.718,571.065 913.07,570.541 914.423,569.897 915.775,569.133 917.127,568.251 918.48,567.251 919.832,566.133 921.185,564.9 922.537,563.553 923.889,562.092 925.242,560.52 926.594,558.839 927.947,557.049 929.299,555.153 930.651,553.153 932.004,551.051 933.356,548.85 934.709,546.552 936.061,544.16 937.413,541.675 938.766,539.102 940.118,536.443 941.471,533.701 942.823,530.88 944.175,527.981 945.528,525.01 946.88,521.969 948.233,518.861 949.585,515.691 950.937,512.462 952.29,509.177 953.642,505.842 954.995,502.459 956.347,499.032 957.699,495.566 959.052,492.065 960.404,488.533 961.757,484.974 963.109,481.393 964.461,477.793 965.814,474.179 967.166,470.555 968.519,466.926 969.871,463.295 971.223,459.669 972.576,456.05 973.928,452.443 975.281,448.853 976.633,445.284 977.985,441.74 979.338,438.226 980.69,434.745 982.043,431.303 983.395,427.903 984.747,424.55 986.1,421.248 987.452,418.001 988.805,414.812 990.157,411.687 991.509,408.628 992.862,405.639 994.214,402.725 995.567,399.889 996.919,397.135 998.271,394.465 999.624,391.884 1000.98,389.394 1002.33,386.999 1003.68,384.702 1005.03,382.506 1006.39,380.413 1007.74,378.426 1009.09,376.548 1010.44,374.782 1011.8,373.129 1013.15,371.592 1014.5,370.172 1015.85,368.872 1017.21,367.693 1018.56,366.637 1019.91,365.706 1021.26,364.9 1022.61,364.22 1023.97,363.669 1025.32,363.245 1026.67,362.951 1028.02,362.787 1029.38,362.753 1030.73,362.848 1032.08,363.074 1033.43,363.43 1034.79,363.915 1036.14,364.53 1037.49,365.273 1038.84,366.144 1040.2,367.141 1041.55,368.264 1042.9,369.511 1044.25,370.882 1045.61,372.373 1046.96,373.984 1048.31,375.712 1049.66,377.556 1051.02,379.514 1052.37,381.582 1053.72,383.759 1055.07,386.041 1056.42,388.427 1057.78,390.912 1059.13,393.495 1060.48,396.171 1061.83,398.939 1063.19,401.793 1064.54,404.731 1065.89,407.749 1067.24,410.844 1068.6,414.01 1069.95,417.246 1071.3,420.545 1072.65,423.906 1074.01,427.322 1075.36,430.79 1076.71,434.306 1078.06,437.865 1079.42,441.462 1080.77,445.093 1082.12,448.754 1083.47,452.44 1084.83,456.146 1086.18,459.868 1087.53,463.6 1088.88,467.338 1090.23,471.078 1091.59,474.814 1092.94,478.542 1094.29,482.257 1095.64,485.954 1097,489.628 1098.35,493.275 1099.7,496.89 1101.05,500.469 1102.41,504.006 1103.76,507.497 1105.11,510.938 1106.46,514.324 1107.82,517.651 1109.17,520.914 1110.52,524.109 1111.87,527.233 1113.23,530.28 1114.58,533.246 1115.93,536.129 1117.28,538.923 1118.64,541.626 1119.99,544.234 1121.34,546.743 1122.69,549.149 1124.04,551.45 1125.4,553.642 1126.75,555.723 1128.1,557.69 1129.45,559.539 1130.81,561.268 1132.16,562.875 1133.51,564.357 1134.86,565.713 1136.22,566.94 1137.57,568.036 1138.92,569 1140.27,569.831 1141.63,570.526 1142.98,571.085 1144.33,571.507 1145.68,571.79 1147.04,571.935 1148.39,571.94 1149.74,571.805 1151.09,571.53 1152.45,571.116 1153.8,570.561 1155.15,569.867 1156.5,569.034 1157.85,568.063 1159.21,566.954 1160.56,565.709 1161.91,564.329 1163.26,562.814 1164.62,561.167 1165.97,559.389 1167.32,557.483 1168.67,555.449 1170.03,553.29 1171.38,551.008 1172.73,548.607 1174.08,546.088 1175.44,543.453 1176.79,540.707 1178.14,537.852 1179.49,534.891 1180.85,531.827 1182.2,528.664 1183.55,525.404 1184.9,522.053 1186.26,518.613 1187.61,515.088 1188.96,511.483 1190.31,507.801 1191.66,504.046 1193.02,500.222 1194.37,496.334 1195.72,492.387 1197.07,488.384 1198.43,484.329 1199.78,480.229 1201.13,476.086 1202.48,471.906 1203.84,467.694 1205.19,463.453 1206.54,459.189 1207.89,454.907 1209.25,450.611 1210.6,446.305 1211.95,441.996 1213.3,437.687 1214.66,433.384 1216.01,429.09 1217.36,424.812 1218.71,420.552 1220.07,416.317 1221.42,412.111 1222.77,407.937 1224.12,403.802 1225.47,399.709 1226.83,395.663 1228.18,391.667 1229.53,387.727 1230.88,383.846 1232.24,380.029 1233.59,376.279 1234.94,372.601 1236.29,368.999 1237.65,365.475 1239,362.034 1240.35,358.679 1241.7,355.413 1243.06,352.24 1244.41,349.163 1245.76,346.185 1247.11,343.308 1248.47,340.536 1249.82,337.871 1251.17,335.316 1252.52,332.872 1253.88,330.543 1255.23,328.329 1256.58,326.233 1257.93,324.256 1259.28,322.401 1260.64,320.668 1261.99,319.058 1263.34,317.573 1264.69,316.214 1266.05,314.981 1267.4,313.874 1268.75,312.895 1270.1,312.044 1271.46,311.32 1272.81,310.723 1274.16,310.253 1275.51,309.911 1276.87,309.694 1278.22,309.603 1279.57,309.636 1280.92,309.792 1282.28,310.071 1283.63,310.471 1284.98,310.989 1286.33,311.626 1287.69,312.378 1289.04,313.243 1290.39,314.221 1291.74,315.307 1293.09,316.501 1294.45,317.799 1295.8,319.198 1297.15,320.697 1298.5,322.291 1299.86,323.979 1301.21,325.756 1302.56,327.62 1303.91,329.567 1305.27,331.594 1306.62,333.698 1307.97,335.874 1309.32,338.118 1310.68,340.428 1312.03,342.799 1313.38,345.227 1314.73,347.709 1316.09,350.239 1317.44,352.815 1318.79,355.431 1320.14,358.084 1321.5,360.77 1322.85,363.484 1324.2,366.222 1325.55,368.979 1326.9,371.751 1328.26,374.534 1329.61,377.324 1330.96,380.117 1332.31,382.907 1333.67,385.69 1335.02,388.464 1336.37,391.222 1337.72,393.961 1339.08,396.677 1340.43,399.366 1341.78,402.023 1343.13,404.645 1344.49,407.227 1345.84,409.766 1347.19,412.259 1348.54,414.7 1349.9,417.087 1351.25,419.416 1352.6,421.684 1353.95,423.886 1355.31,426.021 1356.66,428.085 1358.01,430.074 1359.36,431.986 1360.71,433.818 1362.07,435.567 1363.42,437.232 1364.77,438.808 1366.12,440.295 1367.48,441.689 1368.83,442.989 1370.18,444.193 1371.53,445.3 1372.89,446.307 1374.24,447.213 1375.59,448.017 1376.94,448.717 1378.3,449.314 1379.65,449.805 1381,450.19 1382.35,450.47 1383.71,450.642 1385.06,450.707 1386.41,450.666 1387.76,450.517 1389.12,450.262 1390.47,449.901 1391.82,449.433 1393.17,448.861 1394.52,448.185 1395.88,447.406 1397.23,446.525 1398.58,445.543 1399.93,444.462 1401.29,443.284 1402.64,442.009 1403.99,440.641 1405.34,439.182 1406.7,437.632 1408.05,435.996 1409.4,434.274 1410.75,432.47 1412.11,430.586 1413.46,428.626 1414.81,426.591 1416.16,424.486 1417.52,422.313 1418.87,420.075 1420.22,417.776 1421.57,415.419 1422.93,413.008 1424.28,410.546 1425.63,408.037 1426.98,405.484 1428.33,402.893 1429.69,400.265 1431.04,397.606 1432.39,394.919 1433.74,392.208 1435.1,389.478 1436.45,386.732 1437.8,383.975 1439.15,381.21 1440.51,378.443 1441.86,375.676 1443.21,372.915 1444.56,370.164 1445.92,367.426 1447.27,364.706 1448.62,362.009 1449.97,359.338 1451.33,356.697 1452.68,354.09 1454.03,351.523 1455.38,348.998 1456.74,346.519 1458.09,344.091 1459.44,341.718 1460.79,339.402 1462.15,337.149 1463.5,334.961 1464.85,332.843 1466.2,330.797 1467.55,328.827 1468.91,326.936 1470.26,325.128 1471.61,323.406 1472.96,321.772 1474.32,320.231 1475.67,318.783 1477.02,317.433 1478.37,316.182 1479.73,315.034 1481.08,313.99 1482.43,313.052 1483.78,312.223 1485.14,311.505 1486.49,310.899 1487.84,310.407 1489.19,310.03 1490.55,309.77 1491.9,309.628 1493.25,309.605 1494.6,309.702 1495.96,309.919 1497.31,310.258 1498.66,310.718 1500.01,311.3 1501.36,312.005 1502.72,312.831 1504.07,313.78 1505.42,314.85 1506.77,316.041 1508.13,317.352 1509.48,318.783 1510.83,320.333 1512.18,322.001 1513.54,323.785 1514.89,325.685 1516.24,327.697 1517.59,329.822 1518.95,332.057 1520.3,334.401 1521.65,336.85 1523,339.403 1524.36,342.058 1525.71,344.812 1527.06,347.663 1528.41,350.607 1529.77,353.643 1531.12,356.767 1532.47,359.975 1533.82,363.266 1535.17,366.636 1536.53,370.08 1537.88,373.597 1539.23,377.182 1540.58,380.832 1541.94,384.544 1543.29,388.312 1544.64,392.134 1545.99,396.006 1547.35,399.923 1548.7,403.882 1550.05,407.879 1551.4,411.909 1552.76,415.968 "/>
<polyline clip-path="url(#clip552)" style="stroke:#000000; stroke-linecap:round; stroke-linejoin:round; stroke-width:4; stroke-opacity:1; fill:none" stroke-dasharray="16, 10" points="-1152.05,309.599 2905.16,309.599 "/>
<polyline clip-path="url(#clip552)" style="stroke:#000000; stroke-linecap:round; stroke-linejoin:round; stroke-width:4; stroke-opacity:1; fill:none" stroke-dasharray="16, 10" points="-1152.05,571.955 2905.16,571.955 "/>
<line clip-path="url(#clip552)" x1="739.996" y1="248.748" x2="719.996" y2="228.748" style="stroke:#ff0000; stroke-width:4; stroke-opacity:1"/>
<line clip-path="url(#clip552)" x1="739.996" y1="248.748" x2="719.996" y2="268.748" style="stroke:#ff0000; stroke-width:4; stroke-opacity:1"/>
<line clip-path="url(#clip552)" x1="739.996" y1="248.748" x2="759.996" y2="268.748" style="stroke:#ff0000; stroke-width:4; stroke-opacity:1"/>
<line clip-path="url(#clip552)" x1="739.996" y1="248.748" x2="759.996" y2="228.748" style="stroke:#ff0000; stroke-width:4; stroke-opacity:1"/>
<line clip-path="url(#clip552)" x1="1147.76" y1="559.879" x2="1127.76" y2="539.879" style="stroke:#ff0000; stroke-width:4; stroke-opacity:1"/>
<line clip-path="url(#clip552)" x1="1147.76" y1="559.879" x2="1127.76" y2="579.879" style="stroke:#ff0000; stroke-width:4; stroke-opacity:1"/>
<line clip-path="url(#clip552)" x1="1147.76" y1="559.879" x2="1167.76" y2="579.879" style="stroke:#ff0000; stroke-width:4; stroke-opacity:1"/>
<line clip-path="url(#clip552)" x1="1147.76" y1="559.879" x2="1167.76" y2="539.879" style="stroke:#ff0000; stroke-width:4; stroke-opacity:1"/>
<line clip-path="url(#clip552)" x1="740.411" y1="248.996" x2="740.411" y2="228.996" style="stroke:#0000ff; stroke-width:4; stroke-opacity:1"/>
<line clip-path="url(#clip552)" x1="740.411" y1="248.996" x2="720.411" y2="248.996" style="stroke:#0000ff; stroke-width:4; stroke-opacity:1"/>
<line clip-path="url(#clip552)" x1="740.411" y1="248.996" x2="740.411" y2="268.996" style="stroke:#0000ff; stroke-width:4; stroke-opacity:1"/>
<line clip-path="url(#clip552)" x1="740.411" y1="248.996" x2="760.411" y2="248.996" style="stroke:#0000ff; stroke-width:4; stroke-opacity:1"/>
<line clip-path="url(#clip552)" x1="1146.98" y1="559.672" x2="1146.98" y2="539.672" style="stroke:#0000ff; stroke-width:4; stroke-opacity:1"/>
<line clip-path="url(#clip552)" x1="1146.98" y1="559.672" x2="1126.98" y2="559.672" style="stroke:#0000ff; stroke-width:4; stroke-opacity:1"/>
<line clip-path="url(#clip552)" x1="1146.98" y1="559.672" x2="1146.98" y2="579.672" style="stroke:#0000ff; stroke-width:4; stroke-opacity:1"/>
<line clip-path="url(#clip552)" x1="1146.98" y1="559.672" x2="1166.98" y2="559.672" style="stroke:#0000ff; stroke-width:4; stroke-opacity:1"/>
<path clip-path="url(#clip550)" d="M1257.39 384.52 L1507.68 384.52 L1507.68 73.4796 L1257.39 73.4796  Z" fill="#ffffff" fill-rule="evenodd" fill-opacity="1"/>
<polyline clip-path="url(#clip550)" style="stroke:#000000; stroke-linecap:round; stroke-linejoin:round; stroke-width:4; stroke-opacity:1; fill:none" points="1257.39,384.52 1507.68,384.52 1507.68,73.4796 1257.39,73.4796 1257.39,384.52 "/>
<path clip-path="url(#clip550)" d="M1291.9 99.7196 L1291.9 150.92 L1343.1 150.92 L1343.1 99.7196 L1291.9 99.7196 Z" fill="#ffd700" fill-rule="evenodd" fill-opacity="1" stroke="none"/>
<path clip-path="url(#clip550)" d="M1403.6 116.816 Q1403 119.838 1402.18 121.571 Q1400.86 124.218 1398.62 124.218 Q1397.02 124.218 1395.8 123.258 Q1394.61 122.297 1394.31 120.705 Q1393.7 121.431 1393.25 121.852 Q1392.83 122.274 1391.99 122.93 Q1391.17 123.562 1390.14 123.89 Q1389.11 124.218 1387.93 124.218 Q1385.08 124.218 1383.27 122.719 Q1380.84 132.533 1380.63 133.025 Q1379.95 134.032 1378.96 134.032 Q1378.36 134.032 1377.98 133.657 Q1377.61 133.306 1377.61 132.744 Q1377.63 132.556 1377.77 131.971 L1384.66 104.215 Q1384.84 103.466 1385.31 103.044 Q1385.8 102.599 1386.08 102.552 Q1386.37 102.482 1386.58 102.482 Q1387.21 102.482 1387.58 102.833 Q1387.98 103.161 1387.98 103.77 Q1387.98 103.864 1387.84 104.403 Q1387.72 104.918 1387.54 105.714 Q1387.35 106.487 1387.26 106.838 L1385.24 114.896 Q1384.56 117.66 1384.56 118.971 Q1384.56 120.962 1385.45 122.063 Q1386.37 123.14 1388.12 123.14 Q1389.22 123.14 1390.25 122.695 Q1391.28 122.227 1391.99 121.595 Q1392.69 120.962 1393.25 120.283 Q1393.81 119.58 1394.07 119.135 Q1394.33 118.667 1394.35 118.55 L1395.59 113.654 L1397.87 104.684 Q1398.01 104.121 1398.26 103.747 Q1398.55 103.349 1398.87 103.208 Q1399.2 103.067 1399.39 103.044 Q1399.58 102.997 1399.74 102.997 Q1400.33 102.997 1400.72 103.349 Q1401.12 103.7 1401.12 104.309 Q1401.12 104.426 1400.98 104.988 Q1400.86 105.527 1400.68 106.323 Q1400.49 107.096 1400.4 107.518 Q1399.65 110.469 1399.58 110.773 L1398.24 115.95 Q1398.17 116.254 1397.94 117.238 Q1397.73 118.222 1397.61 118.737 Q1397.49 119.229 1397.37 119.908 Q1397.28 120.564 1397.28 120.939 Q1397.28 123.14 1398.73 123.14 Q1399.29 123.14 1399.79 122.813 Q1400.28 122.461 1400.61 121.969 Q1400.96 121.477 1401.29 120.634 Q1401.64 119.768 1401.85 119.065 Q1402.06 118.339 1402.36 117.215 Q1402.48 116.676 1402.6 116.512 Q1402.71 116.348 1403.04 116.348 Q1403.6 116.348 1403.6 116.816 Z" fill="#000000" fill-rule="nonzero" fill-opacity="1" /><path clip-path="url(#clip550)" d="M1408.48 136.481 Q1408.48 131.546 1409.72 128.857 Q1411.46 124.857 1415.56 124.857 Q1416.43 124.857 1417.33 125.103 Q1418.25 125.332 1419.4 126.234 Q1420.56 127.136 1421.26 128.611 Q1422.61 131.464 1422.61 136.481 Q1422.61 141.384 1421.36 144.056 Q1419.54 147.958 1415.53 147.958 Q1414.02 147.958 1412.48 147.188 Q1410.95 146.417 1409.98 144.564 Q1408.48 141.793 1408.48 136.481 M1411.26 136.071 Q1411.26 141.138 1411.62 143.154 Q1412.03 145.335 1413.15 146.286 Q1414.28 147.22 1415.53 147.22 Q1416.87 147.22 1417.99 146.22 Q1419.12 145.204 1419.46 143.023 Q1419.84 140.875 1419.82 136.071 Q1419.82 131.399 1419.49 129.529 Q1419.05 127.349 1417.87 126.48 Q1416.71 125.595 1415.53 125.595 Q1415.08 125.595 1414.61 125.726 Q1414.15 125.857 1413.48 126.234 Q1412.8 126.611 1412.28 127.546 Q1411.77 128.48 1411.53 129.89 Q1411.26 131.71 1411.26 136.071 Z" fill="#000000" fill-rule="nonzero" fill-opacity="1" /><polyline clip-path="url(#clip550)" style="stroke:#008000; stroke-linecap:round; stroke-linejoin:round; stroke-width:4; stroke-opacity:1; fill:none" points="1272.42,177.16 1362.58,177.16 "/>
<path clip-path="url(#clip550)" d="M1400.02 159.281 Q1400.02 160.592 1399.62 162.068 L1394.17 183.781 Q1393.67 185.701 1392.2 185.701 Q1391.59 185.701 1391.21 185.327 Q1390.86 184.975 1390.86 184.413 Q1390.86 184.226 1391 183.64 L1396.46 161.576 Q1396.95 159.562 1396.95 158.555 Q1396.95 155.205 1394.35 155.205 Q1392.06 155.205 1389.76 156.892 Q1388.71 157.735 1387.68 159.257 Q1386.67 160.756 1386.48 161.295 Q1386.27 162.513 1385.97 163.45 Q1385.83 164.106 1385.15 166.659 L1384.09 170.992 Q1383.34 174.224 1383.18 174.529 Q1382.95 175.185 1382.43 175.536 Q1381.92 175.887 1381.4 175.887 Q1380.81 175.887 1380.42 175.536 Q1380.02 175.185 1380.02 174.576 Q1380.02 174.482 1380.09 174.131 Q1380.16 173.779 1380.28 173.287 Q1380.39 172.796 1380.44 172.514 L1383.23 161.436 Q1383.74 159.421 1383.86 158.789 Q1384 158.133 1384 157.407 Q1384 156.142 1383.6 155.674 Q1383.2 155.205 1382.5 155.205 Q1381.28 155.205 1380.49 156.657 Q1379.69 158.11 1379.01 160.92 Q1378.8 161.693 1378.66 161.857 Q1378.54 162.021 1378.19 162.021 Q1377.61 161.998 1377.61 161.529 Q1377.61 161.412 1377.79 160.663 Q1377.98 159.89 1378.33 158.765 Q1378.71 157.618 1379.1 156.892 Q1379.34 156.4 1379.55 156.072 Q1379.76 155.744 1380.18 155.229 Q1380.6 154.713 1381.24 154.432 Q1381.87 154.151 1382.64 154.151 Q1384.35 154.151 1385.62 155.252 Q1386.9 156.353 1387.07 158.32 Q1387.56 157.594 1388.19 156.939 Q1388.85 156.283 1389.76 155.627 Q1390.68 154.948 1391.92 154.549 Q1393.16 154.151 1394.49 154.151 Q1397.16 154.151 1398.59 155.533 Q1400.02 156.892 1400.02 159.281 Z" fill="#000000" fill-rule="nonzero" fill-opacity="1" /><path clip-path="url(#clip550)" d="M1428.86 176.703 Q1428.83 177.31 1428.42 177.343 Q1427.8 177.376 1427.42 177.458 Q1427.04 177.523 1426.45 177.769 Q1425.86 178.015 1425.29 178.605 Q1424.71 179.196 1424.12 180.13 L1412.04 199.362 Q1411.83 199.723 1411.65 199.838 Q1411.48 199.969 1411.1 199.969 Q1410.76 199.969 1410.63 199.821 Q1410.5 199.69 1410.43 199.198 L1407.78 178.474 Q1407.73 178.097 1407.68 177.933 Q1407.63 177.769 1407.43 177.605 Q1407.25 177.441 1406.86 177.392 Q1406.46 177.343 1405.76 177.343 Q1405.43 177.343 1405.28 177.326 Q1405.15 177.31 1405.04 177.228 Q1404.92 177.13 1404.92 176.933 Q1404.92 176.638 1405.04 176.49 Q1405.17 176.326 1405.27 176.31 Q1405.38 176.293 1405.56 176.293 Q1405.84 176.293 1406.45 176.326 Q1407.05 176.359 1407.37 176.359 Q1407.66 176.359 1408.28 176.375 Q1408.91 176.392 1409.22 176.392 Q1409.91 176.392 1411.3 176.343 Q1412.71 176.293 1413.38 176.293 Q1413.84 176.293 1413.84 176.671 Q1413.84 177.13 1413.65 177.244 Q1413.45 177.343 1413.01 177.343 Q1411.89 177.343 1411.28 177.622 Q1410.69 177.9 1410.69 178.343 L1412.97 196.116 L1423.29 179.72 Q1423.79 178.95 1423.79 178.441 Q1423.79 177.458 1422.24 177.343 Q1421.71 177.343 1421.71 176.933 Q1421.71 176.638 1421.84 176.49 Q1421.97 176.326 1422.07 176.31 Q1422.19 176.293 1422.35 176.293 Q1422.89 176.293 1423.99 176.343 Q1425.11 176.392 1425.66 176.392 Q1426.12 176.392 1427.06 176.343 Q1427.99 176.293 1428.42 176.293 Q1428.86 176.293 1428.86 176.703 Z" fill="#000000" fill-rule="nonzero" fill-opacity="1" /><polyline clip-path="url(#clip550)" style="stroke:#800080; stroke-linecap:round; stroke-linejoin:round; stroke-width:4; stroke-opacity:1; fill:none" points="1272.42,229 1362.58,229 "/>
<path clip-path="url(#clip550)" d="M1400.02 211.159 Q1400.02 212.471 1399.62 213.947 L1394.17 235.659 Q1393.67 237.58 1392.2 237.58 Q1391.59 237.58 1391.21 237.205 Q1390.86 236.854 1390.86 236.292 Q1390.86 236.104 1391 235.519 L1396.46 213.455 Q1396.95 211.44 1396.95 210.433 Q1396.95 207.084 1394.35 207.084 Q1392.06 207.084 1389.76 208.77 Q1388.71 209.614 1387.68 211.136 Q1386.67 212.635 1386.48 213.174 Q1386.27 214.392 1385.97 215.329 Q1385.83 215.984 1385.15 218.537 L1384.09 222.871 Q1383.34 226.103 1383.18 226.407 Q1382.95 227.063 1382.43 227.415 Q1381.92 227.766 1381.4 227.766 Q1380.81 227.766 1380.42 227.415 Q1380.02 227.063 1380.02 226.454 Q1380.02 226.361 1380.09 226.009 Q1380.16 225.658 1380.28 225.166 Q1380.39 224.674 1380.44 224.393 L1383.23 213.314 Q1383.74 211.3 1383.86 210.668 Q1384 210.012 1384 209.286 Q1384 208.021 1383.6 207.552 Q1383.2 207.084 1382.5 207.084 Q1381.28 207.084 1380.49 208.536 Q1379.69 209.988 1379.01 212.799 Q1378.8 213.572 1378.66 213.736 Q1378.54 213.9 1378.19 213.9 Q1377.61 213.876 1377.61 213.408 Q1377.61 213.291 1377.79 212.541 Q1377.98 211.768 1378.33 210.644 Q1378.71 209.496 1379.1 208.77 Q1379.34 208.278 1379.55 207.951 Q1379.76 207.623 1380.18 207.107 Q1380.6 206.592 1381.24 206.311 Q1381.87 206.03 1382.64 206.03 Q1384.35 206.03 1385.62 207.131 Q1386.9 208.232 1387.07 210.199 Q1387.56 209.473 1388.19 208.817 Q1388.85 208.161 1389.76 207.506 Q1390.68 206.826 1391.92 206.428 Q1393.16 206.03 1394.49 206.03 Q1397.16 206.03 1398.59 207.412 Q1400.02 208.77 1400.02 211.159 Z" fill="#000000" fill-rule="nonzero" fill-opacity="1" /><path clip-path="url(#clip550)" d="M1421.53 251.357 Q1421.53 251.668 1421.17 251.701 L1420.43 251.701 Q1419.68 251.701 1419.35 251.586 Q1419.02 251.472 1418.65 250.947 Q1418.42 250.619 1417.84 249.094 Q1417.29 247.553 1416.47 245.225 Q1415.66 242.897 1415.12 241.519 L1407.04 251.062 Q1406.48 251.767 1405.92 251.767 Q1405.51 251.767 1405.22 251.488 Q1404.92 251.209 1404.92 250.783 Q1404.92 250.472 1405.04 250.291 Q1405.17 250.111 1405.51 249.75 L1414.79 240.552 L1411.53 231.42 Q1410.91 229.731 1410.55 229.305 Q1410.2 228.878 1409.35 228.731 Q1409.04 228.649 1409.04 228.386 Q1409.04 228.026 1409.65 228.026 Q1412.89 228.026 1413.74 230.403 L1420.6 249.504 Q1420.97 250.603 1421.37 251.062 Q1421.53 251.275 1421.53 251.357 Z" fill="#000000" fill-rule="nonzero" fill-opacity="1" /><line clip-path="url(#clip550)" x1="1317.5" y1="280.84" x2="1296.17" y2="259.506" style="stroke:#ff0000; stroke-width:4.26667; stroke-opacity:1"/>
<line clip-path="url(#clip550)" x1="1317.5" y1="280.84" x2="1296.17" y2="302.173" style="stroke:#ff0000; stroke-width:4.26667; stroke-opacity:1"/>
<line clip-path="url(#clip550)" x1="1317.5" y1="280.84" x2="1338.83" y2="302.173" style="stroke:#ff0000; stroke-width:4.26667; stroke-opacity:1"/>
<line clip-path="url(#clip550)" x1="1317.5" y1="280.84" x2="1338.83" y2="259.506" style="stroke:#ff0000; stroke-width:4.26667; stroke-opacity:1"/>
<path clip-path="url(#clip550)" d="M1403.6 271.947 Q1403 274.969 1402.18 276.702 Q1400.86 279.349 1398.62 279.349 Q1397.02 279.349 1395.8 278.388 Q1394.61 277.428 1394.31 275.835 Q1393.7 276.561 1393.25 276.983 Q1392.83 277.404 1391.99 278.06 Q1391.17 278.693 1390.14 279.021 Q1389.11 279.349 1387.93 279.349 Q1385.08 279.349 1383.27 277.85 Q1380.84 287.664 1380.63 288.155 Q1379.95 289.163 1378.96 289.163 Q1378.36 289.163 1377.98 288.788 Q1377.61 288.436 1377.61 287.874 Q1377.63 287.687 1377.77 287.101 L1384.66 259.346 Q1384.84 258.596 1385.31 258.175 Q1385.8 257.73 1386.08 257.683 Q1386.37 257.613 1386.58 257.613 Q1387.21 257.613 1387.58 257.964 Q1387.98 258.292 1387.98 258.901 Q1387.98 258.994 1387.84 259.533 Q1387.72 260.048 1387.54 260.845 Q1387.35 261.618 1387.26 261.969 L1385.24 270.026 Q1384.56 272.79 1384.56 274.102 Q1384.56 276.093 1385.45 277.194 Q1386.37 278.271 1388.12 278.271 Q1389.22 278.271 1390.25 277.826 Q1391.28 277.358 1391.99 276.725 Q1392.69 276.093 1393.25 275.414 Q1393.81 274.711 1394.07 274.266 Q1394.33 273.797 1394.35 273.68 L1395.59 268.785 L1397.87 259.814 Q1398.01 259.252 1398.26 258.877 Q1398.55 258.479 1398.87 258.339 Q1399.2 258.198 1399.39 258.175 Q1399.58 258.128 1399.74 258.128 Q1400.33 258.128 1400.72 258.479 Q1401.12 258.83 1401.12 259.439 Q1401.12 259.557 1400.98 260.119 Q1400.86 260.657 1400.68 261.454 Q1400.49 262.227 1400.4 262.648 Q1399.65 265.6 1399.58 265.904 L1398.24 271.08 Q1398.17 271.385 1397.94 272.369 Q1397.73 273.352 1397.61 273.868 Q1397.49 274.36 1397.37 275.039 Q1397.28 275.695 1397.28 276.069 Q1397.28 278.271 1398.73 278.271 Q1399.29 278.271 1399.79 277.943 Q1400.28 277.592 1400.61 277.1 Q1400.96 276.608 1401.29 275.765 Q1401.64 274.898 1401.85 274.196 Q1402.06 273.47 1402.36 272.345 Q1402.48 271.807 1402.6 271.643 Q1402.71 271.479 1403.04 271.479 Q1403.6 271.479 1403.6 271.947 Z" fill="#000000" fill-rule="nonzero" fill-opacity="1" /><path clip-path="url(#clip550)" d="M1428.4 279.799 L1426.58 287.144 Q1426.48 287.587 1426.4 287.701 Q1426.31 287.816 1426.08 287.816 Q1425.9 287.816 1425.79 287.734 Q1425.69 287.652 1425.69 287.57 L1425.67 287.488 Q1425.67 287.439 1425.71 287.193 Q1425.74 286.931 1425.77 286.505 Q1425.81 286.078 1425.81 285.603 Q1425.81 282.914 1424.49 281.668 Q1423.2 280.405 1420.97 280.405 Q1419.43 280.405 1418.05 281.225 Q1416.67 282.045 1415.89 283.34 Q1415.1 284.619 1415.1 285.964 Q1415.1 287.193 1415.72 287.98 Q1416.35 288.767 1417.15 289.03 L1419.4 289.636 Q1421.76 290.243 1422.43 290.505 Q1423.1 290.751 1423.66 291.309 Q1425.31 292.85 1425.31 295.243 Q1425.31 297.309 1424.15 299.31 Q1422.99 301.294 1420.99 302.589 Q1418.99 303.868 1416.77 303.868 Q1412.89 303.868 1411.1 301.457 L1409.46 303.359 Q1409.15 303.72 1409.05 303.786 Q1408.97 303.868 1408.85 303.868 Q1408.71 303.868 1408.59 303.769 Q1408.48 303.687 1408.48 303.54 Q1408.48 303.425 1409.44 299.572 Q1410.41 295.719 1410.49 295.637 Q1410.62 295.506 1410.84 295.506 Q1411.23 295.506 1411.23 295.883 Q1411.2 295.981 1411.16 296.112 Q1410.97 297.293 1410.97 297.932 Q1410.97 299.129 1411.38 300.047 Q1411.79 300.949 1412.39 301.474 Q1413.02 301.982 1413.85 302.31 Q1414.69 302.622 1415.39 302.736 Q1416.1 302.835 1416.84 302.835 Q1418.43 302.835 1419.84 301.917 Q1421.26 300.998 1422.07 299.572 Q1422.89 298.146 1422.89 296.654 Q1422.89 295.867 1422.67 295.26 Q1422.46 294.637 1422.17 294.293 Q1421.89 293.948 1421.41 293.686 Q1420.94 293.424 1420.61 293.325 Q1420.3 293.21 1419.8 293.096 L1416.21 292.145 Q1414.77 291.718 1413.74 290.489 Q1412.72 289.259 1412.72 287.374 Q1412.72 285.39 1413.89 283.553 Q1415.07 281.701 1416.98 280.586 Q1418.92 279.454 1421 279.454 Q1422.64 279.454 1423.9 280.094 Q1425.17 280.717 1425.81 281.881 L1427.43 279.963 Q1427.76 279.586 1427.82 279.52 Q1427.9 279.454 1428.02 279.454 Q1428.22 279.454 1428.3 279.569 Q1428.4 279.684 1428.4 279.799 Z" fill="#000000" fill-rule="nonzero" fill-opacity="1" /><path clip-path="url(#clip550)" d="M1455.99 288.685 Q1455.99 291.39 1454.83 294.047 Q1453.68 296.686 1451.81 298.687 Q1449.96 300.67 1447.45 301.9 Q1444.94 303.13 1442.38 303.13 L1431.27 303.13 Q1430.87 303.13 1430.71 303.113 Q1430.56 303.097 1430.45 303.015 Q1430.33 302.917 1430.33 302.72 Q1430.33 302.408 1430.46 302.277 Q1430.6 302.13 1430.74 302.113 Q1430.89 302.097 1431.27 302.097 Q1432.09 302.097 1432.58 302.048 Q1433.07 301.999 1433.38 301.933 Q1433.71 301.851 1433.88 301.621 Q1434.06 301.392 1434.14 301.195 Q1434.22 300.982 1434.33 300.507 L1438.83 282.471 Q1438.96 281.93 1438.96 281.848 Q1438.96 281.569 1438.79 281.471 Q1438.65 281.356 1438.22 281.307 Q1437.4 281.242 1436.78 281.242 Q1436.37 281.242 1436.2 281.225 Q1436.06 281.209 1435.92 281.127 Q1435.81 281.028 1435.81 280.832 Q1435.81 280.52 1435.94 280.389 Q1436.09 280.241 1436.25 280.225 Q1436.42 280.192 1436.81 280.192 L1448.09 280.192 Q1450.53 280.192 1452.35 281.34 Q1454.17 282.471 1455.07 284.39 Q1455.99 286.291 1455.99 288.685 M1453.06 287.456 Q1453.06 284.324 1451.35 282.783 Q1449.66 281.242 1446.99 281.242 L1443.4 281.242 Q1442.34 281.242 1442.07 281.438 Q1441.81 281.619 1441.58 282.52 L1436.97 300.949 Q1436.81 301.556 1436.81 301.72 Q1436.81 301.9 1436.89 301.966 Q1436.99 302.015 1437.25 302.048 Q1437.55 302.097 1437.99 302.097 L1441.78 302.097 Q1443.24 302.097 1444.57 301.703 Q1445.91 301.294 1446.88 300.654 Q1447.84 299.998 1448.47 299.441 Q1449.09 298.867 1449.53 298.293 Q1450.53 296.998 1451.27 295.309 Q1452.03 293.62 1452.37 292.079 Q1452.73 290.522 1452.89 289.374 Q1453.06 288.21 1453.06 287.456 Z" fill="#000000" fill-rule="nonzero" fill-opacity="1" /><path clip-path="url(#clip550)" d="M1482.64 285.259 Q1482.64 287.095 1481.27 288.784 Q1479.93 290.472 1477.73 291.505 Q1475.55 292.522 1473.21 292.522 L1467.5 292.522 L1465.42 300.916 Q1465.4 300.966 1465.35 301.179 Q1465.31 301.375 1465.31 301.49 Q1465.31 301.9 1465.81 301.999 Q1466.34 302.097 1467.5 302.097 Q1468.26 302.097 1468.37 302.228 Q1468.44 302.31 1468.44 302.458 Q1468.44 302.687 1468.37 302.851 Q1468.31 302.999 1468.17 303.048 Q1468.06 303.097 1467.98 303.113 Q1467.9 303.13 1467.76 303.13 Q1467.42 303.13 1466.68 303.097 Q1465.96 303.064 1465.58 303.064 L1463.44 303.031 L1459.17 303.13 Q1458.67 303.13 1458.67 302.72 Q1458.67 302.408 1458.8 302.277 Q1458.93 302.13 1459.08 302.113 Q1459.22 302.097 1459.6 302.097 Q1460.42 302.097 1460.91 302.048 Q1461.4 301.999 1461.71 301.933 Q1462.04 301.851 1462.21 301.621 Q1462.39 301.392 1462.47 301.195 Q1462.55 300.982 1462.67 300.507 L1467.16 282.471 Q1467.29 281.93 1467.29 281.848 Q1467.29 281.569 1467.13 281.471 Q1466.98 281.356 1466.55 281.307 Q1465.73 281.242 1465.11 281.242 Q1464.7 281.242 1464.53 281.225 Q1464.39 281.209 1464.26 281.127 Q1464.14 281.028 1464.14 280.832 Q1464.14 280.52 1464.27 280.389 Q1464.42 280.241 1464.58 280.225 Q1464.75 280.192 1465.14 280.192 L1476.03 280.192 Q1479.16 280.192 1480.9 281.684 Q1482.64 283.176 1482.64 285.259 M1479.52 284.455 Q1479.52 281.242 1474.95 281.242 L1471.73 281.242 Q1470.67 281.242 1470.4 281.438 Q1470.14 281.619 1469.91 282.52 L1467.63 291.653 L1472.37 291.653 Q1475.55 291.653 1477.54 289.866 Q1478.44 289.046 1478.98 287.341 Q1479.52 285.636 1479.52 284.455 Z" fill="#000000" fill-rule="nonzero" fill-opacity="1" /><line clip-path="url(#clip550)" x1="1317.5" y1="332.68" x2="1317.5" y2="311.346" style="stroke:#0000ff; stroke-width:4.26667; stroke-opacity:1"/>
<line clip-path="url(#clip550)" x1="1317.5" y1="332.68" x2="1296.17" y2="332.68" style="stroke:#0000ff; stroke-width:4.26667; stroke-opacity:1"/>
<line clip-path="url(#clip550)" x1="1317.5" y1="332.68" x2="1317.5" y2="354.013" style="stroke:#0000ff; stroke-width:4.26667; stroke-opacity:1"/>
<line clip-path="url(#clip550)" x1="1317.5" y1="332.68" x2="1338.83" y2="332.68" style="stroke:#0000ff; stroke-width:4.26667; stroke-opacity:1"/>
<path clip-path="url(#clip550)" d="M1403.6 323.787 Q1403 326.809 1402.18 328.542 Q1400.86 331.189 1398.62 331.189 Q1397.02 331.189 1395.8 330.228 Q1394.61 329.268 1394.31 327.675 Q1393.7 328.401 1393.25 328.823 Q1392.83 329.244 1391.99 329.9 Q1391.17 330.533 1390.14 330.861 Q1389.11 331.189 1387.93 331.189 Q1385.08 331.189 1383.27 329.69 Q1380.84 339.504 1380.63 339.995 Q1379.95 341.003 1378.96 341.003 Q1378.36 341.003 1377.98 340.628 Q1377.61 340.276 1377.61 339.714 Q1377.63 339.527 1377.77 338.941 L1384.66 311.186 Q1384.84 310.436 1385.31 310.015 Q1385.8 309.57 1386.08 309.523 Q1386.37 309.453 1386.58 309.453 Q1387.21 309.453 1387.58 309.804 Q1387.98 310.132 1387.98 310.741 Q1387.98 310.834 1387.84 311.373 Q1387.72 311.888 1387.54 312.685 Q1387.35 313.458 1387.26 313.809 L1385.24 321.866 Q1384.56 324.63 1384.56 325.942 Q1384.56 327.933 1385.45 329.034 Q1386.37 330.111 1388.12 330.111 Q1389.22 330.111 1390.25 329.666 Q1391.28 329.198 1391.99 328.565 Q1392.69 327.933 1393.25 327.254 Q1393.81 326.551 1394.07 326.106 Q1394.33 325.637 1394.35 325.52 L1395.59 320.625 L1397.87 311.654 Q1398.01 311.092 1398.26 310.717 Q1398.55 310.319 1398.87 310.179 Q1399.2 310.038 1399.39 310.015 Q1399.58 309.968 1399.74 309.968 Q1400.33 309.968 1400.72 310.319 Q1401.12 310.67 1401.12 311.279 Q1401.12 311.397 1400.98 311.959 Q1400.86 312.497 1400.68 313.294 Q1400.49 314.067 1400.4 314.488 Q1399.65 317.44 1399.58 317.744 L1398.24 322.92 Q1398.17 323.225 1397.94 324.209 Q1397.73 325.192 1397.61 325.708 Q1397.49 326.2 1397.37 326.879 Q1397.28 327.535 1397.28 327.909 Q1397.28 330.111 1398.73 330.111 Q1399.29 330.111 1399.79 329.783 Q1400.28 329.432 1400.61 328.94 Q1400.96 328.448 1401.29 327.605 Q1401.64 326.738 1401.85 326.036 Q1402.06 325.31 1402.36 324.185 Q1402.48 323.647 1402.6 323.483 Q1402.71 323.319 1403.04 323.319 Q1403.6 323.319 1403.6 323.787 Z" fill="#000000" fill-rule="nonzero" fill-opacity="1" /><path clip-path="url(#clip550)" d="M1428.4 331.639 L1426.58 338.984 Q1426.48 339.427 1426.4 339.541 Q1426.31 339.656 1426.08 339.656 Q1425.9 339.656 1425.79 339.574 Q1425.69 339.492 1425.69 339.41 L1425.67 339.328 Q1425.67 339.279 1425.71 339.033 Q1425.74 338.771 1425.77 338.345 Q1425.81 337.918 1425.81 337.443 Q1425.81 334.754 1424.49 333.508 Q1423.2 332.245 1420.97 332.245 Q1419.43 332.245 1418.05 333.065 Q1416.67 333.885 1415.89 335.18 Q1415.1 336.459 1415.1 337.804 Q1415.1 339.033 1415.72 339.82 Q1416.35 340.607 1417.15 340.87 L1419.4 341.476 Q1421.76 342.083 1422.43 342.345 Q1423.1 342.591 1423.66 343.149 Q1425.31 344.69 1425.31 347.083 Q1425.31 349.149 1424.15 351.15 Q1422.99 353.134 1420.99 354.429 Q1418.99 355.708 1416.77 355.708 Q1412.89 355.708 1411.1 353.297 L1409.46 355.199 Q1409.15 355.56 1409.05 355.626 Q1408.97 355.708 1408.85 355.708 Q1408.71 355.708 1408.59 355.609 Q1408.48 355.527 1408.48 355.38 Q1408.48 355.265 1409.44 351.412 Q1410.41 347.559 1410.49 347.477 Q1410.62 347.346 1410.84 347.346 Q1411.23 347.346 1411.23 347.723 Q1411.2 347.821 1411.16 347.952 Q1410.97 349.133 1410.97 349.772 Q1410.97 350.969 1411.38 351.887 Q1411.79 352.789 1412.39 353.314 Q1413.02 353.822 1413.85 354.15 Q1414.69 354.462 1415.39 354.576 Q1416.1 354.675 1416.84 354.675 Q1418.43 354.675 1419.84 353.757 Q1421.26 352.838 1422.07 351.412 Q1422.89 349.986 1422.89 348.494 Q1422.89 347.707 1422.67 347.1 Q1422.46 346.477 1422.17 346.133 Q1421.89 345.788 1421.41 345.526 Q1420.94 345.264 1420.61 345.165 Q1420.3 345.05 1419.8 344.936 L1416.21 343.985 Q1414.77 343.558 1413.74 342.329 Q1412.72 341.099 1412.72 339.214 Q1412.72 337.23 1413.89 335.393 Q1415.07 333.541 1416.98 332.426 Q1418.92 331.294 1421 331.294 Q1422.64 331.294 1423.9 331.934 Q1425.17 332.557 1425.81 333.721 L1427.43 331.803 Q1427.76 331.426 1427.82 331.36 Q1427.9 331.294 1428.02 331.294 Q1428.22 331.294 1428.3 331.409 Q1428.4 331.524 1428.4 331.639 Z" fill="#000000" fill-rule="nonzero" fill-opacity="1" /><path clip-path="url(#clip550)" d="M1454.17 333.049 L1453.5 338.853 Q1453.45 339.378 1453.37 339.541 Q1453.29 339.689 1453.03 339.689 Q1452.63 339.689 1452.63 339.296 Q1452.63 339.132 1452.7 338.689 Q1452.8 337.787 1452.8 336.869 Q1452.8 335.836 1452.6 335.197 Q1452.42 334.541 1451.89 334.065 Q1451.37 333.59 1450.4 333.393 Q1449.43 333.18 1447.89 333.18 L1443.47 333.18 Q1442.38 333.18 1442.12 333.377 Q1441.88 333.573 1441.65 334.492 L1439.5 343.017 L1442.55 343.017 Q1444.68 343.017 1445.52 342.394 Q1446.35 341.771 1446.88 339.787 Q1446.96 339.476 1446.99 339.361 Q1447.04 339.23 1447.12 339.164 Q1447.22 339.082 1447.39 339.082 Q1447.53 339.082 1447.63 339.181 Q1447.73 339.263 1447.76 339.361 L1447.8 339.459 Q1447.8 339.623 1447.7 340.001 L1445.84 347.28 Q1445.71 347.772 1445.63 347.887 Q1445.57 347.985 1445.34 347.985 Q1445.17 347.985 1445.06 347.87 Q1444.94 347.756 1444.94 347.575 Q1444.98 347.379 1445.04 347.215 Q1445.27 346.215 1445.27 345.575 Q1445.27 345.165 1445.19 344.919 Q1445.11 344.673 1444.83 344.46 Q1444.55 344.247 1443.97 344.149 Q1443.4 344.05 1442.48 344.05 L1439.24 344.05 L1437.15 352.412 L1437.01 353.183 Q1437.01 353.527 1437.19 353.658 Q1437.38 353.789 1438.09 353.855 Q1439.14 353.937 1439.83 353.937 Q1440.68 353.937 1440.78 353.97 Q1440.97 354.068 1440.97 354.33 Q1440.97 354.626 1440.84 354.789 Q1440.71 354.937 1440.6 354.953 Q1440.48 354.97 1440.27 354.97 L1435.27 354.871 L1430.84 354.97 Q1430.33 354.97 1430.33 354.56 Q1430.33 354.248 1430.46 354.117 Q1430.6 353.97 1430.74 353.953 Q1430.89 353.937 1431.27 353.937 Q1432.09 353.937 1432.58 353.888 Q1433.07 353.839 1433.38 353.773 Q1433.71 353.691 1433.88 353.461 Q1434.06 353.232 1434.14 353.035 Q1434.22 352.822 1434.33 352.347 L1438.76 334.59 Q1438.93 333.983 1438.93 333.787 Q1438.93 333.573 1438.78 333.442 Q1438.65 333.311 1438.29 333.262 Q1437.92 333.196 1437.63 333.196 Q1437.35 333.18 1436.74 333.18 Q1436.35 333.18 1436.19 333.164 Q1436.04 333.147 1435.92 333.065 Q1435.81 332.983 1435.81 332.803 Q1435.81 332.344 1436.01 332.245 Q1436.22 332.131 1436.81 332.131 L1453.27 332.131 Q1453.93 332.131 1454.07 332.278 Q1454.24 332.409 1454.17 333.049 Z" fill="#000000" fill-rule="nonzero" fill-opacity="1" /><path clip-path="url(#clip550)" d="M1489.47 332.409 Q1489.47 332.704 1489.36 332.868 Q1489.24 333.016 1489.14 333.032 Q1489.06 333.049 1488.83 333.082 Q1488.08 333.147 1487.49 333.377 Q1486.9 333.606 1486.46 334.049 Q1486.01 334.475 1485.73 334.869 Q1485.45 335.262 1485.08 335.934 L1474.06 355.068 Q1473.95 355.265 1473.86 355.363 Q1473.8 355.478 1473.63 355.593 Q1473.47 355.708 1473.26 355.708 Q1472.96 355.708 1472.86 355.544 Q1472.76 355.38 1472.72 354.839 L1471.49 337.885 L1461.6 355.003 Q1461.42 355.314 1461.34 355.413 Q1461.27 355.527 1461.12 355.609 Q1460.99 355.708 1460.8 355.708 Q1460.57 355.708 1460.45 355.593 Q1460.34 355.494 1460.3 355.347 Q1460.29 355.199 1460.27 354.839 L1458.75 334.311 Q1458.7 333.541 1458.42 333.311 Q1458.16 333.082 1456.98 333.082 Q1456.65 333.082 1456.5 333.065 Q1456.37 333.049 1456.25 332.967 Q1456.14 332.868 1456.14 332.672 Q1456.14 332.032 1456.75 332.032 Q1457.32 332.032 1458.5 332.081 Q1459.68 332.131 1460.27 332.131 Q1460.96 332.131 1462.34 332.081 Q1463.71 332.032 1464.39 332.032 Q1464.86 332.032 1464.86 332.409 Q1464.86 332.721 1464.73 332.885 Q1464.62 333.032 1464.5 333.065 Q1464.39 333.082 1464.16 333.082 Q1463.26 333.098 1462.68 333.213 Q1462.12 333.327 1461.91 333.557 Q1461.7 333.77 1461.65 333.918 Q1461.6 334.049 1461.6 334.278 L1462.88 351.314 L1471.37 336.508 L1471.17 333.918 Q1471.13 333.409 1470.8 333.246 Q1470.47 333.082 1469.4 333.082 Q1469.11 333.082 1468.96 333.065 Q1468.83 333.049 1468.7 332.967 Q1468.58 332.885 1468.58 332.704 Q1468.58 332.393 1468.71 332.245 Q1468.85 332.081 1468.94 332.065 Q1469.06 332.032 1469.22 332.032 Q1469.6 332.032 1470.98 332.081 Q1472.35 332.131 1472.75 332.131 Q1473.42 332.131 1474.8 332.081 Q1476.17 332.032 1476.85 332.032 Q1477.36 332.032 1477.36 332.409 Q1477.36 332.868 1477.16 332.983 Q1476.96 333.082 1476.45 333.082 Q1475.58 333.098 1475.04 333.229 Q1474.52 333.36 1474.32 333.655 Q1474.14 333.934 1474.11 334.114 Q1474.08 334.295 1474.09 334.656 L1475.34 351.314 L1484.41 335.492 Q1484.44 335.426 1484.54 335.246 Q1484.65 335.049 1484.67 335 Q1484.7 334.951 1484.75 334.819 Q1484.82 334.688 1484.83 334.606 Q1484.85 334.508 1484.85 334.393 Q1484.85 333.721 1484.24 333.426 Q1483.63 333.114 1482.86 333.082 Q1482.36 333.082 1482.36 332.672 Q1482.36 332.377 1482.49 332.229 Q1482.62 332.065 1482.72 332.049 Q1482.83 332.032 1483 332.032 Q1483.55 332.032 1484.73 332.081 Q1485.91 332.131 1486.49 332.131 Q1486.91 332.131 1487.8 332.081 Q1488.68 332.032 1489.08 332.032 Q1489.26 332.032 1489.36 332.163 Q1489.47 332.295 1489.47 332.409 Z" fill="#000000" fill-rule="nonzero" fill-opacity="1" /></svg>
