<?xml version="1.0" encoding="utf-8"?>
<svg xmlns="http://www.w3.org/2000/svg" xmlns:xlink="http://www.w3.org/1999/xlink" width="180" height="63" viewBox="0 0 720 252">
<defs>
  <clipPath id="clip900">
    <rect x="0" y="0" width="720" height="252"/>
  </clipPath>
</defs>
<path clip-path="url(#clip900)" d="M0 252 L720 252 L720 2.84217e-14 L0 2.84217e-14  Z" fill="#ffffff" fill-rule="evenodd" fill-opacity="1"/>
<defs>
  <clipPath id="clip901">
    <rect x="144" y="0" width="505" height="252"/>
  </clipPath>
</defs>
<path clip-path="url(#clip900)" d="M0 252 L720 252 L720 2.84217e-14 L0 2.84217e-14  Z" fill="#ffffff" fill-rule="evenodd" fill-opacity="1"/>
<polyline clip-path="url(#clip900)" style="stroke:#000000; stroke-linecap:round; stroke-linejoin:round; stroke-width:4; stroke-opacity:1; fill:none" points="0,252 720,252 "/>
<polyline clip-path="url(#clip900)" style="stroke:#000000; stroke-linecap:round; stroke-linejoin:round; stroke-width:4; stroke-opacity:1; fill:none" points="0,2.84217e-14 720,2.84217e-14 "/>
<polyline clip-path="url(#clip900)" style="stroke:#000000; stroke-linecap:round; stroke-linejoin:round; stroke-width:4; stroke-opacity:1; fill:none" points="0,252 0,2.84217e-14 "/>
<polyline clip-path="url(#clip900)" style="stroke:#000000; stroke-linecap:round; stroke-linejoin:round; stroke-width:4; stroke-opacity:1; fill:none" points="720,252 720,2.84217e-14 "/>
<polyline clip-path="url(#clip900)" style="stroke:#000000; stroke-linecap:round; stroke-linejoin:round; stroke-width:4; stroke-opacity:1; fill:none" points="-720,126 1440,126 "/>
<circle clip-path="url(#clip900)" cx="144" cy="25.2" r="18" fill="#000000" fill-rule="evenodd" fill-opacity="1" stroke="none"/>
<circle clip-path="url(#clip900)" cx="252" cy="25.2" r="18" fill="#000000" fill-rule="evenodd" fill-opacity="1" stroke="none"/>
<circle clip-path="url(#clip900)" cx="468" cy="226.8" r="18" fill="#000000" fill-rule="evenodd" fill-opacity="1" stroke="none"/>
<polyline clip-path="url(#clip900)" style="stroke:#000000; stroke-linecap:round; stroke-linejoin:round; stroke-width:4; stroke-opacity:1; fill:none" stroke-dasharray="16, 10" points="144,126 144,25.2 "/>
<polyline clip-path="url(#clip900)" style="stroke:#000000; stroke-linecap:round; stroke-linejoin:round; stroke-width:4; stroke-opacity:1; fill:none" stroke-dasharray="16, 10" points="252,126 252,25.2 "/>
<polyline clip-path="url(#clip900)" style="stroke:#000000; stroke-linecap:round; stroke-linejoin:round; stroke-width:4; stroke-opacity:1; fill:none" stroke-dasharray="16, 10" points="468,126 468,226.8 "/>
<path clip-path="url(#clip900)" d="M574.014 112.08 L696 112.08 L696 8.4 L574.014 8.4  Z" fill="#ffffff" fill-rule="evenodd" fill-opacity="1"/>
<polyline clip-path="url(#clip900)" style="stroke:#000000; stroke-linecap:round; stroke-linejoin:round; stroke-width:4; stroke-opacity:1; fill:none" points="574.014,112.08 696,112.08 696,8.4 574.014,8.4 574.014,112.08 "/>
<circle clip-path="url(#clip900)" cx="606.014" cy="60.24" r="23.04" fill="#000000" fill-rule="evenodd" fill-opacity="1" stroke="none"/>
<path clip-path="url(#clip900)" d="M664.013 51.7354 Q663.404 54.7569 662.584 56.4901 Q661.272 59.1369 659.024 59.1369 Q657.431 59.1369 656.213 58.1766 Q655.018 57.2162 654.714 55.6235 Q654.105 56.3496 653.66 56.7712 Q653.238 57.1928 652.395 57.8486 Q651.575 58.481 650.545 58.809 Q649.514 59.1369 648.343 59.1369 Q645.486 59.1369 643.682 57.6378 Q641.246 67.4518 641.035 67.9437 Q640.356 68.9509 639.372 68.9509 Q638.763 68.9509 638.389 68.5761 Q638.014 68.2248 638.014 67.6626 Q638.037 67.4753 638.178 66.8897 L645.064 39.1341 Q645.251 38.3846 645.72 37.963 Q646.212 37.518 646.493 37.4711 Q646.774 37.4008 646.985 37.4008 Q647.617 37.4008 647.992 37.7522 Q648.39 38.0801 648.39 38.6891 Q648.39 38.7828 648.249 39.3215 Q648.132 39.8368 647.945 40.6331 Q647.757 41.4061 647.664 41.7574 L645.649 49.8147 Q644.97 52.5786 644.97 53.8902 Q644.97 55.8812 645.86 56.982 Q646.774 58.0594 648.53 58.0594 Q649.631 58.0594 650.662 57.6144 Q651.692 57.146 652.395 56.5136 Q653.098 55.8812 653.66 55.2019 Q654.222 54.4992 654.48 54.0542 Q654.737 53.5858 654.761 53.4686 L656.002 48.5733 L658.274 39.6026 Q658.415 39.0404 658.672 38.6657 Q658.953 38.2675 659.281 38.1269 Q659.609 37.9864 659.797 37.963 Q659.984 37.9161 660.148 37.9161 Q660.734 37.9161 661.132 38.2675 Q661.53 38.6188 661.53 39.2278 Q661.53 39.3449 661.389 39.907 Q661.272 40.4458 661.085 41.2421 Q660.897 42.0151 660.804 42.4367 Q660.054 45.3879 659.984 45.6924 L658.649 50.8687 Q658.579 51.1732 658.344 52.157 Q658.134 53.1407 658.017 53.656 Q657.899 54.1479 657.782 54.8271 Q657.689 55.483 657.689 55.8577 Q657.689 58.0594 659.141 58.0594 Q659.703 58.0594 660.195 57.7315 Q660.687 57.3802 661.015 56.8883 Q661.366 56.3964 661.694 55.5532 Q662.045 54.6866 662.256 53.9839 Q662.467 53.2578 662.771 52.1336 Q662.888 51.5948 663.005 51.4309 Q663.123 51.2669 663.451 51.2669 Q664.013 51.2669 664.013 51.7354 Z" fill="#000000" fill-rule="nonzero" fill-opacity="1" /><path clip-path="url(#clip900)" d="M668.882 71.4062 Q668.882 66.4711 670.128 63.7822 Q671.866 59.7817 675.965 59.7817 Q676.834 59.7817 677.736 60.0276 Q678.654 60.2572 679.802 61.1589 Q680.966 62.0607 681.671 63.5363 Q683.015 66.3892 683.015 71.4062 Q683.015 76.3086 681.769 78.9811 Q679.949 82.8832 675.932 82.8832 Q674.424 82.8832 672.883 82.1126 Q671.358 81.342 670.391 79.4893 Q668.882 76.7185 668.882 71.4062 M671.669 70.9964 Q671.669 76.0626 672.03 78.0793 Q672.44 80.2599 673.555 81.2109 Q674.686 82.1454 675.932 82.1454 Q677.277 82.1454 678.392 81.1453 Q679.523 80.1288 679.867 77.9481 Q680.244 75.8003 680.228 70.9964 Q680.228 66.3236 679.9 64.4545 Q679.457 62.2738 678.277 61.4049 Q677.113 60.5195 675.932 60.5195 Q675.49 60.5195 675.014 60.6507 Q674.555 60.7818 673.883 61.1589 Q673.211 61.536 672.686 62.4706 Q672.178 63.4051 671.932 64.8152 Q671.669 66.6351 671.669 70.9964 Z" fill="#000000" fill-rule="nonzero" fill-opacity="1" /></svg>
