<?xml version="1.0" encoding="utf-8"?>
<svg xmlns="http://www.w3.org/2000/svg" xmlns:xlink="http://www.w3.org/1999/xlink" width="400" height="250" viewBox="0 0 1600 1000">
<defs>
  <clipPath id="clip780">
    <rect x="0" y="0" width="1600" height="1000"/>
  </clipPath>
</defs>
<path clip-path="url(#clip780)" d="M0 1000 L1600 1000 L1600 0 L0 0  Z" fill="#ffffff" fill-rule="evenodd" fill-opacity="1"/>
<defs>
  <clipPath id="clip781">
    <rect x="320" y="0" width="1121" height="1000"/>
  </clipPath>
</defs>
<path clip-path="url(#clip780)" d="M47.2441 952.756 L1552.76 952.756 L1552.76 47.2441 L47.2441 47.2441  Z" fill="#ffffff" fill-rule="evenodd" fill-opacity="1"/>
<defs>
  <clipPath id="clip782">
    <rect x="47" y="47" width="1507" height="907"/>
  </clipPath>
</defs>
<polyline clip-path="url(#clip780)" style="stroke:#000000; stroke-linecap:round; stroke-linejoin:round; stroke-width:4; stroke-opacity:1; fill:none" points="47.2441,952.756 1552.76,952.756 "/>
<polyline clip-path="url(#clip780)" style="stroke:#000000; stroke-linecap:round; stroke-linejoin:round; stroke-width:4; stroke-opacity:1; fill:none" points="47.2441,47.2441 1552.76,47.2441 "/>
<polyline clip-path="url(#clip780)" style="stroke:#000000; stroke-linecap:round; stroke-linejoin:round; stroke-width:4; stroke-opacity:1; fill:none" points="47.2441,952.756 47.2441,47.2441 "/>
<polyline clip-path="url(#clip780)" style="stroke:#000000; stroke-linecap:round; stroke-linejoin:round; stroke-width:4; stroke-opacity:1; fill:none" points="1552.76,952.756 1552.76,47.2441 "/>
<polyline clip-path="url(#clip782)" style="stroke:#000000; stroke-linecap:round; stroke-linejoin:round; stroke-width:4; stroke-opacity:1; fill:none" points="-1458.27,500 3058.27,500 "/>
<path clip-path="url(#clip782)" d="M603.176 233.622 L603.176 313.622 L683.176 313.622 L683.176 233.622 L603.176 233.622 Z" fill="#ffff00" fill-rule="evenodd" fill-opacity="1" stroke="#000000" stroke-opacity="1" stroke-width="4"/>
<path clip-path="url(#clip782)" d="M916.824 686.378 L916.824 766.378 L996.824 766.378 L996.824 686.378 L916.824 686.378 Z" fill="#ffff00" fill-rule="evenodd" fill-opacity="1" stroke="#000000" stroke-opacity="1" stroke-width="4"/>
<polyline clip-path="url(#clip782)" style="stroke:#800080; stroke-linecap:round; stroke-linejoin:round; stroke-width:4; stroke-opacity:1; fill:none" points="-1081.89,500 -1078.13,508.522 -1074.36,517.033 -1070.6,525.518 -1066.83,533.968 -1063.07,542.37 -1059.31,550.711 -1055.54,558.98 -1051.78,567.165 -1048.02,575.255 -1044.25,583.238 -1040.49,591.103 -1036.72,598.838 -1032.96,606.432 -1029.2,613.876 -1025.43,621.157 -1021.67,628.267 -1017.91,635.194 -1014.14,641.929 -1010.38,648.462 -1006.61,654.784 -1002.85,660.886 -999.087,666.76 -995.323,672.396 -991.559,677.788 -987.795,682.926 -984.031,687.805 -980.268,692.417 -976.504,696.755 -972.74,700.814 -968.976,704.587 -965.213,708.07 -961.449,711.257 -957.685,714.143 -953.921,716.726 -950.157,719 -946.394,720.963 -942.63,722.612 -938.866,723.944 -935.102,724.958 -931.339,725.653 -927.575,726.026 -923.811,726.079 -920.047,725.81 -916.283,725.22 -912.52,724.31 -908.756,723.082 -904.992,721.536 -901.228,719.675 -897.465,717.502 -893.701,715.02 -889.937,712.233 -886.173,709.143 -882.409,705.757 -878.646,702.078 -874.882,698.112 -871.118,693.864 -867.354,689.34 -863.591,684.548 -859.827,679.493 -856.063,674.183 -852.299,668.626 -848.535,662.829 -844.772,656.8 -841.008,650.548 -837.244,644.083 -833.48,637.413 -829.717,630.547 -825.953,623.496 -822.189,616.269 -818.425,608.877 -814.661,601.331 -810.898,593.64 -807.134,585.816 -803.37,577.87 -799.606,569.813 -795.843,561.658 -792.079,553.414 -788.315,545.095 -784.551,536.711 -780.787,528.275 -777.024,519.799 -773.26,511.295 -769.496,502.775 -765.732,494.251 -761.969,485.735 -758.205,477.239 -754.441,468.776 -750.677,460.356 -746.913,451.994 -743.15,443.699 -739.386,435.484 -735.622,427.361 -731.858,419.342 -728.094,411.437 -724.331,403.657 -720.567,396.015 -716.803,388.52 -713.039,381.184 -709.276,374.017 -705.512,367.028 -701.748,360.229 -697.984,353.628 -694.22,347.235 -690.457,341.06 -686.693,335.11 -682.929,329.395 -679.165,323.922 -675.402,318.699 -671.638,313.734 -667.874,309.033 -664.11,304.604 -660.346,300.453 -656.583,296.585 -652.819,293.007 -649.055,289.722 -645.291,286.737 -641.528,284.054 -637.764,281.678 -634,279.613 -630.236,277.861 -626.472,276.424 -622.709,275.306 -618.945,274.506 -615.181,274.028 -611.417,273.87 -607.654,274.034 -603.89,274.518 -600.126,275.324 -596.362,276.448 -592.598,277.891 -588.835,279.649 -585.071,281.72 -581.307,284.101 -577.543,286.79 -573.78,289.781 -570.016,293.071 -566.252,296.656 -562.488,300.529 -558.724,304.686 -554.961,309.12 -551.197,313.826 -547.433,318.796 -543.669,324.024 -539.906,329.502 -536.142,335.222 -532.378,341.177 -528.614,347.357 -524.85,353.754 -521.087,360.359 -517.323,367.163 -513.559,374.156 -509.795,381.327 -506.031,388.667 -502.268,396.165 -498.504,403.811 -494.74,411.594 -490.976,419.502 -487.213,427.525 -483.449,435.651 -479.685,443.869 -475.921,452.166 -472.157,460.531 -468.394,468.952 -464.63,477.418 -460.866,485.916 -457.102,494.433 -453.339,502.959 -449.575,511.481 -445.811,519.986 -442.047,528.463 -438.283,536.899 -434.52,545.284 -430.756,553.603 -426.992,561.847 -423.228,570.003 -419.465,578.059 -415.701,586.005 -411.937,593.828 -408.173,601.518 -404.409,609.064 -400.646,616.455 -396.882,623.68 -393.118,630.73 -389.354,637.594 -385.591,644.262 -381.827,650.726 -378.063,656.975 -374.299,663.001 -370.535,668.796 -366.772,674.351 -363.008,679.658 -359.244,684.709 -355.48,689.499 -351.717,694.019 -347.953,698.263 -344.189,702.226 -340.425,705.901 -336.661,709.283 -332.898,712.368 -329.134,715.152 -325.37,717.629 -321.606,719.798 -317.843,721.654 -314.079,723.195 -310.315,724.419 -306.551,725.324 -302.787,725.908 -299.024,726.172 -295.26,726.114 -291.496,725.735 -287.732,725.035 -283.969,724.016 -280.205,722.678 -276.441,721.023 -272.677,719.054 -268.913,716.774 -265.15,714.186 -261.386,711.294 -257.622,708.101 -253.858,704.613 -250.094,700.833 -246.331,696.769 -242.567,692.424 -238.803,687.806 -235.039,682.922 -231.276,677.777 -227.512,672.379 -223.748,666.737 -219.984,660.857 -216.22,654.749 -212.457,648.421 -208.693,641.882 -204.929,635.141 -201.165,628.209 -197.402,621.094 -193.638,613.806 -189.874,606.357 -186.11,598.757 -182.346,591.017 -178.583,583.147 -174.819,575.159 -171.055,567.064 -167.291,558.873 -163.528,550.599 -159.764,542.253 -156,533.847 -152.236,525.393 -148.472,516.902 -144.709,508.388 -140.945,499.861 -137.181,491.335 -133.417,482.821 -129.654,474.331 -125.89,465.878 -122.126,457.473 -118.362,449.128 -114.598,440.856 -110.835,432.668 -107.071,424.575 -103.307,416.589 -99.5433,408.722 -95.7795,400.985 -92.0157,393.388 -88.252,385.943 -84.4882,378.659 -80.7244,371.549 -76.9606,364.62 -73.1969,357.884 -69.4331,351.35 -65.6693,345.027 -61.9055,338.924 -58.1417,333.05 -54.378,327.413 -50.6142,322.022 -46.8504,316.883 -43.0866,312.005 -39.3228,307.393 -35.5591,303.056 -31.7953,298.998 -28.0315,295.225 -24.2677,291.744 -20.5039,288.559 -16.7402,285.674 -12.9764,283.094 -9.2126,280.821 -5.44882,278.861 -1.68504,277.214 2.07874,275.884 5.84252,274.873 9.6063,274.181 13.3701,273.81 17.1339,273.761 20.8976,274.033 24.6614,274.627 28.4252,275.54 32.189,276.773 35.9528,278.323 39.7165,280.187 43.4803,282.365 47.2441,284.851 51.0079,287.643 54.7717,290.737 58.5354,294.129 62.2992,297.812 66.063,301.784 69.8268,306.037 73.5906,310.565 77.3543,315.363 81.1181,320.423 84.8819,325.739 88.6457,331.302 92.4094,337.104 96.1732,343.139 99.937,349.396 103.701,355.867 107.465,362.543 111.228,369.415 114.992,376.472 118.756,383.705 122.52,391.103 126.283,398.656 130.047,406.353 133.811,414.182 137.575,422.134 141.339,430.197 145.102,438.359 148.866,446.609 152.63,454.934 156.394,463.324 160.157,471.765 163.921,480.247 167.685,488.757 171.449,497.283 175.213,505.813 178.976,514.335 182.74,522.837 186.504,531.306 190.268,539.73 194.031,548.098 197.795,556.398 201.559,564.618 205.323,572.746 209.087,580.771 212.85,588.681 216.614,596.465 220.378,604.112 224.142,611.612 227.906,618.952 231.669,626.124 235.433,633.116 239.197,639.92 242.961,646.524 246.724,652.921 250.488,659.1 254.252,665.053 258.016,670.772 261.78,676.248 265.543,681.473 269.307,686.441 273.071,691.144 276.835,695.576 280.598,699.729 284.362,703.599 288.126,707.179 291.89,710.465 295.654,713.452 299.417,716.136 303.181,718.513 306.945,720.579 310.709,722.332 314.472,723.769 318.236,724.888 322,725.687 325.764,726.166 329.528,726.323 333.291,726.159 337.055,725.673 340.819,724.867 344.583,723.741 348.346,722.298 352.11,720.538 355.874,718.465 359.638,716.082 363.402,713.392 367.165,710.398 370.929,707.106 374.693,703.519 378.457,699.643 382.22,695.483 385.984,691.045 389.748,686.336 393.512,681.363 397.276,676.131 401.039,670.649 404.803,664.925 408.567,658.966 412.331,652.782 416.094,646.38 419.858,639.771 423.622,632.962 427.386,625.965 431.15,618.789 434.913,611.443 438.677,603.94 442.441,596.289 446.205,588.501 449.969,580.587 453.732,572.558 457.496,564.427 461.26,556.204 465.024,547.901 468.787,539.529 472.551,531.102 476.315,522.63 480.079,514.127 483.843,505.603 487.606,497.071 491.37,488.543 495.134,480.031 498.898,471.548 502.661,463.105 506.425,454.715 510.189,446.389 513.953,438.139 517.717,429.976 521.48,421.914 525.244,413.962 529.008,406.132 532.772,398.436 536.535,390.884 540.299,383.487 544.063,376.255 547.827,369.199 551.591,362.33 555.354,355.655 559.118,349.186 562.882,342.931 566.646,336.899 570.409,331.099 574.173,325.538 577.937,320.226 581.701,315.169 585.465,310.374 589.228,305.849 592.992,301.6 596.756,297.633 600.52,293.953 604.283,290.566 608.047,287.476 611.811,284.688 615.575,282.206 619.339,280.034 623.102,278.174 626.866,276.63 630.63,275.402 634.394,274.494 638.157,273.906 641.921,273.639 645.685,273.694 649.449,274.071 653.213,274.768 656.976,275.786 660.74,277.122 664.504,278.775 668.268,280.742 672.031,283.02 675.795,285.607 679.559,288.498 683.323,291.69 687.087,295.178 690.85,298.957 694.614,303.021 698.378,307.365 702.142,311.984 705.906,316.869 709.669,322.014 713.433,327.412 717.197,333.056 720.961,338.936 724.724,345.046 728.488,351.375 732.252,357.916 736.016,364.659 739.78,371.594 743.543,378.711 747.307,386.001 751.071,393.452 754.835,401.056 758.598,408.799 762.362,416.672 766.126,424.664 769.89,432.763 773.654,440.957 777.417,449.235 781.181,457.585 784.945,465.996 788.709,474.454 792.472,482.949 796.236,491.469 800,500 803.764,508.531 807.528,517.051 811.291,525.546 815.055,534.004 818.819,542.415 822.583,550.765 826.346,559.043 830.11,567.237 833.874,575.336 837.638,583.328 841.402,591.201 845.165,598.944 848.929,606.548 852.693,613.999 856.457,621.289 860.22,628.406 863.984,635.341 867.748,642.084 871.512,648.625 875.276,654.954 879.039,661.064 882.803,666.944 886.567,672.588 890.331,677.986 894.094,683.131 897.858,688.016 901.622,692.635 905.386,696.979 909.15,701.043 912.913,704.822 916.677,708.31 920.441,711.502 924.205,714.393 927.969,716.98 931.732,719.258 935.496,721.225 939.26,722.878 943.024,724.214 946.787,725.232 950.551,725.929 954.315,726.306 958.079,726.361 961.843,726.094 965.606,725.506 969.37,724.598 973.134,723.37 976.898,721.826 980.661,719.966 984.425,717.794 988.189,715.312 991.953,712.524 995.717,709.434 999.48,706.047 1003.24,702.367 1007.01,698.4 1010.77,694.151 1014.54,689.626 1018.3,684.831 1022.06,679.774 1025.83,674.462 1029.59,668.901 1033.35,663.101 1037.12,657.069 1040.88,650.814 1044.65,644.345 1048.41,637.67 1052.17,630.801 1055.94,623.745 1059.7,616.513 1063.46,609.116 1067.23,601.564 1070.99,593.868 1074.76,586.038 1078.52,578.086 1082.28,570.024 1086.05,561.861 1089.81,553.611 1093.57,545.285 1097.34,536.895 1101.1,528.452 1104.87,519.969 1108.63,511.457 1112.39,502.929 1116.16,494.397 1119.92,485.873 1123.69,477.37 1127.45,468.898 1131.21,460.471 1134.98,452.099 1138.74,443.796 1142.5,435.573 1146.27,427.442 1150.03,419.413 1153.8,411.499 1157.56,403.711 1161.32,396.06 1165.09,388.557 1168.85,381.211 1172.61,374.035 1176.38,367.038 1180.14,360.229 1183.91,353.62 1187.67,347.218 1191.43,341.034 1195.2,335.075 1198.96,329.351 1202.72,323.869 1206.49,318.637 1210.25,313.664 1214.02,308.955 1217.78,304.517 1221.54,300.357 1225.31,296.481 1229.07,292.894 1232.83,289.602 1236.6,286.608 1240.36,283.918 1244.13,281.535 1247.89,279.462 1251.65,277.702 1255.42,276.259 1259.18,275.133 1262.94,274.327 1266.71,273.841 1270.47,273.677 1274.24,273.834 1278,274.313 1281.76,275.112 1285.53,276.231 1289.29,277.668 1293.06,279.421 1296.82,281.487 1300.58,283.864 1304.35,286.548 1308.11,289.535 1311.87,292.821 1315.64,296.401 1319.4,300.271 1323.17,304.424 1326.93,308.856 1330.69,313.559 1334.46,318.527 1338.22,323.752 1341.98,329.228 1345.75,334.947 1349.51,340.9 1353.28,347.079 1357.04,353.476 1360.8,360.08 1364.57,366.884 1368.33,373.876 1372.09,381.048 1375.86,388.388 1379.62,395.888 1383.39,403.535 1387.15,411.319 1390.91,419.229 1394.68,427.254 1398.44,435.382 1402.2,443.602 1405.97,451.902 1409.73,460.27 1413.5,468.694 1417.26,477.163 1421.02,485.665 1424.79,494.187 1428.55,502.717 1432.31,511.243 1436.08,519.753 1439.84,528.235 1443.61,536.676 1447.37,545.066 1451.13,553.391 1454.9,561.641 1458.66,569.803 1462.43,577.866 1466.19,585.818 1469.95,593.647 1473.72,601.344 1477.48,608.897 1481.24,616.295 1485.01,623.528 1488.77,630.585 1492.54,637.457 1496.3,644.133 1500.06,650.604 1503.83,656.861 1507.59,662.896 1511.35,668.698 1515.12,674.261 1518.88,679.577 1522.65,684.637 1526.41,689.435 1530.17,693.963 1533.94,698.216 1537.7,702.188 1541.46,705.871 1545.23,709.263 1548.99,712.357 1552.76,715.149 1556.52,717.635 1560.28,719.813 1564.05,721.677 1567.81,723.227 1571.57,724.46 1575.34,725.373 1579.1,725.967 1582.87,726.239 1586.63,726.19 1590.39,725.819 1594.16,725.127 1597.92,724.116 1601.69,722.786 1605.45,721.139 1609.21,719.179 1612.98,716.906 1616.74,714.326 1620.5,711.441 1624.27,708.256 1628.03,704.775 1631.8,701.002 1635.56,696.944 1639.32,692.607 1643.09,687.995 1646.85,683.117 1650.61,677.978 1654.38,672.587 1658.14,666.95 1661.91,661.076 1665.67,654.973 1669.43,648.65 1673.2,642.116 1676.96,635.38 1680.72,628.451 1684.49,621.341 1688.25,614.057 1692.02,606.612 1695.78,599.015 1699.54,591.278 1703.31,583.411 1707.07,575.425 1710.83,567.332 1714.6,559.144 1718.36,550.872 1722.13,542.527 1725.89,534.122 1729.65,525.669 1733.42,517.179 1737.18,508.665 1740.94,500.139 1744.71,491.612 1748.47,483.098 1752.24,474.607 1756,466.153 1759.76,457.747 1763.53,449.401 1767.29,441.127 1771.06,432.936 1774.82,424.841 1778.58,416.853 1782.35,408.983 1786.11,401.243 1789.87,393.643 1793.64,386.194 1797.4,378.906 1801.17,371.791 1804.93,364.859 1808.69,358.118 1812.46,351.579 1816.22,345.251 1819.98,339.143 1823.75,333.263 1827.51,327.621 1831.28,322.223 1835.04,317.078 1838.8,312.194 1842.57,307.576 1846.33,303.231 1850.09,299.167 1853.86,295.387 1857.62,291.899 1861.39,288.706 1865.15,285.814 1868.91,283.226 1872.68,280.946 1876.44,278.977 1880.2,277.322 1883.97,275.984 1887.73,274.965 1891.5,274.265 1895.26,273.886 1899.02,273.828 1902.79,274.092 1906.55,274.676 1910.31,275.581 1914.08,276.805 1917.84,278.346 1921.61,280.202 1925.37,282.371 1929.13,284.848 1932.9,287.632 1936.66,290.717 1940.43,294.099 1944.19,297.774 1947.95,301.737 1951.72,305.981 1955.48,310.501 1959.24,315.291 1963.01,320.342 1966.77,325.649 1970.54,331.204 1974.3,336.999 1978.06,343.025 1981.83,349.274 1985.59,355.738 1989.35,362.406 1993.12,369.27 1996.88,376.32 2000.65,383.545 2004.41,390.936 2008.17,398.482 2011.94,406.172 2015.7,413.995 2019.46,421.941 2023.23,429.997 2026.99,438.153 2030.76,446.397 2034.52,454.716 2038.28,463.101 2042.05,471.537 2045.81,480.014 2049.57,488.519 2053.34,497.041 2057.1,505.567 2060.87,514.084 2064.63,522.582 2068.39,531.048 2072.16,539.469 2075.92,547.834 2079.69,556.131 2083.45,564.349 2087.21,572.475 2090.98,580.498 2094.74,588.406 2098.5,596.189 2102.27,603.835 2106.03,611.333 2109.8,618.673 2113.56,625.844 2117.32,632.837 2121.09,639.641 2124.85,646.246 2128.61,652.643 2132.38,658.823 2136.14,664.778 2139.91,670.498 2143.67,675.976 2147.43,681.204 2151.2,686.174 2154.96,690.88 2158.72,695.314 2162.49,699.471 2166.25,703.344 2170.02,706.929 2173.78,710.219 2177.54,713.21 2181.31,715.899 2185.07,718.28 2188.83,720.351 2192.6,722.109 2196.36,723.552 2200.13,724.676 2203.89,725.482 2207.65,725.966 2211.42,726.13 2215.18,725.972 2218.94,725.494 2222.71,724.694 2226.47,723.576 2230.24,722.139 2234,720.387 2237.76,718.322 2241.53,715.946 2245.29,713.263 2249.06,710.278 2252.82,706.993 2256.58,703.415 2260.35,699.547 2264.11,695.396 2267.87,690.967 2271.64,686.266 2275.4,681.301 2279.17,676.078 2282.93,670.605 2286.69,664.89 2290.46,658.94 2294.22,652.765 2297.98,646.372 2301.75,639.771 2305.51,632.972 2309.28,625.983 2313.04,618.816 2316.8,611.48 2320.57,603.985 2324.33,596.343 2328.09,588.563 2331.86,580.658 2335.62,572.639 2339.39,564.516 2343.15,556.301 2346.91,548.006 2350.68,539.644 2354.44,531.224 2358.2,522.761 2361.97,514.265 2365.73,505.749 2369.5,497.225 2373.26,488.705 2377.02,480.201 2380.79,471.725 2384.55,463.289 2388.31,454.905 2392.08,446.586 2395.84,438.342 2399.61,430.187 2403.37,422.13 2407.13,414.184 2410.9,406.36 2414.66,398.669 2418.43,391.123 2422.19,383.731 2425.95,376.504 2429.72,369.453 2433.48,362.587 2437.24,355.917 2441.01,349.452 2444.77,343.2 2448.54,337.171 2452.3,331.374 2456.06,325.817 2459.83,320.507 2463.59,315.452 2467.35,310.66 2471.12,306.136 2474.88,301.888 2478.65,297.922 2482.41,294.243 2486.17,290.857 2489.94,287.767 2493.7,284.98 2497.46,282.498 2501.23,280.325 2504.99,278.464 2508.76,276.918 2512.52,275.69 2516.28,274.78 2520.05,274.19 2523.81,273.921 2527.57,273.974 2531.34,274.347 2535.1,275.042 2538.87,276.056 2542.63,277.388 2546.39,279.037 2550.16,281 2553.92,283.274 2557.69,285.857 2561.45,288.743 2565.21,291.93 2568.98,295.413 2572.74,299.186 2576.5,303.245 2580.27,307.583 2584.03,312.195 2587.8,317.074 2591.56,322.212 2595.32,327.604 2599.09,333.24 2602.85,339.114 2606.61,345.216 2610.38,351.538 2614.14,358.071 2617.91,364.806 2621.67,371.733 2625.43,378.843 2629.2,386.124 2632.96,393.568 2636.72,401.162 2640.49,408.897 2644.25,416.762 2648.02,424.745 2651.78,432.835 2655.54,441.02 2659.31,449.289 2663.07,457.63 2666.83,466.032 2670.6,474.482 2674.36,482.967 2678.13,491.478 2681.89,500 "/>
<polyline clip-path="url(#clip782)" style="stroke:#000000; stroke-linecap:round; stroke-linejoin:round; stroke-width:4; stroke-opacity:1; fill:none" stroke-dasharray="16, 10" points="-1458.27,273.622 3058.27,273.622 "/>
<polyline clip-path="url(#clip782)" style="stroke:#000000; stroke-linecap:round; stroke-linejoin:round; stroke-width:4; stroke-opacity:1; fill:none" stroke-dasharray="16, 10" points="-1458.27,726.378 3058.27,726.378 "/>
<path clip-path="url(#clip780)" d="M97.4278 310.708 L322.946 310.708 L322.946 77.4278 L97.4278 77.4278  Z" fill="#ffffff" fill-rule="evenodd" fill-opacity="1"/>
<polyline clip-path="url(#clip780)" style="stroke:#000000; stroke-linecap:round; stroke-linejoin:round; stroke-width:4; stroke-opacity:1; fill:none" points="97.4278,310.708 322.946,310.708 322.946,77.4278 97.4278,77.4278 97.4278,310.708 "/>
<path clip-path="url(#clip780)" d="M129.43 120.279 L129.43 190.097 L199.249 190.097 L199.249 120.279 L129.43 120.279 Z" fill="#ffff00" fill-rule="evenodd" fill-opacity="1" stroke="#000000" stroke-opacity="1" stroke-width="3.49091"/>
<path clip-path="url(#clip780)" d="M270.249 142.438 Q269.336 146.97 268.106 149.57 Q266.139 153.54 262.766 153.54 Q260.377 153.54 258.55 152.1 Q256.758 150.659 256.301 148.27 Q255.388 149.359 254.72 149.992 Q254.088 150.624 252.823 151.608 Q251.593 152.556 250.048 153.048 Q248.502 153.54 246.745 153.54 Q242.459 153.54 239.753 151.292 Q236.1 166.013 235.783 166.75 Q234.764 168.261 233.289 168.261 Q232.375 168.261 231.813 167.699 Q231.251 167.172 231.251 166.329 Q231.286 166.048 231.497 165.169 L241.826 123.536 Q242.107 122.412 242.81 121.779 Q243.548 121.112 243.969 121.041 Q244.391 120.936 244.707 120.936 Q245.656 120.936 246.218 121.463 Q246.815 121.955 246.815 122.868 Q246.815 123.009 246.605 123.817 Q246.429 124.59 246.148 125.784 Q245.867 126.944 245.726 127.471 L242.705 139.557 Q241.686 143.703 241.686 145.67 Q241.686 148.656 243.021 150.308 Q244.391 151.924 247.026 151.924 Q248.677 151.924 250.223 151.256 Q251.769 150.554 252.823 149.605 Q253.877 148.656 254.72 147.638 Q255.564 146.584 255.95 145.916 Q256.337 145.213 256.372 145.038 L258.234 137.695 L261.642 124.239 Q261.853 123.395 262.239 122.833 Q262.661 122.236 263.152 122.025 Q263.644 121.814 263.925 121.779 Q264.206 121.709 264.452 121.709 Q265.331 121.709 265.928 122.236 Q266.525 122.763 266.525 123.676 Q266.525 123.852 266.314 124.695 Q266.139 125.503 265.858 126.698 Q265.577 127.857 265.436 128.49 Q264.312 132.917 264.206 133.373 L262.204 141.138 Q262.098 141.595 261.747 143.07 Q261.431 144.546 261.255 145.319 Q261.08 146.057 260.904 147.075 Q260.763 148.059 260.763 148.621 Q260.763 151.924 262.942 151.924 Q263.785 151.924 264.523 151.432 Q265.26 150.905 265.752 150.167 Q266.279 149.429 266.771 148.165 Q267.298 146.865 267.614 145.811 Q267.931 144.722 268.387 143.035 Q268.563 142.227 268.739 141.981 Q268.914 141.735 269.406 141.735 Q270.249 141.735 270.249 142.438 Z" fill="#000000" fill-rule="nonzero" fill-opacity="1" /><path clip-path="url(#clip780)" d="M277.546 171.931 Q277.546 164.528 279.415 160.495 Q282.022 154.494 288.17 154.494 Q289.474 154.494 290.826 154.863 Q292.203 155.207 293.925 156.56 Q295.671 157.912 296.729 160.126 Q298.745 164.405 298.745 171.931 Q298.745 179.284 296.876 183.293 Q294.146 189.146 288.121 189.146 Q285.858 189.146 283.547 187.99 Q281.259 186.834 279.808 184.055 Q277.546 179.899 277.546 171.931 M281.727 171.316 Q281.727 178.915 282.268 181.94 Q282.882 185.211 284.555 186.638 Q286.252 188.039 288.121 188.039 Q290.138 188.039 291.81 186.539 Q293.507 185.014 294.023 181.744 Q294.589 178.522 294.564 171.316 Q294.564 164.307 294.073 161.503 Q293.409 158.232 291.638 156.929 Q289.892 155.601 288.121 155.601 Q287.457 155.601 286.744 155.797 Q286.055 155.994 285.047 156.56 Q284.038 157.125 283.251 158.527 Q282.489 159.929 282.12 162.044 Q281.727 164.774 281.727 171.316 Z" fill="#000000" fill-rule="nonzero" fill-opacity="1" /><polyline clip-path="url(#clip780)" style="stroke:#800080; stroke-linecap:round; stroke-linejoin:round; stroke-width:6; stroke-opacity:1; fill:none" points="114.156,232.948 214.523,232.948 "/>
<path clip-path="url(#clip780)" d="M264.874 206.191 Q264.874 208.159 264.277 210.372 L256.091 242.941 Q255.353 245.822 253.139 245.822 Q252.226 245.822 251.664 245.26 Q251.137 244.733 251.137 243.89 Q251.137 243.609 251.348 242.73 L259.534 209.634 Q260.272 206.613 260.272 205.102 Q260.272 200.078 256.372 200.078 Q252.929 200.078 249.485 202.608 Q247.904 203.872 246.359 206.156 Q244.848 208.405 244.567 209.213 Q244.251 211.04 243.794 212.445 Q243.583 213.429 242.564 217.258 L240.983 223.758 Q239.859 228.607 239.613 229.063 Q239.262 230.047 238.489 230.574 Q237.716 231.101 236.943 231.101 Q236.064 231.101 235.467 230.574 Q234.87 230.047 234.87 229.134 Q234.87 228.993 234.975 228.466 Q235.081 227.939 235.256 227.201 Q235.432 226.463 235.502 226.042 L239.683 209.424 Q240.456 206.402 240.632 205.453 Q240.843 204.47 240.843 203.381 Q240.843 201.483 240.245 200.781 Q239.648 200.078 238.594 200.078 Q236.767 200.078 235.573 202.256 Q234.378 204.435 233.359 208.651 Q233.043 209.81 232.832 210.056 Q232.656 210.302 232.129 210.302 Q231.251 210.267 231.251 209.564 Q231.251 209.388 231.532 208.264 Q231.813 207.105 232.34 205.418 Q232.902 203.697 233.5 202.608 Q233.851 201.87 234.167 201.378 Q234.483 200.886 235.116 200.113 Q235.748 199.34 236.697 198.919 Q237.645 198.497 238.805 198.497 Q241.37 198.497 243.267 200.148 Q245.199 201.8 245.445 204.751 Q246.183 203.662 247.132 202.678 Q248.115 201.694 249.485 200.71 Q250.856 199.692 252.718 199.094 Q254.58 198.497 256.582 198.497 Q260.588 198.497 262.731 200.57 Q264.874 202.608 264.874 206.191 Z" fill="#000000" fill-rule="nonzero" fill-opacity="1" /><path clip-path="url(#clip780)" d="M297.136 266.485 Q297.136 266.953 296.595 267.002 L295.488 267.002 Q294.357 267.002 293.865 266.83 Q293.373 266.657 292.808 265.87 Q292.463 265.379 291.602 263.091 Q290.766 260.78 289.537 257.287 Q288.332 253.795 287.52 251.729 L275.395 266.043 Q274.559 267.1 273.723 267.1 Q273.108 267.1 272.665 266.682 Q272.223 266.264 272.223 265.624 Q272.223 265.157 272.395 264.887 Q272.592 264.616 273.108 264.075 L287.028 250.278 L282.134 236.579 Q281.199 234.046 280.658 233.407 Q280.142 232.767 278.863 232.546 Q278.396 232.423 278.396 232.03 Q278.396 231.489 279.306 231.489 Q284.175 231.489 285.454 235.055 L295.734 263.706 Q296.3 265.354 296.89 266.043 Q297.136 266.362 297.136 266.485 Z" fill="#000000" fill-rule="nonzero" fill-opacity="1" /></svg>
